<svg width="20" height="20" viewBox="0 0 20 20" fill="none" xmlns="http://www.w3.org/2000/svg">
<g clip-path="url(#clip0_7554_123344)">
<path d="M10 20C15.5228 20 20 15.5228 20 10C20 4.47715 15.5228 0 10 0C4.47715 0 0 4.47715 0 10C0 15.5228 4.47715 20 10 20Z" fill="#E6007A"/>
<path d="M10 5.88892C11.412 5.88892 12.5567 5.22353 12.5567 4.40271C12.5567 3.5819 11.412 2.9165 10 2.9165C8.58801 2.9165 7.44337 3.5819 7.44337 4.40271C7.44337 5.22353 8.58801 5.88892 10 5.88892Z" fill="white"/>
<path d="M10 17.0832C11.412 17.0832 12.5567 16.4178 12.5567 15.597C12.5567 14.7761 11.412 14.1107 10 14.1107C8.58801 14.1107 7.44337 14.7761 7.44337 15.597C7.44337 16.4178 8.58801 17.0832 10 17.0832Z" fill="white"/>
<path d="M6.43658 7.94444C7.14258 6.72277 7.13811 5.39971 6.4266 4.9893C5.71508 4.5789 4.56596 5.23656 3.85996 6.45823C3.15397 7.6799 3.15844 9.00296 3.86995 9.41336C4.58147 9.82377 5.73059 9.16611 6.43658 7.94444Z" fill="white"/>
<path d="M16.1401 13.5415C16.8461 12.3199 16.8416 10.9968 16.1301 10.5864C15.4186 10.176 14.2695 10.8337 13.5635 12.0553C12.8575 13.277 12.862 14.6001 13.5735 15.0105C14.285 15.4209 15.4341 14.7632 16.1401 13.5415Z" fill="white"/>
<path d="M6.42659 15.0104C7.1381 14.6 7.14258 13.2769 6.43658 12.0553C5.73058 10.8336 4.58146 10.1759 3.86995 10.5863C3.15843 10.9967 3.15396 12.3198 3.85996 13.5415C4.56596 14.7631 5.71508 15.4208 6.42659 15.0104Z" fill="white"/>
<path d="M16.1301 9.41341C16.8416 9.003 16.8461 7.67994 16.1401 6.45827C15.4341 5.2366 14.2849 4.57894 13.5734 4.98935C12.8619 5.39975 12.8574 6.72281 13.5634 7.94448C14.2694 9.16615 15.4186 9.82381 16.1301 9.41341Z" fill="white"/>
</g>
<defs>
<clipPath id="clip0_7554_123344">
<rect width="20" height="20" fill="white"/>
</clipPath>
</defs>
</svg>
