<svg width="20" height="20" viewBox="0 0 20 20" fill="none" xmlns="http://www.w3.org/2000/svg">
<g clip-path="url(#clip0_7554_123553)">
<path d="M10 20C15.5228 20 20 15.5228 20 10C20 4.47715 15.5228 0 10 0C4.47715 0 0 4.47715 0 10C0 15.5228 4.47715 20 10 20Z" fill="#F1305A"/>
<path d="M3.97069 7.99998C3.97069 4.5261 6.6701 1.70996 9.99999 1.70996C13.3299 1.70996 16.0293 4.5261 16.0293 7.99998V12.0005C16.0293 13.875 15.2433 15.558 13.9964 16.7104V7.99998C13.9964 5.69737 12.2072 3.83073 9.99999 3.83073C7.79282 3.83073 6.00356 5.69737 6.00356 7.99998V16.7104C4.75666 15.558 3.97069 13.875 3.97069 12.0005V7.99998Z" fill="white"/>
<path d="M6.00356 16.7104C7.06745 17.6936 8.4669 18.2906 9.99999 18.2906C11.5331 18.2906 12.9325 17.6936 13.9964 16.7104H6.00356Z" fill="white"/>
<path d="M12.4949 7.99998C11.117 7.99998 9.99999 6.83468 9.99999 5.39722C9.99999 6.83468 8.883 7.99998 7.50511 7.99998C8.883 7.99998 9.99999 9.16528 9.99999 10.6028C9.99999 9.16528 11.117 7.99998 12.4949 7.99998Z" fill="white"/>
</g>
<defs>
<clipPath id="clip0_7554_123553">
<rect width="20" height="20" fill="white"/>
</clipPath>
</defs>
</svg>
