<svg width="20" height="20" viewBox="0 0 20 20" fill="none" xmlns="http://www.w3.org/2000/svg">
<g clip-path="url(#clip0_7554_123362)">
<path d="M10 20C15.5228 20 20 15.5228 20 10C20 4.47715 15.5228 0 10 0C4.47715 0 0 4.47715 0 10C0 15.5228 4.47715 20 10 20Z" fill="#009393"/>
<path fill-rule="evenodd" clip-rule="evenodd" d="M15.0516 5.00073V6.88624H11.2591V8.19353C13.9227 8.33323 15.921 8.90702 15.9359 9.59476L15.9358 11.0285C15.921 11.7162 13.9227 12.29 11.2591 12.4297V15.6379H8.7409V12.4297C6.07735 12.29 4.07898 11.7162 4.06415 11.0285L4.06425 9.59476C4.07906 8.90702 6.07735 8.33323 8.7409 8.19353V6.88624H4.94846V5.00073H15.0516ZM10 11.4447C12.8425 11.4447 15.2183 10.9595 15.7998 10.3116C15.3067 9.76217 13.5233 9.32976 11.2591 9.211V10.5797C10.8533 10.601 10.432 10.6122 10 10.6122C9.56797 10.6122 9.1467 10.601 8.7409 10.5797V9.211C6.47675 9.32976 4.69332 9.76217 4.20026 10.3116C4.7817 10.9595 7.15752 11.4447 10 11.4447Z" fill="white"/>
</g>
<defs>
<clipPath id="clip0_7554_123362">
<rect width="20" height="20" fill="white"/>
</clipPath>
</defs>
</svg>
