<svg width="32" height="32" viewBox="0 0 32 32" fill="none" xmlns="http://www.w3.org/2000/svg">
<path d="M2.66663 10.0228C2.66663 5.96004 5.96016 2.6665 10.0229 2.6665H21.977C26.0397 2.6665 29.3333 5.96004 29.3333 10.0228V21.9769C29.3333 26.0396 26.0397 29.3332 21.977 29.3332H10.0229C5.96016 29.3332 2.66663 26.0396 2.66663 21.9769V10.0228Z" fill="#D5FF5D"/>
<path fill-rule="evenodd" clip-rule="evenodd" d="M21.8402 17.1792C22.0361 17.6056 22.6129 17.7562 22.9448 17.4244L23.5535 16.816C24.1825 16.1873 25.2023 16.1873 25.8312 16.816C26.4602 17.4447 26.4602 18.464 25.8312 19.0927L20.9118 24.0098C19.7301 25.412 17.9604 26.3028 15.9826 26.3028C13.92 26.3028 12.0839 25.3341 10.9048 23.827L6.16863 19.093C5.53966 18.4643 5.53966 17.445 6.16863 16.8163C6.79761 16.1876 7.81737 16.1876 8.44635 16.8163L9.04582 17.4155C9.37048 17.74 9.93412 17.594 10.1259 17.1771C10.1638 17.0947 10.1844 17.0062 10.1844 16.9156L10.1843 9.56037C10.1843 8.67129 10.9054 7.95054 11.7949 7.95054C12.6845 7.95054 13.4055 8.67129 13.4055 9.56037V13.2812C13.4055 13.6014 13.7337 13.8187 14.0391 13.7223C14.2324 13.6612 14.372 13.4853 14.372 13.2826V7.30662C14.372 6.41753 15.0931 5.69678 15.9826 5.69678C16.8721 5.69678 17.5932 6.41753 17.5932 7.30662V13.2828C17.5932 13.4853 17.7328 13.6612 17.9261 13.7223C18.2314 13.8187 18.5594 13.6015 18.5594 13.2814V9.56037C18.5594 8.67129 19.2805 7.95054 20.17 7.95054C21.0595 7.95054 21.7806 8.67129 21.7806 9.56037V16.9126C21.7806 17.0051 21.8016 17.0952 21.8402 17.1792Z" fill="#FD4848"/>
<path fill-rule="evenodd" clip-rule="evenodd" d="M13.5505 18.3967C13.2908 18.559 13.0443 18.7371 12.8137 18.9214C12.5742 19.3985 12.4394 19.9372 12.4394 20.5074C12.4394 21.0774 12.5742 21.616 12.8135 22.0931C13.0441 22.2774 13.2906 22.4554 13.5502 22.6177C13.0591 22.0526 12.7618 21.3147 12.7618 20.5074C12.7618 19.6999 13.0592 18.9618 13.5505 18.3967ZM18.4152 22.6177C18.6749 22.4554 18.9214 22.2774 19.1519 22.0931C19.3913 21.616 19.526 21.0774 19.526 20.5074C19.526 19.9372 19.3912 19.3985 19.1518 18.9214C18.9212 18.7371 18.6746 18.559 18.4149 18.3967C18.9062 18.9618 19.2036 19.6999 19.2036 20.5074C19.2036 21.3147 18.9064 22.0526 18.4152 22.6177ZM18.6261 18.1488C17.8532 17.6587 16.949 17.2876 15.9827 17.2876C14.5595 17.2876 13.271 18.0925 12.3384 18.8975C12.0634 19.1348 11.8023 19.3865 11.5544 19.6506C11.5545 19.6503 11.5545 19.6499 11.5546 19.6495C11.2232 20.001 10.9932 20.2908 10.8902 20.4257C10.869 20.4528 10.8479 20.4799 10.8269 20.5072C10.845 20.5308 10.8632 20.5543 10.8815 20.5777C10.9799 20.7072 11.2135 21.0036 11.5546 21.3653C11.5546 21.365 11.5545 21.3647 11.5545 21.3644C11.8024 21.6284 12.0636 21.88 12.3384 22.1172C13.271 22.9221 14.5595 23.727 15.9827 23.727C16.9492 23.727 17.8535 23.3558 18.6264 22.8656C18.6262 22.8658 18.6259 22.8661 18.6257 22.8664C19.1343 22.5439 19.5861 22.1698 19.9613 21.8159C19.9614 21.8156 19.9614 21.8154 19.9615 21.8152C20.1266 21.6594 20.2769 21.5076 20.4107 21.3657C20.4107 21.3659 20.4106 21.3661 20.4106 21.3664C20.7813 20.9733 21.0253 20.6572 21.1069 20.5483C21.1174 20.5346 21.128 20.5209 21.1385 20.5072C21.1249 20.4895 21.1113 20.4718 21.0976 20.4542C21.0079 20.3351 20.7682 20.0276 20.4106 19.6485C20.4106 19.6486 20.4106 19.6487 20.4107 19.6489C20.2769 19.507 20.1266 19.3552 19.9615 19.1994C19.9614 19.1993 19.9614 19.1991 19.9613 19.199C19.5861 18.8451 19.1344 18.471 18.6258 18.1485C18.6259 18.1486 18.626 18.1487 18.6261 18.1488ZM20.1106 19.8011C20.1497 20.0307 20.17 20.2666 20.17 20.5074C20.17 20.748 20.1497 20.9839 20.1106 21.2135C20.2526 21.0656 20.3773 20.9273 20.4826 20.8055C20.4891 20.707 20.4924 20.6075 20.4924 20.5074C20.4924 20.4071 20.4891 20.3077 20.4826 20.2091C20.3773 20.0873 20.2526 19.949 20.1106 19.8011ZM11.4828 20.8054C11.588 20.927 11.7127 21.0653 11.8547 21.2133C11.8157 20.9838 11.7954 20.748 11.7954 20.5074C11.7954 20.2667 11.8157 20.0308 11.8548 19.8013C11.7127 19.9493 11.588 20.0876 11.4828 20.2092C11.4763 20.3078 11.4731 20.4072 11.4731 20.5074C11.4731 20.6075 11.4763 20.7069 11.4828 20.8054ZM13.4058 20.5074C13.4058 19.0848 14.5596 17.9316 15.9828 17.9316C17.406 17.9316 18.5597 19.0848 18.5597 20.5074C18.5597 21.9299 17.406 23.0831 15.9828 23.0831C14.5596 23.0831 13.4058 21.9299 13.4058 20.5074ZM15.9828 18.2539C14.7376 18.2539 13.7282 19.2628 13.7282 20.5074C13.7282 21.752 14.7376 22.7609 15.9828 22.7609C17.228 22.7609 18.2373 21.752 18.2373 20.5074C18.2373 19.2628 17.228 18.2539 15.9828 18.2539ZM15.9827 18.8976C15.0932 18.8976 14.3721 19.6184 14.3721 20.5075C14.3721 21.3966 15.0932 22.1173 15.9827 22.1173C16.8722 22.1173 17.5933 21.3966 17.5933 20.5075C17.5933 19.6184 16.8722 18.8976 15.9827 18.8976ZM14.6945 20.5075C14.6945 19.7963 15.2712 19.2198 15.9827 19.2198C16.6941 19.2198 17.2709 19.7963 17.2709 20.5075C17.2709 21.2186 16.6942 21.7951 15.9827 21.7951C15.2712 21.7951 14.6945 21.2186 14.6945 20.5075ZM15.9828 21.1513C16.3386 21.1513 16.627 20.863 16.627 20.5073C16.627 20.1517 16.3386 19.8634 15.9828 19.8634C15.627 19.8634 15.3386 20.1517 15.3386 20.5073C15.3386 20.863 15.627 21.1513 15.9828 21.1513Z" fill="#D5FF5C"/>
</svg>
