<svg width="24" height="24" viewBox="0 0 24 24" fill="none" xmlns="http://www.w3.org/2000/svg">
<path d="M16.6689 2.61255L10.4912 8.20013C9.8516 8.77849 9.01926 9.1003 8.1551 9.10337L6.31381 9.10775L6.30753 2.61317H2.97852V21.1736H4.79406C5.80953 21.1736 6.75655 20.638 7.25329 19.7578C7.25769 19.7516 7.25957 19.7453 7.26334 19.7416C7.59304 19.1521 7.7582 17.9876 7.72618 17.1925C7.65458 15.3748 7.36068 14.9022 7.36068 14.9022C7.29914 16.148 5.99165 16.2155 5.99165 16.2155C6.92171 15.3317 6.41492 14.6628 6.41492 14.6628C4.76831 15.8298 4.35697 14.5841 4.32557 14.4709C4.37707 14.5147 4.84555 14.9041 5.73605 13.6896C6.67742 12.4063 7.93279 10.2666 8.7316 9.71657C9.53167 9.16463 10.2909 9.21026 10.2909 9.21026C10.2909 9.21026 10.728 8.62081 11.8841 8.13075C13.0397 7.64381 13.7807 8.35828 13.7807 8.35828C12.5988 9.30715 10.9943 10.8655 10.9045 13.0989C10.8329 14.906 14.7466 18.007 14.0589 22.5876C14.4702 21.5474 14.6354 20.5054 14.4941 19.2159C14.3811 18.1751 13.7072 16.0017 13.7072 16.0017L17.4658 21.1711H21.6219L13.4987 10.0635L21.6219 2.61255H16.6689Z"
      fill="url(#paint0_linear_6785_25209)" />
<path d="M9.10021 10.6048C8.8377 11.038 8.8377 11.1705 8.8377 11.1705C8.8377 11.1705 9.75521 11.0161 10.0039 9.93037C10.0058 9.93037 9.41797 10.0804 9.09958 10.6048H9.10021Z"
      fill="url(#paint1_linear_6785_25209)" />
<defs>
<linearGradient id="paint0_linear_6785_25209" x1="30.9941" y1="15.6823" x2="15.6364" y2="-1.08857"
                gradientUnits="userSpaceOnUse">
<stop stop-color="#E40C5B" />
<stop offset="1" stop-color="#FF4C3B" />
</linearGradient>
<linearGradient id="paint1_linear_6785_25209" x1="10.5898" y1="10.7417" x2="9.63698" y2="9.69342"
                gradientUnits="userSpaceOnUse">
<stop stop-color="#E40C5B" />
<stop offset="1" stop-color="#FF4C3B" />
</linearGradient>
</defs>
</svg>
