<svg width="24" height="24" viewBox="0 0 24 24" fill="none" xmlns="http://www.w3.org/2000/svg">
<path d="M22.5 12C22.5 6.20101 17.799 1.5 12 1.5C6.20101 1.5 1.5 6.20101 1.5 12C1.5 17.799 6.20101 22.5 12 22.5C17.799 22.5 22.5 17.799 22.5 12Z"
      fill="#171E43" />
<path d="M13.5556 5C10.9198 5 8.75531 7.12164 8.52258 9.82931C8.49965 10.096 8.71371 10.3138 8.97505 10.3138H18.1361C18.3974 10.3138 18.6115 10.096 18.5885 9.82931C18.3558 7.12164 16.1913 5 13.5556 5Z"
      fill="#53CBC8" />
<path d="M19.4628 11.906C19.6298 11.906 19.7653 11.7673 19.7653 11.5961C19.7653 11.4249 19.6298 11.2862 19.4628 11.2862L7.77675 11.2862C7.60968 11.2862 7.47424 11.4249 7.47424 11.5961C7.47424 11.7673 7.60968 11.906 7.77675 11.906L19.4628 11.906Z"
      fill="#E1147B" />
<path d="M13.8884 13.325C14.0554 13.325 14.1909 13.1863 14.1909 13.0151C14.1909 12.8439 14.0554 12.7052 13.8884 12.7052L5.39262 12.7052C5.22555 12.7052 5.09012 12.8439 5.09012 13.0151C5.09012 13.1863 5.22555 13.325 5.39262 13.325H13.8884Z"
      fill="#E1147B" />
<path d="M17.9907 14.7438C18.1577 14.7438 18.2932 14.605 18.2932 14.4338C18.2932 14.2627 18.1577 14.1239 17.9907 14.1239H7.77681C7.60974 14.1239 7.4743 14.2627 7.4743 14.4338C7.4743 14.605 7.60974 14.7438 7.77681 14.7438H17.9907Z"
      fill="#E1147B" />
<path d="M10.0469 16.1625C10.214 16.1625 10.3495 16.0237 10.3495 15.8526C10.3495 15.6814 10.214 15.5427 10.0469 15.5427H5.99522C5.82815 15.5427 5.69272 15.6814 5.69272 15.8526C5.69272 16.0237 5.82815 16.1625 5.99522 16.1625H10.0469Z"
      fill="#E1147B" />
<path d="M18.1832 17.5813C18.3503 17.5813 18.4857 17.4425 18.4857 17.2713C18.4857 17.1002 18.3503 16.9614 18.1832 16.9614H12.9728C12.8058 16.9614 12.6703 17.1002 12.6703 17.2713C12.6703 17.4425 12.8058 17.5813 12.9728 17.5813H18.1832Z"
      fill="#E1147B" />
<path d="M15.0318 19C15.1988 19 15.3343 18.8612 15.3343 18.6901C15.3343 18.5189 15.1988 18.3802 15.0318 18.3802H9.82137C9.6543 18.3802 9.51887 18.5189 9.51887 18.6901C9.51887 18.8612 9.6543 19 9.82137 19H15.0318Z"
      fill="#E1147B" />
<path d="M19.6975 16.1625C19.8646 16.1625 20 16.0237 20 15.8526C20 15.6814 19.8646 15.5427 19.6975 15.5427H11.302C11.1349 15.5427 10.9995 15.6814 10.9995 15.8526C10.9995 16.0237 11.1349 16.1625 11.302 16.1625H19.6975Z"
      fill="#E1147B" />
<path d="M6.38413 11.5949C6.38413 11.4244 6.51902 11.2862 6.68542 11.2862C6.85182 11.2862 6.98672 11.4244 6.98672 11.5949C6.98672 11.7653 6.85182 11.9035 6.68542 11.9035C6.51902 11.9035 6.38413 11.7653 6.38413 11.5949Z"
      fill="#E1147B" />
<path d="M4 13.0138C4 12.8434 4.13489 12.7052 4.30129 12.7052C4.46769 12.7052 4.60259 12.8434 4.60259 13.0138C4.60259 13.1843 4.46769 13.3225 4.30129 13.3225C4.13489 13.3225 4 13.1843 4 13.0138Z"
      fill="#E1147B" />
<path d="M6.38413 14.4326C6.38413 14.2621 6.51902 14.1239 6.68542 14.1239C6.85182 14.1239 6.98672 14.2621 6.98672 14.4326C6.98672 14.6031 6.85182 14.7413 6.68542 14.7413C6.51902 14.7413 6.38413 14.6031 6.38413 14.4326Z"
      fill="#E1147B" />
<path d="M4.60259 15.8513C4.60259 15.6809 4.73748 15.5427 4.90388 15.5427C5.07028 15.5427 5.20518 15.6809 5.20518 15.8513C5.20518 16.0218 5.07028 16.16 4.90388 16.16C4.73748 16.16 4.60259 16.0218 4.60259 15.8513Z"
      fill="#E1147B" />
<path d="M11.5802 17.2701C11.5802 17.0996 11.7151 16.9614 11.8815 16.9614C12.0479 16.9614 12.1828 17.0996 12.1828 17.2701C12.1828 17.4406 12.0479 17.5788 11.8815 17.5788C11.7151 17.5788 11.5802 17.4406 11.5802 17.2701Z"
      fill="#E1147B" />
<path d="M8.42873 18.6888C8.42873 18.5184 8.56362 18.3802 8.73002 18.3802C8.89642 18.3802 9.03131 18.5184 9.03131 18.6888C9.03131 18.8593 8.89642 18.9975 8.73002 18.9975C8.56362 18.9975 8.42873 18.8593 8.42873 18.6888Z"
      fill="#E1147B" />
</svg>
