<svg width="24" height="24" viewBox="0 0 24 24" fill="none" xmlns="http://www.w3.org/2000/svg">
<path d="M22.5 12C22.5 6.20101 17.799 1.5 12 1.5C6.20101 1.5 1.5 6.20101 1.5 12C1.5 17.799 6.20101 22.5 12 22.5C17.799 22.5 22.5 17.799 22.5 12Z" fill="#E6007A"/>
<path d="M7.19903 10.1358C6.87249 10.0182 6.63922 9.70769 6.63922 9.3432C6.63922 8.87754 7.01969 8.50012 7.48901 8.50012C7.95834 8.50012 8.3389 8.87754 8.3389 9.3432C8.3389 9.70769 8.10566 10.0182 7.77903 10.1358V14.503C8.38704 14.4764 8.95234 14.366 9.45465 14.1831V10.8351C9.12801 10.7174 8.89475 10.4069 8.89475 10.0423C8.89475 9.57677 9.27531 9.19926 9.74463 9.19926C10.214 9.19926 10.5944 9.57677 10.5944 10.0423C10.5944 10.4069 10.3612 10.7174 10.0347 10.8351V13.9248C10.5931 13.6253 11.0405 13.2199 11.3371 12.7305C11.1359 12.5506 11.0093 12.29 11.0093 12.0001C11.0093 11.4573 11.453 11.0173 12.0002 11.0173C12.0451 11.0173 12.0894 11.0202 12.1327 11.026C12.8874 9.72435 14.5055 8.93594 16.4362 8.91599L16.5112 8.91561H19.6127C19.773 8.91561 19.9026 9.04451 19.9026 9.2034C19.9026 9.35653 19.7819 9.48176 19.6297 9.49049L19.6127 9.49096H19.0569L19.0569 13.8644C19.3834 13.982 19.6167 14.2926 19.6167 14.6571C19.6167 15.1227 19.2362 15.5001 18.7668 15.5001C18.2975 15.5001 17.917 15.1227 17.917 14.6571C17.917 14.2925 18.1503 13.982 18.4769 13.8644L18.4768 9.49096H16.8012L16.8013 13.8644C17.128 13.982 17.3612 14.2926 17.3612 14.6571C17.3612 15.1227 16.9806 15.5001 16.5112 15.5001C16.0419 15.5001 15.6613 15.1227 15.6613 14.6571C15.6613 14.2926 15.8947 13.982 16.2212 13.8644V9.4973C15.6134 9.52393 15.048 9.63421 14.5458 9.81709V13.1652C14.8722 13.2829 15.1056 13.5934 15.1056 13.9578C15.1056 14.4235 14.7251 14.8009 14.2557 14.8009C13.7865 14.8009 13.4059 14.4235 13.4059 13.9578C13.4059 13.5934 13.6392 13.2829 13.9657 13.1652V10.0755C13.4072 10.375 12.9599 10.7802 12.6632 11.2697C12.8645 11.4497 12.991 11.7102 12.991 12.0001C12.991 12.543 12.5474 12.983 12.0002 12.983C11.9552 12.983 11.911 12.98 11.8676 12.9743C11.1129 14.2759 9.49474 15.0642 7.56423 15.0842L7.48901 15.0846H4.38764C4.22748 15.0846 4.09766 14.9558 4.09766 14.7969C4.09766 14.6437 4.21838 14.5185 4.37055 14.5098L4.38764 14.5093H4.9435V10.1358C4.61696 10.0182 4.3836 9.70769 4.3836 9.3432C4.3836 8.87754 4.76416 8.50012 5.23339 8.50012C5.70281 8.50012 6.08337 8.87754 6.08337 9.3432C6.08337 9.70769 5.85013 10.0182 5.5236 10.1358L5.5235 14.5093H7.19903V10.1358Z" fill="#F2F3F5"/>
</svg>
