<svg width="24" height="24" viewBox="0 0 24 24" fill="none" xmlns="http://www.w3.org/2000/svg">
<path d="M22.4165 20.4001H7.77888C7.71025 20.4001 7.64161 20.3817 7.57922 20.345L2.2882 17.1442C2.1135 17.0402 2.0511 16.8137 2.15717 16.6424C2.22581 16.5322 2.35059 16.4588 2.48786 16.4649H17.1255C17.1941 16.4649 17.2628 16.4832 17.3252 16.52L22.6162 19.7208C22.7909 19.8248 22.8533 20.0513 22.7472 20.2226C22.6786 20.3328 22.5538 20.4001 22.4165 20.4001ZM7.88495 19.6596H21.0938L17.0257 17.1932H3.81686L7.88495 19.6596Z" fill="#075ABC"/>
<path d="M21.5057 7.53569H6.86809C6.79945 7.53569 6.73082 7.51733 6.66843 7.48061L1.38365 4.27981C1.20271 4.17577 1.14655 3.94933 1.25262 3.77796C1.32126 3.66168 1.44604 3.59436 1.58331 3.60048H16.221C16.2896 3.60048 16.3582 3.61884 16.4206 3.65556L21.7116 6.85637C21.8926 6.96041 21.9487 7.18685 21.8427 7.35821C21.7678 7.47449 21.643 7.54181 21.5057 7.53569ZM6.97416 6.80128H20.183L16.1149 4.33489H2.90606L6.97416 6.80128Z" fill="#075ABC"/>
<path d="M11.8236 9.74504C10.5757 9.74504 9.55428 10.9137 9.62734 12.1319C9.69597 13.2886 10.6444 14.2127 11.8236 14.2678C13.0699 14.2678 14.1448 13.2465 14.1322 11.985C14.1063 10.7498 13.0524 9.74504 11.8236 9.74504Z" fill="#075ABC"/>
</svg>
