<svg width="24" height="24" viewBox="0 0 24 24" fill="none" xmlns="http://www.w3.org/2000/svg">
<path fill-rule="evenodd" clip-rule="evenodd" d="M1.19922 12.0003L12.0031 1.19995L22.7992 12.0031L12.0031 22.8L1.19922 12.0003ZM5.17455 8.77779C4.71836 9.29123 3.76351 10.5413 3.76351 12.0003C3.76351 13.4651 4.72585 14.7192 5.17989 15.2289L7.51549 17.5663L7.52647 17.5556C8.46148 16.6413 10.0158 15.4396 11.7878 15.3481C11.3417 15.8454 10.3579 17.1101 10.3579 18.59C10.3579 20.0699 11.3417 21.3345 11.7878 21.8319L12.0031 22.0575L12.2183 21.8319C12.6644 21.3345 13.6482 20.0699 13.6482 18.59C13.6482 17.1101 12.6644 15.8454 12.2183 15.3481C13.9973 15.4399 15.5568 16.6507 16.4907 17.5663L18.8813 15.1738L18.8869 15.1674C19.3596 14.6242 20.2506 13.4098 20.2506 12.0003C20.2506 10.5854 19.3526 9.36693 18.8813 8.82693L16.5018 6.4455L16.4908 6.45625C15.5568 7.37179 13.9972 8.58249 12.2183 8.67438C12.6644 8.17699 13.6482 6.91238 13.6482 5.43246C13.6482 3.95256 12.6644 2.68793 12.2183 2.19056L12.0031 1.94321L11.7878 2.19056C11.3417 2.68793 10.3579 3.95256 10.3579 5.43246C10.3579 6.91238 11.3417 8.17699 11.7878 8.67438C10.0019 8.58214 8.43717 7.36229 7.50434 6.4455L5.17455 8.77779ZM5.63147 8.75869C8.51492 8.91127 10.8204 12.0003 10.8204 12.0003C10.8204 12.0003 8.51492 15.0894 5.63147 15.242C6.08031 14.7405 7.05904 13.4775 7.05904 12.0003C7.05904 10.5232 6.08031 9.26022 5.63147 8.75869ZM18.3827 8.75869C17.9339 9.26022 16.9552 10.5232 16.9552 12.0003C16.9552 13.4775 17.9339 14.7405 18.3827 15.242C15.4993 15.0894 13.1938 12.0003 13.1938 12.0003C13.1938 12.0003 15.4993 8.91127 18.3827 8.75869Z" fill="white"/>
</svg>
