<svg width="24" height="24" viewBox="0 0 24 24" fill="none" xmlns="http://www.w3.org/2000/svg">
<path d="M12 6.48654C13.9061 6.48654 15.4514 5.59412 15.4514 4.49327C15.4514 3.39242 13.9061 2.5 12 2.5C10.0938 2.5 8.54849 3.39242 8.54849 4.49327C8.54849 5.59412 10.0938 6.48654 12 6.48654Z" fill="#E6007A"/>
<path d="M12 21.5C13.9061 21.5 15.4514 20.6076 15.4514 19.5067C15.4514 18.4059 13.9061 17.5135 12 17.5135C10.0938 17.5135 8.54849 18.4059 8.54849 19.5067C8.54849 20.6076 10.0938 21.5 12 21.5Z" fill="#E6007A"/>
<path d="M7.18933 9.24335C8.14243 7.60487 8.13639 5.83041 7.17585 5.27999C6.21531 4.72956 4.66399 5.6116 3.7109 7.25007C2.7578 8.88855 2.76384 10.663 3.72438 11.2134C4.68493 11.7639 6.23624 10.8818 7.18933 9.24335Z" fill="#E6007A"/>
<path d="M20.2891 16.7501C21.2422 15.1116 21.2362 13.3371 20.2756 12.7867C19.3151 12.2363 17.7638 13.1183 16.8107 14.7568C15.8576 16.3953 15.8636 18.1697 16.8242 18.7201C17.7847 19.2706 19.336 18.3885 20.2891 16.7501Z" fill="#E6007A"/>
<path d="M7.17584 18.72C8.13639 18.1696 8.14242 16.3952 7.18933 14.7567C6.23623 13.1182 4.68492 12.2362 3.72438 12.7866C2.76383 13.337 2.7578 15.1115 3.71089 16.75C4.66399 18.3884 6.2153 19.2705 7.17584 18.72Z" fill="#E6007A"/>
<path d="M20.2755 11.2135C21.2361 10.6631 21.2421 8.88861 20.289 7.25013C19.3359 5.61166 17.7846 4.72962 16.8241 5.28005C15.8635 5.83047 15.8575 7.60493 16.8106 9.24341C17.7637 10.8819 19.315 11.7639 20.2755 11.2135Z" fill="#E6007A"/>
</svg>
