<svg width="24" height="24" viewBox="0 0 24 24" fill="none" xmlns="http://www.w3.org/2000/svg">
<path d="M22.5 12C22.5 6.20101 17.799 1.5 12 1.5C6.20101 1.5 1.5 6.20101 1.5 12C1.5 17.799 6.20101 22.5 12 22.5C17.799 22.5 22.5 17.799 22.5 12Z" fill="#151515"/>
<path d="M6.96485 9.8667V17.1294C6.96464 17.2182 6.9884 17.3055 7.03369 17.3824C7.07899 17.4593 7.14425 17.523 7.22278 17.5672C7.96663 17.9863 10.1344 19.2087 11.3264 19.878C11.4259 19.9346 11.5803 20.0274 11.652 19.9923C12.0503 19.7969 12.4406 19.5594 12.8658 19.3191C12.7543 19.2438 12.6966 19.1999 12.6328 19.1637C11.1876 18.341 9.74274 17.5183 8.2982 16.6956V15.23L9.45229 15.8837C10.9307 16.7194 12.4094 17.5538 13.8885 18.3869C13.998 18.4485 14.1613 18.5472 14.24 18.5101C14.6721 18.302 15.0864 18.0567 15.5634 17.7928L8.29422 13.6549V12.2029C8.92354 12.5566 9.5499 12.9143 10.1792 13.2689C12.3401 14.4884 14.5006 15.7081 16.6607 16.9281C16.7255 16.9655 16.7992 16.9852 16.8743 16.9852C16.9494 16.9852 17.0232 16.9655 17.0879 16.9281C17.4643 16.7093 17.8431 16.4936 18.2241 16.2813L16.7006 15.4107L6.96485 9.8667Z" fill="url(#paint0_linear_6969_25406)"/>
<path d="M19.1559 7.86899C18.1811 7.34666 17.2143 6.81288 16.2456 6.28198L14.7208 5.44702L13.3837 6.17619C14.8564 6.97684 16.3294 7.7762 17.8027 8.57431C17.888 8.60911 17.96 8.66799 18.0086 8.7429C18.0572 8.81781 18.08 8.90508 18.0741 8.99275C18.0741 9.35371 18.0741 9.71461 18.0741 10.0755L18.062 10.0689C17.3263 9.67616 15.0508 8.50283 14.3201 8.1025C13.5896 7.70218 12.8327 7.28851 12.089 6.88151L10.6702 7.65548C12.6289 8.72015 16.0115 10.4911 18.0782 11.6101C18.0782 12.0879 18.0798 12.5645 18.0832 13.0398C18.0591 13.0234 18.0342 13.0081 18.0085 12.9941C15.1961 11.4623 10.8438 9.15572 8.0354 7.61448L9.31597 6.91583L10.7398 6.13996L12.0275 5.43654L13.3666 4.70546L12.2475 4.0945C12.1556 4.04494 12.0113 3.97537 11.9447 4.00873C11.7257 4.11453 11.5118 4.22796 11.2939 4.34615L6.51665 6.94727L6.45816 6.97587L6.24421 7.09597L4.83145 7.86517C4.75506 7.89771 4.6913 7.95188 4.64899 8.0202C4.60668 8.08851 4.58792 8.16759 4.59533 8.24643C4.60273 10.7659 4.60439 13.2851 4.60036 15.8039C4.5932 15.8878 4.61368 15.9716 4.65904 16.044C4.7044 16.1164 4.77237 16.1737 4.85362 16.2081C5.22094 16.3987 5.58625 16.6008 5.95054 16.8V15.1339C5.94391 15.0916 5.94052 15.0489 5.94044 15.0062C5.95256 12.9226 5.95156 10.839 5.95257 8.7554L6.60751 8.39797C9.05664 9.73237 12.2818 11.4481 15.1638 12.9893L15.186 13.0007C16.0559 13.4678 16.8944 13.9186 17.6715 14.3351L19.387 15.2559C19.387 12.929 19.3937 10.602 19.4071 8.27503C19.4143 8.19119 19.3941 8.10729 19.3491 8.03467C19.3042 7.96205 19.2367 7.90423 19.1559 7.86899Z" fill="url(#paint1_linear_6969_25406)"/>
<defs>
<linearGradient id="paint0_linear_6969_25406" x1="6.96605" y1="14.9383" x2="18.2192" y2="14.9383" gradientUnits="userSpaceOnUse">
<stop stop-color="#B000FD"/>
<stop offset="0.0001" stop-color="#B000FD"/>
<stop offset="0.98" stop-color="#30DAFF"/>
</linearGradient>
<linearGradient id="paint1_linear_6969_25406" x1="4.59533" y1="10.4063" x2="19.4021" y2="10.4063" gradientUnits="userSpaceOnUse">
<stop stop-color="#B000FD"/>
<stop offset="0.0001" stop-color="#B000FD"/>
<stop offset="0.98" stop-color="#30DAFF"/>
</linearGradient>
</defs>
</svg>
