<svg width="24" height="24" viewBox="0 0 24 24" fill="none" xmlns="http://www.w3.org/2000/svg">
<path fill-rule="evenodd" clip-rule="evenodd" d="M17.3333 4.01755C15.7546 2.96272 13.8984 2.39979 11.9996 2.3999C10.7392 2.3999 9.49106 2.64821 8.32619 3.13063C7.16176 3.61305 6.10328 4.32011 5.21185 5.21148C4.32042 6.1029 3.61371 7.1611 3.1311 8.32574C2.64849 9.49043 2.40039 10.7387 2.40039 11.9993C2.40039 13.8981 2.96314 15.7542 4.018 17.333C5.07286 18.9118 6.57231 20.1423 8.32619 20.869C10.0805 21.5957 12.011 21.7859 13.873 21.4155C15.7356 21.0451 17.446 20.1307 18.7888 18.7881C20.1311 17.4454 21.0457 15.7349 21.416 13.8726C21.7863 12.0104 21.5962 10.0801 20.8695 8.32585C20.1429 6.57169 18.9124 5.07237 17.3333 4.01755ZM11.9996 20.3992C11.9996 20.3992 8.8681 16.6386 8.8681 11.9993C8.8681 7.36067 11.9996 3.60003 11.9996 3.60003C11.9996 3.60003 15.1316 7.36011 15.1316 11.9993C15.1316 16.6386 11.9996 20.3992 11.9996 20.3992Z" fill="#4FFFB0"/>
</svg>
