<svg width="24" height="24" viewBox="0 0 24 24" fill="none" xmlns="http://www.w3.org/2000/svg">
<path d="M22.4754 11.2875C22.0819 5.50212 17.0729 1.13109 11.2875 1.52462C8.40543 1.72065 5.87488 3.06253 4.10899 5.07472L4.10901 5.07471L4.10408 5.07116C4.09218 5.08762 4.08106 5.10386 4.06925 5.12032C2.31515 7.14233 1.3286 9.83091 1.52461 12.7125C1.54328 12.9871 1.57561 13.2574 1.61466 13.5252C1.61467 13.5253 1.61467 13.5253 1.61469 13.5254C1.61645 13.5375 1.61824 13.5496 1.61994 13.5617C1.64634 13.7384 1.677 13.9135 1.71198 14.087C1.712 14.0871 1.71201 14.0872 1.71204 14.0873C1.71268 14.0905 1.71328 14.0936 1.7139 14.0968C1.74575 14.254 1.78112 14.4096 1.81983 14.564L1.8199 14.5643C1.81993 14.5645 1.81997 14.5646 1.81999 14.5647C3.03262 19.4006 7.56355 22.8256 12.7125 22.4754C18.4979 22.0819 22.8689 17.0728 22.4754 11.2875H22.4754ZM20.1898 11.4429C20.2383 12.1552 20.1935 12.8526 20.0667 13.5235C20.0651 13.5197 20.0639 13.5157 20.0623 13.5118V13.5118C19.3011 11.6512 17.7953 10.3078 16.4711 9.56574C16.7391 6.41295 15.6696 5.0847 14.459 4.86858C14.4261 4.86224 14.393 4.85684 14.3593 4.85266C13.3985 4.72944 12.5199 5.40856 12.3968 6.36929C12.2736 7.33006 12.9527 8.20871 13.9134 8.33198C13.9972 8.34259 14.0802 8.34553 14.1622 8.34424C14.1676 8.45067 14.1709 8.56372 14.1719 8.68195C13.0525 8.40456 12.0062 8.35028 11.0522 8.43604C10.6955 8.45983 10.3385 8.50478 9.98343 8.57111C10.1025 7.50651 10.5019 6.31127 11.277 5.43658C12.0262 4.59104 13.1401 4.10639 14.3552 4.23077C14.5856 4.25434 14.8314 4.31089 15.0527 4.38521C15.0628 4.38862 15.0736 4.39151 15.0837 4.39501C15.0838 4.39481 15.084 4.39454 15.0842 4.39434C17.8987 5.54092 19.9701 8.21208 20.1898 11.4429V11.4429ZM12.8715 13.0467C12.8707 13.0478 12.8699 13.049 12.8691 13.0501C12.6186 13.4115 12.3206 13.7678 11.9708 14.1124C11.4465 13.5545 11.0253 12.9537 10.7057 12.3322C10.6893 12.2989 10.6718 12.2672 10.6559 12.2333C10.6552 12.2321 10.6547 12.2308 10.6541 12.2296C10.4663 11.8318 10.3067 11.3954 10.1831 10.92C10.9293 10.7445 11.661 10.6799 12.3597 10.7139C12.3968 10.7164 12.4329 10.7171 12.4703 10.7202C12.4716 10.7203 12.473 10.7204 12.4744 10.7205C12.912 10.7568 13.369 10.8365 13.8417 10.9669C13.6207 11.7005 13.3109 12.3662 12.9321 12.9541C12.9115 12.9849 12.8928 13.0159 12.8715 13.0467V13.0467ZM9.28362 4.25515C9.28166 4.25768 9.27943 4.26007 9.27748 4.2626L9.27746 4.26261C8.04731 5.85137 7.63661 7.82586 7.6556 9.34336C4.79138 10.6877 4.17591 12.278 4.59403 13.4344C4.60498 13.4661 4.61688 13.4975 4.63008 13.5287C5.00376 14.4224 6.03121 14.8437 6.92476 14.47C7.81843 14.0963 8.2398 13.0688 7.86621 12.1752C7.83348 12.0973 7.79458 12.024 7.75242 11.9536C7.84294 11.8951 7.94015 11.835 8.04337 11.7744C8.36282 12.8827 8.83541 13.8201 9.38675 14.6035C9.58533 14.8999 9.8023 15.186 10.0367 15.4599C9.05511 15.8892 7.82003 16.1411 6.67476 15.9072C5.56787 15.6811 4.59122 14.9588 4.09136 13.8442C3.99661 13.633 3.92273 13.3919 3.87643 13.1631C3.84794 12.9632 3.82406 12.7617 3.81015 12.5571C3.5543 8.79586 5.88779 5.44746 9.28362 4.25515V4.25515ZM12.5571 20.1899C10.3236 20.3418 8.23575 19.58 6.65783 18.2258C8.64883 18.4968 10.5641 17.8652 11.8688 17.09C14.4662 18.8998 16.1519 18.6378 16.9446 17.6972C16.9665 17.6719 16.9877 17.6459 17.0082 17.6189C17.5953 16.8484 17.4465 15.7479 16.676 15.161C15.9055 14.5739 14.8051 14.7227 14.2179 15.493C14.1669 15.5603 14.1228 15.6307 14.0829 15.7024C13.9876 15.6536 13.8876 15.5997 13.7843 15.5411C14.585 14.7099 15.1556 13.8303 15.5586 12.9607C15.7164 12.6398 15.856 12.3082 15.976 11.9676C16.8392 12.603 17.6756 13.5471 18.0459 14.6565C18.4035 15.7281 18.2663 16.9351 17.551 17.9252C17.4154 18.1129 17.2435 18.2975 17.0685 18.452C17.066 18.4542 17.0635 18.4566 17.061 18.4589C15.8096 19.4424 14.2613 20.0739 12.5571 20.1899V20.1899Z" fill="url(#paint0_linear_8359_28946)"/>
<path style="mix-blend-mode:overlay" opacity="0.9" d="M14.4606 4.86874C14.4277 4.8624 14.3945 4.85699 14.3609 4.85282C14.1909 4.83102 14.0238 4.83552 13.8626 4.86107C14.8671 5.40751 15.5994 6.93004 15.2144 9.93333C15.0869 10.928 14.7911 11.8746 14.364 12.7432C14.0179 13.49 13.547 14.244 12.9141 14.9686C13.218 15.1966 13.5144 15.3874 13.7858 15.5413C14.5866 14.7101 15.1572 13.8305 15.5602 12.9609C15.9873 12.0923 16.2831 11.1457 16.4106 10.151C16.869 6.57508 15.7436 5.09779 14.4606 4.86874V4.86874Z" fill="url(#paint1_radial_8359_28946)"/>
<g style="mix-blend-mode:overlay" opacity="0.8">
<path d="M15.2143 9.93334C15.5993 6.93006 14.867 5.40753 13.8625 4.86108C13.8233 4.86731 13.7848 4.87566 13.7464 4.88448C14.7298 5.44978 15.4374 6.97087 15.0576 9.93334C14.93 10.928 14.6343 11.8746 14.2072 12.7432C13.8725 13.4653 13.4199 14.1939 12.8184 14.8963C12.8504 14.9211 12.8821 14.9447 12.914 14.9686C13.5469 14.244 14.0178 13.4901 14.3639 12.7432C14.791 11.8746 15.0868 10.928 15.2143 9.93334V9.93334Z" fill="white"/>
</g>
<path style="mix-blend-mode:overlay" opacity="0.5" d="M11.3967 16.745C11.3023 16.673 11.2114 16.5977 11.1206 16.5225C9.63826 17.1409 7.58336 17.5287 5.54297 17.0552C5.87709 17.4811 6.24997 17.8743 6.65955 18.2258C8.65055 18.4968 10.5659 17.8652 11.8706 17.09C11.7157 16.9821 11.558 16.8679 11.3967 16.745V16.745Z" fill="url(#paint2_radial_8359_28946)"/>
<path style="mix-blend-mode:overlay" opacity="0.6" d="M11.1198 16.5225C11.0745 16.4849 11.0287 16.4476 10.9842 16.4092C9.49068 17.0061 7.42644 17.3628 5.39062 16.8555C5.44023 16.9228 5.49067 16.9895 5.54224 17.0552C7.58263 17.5287 9.63753 17.141 11.1198 16.5225V16.5225Z" fill="url(#paint3_linear_8359_28946)"/>
<path style="mix-blend-mode:overlay" opacity="0.9" d="M4.59492 13.4363C4.60588 13.468 4.61777 13.4994 4.63097 13.5306C4.6971 13.6887 4.78456 13.8312 4.88725 13.958C4.85825 12.8148 5.81064 11.4194 8.60406 10.2512C9.52927 9.86426 10.4969 9.64711 11.4627 9.58271C12.2825 9.50901 13.1709 9.53982 14.1149 9.72569C14.1603 9.34846 14.1774 8.99634 14.175 8.68436C13.0548 8.40647 12.0077 8.3521 11.0531 8.43793C10.0873 8.50232 9.11967 8.71947 8.19447 9.10637C4.86842 10.4973 4.15177 12.2106 4.59492 13.4363L4.59492 13.4363Z" fill="url(#paint4_radial_8359_28946)"/>
<g style="mix-blend-mode:overlay" opacity="0.8">
<path d="M8.60417 10.2511C5.81074 11.4193 4.85836 12.8148 4.88736 13.9579C4.91236 13.9888 4.93883 14.0179 4.96568 14.0468C4.96356 12.9125 5.92708 11.5392 8.68255 10.3869C9.60775 9.99996 10.5754 9.78281 11.5412 9.71841C12.3339 9.64714 13.1911 9.67479 14.1002 9.84457C14.1057 9.80448 14.1103 9.76514 14.115 9.72563C13.171 9.53977 12.2826 9.50896 11.4628 9.58266C10.497 9.64706 9.52937 9.86421 8.60417 10.2511Z" fill="white"/>
</g>
<path style="mix-blend-mode:overlay" opacity="0.4" d="M16.4121 10.1518C16.397 10.2695 16.3772 10.3858 16.3574 10.5021C17.6342 11.4766 18.9975 13.0623 19.6076 15.0661C19.8093 14.5638 19.9635 14.0443 20.0631 13.5138C19.3023 11.6541 17.7977 10.3112 16.4739 9.56885C16.4579 9.75694 16.4379 9.95055 16.4121 10.1518V10.1518Z" fill="url(#paint5_radial_8359_28946)"/>
<path style="mix-blend-mode:overlay" opacity="0.5" d="M16.3585 10.502C16.3486 10.5601 16.3391 10.6183 16.3281 10.6761C17.5918 11.6711 18.9329 13.2804 19.5114 15.2971C19.545 15.2205 19.5775 15.1435 19.6086 15.0659C18.9985 13.0622 17.6352 11.4764 16.3585 10.502V10.502Z" fill="url(#paint6_linear_8359_28946)"/>
<path style="mix-blend-mode:overlay" opacity="0.9" d="M16.9463 17.6949C16.9683 17.6696 16.9895 17.6436 17.01 17.6165C17.1139 17.4802 17.1935 17.3332 17.252 17.1809C16.2765 17.7776 14.5918 17.6505 12.1834 15.8155C11.3857 15.2077 10.7138 14.4782 10.1752 13.674C9.70141 13.0009 9.28388 12.2161 8.97286 11.3057C8.62345 11.4549 8.30997 11.6162 8.04102 11.7743C8.36046 12.8834 8.8369 13.8173 9.38854 14.6012C9.92719 15.4053 10.5991 16.1348 11.3967 16.7426C14.2644 18.9275 16.1065 18.6915 16.9463 17.6949V17.6949Z" fill="url(#paint7_radial_8359_28946)"/>
<g style="mix-blend-mode:overlay" opacity="0.8">
<path d="M12.1831 15.8155C14.5916 17.6506 16.2763 17.7776 17.2517 17.181C17.266 17.1439 17.278 17.1064 17.2895 17.0687C16.3083 17.6377 14.6372 17.4899 12.2615 15.6798C11.4639 15.072 10.792 14.3425 10.2533 13.5383C9.79526 12.8875 9.39057 12.1312 9.08305 11.259C9.04561 11.2744 9.00925 11.2901 8.97266 11.3057C9.28368 12.2161 9.7012 13.0009 10.175 13.6741C10.7136 14.4783 11.3855 15.2077 12.1831 15.8155V15.8155Z" fill="white"/>
</g>
<path style="mix-blend-mode:overlay" opacity="0.3" d="M8.19266 9.10322C8.30215 9.05743 8.41278 9.01641 8.52339 8.97537C8.72894 7.38241 9.42057 5.40894 10.8508 3.87866C10.3149 3.95508 9.78793 4.08136 9.27872 4.26032C8.04855 5.84909 7.63788 7.82358 7.65688 9.3411C7.82778 9.26092 8.00549 9.1815 8.19266 9.10322V9.10322Z" fill="url(#paint8_radial_8359_28946)"/>
<path style="mix-blend-mode:overlay" opacity="0.4" d="M8.52344 8.9753C8.57872 8.9548 8.63385 8.93385 8.68939 8.91452C8.91926 7.32263 9.64239 5.35655 11.0997 3.84717C11.0166 3.85644 10.9336 3.8668 10.8509 3.87859C9.42062 5.40886 8.72899 7.38234 8.52344 8.9753V8.9753Z" fill="url(#paint9_linear_8359_28946)"/>
<path style="mix-blend-mode:multiply" opacity="0.4" d="M11.2886 1.52475C8.40659 1.72077 5.87605 3.06266 4.11016 5.07485C4.09682 5.09006 4.08356 5.1053 4.07031 5.12058L4.07042 5.12044C4.41421 5.46146 5.53779 6.13389 5.99318 6.4143C6.88731 5.45271 8.01135 4.7024 9.28478 4.25528C9.37373 4.14068 9.46591 4.02762 9.56355 3.91741C10.7496 2.57905 12.3693 1.87165 14.2479 1.87165C14.457 1.87165 14.8829 1.90494 14.892 1.90561C13.7531 1.57841 12.5393 1.43967 11.2886 1.52475Z" fill="url(#paint10_linear_8359_28946)"/>
<path style="mix-blend-mode:multiply" opacity="0.4" d="M12.5574 20.19C10.3239 20.3419 8.23604 19.5801 6.65812 18.2259H6.65811L6.6581 18.2259C6.51123 18.2059 6.36403 18.1819 6.21659 18.1518C4.46451 17.7939 3.04204 16.7449 2.10273 15.1179C1.99818 14.9368 1.90462 14.7523 1.82031 14.5649C3.03298 19.4008 7.56389 22.8258 12.7128 22.4755C12.7357 21.9453 12.5794 20.715 12.5574 20.19V20.19Z" fill="url(#paint11_linear_8359_28946)"/>
<path style="mix-blend-mode:multiply" opacity="0.4" d="M22.4752 11.2875C22.1527 11.2544 20.5771 11.3788 20.1897 11.443C20.2381 12.1552 20.1933 12.8526 20.0665 13.5235C20.1209 13.657 20.1724 13.7925 20.2187 13.9312C20.7848 15.6276 20.5876 17.384 19.6482 19.0109C19.5456 19.1886 19.4349 19.3588 19.3172 19.5227C19.315 19.5258 19.3124 19.5294 19.3105 19.532C19.3104 19.5321 19.3154 19.5279 19.3181 19.5253C21.4507 17.4505 22.693 14.4887 22.4752 11.2875V11.2875Z" fill="url(#paint12_linear_8359_28946)"/>
<path style="mix-blend-mode:multiply" opacity="0.5" d="M14.3559 4.23098C14.5863 4.25456 14.8321 4.31111 15.0533 4.38543C15.0635 4.38884 15.0743 4.39173 15.0844 4.39523C15.0845 4.39503 15.0847 4.39476 15.0849 4.39456C15.9906 4.76355 16.8187 5.29116 17.5336 5.94379C17.5352 5.94507 17.5367 5.94612 17.5383 5.9474C17.8828 5.5535 18.5462 5.12067 18.5462 5.12067C18.5462 5.12067 17.5304 4.08157 15.9767 3.7591C14.8891 3.53335 12.4359 3.31452 10.8887 5.9474C10.8887 5.9474 10.8948 5.9416 10.9039 5.93324C11.0183 5.76025 11.14 5.5921 11.2776 5.4368C12.0269 4.59126 13.1408 4.10661 14.3559 4.23098V4.23098Z" fill="url(#paint13_linear_8359_28946)"/>
<path style="mix-blend-mode:multiply" opacity="0.5" d="M17.5503 17.9244C17.4147 18.1121 17.2428 18.2967 17.0678 18.4512C17.0598 18.4583 17.0519 18.4662 17.0438 18.4731C17.0439 18.4734 17.044 18.4737 17.0442 18.4739C16.2717 19.0738 15.4007 19.5272 14.4781 19.82C14.4762 19.8207 14.4745 19.8215 14.4727 19.8222C14.6415 20.3175 14.6846 21.1084 14.6846 21.1084C14.6846 21.1084 16.0925 20.7483 17.1485 19.564C17.8879 18.735 19.304 16.7198 17.7974 14.0635C17.7974 14.0635 17.7994 14.0717 17.8021 14.0837C17.8947 14.2693 17.9795 14.4588 18.0452 14.6556C18.4028 15.7273 18.2656 16.9342 17.5503 17.9244V17.9244Z" fill="url(#paint14_linear_8359_28946)"/>
<path style="mix-blend-mode:multiply" opacity="0.5" d="M4.09439 13.8474C3.99962 13.6362 3.9257 13.395 3.87942 13.1662C3.87729 13.1557 3.87439 13.1449 3.87239 13.1344C3.87215 13.1344 3.87182 13.1344 3.87157 13.1343C3.73824 12.1654 3.78111 11.1845 3.98886 10.239C3.98919 10.2371 3.98934 10.2352 3.98967 10.2332C3.47627 10.1318 2.76973 9.77368 2.76973 9.77368C2.76973 9.77368 2.37776 11.173 2.87531 12.6797C3.22362 13.7345 4.26071 15.9684 7.31446 15.9919C7.31446 15.9919 7.30635 15.9895 7.2946 15.9858C7.08755 15.9732 6.88109 15.9519 6.67778 15.9104C5.57089 15.6843 4.59424 14.9619 4.09439 13.8474V13.8474Z" fill="url(#paint15_linear_8359_28946)"/>
<path style="mix-blend-mode:multiply" opacity="0.6" d="M13.9139 8.33202C13.9977 8.34262 14.0806 8.34557 14.1627 8.34427C14.1627 8.34427 14.1078 7.25329 13.9739 6.69354C13.8399 6.13379 13.6423 5.76311 13.4253 5.55331C13.2698 5.40302 12.779 5.21583 12.3973 6.36932C12.274 7.3301 12.9532 8.20874 13.9139 8.33202Z" fill="url(#paint16_linear_8359_28946)"/>
<path style="mix-blend-mode:multiply" opacity="0.5" d="M7.86693 12.1769C7.8342 12.099 7.7953 12.0258 7.75314 11.9553C7.75314 11.9553 6.83574 12.5483 6.41796 12.9442C6.00018 13.3401 5.77796 13.6965 5.70479 13.9894C5.65237 14.1992 5.73569 14.7179 6.92549 14.4717C7.81916 14.098 8.24052 13.0706 7.86693 12.1769V12.1769Z" fill="url(#paint17_linear_8359_28946)"/>
<path style="mix-blend-mode:multiply" opacity="0.6" d="M14.219 15.4903C14.1679 15.5576 14.1239 15.6279 14.084 15.6996C14.084 15.6996 15.0562 16.1976 15.608 16.3615C16.1597 16.5254 16.5795 16.5396 16.8697 16.4565C17.0776 16.397 17.4852 16.0655 16.6771 15.1582C15.9066 14.5711 14.8061 14.7199 14.219 15.4903V15.4903Z" fill="url(#paint18_linear_8359_28946)"/>
<path style="mix-blend-mode:multiply" opacity="0.3" d="M13.8416 10.9668C13.6206 11.7004 13.3107 12.3661 12.932 12.9541C12.9114 12.9849 12.8926 13.0159 12.8713 13.0466C12.8706 13.0478 12.8698 13.0489 12.869 13.0501C12.6185 13.4114 12.3205 13.7677 11.9707 14.1123C12.2111 14.3681 12.471 14.6156 12.7565 14.8506C13.115 15.1335 13.4664 15.3609 13.7841 15.5411C14.5849 14.7099 15.1555 13.8303 15.5585 12.9606C15.7163 12.6398 15.8558 12.3081 15.9759 11.9675C15.6065 11.6955 15.2323 11.4791 14.8875 11.3321C14.5309 11.1801 14.1823 11.0607 13.8416 10.9668V10.9668Z" fill="url(#paint19_linear_8359_28946)"/>
<path style="mix-blend-mode:multiply" opacity="0.3" d="M6.65836 18.2258C8.64936 18.4967 10.5647 17.8651 11.8694 17.0899C11.7145 16.982 11.5568 16.8678 11.3955 16.7449C10.8919 16.3611 10.4387 15.9287 10.0373 15.4598C9.05564 15.8892 7.82056 16.1411 6.67529 15.9072C5.5684 15.6811 4.59175 14.9587 4.09189 13.8442C3.99714 13.633 3.92326 13.3919 3.87695 13.1631C4.16622 15.1928 5.19046 16.966 6.65836 18.2258V18.2258Z" fill="url(#paint20_linear_8359_28946)"/>
<path style="mix-blend-mode:multiply" opacity="0.3" d="M11.9704 14.1123C11.4461 13.5544 11.0249 12.9536 10.7053 12.3321C10.6889 12.2988 10.6714 12.2671 10.6554 12.2332C10.6548 12.232 10.6543 12.2307 10.6537 12.2295C10.4659 11.8317 10.3063 11.3953 10.1827 10.9199C9.84182 11.0001 9.4982 11.1013 9.15282 11.2307C8.72949 11.3994 8.35744 11.5895 8.04297 11.7743C8.36241 12.8826 8.83501 13.82 9.38634 14.6034C9.58492 14.8998 9.8019 15.1859 10.0363 15.4597C10.4572 15.2757 10.8323 15.0595 11.1324 14.8341C11.4418 14.6017 11.7191 14.3599 11.9704 14.1123V14.1123Z" fill="url(#paint21_linear_8359_28946)"/>
<path style="mix-blend-mode:multiply" opacity="0.3" d="M9.27874 4.26257C8.04858 5.85133 7.63788 7.82582 7.65688 9.34332C7.82842 9.26281 8.0069 9.18304 8.19486 9.10444C8.7783 8.86047 9.37863 8.68432 9.9847 8.57107C10.1038 7.50647 10.5032 6.31123 11.2782 5.43654C12.0275 4.591 13.1414 4.10636 14.3565 4.23073C14.5868 4.2543 14.8326 4.31086 15.0539 4.38517C15.0641 4.38858 15.0749 4.39147 15.085 4.39497C15.0851 4.39477 15.0853 4.3945 15.0854 4.3943C13.966 3.93826 12.7293 3.72271 11.4442 3.81012C10.6895 3.86146 9.96629 4.01587 9.28489 4.25511C9.28293 4.25764 9.28071 4.26003 9.27875 4.26256L9.27874 4.26257V4.26257Z" fill="url(#paint22_linear_8359_28946)"/>
<path style="mix-blend-mode:multiply" opacity="0.3" d="M20.0628 13.5118C19.3016 11.6511 17.7959 10.3077 16.4717 9.56567C16.4556 9.75443 16.4355 9.94879 16.4096 10.1508C16.3291 10.778 16.1815 11.386 15.9766 11.9675C16.8397 12.6029 17.6761 13.547 18.0464 14.6564C18.404 15.728 18.2668 16.935 17.5515 17.9252C17.4159 18.1128 17.244 18.2974 17.069 18.4519C17.0665 18.4542 17.064 18.4565 17.0615 18.4588C18.603 17.2473 19.6933 15.5011 20.0672 13.5235C20.0656 13.5196 20.0644 13.5156 20.0628 13.5118V13.5118V13.5118Z" fill="url(#paint23_linear_8359_28946)"/>
<path style="mix-blend-mode:multiply" opacity="0.3" d="M9.97833 9.83377C10.0249 10.2178 10.0956 10.5786 10.1843 10.92C10.9304 10.7444 11.6621 10.6798 12.3609 10.7139C12.3979 10.7163 12.4341 10.717 12.4714 10.7201C12.4728 10.7202 12.4742 10.7203 12.4755 10.7204C12.9132 10.7567 13.3702 10.8365 13.8429 10.9668C13.944 10.6312 14.0283 10.2828 14.0889 9.91866C14.1548 9.46605 14.1759 9.04752 14.173 8.68188C13.0536 8.40448 12.0073 8.3502 11.0534 8.43597C10.6966 8.45975 10.3396 8.5047 9.98458 8.57103C9.93348 9.02782 9.93316 9.46098 9.97833 9.83377H9.97833Z" fill="url(#paint24_linear_8359_28946)"/>
<defs>
<linearGradient id="paint0_linear_8359_28946" x1="4.83437" y1="19.1661" x2="18.2236" y2="5.77687" gradientUnits="userSpaceOnUse">
<stop offset="0.001139" stop-color="#E6007A"/>
<stop offset="0.207149" stop-color="#703AC2"/>
<stop offset="0.456011" stop-color="#0070EB"/>
<stop offset="0.768132" stop-color="#0297FB"/>
<stop offset="1" stop-color="#0AE2FF"/>
</linearGradient>
<radialGradient id="paint1_radial_8359_28946" cx="0" cy="0" r="1" gradientUnits="userSpaceOnUse" gradientTransform="translate(14.9945 9.87473) scale(3.99231)">
<stop stop-color="white"/>
<stop offset="1" stop-color="white" stop-opacity="0"/>
</radialGradient>
<radialGradient id="paint2_radial_8359_28946" cx="0" cy="0" r="1" gradientUnits="userSpaceOnUse" gradientTransform="translate(9.09354 17.2809) scale(2.32276)">
<stop stop-color="white"/>
<stop offset="1" stop-color="white" stop-opacity="0"/>
</radialGradient>
<linearGradient id="paint3_linear_8359_28946" x1="5.60703" y1="16.888" x2="7.84602" y2="16.8569" gradientUnits="userSpaceOnUse">
<stop stop-color="white" stop-opacity="0"/>
<stop offset="1" stop-color="white"/>
</linearGradient>
<radialGradient id="paint4_radial_8359_28946" cx="0" cy="0" r="1" gradientUnits="userSpaceOnUse" gradientTransform="translate(8.66325 10.4709) rotate(-120) scale(3.99231)">
<stop stop-color="white"/>
<stop offset="1" stop-color="white" stop-opacity="0"/>
</radialGradient>
<radialGradient id="paint5_radial_8359_28946" cx="0" cy="0" r="1" gradientUnits="userSpaceOnUse" gradientTransform="translate(18.0278 11.8784) rotate(-120) scale(2.32276)">
<stop stop-color="white"/>
<stop offset="1" stop-color="white" stop-opacity="0"/>
</radialGradient>
<linearGradient id="paint6_linear_8359_28946" x1="19.4314" y1="15.0934" x2="18.285" y2="13.17" gradientUnits="userSpaceOnUse">
<stop stop-color="white" stop-opacity="0"/>
<stop offset="1" stop-color="white"/>
</linearGradient>
<radialGradient id="paint7_radial_8359_28946" cx="0" cy="0" r="1" gradientUnits="userSpaceOnUse" gradientTransform="translate(12.1555 15.4697) rotate(120) scale(3.9923)">
<stop stop-color="white"/>
<stop offset="1" stop-color="white" stop-opacity="0"/>
</radialGradient>
<radialGradient id="paint8_radial_8359_28946" cx="0" cy="0" r="1" gradientUnits="userSpaceOnUse" gradientTransform="translate(8.88009 6.84069) rotate(120) scale(2.32276)">
<stop stop-color="white"/>
<stop offset="1" stop-color="white" stop-opacity="0"/>
</radialGradient>
<linearGradient id="paint9_linear_8359_28946" x1="10.9633" y1="4.01829" x2="9.87072" y2="5.97286" gradientUnits="userSpaceOnUse">
<stop stop-color="white" stop-opacity="0"/>
<stop offset="1" stop-color="white"/>
</linearGradient>
<linearGradient id="paint10_linear_8359_28946" x1="11.4511" y1="3.02482" x2="8.03041" y2="4.01993" gradientUnits="userSpaceOnUse">
<stop stop-color="#231F20"/>
<stop offset="1" stop-color="white"/>
</linearGradient>
<linearGradient id="paint11_linear_8359_28946" x1="4.98579" y1="16.071" x2="7.84672" y2="19.0563" gradientUnits="userSpaceOnUse">
<stop stop-color="#231F20"/>
<stop offset="1" stop-color="white"/>
</linearGradient>
<linearGradient id="paint12_linear_8359_28946" x1="20.3401" y1="15.621" x2="21.3352" y2="12.5942" gradientUnits="userSpaceOnUse">
<stop stop-color="#231F20"/>
<stop offset="1" stop-color="white"/>
</linearGradient>
<linearGradient id="paint13_linear_8359_28946" x1="13.0093" y1="4.75579" x2="17.5954" y2="5.80589" gradientUnits="userSpaceOnUse">
<stop stop-color="#231F20"/>
<stop offset="1" stop-color="white"/>
</linearGradient>
<linearGradient id="paint14_linear_8359_28946" x1="17.7691" y1="16.4958" x2="14.5666" y2="19.9424" gradientUnits="userSpaceOnUse">
<stop stop-color="#231F20"/>
<stop offset="1" stop-color="white"/>
</linearGradient>
<linearGradient id="paint15_linear_8359_28946" x1="5.22221" y1="14.7513" x2="3.83854" y2="10.2545" gradientUnits="userSpaceOnUse">
<stop stop-color="#231F20"/>
<stop offset="1" stop-color="white"/>
</linearGradient>
<linearGradient id="paint16_linear_8359_28946" x1="14.0116" y1="6.44711" x2="12.5604" y2="7.89831" gradientUnits="userSpaceOnUse">
<stop stop-color="#231F20"/>
<stop offset="1" stop-color="white"/>
</linearGradient>
<linearGradient id="paint17_linear_8359_28946" x1="6.18567" y1="13.0347" x2="8.16804" y2="13.5659" gradientUnits="userSpaceOnUse">
<stop stop-color="#231F20"/>
<stop offset="1" stop-color="white"/>
</linearGradient>
<linearGradient id="paint18_linear_8359_28946" x1="15.8025" y1="16.5174" x2="15.2713" y2="14.535" gradientUnits="userSpaceOnUse">
<stop stop-color="#231F20"/>
<stop offset="1" stop-color="white"/>
</linearGradient>
<linearGradient id="paint19_linear_8359_28946" x1="12.7853" y1="14.7545" x2="13.656" y2="13.5521" gradientUnits="userSpaceOnUse">
<stop stop-color="#231F20"/>
<stop offset="1" stop-color="white"/>
</linearGradient>
<linearGradient id="paint20_linear_8359_28946" x1="9.78778" y1="14.234" x2="8.04634" y2="15.0633" gradientUnits="userSpaceOnUse">
<stop stop-color="#231F20"/>
<stop offset="1" stop-color="white"/>
</linearGradient>
<linearGradient id="paint21_linear_8359_28946" x1="9.15492" y1="11.3352" x2="9.69394" y2="12.4546" gradientUnits="userSpaceOnUse">
<stop stop-color="#231F20"/>
<stop offset="1" stop-color="white"/>
</linearGradient>
<linearGradient id="paint22_linear_8359_28946" x1="11.6641" y1="7.8778" x2="11.2909" y2="6.59245" gradientUnits="userSpaceOnUse">
<stop stop-color="#231F20"/>
<stop offset="1" stop-color="white"/>
</linearGradient>
<linearGradient id="paint23_linear_8359_28946" x1="15.6851" y1="13.7627" x2="16.7632" y2="14.0115" gradientUnits="userSpaceOnUse">
<stop stop-color="#231F20"/>
<stop offset="1" stop-color="white"/>
</linearGradient>
<linearGradient id="paint24_linear_8359_28946" x1="13.9939" y1="10.121" x2="12.6257" y2="9.87219" gradientUnits="userSpaceOnUse">
<stop stop-color="#231F20"/>
<stop offset="1" stop-color="white"/>
</linearGradient>
</defs>
</svg>
