<svg width="24" height="24" viewBox="0 0 24 24" fill="none" xmlns="http://www.w3.org/2000/svg">
<path d="M22.5 12C22.5 6.20101 17.799 1.5 12 1.5C6.20101 1.5 1.5 6.20101 1.5 12C1.5 17.799 6.20101 22.5 12 22.5C17.799 22.5 22.5 17.799 22.5 12Z"
      fill="#171E43" />
<path d="M8.43125 12.1526C8.59386 12.1526 8.72568 12.2753 8.72568 12.4266L8.72568 15.6517C8.72568 15.8031 8.59386 15.9258 8.43125 15.9258C8.26864 15.9258 8.13682 15.8031 8.13682 15.6517L8.13682 12.4266C8.13682 12.2753 8.26864 12.1526 8.43125 12.1526Z"
      fill="#4FCCC6" />
<path d="M6.99997 12.9179C7.16258 12.9179 7.2944 13.0406 7.2944 13.1919L7.2944 15.4822C7.2944 15.6335 7.16258 15.7562 6.99997 15.7562C6.83736 15.7562 6.70554 15.6335 6.70554 15.4822L6.70554 13.1919C6.70554 13.0406 6.83736 12.9179 6.99997 12.9179Z"
      fill="#4FCCC6" />
<path d="M10.1067 12.4266C10.1067 12.2753 9.97491 12.1526 9.8123 12.1526C9.64969 12.1526 9.51787 12.2753 9.51787 12.4266V18.726C9.51787 18.8773 9.64969 19 9.8123 19C9.97491 19 10.1067 18.8773 10.1067 18.726L10.1067 12.4266Z"
      fill="#4FCCC6" />
<path d="M11.1682 12.643C11.3309 12.643 11.4627 12.7657 11.4627 12.917V15.1614C11.4627 15.3127 11.3309 15.4354 11.1682 15.4354C11.0056 15.4354 10.8738 15.3127 10.8738 15.1614V12.917C10.8738 12.7657 11.0056 12.643 11.1682 12.643Z"
      fill="#4FCCC6" />
<path d="M12.8688 13.6148C12.8688 13.4635 12.737 13.3408 12.5744 13.3408C12.4118 13.3408 12.28 13.4635 12.28 13.6148V14.3371C12.28 14.4884 12.4118 14.6111 12.5744 14.6111C12.737 14.6111 12.8688 14.4884 12.8688 14.3371V13.6148Z"
      fill="#4FCCC6" />
<path d="M13.9555 13.8933C14.1181 13.8933 14.2499 14.016 14.2499 14.1673V17.4812C14.2499 17.6325 14.1181 17.7552 13.9555 17.7552C13.7929 17.7552 13.661 17.6325 13.661 17.4812V14.1673C13.661 14.016 13.7929 13.8933 13.9555 13.8933Z"
      fill="#4FCCC6" />
<path d="M15.6561 14.3371C15.6561 14.1857 15.5242 14.063 15.3616 14.063C15.199 14.063 15.0672 14.1857 15.0672 14.3371V17.0663C15.0672 17.2176 15.199 17.3403 15.3616 17.3403C15.5242 17.3403 15.6561 17.2176 15.6561 17.0663V14.3371Z"
      fill="#4FCCC6" />
<path d="M16.7929 13.7019C16.9555 13.7019 17.0873 13.8246 17.0873 13.9759V15.3124C17.0873 15.4638 16.9555 15.5865 16.7929 15.5865C16.6303 15.5865 16.4985 15.4638 16.4985 15.3124V13.9759C16.4985 13.8246 16.6303 13.7019 16.7929 13.7019Z"
      fill="#4FCCC6" />
<path d="M17.7055 10.3101C17.7055 10.6482 17.6716 10.9788 17.6067 11.2993C14.8279 12.6792 13.522 11.8831 12.2252 11.0925C10.8486 10.2533 9.48211 9.42027 6.3748 11.2032C6.32196 10.9129 6.29445 10.6145 6.29445 10.3101C6.29445 7.37741 8.84889 5 12 5C15.151 5 17.7055 7.37741 17.7055 10.3101Z"
      fill="#F2B705" />
<path d="M9.82718 11.401C9.01231 11.3423 7.95929 11.5747 6.45071 12.4537C6.31288 12.534 6.1312 12.4951 6.04491 12.3668C5.95862 12.2385 6.00041 12.0694 6.13823 11.9891C7.70685 11.0752 8.8864 10.7836 9.87257 10.8546C11.6028 10.9791 12.7074 12.435 14.3668 12.7048C15.1454 12.8314 16.1381 12.7065 17.5643 11.9809C17.707 11.9084 17.8859 11.9572 17.9639 12.09C18.0419 12.2228 17.9894 12.3892 17.8467 12.4618C16.3432 13.2268 15.214 13.3989 14.2654 13.2447C11.8462 12.643 11.5085 11.522 9.82718 11.401Z"
      fill="#4FCCC6" />
</svg>
