<svg width="24" height="24" viewBox="0 0 24 24" fill="none" xmlns="http://www.w3.org/2000/svg">
<path d="M2.65224 17.1295V17.336C2.65224 17.336 10.7037 14.3562 12.2689 15.1257L11.3248 15.3862C11.4074 15.3862 12.9376 15.48 12.9376 15.48C12.9734 15.7761 13.079 16.0609 13.2466 16.3141C13.4142 16.5673 13.6397 16.7825 13.9068 16.9441C14.8284 17.5143 14.8459 17.824 14.8459 17.824C14.8459 17.824 14.3676 18.007 14.3676 18.2393C14.8124 18.12 15.2723 18.0577 15.735 18.0539C16.1523 18.0679 16.5661 18.1302 16.9671 18.2393C16.9671 18.2393 16.9195 18.0047 16.2759 17.824C15.6323 17.6433 15.0112 17.0051 14.6982 16.6508C14.5104 16.4244 14.3886 16.1561 14.3448 15.8724C14.3009 15.5886 14.3363 15.299 14.4477 15.0319C14.6706 14.4969 15.4495 14.199 17.0297 13.4294C18.9055 12.5213 19.3337 11.8409 19.5967 11.3177C19.8596 10.7945 20.2553 9.74565 20.4732 9.25293C20.6543 8.79239 20.966 8.3868 21.3747 8.07977C21.6527 7.88034 22.9199 7.43219 22.9199 7.43219C22.9199 7.43219 21.9532 6.66026 21.6377 6.42797C21.2433 6.07802 20.7445 5.84887 20.2077 5.771C19.5366 5.68888 18.8554 6.10653 18.3946 6.38574C17.9338 6.66495 17.0422 7.48146 16.6816 7.7161C16.321 7.95073 15.3969 8.18536 13.9268 9.02768C12.4568 9.87001 6.62164 13.359 6.62164 13.359L8.12425 13.373L1.38005 16.6508H2.05372L1.08203 17.3547C1.62021 17.4702 2.18509 17.3897 2.66228 17.1295H2.65224Z" fill="black"/>
</svg>
