<svg width="24" height="24" viewBox="0 0 24 24" fill="none" xmlns="http://www.w3.org/2000/svg">
<path d="M22.5 12C22.5 6.20101 17.799 1.5 12 1.5C6.20101 1.5 1.5 6.20101 1.5 12C1.5 17.799 6.20101 22.5 12 22.5C17.799 22.5 22.5 17.799 22.5 12Z" fill="#E6007A"/>
<path d="M7.19903 10.1357C6.87249 10.018 6.63922 9.70756 6.63922 9.34308C6.63922 8.87742 7.01969 8.5 7.48901 8.5C7.95834 8.5 8.3389 8.87742 8.3389 9.34308C8.3389 9.70756 8.10566 10.018 7.77903 10.1357V14.5029C8.38704 14.4763 8.95234 14.3659 9.45465 14.183V10.8349C9.12801 10.7173 8.89475 10.4068 8.89475 10.0422C8.89475 9.57665 9.27531 9.19914 9.74463 9.19914C10.214 9.19914 10.5944 9.57665 10.5944 10.0422C10.5944 10.4068 10.3612 10.7173 10.0347 10.8349V13.9247C10.5931 13.6252 11.0405 13.2198 11.3371 12.7304C11.1359 12.5504 11.0093 12.2899 11.0093 12C11.0093 11.4572 11.453 11.0171 12.0002 11.0171C12.0451 11.0171 12.0894 11.0201 12.1327 11.0259C12.8874 9.72422 14.5055 8.93582 16.4362 8.91587L16.5112 8.91549H19.6127C19.773 8.91549 19.9026 9.04439 19.9026 9.20327C19.9026 9.35641 19.7819 9.48164 19.6297 9.49037L19.6127 9.49084H19.0569L19.0569 13.8643C19.3834 13.9819 19.6167 14.2925 19.6167 14.657C19.6167 15.1226 19.2362 15.5 18.7668 15.5C18.2975 15.5 17.917 15.1226 17.917 14.657C17.917 14.2924 18.1503 13.9819 18.4769 13.8643L18.4768 9.49084H16.8012L16.8013 13.8643C17.128 13.9819 17.3612 14.2925 17.3612 14.657C17.3612 15.1226 16.9806 15.5 16.5112 15.5C16.0419 15.5 15.6613 15.1226 15.6613 14.657C15.6613 14.2925 15.8947 13.9819 16.2212 13.8643V9.49718C15.6134 9.52381 15.048 9.63409 14.5458 9.81697V13.1651C14.8722 13.2827 15.1056 13.5932 15.1056 13.9577C15.1056 14.4233 14.7251 14.8008 14.2557 14.8008C13.7865 14.8008 13.4059 14.4233 13.4059 13.9577C13.4059 13.5932 13.6392 13.2827 13.9657 13.1651V10.0754C13.4072 10.3748 12.9599 10.7801 12.6632 11.2696C12.8645 11.4496 12.991 11.7101 12.991 12C12.991 12.5428 12.5474 12.9829 12.0002 12.9829C11.9552 12.9829 11.911 12.9799 11.8676 12.9742C11.1129 14.2758 9.49474 15.0641 7.56423 15.084L7.48901 15.0845H4.38764C4.22748 15.0845 4.09766 14.9556 4.09766 14.7968C4.09766 14.6436 4.21838 14.5184 4.37055 14.5097L4.38764 14.5092H4.9435V10.1357C4.61696 10.018 4.3836 9.70756 4.3836 9.34308C4.3836 8.87742 4.76416 8.5 5.23339 8.5C5.70281 8.5 6.08337 8.87742 6.08337 9.34308C6.08337 9.70756 5.85013 10.018 5.5236 10.1357L5.5235 14.5092H7.19903V10.1357Z" fill="#F2F3F5"/>
</svg>
