<svg width="24" height="24" viewBox="0 0 24 24" fill="none" xmlns="http://www.w3.org/2000/svg">
<path d="M22.5 12C22.5 6.20101 17.799 1.5 12 1.5C6.20101 1.5 1.5 6.20101 1.5 12C1.5 17.799 6.20101 22.5 12 22.5C17.799 22.5 22.5 17.799 22.5 12Z" fill="#11091B"/>
<path d="M14.3358 9.67669C13.7336 9.08325 12.9217 8.75138 12.0763 8.75318C12.0653 8.75318 12.0537 8.75318 12.044 8.75318C11.1874 8.75745 10.3675 9.10186 9.76478 9.71063C9.16205 10.3194 8.82585 11.1427 8.83012 11.9993C8.83439 12.856 9.1788 13.6759 9.78757 14.2786C10.3963 14.8813 11.2196 15.2175 12.0763 15.2133H12.1085C12.7472 15.2067 13.3697 15.0109 13.8972 14.6506C14.4247 14.2903 14.8334 13.7817 15.0719 13.1891C15.3103 12.5965 15.3676 11.9464 15.2365 11.3212C15.1055 10.696 14.792 10.1237 14.3358 9.67669Z" fill="url(#paint0_linear_6362_25973)"/>
<path d="M13.4528 9.28572C13.0742 9.18905 12.77 9.26768 12.5229 9.5216C12.4924 9.55378 12.4638 9.58766 12.4372 9.6231C12.3727 9.70462 12.318 9.77519 12.1929 9.80419C12.0244 9.8378 11.8516 9.84498 11.6809 9.82546C11.6319 9.81805 11.591 9.80903 11.5549 9.80065C11.4276 9.77165 11.3506 9.75425 11.1982 9.89925C11.1506 9.94755 11.1074 10.0001 11.0693 10.0562C11.0016 10.1493 10.9378 10.2373 10.8331 10.2775C10.7846 10.2955 10.7337 10.3064 10.682 10.3098L10.6681 10.3036L10.6649 10.3104C10.5908 10.3122 10.5168 10.3075 10.4435 10.2962C10.3859 10.2877 10.3278 10.2825 10.2695 10.2808C10.3487 10.1653 10.418 10.0434 10.4767 9.91633C10.5834 9.89989 10.6743 9.82997 10.7622 9.76134C10.8086 9.72316 10.858 9.68868 10.9098 9.65822C11.0861 9.56155 11.1715 9.47938 11.3245 9.3115C11.4695 9.15264 11.6255 9.05372 11.8143 8.95415C11.9088 8.90589 11.9909 8.83654 12.0544 8.75146C12.685 8.75598 13.2753 8.90324 13.7944 9.24609C13.7387 9.28089 13.6223 9.32826 13.4528 9.28572Z" fill="#DADADA"/>
<path d="M15.2046 11.533C15.16 11.5157 15.1169 11.4948 15.0757 11.4705C15.0121 11.4301 14.9415 11.4018 14.8676 11.387L14.6791 11.2945C14.382 11.2433 14.2602 11.282 13.9602 11.1978C13.8211 11.1568 13.6762 11.1388 13.5313 11.1447L13.5239 11.1386L13.5184 11.1453C13.4156 11.1498 13.3122 11.1643 13.1962 11.1804L13.1166 11.1917C13.0843 11.1959 13.0483 11.2017 13.0073 11.2082C12.7518 11.2484 12.3236 11.3161 12.175 11.1495L12.1666 11.1572C11.9389 11.0231 11.6795 10.9522 11.4152 10.952C11.0034 10.952 10.8742 10.8408 10.6393 10.6388C10.5993 10.6043 10.5548 10.5663 10.5059 10.5257C10.5271 10.5257 10.5484 10.5257 10.5703 10.5257C10.6766 10.5625 10.7884 10.5813 10.9009 10.5814C10.9224 10.5815 10.944 10.5804 10.9654 10.5782C11.0242 10.5718 11.079 10.5454 11.1207 10.5034C11.1393 10.4873 11.1588 10.4723 11.1793 10.4587C11.2248 10.4316 11.2773 10.4188 11.3301 10.4219C11.353 10.4219 11.3768 10.42 11.4026 10.4168C11.5144 10.4029 11.5931 10.3404 11.6691 10.2798C11.7397 10.2237 11.8064 10.1706 11.8969 10.1561C11.9195 10.1522 11.9424 10.1506 11.9662 10.1487C12.0263 10.1491 12.0857 10.1347 12.1389 10.1068C12.1676 10.0885 12.194 10.0669 12.2175 10.0423C12.2444 10.0113 12.2773 9.98608 12.3142 9.96822C12.4334 9.92729 12.4866 9.82901 12.5504 9.74749C12.5788 9.7114 12.7115 9.69207 12.7473 9.65565C13.0157 9.3795 13.2306 9.28122 13.6418 9.3853C13.8513 9.43783 13.9318 9.44749 14.0021 9.39626C14.3476 9.65306 14.6382 9.97634 14.857 10.3471C15.0757 10.7179 15.2181 11.1286 15.2758 11.5552C15.2517 11.5493 15.2279 11.5419 15.2046 11.533Z" fill="#DADADA"/>
<path d="M11.1159 14.3248C11.112 14.3048 11.11 14.2844 11.1101 14.2639C11.1093 14.2165 11.1041 14.1692 11.0943 14.1228C11.0721 14.0145 11.0412 13.9939 11.0022 13.9659C10.9694 13.9447 10.9411 13.9172 10.919 13.885C10.8804 13.8257 10.8519 13.7603 10.8349 13.6916L10.832 13.6826C10.8604 13.7004 10.8897 13.7168 10.9197 13.7316C10.9342 13.739 10.9519 13.7493 10.9745 13.7609C11.0579 13.806 11.1726 13.8685 11.2306 13.8634C11.2806 13.8563 11.326 13.8305 11.3576 13.7912C11.3847 13.7641 11.472 13.8154 11.5094 13.8086C11.578 13.7964 11.6576 13.7764 11.7607 13.8186C11.8042 13.8363 11.8419 13.8508 11.8706 13.8608C11.9244 13.8776 11.9792 13.9008 12.0317 13.9227C12.1187 13.9635 12.2103 13.9935 12.3046 14.0119C12.3572 14.0191 12.4102 14.0223 12.4632 14.0216C12.5611 14.0159 12.6588 14.0366 12.7461 14.0815C12.9481 14.1824 12.9916 14.1905 13.212 14.1689C13.3773 14.1524 13.5874 14.1366 13.7476 14.1627C13.899 14.1872 14.0376 14.2578 14.1726 14.3458C14.1726 14.3593 14.1929 14.4051 14.1942 14.4183C13.6351 14.9315 12.9034 15.2156 12.1445 15.2142C12.0778 15.2142 12.0117 15.2116 11.9463 15.2071C11.9162 15.1748 11.8831 15.1454 11.8474 15.1194C11.8048 15.0931 11.759 15.0723 11.7111 15.0576C11.6486 15.035 11.5822 15.0118 11.5474 14.9722C11.4971 14.9168 11.5026 14.8549 11.5077 14.795C11.5155 14.7545 11.5121 14.7127 11.4978 14.6741C11.4681 14.6129 11.4033 14.5752 11.3347 14.5356C11.2939 14.5137 11.2553 14.488 11.2194 14.4589C11.1837 14.4309 11.153 14.3971 11.1285 14.359C11.1324 14.3487 11.1159 14.3248 11.1159 14.3248Z" fill="#DADADA"/>
<path d="M10.3213 9.43333C10.3157 9.51541 10.3201 9.59786 10.3345 9.67887C10.3493 9.78617 10.3632 9.88767 10.3222 10.0034L10.3181 10.015H10.3142V10.0233C10.2601 10.1619 10.1331 10.3581 10.0728 10.4477C9.93621 10.4293 9.87305 10.3275 9.80603 10.2199C9.76591 10.1466 9.7136 10.0807 9.65136 10.0249C9.62065 10.0013 9.58835 9.97974 9.55469 9.9605C9.78632 9.67247 10.0654 9.42608 10.3799 9.23193C10.3492 9.29529 10.3294 9.36338 10.3213 9.43333Z" fill="#DADADA"/>
<path d="M14.3627 14.2292C14.3579 14.1647 14.3546 14.097 14.354 14.0294C14.3505 13.6749 14.3337 13.5586 14.0962 13.3595C13.9135 13.2054 13.7028 13.1294 13.6354 12.8996C13.5984 12.7727 13.5974 12.6096 13.5964 12.4395C13.5964 12.3644 13.5964 12.2887 13.5919 12.2139C13.6095 12.1409 13.6358 12.0703 13.6702 12.0035C13.7102 11.9165 13.7746 11.8263 13.7611 11.7315C13.7498 11.6523 13.7611 11.7093 13.7266 11.6027C13.6963 11.5089 13.6396 11.4564 13.5723 11.4019C13.6994 11.4008 13.8261 11.4186 13.948 11.4548C14.249 11.5408 14.5306 11.4283 14.829 11.4796L14.8589 11.4847C14.9293 11.4987 14.9965 11.5256 15.0571 11.564C15.0994 11.5892 15.1437 11.6107 15.1895 11.6284C15.2192 11.639 15.2497 11.6472 15.2807 11.6529C15.2968 11.7623 15.3048 11.8727 15.3049 11.9832C15.3063 12.8281 14.9755 13.6397 14.384 14.243L14.3627 14.2292Z" fill="#DADADA"/>
<path d="M9.19738 12.9294C9.22541 12.9391 9.2528 12.9484 9.27793 12.9581C9.39014 12.9963 9.4971 13.0485 9.5963 13.1134C9.70102 13.1853 9.78287 13.2565 9.8428 13.3712C9.90725 13.494 9.95526 13.5732 10.0851 13.6412L10.1238 13.6615C10.2833 13.7443 10.3983 13.8043 10.4818 13.9657C10.5324 14.0624 10.6242 14.104 10.7128 14.1429C10.7611 14.1625 10.8075 14.1864 10.8514 14.2145L10.8691 14.2267L10.9013 14.248C10.9152 14.2918 10.9468 14.3337 11.0244 14.4017C11.0661 14.4356 11.1109 14.4655 11.1581 14.491C11.2294 14.5325 11.2967 14.5715 11.3251 14.6295C11.3376 14.6666 11.3403 14.7064 11.3328 14.7449C11.3267 14.8158 11.3193 14.896 11.386 14.9704C11.432 15.0213 11.5084 15.0487 11.5822 15.0752C11.6323 15.0905 11.6803 15.1122 11.725 15.1396C11.7518 15.1592 11.7772 15.1808 11.801 15.204C11.1383 15.1472 10.5092 14.8874 9.99957 14.46C9.48993 14.0326 9.1245 13.4584 8.95312 12.8157C9.02047 12.8695 9.11456 12.9017 9.19738 12.9294Z" fill="#DADADA"/>
<path d="M9.71145 10.3035C9.76688 10.3924 9.82391 10.4833 9.92445 10.5262C9.83229 10.5419 9.80264 10.5165 9.70565 10.599C9.6541 10.6428 9.5426 10.6354 9.49588 10.6853C9.41629 10.7698 9.3976 10.9164 9.29674 10.9692C9.18986 11.023 9.07888 11.0681 8.96484 11.1042C9.08085 10.6931 9.22263 10.3857 9.48041 10.0586C9.51068 10.0758 9.53946 10.0955 9.56645 10.1176C9.6249 10.1709 9.67392 10.2338 9.71145 10.3035Z" fill="#DADADA"/>
<path d="M13.796 13.3764L13.8176 13.3945C14.0274 13.5708 14.0841 13.6184 14.087 13.9236C14.087 13.9768 14.0896 14.0293 14.0931 14.0815C13.9617 13.9984 13.8241 13.93 13.6762 13.9065C13.5121 13.8801 13.2995 13.8956 13.1322 13.912C12.9183 13.9333 12.9644 13.8762 12.7678 13.7779C12.6424 13.7154 12.4752 13.7651 12.3866 13.7647C12.3352 13.7655 12.2838 13.7623 12.2329 13.7554C12.1413 13.7374 12.0522 13.7081 11.9677 13.6684C11.9142 13.6462 11.9374 13.6017 11.882 13.5843C11.8546 13.5756 11.7389 13.5817 11.6957 13.5643C11.5833 13.5185 11.4428 13.4618 11.3651 13.4757C11.3231 13.4863 11.2856 13.5102 11.2581 13.5437C11.2319 13.5779 11.1937 13.601 11.1512 13.6081C11.1025 13.6117 10.99 13.5501 10.913 13.5092C10.8911 13.4973 10.8718 13.487 10.857 13.4796C10.8164 13.4593 10.7772 13.4364 10.7397 13.4109C10.7397 13.4083 10.7381 13.4051 10.7371 13.4025L10.7307 13.4048C10.6421 13.3415 10.5583 13.2719 10.4796 13.1966C10.3202 13.0467 10.1288 12.9349 9.91992 12.8696C10.0514 12.8515 10.1613 12.7887 10.2744 12.7233C10.3685 12.6639 10.4696 12.6164 10.5753 12.5818C10.7042 12.5438 10.8518 12.5432 10.9942 12.5422C11.145 12.5422 11.301 12.5406 11.4373 12.4955C11.5791 12.4484 11.6857 12.3463 11.7892 12.2474C11.8981 12.1429 12.0331 12.1268 12.1865 12.0862C12.3089 12.054 12.4643 11.9512 12.6521 11.9396C12.8854 11.9258 13.1261 11.9109 13.2795 11.8523C13.3671 11.9628 13.3932 12.1191 13.4016 12.2857C13.4018 12.2863 13.4018 12.287 13.4016 12.2876C13.4048 12.3547 13.4055 12.423 13.4058 12.491C13.4058 12.6476 13.4077 12.7955 13.4425 12.914C13.5051 13.1319 13.6336 13.2398 13.796 13.3764Z" fill="#DADADA"/>
<path d="M8.93203 12.7365C8.87347 12.5036 8.84392 12.2645 8.84406 12.0244C8.84056 11.7712 8.86684 11.5186 8.92236 11.2716C9.04044 11.2369 9.15561 11.1929 9.26682 11.1402C9.36349 11.0902 9.43793 11.0738 9.5114 10.9958C9.55199 10.9505 9.59501 10.9075 9.64029 10.8669C9.81977 10.7145 9.98346 10.7351 10.1559 10.7573C10.1971 10.7628 10.239 10.7677 10.2815 10.7706C10.3392 10.817 10.3898 10.796 10.4346 10.835C10.6447 11.0158 10.77 11.2001 11.1528 11.2001C11.4306 11.2001 11.6468 11.203 11.8663 11.3348C11.8721 11.3387 11.8779 11.3422 11.8843 11.3457C11.9413 11.3805 11.999 11.4192 12.0583 11.4611L12.0957 11.4878C12.2185 11.5755 12.3345 11.6586 12.4956 11.6847C12.5507 11.6921 12.6063 11.6945 12.6618 11.6918C12.7672 11.6899 12.8594 11.6879 12.9393 11.7698C12.7901 11.823 12.5578 11.8371 12.3325 11.8507C12.1431 11.8623 11.9639 11.8732 11.8385 11.9061C11.6774 11.949 11.5611 12.0598 11.449 12.1671C11.3436 12.268 11.2444 12.363 11.1093 12.4078C10.9743 12.4526 10.8245 12.4523 10.6763 12.4529C10.528 12.4536 10.383 12.4549 10.249 12.4938C10.1409 12.5291 10.0375 12.5776 9.94125 12.6382C9.80334 12.7178 9.67122 12.7935 9.49754 12.7842C9.4476 12.7723 9.39733 12.7632 9.34674 12.7558L9.33256 12.7516V12.7539C9.19972 12.7374 9.06579 12.7316 8.93203 12.7365Z" fill="#DADADA"/>
<path d="M7.3272 8.55573C7.01099 8.55813 6.6949 8.54242 6.38049 8.50868C5.72861 8.43167 5.39027 8.2683 5.31713 7.99311C5.19951 7.56165 5.82722 7.19882 6.30992 6.96198C8.14663 6.06617 12.1745 5.13654 15.2895 4.88971C16.2527 4.81334 17.0618 4.80851 17.6328 4.87553C18.2847 4.95255 18.623 5.11592 18.6961 5.3911C18.8138 5.82257 18.1861 6.1854 17.7034 6.42224C15.8666 7.31804 11.8388 8.24768 8.72375 8.4945C8.21108 8.53543 7.74127 8.55573 7.3272 8.55573ZM16.6767 5.21774C16.3065 5.21774 15.8589 5.23482 15.3192 5.27768C12.2444 5.52257 8.27843 6.43416 6.47845 7.31224C5.70509 7.68957 5.68866 7.89226 5.6893 7.89226C5.71476 7.98635 6.30154 8.29859 8.69378 8.10879C11.7685 7.86519 15.7345 6.95231 17.5345 6.07423C18.3079 5.6969 18.3243 5.49583 18.3236 5.49422C18.3037 5.42139 17.9482 5.21774 16.6767 5.21774Z" fill="#DADADA"/>
<path d="M7.31389 19.1677C6.99768 19.17 6.68159 19.1543 6.36718 19.1206C5.71531 19.0436 5.37696 18.8802 5.30382 18.605C5.18459 18.1749 5.81262 17.812 6.29597 17.5765C8.13268 16.6807 12.1606 15.751 15.2756 15.5042C16.2387 15.4278 17.0478 15.423 17.6188 15.49C18.2707 15.567 18.609 15.7304 18.6838 16.0056C18.8014 16.4371 18.1737 16.7999 17.691 17.0367C15.8543 17.9325 11.8264 18.8622 8.71141 19.109C8.19713 19.147 7.72731 19.1677 7.31389 19.1677ZM16.6628 15.8297C16.2925 15.8297 15.845 15.8467 15.3052 15.8896C12.2305 16.1332 8.26447 17.0461 6.46449 17.9242C5.69114 18.3015 5.67471 18.5026 5.67535 18.5042C5.70113 18.5983 6.28598 18.9105 8.67983 18.7207C11.7546 18.4768 15.7206 17.5642 17.5205 16.6862C18.2939 16.3088 18.3103 16.1061 18.3097 16.1061C18.2897 16.0333 17.9343 15.8297 16.6628 15.8297Z" fill="#DADADA"/>
<defs>
<linearGradient id="paint0_linear_6362_25973" x1="12.0747" y1="15.2139" x2="12.0747" y2="8.75318" gradientUnits="userSpaceOnUse">
<stop stop-color="#603211"/>
<stop offset="0.17" stop-color="#DD7D26"/>
<stop offset="0.35" stop-color="#603211"/>
<stop offset="0.54" stop-color="#9C3520"/>
<stop offset="0.77" stop-color="#DD7D26"/>
<stop offset="1" stop-color="#603211"/>
</linearGradient>
</defs>
</svg>
