<svg width="24" height="24" viewBox="0 0 24 24" fill="none" xmlns="http://www.w3.org/2000/svg">
<path d="M20.5785 13.4002C20.8142 13.1648 21.1176 12.8618 21.4189 12.5612C22.0909 11.8904 22.0912 10.8024 21.4193 10.1312L20.7074 9.42022C18.1588 11.9658 14.3449 12.4773 11.2873 10.9549C13.3538 11.3366 15.4954 11.0393 17.3932 10.0202C18.6626 9.33839 18.9037 7.61871 17.8845 6.60075L13.6821 2.40339C12.7431 1.46547 11.2207 1.46547 10.282 2.40339L5.75239 6.92762C8.7355 5.66176 12.319 6.24863 14.7451 8.6886C11.0438 6.89419 6.45855 7.53084 3.38536 10.6C3.14962 10.8355 2.84586 11.1389 2.54459 11.4398C1.87298 12.1109 1.87333 13.1982 2.54459 13.869L3.25609 14.5797C5.80474 12.0341 9.61862 11.5226 12.6762 13.045C10.6096 12.6633 8.46804 12.9606 6.57037 13.9797C5.30085 14.6615 5.05977 16.3812 6.07894 17.3991L10.2814 21.5965C11.2204 22.5344 12.7427 22.5344 13.6814 21.5965L18.2111 17.0723C15.228 18.3381 11.6445 17.7513 9.21803 15.3113C12.9194 17.1057 17.5046 16.4691 20.5778 13.3999L20.5785 13.4002Z" fill="#E53E76"/>
</svg>
