<svg width="24" height="24" viewBox="0 0 24 24" fill="none" xmlns="http://www.w3.org/2000/svg">
<path d="M12 23C18.0751 23 23 18.0751 23 12C23 5.92487 18.0751 1 12 1C5.92487 1 1 5.92487 1 12C1 18.0751 5.92487 23 12 23Z" fill="#EB4880"/>
<path d="M7.14631 15C6.83076 15 6.4744 14.9734 6.07724 14.9203C5.85961 14.8937 5.71 14.8379 5.62839 14.7528C5.54678 14.6678 5.51142 14.5296 5.5223 14.3383C5.56038 13.8121 5.65015 13.1636 5.79161 12.3929C5.93306 11.6169 6.10444 10.8702 6.30574 10.1526C6.34382 10.0197 6.41999 9.92673 6.53425 9.87358C6.6485 9.82043 6.79811 9.79385 6.98309 9.79385C7.31497 9.79385 7.48091 9.88421 7.48091 10.0649C7.48091 10.1393 7.46459 10.2244 7.43194 10.32C7.29049 10.7453 7.14903 11.3166 7.00758 12.0342C6.86612 12.7464 6.76547 13.4267 6.70562 14.0752C6.86884 14.0911 7.05382 14.0991 7.26057 14.0991C8.21267 14.0991 8.92267 13.8174 9.39056 13.254C9.86389 12.6906 10.1006 11.9385 10.1006 10.9977C10.1006 10.3652 9.91557 9.87623 9.54561 9.53075C9.17565 9.18527 8.65336 9.01253 7.97872 9.01253C7.54348 9.01253 7.11095 9.07897 6.68114 9.21184C6.25678 9.34472 5.87321 9.52012 5.53046 9.73804C5.45973 9.78588 5.38356 9.80979 5.30195 9.80979C5.20946 9.80979 5.13601 9.77259 5.08161 9.69818C5.0272 9.61845 5 9.52278 5 9.41116C5 9.2836 5.02176 9.17995 5.06529 9.10023C5.10881 9.01519 5.18226 8.93812 5.28563 8.86902C5.66103 8.61921 6.10172 8.43052 6.60769 8.30296C7.11367 8.17008 7.6006 8.10364 8.06849 8.10364C8.73224 8.10364 9.30623 8.21792 9.79044 8.44647C10.2747 8.6697 10.6473 8.99924 10.9085 9.43508C11.1696 9.87092 11.3002 10.3971 11.3002 11.0137C11.3002 11.8162 11.137 12.5178 10.8106 13.1185C10.4841 13.7137 10.0081 14.1762 9.38239 14.5057C8.75673 14.8352 8.01137 15 7.14631 15ZM16.0085 12.5125C16.0793 12.5125 16.1337 12.5471 16.1717 12.6162C16.2098 12.6853 16.2289 12.773 16.2289 12.8793C16.2289 13.1344 16.15 13.2859 15.9922 13.3337C15.6658 13.4453 15.3067 13.5091 14.915 13.5251C14.8116 13.9715 14.6076 14.3303 14.3029 14.6014C13.9982 14.8671 13.6527 15 13.2665 15C12.94 15 12.6598 14.9229 12.4259 14.7688C12.1974 14.6147 12.0233 14.41 11.9036 14.1549C11.7839 13.8998 11.7241 13.6234 11.7241 13.3257C11.7241 12.9218 11.8029 12.563 11.9607 12.2494C12.1185 11.9305 12.3361 11.6834 12.6136 11.508C12.8911 11.3273 13.1985 11.2369 13.5358 11.2369C13.9493 11.2369 14.2811 11.3778 14.5314 11.6595C14.7871 11.9358 14.9367 12.2787 14.9803 12.6879C15.236 12.672 15.5406 12.6188 15.8943 12.5285C15.9378 12.5178 15.9759 12.5125 16.0085 12.5125ZM13.3318 14.1549C13.5059 14.1549 13.6555 14.0858 13.7806 13.9476C13.9112 13.8094 13.9982 13.6101 14.0418 13.3497C13.8731 13.238 13.7425 13.0919 13.65 12.9112C13.563 12.7304 13.5195 12.5391 13.5195 12.3371C13.5195 12.2521 13.5276 12.167 13.5439 12.082H13.5031C13.2855 12.082 13.1032 12.1856 12.9564 12.3929C12.8149 12.5949 12.7442 12.8819 12.7442 13.254C12.7442 13.5463 12.8013 13.7696 12.9155 13.9237C13.0352 14.0778 13.174 14.1549 13.3318 14.1549ZM17.0822 12.0023C17.0713 12.268 17.0659 12.4753 17.0659 12.6241C17.0659 13.0068 17.0849 13.3071 17.123 13.5251C17.1665 13.7377 17.2345 13.8918 17.327 13.9875C17.4249 14.0778 17.5582 14.123 17.7269 14.123C17.814 14.123 17.9173 14.0964 18.037 14.0433C18.1567 13.9901 18.2655 13.921 18.3634 13.836C18.4233 13.7828 18.4831 13.7563 18.543 13.7563C18.6083 13.7563 18.66 13.7935 18.698 13.8679C18.7416 13.937 18.7633 14.022 18.7633 14.123C18.7633 14.224 18.7416 14.3223 18.698 14.418C18.66 14.5137 18.6001 14.5934 18.5185 14.6572C18.2356 14.8857 17.9146 15 17.5555 15C17.0387 15 16.6605 14.7901 16.4212 14.3702C16.1818 13.945 16.0621 13.3922 16.0621 12.7118C16.0621 12.478 16.0702 12.2415 16.0866 12.0023H15.7683C15.6051 12.0023 15.4935 11.973 15.4337 11.9146C15.3793 11.8561 15.3521 11.7631 15.3521 11.6355C15.3521 11.3379 15.4745 11.1891 15.7193 11.1891H16.1845C16.277 10.6044 16.4184 10.0702 16.6089 9.58656C16.7993 9.10289 17.0278 8.71754 17.2944 8.43052C17.5664 8.14351 17.8575 8 18.1676 8C18.3961 8 18.5756 8.09833 18.7062 8.29499C18.8368 8.49165 18.9021 8.7388 18.9021 9.03645C18.9021 9.86029 18.5484 10.5778 17.8412 11.1891H18.7552C18.8422 11.1891 18.9048 11.2077 18.9429 11.2449C18.981 11.2821 19 11.3512 19 11.4522C19 11.8189 18.6926 12.0023 18.0778 12.0023H17.0822ZM17.9472 8.76538C17.8656 8.76538 17.7731 8.86636 17.6698 9.06834C17.5718 9.265 17.4766 9.54138 17.3841 9.89749C17.2971 10.2483 17.2236 10.639 17.1638 11.0695C17.4848 10.7984 17.7242 10.4954 17.882 10.1606C18.0452 9.82042 18.1268 9.51215 18.1268 9.23576C18.1268 8.92217 18.0669 8.76538 17.9472 8.76538Z" fill="white"/>
</svg>
