<svg width="24" height="24" viewBox="0 0 24 24" fill="none" xmlns="http://www.w3.org/2000/svg">
<path d="M19.5614 13.2766C19.5356 11.8371 19.5559 10.3968 19.5559 8.95691H19.5486C19.5486 7.33967 19.549 5.72223 19.5482 4.105C19.5478 3.53176 19.5172 3.47555 18.9703 3.34589C17.0854 2.89927 15.2001 2.45367 13.3102 2.02897C12.7065 1.89322 12.0929 1.80069 11.4641 1.90458C9.23281 2.27226 7.04802 2.84327 4.85897 3.39662C4.60532 3.46054 4.46978 3.6044 4.45537 3.86373C4.4507 3.9455 4.44238 4.02708 4.44238 4.10885C4.44076 7.20696 4.4438 10.3051 4.43751 13.4034C4.43528 14.5491 4.71754 15.6182 5.26663 16.6176C6.10507 18.1437 7.31526 19.333 8.70117 20.3567C9.62586 21.0399 10.6078 21.6265 11.6743 22.0675C11.9123 22.1659 12.1225 22.1647 12.3599 22.0658C13.2018 21.7158 13.9902 21.2696 14.7436 20.7605C16.1463 19.8125 17.3935 18.7007 18.3405 17.2819C19.1491 16.0709 19.5878 14.7507 19.5614 13.2766Z" fill="#29594B"/>
<path d="M5.30245 4.17148C5.30118 7.2493 5.30374 10.3271 5.29779 13.4049C5.29576 14.3992 5.53215 15.3146 6.02037 16.2033C6.71657 17.4708 7.73074 18.5706 9.21223 19.6649C10.1515 20.3591 11.0644 20.885 12.0029 21.2726C12.0076 21.2746 12.0116 21.276 12.0151 21.2772C12.0192 21.2758 12.0238 21.2742 12.0295 21.2718C12.7665 20.9654 13.4968 20.5652 14.262 20.048C15.7311 19.0551 16.8309 17.9945 17.6253 16.8046C18.3716 15.6865 18.7237 14.5372 18.7014 13.2919C18.647 10.25 18.6898 7.20541 18.6882 4.16296C16.7106 3.69443 14.9223 3.27277 13.1218 2.86816C12.635 2.75858 12.1139 2.6689 11.604 2.75311C9.47788 3.10328 7.38949 3.64296 5.30245 4.17148ZM12.0149 23C11.7913 23 11.5677 22.9539 11.3457 22.8624C10.2763 22.4203 9.24388 21.8269 8.18994 21.0484C6.52441 19.8181 5.32173 18.5042 4.51271 17.0316C3.88955 15.8974 3.57483 14.676 3.57747 13.4017C3.58173 11.3058 3.58193 9.17456 3.58193 7.11335C3.58193 6.11176 3.58193 5.10997 3.58234 4.10838C3.58234 4.02234 3.58762 3.94665 3.59228 3.87989C3.59391 3.85859 3.59533 3.83728 3.59654 3.81598C3.63185 3.18856 4.0249 2.72023 4.64805 2.56277L5.17725 2.42885C7.17293 1.92278 9.23678 1.39986 11.3242 1.05592C12.1269 0.923621 12.874 1.04943 13.499 1.18984C15.334 1.60217 17.1521 2.03133 19.1685 2.5092C19.4686 2.58022 19.8795 2.67762 20.1534 3.04469C20.4077 3.38539 20.4079 3.76748 20.4081 4.10452C20.4102 7.15578 20.3665 10.2104 20.4215 13.2611C20.4495 14.8465 19.9903 16.36 19.0559 17.7595C18.1354 19.1383 16.8824 20.3532 15.225 21.4731C14.3634 22.0554 13.5341 22.5091 12.69 22.8602C12.466 22.9533 12.2403 23 12.0149 23Z" fill="#52B196"/>
<path d="M10.7339 11.4888C10.3846 11.4119 10.1253 11.507 9.91307 11.7132C9.47924 12.1342 9.04703 12.5577 8.63166 12.9966C8.29056 13.3572 8.29381 13.8947 8.60954 14.2253C8.94233 14.5735 9.49426 14.5857 9.87371 14.2267C10.325 13.7996 10.7617 13.3568 11.1959 12.9122C11.4144 12.6886 11.5263 12.423 11.4153 12.0419C11.1987 12.2377 11.0234 12.4104 10.8329 12.5646C10.6669 12.6992 10.4843 12.687 10.3303 12.5399C10.1732 12.3899 10.1754 12.2097 10.2976 12.0403C10.423 11.8658 10.5636 11.7024 10.7339 11.4888ZM13.1029 10.4046C13.4182 10.5065 13.6743 10.4164 13.8894 10.2078C14.3478 9.76297 14.8094 9.32042 15.2475 8.85594C15.6164 8.46513 15.5931 7.93998 15.2278 7.59523C14.8859 7.27198 14.3796 7.27523 14.0034 7.62973C13.5509 8.05625 13.1106 8.49638 12.6752 8.94076C12.4568 9.16377 12.3517 9.42898 12.4714 9.76318C12.695 9.66456 12.8099 9.49858 12.9392 9.34943C13.112 9.14956 13.3231 9.14875 13.5132 9.28714C13.7323 9.44683 13.7048 9.65908 13.5511 9.86119C13.4121 10.0438 13.1877 10.1574 13.1029 10.4046V10.4046ZM10.5959 10.6312C10.8238 10.6203 11.0425 10.642 11.2385 10.7532C11.4 10.8451 11.5159 10.8009 11.6364 10.6771C11.76 10.5505 11.8517 10.4438 11.772 10.2404C11.4552 9.43121 11.6963 8.76909 12.3182 8.19769C12.7395 7.81073 13.1157 7.37446 13.5412 6.99257C14.1528 6.44409 15.0493 6.43902 15.6765 6.9457C16.2877 7.43939 16.4589 8.30543 16.1046 9.00366C15.9512 9.30621 15.6481 9.44277 15.4385 9.68079C15.1199 10.043 14.8019 10.4072 14.4582 10.7447C13.9716 11.2221 13.3837 11.3654 12.737 11.1339C12.5246 11.058 12.3801 11.0277 12.1991 11.2067C12.026 11.378 12.0792 11.5125 12.1443 11.6992C12.3769 12.3654 12.2375 12.9607 11.7438 13.4654C11.3081 13.9106 10.8725 14.356 10.4228 14.7868C9.73917 15.442 8.7595 15.4515 8.10023 14.8245C7.44907 14.2054 7.40484 13.1878 8.03306 12.5013C8.49835 11.9926 8.9961 11.5125 9.49588 11.0371C9.79903 10.7489 10.1724 10.6004 10.5959 10.6312" fill="#52B196"/>
</svg>
