<svg width="24" height="24" viewBox="0 0 24 24" fill="none" xmlns="http://www.w3.org/2000/svg">
<path fill-rule="evenodd" clip-rule="evenodd" d="M6.03596 2.20531C5.93474 2.30653 5.9594 2.355 6.28495 2.69513C6.85614 3.29199 7.37121 4.34039 7.88697 5.95623C8.47871 7.80981 8.65045 8.44516 8.68104 8.89345C8.70773 9.28509 8.69604 9.35684 8.54331 9.73829C8.34295 10.2387 8.32389 10.6401 8.48389 10.9926C8.54165 11.12 8.81365 11.5644 9.08827 11.9802C9.36289 12.3961 9.76495 13.0346 9.9818 13.3991C10.571 14.3898 10.5326 14.5791 9.65449 15.0153C9.37731 15.153 9.10333 15.3278 9.04562 15.4038C8.9436 15.5381 8.94322 15.5516 9.03275 15.9008C9.19296 16.526 9.12393 16.8187 8.76368 17.0418L8.59039 17.1491L8.72364 17.3765C8.8979 17.6738 8.89219 17.7632 8.67608 18.122C8.44075 18.5129 8.40642 18.7684 8.51389 19.3299C8.65878 20.0871 8.54016 20.6062 8.13009 21.0088C7.83791 21.2957 7.45582 21.4639 7.09515 21.4642L6.80152 21.4646L6.96376 21.3656C7.22616 21.2056 7.56334 20.7828 7.6872 20.4585C7.77668 20.2241 7.81095 19.9789 7.84122 19.3562C7.87576 18.6468 7.89776 18.5128 8.03421 18.1817C8.14248 17.919 8.18919 17.7129 8.19154 17.4877C8.19384 17.2708 8.23425 17.0842 8.31663 16.9098C8.50198 16.5175 8.51875 16.1637 8.37487 15.6791L8.25326 15.2694L8.48207 14.7879C8.68953 14.3513 8.71094 14.2681 8.71185 13.8951C8.71329 13.2783 8.53652 12.7166 8.02049 11.6979C7.77582 11.2149 7.57562 10.7639 7.57562 10.6958C7.57562 10.6275 7.67604 10.3741 7.79883 10.1325C8.01115 9.71474 8.02183 9.67107 8.01708 9.2395C8.01403 8.95927 7.97255 8.65299 7.9087 8.4387C7.85184 8.24784 7.632 7.49574 7.42016 6.76733C7.00108 5.32595 6.74146 4.63183 6.2684 3.68731C5.87169 2.89527 5.77405 2.7554 5.67518 2.83746C5.56734 2.92693 5.5818 3.0195 5.7433 3.27464C6.18843 3.97768 6.68802 5.2557 7.18537 6.96385C7.74646 8.89067 7.73578 8.84631 7.73578 9.25247C7.73578 9.55816 7.70727 9.67289 7.5563 9.97489C7.18638 10.7149 7.17619 10.6121 7.7282 11.7144C8.29874 12.8536 8.44924 13.3348 8.42169 13.9317C8.40594 14.2736 8.37049 14.4036 8.19741 14.7533C7.97276 15.2072 7.96689 15.304 8.13004 15.8594C8.25422 16.2822 8.16896 16.749 7.91436 17.0401C7.85451 17.1086 7.85019 17.1769 7.89365 17.3707C7.95221 17.6319 7.95264 17.6295 7.7487 18.155C7.63632 18.4446 7.60744 18.6356 7.57407 19.3084C7.5304 20.1908 7.46394 20.4261 7.14464 20.8293C6.88897 21.1521 6.40379 21.3888 5.78718 21.4917L5.57363 21.5273L5.79353 21.3674C6.3054 20.9952 6.61301 20.2899 6.92676 18.769C7.05954 18.1255 7.13038 17.5364 7.20219 16.4794C7.23187 16.0424 7.29748 15.5379 7.34804 15.3583C7.41701 15.1133 7.43986 14.8257 7.4397 14.2044C7.43949 13.2328 7.36971 12.9131 6.90482 11.7547C6.56374 10.9049 6.54703 10.7102 6.74813 9.93352C6.82037 9.65458 6.87995 9.34915 6.88053 9.25482C6.88288 8.87935 6.30946 6.30148 6.06367 5.58253C5.87233 5.02283 5.27184 3.63393 5.22123 3.63393C5.19689 3.63393 5.15049 3.68347 5.11809 3.74401C5.06903 3.83562 5.11793 3.99258 5.41017 4.68115C5.60321 5.13601 5.83101 5.74317 5.91632 6.03028C6.08395 6.59458 6.61536 9.04821 6.6136 9.24985C6.61301 9.31755 6.55343 9.60119 6.4812 9.88013C6.27171 10.6893 6.29254 10.9188 6.66213 11.872C7.12301 13.0609 7.1733 13.2901 7.17368 14.2044C7.17394 14.778 7.14976 15.0669 7.08036 15.3197C7.02884 15.5074 6.96237 16.0239 6.93264 16.4675C6.81471 18.2271 6.52252 19.7193 6.14754 20.4773C5.93405 20.9089 5.76476 21.0952 5.45923 21.2351C5.30195 21.3071 5.17324 21.379 5.17324 21.3949C5.17324 21.4107 5.22347 21.5131 5.28487 21.6223L5.39645 21.8209L6.09901 21.7992C7.06765 21.7693 7.53307 21.7086 7.8054 21.5768C8.62926 21.178 8.97093 20.3814 8.79214 19.2761C8.70266 18.7232 8.73389 18.5119 8.95417 18.1793C9.14449 17.892 9.17102 17.6537 9.04071 17.4017C8.96031 17.2463 8.96233 17.2372 9.10055 17.1285C9.38975 16.901 9.46694 16.4315 9.3062 15.8785C9.20567 15.5327 9.23049 15.4869 9.59171 15.3515C10.3628 15.0626 10.7402 14.6174 10.6464 14.1075C10.607 13.8931 10.0893 13.0108 9.29808 11.8095C9.02031 11.3878 8.75658 10.9554 8.71201 10.8487C8.60507 10.5927 8.64928 10.1646 8.82583 9.74667C9.0517 9.212 9.02298 8.80643 8.67378 7.59915C7.97389 5.1792 7.4475 3.8313 6.85331 2.9375C6.56214 2.49952 6.12939 2.11188 6.03596 2.20531ZM17.5934 2.40818C17.0488 2.90595 16.4039 4.12871 15.949 5.52594C15.5586 6.72521 15.1637 8.05784 15.0759 8.47217C14.9498 9.06749 14.9727 9.2608 15.2647 10.067C15.4382 10.5459 15.37 10.773 14.7882 11.654C14.2613 12.4518 13.624 13.486 13.4543 13.8187C13.2335 14.2516 13.3576 14.7472 13.756 15.0233C13.8711 15.103 14.1311 15.2381 14.334 15.3236C14.5635 15.4203 14.7101 15.5147 14.7221 15.5737C14.7329 15.6259 14.6985 15.8418 14.6457 16.0536C14.5635 16.384 14.5595 16.4712 14.6178 16.6695C14.6551 16.7965 14.7571 16.9752 14.8444 17.0667L15.0032 17.233L14.9143 17.505C14.8285 17.7672 14.8292 17.7843 14.9343 17.9793C15.2727 18.607 15.2798 18.6324 15.2323 19.0325C15.2076 19.2399 15.1871 19.6498 15.1865 19.9435C15.1857 20.4178 15.2013 20.5073 15.3264 20.7464C15.496 21.0703 15.8801 21.4368 16.1971 21.577C16.5442 21.7306 16.8608 21.7742 17.767 21.7931L18.5891 21.8103L18.7115 21.6243C18.7789 21.522 18.8354 21.4235 18.8371 21.4055C18.8388 21.3875 18.7336 21.332 18.6033 21.2822C18.0453 21.0691 17.7143 20.4513 17.4002 19.0359C17.2084 18.1716 17.1543 17.772 17.0785 16.6602C17.0455 16.1757 16.9684 15.5631 16.9071 15.2988C16.7527 14.633 16.7542 13.7588 16.9109 13.1158C16.9746 12.8548 17.1624 12.3022 17.3283 11.8879C17.6999 10.9602 17.7203 10.7788 17.5378 10.0216C17.4613 9.70417 17.3987 9.35091 17.3987 9.23651C17.3987 8.97454 17.828 6.88847 18.0352 6.14303C18.121 5.83473 18.3393 5.23413 18.5203 4.80837C18.9134 3.88399 18.9272 3.83343 18.8253 3.68801C18.7501 3.5807 18.7291 3.61476 18.4219 4.33841C17.8186 5.75972 17.7066 6.13695 17.2967 8.12927C17.0598 9.28071 17.0599 9.19572 17.2942 10.1738C17.4366 10.768 17.4178 10.9244 17.1137 11.6744C16.6363 12.8516 16.5222 13.3459 16.5234 14.2311C16.524 14.6953 16.5555 15.0041 16.6377 15.3522C16.7 15.6165 16.7664 16.121 16.7851 16.4734C16.8646 17.9665 17.1438 19.4924 17.5021 20.3916C17.6656 20.8023 17.9632 21.2287 18.1795 21.3624C18.2817 21.4255 18.3548 21.4876 18.3421 21.5004C18.2959 21.5465 17.6054 21.3565 17.3516 21.2279C17.0181 21.0589 16.6842 20.6782 16.5463 20.3097C16.4643 20.0906 16.4378 19.8917 16.4378 19.4975C16.4378 18.8694 16.3663 18.45 16.1866 18.0225C16.0793 17.7674 16.0586 17.6493 16.0835 17.4353C16.1102 17.2073 16.0912 17.1206 15.956 16.8529C15.7636 16.472 15.75 16.1476 15.9056 15.6511C16.0263 15.266 16.022 15.2391 15.752 14.6849C15.5738 14.3191 15.5569 14.2453 15.5578 13.8307C15.559 13.2292 15.6979 12.8098 16.2609 11.7074C16.505 11.2297 16.7047 10.7826 16.7047 10.7139C16.7047 10.6452 16.6041 10.3754 16.4812 10.1144C16.1075 9.32112 16.108 9.31632 16.7812 6.99727C17.3008 5.20738 17.7786 4.00048 18.2854 3.19765C18.3947 3.02447 18.4041 2.97749 18.3474 2.88668C18.3107 2.82785 18.2684 2.7798 18.2534 2.77985C18.1556 2.78017 17.5179 4.03561 17.1687 4.9152C16.9524 5.46006 16.2346 7.82262 16.0252 8.67894C15.8972 9.20261 15.9553 9.66162 16.2173 10.1976C16.3386 10.4457 16.4378 10.6778 16.4378 10.7136C16.4378 10.7493 16.2477 11.147 16.0154 11.5973C15.4571 12.6793 15.2998 13.1665 15.2942 13.8307C15.2901 14.3197 15.2981 14.3553 15.5168 14.8233L15.7438 15.3087L15.633 15.6241C15.4843 16.0473 15.51 16.6341 15.6924 16.9805C15.7871 17.1604 15.8151 17.2887 15.8037 17.4915C15.7927 17.6871 15.8272 17.8574 15.9282 18.1054C16.0915 18.5067 16.1635 18.9602 16.1666 19.6084C16.1702 20.3546 16.4609 20.9776 16.97 21.3304C17.0884 21.4124 17.1852 21.4853 17.1852 21.4924C17.1852 21.4995 17.0711 21.4942 16.9316 21.4806C16.3197 21.4212 15.88 21.1552 15.5966 20.673C15.4638 20.4473 15.4504 20.3763 15.4529 19.9168C15.4545 19.6378 15.4757 19.2266 15.5001 19.003C15.5469 18.5751 15.5269 18.5053 15.1769 17.8712C15.0984 17.7291 15.1021 17.7048 15.2452 17.4219C15.3561 17.2028 15.3782 17.1167 15.3279 17.0999C15.1749 17.0489 14.9465 16.8059 14.8896 16.6336C14.8416 16.4882 14.8464 16.3826 14.9127 16.1238C15.0914 15.4265 15.0254 15.2876 14.4093 15.063C14.2035 14.9879 13.9943 14.8595 13.8452 14.7167C13.4825 14.3691 13.5019 14.2332 14.041 13.3436C14.2789 12.9509 14.6997 12.2835 14.9761 11.8606C15.6924 10.7644 15.7535 10.4872 15.44 9.755C15.1541 9.08719 15.2482 8.56341 16.1436 5.83617C16.6911 4.16838 17.17 3.20956 17.7307 2.65866C18.021 2.37342 18.0385 2.34278 17.9684 2.24268C17.8949 2.13783 17.8839 2.14269 17.5934 2.40818ZM4.56784 4.68804C4.47873 4.85749 4.4813 4.87778 4.68539 5.6223C4.97822 6.69062 5.26469 7.94605 5.36521 8.60196C5.43029 9.0268 5.44022 9.29278 5.40691 9.71997C5.32181 10.8119 5.35683 11.2635 5.59953 12.2024C5.99357 13.7268 6.05288 14.5605 5.89289 16.3257C5.69071 18.5566 5.5431 19.1892 4.98302 20.2251C4.76558 20.6272 4.7438 20.6967 4.79804 20.8156L4.85943 20.9504L4.96583 20.794C5.37819 20.1875 5.80869 19.085 5.94504 18.2864C6.08294 17.479 6.24091 15.6081 6.24091 14.7822C6.24096 13.8208 6.18411 13.3913 5.92065 12.3626C5.63225 11.2366 5.58351 10.8283 5.65943 10.1746C5.72931 9.57257 5.70059 8.91662 5.57187 8.17177C5.49153 7.70725 4.9055 5.32254 4.73221 4.75504L4.65886 4.5148L4.56784 4.68804ZM19.2768 4.7039C19.1811 4.95444 18.7406 6.64316 18.581 7.37097C18.3211 8.55695 18.2827 8.85357 18.3016 9.53312C18.3478 11.1986 18.3418 11.2731 18.0799 12.3092C17.697 13.8234 17.6526 14.4358 17.8002 16.1637C17.969 18.1396 18.1015 18.8621 18.449 19.7022C18.6596 20.2114 19.0329 20.8777 19.1076 20.8777C19.1346 20.8777 19.1809 20.8326 19.2104 20.7774C19.253 20.6977 19.2152 20.5912 19.0273 20.2614C18.4348 19.2216 18.2398 18.3039 18.033 15.581C17.9569 14.5783 18.0176 13.7439 18.2322 12.8431C18.3092 12.5201 18.4291 12.0156 18.4988 11.722C18.6387 11.132 18.6643 10.4627 18.5691 9.88013C18.4683 9.26304 18.65 8.13803 19.1882 6.04774C19.3491 5.42274 19.4808 4.88077 19.4808 4.8434C19.4808 4.80602 19.4466 4.72883 19.4047 4.67181C19.3308 4.57123 19.3271 4.57219 19.2768 4.7039ZM3.83036 5.94289C3.7546 6.10443 3.77024 6.29097 4.05735 8.65225C4.44537 11.8427 4.62176 13.1694 4.72089 13.6424C5.05338 15.2287 4.88575 17.2028 4.25766 19.0969C4.11021 19.5417 4.09868 19.6174 4.16087 19.7336C4.19974 19.8062 4.24896 19.847 4.27031 19.8244C4.43165 19.6536 4.89974 17.9318 5.05007 16.956C5.18925 16.0529 5.17761 14.5106 5.02594 13.7506C4.96151 13.4277 4.84838 12.719 4.77465 12.1757C4.65219 11.2738 3.99874 5.91555 3.99874 5.81316C3.99874 5.71066 3.90563 5.78241 3.83036 5.94289ZM19.9905 5.88731C19.9755 5.95458 19.8173 7.22283 19.6391 8.70563C19.2287 12.1197 19.0714 13.2883 18.9634 13.724C18.9063 13.9543 18.8692 14.4061 18.8531 15.0677C18.8161 16.587 18.9863 17.7001 19.4864 19.2094C19.6057 19.5691 19.7105 19.8634 19.7193 19.8634C19.7282 19.8634 19.7734 19.8054 19.8198 19.7346C19.8988 19.6141 19.8938 19.5753 19.7433 19.134C19.2766 17.7664 19.0783 16.4617 19.1236 15.0586C19.1402 14.5448 19.1788 14.0283 19.2093 13.9108C19.3104 13.522 19.5242 11.9713 19.8819 9.0322C20.1776 6.60248 20.2248 6.10374 20.1714 5.97471C20.0861 5.76885 20.0237 5.73868 19.9905 5.88731ZM2.99267 7.37097C2.90271 7.51143 2.87933 7.61084 2.89834 7.77137C2.91222 7.88882 2.94873 8.63356 2.97948 9.42635C3.04696 11.1667 3.05764 11.2649 3.25074 11.9152C3.56561 12.9756 3.64948 13.6613 3.64831 15.1654C3.64745 16.306 3.62813 16.6479 3.52915 17.2741C3.46418 17.6852 3.39835 18.1056 3.38287 18.2084C3.36248 18.3434 3.38303 18.4311 3.45681 18.5243L3.55894 18.6534L3.62145 18.3642C3.86212 17.2507 3.91391 16.6974 3.91609 15.2188C3.91802 13.9087 3.90488 13.6764 3.794 13.0617C3.72567 12.6829 3.59743 12.1303 3.50902 11.8339C3.35677 11.3231 3.34577 11.2221 3.30012 9.90683C3.27359 9.1434 3.22047 8.21848 3.18208 7.85145L3.11231 7.18412L2.99267 7.37097ZM20.8496 7.45714C20.7612 8.1944 20.7095 9.00481 20.6846 10.0403C20.6588 11.1137 20.6466 11.2238 20.4969 11.7392C20.0727 13.1985 19.9304 14.7488 20.0718 16.3666C20.1294 17.026 20.3595 18.4922 20.4209 18.5915C20.4407 18.6236 20.4966 18.5823 20.5518 18.4947C20.6402 18.3547 20.6422 18.3127 20.5753 17.9949C20.3427 16.8883 20.2388 15.2783 20.3312 14.2117C20.4122 13.2756 20.5094 12.7258 20.7431 11.8821C20.9333 11.1957 20.9359 11.1723 20.9811 9.74667C21.0062 8.95388 21.0424 8.13232 21.0616 7.92091C21.0915 7.58986 21.0814 7.51303 20.9886 7.36644L20.8808 7.19629L20.8496 7.45714ZM2.09492 8.89248C2.00673 9.06375 1.97683 9.25925 1.94379 9.88013C1.88693 10.9477 1.89878 11.1088 2.08104 11.7487C2.40409 12.8828 2.53483 14.0881 2.48363 15.459C2.46495 15.9582 2.4367 16.4507 2.42085 16.5534C2.39955 16.6918 2.42341 16.7888 2.51273 16.9271L2.63343 17.114L2.67278 16.8471C2.6944 16.7002 2.72878 16.0636 2.74917 15.4323C2.80059 13.8401 2.67331 12.706 2.31621 11.5756C2.16593 11.1 2.15183 10.7629 2.2443 9.85942C2.2845 9.46698 2.28808 9.16678 2.25492 8.97256L2.20485 8.67894L2.09492 8.89248ZM21.7508 9.54647C21.8203 10.9016 21.8094 11.1367 21.6548 11.6199C21.2902 12.7598 21.1384 14.2981 21.2368 15.8565C21.2713 16.4026 21.314 16.9045 21.3316 16.972L21.3637 17.0947L21.4554 16.9549C21.5379 16.829 21.5445 16.6757 21.5213 15.4164C21.5007 14.306 21.5137 13.8738 21.5843 13.3205C21.6652 12.6867 21.7284 12.3946 22.017 11.3216C22.0911 11.0461 22.1023 10.8755 22.0718 10.4941C22.0506 10.2298 22.0175 9.7842 21.9983 9.50381C21.9742 9.15312 21.9337 8.94902 21.8686 8.84983C21.8165 8.7705 21.759 8.70563 21.7408 8.70563C21.7226 8.70563 21.7271 9.08404 21.7508 9.54647ZM22.8992 10.8769C22.8983 11.0287 22.8493 11.3559 22.7904 11.6039C22.6105 12.3616 22.521 13.1169 22.4871 14.1644C22.4692 14.715 22.4679 15.1654 22.484 15.1654C22.5001 15.1654 22.5637 15.0799 22.6253 14.9755C22.7111 14.8301 22.7374 14.6956 22.7374 14.4016C22.7375 13.6087 22.8801 12.4176 23.0624 11.6864C23.1939 11.1589 23.1909 11.0718 23.0324 10.8144L22.9008 10.6008L22.8992 10.8769ZM0.918449 10.8761C0.806124 11.077 0.804363 11.1009 0.876861 11.4307C1.05747 12.2519 1.16643 13.0068 1.21933 13.8031C1.25051 14.2724 1.27614 14.6929 1.2763 14.7374C1.27646 14.7819 1.33807 14.9145 1.41323 15.0319L1.54985 15.2455L1.51947 14.3345C1.48306 13.2428 1.43037 12.7787 1.22286 11.722C1.13643 11.2815 1.05896 10.8638 1.05074 10.7937C1.03713 10.6775 1.02533 10.6848 0.918449 10.8761ZM0.0863693 12.2774C-0.0329493 12.4793 -0.0292656 12.6143 0.101317 12.8284L0.20793 13.0032L0.20809 12.5628C0.208197 12.3206 0.20147 12.1224 0.193142 12.1224C0.18476 12.1224 0.136713 12.1921 0.0863693 12.2774ZM23.7535 12.5361C23.7525 12.7783 23.7617 12.9765 23.774 12.9765C23.7863 12.9765 23.8488 12.8917 23.9129 12.788C24.0429 12.5776 24.0288 12.4241 23.8609 12.2225L23.7553 12.0957L23.7535 12.5361Z" fill="#5179A7"/>
</svg>
