<svg width="24" height="24" viewBox="0 0 24 24" fill="none" xmlns="http://www.w3.org/2000/svg">
<path d="M1.4091 9.35555C0.942158 8.54676 1.21926 7.51257 2.02802 7.04562L9.34998 2.81817C10.1587 2.35122 11.1929 2.62833 11.6598 3.43711L17.5781 13.6881C18.0451 14.4969 17.768 15.5311 16.9592 15.9981L9.63723 20.2255C8.82847 20.6925 7.79431 20.4154 7.32737 19.6066L1.4091 9.35555Z" fill="#FF8C00"/>
<path fill-rule="evenodd" clip-rule="evenodd" d="M9.56135 3.18428L2.23939 7.41173C1.63282 7.76194 1.42499 8.53759 1.77519 9.14417L7.69347 19.3952C8.04367 20.0018 8.81929 20.2096 9.42586 19.8594L16.7478 15.632C17.3544 15.2817 17.5622 14.5061 17.212 13.8995L11.2937 3.64848C10.9435 3.0419 10.1679 2.83406 9.56135 3.18428ZM2.02802 7.04562C1.21926 7.51257 0.942158 8.54676 1.4091 9.35555L7.32737 19.6066C7.79431 20.4154 8.82847 20.6925 9.63723 20.2255L16.9592 15.9981C17.768 15.5311 18.0451 14.4969 17.5781 13.6881L11.6598 3.43711C11.1929 2.62833 10.1587 2.35122 9.34998 2.81817L2.02802 7.04562Z" fill="#000072"/>
<path fill-rule="evenodd" clip-rule="evenodd" d="M4.52231 11.789C4.46394 11.6879 4.49858 11.5586 4.59968 11.5003L11.9216 7.27282C12.0227 7.21445 12.152 7.24909 12.2104 7.35019C12.2687 7.45128 12.2341 7.58056 12.133 7.63893L4.81104 11.8664C4.70995 11.9247 4.58068 11.8901 4.52231 11.789Z" fill="#000072"/>
<path fill-rule="evenodd" clip-rule="evenodd" d="M5.6496 13.7412C5.59123 13.6401 5.62587 13.5108 5.72696 13.4524L13.0489 9.22497C13.15 9.1666 13.2793 9.20124 13.3377 9.30233C13.396 9.40343 13.3614 9.53271 13.2603 9.59107L5.93833 13.8185C5.83724 13.8769 5.70797 13.8423 5.6496 13.7412Z" fill="#000072"/>
<path fill-rule="evenodd" clip-rule="evenodd" d="M6.77689 15.6938C6.71852 15.5927 6.75316 15.4634 6.85425 15.4051L14.1762 11.1776C14.2773 11.1192 14.4066 11.1539 14.4649 11.255C14.5233 11.3561 14.4887 11.4853 14.3876 11.5437L7.06562 15.7712C6.96452 15.8295 6.83525 15.7949 6.77689 15.6938Z" fill="#000072"/>
<path d="M4.45115 9.55183C3.98421 8.74305 4.26131 7.70886 5.07007 7.24191L13.6124 2.30988C14.4211 1.84293 15.4553 2.12004 15.9222 2.92883L22.686 14.6443C23.1529 15.4531 22.8758 16.4873 22.067 16.9542L13.5247 21.8862C12.716 22.3532 11.6818 22.0761 11.2149 21.2673L4.45115 9.55183Z" fill="white"/>
<path fill-rule="evenodd" clip-rule="evenodd" d="M13.8237 2.67599L5.28144 7.60802C4.67487 7.95823 4.46704 8.73387 4.81725 9.34046L11.581 21.0559C11.9312 21.6625 12.7068 21.8703 13.3134 21.5201L21.8557 16.5881C22.4622 16.2379 22.6701 15.4622 22.3199 14.8557L15.5561 3.1402C15.2059 2.53361 14.4303 2.32578 13.8237 2.67599ZM5.07007 7.24191C4.26131 7.70886 3.98421 8.74305 4.45115 9.55183L11.2149 21.2673C11.6818 22.0761 12.716 22.3532 13.5247 21.8862L22.067 16.9542C22.8758 16.4873 23.1529 15.4531 22.686 14.6443L15.9222 2.92883C15.4553 2.12004 14.4211 1.84293 13.6124 2.30988L5.07007 7.24191Z" fill="#000072"/>
<ellipse cx="0.845473" cy="0.845484" rx="0.845473" ry="0.845484" transform="matrix(0.86602 -0.50001 0.49999 0.866031 19.2967 14.9741)" fill="#FF1E97"/>
<path d="M17.0949 10.7034L17.8517 10.3152C17.9743 10.2416 18.0493 10.109 18.0493 9.96595C18.0493 9.8229 17.9743 9.69033 17.8517 9.61665L14.7857 8.0254C14.6698 7.96663 14.5328 7.96663 14.417 8.0254L13.2138 8.64638L12.0689 8.006C11.953 7.94722 11.8161 7.94722 11.7002 8.006L8.65353 9.65546C8.52134 9.72395 8.43997 9.86202 8.44411 10.0108C8.44824 10.1597 8.53714 10.293 8.67294 10.3541L9.33272 10.7034L8.59532 11.0915C8.45952 11.1525 8.37062 11.2858 8.36648 11.4347C8.36235 11.5835 8.44372 11.7216 8.57591 11.7901L9.66262 12.3528V14.3516L13.1944 16.2339L16.7456 14.3516V12.3722L17.8711 11.7707C18.0015 11.6961 18.0803 11.556 18.0763 11.4058C18.0722 11.2557 17.9859 11.12 17.8517 11.0527L17.0949 10.7034ZM13.4855 15.4771V12.8962L14.4752 13.4201C14.591 13.4789 14.728 13.4789 14.8439 13.4201L16.2023 12.6633V14.0217L13.4855 15.4771ZM13.1944 12.1394L10.5165 10.7034L13.1944 9.28676L15.8918 10.7034L13.4855 12.0035L13.1944 12.1394ZM13.796 12.4498L16.4933 11.0138L17.3472 11.4214L14.6498 12.8962L13.796 12.4498ZM17.3278 9.96595L16.4933 10.3929L13.796 8.97627L14.5916 8.54935L17.3278 9.96595ZM12.9227 12.9156V15.4771L10.206 14.0217V12.6633L11.642 13.4395C11.7595 13.4995 11.9001 13.4921 12.0107 13.4201L12.9227 12.9156ZM12.6316 12.4692L11.8166 12.9156L9.09986 11.4408L9.93429 11.0138L12.6316 12.4692ZM11.8748 8.52994L12.6316 8.95686L9.91489 10.3929L9.17748 10.0048L11.8748 8.52994Z" fill="#000072"/>
</svg>
