<svg width="24" height="24" viewBox="0 0 24 24" fill="none" xmlns="http://www.w3.org/2000/svg">
<path d="M12.0813 1.86562C12.0906 1.95 12.1281 2.08437 12.1594 2.17187C12.1938 2.25625 12.2188 2.3375 12.2188 2.35C12.2188 2.40625 12.1344 2.36562 11.9781 2.225C11.8844 2.14375 11.7281 2.025 11.6313 1.95937C11.2406 1.7 11.2188 1.87187 11.5469 2.60937C11.6375 2.81562 11.7625 3.08125 11.8219 3.20312C12.1313 3.83437 12.2125 4.0625 12.1281 4.0625C12.1063 4.0625 11.8563 3.83125 11.5688 3.55C11.2813 3.26875 10.9969 2.99687 10.9375 2.94687C10.7875 2.81562 10.5063 2.64375 10.3781 2.6C10.175 2.53125 9.90625 2.56875 9.90625 2.66562C9.90625 2.6875 9.99375 2.80937 10.0969 2.9375C10.325 3.21562 10.375 3.32187 10.375 3.52187C10.375 3.77187 10.3438 3.775 10.1344 3.54062C9.91875 3.29687 9.69688 3.1625 9.47188 3.13437C9.33125 3.11875 9.31563 3.125 9.26563 3.2C9.21563 3.27812 9.21563 3.2875 9.30313 3.475C9.44063 3.76562 9.8875 4.2875 10.4469 4.80312C10.5625 4.90937 10.6563 5.0125 10.6563 5.02812C10.6563 5.06875 10.4 4.97812 10.0469 4.8125C9.525 4.56875 9.01563 4.37187 8.86875 4.35312C8.72188 4.33437 8.71875 4.3375 8.675 4.4375C8.62813 4.55 8.65313 4.68437 8.7375 4.75312C8.82813 4.82812 8.78438 4.85312 8.59688 4.83125C8.46563 4.81562 8.40625 4.82187 8.38438 4.85C8.36563 4.87187 8.34375 5.02187 8.33125 5.18125C8.32188 5.34062 8.3 5.5 8.28125 5.53125C8.2625 5.56562 8.19375 5.60625 8.12813 5.625C7.9375 5.675 7.89375 5.75 7.87813 6.03437C7.86875 6.25937 7.875 6.29687 7.94688 6.40312C7.99063 6.46875 8.14375 6.60625 8.2875 6.70625C8.70313 6.99687 8.8 7.07812 8.94688 7.24375C9.14063 7.4625 9.20313 7.63437 9.175 7.89687C9.14688 8.16562 9.11563 8.21875 8.99375 8.21875C8.9125 8.21875 8.85938 8.18437 8.71875 8.0375C8.62188 7.9375 8.4625 7.74375 8.36563 7.60937C8.26875 7.47187 8.04063 7.15625 7.85938 6.90625C7.31875 6.15937 7.07188 5.60937 6.82813 4.63125C6.77188 4.39375 6.64375 3.89375 6.54688 3.51562C6.45 3.1375 6.3375 2.69687 6.3 2.5375C6.2625 2.37812 6.21875 2.24375 6.20313 2.24062C6.15625 2.23125 6.13125 2.525 6.13125 3.125C6.12813 3.71562 6.14688 3.93437 6.24375 4.34375C6.33438 4.7375 6.34688 4.8125 6.30938 4.8125C6.27188 4.8125 6.21563 4.68125 5.98125 4.06875C5.38125 2.48437 5.34688 2.39687 5.29063 2.3375C5.2625 2.30625 5.20625 2.28125 5.16563 2.28125C5.025 2.28125 5.06563 2.49062 5.40938 3.5125C5.60625 4.10312 5.73125 4.52187 5.74063 4.64062L5.75938 4.82812L5.66875 4.74375C5.57813 4.65937 5.50938 4.55 5.02188 3.71875C4.42813 2.7 4.35625 2.58437 4.275 2.49062L4.19063 2.39062L4.1875 2.47812C4.18438 2.74062 4.74688 3.96875 5.31875 4.95625C5.68438 5.58125 5.775 5.78437 5.69688 5.78125C5.65313 5.77812 5.58438 5.70937 5.2375 5.32812C4.70313 4.7375 4.41875 4.45312 4.02188 4.10312C3.66563 3.7875 3.4625 3.65312 3.41563 3.69687C3.40313 3.70937 3.4375 3.82812 3.49375 3.9625C3.54688 4.09375 3.6 4.22812 3.6125 4.25625C3.62813 4.30312 3.6125 4.30937 3.4875 4.30625C3.40938 4.30312 3.3375 4.30937 3.32188 4.32187C3.30938 4.33437 3.31875 4.4125 3.34375 4.49375C3.36563 4.575 3.39375 4.7375 3.40625 4.85937C3.41875 4.97812 3.45313 5.12812 3.48125 5.1875C3.54375 5.30937 3.85 5.72812 3.95 5.83125C3.9875 5.86875 4.0625 5.96562 4.11875 6.04375C4.20313 6.1625 4.21563 6.19062 4.175 6.20625C4.15 6.21562 3.925 6.13437 3.68125 6.02187C3.43438 5.90937 3.19063 5.80937 3.13438 5.79687C3.0125 5.77187 2.90625 5.825 2.90625 5.9125C2.90625 6.10625 3.25938 6.5375 3.6 6.75937C3.7 6.825 3.78125 6.89062 3.78125 6.90937C3.78125 6.925 3.71875 6.9375 3.64375 6.9375C3.56563 6.9375 3.49375 6.95 3.48438 6.96875C3.475 6.98437 3.425 7 3.37813 7C3.23125 7 3.09375 7.0625 3.09375 7.12812C3.09375 7.20312 3.23438 7.29062 3.49063 7.37812C3.6 7.4125 3.69375 7.45312 3.70313 7.46875C3.73125 7.51562 3.61875 7.55625 3.34688 7.60312C3.20625 7.62812 3.075 7.6625 3.05313 7.68437C2.95625 7.78125 3.25625 8.06562 3.76875 8.36562C4.14688 8.5875 4.14688 8.64687 3.76875 8.53125L3.5625 8.46562L3.42188 8.55C3.11563 8.72812 3.28438 8.88125 4.01563 9.09375C4.20313 9.15 4.4 9.21562 4.45313 9.24375L4.54688 9.29375L4.35 9.31875C3.90938 9.36875 3.57188 9.55937 3.775 9.64062C4.00313 9.73437 4.23125 9.79687 4.60938 9.875C5.27188 10.0125 5.375 10.0375 5.375 10.0625C5.375 10.0937 5.25625 10.125 5.12188 10.125C4.9 10.125 4.53125 10.2719 4.53125 10.3562C4.53125 10.4031 4.74063 10.5062 4.975 10.575C5.07188 10.6031 5.1625 10.6406 5.175 10.6625C5.1875 10.6812 5.14375 10.7437 5.06563 10.8094C4.85313 10.9937 4.87813 11.0125 5.39063 11.0469C5.5625 11.0594 5.72813 11.075 5.75625 11.0812C5.825 11.1 5.82813 11.1656 5.76563 11.2187C5.74063 11.2406 5.71875 11.2781 5.71875 11.3031C5.71875 11.3562 5.93438 11.4531 6.20625 11.5187C6.42188 11.575 6.46563 11.6375 6.31563 11.6719C6.21875 11.6937 6.09375 11.7937 6.09375 11.8531C6.09688 11.975 6.28438 12.0469 6.52813 12.0187C6.74688 11.9937 6.875 12.0187 6.875 12.0875C6.875 12.1156 6.825 12.1906 6.7625 12.2531C6.7 12.3187 6.65938 12.3844 6.66875 12.4031C6.70625 12.4594 6.89375 12.475 7.1375 12.4375C7.425 12.3937 7.6125 12.425 8 12.5844C8.35625 12.7312 8.65625 12.8969 9.125 13.2031C9.59688 13.5125 9.74063 13.6312 9.925 13.8562C10.2156 14.2125 10.3 14.5562 10.2719 15.2344C10.2281 16.2625 9.76563 17.2781 8.13438 19.9531C8.08125 20.0375 7.9375 20.2781 7.8125 20.4844C7.6875 20.6906 7.5375 20.9281 7.48125 21.0156C7.425 21.1 7.28125 21.3281 7.16563 21.5219C6.86875 22.0062 6.49688 22.6 6.45 22.6562C6.43125 22.6812 6.37813 22.7687 6.33125 22.85L6.25 23H6.35313C6.44688 23 6.49375 22.9562 6.83438 22.5687C7.04375 22.3344 7.29063 22.0344 7.3875 21.9062C7.48438 21.7781 7.67188 21.525 7.80625 21.3469C8.20313 20.8094 8.3125 20.7219 8.3125 20.9375C8.3125 20.9844 8.25625 21.1906 8.1875 21.3969C8.05938 21.7781 8.04375 21.8437 8.0875 21.8437C8.1 21.8437 8.30625 21.6875 8.54688 21.5C8.78438 21.3094 8.99063 21.1656 9.00313 21.1781C9.01875 21.1937 9.04063 21.3719 9.05313 21.575C9.06875 21.825 9.09063 21.9531 9.11563 21.9594C9.18125 21.9812 9.45 21.6781 9.56563 21.4562C9.625 21.3437 9.6875 21.25 9.70313 21.25C9.72188 21.25 9.76563 21.3 9.80625 21.3594C9.87813 21.475 10.0656 21.6094 10.1969 21.6406C10.2938 21.6656 10.375 21.5875 10.375 21.4656C10.375 21.4156 10.3813 21.375 10.3875 21.375C10.3969 21.375 10.4719 21.4187 10.5594 21.4719C10.6469 21.525 10.7375 21.5625 10.7625 21.5531C10.8406 21.5219 10.8563 21.2875 10.85 20.2812C10.8406 19.3125 10.8406 19.2937 10.9188 19.0312C11.075 18.4906 11.3125 18.0281 11.5031 17.8906C11.6281 17.7969 11.6281 17.7969 11.7125 17.875C11.7656 17.925 11.7813 17.975 11.7813 18.0875C11.7813 18.2656 11.8625 18.4375 11.9688 18.4906C12.075 18.5437 12.3563 18.5406 12.5781 18.4812C12.7656 18.4344 12.8125 18.4125 13.2688 18.1437C13.575 17.9656 13.7906 17.9281 14.0125 18.0125C14.1438 18.0625 14.3438 18.2437 14.3438 18.3125C14.3438 18.3312 14.3594 18.3437 14.375 18.3437C14.3938 18.3437 14.4063 18.3219 14.4063 18.2969C14.4063 18.2719 14.4781 18.1094 14.5688 17.9375C14.85 17.3844 15.1531 17.15 15.6438 17.1031C16.0125 17.0687 15.9875 16.9906 15.5938 16.9469C15.4656 16.9344 15.2406 16.9219 15.0938 16.9219C14.8469 16.9219 14.8156 16.9281 14.6719 17.0219C14.3 17.2594 14.1281 17.3219 13.825 17.3375C13.5313 17.35 13.4063 17.3187 13.4063 17.2344C13.4063 17.1844 13.6813 17.0344 13.8906 16.9687C14.2188 16.8656 14.9969 16.5219 15.6875 16.1812C16.4188 15.8156 16.8938 15.5 17.3188 15.0969C17.5438 14.8844 17.6281 14.775 17.7875 14.4937C18 14.1219 18.2438 13.8406 18.4719 13.7094C18.6656 13.5969 19.0594 13.5 19.3438 13.5C19.475 13.5 19.7625 13.5344 19.9844 13.5781C20.5031 13.6781 20.5313 13.6781 20.5313 13.5781C20.5313 13.4687 20.425 13.2187 20.2844 12.9906C20.1 12.6969 20 12.4937 20 12.4156C20 11.9469 19.6125 11.4906 19.0656 11.325C18.65 11.1937 18.3656 11.2219 17.0313 11.525C16.2594 11.7031 16.0656 11.6875 15.8344 11.4406C15.7563 11.3562 15.675 11.2344 15.6563 11.1687C15.5906 10.9562 15.5813 10.1531 15.6406 9.55937C15.7031 8.925 15.6906 8.77812 15.5469 8.32187C15.4188 7.92187 15.3438 7.79375 15 7.42187C14.7938 7.19687 14.7125 7.08125 14.6 6.84375C14.4344 6.4875 14.2813 6.08125 14.1344 5.59375C13.9188 4.875 13.35 3.19687 13.2188 2.89062C12.9594 2.28125 12.7125 1.94062 12.4313 1.8C12.3406 1.75625 12.2219 1.71875 12.1625 1.71875H12.0594L12.0813 1.86562Z" fill="black"/>
<path d="M15.5094 17.3376C15.1813 17.4532 14.9281 17.6907 14.8094 17.9876C14.7531 18.1313 14.7375 18.2345 14.7344 18.4532C14.7344 18.7063 14.7438 18.7563 14.8344 18.9438C14.9625 19.2188 15.1938 19.4407 15.45 19.5376C15.7094 19.6345 16.0938 19.6345 16.3531 19.5345C16.5844 19.4438 16.8313 19.2032 16.9563 18.9532C17.0375 18.7845 17.0469 18.7345 17.0469 18.4532C17.0469 18.1813 17.0375 18.1188 16.9656 17.9688C16.8438 17.7126 16.6563 17.5188 16.4125 17.4001C16.2344 17.3126 16.1656 17.297 15.9375 17.2876C15.7406 17.2813 15.6281 17.297 15.5094 17.3376Z" fill="#CC5742"/>
</svg>
