<svg width="24" height="24" viewBox="0 0 24 24" fill="none" xmlns="http://www.w3.org/2000/svg">
<path d="M1.40913 9.35567C0.942188 8.54688 1.21929 7.5127 2.02805 7.04574L9.35001 2.81829C10.1588 2.35134 11.1929 2.62845 11.6599 3.43723L17.5781 13.6883C18.0451 14.497 17.768 15.5312 16.9592 15.9982L9.63726 20.2256C8.8285 20.6926 7.79434 20.4155 7.3274 19.6067L1.40913 9.35567Z" fill="#A21DF7"/>
<path fill-rule="evenodd" clip-rule="evenodd" d="M9.56138 3.1844L2.23942 7.41185C1.63285 7.76207 1.42502 8.53771 1.77523 9.14429L7.6935 19.3953C8.0437 20.0019 8.81932 20.2097 9.42589 19.8595L16.7479 15.6321C17.3544 15.2819 17.5623 14.5062 17.212 13.8996L11.2938 3.64861C10.9436 3.04202 10.168 2.83419 9.56138 3.1844ZM2.02805 7.04574C1.21929 7.5127 0.942188 8.54688 1.40913 9.35567L7.3274 19.6067C7.79434 20.4155 8.8285 20.6926 9.63726 20.2256L16.9592 15.9982C17.768 15.5312 18.0451 14.497 17.5781 13.6883L11.6599 3.43723C11.1929 2.62845 10.1588 2.35134 9.35001 2.81829L2.02805 7.04574Z" fill="#000072"/>
<path fill-rule="evenodd" clip-rule="evenodd" d="M4.52231 11.7888C4.46394 11.6877 4.49858 11.5585 4.59968 11.5001L11.9216 7.27264C12.0227 7.21427 12.152 7.24891 12.2104 7.35C12.2687 7.4511 12.2341 7.58037 12.133 7.63874L4.81104 11.8662C4.70995 11.9246 4.58068 11.8899 4.52231 11.7888Z" fill="#000072"/>
<path fill-rule="evenodd" clip-rule="evenodd" d="M5.64957 13.7414C5.5912 13.6403 5.62584 13.511 5.72693 13.4526L13.0489 9.22518C13.15 9.16681 13.2793 9.20145 13.3376 9.30255C13.396 9.40365 13.3614 9.53292 13.2603 9.59129L5.9383 13.8187C5.8372 13.8771 5.70793 13.8425 5.64957 13.7414Z" fill="#000072"/>
<path fill-rule="evenodd" clip-rule="evenodd" d="M6.77689 15.6939C6.71852 15.5929 6.75316 15.4636 6.85425 15.4052L14.1762 11.1778C14.2773 11.1194 14.4066 11.154 14.4649 11.2551C14.5233 11.3562 14.4887 11.4855 14.3876 11.5439L7.06562 15.7713C6.96452 15.8297 6.83525 15.795 6.77689 15.6939Z" fill="#000072"/>
<path d="M4.45112 9.55193C3.98418 8.74314 4.26128 7.70895 5.07004 7.242L13.6123 2.30998C14.4211 1.84302 15.4553 2.12013 15.9222 2.92892L22.6859 14.6444C23.1529 15.4532 22.8758 16.4873 22.067 16.9543L13.5247 21.8863C12.716 22.3533 11.6818 22.0762 11.2149 21.2674L4.45112 9.55193Z" fill="white"/>
<path fill-rule="evenodd" clip-rule="evenodd" d="M13.8237 2.67608L5.28141 7.60811C4.67484 7.95833 4.46701 8.73397 4.81722 9.34055L11.581 21.056C11.9312 21.6626 12.7068 21.8704 13.3134 21.5202L21.8556 16.5882C22.4622 16.238 22.67 15.4623 22.3198 14.8557L15.5561 3.14029C15.2059 2.5337 14.4303 2.32587 13.8237 2.67608ZM5.07004 7.242C4.26128 7.70895 3.98418 8.74314 4.45112 9.55193L11.2149 21.2674C11.6818 22.0762 12.716 22.3533 13.5247 21.8863L22.067 16.9543C22.8758 16.4873 23.1529 15.4532 22.6859 14.6444L15.9222 2.92892C15.4553 2.12013 14.4211 1.84302 13.6123 2.30998L5.07004 7.242Z" fill="#000072"/>
<ellipse rx="0.845473" ry="0.845484" transform="matrix(0.86602 -0.50001 0.49999 0.866031 20.4516 15.2835)" fill="#FF1E97"/>
<path d="M13.9841 8.02736H12.8804C12.6548 8.03787 12.4744 8.21832 12.4639 8.44385V15.3992C12.4639 15.6293 12.6503 15.8157 12.8804 15.8157H13.9841C14.1011 15.8199 14.2145 15.7745 14.2964 15.6908C14.3673 15.6106 14.4046 15.5062 14.4005 15.3992V8.44385C14.4046 8.3369 14.3673 8.2325 14.2964 8.15231C14.2145 8.06858 14.1011 8.02323 13.9841 8.02736ZM13.7966 8.63127V9.31848H13.0678V8.63127H13.7966ZM13.047 15.2118V9.94322H13.7758V15.2118H13.047Z" fill="#000072"/>
<path d="M16.2748 8.02736H15.1711C14.9455 8.03787 14.7651 8.21832 14.7546 8.44385V15.3992C14.7546 15.6293 14.941 15.8157 15.1711 15.8157H16.2748C16.3918 15.8199 16.5052 15.7745 16.5871 15.6908C16.658 15.6106 16.6953 15.5062 16.6913 15.3992V8.44385C16.6953 8.3369 16.658 8.2325 16.5871 8.15231C16.5052 8.06858 16.3918 8.02323 16.2748 8.02736ZM16.0873 8.63127V9.31848H15.3585V8.63127H16.0873ZM15.3377 15.2118V9.94322H16.0665V15.2118H15.3377Z" fill="#000072"/>
<path d="M11.6517 7.9857H10.5271C10.4101 7.98157 10.2967 8.02693 10.2148 8.11065C10.1472 8.20077 10.1107 8.31037 10.1107 8.42302V15.3784C10.1122 15.4883 10.1571 15.5931 10.2356 15.6699C10.3125 15.7484 10.4173 15.7933 10.5271 15.7949H11.6517C11.8817 15.7949 12.0682 15.6084 12.0682 15.3784V8.42302C12.0723 8.30596 12.0269 8.19257 11.9432 8.11065C11.8663 8.03218 11.7615 7.98727 11.6517 7.9857ZM11.4642 8.58961V9.3393H10.7146V8.58961H11.4642ZM10.7146 15.191V9.94321H11.4642V15.191H10.7146Z" fill="#000072"/>
</svg>
