<svg width="24" height="24" viewBox="0 0 24 24" fill="none" xmlns="http://www.w3.org/2000/svg">
<path fill-rule="evenodd" clip-rule="evenodd" d="M11.3455 3.23799C11.3455 3.11869 11.4423 3.02197 11.5616 3.02197H14.4534C14.5727 3.02197 14.6694 3.11869 14.6694 3.23799V6.12985C14.6694 6.24916 14.5727 6.34587 14.4534 6.34587H11.5616C11.4423 6.34587 11.3455 6.24916 11.3455 6.12985V3.23799ZM12.6416 4.10206C12.5223 4.10206 12.4256 4.19877 12.4256 4.31807V5.04977C12.4256 5.16907 12.5223 5.26579 12.6416 5.26579H13.3733C13.4926 5.26579 13.5894 5.16907 13.5894 5.04977V4.31807C13.5894 4.19877 13.4926 4.10206 13.3733 4.10206H12.6416Z" fill="#CBC7C5"/>
<path fill-rule="evenodd" clip-rule="evenodd" d="M11.3455 3.23799C11.3455 3.11869 11.4422 3.02197 11.5615 3.02197H14.4534C14.5727 3.02197 14.6694 3.11869 14.6694 3.23799V6.12985C14.6694 6.24916 14.5727 6.34587 14.4534 6.34587H11.5615C11.4422 6.34587 11.3455 6.24916 11.3455 6.12985V3.23799ZM12.6416 4.10206C12.5223 4.10206 12.4256 4.19877 12.4256 4.31807V5.04977C12.4256 5.16907 12.5223 5.26579 12.6416 5.26579H13.3733C13.4926 5.26579 13.5893 5.16907 13.5893 5.04977V4.31807C13.5893 4.19877 13.4926 4.10206 13.3733 4.10206H12.6416Z" fill="#CBC7C5"/>
<path fill-rule="evenodd" clip-rule="evenodd" d="M1.24094 12.2527C1.13053 12.2075 1.07764 12.0814 1.12282 11.971L2.218 9.29451C2.26318 9.18409 2.38931 9.1312 2.49973 9.17639L5.1762 10.2716C5.28661 10.3167 5.3395 10.4429 5.29432 10.5533L4.19914 13.2298C4.15396 13.3402 4.02783 13.3931 3.91741 13.3479L1.24094 12.2527ZM2.53149 11.3804C2.48631 11.4908 2.5392 11.6169 2.64961 11.6621L3.32681 11.9392C3.43723 11.9844 3.56336 11.9315 3.60855 11.8211L3.88564 11.1439C3.93083 11.0335 3.87794 10.9073 3.76752 10.8622L3.09033 10.5851C2.97991 10.5399 2.85377 10.5928 2.80859 10.7032L2.53149 11.3804Z" fill="#CBC7C5"/>
<path fill-rule="evenodd" clip-rule="evenodd" d="M4.76439 6.34862C4.69618 6.25074 4.72024 6.1161 4.81812 6.04789L7.19079 4.39461C7.28868 4.32641 7.42332 4.35047 7.49152 4.44835L9.1448 6.82102C9.21301 6.9189 9.18895 7.05354 9.09106 7.12175L6.7184 8.77503C6.62051 8.84323 6.48587 8.81917 6.41767 8.72129L4.76439 6.34862ZM6.32178 6.31658C6.22389 6.38478 6.19984 6.51942 6.26804 6.61731L6.68635 7.21764C6.75456 7.31552 6.8892 7.33958 6.98708 7.27137L7.58741 6.85306C7.68529 6.78486 7.70935 6.65021 7.64115 6.55233L7.22284 5.952C7.15463 5.85412 7.01999 5.83006 6.92211 5.89827L6.32178 6.31658Z" fill="#CBC7C5"/>
<path fill-rule="evenodd" clip-rule="evenodd" d="M20.9588 15.2333C20.9588 19.6248 17.3989 23.1847 13.0074 23.1847C8.61593 23.1847 5.05595 19.6248 5.05595 15.2333C5.05595 10.8418 8.61593 7.28185 13.0074 7.28185C17.3989 7.28185 20.9588 10.8418 20.9588 15.2333ZM17.7186 15.2333C17.7186 17.8352 15.6093 19.9445 13.0074 19.9445C10.4055 19.9445 8.2962 17.8352 8.2962 15.2333C8.2962 12.6314 10.4055 10.5221 13.0074 10.5221C15.6093 10.5221 17.7186 12.6314 17.7186 15.2333ZM12.6417 8.40647C12.5224 8.40647 12.4257 8.50318 12.4257 8.62249V9.35418C12.4257 9.47348 12.5224 9.5702 12.6417 9.5702H13.3734C13.4927 9.5702 13.5894 9.47348 13.5894 9.35418V8.62249C13.5894 8.50318 13.4927 8.40647 13.3734 8.40647H12.6417ZM12.6417 20.8824C12.5224 20.8824 12.4257 20.9791 12.4257 21.0984V21.8301C12.4257 21.9494 12.5224 22.0461 12.6417 22.0461H13.3734C13.4927 22.0461 13.5894 21.9494 13.5894 21.8301V21.0984C13.5894 20.9791 13.4927 20.8824 13.3734 20.8824H12.6417ZM17.2657 10.1453C17.3501 10.0609 17.4868 10.0609 17.5712 10.1453L18.0886 10.6626C18.1729 10.747 18.1729 10.8838 18.0886 10.9681L17.5712 11.4855C17.4868 11.5699 17.3501 11.5699 17.2657 11.4855L16.7483 10.9681C16.664 10.8838 16.664 10.747 16.7483 10.6626L17.2657 10.1453ZM8.7494 18.9671C8.66504 18.8827 8.52827 18.8827 8.44391 18.9671L7.92652 19.4844C7.84216 19.5688 7.84216 19.7056 7.92652 19.7899L8.44391 20.3073C8.52827 20.3917 8.66504 20.3917 8.7494 20.3073L9.26679 19.7899C9.35115 19.7056 9.35115 19.5688 9.26679 19.4844L8.7494 18.9671ZM19.6113 14.6444C19.7306 14.6444 19.8274 14.7411 19.8274 14.8604V15.5921C19.8274 15.7114 19.7306 15.8082 19.6113 15.8082H18.8796C18.7603 15.8082 18.6636 15.7114 18.6636 15.5921V14.8604C18.6636 14.7411 18.7603 14.6444 18.8796 14.6444H19.6113ZM7.35145 14.8604C7.35145 14.7411 7.25473 14.6444 7.13543 14.6444H6.40374C6.28443 14.6444 6.18772 14.7411 6.18772 14.8604V15.5921C6.18772 15.7114 6.28443 15.8082 6.40374 15.8082H7.13543C7.25473 15.8082 7.35145 15.7114 7.35145 15.5921V14.8604ZM18.0886 19.4845C18.173 19.5688 18.173 19.7056 18.0886 19.79L17.5712 20.3073C17.4869 20.3917 17.3501 20.3917 17.2657 20.3073L16.7483 19.79C16.664 19.7056 16.664 19.5688 16.7483 19.4845L17.2657 18.9671C17.3501 18.8827 17.4869 18.8827 17.5712 18.9671L18.0886 19.4845ZM9.26681 10.9682C9.35117 10.8838 9.35117 10.747 9.26681 10.6627L8.74943 10.1453C8.66507 10.0609 8.52829 10.0609 8.44393 10.1453L7.92654 10.6627C7.84218 10.747 7.84219 10.8838 7.92654 10.9682L8.44393 11.4855C8.52829 11.5699 8.66507 11.5699 8.74943 11.4855L9.26681 10.9682Z" fill="#E7368A"/>
<path d="M13.6425 1.45051C13.6425 1.80126 13.3582 2.08559 13.0074 2.08559C12.6567 2.08559 12.3724 1.80126 12.3724 1.45051C12.3724 1.09977 12.6567 0.81543 13.0074 0.81543C13.3582 0.81543 13.6425 1.09977 13.6425 1.45051Z" fill="#E7368A"/>
<path d="M11.5124 1.83023C11.5124 2.18097 11.2281 2.46531 10.8773 2.46531C10.5266 2.46531 10.2423 2.18097 10.2423 1.83023C10.2423 1.47948 10.5266 1.19515 10.8773 1.19515C11.2281 1.19515 11.5124 1.47948 11.5124 1.83023Z" fill="#E7368A"/>
<path d="M15.7725 1.83024C15.7725 2.18098 15.4882 2.46532 15.1374 2.46532C14.7867 2.46532 14.5023 2.18098 14.5023 1.83024C14.5023 1.47949 14.7867 1.19516 15.1374 1.19516C15.4882 1.19516 15.7725 1.47949 15.7725 1.83024Z" fill="#E7368A"/>
</svg>
