<svg width="24" height="24" viewBox="0 0 24 24" fill="none" xmlns="http://www.w3.org/2000/svg">
<path d="M4.78661 4.79V19.2119H19.2315V4.79H4.78661ZM12.0093 18.8624C10.6387 18.8718 9.29611 18.4773 8.15189 17.729C7.00767 16.9807 6.11334 15.9123 5.5823 14.6594C5.05126 13.4064 4.90744 12.0252 5.16908 10.6911C5.43073 9.35696 6.08604 8.12992 7.05192 7.16559C8.0178 6.20126 9.25074 5.54308 10.5944 5.27452C11.938 5.00596 13.3318 5.13912 14.599 5.65711C15.8662 6.17511 16.9497 7.05459 17.7122 8.18404C18.4746 9.3135 18.8816 10.642 18.8816 12.0012C18.8853 12.8993 18.7104 13.7893 18.3669 14.6204C18.0234 15.4514 17.5181 16.2072 16.8798 16.8445C16.2416 17.4817 15.4829 17.9879 14.6471 18.3342C13.8114 18.6805 12.915 18.86 12.0093 18.8624Z" fill="white"/>
<path d="M1.5968 1.51462V4.24608H2.97142C2.69856 4.24673 2.43164 4.167 2.20453 4.01702C1.97742 3.86703 1.80035 3.65354 1.69578 3.40362C1.59121 3.1537 1.56385 2.87862 1.61716 2.61326C1.67048 2.3479 1.80207 2.10422 1.99525 1.91312C2.18843 1.72203 2.4345 1.59213 2.70223 1.5399C2.96997 1.48767 3.24732 1.51547 3.49911 1.61977C3.75089 1.72406 3.96576 1.90016 4.11648 2.12572C4.26719 2.35128 4.34695 2.61614 4.34564 2.88671C4.34728 3.06657 4.31293 3.24497 4.24457 3.41158C4.17621 3.57819 4.07521 3.72971 3.94741 3.85735C3.8196 3.985 3.66754 4.08624 3.50001 4.15522C3.33248 4.2242 3.15282 4.25954 2.97142 4.25921H4.34564V1.51462H1.5968Z" fill="white"/>
<path d="M1.59721 5.20634V7.9378H2.97184C2.69897 7.93845 2.43205 7.85872 2.20494 7.70874C1.97784 7.55875 1.80077 7.34526 1.69619 7.09534C1.59162 6.84542 1.56426 6.57034 1.61757 6.30498C1.67089 6.03962 1.80248 5.79594 1.99567 5.60485C2.18885 5.41375 2.43491 5.28385 2.70265 5.23162C2.97039 5.17939 3.24774 5.20719 3.49952 5.31149C3.7513 5.41578 3.96618 5.59188 4.11689 5.81744C4.2676 6.043 4.34736 6.30786 4.34605 6.57843C4.34769 6.75829 4.31334 6.93669 4.24498 7.1033C4.17663 7.26992 4.07562 7.42143 3.94782 7.54907C3.82002 7.67672 3.66795 7.77796 3.50042 7.84694C3.33289 7.91592 3.15323 7.95126 2.97184 7.95093H4.34605V5.20634H1.59721Z" fill="white"/>
<path d="M1.59639 15.8713V18.6028H2.97101C2.69814 18.6034 2.43123 18.5237 2.20412 18.3737C1.97701 18.2237 1.79994 18.0102 1.69537 17.7603C1.59079 17.5104 1.56343 17.2353 1.61675 16.97C1.67006 16.7046 1.80166 16.4609 1.99484 16.2698C2.18802 16.0787 2.43408 15.9488 2.70182 15.8966C2.96956 15.8444 3.24691 15.8722 3.49869 15.9765C3.75048 16.0808 3.96535 16.2568 4.11606 16.4824C4.26677 16.708 4.34653 16.9728 4.34522 17.2434C4.34686 17.4233 4.31251 17.6017 4.24416 17.7683C4.1758 17.9349 4.0748 18.0864 3.94699 18.214C3.81919 18.3417 3.66712 18.4429 3.49959 18.5119C3.33207 18.5809 3.15241 18.6162 2.97101 18.6159H4.34522V15.8713H1.59639Z" fill="white"/>
<path d="M2.97101 1.90307C2.77436 1.90169 2.58172 1.95825 2.41753 2.06558C2.25334 2.17291 2.125 2.32618 2.04878 2.50594C1.97255 2.6857 1.95189 2.88386 1.9894 3.07528C2.02691 3.2667 2.1209 3.44277 2.25947 3.58114C2.39803 3.71952 2.57491 3.81398 2.76769 3.85253C2.96047 3.89109 3.16044 3.872 3.34227 3.7977C3.52409 3.7234 3.67956 3.59723 3.78897 3.43518C3.89837 3.27314 3.95678 3.08253 3.95679 2.88753C3.95738 2.75867 3.93235 2.63096 3.88311 2.5117C3.83386 2.39245 3.76139 2.284 3.66982 2.19256C3.57826 2.10111 3.4694 2.02848 3.34949 1.9788C3.22958 1.92913 3.10097 1.90339 2.97101 1.90307Z" fill="white"/>
<path d="M2.97142 5.59479C2.77477 5.59341 2.58214 5.64997 2.41795 5.7573C2.25376 5.86463 2.12541 6.0179 2.04919 6.19766C1.97297 6.37742 1.9523 6.57558 1.98981 6.767C2.02732 6.95842 2.12132 7.13449 2.25988 7.27286C2.39844 7.41124 2.57533 7.5057 2.7681 7.54425C2.96088 7.58281 3.16086 7.56372 3.34268 7.48942C3.5245 7.41512 3.67998 7.28895 3.78938 7.1269C3.89879 6.96486 3.95719 6.77425 3.9572 6.57925C3.9578 6.45039 3.93276 6.32268 3.88352 6.20342C3.83428 6.08417 3.7618 5.97572 3.67024 5.88428C3.57867 5.79283 3.46982 5.7202 3.3499 5.67052C3.22999 5.62085 3.10138 5.59511 2.97142 5.59479Z" fill="white"/>
<path d="M2.9706 16.2598C2.77394 16.2584 2.58131 16.3149 2.41712 16.4223C2.25293 16.5296 2.12459 16.6829 2.04836 16.8626C1.97214 17.0424 1.95147 17.2405 1.98898 17.432C2.02649 17.6234 2.12049 17.7995 2.25905 17.9378C2.39762 18.0762 2.5745 18.1707 2.76728 18.2092C2.96005 18.2478 3.16003 18.2287 3.34185 18.1544C3.52368 18.0801 3.67915 17.9539 3.78855 17.7919C3.89796 17.6298 3.95637 17.4392 3.95637 17.2442C3.95697 17.1154 3.93193 16.9876 3.88269 16.8684C3.83345 16.7491 3.76097 16.6407 3.66941 16.5492C3.57784 16.4578 3.46899 16.3852 3.34908 16.3355C3.22917 16.2858 3.10055 16.2601 2.9706 16.2598Z" fill="white"/>
<path d="M1.51903 11.5479H2.89365C2.6195 11.5498 2.35096 11.4709 2.12209 11.3212C1.89322 11.1715 1.71434 10.9578 1.60811 10.7072C1.50189 10.4566 1.47312 10.1803 1.52545 9.91346C1.57777 9.64661 1.70884 9.40117 1.90204 9.20828C2.09523 9.01539 2.34184 8.88373 2.61059 8.83C2.87934 8.77627 3.15813 8.8029 3.41161 8.9065C3.66508 9.01009 3.88182 9.186 4.03433 9.41191C4.18685 9.63781 4.26827 9.90354 4.26828 10.1754C4.26992 10.3553 4.23556 10.5337 4.16717 10.7004C4.09879 10.867 3.99775 11.0185 3.8699 11.1462C3.74206 11.2738 3.58994 11.3751 3.42237 11.444C3.25479 11.513 3.07508 11.5483 2.89365 11.5479H4.26787V8.81643H1.51903V11.5479Z" fill="white"/>
<path d="M2.89283 9.19176C2.69616 9.1903 2.50348 9.24679 2.33924 9.35407C2.175 9.46135 2.04659 9.61458 1.9703 9.79434C1.89401 9.97409 1.87329 10.1723 1.91075 10.3637C1.94821 10.5552 2.04218 10.7313 2.18072 10.8697C2.31927 11.0081 2.49615 11.1026 2.68894 11.1412C2.88173 11.1798 3.08173 11.1607 3.26357 11.0864C3.44542 11.0121 3.60092 10.886 3.71034 10.7239C3.81976 10.5619 3.87818 10.3712 3.87819 10.1762C3.87879 10.0474 3.85376 9.91971 3.80455 9.80048C3.75533 9.68126 3.68289 9.57282 3.59137 9.48139C3.49985 9.38995 3.39104 9.3173 3.27118 9.26761C3.15132 9.21791 3.02275 9.19213 2.89283 9.19176Z" fill="white"/>
<path d="M1.51903 15.1986H2.89365C2.6195 15.2005 2.35096 15.1216 2.12209 14.9719C1.89322 14.8222 1.71434 14.6085 1.60811 14.3579C1.50189 14.1073 1.47312 13.831 1.52545 13.5642C1.57777 13.2973 1.70884 13.0519 1.90204 12.859C2.09523 12.6661 2.34184 12.5344 2.61059 12.4807C2.87934 12.427 3.15813 12.4536 3.41161 12.5572C3.66508 12.6608 3.88182 12.8367 4.03433 13.0626C4.18685 13.2885 4.26827 13.5542 4.26828 13.8261C4.26938 14.1888 4.12521 14.5371 3.86745 14.7945C3.60969 15.0518 3.25944 15.1972 2.89365 15.1986H4.26787V12.4671H1.51903V15.1986Z" fill="white"/>
<path d="M2.89283 12.8425C2.69616 12.841 2.50348 12.8975 2.33924 13.0048C2.175 13.112 2.04659 13.2653 1.9703 13.445C1.89401 13.6248 1.87329 13.823 1.91075 14.0144C1.94821 14.2059 2.04218 14.382 2.18072 14.5204C2.31927 14.6588 2.49615 14.7533 2.68894 14.7919C2.88173 14.8305 3.08173 14.8114 3.26357 14.7371C3.44542 14.6628 3.60092 14.5367 3.71034 14.3746C3.81976 14.2126 3.87818 14.0219 3.87819 13.8269C3.87879 13.6981 3.85376 13.5704 3.80455 13.4512C3.75533 13.332 3.68289 13.2235 3.59137 13.1321C3.49985 13.0407 3.39104 12.968 3.27118 12.9183C3.15132 12.8686 3.02275 12.8428 2.89283 12.8425Z" fill="white"/>
<path d="M8.85836 1.51462V2.88671C8.85519 2.70575 8.8884 2.52597 8.95605 2.35787C9.0237 2.18977 9.12443 2.03671 9.25238 1.90763C9.38032 1.77854 9.5329 1.67602 9.70123 1.60603C9.86955 1.53604 10.0503 1.5 10.2328 1.5C10.4153 1.5 10.596 1.53604 10.7643 1.60603C10.9327 1.67602 11.0852 1.77854 11.2132 1.90763C11.3411 2.03671 11.4419 2.18977 11.5095 2.35787C11.5772 2.52597 11.6104 2.70575 11.6072 2.88671C11.6104 3.06767 11.5772 3.24745 11.5095 3.41555C11.4419 3.58365 11.3411 3.73671 11.2132 3.86579C11.0852 3.99488 10.9327 4.0974 10.7643 4.16739C10.596 4.23738 10.4153 4.27342 10.2328 4.27342C10.0503 4.27342 9.86955 4.23738 9.70123 4.16739C9.5329 4.0974 9.38032 3.99488 9.25238 3.86579C9.12443 3.73671 9.0237 3.58365 8.95605 3.41555C8.8884 3.24745 8.85519 3.06767 8.85836 2.88671V4.25921H11.5944V1.51462H8.85836Z" fill="white"/>
<path d="M10.2326 3.87199C10.4292 3.87345 10.6219 3.81696 10.7862 3.70968C10.9504 3.6024 11.0788 3.44916 11.1551 3.26941C11.2314 3.08966 11.2521 2.89149 11.2146 2.70004C11.1772 2.50859 11.0832 2.33248 10.9447 2.19407C10.8061 2.05565 10.6292 1.96115 10.4365 1.92256C10.2437 1.88397 10.0437 1.90303 9.86182 1.97732C9.67998 2.05161 9.52448 2.17779 9.41506 2.33983C9.30563 2.50188 9.24721 2.69251 9.24721 2.88753C9.24661 3.01636 9.27163 3.14404 9.32085 3.26326C9.37006 3.38249 9.44251 3.49092 9.53403 3.58236C9.62555 3.6738 9.73435 3.74644 9.85422 3.79614C9.97408 3.84584 10.1026 3.87161 10.2326 3.87199Z" fill="white"/>
<path d="M5.22758 1.51462V2.88671C5.22441 2.70575 5.25762 2.52597 5.32527 2.35787C5.39292 2.18977 5.49366 2.03671 5.6216 1.90763C5.74954 1.77854 5.90212 1.67602 6.07045 1.60603C6.23877 1.53604 6.41947 1.5 6.602 1.5C6.78452 1.5 6.96522 1.53604 7.13355 1.60603C7.30187 1.67602 7.45446 1.77854 7.5824 1.90763C7.71034 2.03671 7.81107 2.18977 7.87872 2.35787C7.94637 2.52597 7.97958 2.70575 7.97642 2.88671C7.97958 3.06767 7.94637 3.24745 7.87872 3.41555C7.81107 3.58365 7.71034 3.73671 7.5824 3.86579C7.45446 3.99488 7.30187 4.0974 7.13355 4.16739C6.96522 4.23738 6.78452 4.27342 6.602 4.27342C6.41947 4.27342 6.23877 4.23738 6.07045 4.16739C5.90212 4.0974 5.74954 3.99488 5.6216 3.86579C5.49366 3.73671 5.39292 3.58365 5.32527 3.41555C5.25762 3.24745 5.22441 3.06767 5.22758 2.88671V4.25921H7.96359V1.51462H5.22758Z" fill="white"/>
<path d="M6.60179 3.87199C6.79846 3.87345 6.99114 3.81696 7.15538 3.70968C7.31962 3.6024 7.44803 3.44916 7.52432 3.26941C7.6006 3.08966 7.62133 2.89149 7.58387 2.70004C7.5464 2.50859 7.45244 2.33248 7.3139 2.19407C7.17535 2.05565 6.99847 1.96115 6.80568 1.92256C6.61289 1.88397 6.41289 1.90303 6.23105 1.97732C6.0492 2.05161 5.8937 2.17779 5.78428 2.33983C5.67485 2.50188 5.61644 2.69251 5.61643 2.88753C5.61583 3.01636 5.64085 3.14404 5.69007 3.26326C5.73929 3.38249 5.81173 3.49092 5.90325 3.58236C5.99477 3.6738 6.10357 3.74644 6.22344 3.79614C6.3433 3.84584 6.47187 3.87161 6.60179 3.87199Z" fill="white"/>
<path d="M1.5968 22.4873H2.97142C2.69727 22.4892 2.42873 22.4102 2.19986 22.2606C1.97099 22.1109 1.79211 21.8972 1.68588 21.6466C1.57966 21.396 1.55089 21.1197 1.60322 20.8529C1.65554 20.586 1.78661 20.3406 1.97981 20.1477C2.173 19.9548 2.41961 19.8231 2.68836 19.7694C2.95711 19.7157 3.2359 19.7423 3.48938 19.8459C3.74285 19.9495 3.95959 20.1254 4.1121 20.3513C4.26462 20.5772 4.34604 20.8429 4.34605 21.1148C4.34715 21.4775 4.20298 21.8258 3.94522 22.0832C3.68746 22.3405 3.33721 22.4859 2.97142 22.4873H4.34564V19.7558H1.5968V22.4873Z" fill="white"/>
<path d="M2.97101 20.1312C2.77434 20.1297 2.58167 20.1862 2.41742 20.2935C2.25318 20.4007 2.12477 20.554 2.04848 20.7337C1.9722 20.9135 1.95147 21.1117 1.98893 21.3031C2.0264 21.4946 2.12036 21.6707 2.25891 21.8091C2.39745 21.9475 2.57434 22.042 2.76712 22.0806C2.95991 22.1192 3.15991 22.1001 3.34176 22.0258C3.5236 21.9515 3.6791 21.8254 3.78852 21.6633C3.89795 21.5013 3.95637 21.3106 3.95637 21.1156C3.95697 20.9868 3.93195 20.8591 3.88273 20.7399C3.83352 20.6207 3.76108 20.5122 3.66955 20.4208C3.57803 20.3293 3.46923 20.2567 3.34936 20.207C3.2295 20.1573 3.10093 20.1315 2.97101 20.1312Z" fill="white"/>
<path d="M16.1199 21.1279C16.1217 20.8587 16.2039 20.5961 16.356 20.3731C16.5081 20.1501 16.7234 19.9768 16.9748 19.8751C17.2261 19.7733 17.5022 19.7476 17.7683 19.8012C18.0343 19.8548 18.2784 19.9853 18.4697 20.1763C18.6611 20.3673 18.7911 20.6102 18.8434 20.8743C18.8957 21.1385 18.8679 21.4121 18.7636 21.6606C18.6593 21.9092 18.4831 22.1215 18.2573 22.2709C18.0314 22.4203 17.766 22.5 17.4945 22.5C17.1288 22.4986 16.7786 22.3533 16.5209 22.096C16.2631 21.8387 16.1189 21.4905 16.1199 21.1279V22.5H18.8559V19.7685H16.1199V21.1279Z" fill="white"/>
<path d="M17.4941 22.1001C17.6908 22.1015 17.8835 22.045 18.0477 21.9378C18.212 21.8305 18.3404 21.6772 18.4167 21.4975C18.4929 21.3177 18.5137 21.1196 18.4762 20.9281C18.4387 20.7367 18.3448 20.5606 18.2062 20.4221C18.0677 20.2837 17.8908 20.1892 17.698 20.1506C17.5052 20.1121 17.3052 20.1311 17.1234 20.2054C16.9415 20.2797 16.786 20.4059 16.6766 20.5679C16.5672 20.73 16.5088 20.9206 16.5088 21.1156C16.5082 21.2444 16.5332 21.3721 16.5824 21.4913C16.6316 21.6106 16.7041 21.719 16.7956 21.8104C16.8871 21.9019 16.9959 21.9745 17.1158 22.0242C17.2356 22.0739 17.3642 22.0997 17.4941 22.1001Z" fill="white"/>
<path d="M12.4891 21.1148C12.491 20.8456 12.5732 20.583 12.7254 20.3601C12.8776 20.1372 13.0929 19.9639 13.3443 19.8622C13.5956 19.7605 13.8717 19.7349 14.1377 19.7885C14.4037 19.8422 14.6478 19.9727 14.8391 20.1637C15.0304 20.3547 15.1604 20.5976 15.2126 20.8617C15.2649 21.1259 15.2371 21.3995 15.1328 21.648C15.0285 21.8965 14.8523 22.1088 14.6265 22.2582C14.4006 22.4076 14.1352 22.4873 13.8638 22.4873C13.498 22.4859 13.1477 22.3405 12.89 22.0832C12.6322 21.8258 12.488 21.4775 12.4891 21.1148V22.4873H15.2252V19.7558H12.4891V21.1148Z" fill="white"/>
<path d="M13.8634 22.1001C14.06 22.1015 14.2527 22.045 14.4169 21.9378C14.5812 21.8305 14.7096 21.6772 14.7859 21.4975C14.8622 21.3177 14.8829 21.1196 14.8454 20.9281C14.808 20.7367 14.714 20.5606 14.5755 20.4221C14.4369 20.2837 14.26 20.1892 14.0672 20.1506C13.8745 20.1121 13.6744 20.1311 13.4926 20.2054C13.3108 20.2797 13.1553 20.4059 13.0458 20.5679C12.9364 20.73 12.878 20.9206 12.878 21.1156C12.8774 21.2444 12.9024 21.3721 12.9516 21.4913C13.0008 21.6106 13.0733 21.719 13.1648 21.8104C13.2563 21.9019 13.3651 21.9745 13.485 22.0242C13.6049 22.0739 13.7334 22.0997 13.8634 22.1001Z" fill="white"/>
<path d="M8.85836 21.1148C8.86024 20.8456 8.94245 20.583 9.09464 20.3601C9.24682 20.1372 9.46216 19.9639 9.7135 19.8622C9.96484 19.7605 10.2409 19.7349 10.5069 19.7885C10.773 19.8422 11.017 19.9727 11.2083 20.1637C11.3996 20.3547 11.5296 20.5976 11.5819 20.8617C11.6341 21.1259 11.6064 21.3995 11.502 21.648C11.3977 21.8965 11.2215 22.1088 10.9957 22.2582C10.7698 22.4076 10.5045 22.4873 10.233 22.4873C9.8672 22.4859 9.51694 22.3405 9.25919 22.0832C9.00143 21.8258 8.85726 21.4775 8.85836 21.1148V22.4873H11.5944V19.7558H8.85836V21.1148Z" fill="white"/>
<path d="M10.2326 22.1001C10.4292 22.1015 10.6219 22.045 10.7862 21.9378C10.9504 21.8305 11.0788 21.6772 11.1551 21.4975C11.2314 21.3177 11.2521 21.1196 11.2146 20.9281C11.1772 20.7367 11.0832 20.5606 10.9447 20.4221C10.8061 20.2837 10.6292 20.1892 10.4365 20.1506C10.2437 20.1121 10.0437 20.1311 9.86182 20.2054C9.67998 20.2797 9.52448 20.4059 9.41506 20.5679C9.30563 20.73 9.24721 20.9206 9.24721 21.1156C9.24661 21.2444 9.27163 21.3721 9.32085 21.4913C9.37006 21.6106 9.4425 21.719 9.53403 21.8104C9.62555 21.9019 9.73435 21.9745 9.85422 22.0242C9.97408 22.0739 10.1026 22.0997 10.2326 22.1001Z" fill="white"/>
<path d="M5.22758 21.1148C5.22946 20.8456 5.31167 20.583 5.46386 20.3601C5.61604 20.1372 5.83138 19.9639 6.08272 19.8622C6.33406 19.7605 6.61014 19.7349 6.87616 19.7885C7.14219 19.8422 7.38623 19.9727 7.57752 20.1637C7.76882 20.3547 7.8988 20.5976 7.95107 20.8617C8.00334 21.1259 7.97557 21.3995 7.87126 21.648C7.76694 21.8965 7.59075 22.1088 7.36491 22.2582C7.13906 22.4076 6.87367 22.4873 6.6022 22.4873C6.23642 22.4859 5.88616 22.3405 5.62841 22.0832C5.37065 21.8258 5.22648 21.4775 5.22758 21.1148V22.4873H7.96359V19.7558H5.22758V21.1148Z" fill="white"/>
<path d="M6.60179 22.1001C6.79846 22.1015 6.99114 22.045 7.15538 21.9378C7.31962 21.8305 7.44803 21.6772 7.52432 21.4975C7.6006 21.3177 7.62133 21.1196 7.58387 20.9281C7.5464 20.7367 7.45244 20.5606 7.3139 20.4221C7.17535 20.2837 6.99847 20.1892 6.80568 20.1506C6.61289 20.1121 6.41289 20.1311 6.23105 20.2054C6.0492 20.2797 5.8937 20.4059 5.78428 20.5679C5.67485 20.73 5.61644 20.9206 5.61643 21.1156C5.61583 21.2444 5.64085 21.3721 5.69007 21.4913C5.73929 21.6106 5.81173 21.719 5.90325 21.8104C5.99477 21.9019 6.10357 21.9745 6.22344 22.0242C6.3433 22.0739 6.47187 22.0997 6.60179 22.1001Z" fill="white"/>
<path d="M16.1199 2.88671C16.1167 2.70575 16.15 2.52597 16.2176 2.35787C16.2853 2.18977 16.386 2.03671 16.5139 1.90763C16.6419 1.77854 16.7945 1.67602 16.9628 1.60603C17.1311 1.53604 17.3118 1.5 17.4943 1.5C17.6769 1.5 17.8576 1.53604 18.0259 1.60603C18.1942 1.67602 18.3468 1.77854 18.4747 1.90763C18.6027 2.03671 18.7034 2.18977 18.7711 2.35787C18.8387 2.52597 18.8719 2.70575 18.8688 2.88671C18.8719 3.06767 18.8387 3.24745 18.7711 3.41555C18.7034 3.58365 18.6027 3.73671 18.4747 3.86579C18.3468 3.99488 18.1942 4.0974 18.0259 4.16739C17.8576 4.23738 17.6769 4.27342 17.4943 4.27342C17.3118 4.27342 17.1311 4.23738 16.9628 4.16739C16.7945 4.0974 16.6419 3.99488 16.5139 3.86579C16.386 3.73671 16.2853 3.58365 16.2176 3.41555C16.15 3.24745 16.1167 3.06767 16.1199 2.88671V4.25921H18.8559V1.51462H16.1199V2.88671Z" fill="white"/>
<path d="M17.4941 3.87199C17.6908 3.87345 17.8835 3.81696 18.0477 3.70968C18.212 3.6024 18.3404 3.44916 18.4167 3.26941C18.4929 3.08966 18.5137 2.89149 18.4762 2.70004C18.4387 2.50859 18.3448 2.33248 18.2062 2.19407C18.0677 2.05565 17.8908 1.96115 17.698 1.92256C17.5052 1.88397 17.3052 1.90303 17.1234 1.97732C16.9415 2.05161 16.786 2.17779 16.6766 2.33983C16.5672 2.50188 16.5088 2.69251 16.5088 2.88753C16.5082 3.01636 16.5332 3.14404 16.5824 3.26326C16.6316 3.38249 16.7041 3.49092 16.7956 3.58236C16.8871 3.6738 16.9959 3.74644 17.1158 3.79614C17.2356 3.84584 17.3642 3.87161 17.4941 3.87199Z" fill="white"/>
<path d="M12.4891 2.88671C12.486 2.70575 12.5192 2.52597 12.5868 2.35787C12.6545 2.18977 12.7552 2.03671 12.8832 1.90763C13.0111 1.77854 13.1637 1.67602 13.332 1.60603C13.5003 1.53604 13.681 1.5 13.8636 1.5C14.0461 1.5 14.2268 1.53604 14.3951 1.60603C14.5634 1.67602 14.716 1.77854 14.844 1.90763C14.9719 2.03671 15.0726 2.18977 15.1403 2.35787C15.2079 2.52597 15.2411 2.70575 15.238 2.88671C15.2411 3.06767 15.2079 3.24745 15.1403 3.41555C15.0726 3.58365 14.9719 3.73671 14.844 3.86579C14.716 3.99488 14.5634 4.0974 14.3951 4.16739C14.2268 4.23738 14.0461 4.27342 13.8636 4.27342C13.681 4.27342 13.5003 4.23738 13.332 4.16739C13.1637 4.0974 13.0111 3.99488 12.8832 3.86579C12.7552 3.73671 12.6545 3.58365 12.5868 3.41555C12.5192 3.24745 12.486 3.06767 12.4891 2.88671V4.25921H15.2251V1.51462H12.4891V2.88671Z" fill="white"/>
<path d="M13.8634 3.87199C14.06 3.87345 14.2527 3.81696 14.4169 3.70968C14.5812 3.6024 14.7096 3.44916 14.7859 3.26941C14.8622 3.08966 14.8829 2.89149 14.8454 2.70004C14.808 2.50859 14.714 2.33248 14.5755 2.19407C14.4369 2.05565 14.26 1.96115 14.0672 1.92256C13.8745 1.88397 13.6744 1.90303 13.4926 1.97732C13.3108 2.05161 13.1553 2.17779 13.0458 2.33983C12.9364 2.50188 12.878 2.69251 12.878 2.88753C12.8774 3.01636 12.9024 3.14404 12.9516 3.26326C13.0008 3.38249 13.0733 3.49092 13.1648 3.58236C13.2563 3.6738 13.3651 3.74644 13.485 3.79614C13.6049 3.84584 13.7334 3.87161 13.8634 3.87199Z" fill="white"/>
<path d="M19.7507 1.51462V4.24608H21.1253C20.8525 4.24665 20.5856 4.16685 20.3585 4.01682C20.1315 3.86678 19.9545 3.65326 19.85 3.40333C19.7455 3.15341 19.7182 2.87834 19.7715 2.61301C19.8249 2.34767 19.9565 2.10403 20.1497 1.91298C20.3429 1.72192 20.589 1.59207 20.8567 1.53987C21.1244 1.48768 21.4018 1.5155 21.6535 1.6198C21.9053 1.72411 22.1201 1.90021 22.2708 2.12576C22.4215 2.35131 22.5013 2.61616 22.4999 2.88671C22.5015 3.06657 22.4671 3.24496 22.3987 3.41155C22.3303 3.57814 22.2293 3.72963 22.1014 3.85723C21.9736 3.98484 21.8215 4.08604 21.6539 4.15496C21.4864 4.22389 21.3067 4.25919 21.1253 4.2588H22.4999V1.51462H19.7507Z" fill="white"/>
<path d="M21.1249 1.90307C20.9282 1.90161 20.7356 1.9581 20.5713 2.06538C20.4071 2.17266 20.2787 2.3259 20.2024 2.50565C20.1261 2.6854 20.1054 2.88357 20.1428 3.07502C20.1803 3.26647 20.2743 3.44258 20.4128 3.581C20.5514 3.71941 20.7282 3.81391 20.921 3.8525C21.1138 3.89109 21.3138 3.87203 21.4957 3.79774C21.6775 3.72345 21.833 3.59728 21.9424 3.43523C22.0518 3.27318 22.1103 3.08255 22.1103 2.88753C22.1109 2.7587 22.0858 2.63102 22.0366 2.5118C21.9874 2.39257 21.915 2.28414 21.8235 2.1927C21.7319 2.10126 21.6231 2.02862 21.5033 1.97892C21.3834 1.92922 21.2548 1.90345 21.1249 1.90307Z" fill="white"/>
<path d="M19.6725 6.53741C19.6744 6.26823 19.7566 6.00563 19.9088 5.78272C20.061 5.55981 20.2763 5.38657 20.5277 5.28485C20.779 5.18313 21.0551 5.15748 21.3211 5.21113C21.5871 5.26479 21.8312 5.39534 22.0225 5.58634C22.2138 5.77734 22.3437 6.02023 22.396 6.28438C22.4483 6.54852 22.4205 6.82211 22.3162 7.07062C22.2119 7.31914 22.0357 7.53147 21.8098 7.68083C21.584 7.83019 21.3186 7.9099 21.0471 7.90991H22.4218V5.16532H19.6858V7.89679H21.0604C20.6947 7.89537 20.3445 7.75007 20.0867 7.4928C19.829 7.23553 19.6848 6.88733 19.6858 6.5247L19.6725 6.53741Z" fill="white"/>
<path d="M21.0467 5.54065C20.8501 5.53918 20.6574 5.59568 20.4931 5.70296C20.3289 5.81024 20.2005 5.96347 20.1242 6.14323C20.0479 6.32298 20.0272 6.52115 20.0646 6.7126C20.1021 6.90405 20.1961 7.08015 20.3346 7.21857C20.4732 7.35699 20.6501 7.45149 20.8428 7.49007C21.0356 7.52866 21.2356 7.5096 21.4175 7.43531C21.5993 7.36102 21.7548 7.23485 21.8642 7.0728C21.9737 6.91075 22.0321 6.72013 22.0321 6.52511C22.0327 6.39628 22.0077 6.2686 21.9584 6.14937C21.9092 6.03015 21.8368 5.92171 21.7453 5.83028C21.6537 5.73884 21.5449 5.66619 21.4251 5.6165C21.3052 5.5668 21.1766 5.54102 21.0467 5.54065Z" fill="white"/>
<path d="M19.6725 10.1754C19.6744 9.90622 19.7566 9.64362 19.9088 9.42071C20.061 9.1978 20.2763 9.02456 20.5277 8.92284C20.779 8.82111 21.0551 8.79546 21.3211 8.84912C21.5871 8.90277 21.8312 9.03333 22.0225 9.22433C22.2138 9.41533 22.3437 9.65821 22.396 9.92236C22.4483 10.1865 22.4205 10.4601 22.3162 10.7086C22.2119 10.9571 22.0357 11.1695 21.8098 11.3188C21.584 11.4682 21.3186 11.5479 21.0471 11.5479H22.4218V8.81643H19.6858V11.5479H21.0604C20.6946 11.5465 20.3443 11.4011 20.0866 11.1438C19.8288 10.8864 19.6847 10.5381 19.6858 10.1754H19.6725Z" fill="white"/>
<path d="M21.0467 9.19176C20.8501 9.1903 20.6574 9.24679 20.4931 9.35407C20.3289 9.46135 20.2005 9.61458 20.1242 9.79434C20.0479 9.97409 20.0272 10.1723 20.0646 10.3637C20.1021 10.5552 20.1961 10.7313 20.3346 10.8697C20.4732 11.0081 20.6501 11.1026 20.8428 11.1412C21.0356 11.1798 21.2356 11.1607 21.4175 11.0864C21.5993 11.0121 21.7548 10.886 21.8642 10.7239C21.9737 10.5619 22.0321 10.3712 22.0321 10.1762C22.0327 10.0474 22.0077 9.91971 21.9584 9.80048C21.9092 9.68126 21.8368 9.57282 21.7453 9.48139C21.6537 9.38995 21.5449 9.3173 21.4251 9.26761C21.3052 9.21791 21.1766 9.19213 21.0467 9.19176Z" fill="white"/>
<path d="M19.6725 13.8261C19.6744 13.5569 19.7566 13.2943 19.9088 13.0714C20.061 12.8485 20.2763 12.6753 20.5277 12.5735C20.779 12.4718 21.0551 12.4462 21.3211 12.4998C21.5871 12.5535 21.8312 12.684 22.0225 12.875C22.2138 13.066 22.3437 13.3089 22.396 13.5731C22.4483 13.8372 22.4205 14.1108 22.3162 14.3593C22.2119 14.6078 22.0357 14.8202 21.8098 14.9695C21.584 15.1189 21.3186 15.1986 21.0471 15.1986H22.4218V12.4671H19.6858V15.1986H21.0604C20.6946 15.1972 20.3443 15.0518 20.0866 14.7945C19.8288 14.5371 19.6847 14.1888 19.6858 13.8261H19.6725Z" fill="white"/>
<path d="M21.0467 12.8425C20.8501 12.841 20.6574 12.8975 20.4931 13.0048C20.3289 13.112 20.2005 13.2653 20.1242 13.445C20.0479 13.6248 20.0272 13.823 20.0646 14.0144C20.1021 14.2059 20.1961 14.382 20.3346 14.5204C20.4732 14.6588 20.6501 14.7533 20.8428 14.7919C21.0356 14.8305 21.2356 14.8114 21.4175 14.7371C21.5993 14.6628 21.7548 14.5367 21.8642 14.3746C21.9737 14.2126 22.0321 14.0219 22.0321 13.8269C22.0327 13.6981 22.0077 13.5704 21.9584 13.4512C21.9092 13.332 21.8368 13.2235 21.7453 13.1321C21.6537 13.0407 21.5449 12.968 21.4251 12.9183C21.3052 12.8686 21.1766 12.8428 21.0467 12.8425Z" fill="white"/>
<path d="M19.6725 17.4768C19.6743 17.2076 19.7565 16.945 19.9086 16.722C20.0607 16.499 20.276 16.3257 20.5274 16.2239C20.7787 16.1222 21.0548 16.0964 21.3209 16.1501C21.5869 16.2037 21.831 16.3342 22.0223 16.5252C22.2137 16.7162 22.3437 16.959 22.396 17.2232C22.4483 17.4874 22.4205 17.761 22.3162 18.0095C22.2119 18.2581 22.0357 18.4704 21.8099 18.6198C21.584 18.7692 21.3186 18.8489 21.0471 18.8489H22.4218V16.1174H19.6858V18.8489H21.0604C20.6947 18.8475 20.3445 18.7022 20.0867 18.4449C19.829 18.1876 19.6848 17.8394 19.6858 17.4768H19.6725Z" fill="white"/>
<path d="M21.0467 16.4932C20.8501 16.4917 20.6574 16.5482 20.4931 16.6555C20.3289 16.7628 20.2005 16.916 20.1242 17.0957C20.0479 17.2755 20.0272 17.4737 20.0646 17.6651C20.1021 17.8566 20.1961 18.0327 20.3346 18.1711C20.4732 18.3095 20.6501 18.404 20.8428 18.4426C21.0356 18.4812 21.2356 18.4621 21.4175 18.3878C21.5993 18.3135 21.7548 18.1874 21.8642 18.0253C21.9737 17.8633 22.0321 17.6726 22.0321 17.4776C22.0327 17.3488 22.0077 17.2211 21.9584 17.1019C21.9092 16.9827 21.8368 16.8742 21.7453 16.7828C21.6537 16.6914 21.5449 16.6187 21.4251 16.569C21.3052 16.5193 21.1766 16.4935 21.0467 16.4932Z" fill="white"/>
<path d="M19.7503 19.7558V22.4873H21.1249C20.8508 22.4892 20.5822 22.4102 20.3533 22.2606C20.1245 22.1109 19.9456 21.8972 19.8394 21.6466C19.7332 21.396 19.7044 21.1197 19.7567 20.8529C19.809 20.586 19.9401 20.3406 20.1333 20.1477C20.3265 19.9548 20.5731 19.8231 20.8418 19.7694C21.1106 19.7157 21.3894 19.7423 21.6429 19.8459C21.8963 19.9495 22.1131 20.1254 22.2656 20.3513C22.4181 20.5772 22.4995 20.8429 22.4995 21.1148C22.5006 21.4775 22.3565 21.8258 22.0987 22.0832C21.841 22.3405 21.4907 22.4859 21.1249 22.4873H22.4995V19.7558H19.7503Z" fill="white"/>
<path d="M21.1245 20.1312C20.9278 20.1297 20.7352 20.1862 20.5709 20.2935C20.4067 20.4007 20.2783 20.554 20.202 20.7337C20.1257 20.9135 20.105 21.1117 20.1424 21.3031C20.1799 21.4946 20.2738 21.6707 20.4124 21.8091C20.5509 21.9475 20.7278 22.042 20.9206 22.0806C21.1134 22.1192 21.3134 22.1001 21.4952 22.0258C21.6771 21.9515 21.8326 21.8254 21.942 21.6633C22.0514 21.5013 22.1099 21.3106 22.1099 21.1156C22.1105 20.9868 22.0854 20.8591 22.0362 20.7399C21.987 20.6207 21.9146 20.5122 21.823 20.4208C21.7315 20.3293 21.6227 20.2567 21.5028 20.207C21.383 20.1573 21.2544 20.1315 21.1245 20.1312Z" fill="white"/>
<path d="M14.0837 16.5262C14.98 16.1117 15.5095 15.3564 15.2663 14.8393C15.023 14.3221 14.0992 14.2388 13.2029 14.6532C12.3065 15.0677 11.7771 15.823 12.0203 16.3402C12.2635 16.8573 13.1873 16.9406 14.0837 16.5262Z" fill="white"/>
<path d="M10.7693 9.42576C11.6657 9.0113 12.1952 8.25604 11.9519 7.73885C11.7087 7.22165 10.7849 7.13837 9.88857 7.55283C8.99221 7.9673 8.46274 8.72255 8.70595 9.23975C8.94917 9.75694 9.87298 9.84022 10.7693 9.42576Z" fill="white"/>
<path d="M15.7105 9.83439C16.0408 9.36702 15.6509 8.53107 14.8396 7.96723C14.0283 7.4034 13.1028 7.3252 12.7725 7.79257C12.4421 8.25994 12.832 9.0959 13.6434 9.65973C14.4547 10.2236 15.3802 10.3018 15.7105 9.83439Z" fill="white"/>
<path d="M9.11376 11.7855C9.20046 10.8029 8.80857 9.96622 8.23844 9.91676C7.66832 9.8673 7.13586 10.6238 7.04916 11.6064C6.96247 12.589 7.35436 13.4256 7.92449 13.4751C8.49461 13.5246 9.02707 12.7681 9.11376 11.7855Z" fill="white"/>
<path d="M16.9387 12.4705C17.0254 11.4879 16.6335 10.6512 16.0634 10.6018C15.4933 10.5523 14.9608 11.3088 14.8741 12.2914C14.7874 13.274 15.1793 14.1107 15.7495 14.1601C16.3196 14.2096 16.852 13.4531 16.9387 12.4705Z" fill="white"/>
<path d="M11.2325 16.2621C11.5629 15.7947 11.1729 14.9588 10.3616 14.3949C9.55032 13.8311 8.62483 13.7529 8.29449 14.2203C7.96415 14.6876 8.35406 15.5236 9.16538 16.0874C9.97669 16.6513 10.9022 16.7295 11.2325 16.2621Z" fill="white"/>
</svg>
