<svg width="24" height="24" viewBox="0 0 24 24" fill="none" xmlns="http://www.w3.org/2000/svg">
<path d="M4.78541 3.54547C9.16403 1.7764 13.6413 2.54183 14.7746 5.34673C15.4612 7.04621 14.7532 9.11241 12.9789 10.9L12.9248 10.9541L12.8659 11.012C11.7414 12.1322 10.265 13.0898 8.58945 13.7668C7.82555 14.0754 7.03922 14.3057 6.2455 14.4616L5.92449 16.5163L5.87835 16.8134L5.79939 17.3416L5.75134 17.6835L5.72447 17.887L5.68659 18.2017L5.67008 18.3584L5.65429 18.534L5.64736 18.6284L5.64224 18.7155L5.63884 18.7955L5.6371 18.8683L5.63726 18.9584L5.63773 18.9796C5.64281 19.1694 5.71529 19.3223 5.85536 19.4033C5.95232 19.4593 6.15348 19.4611 6.449 19.3951L6.47789 19.3885L6.50497 19.3819L6.53655 19.3726L6.54853 19.3689L6.59956 19.3506L6.63598 19.336L6.67432 19.3194L6.73527 19.2906L7.03057 19.1107L7.40565 18.8806L7.70773 18.6937L7.9854 18.5204L8.20399 18.3825L8.40463 18.2546L8.55812 18.1556L8.67193 18.0813L8.80298 17.9947L8.89883 17.9305L9.00708 17.8565L10.8063 16.6079L11.4077 16.1934L11.5875 16.072L11.6472 16.0322L11.7604 15.9574L11.866 15.8886L11.9403 15.841L12.0332 15.7827L12.1192 15.7302L12.1794 15.6945L12.236 15.6619L12.2719 15.6419L12.323 15.6144L12.3552 15.5977L12.3861 15.5823L12.4228 15.5649L12.4574 15.5494L12.4838 15.5385L12.5089 15.5287L12.5329 15.5202L12.5445 15.5164L12.5668 15.5096L12.588 15.504L12.5982 15.5017L12.6179 15.4978L12.6274 15.4963L12.6457 15.4941L12.663 15.493L12.6714 15.4929C13.2494 15.4929 13.551 15.7992 13.551 16.2858L13.5509 16.296L13.5506 16.3067L13.5492 16.3294L13.5482 16.3415L13.5454 16.367L13.5406 16.4014L13.5344 16.4387L13.5284 16.4707L13.5176 16.5221L13.5093 16.5587L13.495 16.6172L13.4786 16.6798L13.4602 16.7467L13.4467 16.7937L13.4247 16.8677L13.4006 16.946L13.3834 17.0006L13.3558 17.0861L13.3261 17.1759L13.2832 17.3024L13.2485 17.4024L13.199 17.5425L13.1728 17.6155L13.1176 17.7674L13.0586 17.9271L12.977 18.1444L13.0668 18.0829C13.2704 17.945 13.4573 17.8254 13.6368 17.7185L13.6856 17.6896L13.734 17.6614C13.8743 17.5802 14.0102 17.5069 14.142 17.4413L14.1983 17.4137L14.2725 17.3784C15.0723 17.0051 15.722 16.9336 16.304 17.1826C16.7769 17.3849 17.0057 17.6581 17.2247 18.2477L17.2367 18.2801L17.2774 18.3954L17.3386 18.5768L17.3544 18.6223L17.3863 18.7093C17.4924 18.9879 17.6038 19.1598 17.7205 19.2349C17.9168 19.3613 18.1857 19.4083 18.6071 19.3862L18.6841 19.3815L18.7677 19.3755L18.8108 19.372L18.8996 19.3643L18.9916 19.3554L19.0388 19.3506L19.1599 19.3373L19.2854 19.3223L19.3367 19.3159L19.4412 19.3023L19.548 19.2877L19.657 19.2721L19.7679 19.2556L19.8241 19.247L19.9377 19.2291L19.9951 19.2198L20.111 19.2006L20.2282 19.1805L20.3466 19.1596L20.4659 19.1378L20.5861 19.1153L20.707 19.092L20.8283 19.068L20.95 19.0433L21.0718 19.0178L21.1937 18.9917L21.3153 18.9649L21.4669 18.9305L21.6176 18.8952L21.7374 18.8664C21.7904 18.8534 21.8432 18.8403 21.8956 18.827L21.974 18.8069L22.1181 18.7698L22.0626 19.2767L22.0005 19.3018L21.8167 19.3754L21.6368 19.4465L21.5188 19.4926L21.4026 19.5375L21.2313 19.6029L21.1192 19.6451L21.0087 19.6863L20.8998 19.7263L20.7925 19.7653L20.6345 19.8219L20.4802 19.876L20.3793 19.9108L20.2799 19.9446L20.1338 19.9932L20.0383 20.0244L19.9211 20.062L19.8063 20.0979L19.7162 20.1255L19.6275 20.1521L19.5404 20.1778L19.4548 20.2024L19.3706 20.226L19.288 20.2487L19.1667 20.2809L19.0877 20.3011L19.0101 20.3204L18.9339 20.3387L18.8407 20.3602L18.7498 20.3803L18.661 20.3989L18.5744 20.416L18.5404 20.4225L18.4568 20.4376L18.3754 20.4513L18.3118 20.4612L18.242 20.4713L18.1663 20.4812C17.5826 20.5536 17.2227 20.4979 16.947 20.3448C16.5919 20.1475 16.3849 19.8856 16.1893 19.4252L16.1756 19.3927L16.1496 19.3288L16.1366 19.2959L16.1106 19.2283L16.0976 19.1935L16.0319 19.0116L15.9391 18.7396L15.9124 18.6649L15.8874 18.5992L15.8632 18.5399L15.8553 18.5215L15.8476 18.5042L15.8328 18.4725C15.7871 18.3782 15.7519 18.3402 15.7097 18.3222C15.6411 18.2928 15.5338 18.2937 15.394 18.3253L15.369 18.3312L15.3285 18.3417C15.2695 18.3578 15.2057 18.3787 15.1373 18.4044L15.1027 18.4176L15.053 18.4376L15.002 18.459L14.9759 18.4704L14.9495 18.4821L14.8957 18.5067L14.8405 18.533L14.784 18.5608L14.7262 18.5902L14.6672 18.6211L14.6372 18.6372L14.5764 18.6706L14.53 18.6966L14.483 18.7236L14.4509 18.7427L14.4128 18.7661L14.337 18.8144L14.2848 18.8484L14.1881 18.9124L14.0581 19L13.9162 19.0971L13.74 19.2195L13.5837 19.3297L13.4407 19.4317L13.3525 19.4952L13.2666 19.5576L13.1835 19.6186L13.1033 19.6779L13.0264 19.7353L12.918 19.8175L12.5272 20.1211L12.4824 20.155C12.3561 20.2494 12.2578 20.3142 12.1596 20.3652C11.987 20.455 11.8183 20.4979 11.6218 20.4979C11.1396 20.4979 10.7421 20.1471 10.7421 19.705C10.7421 19.6485 10.7487 19.5927 10.7625 19.5353L10.77 19.5065L10.7831 19.465C10.8297 19.322 10.8954 19.1769 10.9903 19.013L11.008 18.9826L11.692 17.5712L11.4446 17.7849L11.1666 18.0222L10.895 18.2513L10.7174 18.3996L10.4565 18.6149L10.2861 18.754L10.1185 18.8895L9.95355 19.0214L9.71183 19.2122L9.55395 19.3351L9.32285 19.5122L9.17219 19.6259L9.02415 19.7361L8.80787 19.8941L8.66705 19.9951L8.52904 20.0924L8.39434 20.1857L8.327 20.2317L8.13177 20.3626L8.00492 20.4454L7.88084 20.5246L7.76024 20.5998L7.6999 20.6366L7.58271 20.7068L7.46912 20.7728L7.41206 20.8053L7.3017 20.8664L7.19507 20.9234L7.14121 20.9513L7.03874 21.0028L6.98673 21.0281L6.8884 21.0742L6.8382 21.0968L6.74397 21.1374C6.68094 21.1637 6.61976 21.1876 6.56041 21.209C5.52051 21.5839 4.44258 21.4029 3.92249 20.7714C3.73146 20.5393 3.61731 20.3361 3.58218 20.0702L3.57725 20.0276L3.57186 19.9687L3.56843 19.9206L3.56578 19.8716L3.56391 19.8216L3.56327 19.7963L3.56251 19.7447V19.6919L3.56351 19.6379L3.56514 19.5826L3.56756 19.5258L3.57264 19.4378L3.577 19.3772L3.58354 19.299L3.5913 19.2179L3.59838 19.151L3.60624 19.0821L3.61487 19.0111L3.62428 18.938L3.63446 18.8627L3.64543 18.785L3.65716 18.705L3.67622 18.5804L3.6899 18.4941L3.71186 18.3597L3.73563 18.219L3.75395 18.1172L3.77946 17.9863L3.82266 17.779L3.93048 17.2852L4.44662 14.9761L4.51123 14.6852C3.76587 14.7322 3.02361 14.7167 2.29679 14.642L2.19307 14.6309L1.88203 14.5965L2.09891 13.5757L2.39785 13.5756L2.60146 13.5746L2.66781 13.5741L2.79831 13.5725L2.92599 13.5703L3.05096 13.5676L3.17335 13.5642L3.23362 13.5623L3.35235 13.558L3.46881 13.553L3.5831 13.5474L3.69535 13.541L3.75074 13.5375L3.86015 13.53L3.96781 13.5218C4.02716 13.517 4.08575 13.5119 4.14369 13.5063L4.23011 13.4977L4.33261 13.4867L4.3834 13.4808L4.48414 13.4684L4.53411 13.4619L4.63336 13.4482C4.68559 13.4407 4.73747 13.4328 4.78907 13.4246L4.81142 13.3216L4.90094 12.8986L4.96076 12.6081L5.01511 12.3469L5.07102 12.0829L5.12847 11.8159L5.18743 11.5461L5.21748 11.4102L5.27866 11.1364L5.3413 10.8599L5.37316 10.7208L5.43793 10.4405L5.47083 10.2995L5.53767 10.0156L5.5716 9.87284L5.64046 9.58553L5.71063 9.29601L5.78209 9.00436L5.8183 8.85775L5.89164 8.56304L5.96621 8.26638L6.06426 7.88048L7.31051 7.64372L6.47459 12.9948L6.49512 12.988L6.60025 12.9517L6.73385 12.9045L6.87012 12.8552L6.9812 12.8142L7.09426 12.7717L7.20941 12.7278L7.26781 12.7052L7.38633 12.6591L7.50723 12.6115L7.63065 12.5623L7.75671 12.5116C11.3821 11.0469 13.5699 8.09778 12.7161 5.98446C11.905 3.97698 8.45146 3.59614 4.72739 5.06547L4.61446 5.11057L4.34623 5.21702L3.8296 5.43653L4.17525 3.80632L4.30949 3.74818L4.50695 3.66297L4.70421 3.57903L4.78541 3.54547Z" fill="#FF3043"/>
</svg>
