<svg width="24" height="24" viewBox="0 0 24 24" fill="none" xmlns="http://www.w3.org/2000/svg">
<path d="M16.6738 13.1255L17.8459 13.7117L20.9559 11.6907L18.3064 9.12047C17.7369 9.524 16.9066 9.29849 16.6224 8.6543L15.21 8.97874L15.6639 11.5759C16.4373 11.6005 16.9586 12.4202 16.6738 13.1255Z" fill="#5693D8"/>
<path d="M21.226 7.27216L17.192 5.22656H14.8223L16.9659 7.30604C17.1564 7.15884 17.3954 7.07126 17.6548 7.07126C18.1545 7.07126 18.5784 7.3962 18.7265 7.84631L21.226 7.27216Z" fill="#66B6EB"/>
<path d="M18.3672 13.7494L20.7729 13.9683L22.2386 12.9348L21.1884 11.9161L18.3672 13.7494Z" fill="#1E5794"/>
<path d="M23.1655 10.2542L21.5008 7.5332L18.782 8.15772C18.7913 8.41639 18.7108 8.66431 18.5685 8.86055L21.2729 11.4841L23.1655 10.2542Z" fill="#1E5794"/>
<path d="M16.294 15.1826L17.6272 13.9558L16.5148 13.3994C16.3927 13.5549 16.2306 13.6775 16.044 13.7517L16.294 15.1826Z" fill="#77D8F3"/>
<path d="M22.4682 12.6439L23.0974 10.6758L21.5057 11.7102L22.4682 12.6439Z" fill="#77D8F3"/>
<path d="M16.7143 7.57611L14.6074 5.53223L15.1552 8.66665L16.5366 8.34934C16.5005 8.07795 16.5696 7.79408 16.7143 7.57611Z" fill="#77D8F3"/>
<path d="M11.3181 9.8728L14.85 9.06152L15.2979 11.6244C15.03 11.7061 14.8045 11.8848 14.6622 12.1195L11.2339 10.405C11.295 10.24 11.3253 10.0573 11.3181 9.8728Z" fill="#58C197"/>
<path d="M14.1584 5.10359L12.1766 4.39648L10.5786 8.70538C10.9133 8.87998 11.1672 9.18812 11.2697 9.55911L14.7955 8.74921L14.1584 5.10359Z" fill="#9ED677"/>
<path d="M6.46777 19.7637L7.57025 20.0533L9.26561 18.0958L8.50538 15.4976C8.36059 15.517 8.20698 15.5116 8.06543 15.4827L6.46777 19.7637Z" fill="#643AA8"/>
<path d="M8.96821 13.0484L9.62881 11.2671C9.80476 11.3082 9.99912 11.314 10.1787 11.283L11.6876 14.8204L9.63575 14.333C9.68933 13.8161 9.42322 13.3021 8.96821 13.0484Z" fill="#643AA8"/>
<path d="M6.18187 17.7268L6.60896 18.178L7.67086 15.3326C7.22075 15.0713 6.9635 14.5533 7.0253 14.038L5.73047 13.7304L6.18187 17.7268Z" fill="#8659B9"/>
<path d="M9.59336 17.7166L11.7975 15.1715L9.56484 14.6412C9.44909 14.9624 9.21167 15.2255 8.90819 15.3749L9.59336 17.7166Z" fill="#8659B9"/>
<path d="M15.9382 15.29L15.683 13.8298C14.9337 13.8664 14.3461 13.1248 14.5374 12.4105L11.0902 10.6865C10.9618 10.8801 10.7857 11.0393 10.5787 11.1474L12.1971 14.9415L12.5296 15.0204L15.9382 15.29Z" fill="#8659B9"/>
<path d="M6.05225 9.02246L8.57375 9.78173C8.51853 10.3095 8.78096 10.8361 9.23748 11.109L8.57136 12.9051C7.95689 12.7906 7.32359 13.143 7.10089 13.731L5.693 13.3965L5.26709 9.62581C5.60976 9.55163 5.89601 9.32598 6.05225 9.02246Z" fill="#FF3767"/>
<path d="M4.61098 9.57812C4.68538 9.60622 4.76343 9.62687 4.84422 9.63919L5.25698 13.2934L2.91406 12.7369L4.61098 9.57812Z" fill="#FF6A44"/>
<path d="M2.75732 14.6679L3.88433 16.7279L5.7212 17.4003L5.29501 13.6271L2.75954 13.0249L2.75732 14.6679Z" fill="#FF4041"/>
<path d="M2.19818 7.86234L0.761719 9.97528L1.36204 12.6727H2.46988L4.24982 9.35936C3.97107 9.11129 3.8272 8.73536 3.86777 8.36509L2.19818 7.86234Z" fill="#FFA256"/>
<path d="M7.27696 4.61523L9.0883 8.84762C8.88591 9.008 8.72969 9.22408 8.64279 9.47271L6.15695 8.72418C6.24617 8.28352 6.06469 7.81675 5.69907 7.55244L7.27696 4.61523Z" fill="#FFA256"/>
<path d="M6.7552 4.69622L2.41309 7.59645L3.9455 8.05788C4.16201 7.52275 4.76389 7.22487 5.31809 7.37139L6.7552 4.69622Z" fill="#F2D670"/>
<path d="M11.7547 4.32229L10.1792 8.57051C9.93975 8.52908 9.67989 8.55459 9.45783 8.63824L7.61071 4.32227L11.7547 4.32229Z" fill="#F2D670"/>
</svg>
