<svg width="24" height="24" viewBox="0 0 24 24" fill="none" xmlns="http://www.w3.org/2000/svg">
<mask id="mask0_558_303" style="mask-type:alpha" maskUnits="userSpaceOnUse" x="2" y="2" width="20" height="20">
<path d="M2 7C2 4.23858 4.23858 2 7 2H17C19.7614 2 22 4.23858 22 7V17C22 19.7614 19.7614 22 17 22H7C4.23858 22 2 19.7614 2 17V7Z" fill="#C4C4C4"/>
</mask>
<g mask="url(#mask0_558_303)">
<rect x="2" y="2" width="20" height="20" fill="url(#paint0_linear_558_303)"/>
</g>
<path fill-rule="evenodd" clip-rule="evenodd" d="M12 15.1641C11.0659 16.3434 9.62127 17.0999 7.99999 17.0999C5.18334 17.0999 2.89999 14.8166 2.89999 11.9999C2.89999 9.18325 5.18334 6.8999 7.99999 6.8999C9.62127 6.8999 11.0659 7.65642 12 8.83572C12.9341 7.65642 14.3787 6.8999 16 6.8999C18.8166 6.8999 21.1 9.18325 21.1 11.9999C21.1 14.8166 18.8166 17.0999 16 17.0999C14.3787 17.0999 12.9341 16.3434 12 15.1641ZM12.0632 15.0827C12.7138 14.2264 13.1 13.1583 13.1 11.9999C13.1 10.8415 12.7138 9.77337 12.0632 8.91713C12.9785 7.74988 14.4016 6.9999 16 6.9999C18.7614 6.9999 21 9.23848 21 11.9999C21 14.7613 18.7614 16.9999 16 16.9999C14.4016 16.9999 12.9785 16.2499 12.0632 15.0827ZM11.9368 15.0827C11.0215 16.2499 9.59834 16.9999 7.99999 16.9999C5.23857 16.9999 2.99999 14.7613 2.99999 11.9999C2.99999 9.23848 5.23857 6.9999 7.99999 6.9999C9.59834 6.9999 11.0215 7.74988 11.9368 8.91713C11.2862 9.77337 10.9 10.8415 10.9 11.9999C10.9 13.1583 11.2862 14.2264 11.9368 15.0827ZM12 15.0004C11.3721 14.1646 11 13.1257 11 11.9999C11 10.8741 11.3721 9.83516 12 8.99942C12.6279 9.83516 13 10.8741 13 11.9999C13 13.1257 12.6279 14.1646 12 15.0004Z" fill="white"/>
<path d="M6.57315 11.5427C6.57315 10.7437 7.21485 10.0977 8 10.0977C8.78515 10.0977 9.42685 10.7437 9.42685 11.5427C9.42685 12.3034 8.84554 12.9265 8.10947 12.9839C8.10947 12.9839 7.93205 12.9953 7.88676 13.003C7.68292 13.0297 7.50928 13.1865 7.46399 13.4005C7.46399 13.4005 7.40359 13.6796 7.39982 13.7025C7.37717 13.8096 7.27147 13.8784 7.16578 13.8554C7.06009 13.8325 6.99214 13.7255 7.01479 13.6184C7.01857 13.5955 7.46399 11.493 7.46399 11.493C7.48663 11.3859 7.59233 11.3171 7.69802 11.3401C7.80371 11.363 7.87166 11.47 7.84901 11.5771L7.66405 12.441L7.63008 12.6092C7.6263 12.6207 7.63762 12.6322 7.64895 12.6283C7.66149 12.6265 7.67659 12.6238 7.69425 12.6207C7.71377 12.6172 7.73642 12.6132 7.76219 12.6092C7.86033 12.5939 8.0604 12.5825 8.0604 12.5825C8.60018 12.5519 9.03051 12.097 9.03051 11.5427C9.03051 10.9501 8.53979 10.4723 7.94715 10.5029C7.41491 10.5296 6.98459 10.9731 6.96949 11.5121C6.96572 11.6382 6.98459 11.7644 7.02612 11.8829C7.06009 11.9899 7.00347 12.1046 6.90155 12.139C6.79586 12.1734 6.68261 12.1161 6.64864 12.0129C6.59957 11.86 6.57315 11.7032 6.57315 11.5427Z" fill="white"/>
<path d="M7.81881 13.6108C7.84523 13.477 7.97357 13.3967 8.10192 13.4234C8.23403 13.4502 8.3133 13.5764 8.28688 13.7102C8.26046 13.844 8.13211 13.9242 8.00377 13.8975C7.87166 13.8707 7.79239 13.7407 7.81881 13.6108Z" fill="white"/>
<path d="M17.3744 11.6016C17.4367 11.1748 17.1188 10.9454 16.684 10.7923L16.8252 10.2142L16.4808 10.1265L16.3433 10.6894C16.2529 10.6664 16.1599 10.6445 16.0675 10.6231L16.2056 10.0564L15.8615 9.96875L15.7207 10.5467L15.0263 10.3708L14.9347 10.7468C14.9347 10.7468 15.1901 10.8066 15.1847 10.8103C15.3242 10.8459 15.3495 10.9402 15.3452 11.015L14.9588 12.5988C14.9418 12.6421 14.8985 12.707 14.8011 12.6822C14.8045 12.6873 14.5508 12.6181 14.5508 12.6181L14.3798 13.0215L15.0733 13.2005L14.9308 13.7853L15.2747 13.873L15.4159 13.2944C15.51 13.3205 15.601 13.3445 15.6902 13.3672L15.5495 13.9431L15.8939 14.0308L16.0364 13.447C16.6236 13.5606 17.0651 13.5148 17.2507 12.9723C17.4005 12.5353 17.2434 12.2832 16.9344 12.1188C17.1594 12.0655 17.3289 11.9143 17.3741 11.6018L17.3744 11.6016ZM16.5874 12.7293C16.4807 13.1663 15.7611 12.9301 15.5275 12.8708L15.7166 12.0961C15.95 12.1556 16.6984 12.2735 16.5875 12.7292L16.5874 12.7293ZM16.6942 11.5954C16.5971 11.9931 15.9979 11.7911 15.8034 11.7415L15.9746 11.0386C16.1692 11.0883 16.7952 11.1807 16.694 11.5954" fill="white"/>
<defs>
<linearGradient id="paint0_linear_558_303" x1="2" y1="2" x2="22" y2="22" gradientUnits="userSpaceOnUse">
<stop stop-color="#E41F69"/>
<stop offset="1" stop-color="#F4773D"/>
</linearGradient>
</defs>
</svg>
