<svg width="24" height="24" viewBox="0 0 24 24" fill="none" xmlns="http://www.w3.org/2000/svg">
<circle cx="12" cy="12" r="11" fill="white"/>
<path d="M12 23C18.0751 23 23 18.0751 23 12C23 5.92487 18.0751 1 12 1C5.92487 1 1 5.92487 1 12C1 14.8402 2.07639 17.4289 3.84348 19.3806L5.22263 14.1C5.25648 13.9705 5.33605 13.8618 5.46222 13.7725C5.58795 13.6837 5.71632 13.639 5.84689 13.639H12.0372C12.7468 13.639 13.4154 13.4208 14.0432 12.9842C14.6706 12.5481 15.0645 12.0227 15.2249 11.4079C15.3898 10.7774 15.2724 10.2439 14.8732 9.80734C14.4727 9.37078 13.9188 9.15249 13.2093 9.15249H7.01893C6.88836 9.15249 6.78285 9.10829 6.70372 9.019C6.62415 8.9306 6.60128 8.82146 6.63514 8.69157L7.21764 6.46092C7.25193 6.33149 7.3315 6.22279 7.45723 6.1335C7.5834 6.04465 7.71177 6 7.84234 6H14.0322C15.1528 6 16.1261 6.24264 16.9518 6.72746C17.7774 7.21274 18.3616 7.8712 18.7045 8.7042C19.047 9.53674 19.0918 10.4378 18.8386 11.4079C18.585 12.378 18.0706 13.2751 17.2951 14.1C16.5196 14.9244 15.592 15.5792 14.5132 16.0641C13.4339 16.5489 12.3344 16.7915 11.2138 16.7915H8.24459C8.03929 16.7915 7.8929 16.8159 7.80541 16.8646C7.71837 16.9128 7.65594 17.0098 7.61769 17.1555L6.47875 21.5161C8.10149 22.4596 9.98764 23 12 23Z" fill="#30D5C5"/>
</svg>
