<svg width="24" height="24" viewBox="0 0 24 24" fill="none" xmlns="http://www.w3.org/2000/svg">
<path fill-rule="evenodd" clip-rule="evenodd" d="M12.6175 16.7979C12.0535 17.1687 11.4487 17.5454 10.8173 17.8628C9.2104 18.6703 7.40328 17.9374 6.13163 16.6658L2.90457 13.4388C2.50745 13.0416 2.28435 12.503 2.28435 11.9414V5.04182H0.5V2.14355H18.7054V5.04182H16.3232V21.8563L12.6175 20.0816V16.7979ZM6.53313 14.6225C6.29946 14.435 5.99003 14.0288 5.99003 13.0569V5.04182H12.6175V11.9138C11.5144 13.7362 9.62781 14.7998 8.1129 14.9494C7.32287 15.0274 6.81138 14.8458 6.53313 14.6225Z" fill="#161F25"/>
<circle cx="21.4285" cy="19.785" r="2.07136" fill="#E7007A"/>
</svg>
