<svg width="24" height="24" viewBox="0 0 24 24" fill="none" xmlns="http://www.w3.org/2000/svg">
<path d="M16.2024 13.3057L13.4075 16.1108C13.1707 16.3485 13.171 16.7348 13.408 16.9722L15.5438 19.111C15.9078 19.4703 16.5028 19.4703 16.8668 19.111L23.413 12.6499C23.777 12.2907 23.777 11.7032 23.413 11.344L16.8668 4.88859C16.5028 4.52932 15.9078 4.52932 15.5438 4.88859L13.408 7.02744C13.171 7.26481 13.1707 7.65112 13.4075 7.88875L16.2024 10.6939C16.9304 11.4124 16.9304 12.5872 16.2024 13.3057Z" fill="#0A6E5C"/>
<path d="M7.79759 13.3057L10.5925 16.1108C10.8292 16.3485 10.829 16.7348 10.592 16.9722L8.45622 19.111C8.09222 19.4703 7.49715 19.4703 7.13315 19.111L0.586963 12.6499C0.222965 12.2907 0.222965 11.7032 0.586963 11.344L7.13315 4.88859C7.49715 4.52932 8.09222 4.52932 8.45622 4.88859L10.592 7.02744C10.829 7.26481 10.8292 7.65112 10.5925 7.88875L7.79759 10.6939C7.06958 11.4124 7.06958 12.5872 7.79759 13.3057Z" fill="#21BF73"/>
<path d="M8.53089 12.5336C8.23608 12.2389 8.23608 11.761 8.53089 11.4662L11.4664 8.53065C11.7612 8.23588 12.2391 8.23588 12.5338 8.53065L15.4694 11.4662C15.7641 11.761 15.7641 12.2389 15.4694 12.5336L12.5338 15.4691C12.2391 15.764 11.7612 15.764 11.4664 15.4691L8.53089 12.5336Z" fill="#21BF73"/>
</svg>
