<svg width="24" height="24" viewBox="0 0 24 24" fill="none" xmlns="http://www.w3.org/2000/svg">
<path d="M1.40911 9.35555C0.942172 8.54676 1.21927 7.51257 2.02804 7.04562L9.35 2.81817C10.1588 2.35122 11.1929 2.62833 11.6599 3.43711L17.5781 13.6881C18.0451 14.4969 17.768 15.5311 16.9592 15.9981L9.63724 20.2255C8.82848 20.6925 7.79432 20.4154 7.32738 19.6066L1.40911 9.35555Z" fill="#FF007D"/>
<path fill-rule="evenodd" clip-rule="evenodd" d="M9.56136 3.18428L2.2394 7.41173C1.63283 7.76194 1.425 8.53759 1.77521 9.14417L7.69348 19.3952C8.04368 20.0018 8.8193 20.2096 9.42587 19.8594L16.7478 15.632C17.3544 15.2817 17.5622 14.5061 17.212 13.8995L11.2938 3.64848C10.9436 3.0419 10.1679 2.83406 9.56136 3.18428ZM2.02804 7.04562C1.21927 7.51257 0.942172 8.54676 1.40911 9.35555L7.32738 19.6066C7.79432 20.4154 8.82848 20.6925 9.63724 20.2255L16.9592 15.9981C17.768 15.5311 18.0451 14.4969 17.5781 13.6881L11.6599 3.43711C11.1929 2.62833 10.1588 2.35122 9.35 2.81817L2.02804 7.04562Z" fill="#000072"/>
<path fill-rule="evenodd" clip-rule="evenodd" d="M4.5223 11.7885C4.46394 11.6874 4.49857 11.5582 4.59967 11.4998L11.9216 7.27233C12.0227 7.21396 12.152 7.2486 12.2104 7.3497C12.2687 7.4508 12.2341 7.58007 12.133 7.63844L4.81104 11.8659C4.70994 11.9243 4.58067 11.8896 4.5223 11.7885Z" fill="#000072"/>
<path fill-rule="evenodd" clip-rule="evenodd" d="M5.64959 13.7412C5.59122 13.6401 5.62586 13.5108 5.72696 13.4524L13.0489 9.22497C13.15 9.1666 13.2793 9.20124 13.3377 9.30233C13.396 9.40343 13.3614 9.53271 13.2603 9.59107L5.93832 13.8185C5.83723 13.8769 5.70796 13.8423 5.64959 13.7412Z" fill="#000072"/>
<path fill-rule="evenodd" clip-rule="evenodd" d="M6.77688 15.6938C6.71851 15.5927 6.75315 15.4634 6.85425 15.4051L14.1762 11.1776C14.2773 11.1192 14.4066 11.1539 14.4649 11.255C14.5233 11.3561 14.4887 11.4853 14.3876 11.5437L7.06561 15.7712C6.96452 15.8295 6.83525 15.7949 6.77688 15.6938Z" fill="#000072"/>
<path d="M4.45115 9.55183C3.98421 8.74305 4.26132 7.70886 5.07008 7.24191L13.6124 2.30988C14.4211 1.84293 15.4553 2.12004 15.9222 2.92883L22.686 14.6443C23.1529 15.4531 22.8758 16.4873 22.067 16.9542L13.5247 21.8862C12.716 22.3532 11.6818 22.0761 11.2149 21.2673L4.45115 9.55183Z" fill="white"/>
<path fill-rule="evenodd" clip-rule="evenodd" d="M13.8237 2.67599L5.28144 7.60802C4.67487 7.95823 4.46705 8.73387 4.81725 9.34046L11.581 21.0559C11.9312 21.6625 12.7068 21.8703 13.3134 21.5201L21.8557 16.5881C22.4622 16.2379 22.6701 15.4622 22.3199 14.8557L15.5561 3.1402C15.2059 2.53361 14.4303 2.32578 13.8237 2.67599ZM5.07008 7.24191C4.26132 7.70886 3.98421 8.74305 4.45115 9.55183L11.2149 21.2673C11.6818 22.0761 12.716 22.3532 13.5247 21.8862L22.067 16.9542C22.8758 16.4873 23.1529 15.4531 22.686 14.6443L15.9222 2.92883C15.4553 2.12004 14.4211 1.84293 13.6124 2.30988L5.07008 7.24191Z" fill="#000072"/>
<ellipse cx="0.845473" cy="0.845484" rx="0.845473" ry="0.845484" transform="matrix(0.86602 -0.50001 0.49999 0.866031 19.2967 14.9741)" fill="#FF1E97"/>
<path d="M17.2718 9.92957H9.61491C9.41013 9.92957 9.24412 9.76356 9.24412 9.55878C9.24412 9.354 9.41013 9.18799 9.61491 9.18799H17.2718C17.4765 9.18799 17.6425 9.354 17.6425 9.55878C17.6425 9.76356 17.4765 9.92957 17.2718 9.92957Z" fill="#000072"/>
<path d="M17.2718 14.5829H9.61491C9.41013 14.5829 9.24412 14.4169 9.24412 14.2121C9.24412 14.0073 9.41013 13.8413 9.61491 13.8413H17.2718C17.4765 13.8413 17.6425 14.0073 17.6425 14.2121C17.6425 14.4169 17.4765 14.5829 17.2718 14.5829Z" fill="#000072"/>
<path d="M10.9868 16.6036C10.7821 16.6036 10.616 16.4376 10.616 16.2328V7.53778C10.616 7.333 10.7821 7.16699 10.9868 7.16699C11.1916 7.16699 11.3576 7.333 11.3576 7.53778V16.2328C11.3576 16.4376 11.1916 16.6036 10.9868 16.6036Z" fill="#000072"/>
<path d="M16.0111 16.6036C15.8063 16.6036 15.6403 16.4376 15.6403 16.2328V7.53778C15.6403 7.333 15.8063 7.16699 16.0111 7.16699C16.2158 7.16699 16.3818 7.333 16.3818 7.53778V16.2328C16.3818 16.4376 16.2158 16.6036 16.0111 16.6036Z" fill="#000072"/>
<path d="M10.9683 14.6756C10.8648 14.6751 10.7654 14.6353 10.6902 14.5643C10.622 14.4926 10.5871 14.3954 10.5942 14.2966C10.6013 14.1978 10.6496 14.1066 10.7273 14.0452L15.733 9.41034C15.8022 9.33995 15.8979 9.30188 15.9966 9.3054C16.0953 9.30893 16.188 9.35373 16.2521 9.42888C16.3884 9.57806 16.3801 9.80892 16.2335 9.94799L11.2278 14.5829C11.1533 14.6405 11.0624 14.6729 10.9683 14.6756Z" fill="#000072"/>
<path d="M16.2885 8.96533H15.678C15.4934 8.96533 15.3436 9.11505 15.3436 9.29974V9.89532C15.3436 10.08 15.4934 10.2297 15.678 10.2297H16.2885C16.4731 10.2297 16.6229 10.08 16.6229 9.89532V9.29974C16.6229 9.11505 16.4731 8.96533 16.2885 8.96533Z" fill="#FF8C00"/>
<path d="M11.2828 13.6001H10.6724C10.4877 13.6001 10.3379 13.7498 10.3379 13.9345V14.5301C10.3379 14.7148 10.4877 14.8645 10.6724 14.8645H11.2828C11.4675 14.8645 11.6172 14.7148 11.6172 14.5301V13.9345C11.6172 13.7498 11.4675 13.6001 11.2828 13.6001Z" fill="#FF8C00"/>
<path d="M10.5419 9.57729C10.5252 9.47499 10.5598 9.37101 10.6346 9.2992C10.7684 9.14709 10.9996 9.13057 11.1537 9.26212L16.1779 13.8785C16.2556 13.9398 16.3039 14.0311 16.311 14.1298C16.318 14.2286 16.2832 14.3258 16.215 14.3976C16.0747 14.552 15.8375 14.5684 15.6773 14.4347L10.6531 9.81831C10.5843 9.75681 10.544 9.66956 10.5419 9.57729Z" fill="#000072"/>
<path d="M16.2885 13.6001H15.678C15.4934 13.6001 15.3436 13.7498 15.3436 13.9345V14.5301C15.3436 14.7148 15.4934 14.8645 15.678 14.8645H16.2885C16.4731 14.8645 16.6229 14.7148 16.6229 14.5301V13.9345C16.6229 13.7498 16.4731 13.6001 16.2885 13.6001Z" fill="#FF8C00"/>
<path d="M11.2828 8.96533H10.6724C10.4877 8.96533 10.3379 9.11505 10.3379 9.29974V9.89532C10.3379 10.08 10.4877 10.2297 10.6724 10.2297H11.2828C11.4675 10.2297 11.6172 10.08 11.6172 9.89532V9.29974C11.6172 9.11505 11.4675 8.96533 11.2828 8.96533Z" fill="#FF8C00"/>
</svg>
