<svg width="24" height="24" viewBox="0 0 24 24" fill="none" xmlns="http://www.w3.org/2000/svg">
<circle cx="12" cy="12" r="11" fill="#46BDEA"/>
<path fill-rule="evenodd" clip-rule="evenodd" d="M14.8281 12.6625C14.8434 13.7054 14.7663 15.1714 14.2593 16.107C13.7526 17.043 13.1498 17.7228 12.0944 18.3416C11.0389 18.9597 9.73754 19.1397 8.81587 19.1315C7.8942 19.1237 7.08969 18.9396 6.58402 18.5097C6.07836 18.0798 6.00059 17.4498 6.13032 16.8103C6.26005 16.1705 6.63632 15.5318 7.38921 14.7958C8.1421 14.0596 8.88888 13.5549 9.93621 13.0276C10.9842 12.5005 12.1691 12.1249 13.0378 11.9751C12.8422 11.8525 12.4917 11.7388 12.2407 11.6709C11.9901 11.6029 11.1982 11.3985 10.5634 11.1845C9.9284 10.9706 9.45194 10.6955 9.14053 10.4188C8.82945 10.1423 8.66543 9.72189 8.61686 9.17242C8.5683 8.62227 8.65558 7.69653 9.14087 6.87605C9.62581 6.05558 10.123 5.43174 10.9295 4.89687C11.7364 4.362 12.4435 4.05127 13.2561 4.05127C14.0688 4.05127 14.5255 4.25095 14.7796 4.52501C15.0336 4.79907 15.1718 5.24937 15.1633 5.74519C15.1552 6.24134 15.0489 6.65022 14.552 7.40141C14.0555 8.15261 13.4568 8.63959 12.8041 9.06884C12.1514 9.4981 11.964 8.85048 12.3236 8.59273C12.6836 8.33463 13.048 7.98417 13.3193 7.50805C13.5906 7.03193 13.7119 6.63018 13.6827 6.30247C13.6538 5.97476 13.4653 5.82601 13.1172 5.85624C12.6218 5.89903 12.0825 6.25697 11.4994 6.93073C10.9159 7.60415 10.6483 8.21034 10.6959 8.74962C10.7288 9.11944 10.8494 9.40165 11.0579 9.59692C11.2664 9.79185 11.5299 9.95282 12.3236 10.2214C13.1172 10.4897 13.3349 10.6042 13.6827 10.8137C14.0308 11.0232 14.3517 11.3275 14.552 11.6709C14.552 11.6709 17.1119 11.4151 18.8099 11.8919C17.2817 12.0943 15.9233 12.4339 14.8281 12.6625ZM9.67132 17.3418C8.90926 17.4118 8.50004 17.2637 8.45725 16.7509C8.39748 16.0354 8.88345 15.2859 9.91583 14.5028C10.9479 13.7193 12.217 13.2048 13.5434 12.9433C13.5512 13.0357 13.5455 13.5145 13.4585 14.0002C13.3876 14.3941 13.2554 14.7738 13.0989 15.1062C12.7491 15.8489 12.1915 16.3532 11.5503 16.7509C10.9092 17.1486 10.0914 17.3034 9.67132 17.3418Z" fill="white"/>
</svg>
