<svg width="24" height="24" viewBox="0 0 24 24" fill="none" xmlns="http://www.w3.org/2000/svg">
<path d="M7.23728 4.44141H4.63937V7.03931H7.23728V4.44141Z" fill="#5E5E5E"/>
<path fill-rule="evenodd" clip-rule="evenodd" d="M8.96909 8.77125V2.70947H2.90732V8.77125H8.96909ZM3.77329 7.90528V3.57544H8.10313V7.90528H3.77329Z" fill="#5E5E5E"/>
<path d="M19.3608 4.44141H16.7628V7.03931H19.3608V4.44141Z" fill="#5E5E5E"/>
<path fill-rule="evenodd" clip-rule="evenodd" d="M21.0927 8.77125V2.70947H15.0309V8.77125H21.0927ZM15.8969 7.90528V3.57544H20.2268V7.90528H15.8969Z" fill="#5E5E5E"/>
<path d="M9.83511 2.70947H10.7011V3.57544H9.83511V2.70947Z" fill="#5E5E5E"/>
<path d="M10.7011 4.44141V3.57544H11.567V2.70947H12.433V3.57544H13.299V2.70947H14.165V6.17334H13.299V4.44141H12.433V5.30738H10.7011V8.77125H9.83511V4.44141H10.7011Z" fill="#5E5E5E"/>
<path fill-rule="evenodd" clip-rule="evenodd" d="M13.299 7.90528V6.17334H11.5671V9.63721H10.7011V10.5032H11.5671V11.3691H12.433V13.1011H11.5671V13.967H13.299V14.833H14.165V13.1011H13.299V12.2351H14.165V11.3691H15.031V13.1011H15.8969V13.967H16.7629V12.2351H17.6289V11.3691H18.4948V10.5032H19.3608V9.63721H18.4948V10.5032H17.6289V9.63721H15.8969V10.5032H15.031V9.63721H14.165V7.90528H13.299ZM13.299 7.90528V8.77124H12.433V7.90528H13.299ZM15.8969 10.5032H16.7629V12.2351H15.8969V10.5032ZM12.433 11.3691V9.63721H13.299V11.3691H12.433Z" fill="#5E5E5E"/>
<path d="M8.10321 9.63721H9.83515V10.5032H8.96918V11.3691H8.10321V9.63721Z" fill="#5E5E5E"/>
<path fill-rule="evenodd" clip-rule="evenodd" d="M5.50522 11.3691V12.2351H8.10313V11.3691H7.23716V9.63721H4.63925V10.5032H3.77329V9.63721H2.90732V10.5032H3.77329V11.3691H5.50522ZM5.50522 11.3691H6.37119V10.5032H5.50522V11.3691Z" fill="#5E5E5E"/>
<path d="M15.4738 15.6474C15.8616 15.6527 16.2931 15.8213 16.338 16.2496C16.3738 16.591 16.1452 16.9184 15.9475 17.2092C15.199 18.3101 14.2484 19.263 13.3151 20.225C12.5467 21.017 11.7623 21.7939 10.9619 22.5584L10.8999 22.6174L10.7959 22.6839C10.6712 22.7073 10.5358 22.6983 10.45 22.6149C10.3898 22.5564 10.3546 22.477 10.3517 22.3931C10.3478 22.2799 10.3795 22.257 10.4345 22.1652L12.8647 19.4544L12.9661 19.3784L13.0888 19.3469L13.2316 19.3751C14.0329 18.5339 14.8667 17.6972 15.4832 16.7338C15.566 16.6044 15.6538 16.4684 15.6878 16.3304C15.6878 16.3304 15.4327 16.2859 15.1975 16.3137C13.8162 16.4769 12.4883 17.1685 11.1957 17.4674C11.1526 17.4773 11.1093 17.4866 11.0658 17.4948C11.0367 17.5003 11.0075 17.5053 10.9783 17.5096C10.7448 17.5438 10.4651 17.4966 10.3384 17.259C10.1791 16.9602 10.2496 16.5751 10.3285 16.2147C10.3853 15.9555 10.459 15.7 10.5465 15.4498L10.6128 15.3364L10.7143 15.2606C10.8363 15.2296 10.838 15.2295 10.9626 15.2475L11.0715 15.3123L11.1473 15.4138L11.1785 15.5367C11.1601 15.6638 11.14 15.7205 11.1203 15.7811C11.005 16.1389 10.8859 16.5177 10.8993 16.8641L10.8993 16.8646C11.52 16.7651 12.1149 16.5117 12.727 16.3082C13.4406 16.0717 14.1561 15.8276 14.8943 15.7018C15.0856 15.6692 15.2782 15.6459 15.4738 15.6474ZM5.5988 13.5113L5.67928 13.6091L5.71614 13.7303C5.70391 13.8556 5.70342 13.8572 5.64416 13.9682L5.5463 14.0487C5.35877 14.1057 5.1583 14.1122 4.96004 14.1334C3.8593 14.252 2.74599 14.3681 1.69373 14.677C1.4387 14.7518 1.15737 14.8148 0.974761 14.999C1.16511 15.2526 1.53553 15.3734 1.83164 15.4921C2.65956 15.8238 3.55042 15.9967 4.37768 16.3393C5.85545 15.2939 7.35623 14.2799 8.82627 13.227C8.82627 13.227 8.88743 13.1587 8.94545 13.0861C9.28875 12.6591 9.65657 12.2375 10.1116 11.9513C10.3994 11.7703 10.8469 11.6407 10.9809 12.0063C11.0812 12.2801 10.78 12.5518 10.489 12.7908C10.1062 13.1051 9.70474 13.3948 9.30358 13.6838L9.30233 13.6847C8.62 14.5829 8.03948 15.6028 7.86109 16.6776C7.86109 16.6776 8.40194 16.7683 8.65226 16.5856L8.76722 16.5322L8.89381 16.527L9.01277 16.5706L9.10603 16.6564L9.15929 16.7714L9.16459 16.898L9.12097 17.0169L9.03518 17.1102C8.99827 17.1371 8.99551 17.1382 8.97787 17.1494C8.94815 17.1682 8.91741 17.1855 8.88596 17.2013C8.56464 17.3626 8.1848 17.3629 7.82878 17.328C7.82997 17.3409 7.83122 17.3539 7.83257 17.3669C7.87441 17.7478 8.02422 18.169 8.34592 18.2564C8.35442 18.2588 8.36308 18.2608 8.37174 18.2623C8.37645 18.2632 8.38089 18.2639 8.38598 18.2645C8.39009 18.2648 8.38262 18.2643 8.38262 18.2643L8.50629 18.2918L8.61004 18.3646L8.67802 18.4715C8.69978 18.5955 8.69973 18.5971 8.67245 18.72L8.59965 18.8238L8.49276 18.8917L8.36795 18.9137C7.75874 18.8999 7.30552 18.205 7.20339 17.5616C7.18509 17.4462 7.17535 17.3297 7.17232 17.2129C6.90279 17.1477 6.63715 17.0684 6.37991 16.9685L6.26966 16.8985L6.19746 16.7944C6.17077 16.6714 6.17072 16.6697 6.19313 16.5459L6.2617 16.4393L6.36578 16.3671L6.48961 16.3402C6.64029 16.3675 6.67304 16.3852 6.72094 16.4023C6.87654 16.4572 7.03436 16.5059 7.19381 16.5485L7.22287 16.5561C7.22612 16.5371 7.22948 16.5181 7.23289 16.4991C7.35125 15.8565 7.60368 15.2446 7.90477 14.6716C6.93797 15.346 5.97117 16.0121 5.01005 16.688C5.01785 16.6942 5.02553 16.7006 5.03316 16.707C5.27309 16.9098 5.42112 17.2288 5.28889 17.5462C5.11841 17.9557 4.68894 18.1755 4.31852 18.3641C3.61131 18.7244 2.86701 19.0326 2.09413 19.2093C2.074 19.2139 2.05381 19.2182 2.03352 19.2219C1.84154 19.2581 1.60199 19.2335 1.4951 19.0439C1.33186 18.7544 1.66375 18.414 1.94205 18.1697C2.48387 17.6939 3.07582 17.273 3.66397 16.8485L3.74083 16.7932C2.75893 16.4545 1.71002 16.2801 0.839562 15.7233C0.483 15.4952 0.132607 15.1075 0.408743 14.6719C0.645693 14.2982 1.10964 14.1715 1.51085 14.0538C2.7146 13.7005 3.97917 13.5791 5.241 13.4512L5.30086 13.4452C5.39384 13.436 5.394 13.4425 5.48704 13.4516C5.52428 13.4715 5.56157 13.4913 5.5988 13.5113ZM4.42753 17.1004C3.89171 17.4825 3.35726 17.8677 2.838 18.2739L2.81862 18.2891C3.38654 18.0837 3.96835 17.878 4.44901 17.5346C4.54454 17.4664 4.65912 17.3958 4.69186 17.2895C4.69479 17.2794 4.56792 17.1599 4.44506 17.0901C4.44506 17.0901 4.43397 17.0958 4.42753 17.1004ZM19.6196 16.5223C19.7082 16.6116 19.7092 16.613 19.7568 16.7295L19.7562 16.8562L19.7072 16.9731L19.6173 17.0623C18.9258 17.5198 18.2344 18.026 17.4224 18.1792C17.1164 18.2369 16.7363 18.1738 16.5792 17.8625C16.4305 17.5679 16.515 17.2025 16.6219 16.883C16.9339 15.9498 17.4875 15.1082 18.0324 14.2655L18.0501 14.2382L17.96 14.1308C17.9269 14.0094 17.9268 14.0077 17.9427 13.8829L18.0056 13.7729L19.8973 11.598C20.13 11.2838 20.3651 10.9715 20.6047 10.6626L20.7004 10.5796C20.7963 10.5476 20.7961 10.5378 20.8969 10.5449L20.9525 10.5298C21.0773 10.5457 21.079 10.5462 21.1882 10.6087L21.2657 10.7089C21.2988 10.8303 21.2989 10.8321 21.283 10.9569L21.2201 11.0668L20.4041 12.005C19.4513 13.2916 18.5348 14.5724 17.779 15.9345C17.5276 16.3875 17.2615 16.8528 17.1671 17.3501C17.1517 17.4308 17.1544 17.5517 17.1544 17.5517C17.4572 17.5889 17.7861 17.3867 18.1276 17.2061C18.5173 17.0001 18.8909 16.7641 19.2588 16.5207L19.3761 16.4727L19.5028 16.4732C19.5418 16.4896 19.5807 16.5059 19.6196 16.5223ZM23.534 14.4713L23.629 14.5564L23.6838 14.6714L23.6902 14.7987L23.647 14.9187C23.1324 15.7717 22.5619 16.613 21.8328 17.2762C21.4649 17.6108 20.9982 17.9346 20.5305 17.751C20.05 17.5623 19.8535 16.899 20.0371 16.3973C20.3107 15.6501 21.0851 15.1633 21.797 14.7729C21.9908 14.6666 22.1879 14.5658 22.3906 14.4774L22.5144 14.4504C22.6539 14.4755 22.6739 14.4379 22.7783 14.588C22.9322 14.5359 23.0881 14.4899 23.2448 14.4479L23.2865 14.4369L23.4137 14.4293C23.4538 14.4433 23.4939 14.4573 23.534 14.4713ZM22.5759 15.3569C21.9397 15.6175 21.2646 15.9564 20.9471 16.4794L20.9435 16.4854C20.859 16.5786 20.8576 16.5797 20.7439 16.6335L20.6407 16.6385C20.5854 16.8018 20.6111 17.0034 20.7328 17.122C20.8322 17.2188 21.0399 17.0817 21.2131 16.9492C21.7587 16.5318 22.1711 15.952 22.5738 15.3748C22.5738 15.3748 22.6123 15.3421 22.5759 15.3569Z" fill="#0068F3"/>
</svg>
