<svg width="24" height="24" viewBox="0 0 24 24" fill="none" xmlns="http://www.w3.org/2000/svg">
<path fill-rule="evenodd" clip-rule="evenodd"
      d="M12 23C18.0752 23 23 18.0752 23 12C23 5.92487 18.0752 1 12 1C5.92487 1 1 5.92487 1 12C1 18.0752 5.92487 23 12 23ZM5.63919 16.9867H8.1457V6.55958H5.63919V16.9867ZM10.6265 6.55958V16.9867H14.0568C14.9591 16.9819 15.7755 16.767 16.506 16.3421C17.2412 15.9125 17.8094 15.3205 18.2105 14.5661C18.6162 13.807 18.8191 12.95 18.8191 11.9952V11.5153C18.8144 10.57 18.6043 9.71779 18.189 8.95865C17.7784 8.19478 17.2054 7.60515 16.4702 7.18979C15.7349 6.76965 14.9066 6.55958 13.9851 6.55958H10.6265ZM13.1401 15.0531V8.50031H13.9851C14.7251 8.50031 15.2886 8.75573 15.6752 9.26665C16.062 9.77749 16.2553 10.5366 16.2553 11.5439V11.9952C16.2553 13.0073 16.062 13.7711 15.6752 14.2868C15.2886 14.7977 14.7347 15.0531 14.0138 15.0531H13.1401Z"
      fill="url(#paint0_linear_6523_25104)" />
<path fill-rule="evenodd" clip-rule="evenodd"
      d="M5.63919 16.9867H8.1457V6.55957H5.63919V16.9867ZM10.6265 6.55957V16.9867H14.0568C14.9591 16.9819 15.7755 16.767 16.506 16.3421C17.2412 15.9125 17.8094 15.3204 18.2105 14.5661C18.6162 13.807 18.8191 12.9499 18.8191 11.9951V11.5153C18.8144 10.57 18.6043 9.71778 18.189 8.95863C17.7784 8.19477 17.2054 7.60514 16.4702 7.18977C15.7349 6.76964 14.9066 6.55957 13.9851 6.55957H10.6265ZM13.1401 15.0531V8.5003H13.9851C14.7251 8.5003 15.2886 8.75572 15.6752 9.26663C16.062 9.77747 16.2553 10.5365 16.2553 11.5439V11.9951C16.2553 13.0073 16.062 13.7711 15.6752 14.2868C15.2886 14.7977 14.7347 15.0531 14.0138 15.0531H13.1401Z"
      fill="white" />
<defs>
<linearGradient id="paint0_linear_6523_25104" x1="12" y1="1" x2="12" y2="23" gradientUnits="userSpaceOnUse">
<stop stop-color="#F30084" />
<stop offset="1" stop-color="#7B0495" />
</linearGradient>
</defs>
</svg>
