<svg width="24" height="24" viewBox="0 0 24 24" fill="none" xmlns="http://www.w3.org/2000/svg">
<path d="M12 3C12.5523 3 13 2.55228 13 2C13 1.44772 12.5523 1 12 1C11.4477 1 11 1.44772 11 2C11 2.55228 11.4477 3 12 3Z" fill="#616161"/>
<path d="M12 23C12.5523 23 13 22.5523 13 22C13 21.4477 12.5523 21 12 21C11.4477 21 11 21.4477 11 22C11 22.5523 11.4477 23 12 23Z" fill="#616161"/>
<path d="M21 12C21 12.5523 21.4477 13 22 13C22.5523 13 23 12.5523 23 12C23 11.4477 22.5523 11 22 11C21.4477 11 21 11.4477 21 12Z" fill="#616161"/>
<path d="M1 12C1 12.5523 1.44772 13 2 13C2.55228 13 3 12.5523 3 12C3 11.4477 2.55228 11 2 11C1.44772 11 1 11.4477 1 12Z" fill="#616161"/>
<path d="M15.4441 3.68508C15.9544 3.89643 16.5393 3.65413 16.7507 3.14388C16.962 2.63364 16.7197 2.04867 16.2095 1.83732C15.6993 1.62597 15.1143 1.86827 14.9029 2.37851C14.6916 2.88876 14.9339 3.47373 15.4441 3.68508Z" fill="#616161"/>
<path d="M7.79047 22.1627C8.30071 22.374 8.88568 22.1317 9.09703 21.6215C9.30838 21.1112 9.06608 20.5263 8.55583 20.3149C8.04559 20.1036 7.46062 20.3459 7.24927 20.8561C7.03792 21.3663 7.28022 21.9513 7.79047 22.1627Z" fill="#616161"/>
<path d="M20.3149 15.4441C20.1035 15.9544 20.3458 16.5394 20.8561 16.7507C21.3663 16.9621 21.9513 16.7198 22.1627 16.2095C22.374 15.6993 22.1317 15.1143 21.6215 14.903C21.1112 14.6916 20.5262 14.9339 20.3149 15.4441Z" fill="#616161"/>
<path d="M1.83731 7.79048C1.62596 8.30072 1.86826 8.88569 2.3785 9.09704C2.88875 9.30839 3.47372 9.06609 3.68507 8.55584C3.89642 8.0456 3.65411 7.46063 3.14387 7.24928C2.63363 7.03793 2.04866 7.28023 1.83731 7.79048Z" fill="#616161"/>
<path d="M5.63601 5.63604C6.02654 5.24551 6.02654 4.61235 5.63601 4.22182C5.24549 3.8313 4.61232 3.8313 4.2218 4.22182C3.83128 4.61235 3.83128 5.24551 4.2218 5.63604C4.61232 6.02656 5.24549 6.02656 5.63601 5.63604Z" fill="#616161"/>
<path d="M19.7781 19.7782C20.1687 19.3876 20.1687 18.7545 19.7781 18.364C19.3876 17.9734 18.7545 17.9734 18.3639 18.364C17.9734 18.7545 17.9734 19.3876 18.3639 19.7782C18.7545 20.1687 19.3876 20.1687 19.7781 19.7782Z" fill="#616161"/>
<path d="M18.3639 5.63604C18.7545 6.02657 19.3876 6.02657 19.7782 5.63604C20.1687 5.24552 20.1687 4.61235 19.7782 4.22183C19.3876 3.8313 18.7545 3.8313 18.3639 4.22183C17.9734 4.61235 17.9734 5.24552 18.3639 5.63604Z" fill="#616161"/>
<path d="M4.2218 19.7782C4.61233 20.1687 5.24549 20.1687 5.63601 19.7782C6.02654 19.3877 6.02654 18.7545 5.63601 18.364C5.24549 17.9734 4.61232 17.9734 4.2218 18.364C3.83128 18.7545 3.83128 19.3877 4.2218 19.7782Z" fill="#616161"/>
<path d="M20.3149 8.55585C20.5262 9.06609 21.1112 9.3084 21.6215 9.09705C22.1317 8.8857 22.374 8.30073 22.1626 7.79048C21.9513 7.28024 21.3663 7.03794 20.8561 7.24929C20.3458 7.46064 20.1035 8.0456 20.3149 8.55585Z" fill="#616161"/>
<path d="M1.8373 16.2095C2.04865 16.7198 2.63362 16.9621 3.14386 16.7507C3.65411 16.5394 3.89641 15.9544 3.68506 15.4442C3.47371 14.9339 2.88874 14.6916 2.37849 14.903C1.86825 15.1143 1.62595 15.6993 1.8373 16.2095Z" fill="#616161"/>
<path d="M15.4441 20.3149C14.9339 20.5263 14.6916 21.1112 14.9029 21.6215C15.1143 22.1317 15.6992 22.374 16.2095 22.1627C16.7197 21.9513 16.962 21.3664 16.7507 20.8561C16.5393 20.3459 15.9544 20.1036 15.4441 20.3149Z" fill="#616161"/>
<path d="M7.79045 1.83733C7.28021 2.04868 7.03791 2.63364 7.24926 3.14389C7.46061 3.65413 8.04557 3.89643 8.55582 3.68508C9.06606 3.47373 9.30836 2.88877 9.09701 2.37852C8.88566 1.86828 8.3007 1.62597 7.79045 1.83733Z" fill="#616161"/>
<path d="M14 10C14 11.1046 13.1046 12 12 12C10.8954 12 10 11.1046 10 10C10 8.89543 10.8954 8 12 8C13.1046 8 14 8.89543 14 10Z" fill="#F14950"/>
<path d="M13 13C13 13.5523 12.5523 14 12 14C11.4477 14 11 13.5523 11 13C11 12.4477 11.4477 12 12 12C12.5523 12 13 12.4477 13 13Z" fill="#F14950"/>
<path d="M13 15C13 15.5523 12.5523 16 12 16C11.4477 16 11 15.5523 11 15C11 14.4477 11.4477 14 12 14C12.5523 14 13 14.4477 13 15Z" fill="#F14950"/>
</svg>
