<svg width="24" height="24" viewBox="0 0 24 24" fill="none" xmlns="http://www.w3.org/2000/svg">
    <path d="M2 7.51724C2 4.47015 4.47015 2 7.51724 2H16.4828C19.5298 2 22 4.47015 22 7.51724V16.4828C22 19.5298 19.5298 22 16.4828 22H7.51724C4.47015 22 2 19.5298 2 16.4828V7.51724Z"
          fill="#D5FF5D"/>
    <path fill-rule="evenodd" clip-rule="evenodd"
          d="M16.3802 12.8846C16.5271 13.2043 16.9597 13.3173 17.2086 13.0685L17.6652 12.6122C18.1369 12.1406 18.9017 12.1406 19.3735 12.6122C19.8452 13.0837 19.8452 13.8482 19.3735 14.3197L15.6839 18.0075C14.7976 19.0591 13.4703 19.7273 11.987 19.7273C10.4401 19.7273 9.06296 19.0007 8.1786 17.8704L4.6265 14.3199C4.15477 13.8484 4.15477 13.0839 4.62651 12.6124C5.09824 12.1409 5.86306 12.1409 6.33479 12.6124L6.78439 13.0618C7.02789 13.3052 7.45062 13.1957 7.59444 12.8829C7.62285 12.8211 7.63831 12.7548 7.63831 12.6868L7.63829 7.17043C7.63829 6.50362 8.17911 5.96306 8.84623 5.96306C9.51338 5.96306 10.0542 6.50362 10.0542 7.17043V9.96107C10.0542 10.2012 10.3003 10.3642 10.5294 10.2918C10.6743 10.246 10.7791 10.1141 10.7791 9.96213V5.48012C10.7791 4.8133 11.3199 4.27274 11.987 4.27274C12.6541 4.27274 13.1949 4.8133 13.1949 5.48012V9.96223C13.1949 10.1142 13.2997 10.2461 13.4446 10.2918C13.6736 10.3642 13.9196 10.2012 13.9196 9.96119V7.17043C13.9196 6.50362 14.4604 5.96306 15.1276 5.96306C15.7947 5.96306 16.3355 6.50362 16.3355 7.17043V12.6846C16.3355 12.7539 16.3513 12.8215 16.3802 12.8846V12.8846Z"
          fill="#FD4848"/>
    <path fill-rule="evenodd" clip-rule="evenodd"
          d="M11.021 15.3808C11.021 14.8474 11.4536 14.415 11.9872 14.415C12.5208 14.415 12.9534 14.8474 12.9534 15.3808C12.9534 15.9141 12.5208 16.3465 11.9872 16.3465C11.4536 16.3465 11.021 15.9141 11.021 15.3808ZM11.9873 15.8636C12.2541 15.8636 12.4705 15.6474 12.4705 15.3806C12.4705 15.1139 12.2541 14.8977 11.9873 14.8977C11.7204 14.8977 11.5041 15.1139 11.5041 15.3806C11.5041 15.6474 11.7204 15.8636 11.9873 15.8636Z"
          fill="#D5FF5C"/>
    <path fill-rule="evenodd" clip-rule="evenodd"
          d="M11.9873 13.6905C11.0534 13.6905 10.2963 14.4473 10.2963 15.3807C10.2963 16.3141 11.0534 17.0708 11.9873 17.0708C12.9212 17.0708 13.6782 16.3141 13.6782 15.3807C13.6782 14.4472 12.9212 13.6905 11.9873 13.6905ZM11.9872 14.1734C11.3201 14.1734 10.7793 14.7139 10.7793 15.3808C10.7793 16.0476 11.3201 16.5882 11.9872 16.5882C12.6543 16.5882 13.1952 16.0476 13.1952 15.3808C13.1952 14.7139 12.6543 14.1734 11.9872 14.1734Z"
          fill="#D5FF5C"/>
    <path fill-rule="evenodd" clip-rule="evenodd"
          d="M13.9697 13.6118C13.3901 13.2441 12.7119 12.9659 11.9872 12.9659C10.9198 12.9659 9.95346 13.5696 9.25395 14.1732C9.04773 14.3512 8.85192 14.5401 8.66598 14.7381C8.66604 14.7378 8.66593 14.7384 8.66598 14.7381C8.41583 15.0034 8.24289 15.2209 8.16639 15.3213C8.15097 15.341 8.13562 15.3607 8.12036 15.3805C8.13443 15.3988 8.14857 15.4171 8.16278 15.4353C8.23735 15.5334 8.41198 15.7545 8.66615 16.0241C8.66611 16.0239 8.66619 16.0243 8.66615 16.0241C8.8521 16.2221 9.04786 16.4101 9.25395 16.588C9.95346 17.1917 10.9198 17.7954 11.9872 17.7954C12.712 17.7954 13.3903 17.517 13.97 17.1493C13.9698 17.1495 13.9701 17.1492 13.97 17.1493C14.3514 16.9075 14.6898 16.6274 14.9712 16.362C14.9712 16.3618 14.9711 16.3621 14.9712 16.362C15.095 16.2451 15.2079 16.1308 15.3082 16.0244C15.3082 16.0246 15.3082 16.0243 15.3082 16.0244C15.5845 15.7315 15.7669 15.496 15.8292 15.4129C15.8375 15.4021 15.8458 15.3913 15.8541 15.3805C15.8443 15.3678 15.8345 15.3551 15.8247 15.3425C15.7584 15.2544 15.5781 15.0226 15.3081 14.7365C15.3081 14.7366 15.3081 14.7363 15.3081 14.7365C15.2078 14.6301 15.0951 14.5165 14.9713 14.3997C14.9712 14.3996 14.9713 14.3998 14.9713 14.3997C14.6898 14.1342 14.3512 13.8537 13.9697 13.6118C13.9699 13.6119 13.9696 13.6117 13.9697 13.6118ZM10.1631 13.7977C9.96829 13.9194 9.78337 14.053 9.61043 14.1912C9.43083 14.5491 9.32974 14.9531 9.32974 15.3807C9.32974 15.8082 9.4308 16.2122 9.61034 16.57C9.78323 16.7082 9.96811 16.8417 10.1628 16.9635C9.79449 16.5396 9.57152 15.9862 9.57152 15.3807C9.57152 14.7751 9.79459 14.2215 10.1631 13.7977ZM13.8116 16.9635C14.0063 16.8417 14.1912 16.7082 14.3641 16.57C14.5436 16.2122 14.6447 15.8082 14.6447 15.3807C14.6447 14.9531 14.5436 14.5491 14.364 14.1912C14.1911 14.053 14.0061 13.9194 13.8114 13.7977C14.1798 14.2215 14.4029 14.7751 14.4029 15.3807C14.4029 15.9862 14.1799 16.5396 13.8116 16.9635ZM15.0832 14.851C15.1124 15.0232 15.1277 15.2001 15.1277 15.3807C15.1277 15.5612 15.1124 15.7381 15.0832 15.9103C15.1896 15.7994 15.2831 15.6956 15.3622 15.6043C15.367 15.5304 15.3695 15.4558 15.3695 15.3807C15.3695 15.3055 15.367 15.2309 15.3622 15.157C15.2831 15.0656 15.1896 14.9619 15.0832 14.851ZM8.61225 15.6042C8.69116 15.6954 8.78468 15.7991 8.89124 15.9101C8.86199 15.738 8.84675 15.5611 8.84675 15.3807C8.84675 15.2002 8.86199 15.0233 8.89125 14.8511C8.78469 14.9621 8.69117 15.0659 8.61226 15.1571C8.60743 15.231 8.60498 15.3055 8.60498 15.3807C8.60498 15.4558 8.60743 15.5303 8.61225 15.6042ZM10.0546 15.3807C10.0546 14.3138 10.9199 13.4489 11.9873 13.4489C13.0547 13.4489 13.92 14.3138 13.92 15.3807C13.92 16.4476 13.0547 17.3125 11.9873 17.3125C10.9199 17.3125 10.0546 16.4476 10.0546 15.3807Z"
          fill="#D5FF5C"/>
</svg>
