<svg width="24" height="24" viewBox="0 0 24 24" fill="none" xmlns="http://www.w3.org/2000/svg">
<path d="M1.40911 9.35555C0.942172 8.54676 1.21927 7.51257 2.02804 7.04562L9.35 2.81817C10.1588 2.35122 11.1929 2.62833 11.6599 3.43711L17.5781 13.6881C18.0451 14.4969 17.768 15.5311 16.9592 15.9981L9.63724 20.2255C8.82848 20.6925 7.79432 20.4154 7.32738 19.6066L1.40911 9.35555Z" fill="#FFED00"/>
<path fill-rule="evenodd" clip-rule="evenodd" d="M9.56136 3.18428L2.2394 7.41173C1.63283 7.76194 1.425 8.53759 1.77521 9.14417L7.69348 19.3952C8.04368 20.0018 8.8193 20.2096 9.42587 19.8594L16.7478 15.632C17.3544 15.2817 17.5622 14.5061 17.212 13.8995L11.2938 3.64848C10.9436 3.0419 10.1679 2.83406 9.56136 3.18428ZM2.02804 7.04562C1.21927 7.51257 0.942172 8.54676 1.40911 9.35555L7.32738 19.6066C7.79432 20.4154 8.82848 20.6925 9.63724 20.2255L16.9592 15.9981C17.768 15.5311 18.0451 14.4969 17.5781 13.6881L11.6599 3.43711C11.1929 2.62833 10.1588 2.35122 9.35 2.81817L2.02804 7.04562Z" fill="#000072"/>
<path fill-rule="evenodd" clip-rule="evenodd" d="M4.5223 11.7885C4.46394 11.6874 4.49857 11.5582 4.59967 11.4998L11.9216 7.27233C12.0227 7.21396 12.152 7.2486 12.2104 7.3497C12.2687 7.4508 12.2341 7.58007 12.133 7.63844L4.81104 11.8659C4.70994 11.9243 4.58067 11.8896 4.5223 11.7885Z" fill="#000072"/>
<path fill-rule="evenodd" clip-rule="evenodd" d="M5.64959 13.7412C5.59122 13.6401 5.62586 13.5108 5.72696 13.4524L13.0489 9.22497C13.15 9.1666 13.2793 9.20124 13.3377 9.30233C13.396 9.40343 13.3614 9.53271 13.2603 9.59107L5.93832 13.8185C5.83723 13.8769 5.70796 13.8423 5.64959 13.7412Z" fill="#000072"/>
<path fill-rule="evenodd" clip-rule="evenodd" d="M6.77688 15.6938C6.71851 15.5927 6.75315 15.4634 6.85425 15.4051L14.1762 11.1776C14.2773 11.1192 14.4066 11.1539 14.4649 11.255C14.5233 11.3561 14.4887 11.4853 14.3876 11.5437L7.06561 15.7712C6.96452 15.8295 6.83525 15.7949 6.77688 15.6938Z" fill="#000072"/>
<path d="M4.45115 9.55183C3.98421 8.74305 4.26132 7.70886 5.07008 7.24191L13.6124 2.30988C14.4211 1.84293 15.4553 2.12004 15.9222 2.92883L22.686 14.6443C23.1529 15.4531 22.8758 16.4873 22.067 16.9542L13.5247 21.8862C12.716 22.3532 11.6818 22.0761 11.2149 21.2673L4.45115 9.55183Z" fill="white"/>
<path fill-rule="evenodd" clip-rule="evenodd" d="M13.8237 2.67599L5.28144 7.60802C4.67487 7.95823 4.46705 8.73387 4.81725 9.34046L11.581 21.0559C11.9312 21.6625 12.7068 21.8703 13.3134 21.5201L21.8557 16.5881C22.4622 16.2379 22.6701 15.4622 22.3199 14.8557L15.5561 3.1402C15.2059 2.53361 14.4303 2.32578 13.8237 2.67599ZM5.07008 7.24191C4.26132 7.70886 3.98421 8.74305 4.45115 9.55183L11.2149 21.2673C11.6818 22.0761 12.716 22.3532 13.5247 21.8862L22.067 16.9542C22.8758 16.4873 23.1529 15.4531 22.686 14.6443L15.9222 2.92883C15.4553 2.12004 14.4211 1.84293 13.6124 2.30988L5.07008 7.24191Z" fill="#000072"/>
<ellipse cx="0.845473" cy="0.845484" rx="0.845473" ry="0.845484" transform="matrix(0.86602 -0.50001 0.49999 0.866031 19.2967 14.9741)" fill="#FF1E97"/>
<path d="M15.8589 10.2503H15.5575V9.56708C15.5575 8.81323 15.1553 8.11665 14.5024 7.73972C13.8496 7.3628 13.0452 7.3628 12.3924 7.73972C11.7395 8.11665 11.3374 8.81323 11.3374 9.56708V10.2503H11.0359C10.4255 10.2503 9.93066 10.7452 9.93066 11.3556V14.7719C9.93066 15.3823 10.4255 15.8771 11.0359 15.8771H15.8589C16.4693 15.8771 16.9642 15.3823 16.9642 14.7719V11.3556C16.9642 10.7452 16.4693 10.2503 15.8589 10.2503ZM13.4474 8.18048C14.2132 8.18048 14.834 8.80128 14.834 9.56708V10.2503H12.0608V9.56708C12.0608 9.19933 12.2069 8.84664 12.4669 8.5866C12.727 8.32656 13.0797 8.18048 13.4474 8.18048ZM10.6541 11.3556C10.6648 11.1526 10.8327 10.9936 11.0359 10.9939H15.8589C15.9548 10.9939 16.0468 11.032 16.1147 11.0998C16.1825 11.1677 16.2206 11.2597 16.2206 11.3556V14.7719C16.2206 14.9716 16.0587 15.1336 15.8589 15.1336H11.0359C10.8327 15.1339 10.6648 14.9749 10.6541 14.7719V11.3556Z" fill="#000072"/>
<path d="M13.0657 13.0437V13.948C13.0758 14.1546 13.241 14.3198 13.4475 14.3299C13.5475 14.3275 13.6421 14.2839 13.7088 14.2093C13.7741 14.1381 13.81 14.0447 13.8092 13.948V13.0437C13.9611 12.9299 14.0504 12.7512 14.0504 12.5614C14.0512 12.3959 13.9862 12.2368 13.8695 12.1193C13.7595 12.0038 13.607 11.9385 13.4475 11.9385C13.2823 11.9385 13.1239 12.0041 13.007 12.1209C12.8902 12.2378 12.8246 12.3962 12.8246 12.5614C12.833 12.7491 12.9206 12.9244 13.0657 13.0437Z" fill="#000072"/>
</svg>
