<svg width="92" height="78" viewBox="0 0 92 78" fill="none" xmlns="http://www.w3.org/2000/svg">
<path fill-rule="evenodd" clip-rule="evenodd" d="M21.0234 1.77533C21.0234 0.794841 21.8279 0 22.8203 0H69.1797C70.1721 0 70.9766 0.794842 70.9766 1.77533V13.4925H43.8438C39.8742 13.4925 36.6562 16.6719 36.6562 20.5938V27.1625H21.0234V1.77533ZM42.0469 20.5938C42.0469 19.6133 42.8514 18.8185 43.8438 18.8185H90.2031C91.1955 18.8185 92 19.6133 92 20.5938V52.5497C92 53.5302 91.1955 54.325 90.2031 54.325H78.8828V62.5514C78.8828 64.0196 77.1816 64.8533 75.9985 63.9647L63.1635 54.325H43.8438C42.8514 54.325 42.0469 53.5302 42.0469 52.5497V20.5938ZM36.6562 32.4885V52.5497C36.6562 56.4716 39.8742 59.651 43.8438 59.651H49.9531V66.2197C49.9531 67.2002 49.1486 67.9951 48.1562 67.9951H28.8365L16.0015 77.6348C14.8184 78.5233 13.1172 77.6897 13.1172 76.2214V67.9951H1.79688C0.804492 67.9951 0 67.2002 0 66.2197V34.2638C0 33.2833 0.804492 32.4885 1.79688 32.4885H36.6562ZM57 35.0385V33.2736L67 27.625L77 33.2736V35.0385L67 41.231L57 35.0385ZM59.5515 34.1969L67 29.9896L74.4485 34.1969L67 38.8094L59.5515 34.1969ZM62.3615 35.2451L67 32.625L71.6385 35.2451L69.6416 36.4817L67 34.9896L64.3584 36.4817L62.3615 35.2451ZM57 38.2736L59.1478 37.0604L61.1447 38.297L59.5515 39.1969L67 43.8094L74.4485 39.1969L72.8553 38.297L74.8522 37.0604L77 38.2736V40.0385L67 46.231L57 40.0385V38.2736Z" fill="url(#paint0_linear_3033_29274)" fill-opacity="0.5"/>
<defs>
<linearGradient id="paint0_linear_3033_29274" x1="46" y1="0" x2="46" y2="78" gradientUnits="userSpaceOnUse">
<stop stop-color="#DDDDDD"/>
<stop offset="1" stop-color="#DDDDDD" stop-opacity="0.3"/>
</linearGradient>
</defs>
</svg>
