<svg
  width="14"
  height="14"
  viewBox="0 0 14 14"
  fill="none"
  xmlns="http://www.w3.org/2000/svg"
>
  <path
    d="M6.66992 0.5C5.38435 0.5 4.12764 0.881218 3.05872 1.59545C1.9898 2.30968 1.15668 3.32484 0.664708 4.51256C0.172738 5.70028 0.0440165 7.00721 0.29482 8.26809C0.545624 9.52896 1.16469 10.6872 2.07373 11.5962C2.98277 12.5052 4.14096 13.1243 5.40184 13.3751C6.66271 13.6259 7.96965 13.4972 9.15737 13.0052C10.3451 12.5132 11.3602 11.6801 12.0745 10.6112C12.7887 9.54229 13.1699 8.28558 13.1699 7C13.1681 5.27665 12.4827 3.62441 11.2641 2.40582C10.0455 1.18722 8.39327 0.50182 6.66992 0.5ZM6.41992 3.5C6.56826 3.5 6.71327 3.54399 6.8366 3.6264C6.95994 3.70881 7.05607 3.82594 7.11283 3.96299C7.1696 4.10003 7.18445 4.25083 7.15551 4.39632C7.12657 4.5418 7.05514 4.67544 6.95025 4.78033C6.84537 4.88522 6.71173 4.95665 6.56624 4.98559C6.42076 5.01453 6.26996 4.99968 6.13291 4.94291C5.99587 4.88614 5.87873 4.79001 5.79632 4.66668C5.71391 4.54334 5.66992 4.39834 5.66992 4.25C5.66992 4.05109 5.74894 3.86032 5.88959 3.71967C6.03025 3.57902 6.22101 3.5 6.41992 3.5ZM7.16992 10.5C6.90471 10.5 6.65035 10.3946 6.46282 10.2071C6.27528 10.0196 6.16992 9.76522 6.16992 9.5V7C6.03732 7 5.91014 6.94732 5.81637 6.85355C5.7226 6.75979 5.66992 6.63261 5.66992 6.5C5.66992 6.36739 5.7226 6.24021 5.81637 6.14645C5.91014 6.05268 6.03732 6 6.16992 6C6.43514 6 6.6895 6.10536 6.87703 6.29289C7.06457 6.48043 7.16992 6.73478 7.16992 7V9.5C7.30253 9.5 7.42971 9.55268 7.52348 9.64645C7.61725 9.74021 7.66992 9.86739 7.66992 10C7.66992 10.1326 7.61725 10.2598 7.52348 10.3536C7.42971 10.4473 7.30253 10.5 7.16992 10.5Z"
    fill="black"
    fill-opacity="0.15"
  />
</svg>
