<svg width="145" height="32" viewBox="0 0 145 32" fill="none" xmlns="http://www.w3.org/2000/svg">
<rect y="2" width="8.23529" height="8.23529" rx="4.11765" fill="#DF405D"/>
<rect x="19.7647" y="2" width="8.23529" height="8.23529" rx="2" fill="#F1AC26"/>
<rect x="9.88239" y="11.8824" width="8.23529" height="8.23529" rx="4.11765" fill="#DF405D"/>
<rect y="11.8824" width="8.23529" height="8.23529" rx="2" fill="#F1AC26"/>
<rect y="21.7647" width="8.23529" height="8.23529" rx="2" fill="#F1AC26"/>
<rect x="9.88239" y="21.7647" width="8.23529" height="8.23529" rx="2" fill="#F1AC26"/>
<rect x="19.7647" y="21.7647" width="8.23529" height="8.23529" rx="4.11765" fill="#DF405D"/>
<path d="M51.4266 8.644V22H48.7446V20.884C48.0486 21.724 47.0406 22.144 45.7206 22.144C44.8086 22.144 43.9806 21.94 43.2366 21.532C42.5046 21.124 41.9286 20.542 41.5086 19.786C41.0886 19.03 40.8786 18.154 40.8786 17.158C40.8786 16.162 41.0886 15.286 41.5086 14.53C41.9286 13.774 42.5046 13.192 43.2366 12.784C43.9806 12.376 44.8086 12.172 45.7206 12.172C46.9566 12.172 47.9226 12.562 48.6186 13.342V8.644H51.4266ZM46.2066 19.84C46.9146 19.84 47.5026 19.6 47.9706 19.12C48.4386 18.628 48.6726 17.974 48.6726 17.158C48.6726 16.342 48.4386 15.694 47.9706 15.214C47.5026 14.722 46.9146 14.476 46.2066 14.476C45.4866 14.476 44.8926 14.722 44.4246 15.214C43.9566 15.694 43.7226 16.342 43.7226 17.158C43.7226 17.974 43.9566 18.628 44.4246 19.12C44.8926 19.6 45.4866 19.84 46.2066 19.84ZM58.6335 22.144C57.6135 22.144 56.6955 21.934 55.8795 21.514C55.0755 21.082 54.4455 20.488 53.9895 19.732C53.5335 18.976 53.3055 18.118 53.3055 17.158C53.3055 16.198 53.5335 15.34 53.9895 14.584C54.4455 13.828 55.0755 13.24 55.8795 12.82C56.6955 12.388 57.6135 12.172 58.6335 12.172C59.6535 12.172 60.5655 12.388 61.3695 12.82C62.1735 13.24 62.8035 13.828 63.2595 14.584C63.7155 15.34 63.9435 16.198 63.9435 17.158C63.9435 18.118 63.7155 18.976 63.2595 19.732C62.8035 20.488 62.1735 21.082 61.3695 21.514C60.5655 21.934 59.6535 22.144 58.6335 22.144ZM58.6335 19.84C59.3535 19.84 59.9415 19.6 60.3975 19.12C60.8655 18.628 61.0995 17.974 61.0995 17.158C61.0995 16.342 60.8655 15.694 60.3975 15.214C59.9415 14.722 59.3535 14.476 58.6335 14.476C57.9135 14.476 57.3195 14.722 56.8515 15.214C56.3835 15.694 56.1495 16.342 56.1495 17.158C56.1495 17.974 56.3835 18.628 56.8515 19.12C57.3195 19.6 57.9135 19.84 58.6335 19.84ZM67.4331 11.776H63.4011V9.4H74.3811V11.776H70.3491V22H67.4331V11.776ZM78.2231 13.594C78.5591 13.126 79.0091 12.772 79.5731 12.532C80.1491 12.292 80.8091 12.172 81.5531 12.172V14.764C81.2411 14.74 81.0311 14.728 80.9231 14.728C80.1191 14.728 79.4891 14.956 79.0331 15.412C78.5771 15.856 78.3491 16.528 78.3491 17.428V22H75.5411V12.316H78.2231V13.594ZM92.6209 17.194C92.6209 17.23 92.6029 17.482 92.5669 17.95H85.2409C85.3729 18.55 85.6849 19.024 86.1769 19.372C86.6689 19.72 87.2809 19.894 88.0129 19.894C88.5169 19.894 88.9609 19.822 89.3449 19.678C89.7409 19.522 90.1069 19.282 90.4429 18.958L91.9369 20.578C91.0249 21.622 89.6929 22.144 87.9409 22.144C86.8489 22.144 85.8829 21.934 85.0429 21.514C84.2029 21.082 83.5549 20.488 83.0989 19.732C82.6429 18.976 82.4149 18.118 82.4149 17.158C82.4149 16.21 82.6369 15.358 83.0809 14.602C83.5369 13.834 84.1549 13.24 84.9349 12.82C85.7269 12.388 86.6089 12.172 87.5809 12.172C88.5289 12.172 89.3869 12.376 90.1549 12.784C90.9229 13.192 91.5229 13.78 91.9549 14.548C92.3989 15.304 92.6209 16.186 92.6209 17.194ZM87.5989 14.296C86.9629 14.296 86.4289 14.476 85.9969 14.836C85.5649 15.196 85.3009 15.688 85.2049 16.312H89.9749C89.8789 15.7 89.6149 15.214 89.1829 14.854C88.7509 14.482 88.2229 14.296 87.5989 14.296ZM98.1327 12.172C99.6327 12.172 100.785 12.532 101.589 13.252C102.393 13.96 102.795 15.034 102.795 16.474V22H100.167V20.794C99.6387 21.694 98.6547 22.144 97.2147 22.144C96.4707 22.144 95.8227 22.018 95.2707 21.766C94.7307 21.514 94.3167 21.166 94.0287 20.722C93.7407 20.278 93.5967 19.774 93.5967 19.21C93.5967 18.31 93.9327 17.602 94.6047 17.086C95.2887 16.57 96.3387 16.312 97.7547 16.312H99.9867C99.9867 15.7 99.8007 15.232 99.4287 14.908C99.0567 14.572 98.4987 14.404 97.7547 14.404C97.2387 14.404 96.7287 14.488 96.2247 14.656C95.7327 14.812 95.3127 15.028 94.9647 15.304L93.9567 13.342C94.4847 12.97 95.1147 12.682 95.8467 12.478C96.5907 12.274 97.3527 12.172 98.1327 12.172ZM97.9167 20.254C98.3967 20.254 98.8227 20.146 99.1947 19.93C99.5667 19.702 99.8307 19.372 99.9867 18.94V17.95H98.0607C96.9087 17.95 96.3327 18.328 96.3327 19.084C96.3327 19.444 96.4707 19.732 96.7467 19.948C97.0347 20.152 97.4247 20.254 97.9167 20.254ZM108.594 22.144C107.79 22.144 107.004 22.048 106.236 21.856C105.468 21.652 104.856 21.4 104.4 21.1L105.336 19.084C105.768 19.36 106.29 19.588 106.902 19.768C107.514 19.936 108.114 20.02 108.702 20.02C109.89 20.02 110.484 19.726 110.484 19.138C110.484 18.862 110.322 18.664 109.998 18.544C109.674 18.424 109.176 18.322 108.504 18.238C107.712 18.118 107.058 17.98 106.542 17.824C106.026 17.668 105.576 17.392 105.192 16.996C104.82 16.6 104.634 16.036 104.634 15.304C104.634 14.692 104.808 14.152 105.156 13.684C105.516 13.204 106.032 12.832 106.704 12.568C107.388 12.304 108.192 12.172 109.116 12.172C109.8 12.172 110.478 12.25 111.15 12.406C111.834 12.55 112.398 12.754 112.842 13.018L111.906 15.016C111.054 14.536 110.124 14.296 109.116 14.296C108.516 14.296 108.066 14.38 107.766 14.548C107.466 14.716 107.316 14.932 107.316 15.196C107.316 15.496 107.478 15.706 107.802 15.826C108.126 15.946 108.642 16.06 109.35 16.168C110.142 16.3 110.79 16.444 111.294 16.6C111.798 16.744 112.236 17.014 112.608 17.41C112.98 17.806 113.166 18.358 113.166 19.066C113.166 19.666 112.986 20.2 112.626 20.668C112.266 21.136 111.738 21.502 111.042 21.766C110.358 22.018 109.542 22.144 108.594 22.144ZM124.655 12.316V22H121.991V20.848C121.619 21.268 121.175 21.592 120.659 21.82C120.143 22.036 119.585 22.144 118.985 22.144C117.713 22.144 116.705 21.778 115.961 21.046C115.217 20.314 114.845 19.228 114.845 17.788V12.316H117.653V17.374C117.653 18.934 118.307 19.714 119.615 19.714C120.287 19.714 120.827 19.498 121.235 19.066C121.643 18.622 121.847 17.968 121.847 17.104V12.316H124.655ZM129.938 13.594C130.274 13.126 130.724 12.772 131.288 12.532C131.864 12.292 132.524 12.172 133.268 12.172V14.764C132.956 14.74 132.746 14.728 132.638 14.728C131.834 14.728 131.204 14.956 130.748 15.412C130.292 15.856 130.064 16.528 130.064 17.428V22H127.256V12.316H129.938V13.594ZM144.884 12.316L140.51 22.594C140.066 23.71 139.514 24.496 138.854 24.952C138.206 25.408 137.42 25.636 136.496 25.636C135.992 25.636 135.494 25.558 135.002 25.402C134.51 25.246 134.108 25.03 133.796 24.754L134.822 22.756C135.038 22.948 135.284 23.098 135.56 23.206C135.848 23.314 136.13 23.368 136.406 23.368C136.79 23.368 137.102 23.272 137.342 23.08C137.582 22.9 137.798 22.594 137.99 22.162L138.026 22.072L133.832 12.316H136.73L139.448 18.886L142.184 12.316H144.884Z" fill="#DF405D"/>
</svg>
