<svg width="56" height="56" viewBox="0 0 56 56" fill="none" xmlns="http://www.w3.org/2000/svg">
<path d="M22 18.8125L27.7006 16.067C27.8901 15.9777 28.1099 15.9777 28.2994 16.067L33.9531 18.8125V26.5938L40 29.4062V36.7413C40 37.0135 39.8427 37.2615 39.5963 37.3776L33.9531 40L28 37.1875L22 40L16.4037 37.3776C16.1573 37.2615 16 37.0135 16 36.7413V29.4062L22 26.5938V18.8125Z" fill="#DF405D"/>
<path d="M40 29.4062L36.5204 29.6154L33.9531 32.2188L32.5703 35.7812L33.9531 40L39.5963 37.3776C39.8427 37.2615 40 37.0135 40 36.7413V29.4062Z" fill="#FDC5CF"/>
<path d="M28 29.4062L26.5938 33.8037L28 37.1875L33.9531 40V32.2188L31.5156 29.6544L28 29.4062Z" fill="#ED7F94"/>
<path d="M33.9531 26.5938H29.582L28 29.4062L33.9531 32.2188L40 29.4062L33.9531 26.5938Z" fill="#F5A4B3"/>
<path d="M28 29.4062L24.5673 29.6154L22 32.2188L20.6172 35.7812L22 40L28 37.1875V29.4062Z" fill="#FDC5CF"/>
<path d="M16 29.4062V36.7413C16 37.0135 16.1573 37.2615 16.4037 37.3776L22 40V32.2188L19.5625 29.6544L16 29.4062Z" fill="#ED7F94"/>
<path d="M22 26.5938L16 29.4062L22 32.2188L28 29.4062L24.7859 26.4875L22 26.5938Z" fill="#F5A4B3"/>
<path d="M33.9531 18.8125L30.5439 19.0216L28 21.625L26.5938 25.1875L28 29.4062L33.9531 26.5938V18.8125Z" fill="#FDC5CF"/>
<path d="M22 18.8125V26.5938L28 29.4062V21.625L25.5391 19.0606L22 18.8125Z" fill="#ED7F94"/>
<path d="M27.7006 16.067L22 18.8125L28 21.625L33.9531 18.8125L28.2994 16.067C28.1099 15.9777 27.8901 15.9777 27.7006 16.067Z" fill="#F5A4B3"/>
<rect x="1" y="1" width="54" height="54" rx="27" stroke="#FFEEF1" stroke-width="2"/>
</svg>
