<svg width="16" height="16" viewBox="0 0 16 16" fill="none" xmlns="http://www.w3.org/2000/svg">
<path fill-rule="evenodd" clip-rule="evenodd" d="M7.99984 15.3332C12.0499 15.3332 15.3332 12.0499 15.3332 7.99984C15.3332 3.94975 12.0499 0.666504 7.99984 0.666504C3.94975 0.666504 0.666504 3.94975 0.666504 7.99984C0.666504 12.0499 3.94975 15.3332 7.99984 15.3332ZM10.8764 5.98763C11.1151 5.74898 11.1151 5.36204 10.8764 5.12339C10.6378 4.88473 10.2508 4.88473 10.0122 5.12339L7.99984 7.13574L5.98749 5.12339C5.74884 4.88473 5.3619 4.88473 5.12325 5.12339C4.88459 5.36204 4.88459 5.74898 5.12325 5.98763L7.1356 7.99998L5.12325 10.0123C4.88459 10.251 4.88459 10.6379 5.12325 10.8766C5.3619 11.1152 5.74884 11.1152 5.98749 10.8766L7.99984 8.86422L10.0122 10.8766C10.2508 11.1152 10.6378 11.1152 10.8764 10.8766C11.1151 10.6379 11.1151 10.251 10.8764 10.0123L8.86408 7.99998L10.8764 5.98763Z" fill="#EC4730"/>
</svg>
