<svg width="16" height="16" viewBox="0 0 16 16" fill="none" xmlns="http://www.w3.org/2000/svg">
<path d="M7.61976 4.19789L8.9505 2.86716C9.22507 2.59233 9.5511 2.3743 9.90996 2.22551C10.2688 2.07672 10.6535 2.00009 11.042 2C11.4304 1.99991 11.8151 2.07636 12.1741 2.22498C12.533 2.3736 12.8591 2.59149 13.1338 2.86618C13.4085 3.14088 13.6264 3.46701 13.775 3.82593C13.9236 4.18486 14.0001 4.56955 14 4.95802C13.9999 5.3465 13.9233 5.73116 13.7745 6.09001C13.6257 6.44887 13.4077 6.77489 13.1328 7.04946L11.2318 8.95051C10.9572 9.22513 10.6311 9.44296 10.2723 9.59158C9.91353 9.7402 9.52897 9.81669 9.14061 9.81669C8.75224 9.81669 8.36768 9.7402 8.00887 9.59158C7.65007 9.44296 7.32405 9.22513 7.04944 8.95051" stroke="#1D253C" stroke-linecap="round" stroke-linejoin="round"/>
<path d="M8.38017 11.8022L7.04943 13.1329C6.77486 13.4077 6.44883 13.6257 6.08998 13.7745C5.73112 13.9233 5.34646 14 4.95798 14C4.5695 14.0001 4.18481 13.9237 3.82588 13.7751C3.46695 13.6264 3.14083 13.4086 2.86613 13.1339C2.59143 12.8592 2.37355 12.533 2.22492 12.1741C2.0763 11.8152 1.99985 11.4305 1.99994 11.042C2.00003 10.6535 2.07666 10.2689 2.22545 9.91003C2.37424 9.55117 2.59228 9.22515 2.8671 8.95058L4.76816 7.04953C5.04278 6.77492 5.36879 6.55708 5.7276 6.40846C6.0864 6.25984 6.47096 6.18335 6.85933 6.18335C7.24769 6.18335 7.63225 6.25984 7.99106 6.40846C8.34986 6.55708 8.67588 6.77492 8.95049 7.04953" stroke="#1D253C" stroke-linecap="round" stroke-linejoin="round"/>
</svg>
