<svg width="60" height="60" viewBox="0 0 60 60" fill="none" xmlns="http://www.w3.org/2000/svg">
<path d="M37.3161 24.8904C38.0306 24.8904 38.6909 25.2716 39.0482 25.8904L42.8641 32.4999C43.2214 33.1187 43.2214 33.8811 42.8641 34.4999L39.0482 41.1093C38.6909 41.7281 38.0306 42.1093 37.3161 42.1093H29.6841C28.9696 42.1093 28.3094 41.7281 27.9521 41.1093L24.1361 34.4999C23.7788 33.8811 23.7788 33.1187 24.1361 32.4999L27.9521 25.8904C28.3094 25.2716 28.9696 24.8904 29.6841 24.8904L37.3161 24.8904Z" fill="#31080F"/>
<path d="M32.5705 31.0086H30V29.5H37V31.0086H34.4295V37.5H32.5705V31.0086Z" fill="#DA1F3E"/>
<path d="M18 19C18 18.4477 18.4477 18 19 18H32.5C33.0523 18 33.5 18.4477 33.5 19V21.5C33.5 22.0523 33.0523 22.5 32.5 22.5H19C18.4477 22.5 18 22.0523 18 21.5V19Z" fill="#940B22"/>
<path d="M24.136 28.5H19C18.4477 28.5 18 28.0523 18 27.5V25C18 24.4477 18.4477 24 19 24H26.9189C26.6485 24.2587 26.4123 24.5574 26.2199 24.8905L24.136 28.5Z" fill="#940B22"/>
<path d="M23.27 30L22.4039 31.5C21.8551 32.4506 21.7278 33.5708 22.0222 34.6H19C18.4477 34.6 18 34.1523 18 33.6V31C18 30.4477 18.4477 30 19 30H23.27Z" fill="#940B22"/>
<rect x="1" y="1" width="58" height="58" rx="29" stroke="#31080F" stroke-width="2"/>
</svg>
