<svg width="56" height="56" viewBox="0 0 56 56" fill="none" xmlns="http://www.w3.org/2000/svg">
<path d="M32.0022 23.9995C27.5907 23.9995 24.0027 27.589 24.0027 31.999C24.0027 36.409 27.5907 40 32.0022 40C36.4137 40 40.0017 36.4105 40.0017 32.0005C40.0017 27.5905 36.4122 23.9995 32.0022 23.9995Z" fill="#F292A4"/>
<path d="M32 26C28.6912 26 26 28.692 26 31.9994C26 35.3068 28.6912 38 32 38C35.3088 38 38 35.308 38 32.0006C38 28.6932 35.3077 26 32 26Z" fill="#FFEEF1"/>
<path d="M24.5021 22.999C29.1968 22.999 33.0026 21.4322 33.0026 19.4995C33.0026 17.5668 29.1968 16 24.5021 16C19.8074 16 16.0016 17.5668 16.0016 19.4995C16.0016 21.4322 19.8074 22.999 24.5021 22.999Z" fill="#F4CAD1"/>
<path d="M23.4116 27.9685C24.0761 26.56 25.0736 25.3435 26.3051 24.415C25.7081 24.466 25.1051 24.5005 24.5006 24.5005C21.1901 24.5005 17.8601 23.734 16.0001 22.2535V24.5005C16.0016 26.281 19.2341 27.748 23.4116 27.9685V27.9685Z" fill="#F292A4"/>
<path d="M22.5011 32.0006C22.5011 31.1096 22.6331 30.2486 22.8641 29.4296C20.1296 29.2196 17.5526 28.4891 16.0016 27.2531V29.5001C16.0016 31.1561 18.7961 32.5391 22.5476 32.9036C22.5191 32.6051 22.5011 32.3051 22.5011 32.0006V32.0006Z" fill="#E75973"/>
<path fill-rule="evenodd" clip-rule="evenodd" d="M28 54C42.3594 54 54 42.3594 54 28C54 13.6406 42.3594 2 28 2C13.6406 2 2 13.6406 2 28C2 42.3594 13.6406 54 28 54ZM28 56C43.464 56 56 43.464 56 28C56 12.536 43.464 0 28 0C12.536 0 0 12.536 0 28C0 43.464 12.536 56 28 56Z" fill="#FFEEF1"/>
</svg>
