<svg width="56" height="56" viewBox="0 0 56 56" fill="none" xmlns="http://www.w3.org/2000/svg">
<circle cx="28" cy="28" r="27" stroke="#FFE6EA" stroke-width="2"/>
<path d="M16 17C16 16.4477 16.4477 16 17 16H30.5C31.0523 16 31.5 16.4477 31.5 17V19.5C31.5 20.0523 31.0523 20.5 30.5 20.5H17C16.4477 20.5 16 20.0523 16 19.5V17Z" fill="#FC7C91"/>
<path d="M22.136 26.5H17C16.4477 26.5 16 26.0523 16 25.5V23C16 22.4477 16.4477 22 17 22H24.9189C24.6485 22.2587 24.4123 22.5574 24.2199 22.8905L22.136 26.5Z" fill="#FC7C91"/>
<path d="M21.27 28L20.4039 29.5C19.8551 30.4506 19.7278 31.5708 20.0222 32.6H17C16.4477 32.6 16 32.1523 16 31.6V29C16 28.4477 16.4477 28 17 28H21.27Z" fill="#FC7C91"/>
<path d="M35.316 22.8905C36.0305 22.8905 36.6908 23.2717 37.048 23.8905L40.864 30.5C41.2213 31.1188 41.2213 31.8812 40.864 32.5L37.048 39.1094C36.6908 39.7282 36.0305 40.1094 35.316 40.1094H27.684C26.9695 40.1094 26.3092 39.7282 25.952 39.1094L22.136 32.5C21.7787 31.8811 21.7787 31.1188 22.136 30.5L25.952 23.8905C26.3092 23.2717 26.9695 22.8905 27.684 22.8905L35.316 22.8905Z" fill="#FFE6EA"/>
<path d="M31.7446 27.5C32.4086 27.5 32.9833 27.6181 33.4687 27.8543C33.9613 28.0905 34.3396 28.4257 34.6038 28.86C34.8679 29.2943 35 29.8086 35 30.4029C35 30.9895 34.8679 31.5038 34.6038 31.9457C34.3396 32.38 33.9613 32.7152 33.4687 32.9514C32.9833 33.18 32.4086 33.2943 31.7446 33.2943H30.2348V35.5H28.5V27.5H31.7446ZM31.6483 31.7857C32.1694 31.7857 32.5656 31.6676 32.8369 31.4314C33.1082 31.1876 33.2438 30.8448 33.2438 30.4029C33.2438 29.9533 33.1082 29.6105 32.8369 29.3743C32.5656 29.1305 32.1694 29.0086 31.6483 29.0086H30.2348V31.7857H31.6483Z" fill="#F23252"/>
</svg>
