<svg width="56" height="56" viewBox="0 0 56 56" fill="none" xmlns="http://www.w3.org/2000/svg">
<circle cx="28" cy="28" r="27" stroke="#FFE6EA" stroke-width="2"/>
<g clip-path="url(#clip0)">
<path d="M35.316 22.8905C36.0305 22.8905 36.6908 23.2717 37.048 23.8905L40.864 30.4999C41.2213 31.1187 41.2213 31.8811 40.864 32.4999L37.048 39.1094C36.6908 39.7282 36.0305 40.1094 35.316 40.1094H27.684C26.9695 40.1094 26.3092 39.7282 25.952 39.1094L22.136 32.4999C21.7787 31.8811 21.7787 31.1187 22.136 30.4999L25.952 23.8905C26.3092 23.2717 26.9695 22.8905 27.684 22.8905L35.316 22.8905Z" fill="#FFE6EA"/>
<path d="M33.8044 31.34C34.2405 31.4848 34.5821 31.7286 34.8293 32.0714C35.0764 32.4067 35.2 32.8219 35.2 33.3171C35.2 34.0181 34.9383 34.559 34.415 34.94C33.8989 35.3133 33.1429 35.5 32.147 35.5H28.2V27.5H31.929C32.8594 27.5 33.5718 27.6867 34.066 28.06C34.5676 28.4333 34.8184 28.94 34.8184 29.58C34.8184 29.9686 34.7275 30.3152 34.5458 30.62C34.3713 30.9248 34.1242 31.1648 33.8044 31.34ZM29.9555 28.8943V30.78H31.7109C32.147 30.78 32.4778 30.7 32.7031 30.54C32.9285 30.38 33.0411 30.1438 33.0411 29.8314C33.0411 29.519 32.9285 29.2867 32.7031 29.1343C32.4778 28.9743 32.147 28.8943 31.7109 28.8943H29.9555ZM32.0162 34.1057C32.4814 34.1057 32.8303 34.0257 33.0629 33.8657C33.3028 33.7057 33.4227 33.4581 33.4227 33.1229C33.4227 32.46 32.9539 32.1286 32.0162 32.1286H29.9555V34.1057H32.0162Z" fill="#F23252"/>
<path d="M-80 17C-80 16.4477 -79.5523 16 -79 16H-65.5C-64.9477 16 -64.5 16.4477 -64.5 17V19.5C-64.5 20.0523 -64.9477 20.5 -65.5 20.5H-79C-79.5523 20.5 -80 20.0523 -80 19.5V17Z" fill="#FC7C91"/>
<path d="M16 17C16 16.4477 16.4477 16 17 16H30.5C31.0523 16 31.5 16.4477 31.5 17V19.5C31.5 20.0523 31.0523 20.5 30.5 20.5H17C16.4477 20.5 16 20.0523 16 19.5V17Z" fill="#FC7C91"/>
<path d="M22.4247 26C22.246 26.3094 21.9159 26.5 21.5586 26.5H17C16.4477 26.5 16 26.0523 16 25.5V23C16 22.4477 16.4477 22 17 22H23.783C24.194 22 24.4254 22.5346 24.2199 22.8905V22.8905L22.4247 26Z" fill="#FC7C91"/>
<path d="M19.5379 28C20.3077 28 20.7888 28.8333 20.4039 29.5V29.5C20.0832 30.0555 19.9064 30.669 19.8736 31.2883C19.8385 31.9519 19.3606 32.6 18.6961 32.6H17C16.4477 32.6 16 32.1523 16 31.6V29C16 28.4477 16.4477 28 17 28H19.5379Z" fill="#FC7C91"/>
</g>
<defs>
<clipPath id="clip0">
<rect width="28" height="28" fill="white" transform="translate(14 14)"/>
</clipPath>
</defs>
</svg>
