<svg width="56" height="56" viewBox="0 0 56 56" fill="none" xmlns="http://www.w3.org/2000/svg">
<path fill-rule="evenodd" clip-rule="evenodd" d="M28 54C42.3594 54 54 42.3594 54 28C54 13.6406 42.3594 2 28 2C13.6406 2 2 13.6406 2 28C2 42.3594 13.6406 54 28 54ZM28 56C43.464 56 56 43.464 56 28C56 12.536 43.464 0 28 0C12.536 0 0 12.536 0 28C0 43.464 12.536 56 28 56Z" fill="#FFEEF1"/>
<path d="M35.316 23.8905C35.6733 23.8905 36.0034 24.0811 36.182 24.3905L39.998 31C40.1766 31.3094 40.1766 31.6906 39.998 32L36.182 38.6094C36.0034 38.9189 35.6733 39.1094 35.316 39.1094H27.684C27.3268 39.1094 26.9966 38.9189 26.818 38.6095L23.002 32C22.8234 31.6906 22.8234 31.3094 23.002 31L26.818 24.3905C26.9966 24.0811 27.3268 23.8905 27.684 23.8905L35.316 23.8905Z" fill="#FFEEF1" stroke="#F292A4" stroke-width="2"/>
<path d="M30.5705 29.0086H28V27.5H35V29.0086H32.4295V35.5H30.5705V29.0086Z" fill="#E75973"/>
<rect x="16" y="16" width="15.5" height="4.5" rx="1" fill="#FAD2D9"/>
<path d="M22.136 26.5H17C16.4477 26.5 16 26.0523 16 25.5V23C16 22.4477 16.4477 22 17 22H24.9189C24.6485 22.2587 24.4123 22.5574 24.2199 22.8905L22.136 26.5Z" fill="#F292A4"/>
<path d="M21.27 28L20.4039 29.5C19.8551 30.4506 19.7278 31.5708 20.0222 32.6H17C16.4477 32.6 16 32.1523 16 31.6V29C16 28.4477 16.4477 28 17 28H21.27Z" fill="#E75973"/>
</svg>
