<svg width="56" height="56" viewBox="0 0 56 56" fill="none" xmlns="http://www.w3.org/2000/svg">
<circle cx="28" cy="28" r="27" stroke="#FFE6EA" stroke-width="2"/>
<path d="M32.0022 23.9995C27.5907 23.9995 24.0027 27.589 24.0027 31.999C24.0027 36.409 27.5907 40 32.0022 40C36.4137 40 40.0017 36.4105 40.0017 32.0005C40.0017 27.5905 36.4122 23.9995 32.0022 23.9995Z" fill="#F23252"/>
<path d="M32 26C28.6912 26 26 28.692 26 31.9994C26 35.3068 28.6912 38 32 38C35.3088 38 38 35.308 38 32.0006C38 28.6932 35.3077 26 32 26Z" fill="#FFE6EA"/>
<path d="M24.5021 22.999C29.1968 22.999 33.0026 21.4322 33.0026 19.4995C33.0026 17.5668 29.1968 16 24.5021 16C19.8074 16 16.0016 17.5668 16.0016 19.4995C16.0016 21.4322 19.8074 22.999 24.5021 22.999Z" fill="#FC7C91"/>
<path d="M23.4116 27.9685C24.0761 26.56 25.0736 25.3435 26.3051 24.415C25.7081 24.466 25.1051 24.5005 24.5006 24.5005C21.1901 24.5005 17.8601 23.734 16.0001 22.2535V24.5005C16.0016 26.281 19.2341 27.748 23.4116 27.9685V27.9685Z" fill="#FC7C91"/>
<path d="M22.5011 32.0005C22.5011 31.1095 22.6331 30.2485 22.8641 29.4295C20.1296 29.2195 17.5526 28.489 16.0016 27.253V29.5C16.0016 31.156 18.7961 32.539 22.5476 32.9035C22.5191 32.605 22.5011 32.305 22.5011 32.0005V32.0005Z" fill="#FC7C91"/>
</svg>
