<svg width="56" height="56" viewBox="0 0 56 56" fill="none" xmlns="http://www.w3.org/2000/svg">
<path d="M22 17.8125L27.7006 15.067C27.8901 14.9777 28.1099 14.9777 28.2994 15.067L33.9531 17.8125V25.5938L40 28.4062V35.7413C40 36.0135 39.8427 36.2615 39.5963 36.3776L33.9531 39L28 36.1875L22 39L16.4037 36.3776C16.1573 36.2615 16 36.0135 16 35.7413V28.4062L22 25.5938V17.8125Z" fill="#DF405D"/>
<path d="M40 28.4062L36.5204 28.6154L33.9531 31.2188L32.5703 34.7812L33.9531 39L39.5963 36.3776C39.8427 36.2615 40 36.0135 40 35.7413V28.4062Z" fill="#FDC5CF"/>
<path d="M28 28.4062L26.5938 32.8037L28 36.1875L33.9531 39V31.2188L31.5156 28.6544L28 28.4062Z" fill="#ED7F94"/>
<path d="M33.9531 25.5938H29.582L28 28.4062L33.9531 31.2188L40 28.4062L33.9531 25.5938Z" fill="#F5A4B3"/>
<path d="M28 28.4062L24.5673 28.6154L22 31.2188L20.6172 34.7812L22 39L28 36.1875V28.4062Z" fill="#FDC5CF"/>
<path d="M16 28.4062V35.7413C16 36.0135 16.1573 36.2615 16.4037 36.3776L22 39V31.2188L19.5625 28.6544L16 28.4062Z" fill="#ED7F94"/>
<path d="M22 25.5938L16 28.4062L22 31.2188L28 28.4062L24.7859 25.4875L22 25.5938Z" fill="#F5A4B3"/>
<path d="M33.9531 17.8125L30.5439 18.0216L28 20.625L26.5938 24.1875L28 28.4062L33.9531 25.5938V17.8125Z" fill="#FDC5CF"/>
<path d="M22 17.8125V25.5938L28 28.4062V20.625L25.5391 18.0606L22 17.8125Z" fill="#ED7F94"/>
<path d="M27.7006 15.067L22 17.8125L28 20.625L33.9531 17.8125L28.2994 15.067C28.1099 14.9777 27.8901 14.9777 27.7006 15.067V15.067Z" fill="#F5A4B3"/>
<path fill-rule="evenodd" clip-rule="evenodd" d="M28 54C42.3594 54 54 42.3594 54 28C54 13.6406 42.3594 2 28 2C13.6406 2 2 13.6406 2 28C2 42.3594 13.6406 54 28 54ZM28 56C43.464 56 56 43.464 56 28C56 12.536 43.464 0 28 0C12.536 0 0 12.536 0 28C0 43.464 12.536 56 28 56Z" fill="#FFEEF1"/>
</svg>
