<svg width="60" height="60" viewBox="0 0 60 60" fill="none" xmlns="http://www.w3.org/2000/svg">
<path d="M30.3033 17.0995C32.324 18.547 37.3226 23.0372 36.1567 31.4083C36.1567 31.4083 37.4591 30.7059 38.6171 29.4059C38.8845 29.1059 39.4214 29.2212 39.512 29.5976C39.7133 30.4347 39.9572 31.7753 39.9976 33.4709C40.1197 38.5942 35.6514 42.991 29.9829 43C24.4863 43.0088 20 38.9464 20 33.9584C20 29.6362 22.3144 27.3802 23.2057 23.6621C23.279 23.3558 23.6682 23.2091 23.9662 23.3694C24.6425 23.7328 25.7118 24.4135 26.4114 25.3808C26.4114 25.3808 29.2561 22.1232 29.4788 17.4495C29.4968 17.0718 29.9756 16.8645 30.3033 17.0995Z" fill="#FFF0F3"/>
<path d="M35.4013 33.915C34.6031 34.998 33.5914 35.2442 33.5914 35.2442C34.0009 30.801 32.121 27.5405 31.3469 26.4073C31.2373 26.2467 30.9653 26.2891 30.9211 26.4736C30.2132 29.442 28.3127 31.0904 28.3127 31.0904C27.6943 30.4385 27.1064 30.1714 26.8006 30.0682C26.6804 30.0278 26.5519 30.0876 26.5072 30.1963C25.7264 32.0889 24.251 33.55 23.9153 35.7257C23.4212 38.9271 25.9944 41.9614 29.5615 42.1854C33.1595 42.4113 36.1558 39.8395 36.1558 36.6353C36.1558 35.3463 35.9663 34.4609 35.8213 33.9725C35.7691 33.7962 35.513 33.7633 35.4013 33.915Z" fill="#F23252"/>
<path d="M30.1492 33.4217C30.0751 33.2533 29.8382 33.2069 29.7032 33.3409C28.8965 34.1417 26.7285 36.4856 26.7285 38.5495C26.7285 40.1833 28.1937 41.5078 30.0012 41.5078C31.8085 41.5078 33.2737 40.1833 33.2737 38.5495C33.2737 36.9962 31.1609 35.7225 30.1492 33.4217Z" fill="#FFF0F3"/>
<rect x="1" y="1" width="58" height="58" rx="29" stroke="#FFF0F3" stroke-width="2"/>
</svg>
