<svg width="56" height="56" viewBox="0 0 56 56" fill="none" xmlns="http://www.w3.org/2000/svg">
<circle cx="28" cy="28" r="27" stroke="#FFE6EA" stroke-width="2"/>
<path d="M35.316 22.8905C36.0305 22.8905 36.6908 23.2717 37.048 23.8905L40.864 30.4999C41.2213 31.1187 41.2213 31.8811 40.864 32.4999L37.048 39.1094C36.6908 39.7282 36.0305 40.1094 35.316 40.1094H27.684C26.9695 40.1094 26.3092 39.7282 25.952 39.1094L22.136 32.4999C21.7787 31.8811 21.7787 31.1187 22.136 30.4999L25.952 23.8905C26.3092 23.2717 26.9695 22.8905 27.684 22.8905L35.316 22.8905Z" fill="#FFE6EA"/>
<path d="M30.5705 29.0086H28V27.5H35V29.0086H32.4295V35.5H30.5705V29.0086Z" fill="#F23252"/>
<path d="M16 17C16 16.4477 16.4477 16 17 16H30.5C31.0523 16 31.5 16.4477 31.5 17V19.5C31.5 20.0523 31.0523 20.5 30.5 20.5H17C16.4477 20.5 16 20.0523 16 19.5V17Z" fill="#FC7C91"/>
<path d="M22.136 26.5H17C16.4477 26.5 16 26.0523 16 25.5V23C16 22.4477 16.4477 22 17 22H24.9189C24.6485 22.2587 24.4123 22.5574 24.2199 22.8905L22.136 26.5Z" fill="#FC7C91"/>
<path d="M21.27 28L20.4039 29.5C19.8551 30.4506 19.7278 31.5708 20.0222 32.6H17C16.4477 32.6 16 32.1523 16 31.6V29C16 28.4477 16.4477 28 17 28H21.27Z" fill="#FC7C91"/>
</svg>
