<svg width="60" height="60" viewBox="0 0 60 60" fill="none" xmlns="http://www.w3.org/2000/svg">
<path d="M37.3161 24.8904C38.0306 24.8904 38.6909 25.2716 39.0482 25.8904L42.8641 32.4999C43.2214 33.1187 43.2214 33.8811 42.8641 34.4999L39.0482 41.1093C38.6909 41.7281 38.0306 42.1093 37.3161 42.1093H29.6841C28.9696 42.1093 28.3094 41.7281 27.9521 41.1093L24.1361 34.4999C23.7788 33.8811 23.7788 33.1187 24.1361 32.4999L27.9521 25.8904C28.3094 25.2716 28.9696 24.8904 29.6841 24.8904L37.3161 24.8904Z" fill="#FFF0F3"/>
<path fill-rule="evenodd" clip-rule="evenodd" d="M35.6512 29.8242C35.1773 29.6081 34.6052 29.5 33.9348 29.5H30.4326V37.5H32.3094V34.6641H33.6794L35.3608 37.5H37.4326L35.5492 34.3921C35.5763 34.3815 35.6031 34.3706 35.6295 34.3594C36.1121 34.1563 36.4805 33.8646 36.7348 33.4844C36.9891 33.1016 37.1162 32.6445 37.1162 32.1133C37.1162 31.5846 36.9905 31.125 36.7391 30.7344C36.4906 30.3411 36.128 30.0378 35.6512 29.8242ZM32.3094 33.3047H33.5837C33.942 33.3047 34.2396 33.2604 34.4766 33.1719C34.7135 33.0833 34.8898 32.9505 35.0054 32.7734C35.1238 32.5964 35.1831 32.3763 35.1831 32.1133C35.1831 31.8477 35.1238 31.6237 35.0054 31.4414C34.8898 31.2591 34.7121 31.1211 34.4722 31.0273C34.2353 30.931 33.9362 30.8828 33.575 30.8828H32.3094V33.3047Z" fill="#F23252"/>
<path d="M28 19C28 20.1046 27.1046 21 26 21C24.8955 21 24 20.1046 24 19C24 17.8954 24.8955 17 26 17C27.1046 17 28 17.8954 28 19Z" fill="#FC7C91"/>
<path d="M32.364 22.4645C31.583 23.2455 30.3166 23.2455 29.5356 22.4645C28.7545 21.6834 28.7545 20.4171 29.5356 19.636C30.3166 18.855 31.583 18.855 32.364 19.636C33.1451 20.4171 33.1451 21.6834 32.364 22.4645Z" fill="#FC7C91"/>
<path d="M22.4645 32.364C21.6835 33.145 20.4171 33.145 19.6361 32.364C18.855 31.5829 18.855 30.3166 19.6361 29.5355C20.4171 28.7545 21.6835 28.7545 22.4645 29.5355C23.2456 30.3166 23.2456 31.5829 22.4645 32.364Z" fill="#FC7C91"/>
<path d="M19 28C17.8954 28 17 27.1046 17 26C17 24.8954 17.8954 24 19 24C20.1046 24 21 24.8954 21 26C21 27.1046 20.1046 28 19 28Z" fill="#FC7C91"/>
<path d="M19.6361 22.4645C18.855 21.6834 18.855 20.4171 19.6361 19.636C20.4171 18.855 21.6835 18.855 22.4645 19.636C23.2456 20.4171 23.2456 21.6834 22.4645 22.4645C21.6835 23.2455 20.4171 23.2455 19.6361 22.4645Z" fill="#FC7C91"/>
<rect x="1" y="1" width="58" height="58" rx="29" stroke="#FFF0F3" stroke-width="2"/>
</svg>

