<svg width="56" height="56" viewBox="0 0 56 56" fill="none" xmlns="http://www.w3.org/2000/svg">
<path d="M28.3033 15.0995C30.324 16.547 35.3226 21.0372 34.1567 29.4083C34.1567 29.4083 35.4591 28.7059 36.6171 27.4059C36.8845 27.1059 37.4214 27.2212 37.512 27.5976C37.7133 28.4347 37.9572 29.7753 37.9976 31.4709C38.1197 36.5942 33.6514 40.991 27.9829 41C22.4863 41.0088 18 36.9464 18 31.9584C18 27.6362 20.3144 25.3802 21.2057 21.6621C21.279 21.3558 21.6682 21.2091 21.9662 21.3694C22.6425 21.7328 23.7118 22.4135 24.4114 23.3808C24.4114 23.3808 27.2561 20.1232 27.4788 15.4495C27.4968 15.0718 27.9756 14.8645 28.3033 15.0995Z" fill="#F292A4"/>
<path d="M33.4015 31.9151C32.6033 32.9981 31.5916 33.2443 31.5916 33.2443C32.0012 28.8011 30.1213 25.5407 29.3471 24.4074C29.2376 24.2469 28.9655 24.2892 28.9213 24.4737C28.2135 27.4421 26.313 29.0905 26.313 29.0905C25.6945 28.4386 25.1067 28.1716 24.8008 28.0684C24.6806 28.028 24.5521 28.0877 24.5074 28.1964C23.7267 30.089 22.2513 31.5502 21.9156 33.7259C21.4215 36.9272 23.9946 39.9615 27.5618 40.1855C31.1597 40.4115 34.156 37.8396 34.156 34.6354C34.156 33.3464 33.9665 32.461 33.8215 31.9727C33.7693 31.7963 33.5133 31.7634 33.4015 31.9151Z" fill="#E75973"/>
<path d="M28.1493 31.4217C28.0752 31.2533 27.8384 31.2069 27.7033 31.3409C26.8966 32.1417 24.7286 34.4856 24.7286 36.5495C24.7286 38.1833 26.1939 39.5078 28.0014 39.5078C29.8086 39.5078 31.2738 38.1833 31.2738 36.5495C31.2738 34.9962 29.161 33.7225 28.1493 31.4217Z" fill="#FFEEF1"/>
<path fill-rule="evenodd" clip-rule="evenodd" d="M28 54C42.3594 54 54 42.3594 54 28C54 13.6406 42.3594 2 28 2C13.6406 2 2 13.6406 2 28C2 42.3594 13.6406 54 28 54ZM28 56C43.464 56 56 43.464 56 28C56 12.536 43.464 0 28 0C12.536 0 0 12.536 0 28C0 43.464 12.536 56 28 56Z" fill="#FFEEF1"/>
</svg>
