<svg width="24" height="24" viewBox="0 0 24 24" fill="none" xmlns="http://www.w3.org/2000/svg">
<path d="M23 12C23 18.0751 18.0751 23 12 23C5.92487 23 1 18.0751 1 12C1 5.92487 5.92487 1 12 1C18.0751 1 23 5.92487 23 12Z" fill="#FBFBFB"/>
<path fill-rule="evenodd" clip-rule="evenodd" d="M12 21C16.9706 21 21 16.9706 21 12C21 7.02944 16.9706 3 12 3C7.02944 3 3 7.02944 3 12C3 16.9706 7.02944 21 12 21ZM12 23C18.0751 23 23 18.0751 23 12C23 5.92487 18.0751 1 12 1C5.92487 1 1 5.92487 1 12C1 18.0751 5.92487 23 12 23Z" fill="#EEEEEE"/>
<path d="M17.0001 9.27275C17.0001 8.01754 15.9825 7 14.7273 7C13.4721 7 12.4546 8.01754 12.4546 9.27275C12.4546 10.528 13.4721 11.5455 14.7273 11.5455C15.9825 11.5455 17.0001 10.528 17.0001 9.27275Z" fill="#E1E1E1"/>
<path d="M10.4416 7H8.10391C7.49424 7 7 7.49424 7 8.10391V10.4416C7 11.0513 7.49424 11.5455 8.10391 11.5455H10.4416C11.0513 11.5455 11.5455 11.0513 11.5455 10.4416V8.10391C11.5455 7.49424 11.0513 7 10.4416 7Z" fill="#E1E1E1"/>
<path d="M10.4416 12.4551H8.10391C7.49424 12.4551 7 12.9493 7 13.559V15.8967C7 16.5063 7.49424 17.0006 8.10391 17.0006H10.4416C11.0513 17.0006 11.5455 16.5063 11.5455 15.8967V13.559C11.5455 12.9493 11.0513 12.4551 10.4416 12.4551Z" fill="#E1E1E1"/>
<path d="M15.8962 12.4551H13.5585C12.9488 12.4551 12.4546 12.9493 12.4546 13.559V15.8967C12.4546 16.5063 12.9488 17.0006 13.5585 17.0006H15.8962C16.5058 17.0006 17.0001 16.5063 17.0001 15.8967V13.559C17.0001 12.9493 16.5058 12.4551 15.8962 12.4551Z" fill="#E1E1E1"/>
</svg>
