<svg width="20" height="20" viewBox="0 0 20 20" fill="none" xmlns="http://www.w3.org/2000/svg">
<g clip-path="url(#clip0_5352_38120)">
<path fill-rule="evenodd" clip-rule="evenodd" d="M7.55046 2.3C7.55046 1.7201 8.02056 1.25 8.60046 1.25C12.4665 1.25 15.6005 4.38401 15.6005 8.25C15.6005 8.8299 15.1304 9.3 14.5505 9.3C13.9706 9.3 13.5005 8.8299 13.5005 8.25C13.5005 5.54379 11.3067 3.35 8.60046 3.35C8.02056 3.35 7.55046 2.8799 7.55046 2.3Z" fill="#0DBD8C"/>
<path fill-rule="evenodd" clip-rule="evenodd" d="M12.4495 17.7C12.4495 18.2799 11.9794 18.75 11.3995 18.75C7.53357 18.75 4.39955 15.616 4.39955 11.75C4.39955 11.1701 4.86965 10.7 5.44955 10.7C6.02944 10.7 6.49955 11.1701 6.49955 11.75C6.49955 14.4562 8.69337 16.65 11.3995 16.65C11.9794 16.65 12.4495 17.1201 12.4495 17.7Z" fill="#0DBD8C"/>
<path fill-rule="evenodd" clip-rule="evenodd" d="M2.3 12.45C1.7201 12.45 1.25 11.9799 1.25 11.4C1.25 7.53403 4.38401 4.40003 8.25 4.40003C8.8299 4.40003 9.3 4.87014 9.3 5.45004C9.3 6.02994 8.8299 6.50004 8.25 6.50004C5.54382 6.50004 3.35 8.69383 3.35 11.4C3.35 11.9799 2.8799 12.45 2.3 12.45Z" fill="#0DBD8C"/>
<path fill-rule="evenodd" clip-rule="evenodd" d="M17.7 7.54996C18.2799 7.54996 18.75 8.02007 18.75 8.59996C18.75 12.466 15.616 15.6 11.75 15.6C11.1701 15.6 10.7 15.1299 10.7 14.55C10.7 13.9701 11.1701 13.5 11.75 13.5C14.4562 13.5 16.65 11.3062 16.65 8.59996C16.65 8.02007 17.1201 7.54996 17.7 7.54996Z" fill="#0DBD8C"/>
</g>
<defs>
<clipPath id="clip0_5352_38120">
<rect width="20" height="20" fill="white"/>
</clipPath>
</defs>
</svg>
