<svg width="20" height="20" viewBox="0 0 20 20" fill="none" xmlns="http://www.w3.org/2000/svg">
<path d="M17.0832 6.20898V13.7923C17.0832 14.2233 16.911 14.6366 16.6044 14.9414C16.2979 15.2461 15.8821 15.4173 15.4486 15.4173H4.55112C4.11759 15.4173 3.70182 15.2461 3.39527 14.9414C3.08872 14.6366 2.9165 14.2233 2.9165 13.7923V6.20898M17.0832 6.20898C17.0832 5.77801 16.911 5.36468 16.6044 5.05994C16.2979 4.75519 15.8821 4.58398 15.4486 4.58398H4.55112C4.11759 4.58398 3.70182 4.75519 3.39527 5.05994C3.08872 5.36468 2.9165 5.77801 2.9165 6.20898M17.0832 6.20898V6.38448C17.0832 6.66192 17.0118 6.93475 16.8757 7.17698C16.7396 7.4192 16.5434 7.62276 16.3058 7.76826L10.8571 11.1013C10.5993 11.2591 10.3026 11.3427 9.99984 11.3427C9.69711 11.3427 9.40033 11.2591 9.14257 11.1013L3.69385 7.76898C3.45623 7.62348 3.26004 7.41992 3.12397 7.1777C2.9879 6.93547 2.91647 6.66265 2.9165 6.38521V6.20898" stroke="white" stroke-width="1.2" stroke-linecap="round" stroke-linejoin="round"/>
</svg>
