<svg width="300" height="160" viewBox="0 0 300 160" fill="none" xmlns="http://www.w3.org/2000/svg">
<path fill-rule="evenodd" clip-rule="evenodd" d="M148.662 0.292354C169.965 -1.61918 191.668 5.90641 206.799 21.0108C221.937 36.1213 229.908 57.8433 227.61 79.0992C225.496 98.6434 209.196 111.783 195.46 125.858C181.443 140.221 168.738 159.649 148.662 159.995C128.447 160.344 114.915 141.376 100.221 127.5C84.8363 112.971 63.025 100.25 63 79.0992C62.9751 57.9407 84.5282 44.9162 100.107 30.5844C114.699 17.1597 128.906 2.06512 148.662 0.292354Z" fill="#FCFCFC"/>
<path d="M136.666 84.6825L139.136 89.547H161.864L164.334 84.6804C165.411 82.5555 167.584 81.2344 170 81.2344H185.974L177.896 45.4556C177.682 44.5038 176.824 43.8281 175.835 43.8281H125.165C124.176 43.8281 123.318 44.5038 123.104 45.4556L115.026 81.2344H131C133.417 81.2344 135.589 82.5555 136.666 84.6825ZM170 85.3905C169.192 85.3905 168.47 85.8288 168.111 86.5371L165.056 92.5542C164.697 93.2585 163.967 93.7029 163.167 93.7029H137.833C137.033 93.7029 136.303 93.2585 135.944 92.5542L132.889 86.539C132.53 85.8286 131.808 85.3903 131 85.3903H114.609V104.093C114.609 105.242 115.554 106.172 116.721 106.172H184.279C185.446 106.172 186.39 105.242 186.39 104.093V85.3903L170 85.3905Z" fill="url(#paint0_linear)" fill-opacity="0.5"/>
<defs>
<linearGradient id="paint0_linear" x1="150.5" y1="43.8281" x2="150.5" y2="106.172" gradientUnits="userSpaceOnUse">
<stop stop-color="#DDDDDD"/>
<stop offset="1" stop-color="#DDDDDD" stop-opacity="0.3"/>
</linearGradient>
</defs>
</svg>
