<svg width="16" height="16" viewBox="0 0 16 16" fill="none" xmlns="http://www.w3.org/2000/svg">
<path d="M13.8333 1H2.16667C1.85736 1.00035 1.56082 1.12338 1.3421 1.3421C1.12338 1.56082 1.00035 1.85736 1 2.16667V13.8333C1.00035 14.1426 1.12338 14.4392 1.3421 14.6579C1.56082 14.8766 1.85736 14.9996 2.16667 15H13.8333C14.1426 14.9996 14.4392 14.8766 14.6579 14.6579C14.8766 14.4392 14.9996 14.1426 15 13.8333V2.16667C14.9996 1.85736 14.8766 1.56082 14.6579 1.3421C14.4392 1.12338 14.1426 1.00035 13.8333 1ZM11.4167 10H4.58333C4.42862 10 4.28025 9.93854 4.17085 9.82915C4.06146 9.71975 4 9.57138 4 9.41667C4 9.26196 4.06146 9.11358 4.17085 9.00419C4.28025 8.89479 4.42862 8.83333 4.58333 8.83333H11.4167C11.5714 8.83333 11.7198 8.89479 11.8291 9.00419C11.9385 9.11358 12 9.26196 12 9.41667C12 9.57138 11.9385 9.71975 11.8291 9.82915C11.7198 9.93854 11.5714 10 11.4167 10ZM11.4167 7.16667H4.58333C4.42862 7.16667 4.28025 7.10521 4.17085 6.99581C4.06146 6.88642 4 6.73804 4 6.58333C4 6.42862 4.06146 6.28025 4.17085 6.17085C4.28025 6.06146 4.42862 6 4.58333 6H11.4167C11.5714 6 11.7198 6.06146 11.8291 6.17085C11.9385 6.28025 12 6.42862 12 6.58333C12 6.73804 11.9385 6.88642 11.8291 6.99581C11.7198 7.10521 11.5714 7.16667 11.4167 7.16667Z" fill="#1D253C" fill-opacity="0.24"/>
</svg>
