<svg width="16" height="16" viewBox="0 0 16 16" fill="none" xmlns="http://www.w3.org/2000/svg">
<path d="M13.8333 1H2.16667C1.85736 1.00035 1.56082 1.12338 1.3421 1.3421C1.12338 1.56082 1.00035 1.85736 1 2.16667V13.8333C1.00035 14.1426 1.12338 14.4392 1.3421 14.6579C1.56082 14.8766 1.85736 14.9996 2.16667 15H13.8333C14.1426 14.9996 14.4392 14.8766 14.6579 14.6579C14.8766 14.4392 14.9996 14.1426 15 13.8333V2.16667C14.9996 1.85736 14.8766 1.56082 14.6579 1.3421C14.4392 1.12338 14.1426 1.00035 13.8333 1ZM4.5 13.8333H2.16667V2.16667H4.5V13.8333ZM11.5 9.75H6.83333C6.67862 9.75 6.53025 9.68854 6.42085 9.57915C6.31146 9.46975 6.25 9.32138 6.25 9.16667C6.25 9.01196 6.31146 8.86358 6.42085 8.75419C6.53025 8.64479 6.67862 8.58333 6.83333 8.58333H11.5C11.6547 8.58333 11.8031 8.64479 11.9125 8.75419C12.0219 8.86358 12.0833 9.01196 12.0833 9.16667C12.0833 9.32138 12.0219 9.46975 11.9125 9.57915C11.8031 9.68854 11.6547 9.75 11.5 9.75ZM11.5 7.41667H6.83333C6.67862 7.41667 6.53025 7.35521 6.42085 7.24581C6.31146 7.13642 6.25 6.98804 6.25 6.83333C6.25 6.67862 6.31146 6.53025 6.42085 6.42085C6.53025 6.31146 6.67862 6.25 6.83333 6.25H11.5C11.6547 6.25 11.8031 6.31146 11.9125 6.42085C12.0219 6.53025 12.0833 6.67862 12.0833 6.83333C12.0833 6.98804 12.0219 7.13642 11.9125 7.24581C11.8031 7.35521 11.6547 7.41667 11.5 7.41667Z" fill="#1D253C" fill-opacity="0.24"/>
</svg>
