<svg width="16" height="16" viewBox="0 0 16 16" fill="none" xmlns="http://www.w3.org/2000/svg">
<path d="M1.16287 6.00823C0.816375 6.36859 1.05937 6.9886 1.54721 6.9889L14.4533 7C14.7552 7.00018 15 6.74341 15 6.42659V4.99854C15 4.68186 14.7554 4.42514 14.4536 4.42514H7.28571L7.30115 1.57784C7.30392 1.06666 6.71607 0.807467 6.37008 1.16731L1.16287 6.00823Z" fill="#1D253C" fill-opacity="0.24"/>
<path d="M14.8365 9.99721C15.1842 9.63694 14.9406 9.01693 14.451 9.01649L1.54884 9C1.2458 8.99973 1 9.25652 1 9.57339V10.989C1 11.3054 1.2452 11.5621 1.54786 11.5624L8.71429 11.5751L8.69879 14.4222C8.69601 14.9333 9.28584 15.1925 9.63309 14.8328L14.8365 9.99721Z" fill="#1D253C" fill-opacity="0.24"/>
</svg>
