<svg width="20" height="20" viewBox="0 0 20 20" fill="none" xmlns="http://www.w3.org/2000/svg">
<g clip-path="url(#clip0_125_9186)">
<path d="M7.24122 14.9597C7.24122 15.0269 7.16394 15.0806 7.06649 15.0806C6.9556 15.0907 6.87832 15.037 6.87832 14.9597C6.87832 14.8925 6.9556 14.8387 7.05305 14.8387C7.15386 14.8286 7.24122 14.8824 7.24122 14.9597ZM6.1962 14.8085C6.17267 14.8757 6.23988 14.953 6.34069 14.9731C6.42805 15.0067 6.52886 14.9731 6.54902 14.9059C6.56918 14.8387 6.50534 14.7614 6.40453 14.7312C6.31716 14.7077 6.21972 14.7413 6.1962 14.8085ZM7.68141 14.7513C7.58396 14.7749 7.51676 14.8387 7.52684 14.916C7.53692 14.9832 7.62429 15.0269 7.72509 15.0034C7.82254 14.9798 7.88974 14.916 7.87966 14.8488C7.86958 14.7849 7.77886 14.7413 7.68141 14.7513ZM9.89243 1.875C5.23181 1.875 1.66663 5.41331 1.66663 10.0739C1.66663 13.8004 4.01206 16.9892 7.36219 18.1116C7.7923 18.1888 7.94351 17.9234 7.94351 17.705C7.94351 17.4966 7.93343 16.3474 7.93343 15.6418C7.93343 15.6418 5.58128 16.1458 5.08732 14.6405C5.08732 14.6405 4.70426 13.6626 4.15318 13.4106C4.15318 13.4106 3.3837 12.8831 4.20695 12.8931C4.20695 12.8931 5.04364 12.9604 5.50399 13.7601C6.23988 15.0571 7.47308 14.6841 7.95359 14.4624C8.03087 13.9247 8.24929 13.5517 8.49122 13.33C6.61286 13.1216 4.7177 12.8495 4.7177 9.61694C4.7177 8.69288 4.97308 8.22917 5.51071 7.63777C5.42335 7.41936 5.13773 6.51882 5.59808 5.35618C6.30036 5.13777 7.91663 6.26344 7.91663 6.26344C8.58867 6.07527 9.31111 5.97782 10.0268 5.97782C10.7426 5.97782 11.465 6.07527 12.1371 6.26344C12.1371 6.26344 13.7533 5.13441 14.4556 5.35618C14.916 6.52218 14.6303 7.41936 14.543 7.63777C15.0806 8.23253 15.4099 8.69624 15.4099 9.61694C15.4099 12.8595 13.4307 13.1183 11.5524 13.33C11.8615 13.5954 12.1236 14.0995 12.1236 14.8891C12.1236 16.0215 12.1135 17.4227 12.1135 17.6983C12.1135 17.9167 12.2681 18.1821 12.6949 18.1048C16.0551 16.9892 18.3333 13.8004 18.3333 10.0739C18.3333 5.41331 14.553 1.875 9.89243 1.875ZM4.93275 13.4644C4.88907 13.498 4.89915 13.5753 4.95628 13.6391C5.01004 13.6929 5.08732 13.7164 5.13101 13.6727C5.17469 13.6391 5.16461 13.5618 5.10749 13.498C5.05372 13.4442 4.97644 13.4207 4.93275 13.4644ZM4.56985 13.1922C4.54633 13.2359 4.57993 13.2897 4.64714 13.3233C4.7009 13.3569 4.7681 13.3468 4.79163 13.2997C4.81515 13.256 4.78155 13.2023 4.71434 13.1687C4.64714 13.1485 4.59337 13.1586 4.56985 13.1922ZM5.65856 14.3884C5.6048 14.4321 5.62496 14.5329 5.70224 14.5968C5.77953 14.6741 5.87698 14.6841 5.92066 14.6304C5.96434 14.5867 5.94418 14.4859 5.87698 14.422C5.80305 14.3448 5.70224 14.3347 5.65856 14.3884ZM5.2755 13.8945C5.22173 13.9281 5.22173 14.0155 5.2755 14.0927C5.32926 14.17 5.41999 14.2036 5.46367 14.17C5.51743 14.1263 5.51743 14.039 5.46367 13.9617C5.41663 13.8844 5.32926 13.8508 5.2755 13.8945Z" fill="black"/>
</g>
<defs>
<clipPath id="clip0_125_9186">
<rect width="20" height="20" fill="white"/>
</clipPath>
</defs>
</svg>
