<svg width="24" height="24" viewBox="0 0 24 24" fill="none" xmlns="http://www.w3.org/2000/svg">
<path d="M8.68952 17.9516C8.68952 18.0323 8.59677 18.0968 8.47984 18.0968C8.34677 18.1089 8.25403 18.0444 8.25403 17.9516C8.25403 17.871 8.34677 17.8065 8.46371 17.8065C8.58468 17.7944 8.68952 17.8589 8.68952 17.9516ZM7.43548 17.7702C7.40726 17.8508 7.4879 17.9435 7.60887 17.9677C7.71371 18.0081 7.83468 17.9677 7.85887 17.8871C7.88306 17.8065 7.80645 17.7137 7.68548 17.6774C7.58065 17.6492 7.46371 17.6895 7.43548 17.7702ZM9.21774 17.7016C9.10081 17.7298 9.02016 17.8065 9.03226 17.8992C9.04435 17.9798 9.14919 18.0323 9.27016 18.004C9.3871 17.9758 9.46774 17.8992 9.45564 17.8185C9.44355 17.7419 9.33468 17.6895 9.21774 17.7016ZM11.871 2.25C6.27823 2.25 2 6.49597 2 12.0887C2 16.5605 4.81452 20.3871 8.83468 21.7339C9.35081 21.8266 9.53226 21.5081 9.53226 21.246C9.53226 20.996 9.52016 19.6169 9.52016 18.7702C9.52016 18.7702 6.69758 19.375 6.10484 17.5685C6.10484 17.5685 5.64516 16.3952 4.98387 16.0927C4.98387 16.0927 4.06048 15.4597 5.04839 15.4718C5.04839 15.4718 6.05242 15.5524 6.60484 16.5121C7.4879 18.0686 8.96774 17.621 9.54435 17.3548C9.6371 16.7097 9.89919 16.2621 10.1895 15.996C7.93548 15.746 5.66129 15.4194 5.66129 11.5403C5.66129 10.4315 5.96774 9.875 6.6129 9.16532C6.50806 8.90323 6.16532 7.82258 6.71774 6.42742C7.56048 6.16532 9.5 7.51613 9.5 7.51613C10.3065 7.29032 11.1734 7.17339 12.0323 7.17339C12.8911 7.17339 13.7581 7.29032 14.5645 7.51613C14.5645 7.51613 16.504 6.16129 17.3468 6.42742C17.8992 7.82661 17.5565 8.90323 17.4516 9.16532C18.0968 9.87903 18.4919 10.4355 18.4919 11.5403C18.4919 15.4315 16.1169 15.7419 13.8629 15.996C14.2339 16.3145 14.5484 16.9194 14.5484 17.8669C14.5484 19.2258 14.5363 20.9073 14.5363 21.2379C14.5363 21.5 14.7218 21.8186 15.2339 21.7258C19.2661 20.3871 22 16.5605 22 12.0887C22 6.49597 17.4637 2.25 11.871 2.25ZM5.91935 16.1573C5.86694 16.1976 5.87903 16.2903 5.94758 16.3669C6.0121 16.4315 6.10484 16.4597 6.15726 16.4073C6.20968 16.3669 6.19758 16.2742 6.12903 16.1976C6.06452 16.1331 5.97177 16.1048 5.91935 16.1573ZM5.48387 15.8306C5.45565 15.8831 5.49597 15.9476 5.57661 15.9879C5.64113 16.0282 5.72177 16.0161 5.75 15.9597C5.77823 15.9073 5.7379 15.8427 5.65726 15.8024C5.57661 15.7782 5.5121 15.7903 5.48387 15.8306ZM6.79032 17.2661C6.72581 17.3185 6.75 17.4395 6.84274 17.5161C6.93548 17.6089 7.05242 17.621 7.10484 17.5565C7.15726 17.504 7.13306 17.3831 7.05242 17.3065C6.96371 17.2137 6.84274 17.2016 6.79032 17.2661ZM6.33065 16.6734C6.26613 16.7137 6.26613 16.8185 6.33065 16.9113C6.39516 17.004 6.50403 17.0444 6.55645 17.004C6.62097 16.9516 6.62097 16.8468 6.55645 16.754C6.5 16.6613 6.39516 16.621 6.33065 16.6734Z" fill="black"/>
</svg>
