<svg width="16" height="16" viewBox="0 0 16 16" fill="none" xmlns="http://www.w3.org/2000/svg">
<path d="M14.6666 7.99967C14.6666 11.6816 11.6818 14.6663 7.99992 14.6663C4.31801 14.6663 1.33325 11.6816 1.33325 7.99967C1.33325 4.31777 4.31801 1.33301 7.99992 1.33301C11.6818 1.33301 14.6666 4.31777 14.6666 7.99967ZM7.22879 11.5296L12.175 6.58338C12.343 6.41543 12.343 6.14309 12.175 5.97513L11.5668 5.36688C11.3988 5.19889 11.1265 5.19889 10.9585 5.36688L6.92465 9.4007L5.04134 7.51739C4.87339 7.34943 4.60105 7.34943 4.43306 7.51739L3.82481 8.12564C3.65685 8.2936 3.65685 8.56594 3.82481 8.73389L6.62051 11.5296C6.78849 11.6976 7.06081 11.6976 7.22879 11.5296Z" fill="#3ABC3F"/>
</svg>
