<svg width="24" height="24" viewBox="0 0 24 24" fill="none" xmlns="http://www.w3.org/2000/svg">
<path d="M3.51203 18.4269L4.39404 19.9615C4.57732 20.2846 4.84078 20.5384 5.15006 20.723L8.30011 15.2307H2C2 15.5884 2.09164 15.9461 2.27491 16.2692L3.51203 18.4269Z" fill="#0066DA"/>
<path d="M12 8.76916L8.84994 3.27686C8.54066 3.46147 8.2772 3.71532 8.09393 4.03839L2.27491 14.1922C2.09501 14.5083 2.00024 14.8663 2 15.2307H8.30011L12 8.76916Z" fill="#00AC47"/>
<path d="M18.85 20.723C19.1593 20.5384 19.4227 20.2846 19.606 19.9615L19.9725 19.3269L21.7251 16.2692C21.9084 15.9461 22 15.5884 22 15.2307H15.6995L17.0401 17.8846L18.85 20.723Z" fill="#EA4335"/>
<path d="M11.9999 8.76923L15.15 3.27692C14.8407 3.09231 14.4856 3 14.119 3H9.88078C9.51423 3 9.15913 3.10385 8.84985 3.27692L11.9999 8.76923Z" fill="#00832D"/>
<path d="M15.6999 15.2307H8.30008L5.15002 20.723C5.4593 20.9076 5.8144 20.9999 6.18095 20.9999H17.819C18.1855 20.9999 18.5406 20.8961 18.8499 20.723L15.6999 15.2307Z" fill="#2684FC"/>
<path d="M18.8156 9.11532L15.9061 4.03839C15.7228 3.71532 15.4593 3.46147 15.1501 3.27686L12 8.76916L15.6999 15.2307H21.9885C21.9885 14.873 21.8969 14.5153 21.7136 14.1922L18.8156 9.11532Z" fill="#FFBA00"/>
</svg>
