<svg width="24" height="24" viewBox="0 0 24 24" fill="none" xmlns="http://www.w3.org/2000/svg">
<path d="M13.8412 2H6.1132C5.3868 2 4.75 2.636 4.75 3.364V20.6368C4.75 21.364 5.386 22.0008 6.114 22.0008H17.9324C18.6596 22.0008 19.2964 21.3648 19.2964 20.6368V7.4544L16.1148 5.1816L13.8412 2Z" fill="#4285F4"/>
<path d="M8.38599 16.5456H15.6588V15.6368H8.38679L8.38599 16.5456ZM8.38599 18.364H13.8404V17.4552H8.38599V18.364ZM8.38599 12V12.9088H15.6588V12H8.38599ZM8.38599 14.7272H15.6588V13.8184H8.38679L8.38599 14.7272Z" fill="#F1F1F1"/>
<path d="M13.8413 2V6.09116C13.8413 6.81836 14.4773 7.45435 15.2045 7.45435H19.2957L13.8413 2Z" fill="#A1C2FA"/>
</svg>
