<svg width="20" height="20" viewBox="0 0 20 20" fill="none" xmlns="http://www.w3.org/2000/svg">
<g clip-path="url(#clip0_5352_38108)">
<path d="M11.5343 1.6665H5.09431C4.48898 1.6665 3.95831 2.1965 3.95831 2.80317V17.1972C3.95831 17.8032 4.48831 18.3338 5.09498 18.3338H14.9436C15.5496 18.3338 16.0803 17.8038 16.0803 17.1972V6.21184L13.429 4.31784L11.5343 1.6665Z" fill="#4285F4"/>
<path d="M6.98834 13.788H13.049V13.0307H6.98901L6.98834 13.788ZM6.98834 15.3033H11.5337V14.546H6.98834V15.3033ZM6.98834 10V10.7573H13.049V10H6.98834ZM6.98834 12.2727H13.049V11.5153H6.98901L6.98834 12.2727Z" fill="#F1F1F1"/>
<path d="M11.5343 1.6665V5.07581C11.5343 5.6818 12.0643 6.2118 12.6703 6.2118H16.0796L11.5343 1.6665Z" fill="#A1C2FA"/>
</g>
<defs>
<clipPath id="clip0_5352_38108">
<rect width="20" height="20" fill="white"/>
</clipPath>
</defs>
</svg>
