<svg width="24" height="24" viewBox="0 0 24 24" fill="none" xmlns="http://www.w3.org/2000/svg">
<path d="M10.813 10.3894C10.7834 10.6602 10.5813 10.8989 10.3019 10.92C9.91648 10.9491 9.57229 10.6674 9.60678 10.2933C9.7126 9.14548 10.5807 8.16544 11.7975 8.06201C13.1094 7.95049 14.2845 8.89371 14.3885 10.2191C14.4497 10.9988 14.1035 11.7308 13.492 12.1691L13.2635 12.3432C12.9261 12.6003 12.7491 12.9283 12.6818 13.2946C12.6232 13.6135 12.3997 13.8995 12.0673 13.9246C11.7349 13.9497 11.4268 13.7068 11.4575 13.3842C11.5296 12.6252 11.8719 11.9228 12.5481 11.4561L12.7766 11.282C13.0793 11.0239 13.2153 10.6999 13.1847 10.3101C13.1358 9.68633 12.6178 9.18072 11.9758 9.22922C11.2493 9.2841 10.8762 9.81059 10.813 10.3894Z" fill="black" fill-opacity="0.3"/>
<path d="M11.9632 14.6175C12.3405 14.589 12.6697 14.8631 12.6985 15.2297C12.7273 15.5963 12.4447 15.9166 12.0673 15.9451C11.69 15.9736 11.3607 15.6995 11.332 15.3329C11.3032 14.9663 11.5858 14.646 11.9632 14.6175Z" fill="black" fill-opacity="0.3"/>
<path fill-rule="evenodd" clip-rule="evenodd" d="M12 5C8.13401 5 5 8.13401 5 12C5 15.866 8.13401 19 12 19C15.866 19 19 15.866 19 12C19 8.13401 15.866 5 12 5ZM6.1831 12C6.1831 8.78741 8.78741 6.1831 12 6.1831C15.2126 6.1831 17.8169 8.78741 17.8169 12C17.8169 15.2126 15.2126 17.8169 12 17.8169C8.78741 17.8169 6.1831 15.2126 6.1831 12Z" fill="black" fill-opacity="0.3"/>
</svg>
