<svg width="20" height="20" viewBox="0 0 20 20" fill="none" xmlns="http://www.w3.org/2000/svg">
<g clip-path="url(#clip0_5352_38141)">
<path d="M1.64825 14.7845L9.99502 19.6037L18.3418 14.7845V5.14593L9.99502 0.32666L1.64825 5.14593V14.7845Z" fill="#469EA2"/>
<path d="M9.1405 1.47949L3.07916 4.97719C3.08909 5.08626 3.08909 5.19602 3.07916 5.3051L9.13057 8.80279C9.37938 8.61883 9.68065 8.51955 9.99009 8.51955C10.2995 8.51955 10.6008 8.61883 10.8496 8.80279L16.901 5.3051C16.8911 5.19602 16.8911 5.08626 16.901 4.97719L10.8595 1.47949C10.6107 1.66345 10.3095 1.76273 10 1.76273C9.69059 1.76273 9.38932 1.66345 9.1405 1.47949ZM17.4873 6.26895L11.4259 9.80639C11.4588 10.1132 11.3938 10.4225 11.2404 10.6902C11.0869 10.9579 10.8527 11.1702 10.5714 11.2969L10.5813 18.2525C10.6793 18.2957 10.7726 18.349 10.8595 18.4115L16.9109 14.9138C16.8781 14.607 16.943 14.2977 17.0965 14.03C17.25 13.7623 17.4841 13.55 17.7655 13.4233V6.42793C17.6686 6.38251 17.5756 6.32935 17.4873 6.26895ZM2.50284 6.30869C2.41585 6.37118 2.3226 6.42446 2.22461 6.46768V13.4631C2.50941 13.5852 2.74678 13.7967 2.90092 14.0655C3.05506 14.3344 3.11762 14.6461 3.07916 14.9536L9.13057 18.4513C9.21756 18.3888 9.3108 18.3355 9.40879 18.2923V11.2969C9.12399 11.1747 8.88662 10.9633 8.73248 10.6944C8.57834 10.4256 8.51578 10.1139 8.55424 9.80639L2.50284 6.30869Z" fill="#6ACAD1"/>
<path d="M9.99502 1.37064L17.4574 5.68314V14.2982L9.99502 18.6107L2.53261 14.2982V5.6732L9.99502 1.37064ZM9.99502 0.347168L1.64825 5.16643V14.805L9.99502 19.6242L18.3418 14.805V5.16643L9.99502 0.347168V0.347168Z" fill="#469EA2"/>
<path d="M10.0547 11.6046H9.93542C9.73041 11.6051 9.52731 11.5651 9.3378 11.4869C9.14829 11.4087 8.9761 11.2938 8.83113 11.1488C8.68616 11.0039 8.57127 10.8317 8.49305 10.6422C8.41484 10.4526 8.37485 10.2495 8.37537 10.0445V9.92529C8.37485 9.72027 8.41484 9.51718 8.49305 9.32766C8.57127 9.13815 8.68616 8.96597 8.83113 8.821C8.9761 8.67603 9.14829 8.56114 9.3378 8.48292C9.52731 8.40471 9.73041 8.36472 9.93542 8.36524H10.0547C10.2597 8.36472 10.4628 8.40471 10.6523 8.48292C10.8418 8.56114 11.014 8.67603 11.159 8.821C11.3039 8.96597 11.4188 9.13815 11.497 9.32766C11.5752 9.51718 11.6152 9.72027 11.6147 9.92529V10.0445C11.6152 10.2495 11.5752 10.4526 11.497 10.6422C11.4188 10.8317 11.3039 11.0039 11.159 11.1488C11.014 11.2938 10.8418 11.4087 10.6523 11.4869C10.4628 11.5651 10.2597 11.6051 10.0547 11.6046Z" fill="#469EA2"/>
<path d="M10.0546 18.0137H9.93535C9.65819 18.0128 9.38584 18.0861 9.1465 18.2259C8.90716 18.3656 8.70952 18.5668 8.57404 18.8086L9.99497 19.6234L11.4159 18.8086C11.2804 18.5668 11.0828 18.3656 10.8434 18.2259C10.6041 18.0861 10.3318 18.0128 10.0546 18.0137V18.0137Z" fill="#469EA2"/>
<path d="M18.3517 13.1948H18.2921C18.0871 13.1943 17.884 13.2343 17.6945 13.3125C17.505 13.3907 17.3328 13.5056 17.1878 13.6506C17.0429 13.7956 16.928 13.9677 16.8498 14.1573C16.7715 14.3468 16.7316 14.5499 16.7321 14.7549V14.8741C16.7306 15.139 16.7992 15.3995 16.9308 15.6293L18.3517 14.8046V13.1948V13.1948Z" fill="#469EA2"/>
<path d="M16.9308 4.35107C16.8004 4.58138 16.7319 4.84158 16.7321 5.10626V5.2255C16.7315 5.43051 16.7715 5.63361 16.8497 5.82312C16.928 6.01263 17.0429 6.18482 17.1878 6.32979C17.3328 6.47476 17.505 6.58965 17.6945 6.66786C17.884 6.74608 18.0871 6.78607 18.2921 6.78555H18.3517V5.16588L16.9308 4.35107Z" fill="#469EA2"/>
<path d="M9.99497 0.34668L8.57404 1.16148C8.70887 1.40458 8.9061 1.60731 9.14539 1.74879C9.38468 1.89027 9.65737 1.96537 9.93535 1.96635H10.0546C10.3318 1.96718 10.6041 1.89393 10.8434 1.75417C11.0828 1.6144 11.2804 1.41321 11.4159 1.17142L9.99497 0.34668Z" fill="#469EA2"/>
<path d="M3.06919 4.34131L1.64825 5.16605V6.78572H1.70787C1.91289 6.78624 2.11599 6.74625 2.3055 6.66804C2.49501 6.58982 2.6672 6.47493 2.81217 6.32996C2.95713 6.18499 3.07203 6.0128 3.15024 5.82329C3.22846 5.63378 3.26845 5.43068 3.26792 5.22567V5.10643C3.26456 4.83907 3.19636 4.57651 3.06919 4.34131V4.34131Z" fill="#469EA2"/>
<path d="M1.70787 13.1948H1.64825V14.8046L3.06919 15.6293C3.19963 15.399 3.26811 15.1388 3.26792 14.8741V14.7549C3.26845 14.5499 3.22846 14.3468 3.15024 14.1573C3.07203 13.9677 2.95713 13.7956 2.81217 13.6506C2.6672 13.5056 2.49501 13.3907 2.3055 13.3125C2.11599 13.2343 1.91289 13.1943 1.70787 13.1948V13.1948Z" fill="#469EA2"/>
<path d="M9.99502 19.6733V10.0248L1.64825 5.20557V14.854L9.99502 19.6733Z" fill="#083B54" fill-opacity="0.15"/>
<path d="M18.3517 14.7645V5.12598L10.0049 9.94524V19.5937L18.3517 14.7645Z" fill="#083B54" fill-opacity="0.05"/>
</g>
<defs>
<clipPath id="clip0_5352_38141">
<rect width="20" height="20" fill="white"/>
</clipPath>
</defs>
</svg>
