<svg width="18" height="18" viewBox="0 0 18 18" fill="none" xmlns="http://www.w3.org/2000/svg">
<path d="M1.4834 13.306L8.99549 17.6433L16.5076 13.306V4.63128L8.99549 0.293945L1.4834 4.63128V13.306Z" fill="#E7E7E7"/>
<path d="M8.22626 1.33105L2.77105 4.47898C2.77999 4.57715 2.77999 4.67593 2.77105 4.7741L8.21731 7.92202C8.44125 7.75646 8.71239 7.66711 8.99088 7.66711C9.26937 7.66711 9.54051 7.75646 9.76445 7.92202L15.2107 4.7741C15.2018 4.67593 15.2018 4.57715 15.2107 4.47898L9.77339 1.33105C9.54946 1.49662 9.27831 1.58597 8.99982 1.58597C8.72133 1.58597 8.45019 1.49662 8.22626 1.33105ZM15.7383 5.64157L10.2831 8.82526C10.3127 9.10139 10.2542 9.37979 10.1161 9.6207C9.978 9.86162 9.76727 10.0527 9.51404 10.1667L9.52299 16.4268C9.61118 16.4657 9.6951 16.5136 9.77339 16.5699L15.2197 13.4219C15.1901 13.1458 15.2485 12.8674 15.3867 12.6265C15.5248 12.3856 15.7355 12.1945 15.9888 12.0805V5.78465C15.9016 5.74378 15.8178 5.69592 15.7383 5.64157ZM2.25236 5.67734C2.17407 5.73357 2.09015 5.78153 2.00195 5.82043V12.1163C2.25828 12.2262 2.47191 12.4165 2.61063 12.6585C2.74936 12.9005 2.80566 13.181 2.77105 13.4577L8.21731 16.6056C8.2956 16.5494 8.37952 16.5015 8.46772 16.4626V10.1667C8.21139 10.0568 7.99776 9.86645 7.85904 9.62449C7.72031 9.38252 7.66401 9.10202 7.69862 8.82526L2.25236 5.67734Z" fill="#FBFBFB"/>
<path d="M8.99549 1.23363L15.7117 5.11487V12.8684L8.99549 16.7497L2.27932 12.8684V5.10593L8.99549 1.23363ZM8.99549 0.3125L1.4834 4.64984V13.3245L8.99549 17.6619L16.5076 13.3245V4.64984L8.99549 0.3125V0.3125Z" fill="#E7E7E7"/>
<path d="M9.04945 10.4437H8.94214C8.75762 10.4442 8.57483 10.4082 8.40427 10.3378C8.23371 10.2674 8.07875 10.164 7.94827 10.0335C7.8178 9.90308 7.7144 9.74811 7.64401 9.57755C7.57361 9.40699 7.53762 9.2242 7.53809 9.03969V8.93237C7.53762 8.74786 7.57361 8.56507 7.64401 8.39451C7.7144 8.22395 7.8178 8.06898 7.94827 7.93851C8.07875 7.80804 8.23371 7.70463 8.40427 7.63424C8.57483 7.56385 8.75762 7.52785 8.94214 7.52832H9.04945C9.23397 7.52785 9.41675 7.56385 9.58731 7.63424C9.75787 7.70463 9.91284 7.80804 10.0433 7.93851C10.1738 8.06898 10.2772 8.22395 10.3476 8.39451C10.418 8.56507 10.454 8.74786 10.4535 8.93237V9.03969C10.454 9.2242 10.418 9.40699 10.3476 9.57755C10.2772 9.74811 10.1738 9.90308 10.0433 10.0335C9.91284 10.164 9.75787 10.2674 9.58731 10.3378C9.41675 10.4082 9.23397 10.4442 9.04945 10.4437Z" fill="#E7E7E7"/>
<path d="M9.0493 16.2129H8.94198C8.69254 16.2121 8.44742 16.2781 8.23202 16.4039C8.01661 16.5296 7.83873 16.7107 7.7168 16.9283L8.99564 17.6617L10.2745 16.9283C10.1526 16.7107 9.97468 16.5296 9.75927 16.4039C9.54386 16.2781 9.29874 16.2121 9.0493 16.2129V16.2129Z" fill="#E7E7E7"/>
<path d="M16.5163 11.875H16.4627C16.2781 11.8745 16.0954 11.9105 15.9248 11.9809C15.7542 12.0513 15.5993 12.1547 15.4688 12.2852C15.3383 12.4157 15.2349 12.5706 15.1645 12.7412C15.0941 12.9117 15.0581 13.0945 15.0586 13.2791V13.3864C15.0573 13.6247 15.119 13.8592 15.2375 14.066L16.5163 13.3238V11.875V11.875Z" fill="#E7E7E7"/>
<path d="M15.2375 3.91602C15.1201 4.12329 15.0584 4.35747 15.0586 4.59568V4.703C15.0581 4.88751 15.0941 5.0703 15.1645 5.24086C15.2349 5.41142 15.3383 5.56639 15.4688 5.69686C15.5993 5.82733 15.7542 5.93073 15.9248 6.00113C16.0953 6.07152 16.2781 6.10751 16.4626 6.10704H16.5163V4.64934L15.2375 3.91602Z" fill="#E7E7E7"/>
<path d="M8.99564 0.311523L7.7168 1.04485C7.83815 1.26363 8.01566 1.44609 8.23102 1.57342C8.44638 1.70075 8.6918 1.76834 8.94198 1.76923H9.0493C9.29874 1.76998 9.54386 1.70405 9.75927 1.57826C9.97468 1.45248 10.1526 1.2714 10.2745 1.05379L8.99564 0.311523Z" fill="#E7E7E7"/>
<path d="M2.76224 3.90723L1.4834 4.64949V6.1072H1.53706C1.72157 6.10767 1.90436 6.07167 2.07492 6.00128C2.24548 5.93089 2.40045 5.82749 2.53092 5.69701C2.66139 5.56654 2.76479 5.41157 2.83519 5.24101C2.90558 5.07045 2.94157 4.88767 2.9411 4.70315V4.59583C2.93807 4.35521 2.8767 4.11891 2.76224 3.90723V3.90723Z" fill="#E7E7E7"/>
<path d="M1.53706 11.875H1.4834V13.3238L2.76224 14.066C2.87964 13.8588 2.94126 13.6246 2.9411 13.3864V13.2791C2.94157 13.0945 2.90558 12.9117 2.83519 12.7412C2.76479 12.5706 2.66139 12.4157 2.53092 12.2852C2.40045 12.1547 2.24548 12.0513 2.07492 11.9809C1.90436 11.9105 1.72157 11.8745 1.53706 11.875V11.875Z" fill="#E7E7E7"/>
<path d="M8.99549 17.7055V9.02191L1.4834 4.68457V13.3682L8.99549 17.7055Z" fill="black" fill-opacity="0.06"/>
<path d="M16.517 13.288V4.61328L9.00488 8.95062V17.6342L16.517 13.288Z" fill="black" fill-opacity="0.02"/>
</svg>
