<svg width="120" height="24" viewBox="0 0 120 24" fill="none" xmlns="http://www.w3.org/2000/svg">
<path d="M22.5891 5.30362C22.937 5.58303 24 6.51197 24 6.51197C24 6.51197 22.6059 7.04875 22.3011 7.28895C21.85 7.65906 21.5093 8.14681 21.3101 8.70075C21.0726 9.2939 20.6359 10.5562 20.3479 11.1836C20.06 11.8111 19.5897 12.6298 17.5285 13.7205C15.7888 14.6445 14.9322 15.0048 14.6899 15.6445C14.4403 16.2989 14.5459 17.0392 14.9658 17.5906C15.3113 18.0196 15.9928 18.7843 16.7007 19.0024C17.4085 19.2181 17.4613 19.5 17.4613 19.5C17.0222 19.3701 16.5663 19.2941 16.1056 19.277C15.5969 19.2794 15.0906 19.3554 14.6035 19.5C14.6035 19.2206 15.129 19.0024 15.129 19.0024C15.129 19.0024 15.1098 18.6299 14.0972 17.9436C13.5045 17.5514 13.111 16.9043 13.0318 16.1837C13.0318 16.1837 11.3473 16.071 11.2585 16.071L12.2951 15.7573C10.5747 14.8308 1.73725 18.4142 1.73725 18.4142V18.1642C1.21176 18.4755 0.592681 18.5735 0 18.4338L1.06779 17.5857H0.321536L7.73365 13.6469L6.08278 13.6298C6.08278 13.6298 12.4991 9.44096 14.1116 8.42868C15.7265 7.41641 16.7414 7.13454 17.1398 6.85267C17.5357 6.56835 18.5147 5.58794 19.021 5.25214C19.5273 4.91635 20.2783 4.41634 21.015 4.51193C21.6077 4.60752 22.1524 4.88204 22.5891 5.30362Z" fill="black"/>
<path d="M31.8252 7.54763H33.5371V10.6973H33.5931L36.1912 7.54763H38.1596L35.1137 11.1998L38.2808 15.3636H36.1632L33.5884 11.8697H33.5324V15.3636H31.8206L31.8252 7.54763ZM39.4143 14.9263C39.0645 14.5634 38.8872 14.0749 38.8872 13.4655V9.78078H40.4545V13.1398C40.4545 13.4608 40.5384 13.7074 40.7017 13.8749C40.865 14.0424 41.0982 14.1308 41.3967 14.1308C41.6672 14.1308 41.9098 14.0563 42.1337 13.9028C42.3576 13.7493 42.5395 13.5492 42.6841 13.2933V9.78078H44.2514V15.3636H42.6841V14.6704C42.185 15.2055 41.574 15.4753 40.8603 15.4753C40.2446 15.4753 39.7641 15.2939 39.4143 14.9263ZM46.0985 15.0473C45.6787 14.7588 45.3988 14.3587 45.2589 13.8377L45.3055 13.6934L46.5043 13.3352C46.6396 13.9586 47.0407 14.275 47.7124 14.275C47.9456 14.275 48.1322 14.2285 48.2815 14.1308C48.4307 14.0331 48.5054 13.8981 48.5054 13.7307C48.5054 13.5539 48.4214 13.4143 48.2535 13.3119C48.0856 13.2096 47.759 13.0979 47.2739 12.9723C46.6862 12.8327 46.2384 12.6234 45.9399 12.3535C45.6414 12.0837 45.4921 11.7208 45.4921 11.2742C45.4921 10.9764 45.5761 10.7066 45.744 10.4647C45.9119 10.2228 46.1498 10.032 46.453 9.88778C46.7608 9.74821 47.1107 9.67377 47.5072 9.67377C48.0949 9.67377 48.58 9.80404 48.9578 10.0599C49.3356 10.3158 49.5782 10.6787 49.6901 11.1486L49.6248 11.2695L48.4401 11.558C48.3887 11.2975 48.2768 11.0974 48.1042 10.9625C47.9316 10.8229 47.7217 10.7578 47.4792 10.7578C47.2926 10.7578 47.134 10.795 47.0081 10.8741C46.8821 10.9532 46.8168 11.0602 46.8168 11.1905C46.8168 11.3533 46.9194 11.4882 47.1293 11.5906C47.3392 11.6929 47.7171 11.8232 48.2721 11.9721C48.8459 12.1302 49.2703 12.3349 49.5409 12.5862C49.8114 12.8374 49.9513 13.191 49.9513 13.6376C49.9513 13.9819 49.858 14.2936 49.6761 14.5774C49.4942 14.8612 49.233 15.0799 48.8925 15.2427C48.552 15.4009 48.1602 15.4846 47.7124 15.4846C47.0547 15.4753 46.5136 15.3311 46.0985 15.0473ZM51.6445 15.2706C51.374 15.131 51.1548 14.9356 50.9962 14.6797C50.8376 14.4239 50.7536 14.1215 50.7536 13.7818C50.7536 13.2747 50.9309 12.87 51.2807 12.5583C51.6305 12.2512 52.111 12.0651 52.7267 12.0046L54.238 11.8464V11.5999C54.238 11.3486 54.1587 11.1486 53.9954 11.009C53.8368 10.8694 53.6083 10.795 53.3191 10.795C53.0579 10.795 52.848 10.8648 52.694 10.9997C52.5355 11.1393 52.4422 11.3254 52.4048 11.5626L51.0848 11.451L51.0288 11.3859C51.1408 10.8276 51.4067 10.3995 51.8218 10.1064C52.2416 9.81334 52.7453 9.66447 53.3424 9.66447C54.0514 9.66447 54.6251 9.84126 55.0683 10.1948C55.5067 10.5484 55.7306 11.0462 55.7306 11.6836V13.6888C55.7306 13.8609 55.7679 13.9912 55.8379 14.0796C55.9079 14.168 56.0058 14.2145 56.1364 14.2145C56.2204 14.2145 56.2903 14.2052 56.351 14.1819L56.407 14.2471V15.3171C56.1831 15.3916 55.9265 15.4288 55.6327 15.4288C55.0263 15.4288 54.6111 15.1776 54.3779 14.6704H54.2986C54.0374 14.9403 53.7669 15.1403 53.4917 15.2753C53.2165 15.4102 52.8993 15.4753 52.5401 15.4753C52.2136 15.4753 51.9197 15.4055 51.6445 15.2706ZM53.6036 14.0889C53.8088 13.954 54.0188 13.7493 54.238 13.4748V12.8281L53.0066 12.9863C52.7454 13.0142 52.5448 13.0933 52.4095 13.2189C52.2696 13.3445 52.2043 13.5027 52.2043 13.6888C52.2043 13.8749 52.2696 14.0238 52.4002 14.1308C52.5308 14.2378 52.6987 14.2936 52.8993 14.2936C53.1605 14.2936 53.3984 14.2238 53.6036 14.0889ZM57.4051 9.78078H58.9724V10.4414C59.4109 9.92965 59.966 9.66912 60.6283 9.66912C61.2907 9.66912 61.7571 9.92965 62.0276 10.4507C62.5267 9.92965 63.1238 9.66912 63.8188 9.66912C64.3925 9.66912 64.8357 9.8273 65.1528 10.1483C65.4654 10.4693 65.6239 10.9067 65.6239 11.4649V15.3636H64.0567V11.8139C64.0567 11.2788 63.8188 11.009 63.3384 11.009C62.9046 11.009 62.5547 11.2416 62.2842 11.7115V15.3636H60.7169V11.8232C60.7169 11.2788 60.4837 11.009 60.0219 11.009C59.8074 11.009 59.6021 11.0788 59.4155 11.223C59.229 11.3626 59.0797 11.5487 58.9678 11.772V15.3683H57.4051V9.78078ZM67.5877 15.2706C67.3171 15.131 67.0979 14.9356 66.9393 14.6797C66.7807 14.4239 66.6968 14.1215 66.6968 13.7818C66.6968 13.2747 66.874 12.87 67.2239 12.5583C67.5737 12.2512 68.0541 12.0651 68.6698 12.0046L70.1811 11.8464V11.5999C70.1811 11.3486 70.1018 11.1486 69.9386 11.009C69.78 10.8694 69.5514 10.795 69.2622 10.795C69.001 10.795 68.7911 10.8648 68.6372 10.9997C68.4786 11.1393 68.3853 11.3254 68.348 11.5626L67.028 11.451L66.972 11.3859C67.0839 10.8276 67.3498 10.3995 67.7649 10.1064C68.1847 9.81334 68.6885 9.66447 69.2855 9.66447C69.9945 9.66447 70.5683 9.84126 71.0114 10.1948C71.4499 10.5484 71.6738 11.0462 71.6738 11.6836V13.6888C71.6738 13.8609 71.7111 13.9912 71.781 14.0796C71.851 14.168 71.949 14.2145 72.0796 14.2145C72.1635 14.2145 72.2335 14.2052 72.2941 14.1819L72.3501 14.2471V15.3171C72.1262 15.3916 71.8697 15.4288 71.5758 15.4288C70.9694 15.4288 70.5543 15.1776 70.3211 14.6704H70.2418C69.9806 14.9403 69.71 15.1403 69.4348 15.2753C69.1596 15.4102 68.8424 15.4753 68.4833 15.4753C68.1567 15.4753 67.8582 15.4055 67.5877 15.2706ZM69.5468 14.0889C69.752 13.954 69.9619 13.7493 70.1811 13.4748V12.8281L68.9497 12.9863C68.6885 13.0142 68.4879 13.0933 68.3527 13.2189C68.2127 13.3445 68.1474 13.5027 68.1474 13.6888C68.1474 13.8749 68.2127 14.0238 68.3433 14.1308C68.4739 14.2378 68.6419 14.2936 68.8424 14.2936C69.1036 14.2936 69.3415 14.2238 69.5468 14.0889ZM74.4608 8.99696V7.54541H80.1141V8.99696H78.1457V15.3614H76.4338V8.99696H74.4608ZM80.38 9.77856H81.9472V10.4485C82.1478 10.2112 82.381 10.0205 82.6423 9.88091C82.9035 9.74134 83.1927 9.6669 83.5052 9.6669C83.7291 9.6669 83.9063 9.69482 84.0416 9.7553L83.841 10.9835L83.7617 11.0626C83.6125 11.0254 83.4865 11.0068 83.3792 11.0068C83.0714 11.0068 82.7962 11.0905 82.549 11.2627C82.3017 11.4348 82.1012 11.6814 81.9426 12.0117V15.3614H80.3753L80.38 9.77856ZM85.884 15.1102C85.4456 14.8683 85.1051 14.5287 84.8579 14.0867C84.6106 13.6494 84.4894 13.1422 84.4894 12.57C84.4894 12.0024 84.62 11.4999 84.8859 11.0626C85.1517 10.6253 85.5016 10.281 85.9447 10.0344C86.3831 9.78787 86.8589 9.6669 87.3674 9.6669C87.9178 9.6669 88.4075 9.78321 88.832 10.0112C89.2565 10.2438 89.5876 10.5741 89.8209 11.0068C90.0541 11.4395 90.1754 11.9466 90.1754 12.5374V12.9515H85.968C86.0053 13.3376 86.1546 13.6447 86.4111 13.8727C86.6677 14.1006 86.9989 14.2123 87.4 14.2123C88.0437 14.2123 88.4682 13.9238 88.6781 13.3516L89.9888 13.4865L90.0681 13.6214C89.8582 14.2402 89.527 14.7008 89.0652 15.0125C88.6034 15.3242 88.039 15.4777 87.3674 15.4777C86.817 15.4731 86.3225 15.3521 85.884 15.1102ZM88.7014 11.9466C88.6641 11.6116 88.5241 11.3418 88.2769 11.1417C88.0297 10.9417 87.7265 10.8393 87.358 10.8393C87.0315 10.8393 86.7423 10.9417 86.4904 11.1417C86.2386 11.3418 86.08 11.6116 86.0147 11.9466H88.7014ZM91.8499 15.2684C91.5794 15.1288 91.3601 14.9334 91.2015 14.6775C91.043 14.4217 90.959 14.1192 90.959 13.7796C90.959 13.2725 91.1362 12.8678 91.4861 12.556C91.8359 12.249 92.3163 12.0629 92.9321 12.0024L94.4433 11.8442V11.5976C94.4433 11.3464 94.3641 11.1464 94.2008 11.0068C94.0422 10.8672 93.8136 10.7928 93.5244 10.7928C93.2632 10.7928 93.0533 10.8626 92.8994 10.9975C92.7408 11.1371 92.6475 11.3232 92.6102 11.5604L91.2902 11.4488L91.2342 11.3836C91.3461 10.8253 91.612 10.3973 92.0272 10.1042C92.4423 9.81113 92.9507 9.66225 93.5478 9.66225C94.2568 9.66225 94.8305 9.83904 95.2736 10.1926C95.7121 10.5462 95.936 11.044 95.936 11.6814V13.6819C95.936 13.8541 95.9733 13.9843 96.0433 14.0727C96.1132 14.1611 96.2112 14.2076 96.3418 14.2076C96.4257 14.2076 96.4957 14.1983 96.5564 14.1751L96.6123 14.2402V15.3103C96.3884 15.3847 96.1319 15.4219 95.838 15.4219C95.2316 15.4219 94.8165 15.1707 94.5833 14.6636H94.504C94.2428 14.9334 93.9722 15.1335 93.697 15.2684C93.4218 15.4033 93.1046 15.4684 92.7455 15.4684C92.419 15.4731 92.1251 15.4033 91.8499 15.2684ZM93.809 14.0867C94.0142 13.9518 94.2241 13.7471 94.4433 13.4726V12.8259L93.2119 12.9841C92.9507 13.012 92.7502 13.0911 92.6149 13.2167C92.475 13.3423 92.4096 13.5005 92.4096 13.6866C92.4096 13.8727 92.4749 14.0215 92.6055 14.1286C92.7362 14.2356 92.9041 14.2914 93.1046 14.2914C93.3659 14.2914 93.6037 14.2216 93.809 14.0867ZM98.035 15.0451C97.6152 14.7566 97.3353 14.3565 97.1954 13.8354L97.242 13.6912L98.4408 13.333C98.5761 13.9564 98.9772 14.2728 99.6489 14.2728C99.8821 14.2728 100.069 14.2263 100.218 14.1286C100.367 14.0309 100.442 13.8959 100.442 13.7284C100.442 13.5517 100.358 13.4121 100.19 13.3097C100.022 13.2074 99.6955 13.0957 99.2104 12.9701C98.6227 12.8305 98.1749 12.6212 97.8764 12.3513C97.5779 12.0815 97.4286 11.7186 97.4286 11.272C97.4286 10.9742 97.5126 10.7044 97.6805 10.4625C97.8484 10.2205 98.0863 10.0298 98.3895 9.88557C98.6973 9.74599 99.0472 9.67156 99.4437 9.67156C100.031 9.67156 100.516 9.80182 100.894 10.0577C101.272 10.3136 101.515 10.6765 101.627 11.1464L101.561 11.2673L100.377 11.5558C100.325 11.2952 100.213 11.0952 100.041 10.9603C99.8681 10.8253 99.6582 10.7556 99.4157 10.7556C99.2291 10.7556 99.0705 10.7928 98.9446 10.8719C98.8186 10.951 98.7533 11.058 98.7533 11.1882C98.7533 11.3511 98.8559 11.486 99.0658 11.5883C99.2757 11.6907 99.6536 11.821 100.209 11.9698C100.782 12.128 101.207 12.3327 101.477 12.584C101.748 12.8352 101.888 13.1888 101.888 13.6354C101.888 13.9797 101.795 14.2914 101.613 14.5752C101.431 14.859 101.17 15.0776 100.829 15.2405C100.489 15.3987 100.097 15.4824 99.6489 15.4824C98.9912 15.4731 98.4548 15.3289 98.035 15.0451ZM103.441 14.9241C103.091 14.5612 102.914 14.0727 102.914 13.4633V9.77856H104.481V13.1376C104.481 13.4586 104.565 13.7052 104.728 13.8727C104.892 14.0448 105.125 14.1286 105.423 14.1286C105.694 14.1286 105.937 14.0541 106.16 13.9006C106.384 13.7471 106.566 13.547 106.711 13.2911V9.77391H108.278V15.3568H106.711V14.6636C106.212 15.1986 105.601 15.4684 104.887 15.4684C104.276 15.4731 103.796 15.2916 103.441 14.9241ZM109.668 9.77856H111.235V10.4485C111.436 10.2112 111.669 10.0205 111.93 9.88091C112.192 9.74134 112.481 9.6669 112.793 9.6669C113.017 9.6669 113.195 9.69482 113.33 9.7553L113.129 10.9835L113.05 11.0626C112.901 11.0254 112.775 11.0068 112.667 11.0068C112.36 11.0068 112.084 11.0905 111.837 11.2627C111.59 11.4348 111.389 11.6814 111.231 12.0117V15.3614H109.664L109.668 9.77856ZM116.147 15.2172L113.843 9.77856H115.634L116.777 12.5607L116.833 13.3749H116.921L118.344 9.77856H120L116.819 17.5946H115.186L116.147 15.2172Z" fill="black"/>
</svg>
