<svg width="24" height="24" viewBox="0 0 24 24" fill="none" xmlns="http://www.w3.org/2000/svg">
<path d="M11.4297 6.29686L13.4258 4.30075C13.8377 3.88851 14.3267 3.56145 14.865 3.33827C15.4033 3.11508 15.9803 3.00014 16.563 3C17.1457 2.99986 17.7228 3.11454 18.2611 3.33748C18.7995 3.56041 19.2887 3.88724 19.7008 4.29928C20.1128 4.71133 20.4396 5.20052 20.6626 5.73892C20.8855 6.27731 21.0002 6.85435 21.0001 7.43707C20.9999 8.01979 20.885 8.59678 20.6618 9.13506C20.4386 9.67335 20.1116 10.1624 19.6993 10.5742L16.8477 13.4258C16.4358 13.8378 15.9468 14.1645 15.4086 14.3875C14.8704 14.6104 14.2935 14.7251 13.711 14.7251C13.1284 14.7251 12.5516 14.6104 12.0134 14.3875C11.4752 14.1645 10.9861 13.8378 10.5742 13.4258" stroke="#1D253C" stroke-linecap="round" stroke-linejoin="round"/>
<path d="M12.5704 17.7037L10.5742 19.6998C10.1624 20.112 9.67335 20.4391 9.13506 20.6623C8.59677 20.8854 8.01979 21.0004 7.43707 21.0005C6.85434 21.0007 6.2773 20.886 5.73891 20.663C5.20052 20.4401 4.71133 20.1133 4.29928 19.7012C3.88724 19.2892 3.56041 18.8 3.33748 18.2616C3.11454 17.7232 2.99986 17.1462 3 16.5634C3.00014 15.9807 3.11508 15.4037 3.33827 14.8655C3.56145 14.3272 3.88851 13.8381 4.30074 13.4263L7.15234 10.5747C7.56426 10.1628 8.05328 9.836 8.59149 9.61306C9.12969 9.39013 9.70654 9.27539 10.2891 9.27539C10.8716 9.27539 11.4485 9.39013 11.9867 9.61306C12.5249 9.836 13.0139 10.1628 13.4258 10.5747" stroke="#1D253C" stroke-linecap="round" stroke-linejoin="round"/>
</svg>
