<svg width="16" height="16" viewBox="0 0 16 16" fill="none" xmlns="http://www.w3.org/2000/svg">
<path d="M9.7674 5.52437L5.52479 9.76699C5.43113 9.86079 5.37854 9.98794 5.37859 10.1205C5.37864 10.253 5.43131 10.3802 5.52504 10.4739C5.61877 10.5676 5.74588 10.6203 5.87844 10.6203C6.01099 10.6204 6.13814 10.5678 6.23194 10.4741L10.4746 6.23153C10.521 6.18511 10.5579 6.12998 10.5831 6.0693C10.6083 6.00862 10.6212 5.94357 10.6213 5.87787C10.6213 5.81218 10.6084 5.74712 10.5832 5.68642C10.5581 5.62572 10.5213 5.57057 10.4748 5.52411C10.4284 5.47766 10.3732 5.44081 10.3125 5.41568C10.2518 5.39055 10.1867 5.37763 10.121 5.37766C10.0554 5.37768 9.99031 5.39065 9.92962 5.41582C9.86894 5.441 9.81382 5.47789 9.7674 5.52437Z" fill="#1D253C"/>
<path d="M8.70659 10.8282L6.93883 12.5959C6.47 13.0648 5.83412 13.3281 5.1711 13.3281C4.50807 13.3281 3.8722 13.0648 3.40337 12.5959C2.93453 12.1271 2.67115 11.4912 2.67115 10.8282C2.67115 10.1652 2.93453 9.5293 3.40337 9.06047L5.17113 7.29271C5.21761 7.24628 5.2545 7.19116 5.27967 7.13048C5.30485 7.0698 5.31782 7.00475 5.31784 6.93905C5.31787 6.87336 5.30494 6.8083 5.27981 6.7476C5.25468 6.6869 5.21784 6.63175 5.17139 6.58529C5.12493 6.53884 5.06978 6.50199 5.00908 6.47686C4.94838 6.45173 4.88332 6.43881 4.81763 6.43884C4.75193 6.43886 4.68688 6.45183 4.6262 6.477C4.56552 6.50218 4.51039 6.53906 4.46397 6.58555L2.69621 8.35331C2.03983 9.00969 1.67108 9.89994 1.67108 10.8282C1.67108 11.7565 2.03983 12.6467 2.69621 13.3031C3.35259 13.9595 4.24283 14.3282 5.1711 14.3282C6.09936 14.3282 6.9896 13.9595 7.64598 13.3031L9.41374 11.5353C9.50752 11.4415 9.5602 11.3144 9.5602 11.1817C9.5602 11.0491 9.50752 10.9219 9.41374 10.8282C9.31997 10.7344 9.19278 10.6817 9.06016 10.6817C8.92755 10.6817 8.80036 10.7344 8.70659 10.8282Z" fill="#1D253C"/>
<path d="M13.3032 2.69623C12.6468 2.03987 11.7565 1.67114 10.8283 1.67114C9.90003 1.67114 9.00979 2.03987 8.35339 2.69623L6.58563 4.46399C6.49197 4.55779 6.43938 4.68494 6.43943 4.81749C6.43948 4.95004 6.49216 5.07715 6.58589 5.17088C6.67962 5.26461 6.80673 5.31729 6.93928 5.31734C7.07184 5.31739 7.19899 5.2648 7.29278 5.17114L9.06055 3.40338C9.52943 2.9348 10.1652 2.67162 10.8281 2.67172C11.491 2.67183 12.1267 2.93521 12.5955 3.40394C13.0642 3.87268 13.3276 4.50839 13.3277 5.17128C13.3278 5.83417 13.0646 6.46996 12.596 6.93884L10.8282 8.7066C10.7346 8.8004 10.682 8.92755 10.6821 9.06011C10.6821 9.19266 10.7348 9.31977 10.8285 9.4135C10.9222 9.50723 11.0493 9.55991 11.1819 9.55996C11.3145 9.56 11.4416 9.50742 11.5354 9.41376L13.3032 7.646C13.9586 6.98909 14.3266 6.09905 14.3266 5.17111C14.3266 4.24318 13.9586 3.35313 13.3032 2.69623Z" fill="#1D253C"/>
</svg>
