<svg width="24" height="24" viewBox="0 0 24 24" fill="none" xmlns="http://www.w3.org/2000/svg">
<path d="M3.00996 16.9328V17.1313C3.00996 17.1313 10.7525 14.2658 12.2577 15.0059L11.3498 15.2564C11.4292 15.2564 12.9007 15.3466 12.9007 15.3466C12.9351 15.6313 13.0366 15.9052 13.1978 16.1487C13.359 16.3922 13.5758 16.5991 13.8327 16.7545C14.7189 17.3028 14.7358 17.6006 14.7358 17.6006C14.7358 17.6006 14.2758 17.7766 14.2758 18C14.7035 17.8853 15.1458 17.8253 15.5907 17.8218C15.992 17.8352 16.39 17.895 16.7756 18C16.7756 18 16.7298 17.7744 16.1109 17.6006C15.492 17.4269 14.8947 16.8132 14.5937 16.4725C14.4132 16.2547 14.2961 15.9968 14.2538 15.7239C14.2116 15.451 14.2458 15.1725 14.3529 14.9157C14.5672 14.4012 15.3162 14.1147 16.8358 13.3746C18.6396 12.5014 19.0514 11.8471 19.3042 11.344C19.5571 10.8408 19.9376 9.83225 20.1471 9.35843C20.3213 8.91556 20.6211 8.52553 21.0141 8.23029C21.2814 8.0385 22.5 7.60755 22.5 7.60755C22.5 7.60755 21.5704 6.86523 21.267 6.64186C20.8877 6.30534 20.4081 6.08498 19.8919 6.0101C19.2464 5.93113 18.5914 6.33275 18.1483 6.60125C17.7052 6.86975 16.8478 7.65493 16.501 7.88056C16.1542 8.10619 15.2656 8.33182 13.8519 9.14183C12.4383 9.95183 6.82706 13.3069 6.82706 13.3069L8.27201 13.3205L1.78658 16.4725H2.43441L1.5 17.1494C2.01752 17.2604 2.56074 17.183 3.01961 16.9328H3.00996Z" fill="black"/>
</svg>
