<svg width="24" height="24" viewBox="0 0 24 24" fill="none" xmlns="http://www.w3.org/2000/svg">
<path fill-rule="evenodd" clip-rule="evenodd" d="M18.2104 5.3339L16.0255 9.29289H14.0701L17.2328 3.56018L18.2104 5.3339ZM14.6627 3.2417H16.618L13.4554 8.9744L12.4777 7.20069L14.6627 3.2417ZM12.7962 9.48044L11.7915 11.2038L8.33744 5.28353L9.34219 3.56018L12.7962 9.48044ZM5.47109 5.29955L6.69643 3.2417H8.72782L7.50609 5.29955L11.2038 11.5223H9.17241L5.47109 5.29955ZM2.95285 9.92985H7.35237L8.33744 11.5223H1.96777L2.95285 9.92985ZM2.95285 14.0701L1.96777 12.4777H8.33744L7.35237 14.0701H2.95285ZM9.21244 12.1592H11.2038L7.78093 18.2104H5.78958L9.21244 12.1592ZM9.17794 20.7583H6.78345L5.78958 19.0418H8.18407L11.8023 12.7962L12.7962 14.5127L9.17794 20.7583ZM14.6627 20.7583L12.4777 16.7993L13.4554 15.0256L16.618 20.7583H14.6627ZM18.2104 18.6661L17.2328 20.4398L14.0701 14.7071H16.0255L18.2104 18.6661ZM13.4887 14.0701L12.4777 12.4777H19.4288L20.4398 14.0701H13.4887ZM19.813 11.6644H19.7807H12.4777L13.4852 9.92985H20.8204L22.0322 12.0171L21.0248 13.7517L19.813 11.6644Z" fill="#FF3B80"/>
</svg>
