<svg width="24" height="24" viewBox="0 0 24 24" fill="none" xmlns="http://www.w3.org/2000/svg">
<path d="M12.4286 17.9864C11.8889 17.8739 11.3492 18.2115 11.2381 18.7741C11.127 19.3206 11.4603 19.8672 12.0159 19.9797C12.5555 20.0922 13.0952 19.7546 13.2063 19.192C13.3175 18.6294 12.9841 18.0989 12.4286 17.9864Z" fill="#E6007A"/>
<path d="M12 4C8.69841 4 6 6.71667 6 10.0763C6 10.7515 6.11111 11.4106 6.31746 12.0536C6.46032 12.4876 6.93651 12.7287 7.38095 12.584C7.80952 12.4394 8.04762 11.9571 7.90476 11.507C7.73016 11.0087 7.65079 10.4782 7.66667 9.94775C7.73016 7.68117 9.53968 5.81647 11.7778 5.70395C14.2698 5.57535 16.3333 7.58472 16.3333 10.0763C16.3333 12.4072 14.5238 14.3201 12.254 14.4487C12.254 14.4487 11.4127 14.497 11 14.5613C10.7937 14.5934 10.6349 14.6256 10.5238 14.6416C10.4762 14.6577 10.4286 14.6095 10.4444 14.5613L10.5873 13.854L11.3651 10.221C11.4603 9.77092 11.1746 9.32082 10.7302 9.22437C10.2857 9.12792 9.84127 9.41727 9.74603 9.86737C9.74603 9.86737 7.87302 18.7086 7.85714 18.8051C7.7619 19.2552 8.04762 19.7053 8.49206 19.8017C8.93651 19.8982 9.38095 19.6088 9.47619 19.1587C9.49206 19.0623 9.74603 17.8888 9.74603 17.8888C9.93651 16.9886 10.6667 16.3295 11.5238 16.217C11.7143 16.1848 12.4603 16.1366 12.4603 16.1366C15.5556 15.8955 18 13.2753 18 10.0763C18 6.71667 15.3016 4 12 4Z" fill="black"/>
</svg>
