<svg width="24" height="24" viewBox="0 0 24 24" fill="none" xmlns="http://www.w3.org/2000/svg">
<path d="M13.3413 12C13.3413 15.3137 10.6906 18 7.42067 18C4.15076 18 1.5 15.3137 1.5 12C1.5 8.68628 4.15076 6 7.42067 6C10.6906 6 13.3413 8.68628 13.3413 12Z" fill="black"/>
<path d="M19.8035 12C19.8035 15.1165 18.4781 17.6428 16.8431 17.6428C15.2082 17.6428 13.8828 15.1165 13.8828 12C13.8828 8.88354 15.2082 6.35718 16.8431 6.35718C18.4781 6.35718 19.8035 8.88354 19.8035 12Z" fill="black"/>
<path d="M21.4224 17.0742C22.0175 17.0742 22.5 14.8025 22.5 12C22.5 9.19751 22.0175 6.92554 21.4224 6.92554C20.8272 6.92554 20.3448 9.19751 20.3448 12C20.3448 14.8025 20.8272 17.0742 21.4224 17.0742Z" fill="black"/>
</svg>
