<svg width="24" height="24" viewBox="0 0 24 24" fill="none" xmlns="http://www.w3.org/2000/svg">
<g clip-path="url(#clip0)">
<path d="M9.79752 5.64525L11.9901 4.37012L14.1983 5.64525L14.1905 8.17997L11.9979 9.45122L9.78971 8.17997L9.79752 5.64525Z" fill="#04D2C5"/>
<path d="M14.179 10.7178L16.4087 12.0045L14.2179 13.2797L14.2101 15.8144L16.4144 17.0856L22.9922 13.2641L23 10.7294L16.3794 6.90792L14.1868 8.18305L14.179 10.7178Z" fill="#04D2C5"/>
<path d="M9.78214 10.7178L9.78992 8.18305L7.58168 6.90792L1.00778 10.7295L1 13.2641L7.6206 17.0857L9.80935 15.8144L9.81705 13.2797L7.58841 11.9916L9.78214 10.7178Z" fill="#04D2C5"/>
<path d="M12.0038 14.5417L14.2081 15.8168L14.2004 18.3515L12.0116 19.6267L9.80347 18.3515L9.8112 15.8168L12.0038 14.5417Z" fill="#04D2C5"/>
<path d="M12.0057 6.91676L11.998 9.45148L9.78979 8.18023L9.79757 5.64551L12.0057 6.91676Z" fill="#04D2C5"/>
<path d="M12.0057 6.91676L11.998 9.45148L9.78979 8.18023L9.79757 5.64551L12.0057 6.91676Z" fill="black" fill-opacity="0.08"/>
<path d="M18.5992 10.73L18.5914 13.2647L14.179 10.7183L14.1867 8.18359L18.5992 10.73Z" fill="#04D2C5"/>
<path d="M18.5992 10.73L18.5914 13.2647L14.179 10.7183L14.1867 8.18359L18.5992 10.73Z" fill="black" fill-opacity="0.08"/>
<path d="M16.4223 14.5515L16.4145 17.0862L14.2102 15.815L14.218 13.2803L16.4223 14.5515Z" fill="#04D2C5"/>
<path d="M16.4223 14.5515L16.4145 17.0862L14.2102 15.815L14.218 13.2803L16.4223 14.5515Z" fill="black" fill-opacity="0.16"/>
<path d="M7.62449 14.551L7.6206 17.0857L1 13.2642L1.00778 10.7295L7.62449 14.551Z" fill="#04D2C5"/>
<path d="M7.62449 14.551L7.6206 17.0857L1 13.2642L1.00778 10.7295L7.62449 14.551Z" fill="black" fill-opacity="0.16"/>
<path d="M12.0155 17.0915L12.0116 19.6263L9.80347 18.3511L9.81124 15.8164L12.0155 17.0915Z" fill="#04D2C5"/>
<path d="M12.0155 17.0915L12.0116 19.6263L9.80347 18.3511L9.81124 15.8164L12.0155 17.0915Z" fill="black" fill-opacity="0.16"/>
<path d="M14.1984 5.64551L14.1907 8.18023L11.998 9.45148L12.0058 6.91676L14.1984 5.64551Z" fill="#04D2C5"/>
<path d="M14.1984 5.64551L14.1907 8.18023L11.998 9.45148L12.0058 6.91676L14.1984 5.64551Z" fill="black" fill-opacity="0.16"/>
<path d="M9.78997 8.18359L9.7822 10.7183L5.39697 13.2647L5.40475 10.73L9.78997 8.18359Z" fill="#04D2C5"/>
<path d="M9.78997 8.18359L9.7822 10.7183L5.39697 13.2647L5.40475 10.73L9.78997 8.18359Z" fill="black" fill-opacity="0.16"/>
<path d="M22.9999 10.7295L22.9921 13.2642L16.4143 17.0857L16.4221 14.551L22.9999 10.7295Z" fill="#04D2C5"/>
<path d="M22.9999 10.7295L22.9921 13.2642L16.4143 17.0857L16.4221 14.551L22.9999 10.7295Z" fill="black" fill-opacity="0.08"/>
<path d="M9.81711 13.2803L9.80933 15.815L7.62061 17.0862L7.62449 14.5515L9.81711 13.2803Z" fill="#04D2C5"/>
<path d="M9.81711 13.2803L9.80933 15.815L7.62061 17.0862L7.62449 14.5515L9.81711 13.2803Z" fill="black" fill-opacity="0.08"/>
<path d="M14.2082 15.8164L14.2004 18.3511L12.0117 19.6263L12.0156 17.0915L14.2082 15.8164Z" fill="#04D2C5"/>
<path d="M14.2082 15.8164L14.2004 18.3511L12.0117 19.6263L12.0156 17.0915L14.2082 15.8164Z" fill="black" fill-opacity="0.08"/>
<path d="M12.0058 6.9165L14.1984 5.64525L11.9902 4.37012L9.79761 5.64525L12.0058 6.9165Z" fill="url(#paint0_linear)"/>
<path d="M5.4047 10.7294L9.78993 8.18305L7.58177 6.90792L1.00781 10.7294L7.62453 14.551L9.81715 13.2797L5.4047 10.7294Z" fill="url(#paint1_linear)"/>
<path d="M16.4223 14.551L23.0001 10.7294L16.3795 6.90792L14.1869 8.18305L18.5993 10.7294L14.218 13.2797L16.4223 14.551Z" fill="url(#paint2_linear)"/>
<path d="M14.2082 15.8168L12.0156 17.0919L9.81129 15.8168L12.0039 14.5417L14.2082 15.8168Z" fill="url(#paint3_linear)"/>
</g>
<defs>
<linearGradient id="paint0_linear" x1="1.00009" y1="17.1559" x2="24.4405" y2="13.3809" gradientUnits="userSpaceOnUse">
<stop stop-color="#34DFD4"/>
<stop offset="1" stop-color="#54F3EA"/>
</linearGradient>
<linearGradient id="paint1_linear" x1="1.00009" y1="17.1559" x2="24.4405" y2="13.3809" gradientUnits="userSpaceOnUse">
<stop stop-color="#34DFD4"/>
<stop offset="1" stop-color="#54F3EA"/>
</linearGradient>
<linearGradient id="paint2_linear" x1="1.00009" y1="17.1559" x2="24.4405" y2="13.3809" gradientUnits="userSpaceOnUse">
<stop stop-color="#34DFD4"/>
<stop offset="1" stop-color="#54F3EA"/>
</linearGradient>
<linearGradient id="paint3_linear" x1="1.00009" y1="17.1559" x2="24.4405" y2="13.3809" gradientUnits="userSpaceOnUse">
<stop stop-color="#34DFD4"/>
<stop offset="1" stop-color="#54F3EA"/>
</linearGradient>
<clipPath id="clip0">
<rect width="22" height="22" fill="white" transform="translate(1 1)"/>
</clipPath>
</defs>
</svg>
