<svg width="94" height="24" viewBox="0 0 94 24" fill="none" xmlns="http://www.w3.org/2000/svg">
<g clip-path="url(#clip0)">
<path d="M9.62288 5.06782L12.0212 3.67676L14.4365 5.06782L14.428 7.83296L12.0297 9.21978L9.61435 7.83296L9.62288 5.06782Z" fill="#04D2C5"/>
<path d="M14.4154 10.6015L16.8543 12.0052L14.458 13.3963L14.4495 16.1615L16.8605 17.5482L24.0555 13.3793L24.064 10.6142L16.8223 6.44527L14.4239 7.83632L14.4154 10.6015Z" fill="#04D2C5"/>
<path d="M9.60606 10.6015L9.61457 7.83632L7.19916 6.44527L0.00850447 10.6142L0 13.3793L7.24174 17.5483L9.63583 16.1615L9.64425 13.3963L7.20652 11.9911L9.60606 10.6015Z" fill="#04D2C5"/>
<path d="M12.0362 14.773L14.4472 16.1641L14.4388 18.9292L12.0447 20.3203L9.6294 18.9292L9.63785 16.1641L12.0362 14.773Z" fill="#04D2C5"/>
<path d="M12.0381 6.45469L12.0296 9.21984L9.61426 7.83302L9.62276 5.06787L12.0381 6.45469Z" fill="#04D2C5"/>
<path d="M12.0381 6.45469L12.0296 9.21984L9.61426 7.83302L9.62276 5.06787L12.0381 6.45469Z" fill="black" fill-opacity="0.08"/>
<path d="M19.2502 10.6143L19.2417 13.3795L14.4153 10.6016L14.4238 7.83643L19.2502 10.6143Z" fill="#04D2C5"/>
<path d="M19.2502 10.6143L19.2417 13.3795L14.4153 10.6016L14.4238 7.83643L19.2502 10.6143Z" fill="black" fill-opacity="0.08"/>
<path d="M16.869 14.7833L16.8605 17.5485L14.4495 16.1616L14.458 13.3965L16.869 14.7833Z" fill="#04D2C5"/>
<path d="M16.869 14.7833L16.8605 17.5485L14.4495 16.1616L14.458 13.3965L16.869 14.7833Z" fill="black" fill-opacity="0.16"/>
<path d="M7.24599 14.7832L7.24174 17.5483L0 13.3794L0.00850468 10.6143L7.24599 14.7832Z" fill="#04D2C5"/>
<path d="M7.24599 14.7832L7.24174 17.5483L0 13.3794L0.00850468 10.6143L7.24599 14.7832Z" fill="black" fill-opacity="0.16"/>
<path d="M12.049 17.5551L12.0447 20.3203L9.62939 18.9292L9.6379 16.1641L12.049 17.5551Z" fill="#04D2C5"/>
<path d="M12.049 17.5551L12.0447 20.3203L9.62939 18.9292L9.6379 16.1641L12.049 17.5551Z" fill="black" fill-opacity="0.16"/>
<path d="M14.4364 5.06787L14.4279 7.83302L12.0295 9.21984L12.038 6.45469L14.4364 5.06787Z" fill="#04D2C5"/>
<path d="M14.4364 5.06787L14.4279 7.83302L12.0295 9.21984L12.038 6.45469L14.4364 5.06787Z" fill="black" fill-opacity="0.16"/>
<path d="M9.61447 7.83643L9.60597 10.6016L4.80933 13.3795L4.81783 10.6143L9.61447 7.83643Z" fill="#04D2C5"/>
<path d="M9.61447 7.83643L9.60597 10.6016L4.80933 13.3795L4.81783 10.6143L9.61447 7.83643Z" fill="black" fill-opacity="0.16"/>
<path d="M24.0638 10.6143L24.0553 13.3794L16.8604 17.5483L16.8689 14.7832L24.0638 10.6143Z" fill="#04D2C5"/>
<path d="M24.0638 10.6143L24.0553 13.3794L16.8604 17.5483L16.8689 14.7832L24.0638 10.6143Z" fill="black" fill-opacity="0.08"/>
<path d="M9.64427 13.3965L9.63577 16.1616L7.2417 17.5485L7.24595 14.7833L9.64427 13.3965Z" fill="#04D2C5"/>
<path d="M9.64427 13.3965L9.63577 16.1616L7.2417 17.5485L7.24595 14.7833L9.64427 13.3965Z" fill="black" fill-opacity="0.08"/>
<path d="M14.4472 16.1641L14.4387 18.9292L12.0447 20.3203L12.0489 17.5551L14.4472 16.1641Z" fill="#04D2C5"/>
<path d="M14.4472 16.1641L14.4387 18.9292L12.0447 20.3203L12.0489 17.5551L14.4472 16.1641Z" fill="black" fill-opacity="0.08"/>
<path d="M12.0383 6.45488L14.4366 5.06806L12.0213 3.677L9.62298 5.06806L12.0383 6.45488Z" fill="url(#paint0_linear)"/>
<path d="M4.81794 10.6144L9.61459 7.83657L7.19926 6.44551L0.00854492 10.6144L7.24603 14.7834L9.64435 13.3966L4.81794 10.6144Z" fill="url(#paint1_linear)"/>
<path d="M16.8691 14.7834L24.0641 10.6144L16.8224 6.44551L14.4241 7.83657L19.2505 10.6144L14.4581 13.3966L16.8691 14.7834Z" fill="url(#paint2_linear)"/>
<path d="M14.4473 16.1643L12.049 17.5554L9.63795 16.1643L12.0363 14.7732L14.4473 16.1643Z" fill="url(#paint3_linear)"/>
</g>
<path d="M34.6137 15.3941C33.8973 15.3941 33.2518 15.2411 32.6772 14.9351C32.1027 14.6225 31.6499 14.1935 31.3187 13.648C30.9942 13.1025 30.832 12.4939 30.832 11.8221C30.832 11.1502 30.9942 10.5416 31.3187 9.99612C31.6499 9.45066 32.1027 9.02494 32.6772 8.71896C33.2518 8.40632 33.8973 8.25 34.6137 8.25C35.3234 8.25 35.9655 8.40632 36.54 8.71896C37.1146 9.02494 37.564 9.45066 37.8885 9.99612C38.2129 10.5349 38.3751 11.1436 38.3751 11.8221C38.3751 12.5006 38.2129 13.1125 37.8885 13.658C37.564 14.1968 37.1146 14.6225 36.54 14.9351C35.9655 15.2411 35.3234 15.3941 34.6137 15.3941ZM34.6137 14.5061C35.1342 14.5061 35.6005 14.3897 36.0128 14.1569C36.4319 13.9241 36.7597 13.6048 36.9963 13.199C37.2396 12.7866 37.3613 12.3276 37.3613 11.8221C37.3613 11.3165 37.2396 10.8609 36.9963 10.4551C36.7597 10.0427 36.4319 9.72007 36.0128 9.48725C35.6005 9.25443 35.1342 9.13803 34.6137 9.13803C34.0933 9.13803 33.6201 9.25443 33.1943 9.48725C32.7753 9.72007 32.4441 10.0427 32.2007 10.4551C31.9642 10.8609 31.8459 11.3165 31.8459 11.8221C31.8459 12.3276 31.9642 12.7866 32.2007 13.199C32.4441 13.6048 32.7753 13.9241 33.1943 14.1569C33.6201 14.3897 34.0933 14.5061 34.6137 14.5061Z" fill="#1D253C"/>
<path d="M42.6317 9.97616C43.1522 9.97616 43.6186 10.0892 44.0309 10.3154C44.4432 10.5416 44.7642 10.8575 44.994 11.2633C45.2306 11.6691 45.3489 12.138 45.3489 12.6702C45.3489 13.2023 45.2306 13.6746 44.994 14.087C44.7642 14.4928 44.4432 14.8088 44.0309 15.0349C43.6186 15.2611 43.1522 15.3742 42.6317 15.3742C42.2465 15.3742 41.8916 15.301 41.5672 15.1547C41.2495 15.0083 40.9791 14.7955 40.7561 14.5161V17.25H39.7828V10.0261H40.7155V10.8642C40.9318 10.5715 41.2056 10.352 41.5368 10.2057C41.868 10.0527 42.233 9.97616 42.6317 9.97616ZM42.5506 14.536C42.8953 14.536 43.2029 14.4595 43.4732 14.3065C43.7504 14.1469 43.9666 13.9274 44.1221 13.648C44.2843 13.362 44.3654 13.036 44.3654 12.6702C44.3654 12.3043 44.2843 11.9817 44.1221 11.7023C43.9666 11.4163 43.7504 11.1968 43.4732 11.0438C43.2029 10.8908 42.8953 10.8143 42.5506 10.8143C42.2127 10.8143 41.9051 10.8941 41.628 11.0538C41.3577 11.2068 41.1414 11.4229 40.9791 11.7023C40.8237 11.9817 40.746 12.3043 40.746 12.6702C40.746 13.036 40.8237 13.362 40.9791 13.648C41.1346 13.9274 41.3509 14.1469 41.628 14.3065C41.9051 14.4595 42.2127 14.536 42.5506 14.536Z" fill="#1D253C"/>
<path d="M51.55 12.7001C51.55 12.7733 51.5433 12.8697 51.5297 12.9895H47.1702C47.231 13.4551 47.4371 13.8309 47.7886 14.117C48.1468 14.3963 48.5896 14.536 49.1168 14.536C49.7589 14.536 50.2759 14.3232 50.668 13.8975L51.2053 14.5161C50.962 14.7955 50.6578 15.0083 50.2928 15.1547C49.9346 15.301 49.5325 15.3742 49.0864 15.3742C48.5186 15.3742 48.015 15.2611 47.5757 15.0349C47.1364 14.8021 46.795 14.4795 46.5517 14.0671C46.3151 13.6547 46.1969 13.189 46.1969 12.6702C46.1969 12.158 46.3118 11.6957 46.5416 11.2833C46.7781 10.8708 47.0992 10.5516 47.5047 10.3254C47.917 10.0926 48.38 9.97616 48.8937 9.97616C49.4074 9.97616 49.8636 10.0926 50.2624 10.3254C50.668 10.5516 50.9823 10.8708 51.2053 11.2833C51.4351 11.6957 51.55 12.168 51.55 12.7001ZM48.8937 10.7844C48.4273 10.7844 48.0353 10.9241 47.7176 11.2034C47.4067 11.4828 47.2242 11.8487 47.1702 12.301H50.6173C50.5632 11.8553 50.3773 11.4928 50.0597 11.2134C49.7487 10.9274 49.3601 10.7844 48.8937 10.7844Z" fill="#1D253C"/>
<path d="M55.7708 9.97616C56.4534 9.97616 56.9941 10.1724 57.3929 10.5649C57.7985 10.9507 58.0012 11.5194 58.0012 12.2711V15.3143H57.0279V12.3808C57.0279 11.8686 56.9029 11.4828 56.6528 11.2234C56.4027 10.964 56.0445 10.8343 55.5781 10.8343C55.0509 10.8343 54.6352 10.9873 54.3311 11.2932C54.0269 11.5926 53.8748 12.0249 53.8748 12.5904V15.3143H52.9015V10.0261H53.8343V10.8243C54.0303 10.5516 54.2939 10.342 54.6251 10.1957C54.963 10.0493 55.3449 9.97616 55.7708 9.97616Z" fill="#1D253C"/>
<path d="M61.9823 15.3642C61.4618 15.3642 60.9651 15.2777 60.4919 15.1048C60.0255 14.9252 59.6606 14.6957 59.397 14.4163L59.6301 14.0371C59.8802 14.2966 60.2148 14.5094 60.6339 14.6757C61.0597 14.8354 61.5058 14.9152 61.9722 14.9152C62.6481 14.9152 63.1584 14.7888 63.5031 14.536C63.8478 14.2833 64.0201 13.954 64.0201 13.5482C64.0201 13.2356 63.9289 12.9861 63.7464 12.7999C63.5639 12.6136 63.3375 12.4706 63.0671 12.3708C62.7968 12.2711 62.4318 12.168 61.9722 12.0615C61.4517 11.9351 61.0326 11.8121 60.715 11.6924C60.4041 11.5726 60.1371 11.3897 59.914 11.1436C59.6977 10.8908 59.5896 10.5549 59.5896 10.1358C59.5896 9.79656 59.6808 9.48725 59.8633 9.20787C60.0458 8.92184 60.3229 8.69568 60.6947 8.52938C61.0732 8.36308 61.543 8.27993 62.104 8.27993C62.496 8.27993 62.8812 8.33647 63.2597 8.44956C63.6383 8.56264 63.9661 8.71563 64.2432 8.90854L64.0506 9.31763C63.7667 9.12472 63.4524 8.97838 63.1077 8.8786C62.7697 8.77882 62.4351 8.72894 62.104 8.72894C61.4483 8.72894 60.9515 8.85865 60.6136 9.11807C60.2756 9.37749 60.1067 9.71341 60.1067 10.1258C60.1067 10.4385 60.1979 10.6879 60.3804 10.8742C60.5629 11.0604 60.7893 11.2034 61.0597 11.3032C61.33 11.403 61.6984 11.5094 62.1648 11.6225C62.6852 11.7489 63.1009 11.872 63.4118 11.9917C63.7227 12.1114 63.9863 12.2943 64.2026 12.5405C64.4257 12.7799 64.5372 13.1059 64.5372 13.5183C64.5372 13.8575 64.4426 14.1669 64.2533 14.4462C64.0708 14.7256 63.787 14.9484 63.4017 15.1147C63.0164 15.281 62.5433 15.3642 61.9823 15.3642Z" fill="#1D253C"/>
<path d="M70.8371 10.1059V17.25H70.3301V14.107C70.1138 14.4994 69.8164 14.8054 69.4379 15.0249C69.0662 15.2445 68.6437 15.3542 68.1706 15.3542C67.6772 15.3542 67.2311 15.2445 66.8323 15.0249C66.4335 14.7988 66.1192 14.4861 65.8894 14.087C65.6664 13.6813 65.5549 13.2223 65.5549 12.7101C65.5549 12.1979 65.6664 11.7422 65.8894 11.3431C66.1192 10.944 66.4335 10.6314 66.8323 10.4052C67.2311 10.179 67.6772 10.066 68.1706 10.066C68.6505 10.066 69.0797 10.1757 69.4582 10.3952C69.8367 10.6147 70.1307 10.9274 70.3403 11.3331V10.1059H70.8371ZM68.201 14.9052C68.6066 14.9052 68.9682 14.8121 69.2859 14.6258C69.6103 14.4396 69.8638 14.1802 70.0462 13.8476C70.2355 13.515 70.3301 13.1358 70.3301 12.7101C70.3301 12.2844 70.2355 11.9052 70.0462 11.5726C69.8638 11.24 69.6103 10.9806 69.2859 10.7943C68.9682 10.6081 68.6066 10.515 68.201 10.515C67.7955 10.515 67.4305 10.6081 67.1061 10.7943C66.7884 10.9806 66.5349 11.24 66.3457 11.5726C66.1632 11.9052 66.0719 12.2844 66.0719 12.7101C66.0719 13.1358 66.1632 13.515 66.3457 13.8476C66.5349 14.1802 66.7884 14.4396 67.1061 14.6258C67.4305 14.8121 67.7955 14.9052 68.201 14.9052Z" fill="#1D253C"/>
<path d="M77.6076 10.1059V15.3143H77.121V14.1968C76.9453 14.5626 76.685 14.8487 76.3403 15.0549C75.9956 15.2544 75.5901 15.3542 75.1237 15.3542C74.4343 15.3542 73.8935 15.1646 73.5015 14.7855C73.1095 14.4063 72.9135 13.8609 72.9135 13.1491V10.1059H73.4204V13.1092C73.4204 13.6946 73.5725 14.1402 73.8766 14.4462C74.1808 14.7522 74.61 14.9052 75.1642 14.9052C75.759 14.9052 76.2288 14.7223 76.5735 14.3564C76.925 13.9906 77.1007 13.4983 77.1007 12.8797V10.1059H77.6076Z" fill="#1D253C"/>
<path d="M81.5408 10.066C82.1965 10.066 82.7 10.2323 83.0515 10.5649C83.403 10.8908 83.5787 11.3731 83.5787 12.0116V15.3143H83.092V14.3864C82.9231 14.6924 82.6764 14.9318 82.3519 15.1048C82.0275 15.2711 81.6389 15.3542 81.186 15.3542C80.598 15.3542 80.1316 15.2178 79.7869 14.9451C79.4489 14.6724 79.2799 14.3132 79.2799 13.8675C79.2799 13.4351 79.4354 13.0859 79.7463 12.8198C80.064 12.5471 80.5675 12.4108 81.257 12.4108H83.0718V11.9917C83.0718 11.5061 82.9366 11.1369 82.6662 10.8841C82.4026 10.6314 82.014 10.505 81.5003 10.505C81.1488 10.505 80.8109 10.5649 80.4864 10.6846C80.1688 10.8043 79.8984 10.964 79.6753 11.1635L79.4219 10.8043C79.6855 10.5715 80.0032 10.3919 80.3749 10.2655C80.7467 10.1325 81.1353 10.066 81.5408 10.066ZM81.257 14.9451C81.6963 14.9451 82.068 14.8453 82.3722 14.6458C82.6831 14.4462 82.9163 14.1569 83.0718 13.7777V12.7999H81.2671C80.7467 12.7999 80.3682 12.893 80.1316 13.0793C79.9018 13.2655 79.7869 13.5216 79.7869 13.8476C79.7869 14.1868 79.9153 14.4562 80.1721 14.6558C80.429 14.8487 80.7906 14.9451 81.257 14.9451Z" fill="#1D253C"/>
<path d="M86.154 11.2433C86.3162 10.8642 86.5696 10.5748 86.9144 10.3753C87.2591 10.1691 87.6781 10.066 88.1715 10.066V10.5549L88.0499 10.5449C87.4618 10.5449 87.0022 10.7278 86.671 11.0937C86.3398 11.4529 86.1742 11.9551 86.1742 12.6003V15.3143H85.6673V10.1059H86.154V11.2433Z" fill="#1D253C"/>
<path d="M93.9899 12.8298H89.4377C89.4512 13.2356 89.556 13.5981 89.752 13.9174C89.948 14.23 90.2116 14.4728 90.5428 14.6458C90.8807 14.8187 91.2592 14.9052 91.6783 14.9052C92.023 14.9052 92.3407 14.8453 92.6313 14.7256C92.9287 14.5992 93.1754 14.4163 93.3714 14.1768L93.6655 14.5061C93.4356 14.7788 93.145 14.9884 92.7935 15.1347C92.4488 15.281 92.0737 15.3542 91.6682 15.3542C91.141 15.3542 90.6712 15.2411 90.2589 15.015C89.8466 14.7888 89.5222 14.4762 89.2856 14.0771C89.0558 13.6779 88.9409 13.2223 88.9409 12.7101C88.9409 12.2045 89.049 11.7522 89.2653 11.3531C89.4884 10.9473 89.7925 10.6314 90.1778 10.4052C90.5631 10.179 90.9956 10.066 91.4755 10.066C91.9554 10.066 92.3846 10.179 92.7631 10.4052C93.1484 10.6247 93.4492 10.934 93.6655 11.3331C93.8885 11.7323 94 12.1846 94 12.6901L93.9899 12.8298ZM91.4755 10.505C91.1038 10.505 90.7692 10.5881 90.4718 10.7544C90.1744 10.9141 89.9345 11.1436 89.752 11.4429C89.5762 11.7356 89.4748 12.0682 89.4478 12.4407H93.5032C93.483 12.0682 93.3816 11.7356 93.1991 11.4429C93.0166 11.1502 92.7766 10.9207 92.4792 10.7544C92.1818 10.5881 91.8473 10.505 91.4755 10.505Z" fill="#1D253C"/>
<defs>
<linearGradient id="paint0_linear" x1="9.96203e-05" y1="17.6251" x2="25.6361" y2="13.4855" gradientUnits="userSpaceOnUse">
<stop stop-color="#34DFD4"/>
<stop offset="1" stop-color="#54F3EA"/>
</linearGradient>
<linearGradient id="paint1_linear" x1="9.96203e-05" y1="17.6251" x2="25.6361" y2="13.4855" gradientUnits="userSpaceOnUse">
<stop stop-color="#34DFD4"/>
<stop offset="1" stop-color="#54F3EA"/>
</linearGradient>
<linearGradient id="paint2_linear" x1="9.96203e-05" y1="17.6251" x2="25.6361" y2="13.4855" gradientUnits="userSpaceOnUse">
<stop stop-color="#34DFD4"/>
<stop offset="1" stop-color="#54F3EA"/>
</linearGradient>
<linearGradient id="paint3_linear" x1="9.96203e-05" y1="17.6251" x2="25.6361" y2="13.4855" gradientUnits="userSpaceOnUse">
<stop stop-color="#34DFD4"/>
<stop offset="1" stop-color="#54F3EA"/>
</linearGradient>
<clipPath id="clip0">
<rect width="24.064" height="24" fill="white"/>
</clipPath>
</defs>
</svg>
