<svg width="114" height="24" viewBox="0 0 114 24" fill="none" xmlns="http://www.w3.org/2000/svg">
    <path d="M22.1229 12L17.7541 9.5L22.9966 6.5L30.2052 10.625V13.375L22.9966 17.5L17.7541 14.5L22.1229 12Z" fill="black" fill-opacity="0.3"/>
    <path d="M12.5115 14.5L8.14263 12L12.5115 9.5L7.26887 6.5L0.0603027 10.625V13.375L7.26887 17.5L12.5115 14.5Z" fill="black" fill-opacity="0.3"/>
    <path d="M15.1328 17L19.5016 19.5L15.1328 22L10.7639 19.5L15.1328 17Z" fill="black" fill-opacity="0.3"/>
    <path d="M19.5016 4.5L15.1328 2L10.7639 4.5L15.1328 7L19.5016 4.5Z" fill="black" fill-opacity="0.3"/>
    <path d="M43.4047 16.12C42.5412 16.12 41.7623 15.936 41.0682 15.568C40.3741 15.192 39.8294 14.676 39.4339 14.02C39.0384 13.356 38.8407 12.616 38.8407 11.8C38.8407 10.984 39.0384 10.248 39.4339 9.59198C39.8294 8.92798 40.3741 8.41198 41.0682 8.04398C41.7623 7.66798 42.5412 7.47998 43.4047 7.47998C44.2683 7.47998 45.0471 7.66798 45.7412 8.04398C46.4353 8.41198 46.9801 8.92398 47.3756 9.57998C47.771 10.236 47.9688 10.976 47.9688 11.8C47.9688 12.624 47.771 13.364 47.3756 14.02C46.9801 14.676 46.4353 15.192 45.7412 15.568C45.0471 15.936 44.2683 16.12 43.4047 16.12ZM43.4047 14.752C43.9697 14.752 44.4781 14.628 44.9301 14.38C45.3821 14.124 45.7372 13.772 45.9955 13.324C46.2537 12.868 46.3829 12.36 46.3829 11.8C46.3829 11.24 46.2537 10.736 45.9955 10.288C45.7372 9.83198 45.3821 9.47998 44.9301 9.23198C44.4781 8.97598 43.9697 8.84798 43.4047 8.84798C42.8398 8.84798 42.3313 8.97598 41.8794 9.23198C41.4274 9.47998 41.0723 9.83198 40.814 10.288C40.5557 10.736 40.4266 11.24 40.4266 11.8C40.4266 12.36 40.5557 12.868 40.814 13.324C41.0723 13.772 41.4274 14.124 41.8794 14.38C42.3313 14.628 42.8398 14.752 43.4047 14.752Z" fill="black" fill-opacity="0.3"/>
    <path d="M52.833 9.51998C53.4625 9.51998 54.0234 9.65598 54.5158 9.92798C55.0162 10.2 55.4076 10.584 55.6901 11.08C55.9725 11.576 56.1138 12.148 56.1138 12.796C56.1138 13.444 55.9725 14.02 55.6901 14.524C55.4076 15.02 55.0162 15.404 54.5158 15.676C54.0234 15.948 53.4625 16.084 52.833 16.084C51.9614 16.084 51.2713 15.796 50.7628 15.22V18.328H49.2496V9.59198H50.6902V10.432C50.9404 10.128 51.2471 9.89998 51.6103 9.74798C51.9815 9.59598 52.3891 9.51998 52.833 9.51998ZM52.6635 14.8C53.2204 14.8 53.6764 14.616 54.0315 14.248C54.3947 13.88 54.5763 13.396 54.5763 12.796C54.5763 12.196 54.3947 11.712 54.0315 11.344C53.6764 10.976 53.2204 10.792 52.6635 10.792C52.3003 10.792 51.9735 10.876 51.6829 11.044C51.3924 11.204 51.1623 11.436 50.9929 11.74C50.8234 12.044 50.7386 12.396 50.7386 12.796C50.7386 13.196 50.8234 13.548 50.9929 13.852C51.1623 14.156 51.3924 14.392 51.6829 14.56C51.9735 14.72 52.3003 14.8 52.6635 14.8Z" fill="black" fill-opacity="0.3"/>
    <path d="M63.3841 12.832C63.3841 12.936 63.376 13.084 63.3599 13.276H58.2874C58.3762 13.748 58.6062 14.124 58.9775 14.404C59.3568 14.676 59.8249 14.812 60.3818 14.812C61.092 14.812 61.6771 14.58 62.1372 14.116L62.9483 15.04C62.6577 15.384 62.2905 15.644 61.8466 15.82C61.4027 15.996 60.9023 16.084 60.3455 16.084C59.6352 16.084 59.0097 15.944 58.469 15.664C57.9283 15.384 57.5086 14.996 57.21 14.5C56.9194 13.996 56.7741 13.428 56.7741 12.796C56.7741 12.172 56.9154 11.612 57.1978 11.116C57.4884 10.612 57.8879 10.22 58.3964 9.93998C58.9048 9.65998 59.4778 9.51998 60.1154 9.51998C60.745 9.51998 61.3059 9.65998 61.7982 9.93998C62.2986 10.212 62.686 10.6 62.9604 11.104C63.2429 11.6 63.3841 12.176 63.3841 12.832ZM60.1154 10.72C59.6312 10.72 59.2196 10.864 58.8806 11.152C58.5497 11.432 58.3479 11.808 58.2753 12.28H61.9435C61.8789 11.816 61.6812 11.44 61.3503 11.152C61.0194 10.864 60.6078 10.72 60.1154 10.72Z" fill="black" fill-opacity="0.3"/>
    <path d="M68.2638 9.51998C69.0789 9.51998 69.7326 9.75598 70.225 10.228C70.7173 10.7 70.9634 11.4 70.9634 12.328V16H69.4502V12.52C69.4502 11.96 69.317 11.54 69.0507 11.26C68.7843 10.972 68.405 10.828 67.9127 10.828C67.3558 10.828 66.9159 10.996 66.5931 11.332C66.2703 11.66 66.1089 12.136 66.1089 12.76V16H64.5956V9.59198H66.0362V10.42C66.2864 10.124 66.6012 9.89998 66.9805 9.74798C67.3598 9.59598 67.7876 9.51998 68.2638 9.51998Z" fill="black" fill-opacity="0.3"/>
    <path d="M75.4133 16.12C74.7596 16.12 74.126 16.028 73.5126 15.844C72.9073 15.66 72.4271 15.416 72.072 15.112L72.6168 13.9C72.9638 14.172 73.3876 14.396 73.8879 14.572C74.3964 14.74 74.9049 14.824 75.4133 14.824C76.0428 14.824 76.511 14.724 76.8176 14.524C77.1324 14.324 77.2898 14.06 77.2898 13.732C77.2898 13.492 77.201 13.296 77.0234 13.144C76.854 12.984 76.636 12.86 76.3697 12.772C76.1034 12.684 75.7402 12.584 75.2802 12.472C74.6345 12.32 74.1099 12.168 73.7063 12.016C73.3109 11.864 72.9679 11.628 72.6773 11.308C72.3948 10.98 72.2536 10.54 72.2536 9.98798C72.2536 9.52398 72.3787 9.10398 72.6289 8.72798C72.8872 8.34398 73.2705 8.03998 73.779 7.81598C74.2955 7.59198 74.925 7.47998 75.6676 7.47998C76.1841 7.47998 76.6925 7.54398 77.1929 7.67198C77.6933 7.79998 78.1251 7.98398 78.4883 8.22398L77.9919 9.43598C77.6207 9.21998 77.2333 9.05598 76.8298 8.94398C76.4262 8.83198 76.0348 8.77598 75.6554 8.77598C75.034 8.77598 74.5699 8.87998 74.2632 9.08798C73.9646 9.29598 73.8153 9.57198 73.8153 9.91598C73.8153 10.156 73.9001 10.352 74.0695 10.504C74.2471 10.656 74.469 10.776 74.7354 10.864C75.0017 10.952 75.3649 11.052 75.8249 11.164C76.4545 11.308 76.971 11.46 77.3745 11.62C77.7781 11.772 78.1211 12.008 78.4036 12.328C78.6941 12.648 78.8394 13.08 78.8394 13.624C78.8394 14.088 78.7102 14.508 78.452 14.884C78.2018 15.26 77.8184 15.56 77.3019 15.784C76.7854 16.008 76.1558 16.12 75.4133 16.12Z" fill="black" fill-opacity="0.3"/>
    <path d="M86.332 9.59198V18.328H84.8187V15.22C84.3102 15.796 83.6202 16.084 82.7485 16.084C82.119 16.084 81.5541 15.948 81.0537 15.676C80.5614 15.404 80.174 15.02 79.8915 14.524C79.6171 14.028 79.4799 13.452 79.4799 12.796C79.4799 12.148 79.6211 11.576 79.9036 11.08C80.1861 10.584 80.5735 10.2 81.0658 9.92798C81.5581 9.65598 82.119 9.51998 82.7485 9.51998C83.1924 9.51998 83.596 9.59598 83.9592 9.74798C84.3304 9.89998 84.6411 10.128 84.8913 10.432V9.59198H86.332ZM82.918 14.8C83.4749 14.8 83.9349 14.616 84.2981 14.248C84.6613 13.88 84.8429 13.396 84.8429 12.796C84.8429 12.196 84.6613 11.712 84.2981 11.344C83.9349 10.976 83.4749 10.792 82.918 10.792C82.3611 10.792 81.9011 10.976 81.5379 11.344C81.1828 11.712 81.0052 12.196 81.0052 12.796C81.0052 13.396 81.1828 13.88 81.5379 14.248C81.9011 14.616 82.3611 14.8 82.918 14.8Z" fill="black" fill-opacity="0.3"/>
    <path d="M94.3287 9.59198V16H92.888V15.184C92.6459 15.472 92.3433 15.696 91.9801 15.856C91.6169 16.008 91.2255 16.084 90.8058 16.084C89.9422 16.084 89.2602 15.848 88.7598 15.376C88.2675 14.896 88.0214 14.188 88.0214 13.252V9.59198H89.5346V13.048C89.5346 13.624 89.6638 14.056 89.922 14.344C90.1884 14.624 90.5637 14.764 91.0479 14.764C91.5886 14.764 92.0164 14.6 92.3312 14.272C92.654 13.936 92.8154 13.456 92.8154 12.832V9.59198H94.3287Z" fill="black" fill-opacity="0.3"/>
    <path d="M98.5376 9.51998C99.4899 9.51998 100.216 9.74798 100.717 10.204C101.225 10.652 101.479 11.332 101.479 12.244V16H100.051V15.22C99.8652 15.5 99.5989 15.716 99.2518 15.868C98.9129 16.012 98.5013 16.084 98.017 16.084C97.5328 16.084 97.109 16.004 96.7459 15.844C96.3827 15.676 96.1002 15.448 95.8984 15.16C95.7047 14.864 95.6079 14.532 95.6079 14.164C95.6079 13.588 95.8218 13.128 96.2495 12.784C96.6853 12.432 97.3673 12.256 98.2954 12.256H99.9661V12.16C99.9661 11.712 99.8289 11.368 99.5545 11.128C99.2882 10.888 98.8886 10.768 98.356 10.768C97.9928 10.768 97.6336 10.824 97.2785 10.936C96.9315 11.048 96.6369 11.204 96.3948 11.404L95.8016 10.312C96.1405 10.056 96.5481 9.85998 97.0243 9.72398C97.5005 9.58798 98.0049 9.51998 98.5376 9.51998ZM98.3318 14.992C98.7111 14.992 99.046 14.908 99.3366 14.74C99.6352 14.564 99.845 14.316 99.9661 13.996V13.252H98.4044C97.5328 13.252 97.0969 13.536 97.0969 14.104C97.0969 14.376 97.2059 14.592 97.4238 14.752C97.6417 14.912 97.9444 14.992 98.3318 14.992Z" fill="black" fill-opacity="0.3"/>
    <path d="M104.62 10.528C105.056 9.85598 105.823 9.51998 106.92 9.51998V10.948C106.791 10.924 106.674 10.912 106.569 10.912C105.98 10.912 105.52 11.084 105.189 11.428C104.858 11.764 104.693 12.252 104.693 12.892V16H103.179V9.59198H104.62V10.528Z" fill="black" fill-opacity="0.3"/>
    <path d="M113.98 12.832C113.98 12.936 113.972 13.084 113.956 13.276H108.883C108.972 13.748 109.202 14.124 109.573 14.404C109.953 14.676 110.421 14.812 110.978 14.812C111.688 14.812 112.273 14.58 112.733 14.116L113.544 15.04C113.254 15.384 112.886 15.644 112.442 15.82C111.999 15.996 111.498 16.084 110.941 16.084C110.231 16.084 109.606 15.944 109.065 15.664C108.524 15.384 108.104 14.996 107.806 14.5C107.515 13.996 107.37 13.428 107.37 12.796C107.37 12.172 107.511 11.612 107.794 11.116C108.084 10.612 108.484 10.22 108.992 9.93998C109.501 9.65998 110.074 9.51998 110.711 9.51998C111.341 9.51998 111.902 9.65998 112.394 9.93998C112.894 10.212 113.282 10.6 113.556 11.104C113.839 11.6 113.98 12.176 113.98 12.832ZM110.711 10.72C110.227 10.72 109.815 10.864 109.476 11.152C109.146 11.432 108.944 11.808 108.871 12.28H112.539C112.475 11.816 112.277 11.44 111.946 11.152C111.615 10.864 111.204 10.72 110.711 10.72Z" fill="black" fill-opacity="0.3"/>
</svg>
