<svg width="115" height="24" viewBox="0 0 115 24" fill="none" xmlns="http://www.w3.org/2000/svg">
<path d="M22.6229 12L18.2541 9.5L23.4966 6.5L30.7052 10.625V13.375L23.4966 17.5L18.2541 14.5L22.6229 12Z" fill="url(#paint0_linear)"/>
<path d="M13.0115 14.5L8.64263 12L13.0115 9.5L7.76887 6.5L0.560303 10.625V13.375L7.76887 17.5L13.0115 14.5Z" fill="url(#paint1_linear)"/>
<path d="M15.6328 17L20.0016 19.5L15.6328 22L11.2639 19.5L15.6328 17Z" fill="url(#paint2_linear)"/>
<path d="M20.0016 4.5L15.6328 2L11.2639 4.5L15.6328 7L20.0016 4.5Z" fill="url(#paint3_linear)"/>
<path d="M43.9047 16.12C43.0412 16.12 42.2623 15.936 41.5682 15.568C40.8741 15.192 40.3294 14.676 39.9339 14.02C39.5384 13.356 39.3407 12.616 39.3407 11.8C39.3407 10.984 39.5384 10.248 39.9339 9.59198C40.3294 8.92798 40.8741 8.41198 41.5682 8.04398C42.2623 7.66798 43.0412 7.47998 43.9047 7.47998C44.7683 7.47998 45.5471 7.66798 46.2412 8.04398C46.9353 8.41198 47.4801 8.92398 47.8756 9.57998C48.271 10.236 48.4688 10.976 48.4688 11.8C48.4688 12.624 48.271 13.364 47.8756 14.02C47.4801 14.676 46.9353 15.192 46.2412 15.568C45.5471 15.936 44.7683 16.12 43.9047 16.12ZM43.9047 14.752C44.4697 14.752 44.9781 14.628 45.4301 14.38C45.8821 14.124 46.2372 13.772 46.4955 13.324C46.7537 12.868 46.8829 12.36 46.8829 11.8C46.8829 11.24 46.7537 10.736 46.4955 10.288C46.2372 9.83198 45.8821 9.47998 45.4301 9.23198C44.9781 8.97598 44.4697 8.84798 43.9047 8.84798C43.3398 8.84798 42.8313 8.97598 42.3794 9.23198C41.9274 9.47998 41.5723 9.83198 41.314 10.288C41.0557 10.736 40.9266 11.24 40.9266 11.8C40.9266 12.36 41.0557 12.868 41.314 13.324C41.5723 13.772 41.9274 14.124 42.3794 14.38C42.8313 14.628 43.3398 14.752 43.9047 14.752Z" fill="#2E343D"/>
<path d="M53.333 9.51998C53.9625 9.51998 54.5234 9.65598 55.0158 9.92798C55.5162 10.2 55.9076 10.584 56.1901 11.08C56.4725 11.576 56.6138 12.148 56.6138 12.796C56.6138 13.444 56.4725 14.02 56.1901 14.524C55.9076 15.02 55.5162 15.404 55.0158 15.676C54.5234 15.948 53.9625 16.084 53.333 16.084C52.4614 16.084 51.7713 15.796 51.2628 15.22V18.328H49.7496V9.59198H51.1902V10.432C51.4404 10.128 51.7471 9.89998 52.1103 9.74798C52.4815 9.59598 52.8891 9.51998 53.333 9.51998ZM53.1635 14.8C53.7204 14.8 54.1764 14.616 54.5315 14.248C54.8947 13.88 55.0763 13.396 55.0763 12.796C55.0763 12.196 54.8947 11.712 54.5315 11.344C54.1764 10.976 53.7204 10.792 53.1635 10.792C52.8003 10.792 52.4735 10.876 52.1829 11.044C51.8924 11.204 51.6623 11.436 51.4929 11.74C51.3234 12.044 51.2386 12.396 51.2386 12.796C51.2386 13.196 51.3234 13.548 51.4929 13.852C51.6623 14.156 51.8924 14.392 52.1829 14.56C52.4735 14.72 52.8003 14.8 53.1635 14.8Z" fill="#2E343D"/>
<path d="M63.8841 12.832C63.8841 12.936 63.876 13.084 63.8599 13.276H58.7874C58.8762 13.748 59.1062 14.124 59.4775 14.404C59.8568 14.676 60.3249 14.812 60.8818 14.812C61.592 14.812 62.1771 14.58 62.6372 14.116L63.4483 15.04C63.1577 15.384 62.7905 15.644 62.3466 15.82C61.9027 15.996 61.4023 16.084 60.8455 16.084C60.1352 16.084 59.5097 15.944 58.969 15.664C58.4283 15.384 58.0086 14.996 57.71 14.5C57.4194 13.996 57.2741 13.428 57.2741 12.796C57.2741 12.172 57.4154 11.612 57.6978 11.116C57.9884 10.612 58.3879 10.22 58.8964 9.93998C59.4048 9.65998 59.9779 9.51998 60.6154 9.51998C61.245 9.51998 61.8059 9.65998 62.2982 9.93998C62.7986 10.212 63.186 10.6 63.4604 11.104C63.7429 11.6 63.8841 12.176 63.8841 12.832ZM60.6154 10.72C60.1312 10.72 59.7196 10.864 59.3806 11.152C59.0497 11.432 58.8479 11.808 58.7753 12.28H62.4435C62.3789 11.816 62.1812 11.44 61.8503 11.152C61.5194 10.864 61.1078 10.72 60.6154 10.72Z" fill="#2E343D"/>
<path d="M68.7638 9.51998C69.5789 9.51998 70.2326 9.75598 70.725 10.228C71.2173 10.7 71.4634 11.4 71.4634 12.328V16H69.9502V12.52C69.9502 11.96 69.817 11.54 69.5507 11.26C69.2843 10.972 68.905 10.828 68.4127 10.828C67.8558 10.828 67.4159 10.996 67.0931 11.332C66.7703 11.66 66.6089 12.136 66.6089 12.76V16H65.0956V9.59198H66.5362V10.42C66.7864 10.124 67.1012 9.89998 67.4805 9.74798C67.8598 9.59598 68.2876 9.51998 68.7638 9.51998Z" fill="#2E343D"/>
<path d="M75.9133 16.12C75.2596 16.12 74.626 16.028 74.0126 15.844C73.4073 15.66 72.9271 15.416 72.572 15.112L73.1168 13.9C73.4638 14.172 73.8876 14.396 74.3879 14.572C74.8964 14.74 75.4049 14.824 75.9133 14.824C76.5428 14.824 77.011 14.724 77.3176 14.524C77.6324 14.324 77.7898 14.06 77.7898 13.732C77.7898 13.492 77.701 13.296 77.5234 13.144C77.354 12.984 77.136 12.86 76.8697 12.772C76.6034 12.684 76.2402 12.584 75.7802 12.472C75.1345 12.32 74.6099 12.168 74.2063 12.016C73.8109 11.864 73.4679 11.628 73.1773 11.308C72.8948 10.98 72.7536 10.54 72.7536 9.98798C72.7536 9.52398 72.8787 9.10398 73.1289 8.72798C73.3872 8.34398 73.7705 8.03998 74.279 7.81598C74.7955 7.59198 75.425 7.47998 76.1676 7.47998C76.6841 7.47998 77.1925 7.54398 77.6929 7.67198C78.1933 7.79998 78.6251 7.98398 78.9883 8.22398L78.4919 9.43598C78.1207 9.21998 77.7333 9.05598 77.3297 8.94398C76.9262 8.83198 76.5348 8.77598 76.1554 8.77598C75.534 8.77598 75.0699 8.87998 74.7632 9.08798C74.4646 9.29598 74.3153 9.57198 74.3153 9.91598C74.3153 10.156 74.4 10.352 74.5695 10.504C74.7471 10.656 74.969 10.776 75.2354 10.864C75.5017 10.952 75.8649 11.052 76.3249 11.164C76.9545 11.308 77.471 11.46 77.8745 11.62C78.2781 11.772 78.6211 12.008 78.9036 12.328C79.1941 12.648 79.3394 13.08 79.3394 13.624C79.3394 14.088 79.2102 14.508 78.952 14.884C78.7018 15.26 78.3184 15.56 77.8019 15.784C77.2854 16.008 76.6558 16.12 75.9133 16.12Z" fill="#2E343D"/>
<path d="M86.832 9.59198V18.328H85.3187V15.22C84.8102 15.796 84.1202 16.084 83.2485 16.084C82.619 16.084 82.0541 15.948 81.5537 15.676C81.0614 15.404 80.674 15.02 80.3915 14.524C80.1171 14.028 79.9799 13.452 79.9799 12.796C79.9799 12.148 80.1211 11.576 80.4036 11.08C80.6861 10.584 81.0735 10.2 81.5658 9.92798C82.0581 9.65598 82.619 9.51998 83.2485 9.51998C83.6924 9.51998 84.096 9.59598 84.4592 9.74798C84.8304 9.89998 85.1411 10.128 85.3913 10.432V9.59198H86.832ZM83.418 14.8C83.9749 14.8 84.4349 14.616 84.7981 14.248C85.1613 13.88 85.3429 13.396 85.3429 12.796C85.3429 12.196 85.1613 11.712 84.7981 11.344C84.4349 10.976 83.9749 10.792 83.418 10.792C82.8611 10.792 82.4011 10.976 82.0379 11.344C81.6828 11.712 81.5052 12.196 81.5052 12.796C81.5052 13.396 81.6828 13.88 82.0379 14.248C82.4011 14.616 82.8611 14.8 83.418 14.8Z" fill="#2E343D"/>
<path d="M94.8287 9.59198V16H93.388V15.184C93.1459 15.472 92.8433 15.696 92.4801 15.856C92.1169 16.008 91.7255 16.084 91.3058 16.084C90.4422 16.084 89.7602 15.848 89.2598 15.376C88.7675 14.896 88.5214 14.188 88.5214 13.252V9.59198H90.0346V13.048C90.0346 13.624 90.1638 14.056 90.422 14.344C90.6884 14.624 91.0637 14.764 91.5479 14.764C92.0886 14.764 92.5164 14.6 92.8312 14.272C93.154 13.936 93.3154 13.456 93.3154 12.832V9.59198H94.8287Z" fill="#2E343D"/>
<path d="M99.0376 9.51998C99.9899 9.51998 100.716 9.74798 101.217 10.204C101.725 10.652 101.979 11.332 101.979 12.244V16H100.551V15.22C100.365 15.5 100.099 15.716 99.7518 15.868C99.4129 16.012 99.0013 16.084 98.517 16.084C98.0328 16.084 97.609 16.004 97.2459 15.844C96.8827 15.676 96.6002 15.448 96.3984 15.16C96.2047 14.864 96.1079 14.532 96.1079 14.164C96.1079 13.588 96.3217 13.128 96.7495 12.784C97.1853 12.432 97.8673 12.256 98.7954 12.256H100.466V12.16C100.466 11.712 100.329 11.368 100.054 11.128C99.7882 10.888 99.3886 10.768 98.856 10.768C98.4928 10.768 98.1336 10.824 97.7785 10.936C97.4315 11.048 97.1369 11.204 96.8948 11.404L96.3016 10.312C96.6405 10.056 97.0481 9.85998 97.5243 9.72398C98.0005 9.58798 98.5049 9.51998 99.0376 9.51998ZM98.8318 14.992C99.2111 14.992 99.546 14.908 99.8366 14.74C100.135 14.564 100.345 14.316 100.466 13.996V13.252H98.9044C98.0328 13.252 97.5969 13.536 97.5969 14.104C97.5969 14.376 97.7059 14.592 97.9238 14.752C98.1417 14.912 98.4444 14.992 98.8318 14.992Z" fill="#2E343D"/>
<path d="M105.12 10.528C105.556 9.85598 106.323 9.51998 107.42 9.51998V10.948C107.291 10.924 107.174 10.912 107.069 10.912C106.48 10.912 106.02 11.084 105.689 11.428C105.358 11.764 105.193 12.252 105.193 12.892V16H103.679V9.59198H105.12V10.528Z" fill="#2E343D"/>
<path d="M114.48 12.832C114.48 12.936 114.472 13.084 114.456 13.276H109.383C109.472 13.748 109.702 14.124 110.073 14.404C110.453 14.676 110.921 14.812 111.478 14.812C112.188 14.812 112.773 14.58 113.233 14.116L114.044 15.04C113.754 15.384 113.386 15.644 112.942 15.82C112.499 15.996 111.998 16.084 111.441 16.084C110.731 16.084 110.106 15.944 109.565 15.664C109.024 15.384 108.604 14.996 108.306 14.5C108.015 13.996 107.87 13.428 107.87 12.796C107.87 12.172 108.011 11.612 108.294 11.116C108.584 10.612 108.984 10.22 109.492 9.93998C110.001 9.65998 110.574 9.51998 111.211 9.51998C111.841 9.51998 112.402 9.65998 112.894 9.93998C113.394 10.212 113.782 10.6 114.056 11.104C114.339 11.6 114.48 12.176 114.48 12.832ZM111.211 10.72C110.727 10.72 110.315 10.864 109.976 11.152C109.646 11.432 109.444 11.808 109.371 12.28H113.039C112.975 11.816 112.777 11.44 112.446 11.152C112.115 10.864 111.704 10.72 111.211 10.72Z" fill="#2E343D"/>
<defs>
<linearGradient id="paint0_linear" x1="30.0832" y1="12" x2="0.560302" y2="12" gradientUnits="userSpaceOnUse">
<stop stop-color="#04D2C5"/>
<stop offset="1" stop-color="#6848FF"/>
</linearGradient>
<linearGradient id="paint1_linear" x1="30.0832" y1="12" x2="0.560302" y2="12" gradientUnits="userSpaceOnUse">
<stop stop-color="#04D2C5"/>
<stop offset="1" stop-color="#6848FF"/>
</linearGradient>
<linearGradient id="paint2_linear" x1="30.0832" y1="12" x2="0.560302" y2="12" gradientUnits="userSpaceOnUse">
<stop stop-color="#04D2C5"/>
<stop offset="1" stop-color="#6848FF"/>
</linearGradient>
<linearGradient id="paint3_linear" x1="30.0832" y1="12" x2="0.560302" y2="12" gradientUnits="userSpaceOnUse">
<stop stop-color="#04D2C5"/>
<stop offset="1" stop-color="#6848FF"/>
</linearGradient>
</defs>
</svg>
