<svg width="133" height="26" viewBox="0 0 133 26" fill="none" xmlns="http://www.w3.org/2000/svg">
<path d="M13.2404 19.3C12.6723 19.1816 12.1042 19.5369 11.9873 20.1292C11.8703 20.7045 12.2212 21.2798 12.806 21.3982C13.3741 21.5167 13.9421 21.1613 14.0591 20.5691C14.1761 19.9769 13.8252 19.4185 13.2404 19.3Z" fill="#F22279"/>
<path d="M12.7894 4.57861C9.31407 4.57861 6.47363 7.43827 6.47363 10.9748C6.47363 11.6855 6.59059 12.3792 6.8078 13.0561C6.95818 13.5129 7.45943 13.7667 7.92727 13.6144C8.37839 13.4622 8.62902 12.9545 8.47865 12.4807C8.29485 11.9562 8.21131 11.3978 8.22802 10.8394C8.29485 8.45353 10.1996 6.49069 12.5555 6.37224C15.1787 6.23688 17.3508 8.35201 17.3508 10.9748C17.3508 13.4283 15.4461 15.4419 13.0568 15.5773C13.0568 15.5773 12.1712 15.6281 11.7368 15.6957C11.5196 15.7296 11.3525 15.7634 11.2355 15.7803C11.1854 15.7973 11.1353 15.7465 11.152 15.6957L11.3024 14.9512L12.1211 11.1271C12.2213 10.6533 11.9206 10.1795 11.4527 10.078C10.9849 9.97643 10.5171 10.281 10.4168 10.7548C10.4168 10.7548 8.44523 20.0614 8.42852 20.1629C8.32827 20.6367 8.62902 21.1105 9.09686 21.212C9.56469 21.3135 10.0325 21.0089 10.1328 20.5352C10.1495 20.4336 10.4168 19.1984 10.4168 19.1984C10.6173 18.2508 11.3859 17.5571 12.2882 17.4386C12.4887 17.4048 13.274 17.354 13.274 17.354C16.5321 17.1002 19.1052 14.3421 19.1052 10.9748C19.1052 7.43827 16.2648 4.57861 12.7894 4.57861Z" fill="black"/>
<path d="M81.4642 10.5886V8.99974H87.7472V10.5886H85.5596V17.5553H83.6571V10.5886H81.4642ZM88.0427 11.4442H89.7845V12.1775C90.0074 11.9178 90.2666 11.709 90.5569 11.5562C90.8472 11.4034 91.1686 11.322 91.5159 11.322C91.7647 11.322 91.9617 11.3525 92.1121 11.4187L91.8892 12.7632L91.801 12.8497C91.6352 12.809 91.4952 12.7886 91.3759 12.7886C91.0338 12.7886 90.728 12.8803 90.4532 13.0687C90.1785 13.2572 89.9556 13.5271 89.7793 13.8886V17.5553H88.0375L88.0427 11.4442ZM94.1597 17.2803C93.6724 17.0155 93.294 16.6437 93.0193 16.1599C92.7445 15.6812 92.6097 15.1261 92.6097 14.4997C92.6097 13.8784 92.7549 13.3284 93.0504 12.8497C93.3459 12.371 93.7346 11.9942 94.2271 11.7243C94.7144 11.4544 95.2432 11.322 95.8082 11.322C96.4199 11.322 96.9642 11.4493 97.436 11.6988C97.9077 11.9534 98.2758 12.315 98.535 12.7886C98.7942 13.2622 98.929 13.8173 98.929 14.4641V14.9173H94.2531C94.2945 15.34 94.4604 15.6761 94.7455 15.9257C95.0306 16.1752 95.3987 16.2974 95.8445 16.2974C96.5599 16.2974 97.0316 15.9817 97.2649 15.3553L98.7216 15.503L98.8097 15.6507C98.5765 16.328 98.2084 16.8322 97.6952 17.1734C97.182 17.5146 96.5547 17.6826 95.8082 17.6826C95.1965 17.6775 94.647 17.5451 94.1597 17.2803ZM97.2908 13.8173C97.2494 13.4507 97.0938 13.1553 96.8191 12.9363C96.5443 12.7173 96.2074 12.6053 95.7979 12.6053C95.435 12.6053 95.1136 12.7173 94.8337 12.9363C94.5537 13.1553 94.3775 13.4507 94.3049 13.8173H97.2908ZM100.79 17.4534C100.489 17.3007 100.246 17.0868 100.069 16.8067C99.8932 16.5266 99.7999 16.1956 99.7999 15.8238C99.7999 15.2687 99.9968 14.8257 100.386 14.4845C100.774 14.1484 101.308 13.9447 101.993 13.8784L103.672 13.7053V13.4354C103.672 13.1604 103.584 12.9414 103.403 12.7886C103.226 12.6359 102.972 12.5544 102.651 12.5544C102.361 12.5544 102.127 12.6308 101.956 12.7784C101.78 12.9312 101.676 13.1349 101.635 13.3947L100.168 13.2724L100.106 13.2011C100.23 12.59 100.526 12.1215 100.987 11.8007C101.448 11.4798 102.013 11.3169 102.677 11.3169C103.465 11.3169 104.103 11.5104 104.595 11.8974C105.082 12.2845 105.331 12.8294 105.331 13.5271V15.7169C105.331 15.9053 105.373 16.0479 105.45 16.1447C105.528 16.2414 105.637 16.2923 105.782 16.2923C105.875 16.2923 105.953 16.2822 106.021 16.2567L106.083 16.328V17.4993C105.834 17.5808 105.549 17.6215 105.222 17.6215C104.548 17.6215 104.087 17.3465 103.828 16.7914H103.74C103.449 17.0868 103.149 17.3058 102.843 17.4534C102.537 17.6011 102.184 17.6724 101.785 17.6724C101.422 17.6775 101.096 17.6011 100.79 17.4534ZM102.967 16.1599C103.195 16.0122 103.429 15.7882 103.672 15.4877V14.7798L102.304 14.953C102.013 14.9835 101.791 15.0701 101.64 15.2076C101.485 15.3451 101.412 15.5183 101.412 15.722C101.412 15.9257 101.485 16.0886 101.63 16.2058C101.775 16.3229 101.962 16.384 102.184 16.384C102.475 16.384 102.739 16.3076 102.967 16.1599ZM107.664 17.209C107.197 16.8933 106.886 16.4553 106.731 15.8849L106.783 15.7271L108.115 15.3349C108.265 16.0173 108.711 16.3636 109.458 16.3636C109.717 16.3636 109.924 16.3127 110.09 16.2058C110.256 16.0988 110.339 15.9511 110.339 15.7678C110.339 15.5743 110.246 15.4215 110.059 15.3095C109.872 15.1974 109.509 15.0752 108.97 14.9377C108.317 14.7849 107.819 14.5558 107.488 14.2604C107.156 13.965 106.99 13.5678 106.99 13.0789C106.99 12.753 107.083 12.4576 107.27 12.1928C107.457 11.928 107.721 11.7192 108.058 11.5613C108.4 11.4085 108.789 11.3271 109.229 11.3271C109.883 11.3271 110.422 11.4697 110.842 11.7497C111.262 12.0298 111.531 12.4271 111.656 12.9414L111.583 13.0738L110.266 13.3896C110.209 13.1044 110.085 12.8854 109.893 12.7377C109.701 12.59 109.468 12.5136 109.198 12.5136C108.991 12.5136 108.815 12.5544 108.675 12.6409C108.535 12.7275 108.462 12.8447 108.462 12.9872C108.462 13.1655 108.576 13.3132 108.81 13.4252C109.043 13.5372 109.463 13.6798 110.08 13.8428C110.717 14.0159 111.189 14.24 111.49 14.515C111.79 14.79 111.946 15.1771 111.946 15.6659C111.946 16.0428 111.842 16.384 111.64 16.6946C111.438 17.0053 111.148 17.2446 110.769 17.4229C110.391 17.596 109.955 17.6877 109.458 17.6877C108.727 17.6775 108.13 17.5197 107.664 17.209ZM113.672 17.0766C113.283 16.6794 113.086 16.1446 113.086 15.4775V11.4442H114.828V15.121C114.828 15.4724 114.921 15.7423 115.103 15.9257C115.284 16.1141 115.544 16.2058 115.875 16.2058C116.176 16.2058 116.446 16.1243 116.694 15.9562C116.943 15.7882 117.145 15.5692 117.306 15.2891V11.4391H119.048V17.5502H117.306V16.7914C116.751 17.3771 116.072 17.6724 115.279 17.6724C114.6 17.6775 114.066 17.4789 113.672 17.0766ZM120.593 11.4442H122.335V12.1775C122.557 11.9178 122.817 11.709 123.107 11.5562C123.397 11.4034 123.719 11.322 124.066 11.322C124.315 11.322 124.512 11.3525 124.662 11.4187L124.439 12.7632L124.351 12.8497C124.185 12.809 124.045 12.7886 123.926 12.7886C123.584 12.7886 123.278 12.8803 123.003 13.0687C122.728 13.2572 122.506 13.5271 122.329 13.8886V17.5553H120.588L120.593 11.4442ZM127.793 17.3974L125.232 11.4442H127.223L128.493 14.4896L128.555 15.3808H128.654L130.235 11.4442H132.075L128.54 19.9997H126.725L127.793 17.3974Z" fill="black"/>
<path d="M30.9414 9.24677C31.5376 9.24677 32.0475 9.35403 32.4711 9.56854C32.8946 9.7748 33.2202 10.0759 33.4477 10.472C33.683 10.8597 33.8007 11.33 33.8007 11.8828C33.8007 12.4356 33.683 12.91 33.4477 13.306C33.2202 13.6938 32.8946 13.9949 32.4711 14.2095C32.0475 14.4157 31.5376 14.5188 30.9414 14.5188H29.3059V17.4148H27.6821V9.24677H30.9414ZM30.6943 13.1699C31.1807 13.1699 31.5454 13.0626 31.7886 12.8481C32.0318 12.6254 32.1534 12.3036 32.1534 11.8828C32.1534 11.4538 32.0318 11.132 31.7886 10.9175C31.5454 10.703 31.1807 10.5957 30.6943 10.5957H29.3059V13.1699H30.6943Z" fill="black"/>
<path d="M37.5399 11.1031C38.1361 11.1031 38.6577 11.231 39.1048 11.4868C39.5598 11.7426 39.9128 12.1097 40.1638 12.5882C40.4227 13.0668 40.5521 13.6443 40.5521 14.3208C40.5521 14.9891 40.4227 15.5667 40.1638 16.0534C39.9128 16.532 39.5598 16.8991 39.1048 17.1549C38.6577 17.4106 38.1361 17.5385 37.5399 17.5385C36.9516 17.5385 36.4299 17.4106 35.975 17.1549C35.52 16.8991 35.1631 16.532 34.9042 16.0534C34.6532 15.5667 34.5277 14.9891 34.5277 14.3208C34.5277 13.6443 34.6532 13.0668 34.9042 12.5882C35.1631 12.1097 35.52 11.7426 35.975 11.4868C36.4299 11.231 36.9516 11.1031 37.5399 11.1031ZM37.5399 12.3655C37.2418 12.3655 36.9869 12.4397 36.7751 12.5882C36.5711 12.7285 36.4142 12.943 36.3044 13.2318C36.1946 13.5205 36.1397 13.8836 36.1397 14.3208C36.1397 14.7581 36.1946 15.1211 36.3044 15.4099C36.4142 15.6987 36.5711 15.9173 36.7751 16.0658C36.9869 16.2061 37.2418 16.2762 37.5399 16.2762C37.8301 16.2762 38.0772 16.2061 38.2812 16.0658C38.493 15.9173 38.6538 15.6987 38.7636 15.4099C38.8734 15.1211 38.9283 14.7581 38.9283 14.3208C38.9283 13.8836 38.8734 13.5205 38.7636 13.2318C38.6538 12.943 38.493 12.7285 38.2812 12.5882C38.0772 12.4397 37.8301 12.3655 37.5399 12.3655Z" fill="black"/>
<path d="M43.3717 8.5166V15.5089C43.3717 15.7977 43.4188 15.9998 43.5129 16.1153C43.607 16.2308 43.7639 16.2886 43.9836 16.2886C44.1169 16.2886 44.2267 16.2803 44.313 16.2638C44.3993 16.2391 44.5091 16.2061 44.6425 16.1648L44.5013 17.2786C44.3679 17.3611 44.1993 17.423 43.9953 17.4643C43.7992 17.5138 43.6031 17.5385 43.407 17.5385C42.8344 17.5385 42.4147 17.3941 42.148 17.1054C41.8891 16.8084 41.7597 16.3381 41.7597 15.6945V8.5166H43.3717Z" fill="black"/>
<path d="M51.4121 11.2269L48.6941 14.2095L48.3764 14.3703L46.6114 16.3628L46.5879 14.556L49.5766 11.2269H51.4121ZM47.035 8.5166V17.4148H45.423V8.5166H47.035ZM48.9176 13.1946L51.5533 17.4148H49.7295L47.8116 14.1847L48.9176 13.1946Z" fill="black"/>
<path d="M55.6681 13.4669C55.6681 13.1121 55.57 12.8357 55.3739 12.6377C55.1856 12.4397 54.9346 12.3407 54.6208 12.3407C54.3306 12.3407 54.0757 12.4191 53.856 12.5759C53.6364 12.7326 53.4756 12.9925 53.3736 13.3555L51.9969 12.91C52.1303 12.3655 52.4205 11.9282 52.8677 11.5982C53.3226 11.2681 53.9305 11.1031 54.6914 11.1031C55.2092 11.1031 55.6602 11.1898 56.0446 11.363C56.429 11.528 56.727 11.7797 56.9388 12.1179C57.1585 12.4562 57.2683 12.8811 57.2683 13.3927V15.9049C57.2683 16.2185 57.4095 16.3752 57.6919 16.3752C57.8252 16.3752 57.9507 16.3546 58.0684 16.3133L57.9743 17.3653C57.7703 17.4725 57.5154 17.5262 57.2095 17.5262C56.9349 17.5262 56.6878 17.4767 56.4682 17.3776C56.2485 17.2786 56.076 17.1301 55.9504 16.9321C55.8249 16.7259 55.7622 16.4701 55.7622 16.1648V16.1153L56.0446 16.0658C55.9975 16.3793 55.8681 16.6475 55.6563 16.8702C55.4445 17.0848 55.1856 17.2498 54.8797 17.3653C54.5816 17.4808 54.2718 17.5385 53.9502 17.5385C53.5501 17.5385 53.205 17.4767 52.9147 17.3529C52.6245 17.2209 52.4009 17.0311 52.244 16.7836C52.0871 16.5361 52.0087 16.2308 52.0087 15.8678C52.0087 15.4058 52.1499 15.0304 52.4323 14.7416C52.7147 14.4446 53.1187 14.2425 53.6442 14.1352L55.8563 13.6649L55.8446 14.7169L54.4326 15.0139C54.1659 15.0716 53.9619 15.15 53.8207 15.249C53.6874 15.3398 53.6207 15.4924 53.6207 15.7069C53.6207 15.9132 53.6913 16.0699 53.8325 16.1772C53.9815 16.2845 54.158 16.3381 54.362 16.3381C54.5267 16.3381 54.6875 16.3175 54.8444 16.2762C55.0013 16.235 55.1425 16.1689 55.268 16.0782C55.3935 15.9874 55.4916 15.8637 55.5622 15.7069C55.6328 15.5502 55.6681 15.3604 55.6681 15.1376V13.4669Z" fill="black"/>
<path d="M61.1543 17.5385C60.668 17.5385 60.2326 17.4106 59.8483 17.1549C59.4717 16.8991 59.1736 16.532 58.954 16.0534C58.7422 15.5749 58.6363 15.0015 58.6363 14.3332C58.6363 13.6484 58.7501 13.0668 58.9775 12.5882C59.205 12.1014 59.511 11.7343 59.8953 11.4868C60.2875 11.231 60.7268 11.1031 61.2132 11.1031C61.7309 11.1031 62.1584 11.2599 62.4957 11.5734C62.833 11.8869 63.0526 12.2912 63.1546 12.7862L63.0016 12.9843V8.5166H64.6136V17.4148H63.1664L63.0605 15.5337L63.2487 15.6327C63.2017 16.0204 63.0801 16.3587 62.884 16.6475C62.6879 16.928 62.4408 17.1466 62.1427 17.3034C61.8446 17.4602 61.5152 17.5385 61.1543 17.5385ZM61.625 16.2391C61.9074 16.2391 62.1505 16.1648 62.3545 16.0163C62.5584 15.8596 62.7153 15.6327 62.8251 15.3356C62.9428 15.0386 63.0016 14.6839 63.0016 14.2713C63.0016 13.8753 62.9467 13.5412 62.8369 13.2689C62.7271 12.9884 62.5702 12.7739 62.3663 12.6254C62.1623 12.4768 61.9231 12.4026 61.6485 12.4026C61.2092 12.4026 60.8641 12.5676 60.6131 12.8976C60.3699 13.2194 60.2483 13.6938 60.2483 14.3208C60.2483 14.9479 60.3699 15.4264 60.6131 15.7564C60.8562 16.0782 61.1935 16.2391 61.625 16.2391Z" fill="black"/>
<path d="M68.8725 11.1031C69.4687 11.1031 69.9903 11.231 70.4375 11.4868C70.8924 11.7426 71.2454 12.1097 71.4964 12.5882C71.7553 13.0668 71.8847 13.6443 71.8847 14.3208C71.8847 14.9891 71.7553 15.5667 71.4964 16.0534C71.2454 16.532 70.8924 16.8991 70.4375 17.1549C69.9903 17.4106 69.4687 17.5385 68.8725 17.5385C68.2842 17.5385 67.7626 17.4106 67.3076 17.1549C66.8526 16.8991 66.4957 16.532 66.2369 16.0534C65.9858 15.5667 65.8603 14.9891 65.8603 14.3208C65.8603 13.6443 65.9858 13.0668 66.2369 12.5882C66.4957 12.1097 66.8526 11.7426 67.3076 11.4868C67.7626 11.231 68.2842 11.1031 68.8725 11.1031ZM68.8725 12.3655C68.5744 12.3655 68.3195 12.4397 68.1077 12.5882C67.9038 12.7285 67.7469 12.943 67.6371 13.2318C67.5272 13.5205 67.4723 13.8836 67.4723 14.3208C67.4723 14.7581 67.5272 15.1211 67.6371 15.4099C67.7469 15.6987 67.9038 15.9173 68.1077 16.0658C68.3195 16.2061 68.5744 16.2762 68.8725 16.2762C69.1628 16.2762 69.4099 16.2061 69.6138 16.0658C69.8256 15.9173 69.9864 15.6987 70.0962 15.4099C70.2061 15.1211 70.261 14.7581 70.261 14.3208C70.261 13.8836 70.2061 13.5205 70.0962 13.2318C69.9864 12.943 69.8256 12.7285 69.6138 12.5882C69.4099 12.4397 69.1628 12.3655 68.8725 12.3655Z" fill="black"/>
<path d="M75.1296 9.3334V15.3975C75.1296 15.6945 75.2002 15.9132 75.3414 16.0534C75.4904 16.1854 75.6905 16.2515 75.9415 16.2515C76.1454 16.2515 76.318 16.2226 76.4592 16.1648C76.6082 16.0988 76.7416 16.0122 76.8592 15.9049L77.1181 17.0311C76.9298 17.1879 76.6945 17.3116 76.4121 17.4024C76.1297 17.4932 75.8316 17.5385 75.5179 17.5385C75.1257 17.5385 74.7766 17.4767 74.4707 17.3529C74.1726 17.2291 73.9373 17.0311 73.7647 16.7589C73.6 16.4866 73.5176 16.1236 73.5176 15.6698V9.80368L75.1296 9.3334ZM77.0122 11.2269V12.4892H72.4351V11.2269H77.0122Z" fill="black"/>
</svg>
