<svg width="24" height="24" viewBox="0 0 24 24" fill="none" xmlns="http://www.w3.org/2000/svg">
<path d="M16.6738 13.1255L17.8459 13.7117L20.9559 11.6907L18.3064 9.12047C17.7369 9.524 16.9066 9.29849 16.6224 8.6543L15.21 8.97874L15.6639 11.5759C16.4373 11.6005 16.9586 12.4202 16.6738 13.1255Z" fill="#5693D8"/>
<path d="M21.226 7.27241L17.192 5.22681H14.8223L16.9659 7.30628C17.1564 7.15908 17.3954 7.0715 17.6548 7.0715C18.1545 7.0715 18.5784 7.39644 18.7265 7.84656L21.226 7.27241Z" fill="#66B6EB"/>
<path d="M18.3672 13.7499L20.7729 13.9688L22.2386 12.9353L21.1884 11.9165L18.3672 13.7499Z" fill="#1E5794"/>
<path d="M23.1655 10.2547L21.5008 7.53369L18.782 8.15821C18.7913 8.41688 18.7108 8.6648 18.5685 8.86104L21.2729 11.4846L23.1655 10.2547Z" fill="#1E5794"/>
<path d="M16.294 15.1828L17.6272 13.956L16.5148 13.3997C16.3927 13.5551 16.2306 13.6777 16.044 13.752L16.294 15.1828Z" fill="#77D8F3"/>
<path d="M22.4682 12.6441L23.0974 10.676L21.5057 11.7104L22.4682 12.6441Z" fill="#77D8F3"/>
<path d="M16.7143 7.57635L14.6074 5.53247L15.1552 8.6669L16.5366 8.34959C16.5005 8.07819 16.5696 7.79433 16.7143 7.57635Z" fill="#77D8F3"/>
<path d="M11.3181 9.8728L14.85 9.06152L15.2979 11.6244C15.03 11.7061 14.8045 11.8848 14.6622 12.1195L11.2339 10.405C11.295 10.24 11.3253 10.0573 11.3181 9.8728Z" fill="#58C197"/>
<path d="M14.1584 5.10383L12.1766 4.39673L10.5786 8.70563C10.9133 8.88023 11.1672 9.18837 11.2697 9.55935L14.7955 8.74946L14.1584 5.10383Z" fill="#9ED677"/>
<path d="M6.46777 19.764L7.57025 20.0536L9.26561 18.096L8.50538 15.4978C8.36059 15.5172 8.20698 15.5118 8.06543 15.4829L6.46777 19.764Z" fill="#643AA8"/>
<path d="M8.96821 13.0486L9.62881 11.2673C9.80476 11.3084 9.99912 11.3142 10.1787 11.2832L11.6876 14.8207L9.63575 14.3333C9.68933 13.8163 9.42322 13.3023 8.96821 13.0486Z" fill="#643AA8"/>
<path d="M6.18187 17.7271L6.60896 18.1782L7.67086 15.3328C7.22075 15.0716 6.9635 14.5536 7.0253 14.0383L5.73047 13.7307L6.18187 17.7271Z" fill="#8659B9"/>
<path d="M9.59336 17.7168L11.7975 15.1718L9.56484 14.6415C9.44909 14.9627 9.21167 15.2258 8.90819 15.3751L9.59336 17.7168Z" fill="#8659B9"/>
<path d="M15.9382 15.2902L15.683 13.83C14.9337 13.8666 14.3461 13.1251 14.5374 12.4108L11.0902 10.6868C10.9618 10.8803 10.7857 11.0396 10.5787 11.1477L12.1971 14.9417L12.5296 15.0207L15.9382 15.2902Z" fill="#8659B9"/>
<path d="M6.05225 9.02271L8.57375 9.78197C8.51853 10.3097 8.78096 10.8363 9.23748 11.1092L8.57136 12.9054C7.95689 12.7909 7.32359 13.1433 7.10089 13.7312L5.693 13.3968L5.26709 9.62606C5.60976 9.55187 5.89601 9.32622 6.05225 9.02271Z" fill="#FF3767"/>
<path d="M4.61098 9.57812C4.68538 9.60622 4.76343 9.62687 4.84422 9.63919L5.25698 13.2934L2.91406 12.7369L4.61098 9.57812Z" fill="#FF6A44"/>
<path d="M2.75732 14.6681L3.88433 16.7282L5.7212 17.4006L5.29501 13.6274L2.75954 13.0251L2.75732 14.6681Z" fill="#FF4041"/>
<path d="M2.19818 7.86234L0.761719 9.97528L1.36204 12.6727H2.46988L4.24982 9.35936C3.97107 9.11129 3.8272 8.73536 3.86777 8.36509L2.19818 7.86234Z" fill="#FFA256"/>
<path d="M7.27696 4.61523L9.0883 8.84762C8.88591 9.008 8.72969 9.22408 8.64279 9.47271L6.15695 8.72418C6.24617 8.28352 6.06469 7.81675 5.69907 7.55244L7.27696 4.61523Z" fill="#FFA256"/>
<path d="M6.7552 4.69647L2.41309 7.59669L3.9455 8.05813C4.16201 7.52299 4.76389 7.22512 5.31809 7.37164L6.7552 4.69647Z" fill="#F2D670"/>
<path d="M11.7547 4.32254L10.1792 8.57076C9.93975 8.52933 9.67989 8.55483 9.45783 8.63848L7.61071 4.32251L11.7547 4.32254Z" fill="#F2D670"/>
</svg>
