<svg width="133" height="24" viewBox="0 0 133 24" fill="none" xmlns="http://www.w3.org/2000/svg">
<path d="M81.4642 9.58851V7.99962H87.7472V9.58851H85.5596V16.5552H83.6571V9.58851H81.4642ZM88.0427 10.4441H89.7845V11.1774C90.0074 10.9177 90.2666 10.7089 90.5569 10.5561C90.8472 10.4033 91.1686 10.3218 91.5159 10.3218C91.7647 10.3218 91.9617 10.3524 92.1121 10.4186L91.8892 11.763L91.801 11.8496C91.6352 11.8089 91.4952 11.7885 91.3759 11.7885C91.0338 11.7885 90.728 11.8802 90.4532 12.0686C90.1785 12.257 89.9556 12.5269 89.7793 12.8885V16.5552H88.0375L88.0427 10.4441ZM94.1597 16.2802C93.6724 16.0154 93.294 15.6436 93.0193 15.1598C92.7445 14.6811 92.6097 14.126 92.6097 13.4996C92.6097 12.8783 92.7549 12.3283 93.0504 11.8496C93.3459 11.3709 93.7346 10.9941 94.2271 10.7242C94.7144 10.4543 95.2432 10.3218 95.8082 10.3218C96.4199 10.3218 96.9642 10.4492 97.436 10.6987C97.9077 10.9533 98.2758 11.3149 98.535 11.7885C98.7942 12.2621 98.929 12.8172 98.929 13.464V13.9172H94.2531C94.2945 14.3399 94.4604 14.676 94.7455 14.9255C95.0306 15.1751 95.3987 15.2973 95.8445 15.2973C96.5599 15.2973 97.0316 14.9816 97.2649 14.3552L98.7216 14.5029L98.8097 14.6505C98.5765 15.3279 98.2084 15.832 97.6952 16.1732C97.182 16.5144 96.5547 16.6825 95.8082 16.6825C95.1965 16.6774 94.647 16.545 94.1597 16.2802ZM97.2908 12.8172C97.2494 12.4505 97.0938 12.1552 96.8191 11.9362C96.5443 11.7172 96.2074 11.6052 95.7979 11.6052C95.435 11.6052 95.1136 11.7172 94.8337 11.9362C94.5537 12.1552 94.3775 12.4505 94.3049 12.8172H97.2908ZM100.79 16.4533C100.489 16.3005 100.246 16.0867 100.069 15.8066C99.8932 15.5265 99.7999 15.1955 99.7999 14.8237C99.7999 14.2686 99.9968 13.8255 100.386 13.4843C100.774 13.1482 101.308 12.9445 101.993 12.8783L103.672 12.7052V12.4353C103.672 12.1603 103.584 11.9413 103.403 11.7885C103.226 11.6357 102.972 11.5543 102.651 11.5543C102.361 11.5543 102.127 11.6306 101.956 11.7783C101.78 11.9311 101.676 12.1348 101.635 12.3945L100.168 12.2723L100.106 12.201C100.23 11.5899 100.526 11.1214 100.987 10.8005C101.448 10.4797 102.013 10.3168 102.677 10.3168C103.465 10.3168 104.103 10.5103 104.595 10.8973C105.082 11.2843 105.331 11.8293 105.331 12.5269V14.7168C105.331 14.9052 105.373 15.0478 105.45 15.1445C105.528 15.2413 105.637 15.2922 105.782 15.2922C105.875 15.2922 105.953 15.282 106.021 15.2566L106.083 15.3279V16.4992C105.834 16.5806 105.549 16.6214 105.222 16.6214C104.548 16.6214 104.087 16.3464 103.828 15.7913H103.74C103.449 16.0867 103.149 16.3056 102.843 16.4533C102.537 16.601 102.184 16.6723 101.785 16.6723C101.422 16.6774 101.096 16.601 100.79 16.4533ZM102.967 15.1598C103.195 15.0121 103.429 14.788 103.672 14.4876V13.7797L102.304 13.9529C102.013 13.9834 101.791 14.07 101.64 14.2075C101.485 14.345 101.412 14.5181 101.412 14.7218C101.412 14.9255 101.485 15.0885 101.63 15.2056C101.775 15.3228 101.962 15.3839 102.184 15.3839C102.475 15.3839 102.739 15.3075 102.967 15.1598ZM107.664 16.2089C107.197 15.8931 106.886 15.4552 106.731 14.8848L106.783 14.7269L108.115 14.3348C108.265 15.0172 108.711 15.3635 109.458 15.3635C109.717 15.3635 109.924 15.3126 110.09 15.2056C110.256 15.0987 110.339 14.951 110.339 14.7677C110.339 14.5742 110.246 14.4214 110.059 14.3093C109.872 14.1973 109.509 14.0751 108.97 13.9376C108.317 13.7848 107.819 13.5556 107.488 13.2603C107.156 12.9649 106.99 12.5677 106.99 12.0788C106.99 11.7529 107.083 11.4575 107.27 11.1927C107.457 10.9279 107.721 10.7191 108.058 10.5612C108.4 10.4084 108.789 10.3269 109.229 10.3269C109.883 10.3269 110.422 10.4695 110.842 10.7496C111.262 11.0297 111.531 11.4269 111.656 11.9413L111.583 12.0737L110.266 12.3894C110.209 12.1043 110.085 11.8853 109.893 11.7376C109.701 11.5899 109.468 11.5135 109.198 11.5135C108.991 11.5135 108.815 11.5543 108.675 11.6408C108.535 11.7274 108.462 11.8445 108.462 11.9871C108.462 12.1654 108.576 12.313 108.81 12.4251C109.043 12.5371 109.463 12.6797 110.08 12.8427C110.717 13.0158 111.189 13.2399 111.49 13.5149C111.79 13.7899 111.946 14.1769 111.946 14.6658C111.946 15.0427 111.842 15.3839 111.64 15.6945C111.438 16.0052 111.148 16.2445 110.769 16.4228C110.391 16.5959 109.955 16.6876 109.458 16.6876C108.727 16.6774 108.13 16.5195 107.664 16.2089ZM113.672 16.0765C113.283 15.6793 113.086 15.1445 113.086 14.4774V10.4441H114.828V14.1209C114.828 14.4723 114.921 14.7422 115.103 14.9255C115.284 15.114 115.544 15.2056 115.875 15.2056C116.176 15.2056 116.446 15.1242 116.694 14.9561C116.943 14.788 117.145 14.5691 117.306 14.289V10.439H119.048V16.5501H117.306V15.7913C116.751 16.3769 116.072 16.6723 115.279 16.6723C114.6 16.6774 114.066 16.4788 113.672 16.0765ZM120.593 10.4441H122.335V11.1774C122.557 10.9177 122.817 10.7089 123.107 10.5561C123.397 10.4033 123.719 10.3218 124.066 10.3218C124.315 10.3218 124.512 10.3524 124.662 10.4186L124.439 11.763L124.351 11.8496C124.185 11.8089 124.045 11.7885 123.926 11.7885C123.584 11.7885 123.278 11.8802 123.003 12.0686C122.728 12.257 122.506 12.5269 122.329 12.8885V16.5552H120.588L120.593 10.4441ZM127.793 16.3973L125.232 10.4441H127.223L128.493 13.4894L128.555 14.3806H128.654L130.235 10.4441H132.075L128.54 18.9996H126.725L127.793 16.3973Z" fill="black"/>
<path d="M30.9414 8.24665C31.5376 8.24665 32.0475 8.35391 32.4711 8.56842C32.8946 8.77468 33.2202 9.07583 33.4477 9.47185C33.683 9.85962 33.8007 10.3299 33.8007 10.8827C33.8007 11.4355 33.683 11.9099 33.4477 12.3059C33.2202 12.6937 32.8946 12.9948 32.4711 13.2093C32.0475 13.4156 31.5376 13.5187 30.9414 13.5187H29.3059V16.4147H27.6821V8.24665H30.9414ZM30.6943 12.1698C31.1807 12.1698 31.5454 12.0625 31.7886 11.848C32.0318 11.6252 32.1534 11.3035 32.1534 10.8827C32.1534 10.4537 32.0318 10.1319 31.7886 9.91738C31.5454 9.70286 31.1807 9.59561 30.6943 9.59561H29.3059V12.1698H30.6943Z" fill="black"/>
<path d="M37.5399 10.103C38.1361 10.103 38.6577 10.2309 39.1048 10.4867C39.5598 10.7424 39.9128 11.1096 40.1638 11.5881C40.4227 12.0666 40.5521 12.6442 40.5521 13.3207C40.5521 13.989 40.4227 14.5665 40.1638 15.0533C39.9128 15.5318 39.5598 15.899 39.1048 16.1548C38.6577 16.4105 38.1361 16.5384 37.5399 16.5384C36.9516 16.5384 36.4299 16.4105 35.975 16.1548C35.52 15.899 35.1631 15.5318 34.9042 15.0533C34.6532 14.5665 34.5277 13.989 34.5277 13.3207C34.5277 12.6442 34.6532 12.0666 34.9042 11.5881C35.1631 11.1096 35.52 10.7424 35.975 10.4867C36.4299 10.2309 36.9516 10.103 37.5399 10.103ZM37.5399 11.3653C37.2418 11.3653 36.9869 11.4396 36.7751 11.5881C36.5711 11.7284 36.4142 11.9429 36.3044 12.2316C36.1946 12.5204 36.1397 12.8834 36.1397 13.3207C36.1397 13.758 36.1946 14.121 36.3044 14.4098C36.4142 14.6985 36.5711 14.9172 36.7751 15.0657C36.9869 15.206 37.2418 15.2761 37.5399 15.2761C37.8301 15.2761 38.0772 15.206 38.2812 15.0657C38.493 14.9172 38.6538 14.6985 38.7636 14.4098C38.8734 14.121 38.9283 13.758 38.9283 13.3207C38.9283 12.8834 38.8734 12.5204 38.7636 12.2316C38.6538 11.9429 38.493 11.7284 38.2812 11.5881C38.0772 11.4396 37.8301 11.3653 37.5399 11.3653Z" fill="black"/>
<path d="M43.3717 7.51648V14.5088C43.3717 14.7976 43.4188 14.9997 43.5129 15.1152C43.607 15.2307 43.7639 15.2885 43.9836 15.2885C44.1169 15.2885 44.2267 15.2802 44.313 15.2637C44.3993 15.239 44.5091 15.206 44.6425 15.1647L44.5013 16.2785C44.3679 16.361 44.1993 16.4229 43.9953 16.4642C43.7992 16.5137 43.6031 16.5384 43.407 16.5384C42.8344 16.5384 42.4147 16.394 42.148 16.1053C41.8891 15.8082 41.7597 15.338 41.7597 14.6944V7.51648H43.3717Z" fill="black"/>
<path d="M51.4121 10.2268L48.6941 13.2093L48.3764 13.3702L46.6114 15.3627L46.5879 13.5559L49.5766 10.2268H51.4121ZM47.035 7.51648V16.4147H45.423V7.51648H47.035ZM48.9176 12.1945L51.5533 16.4147H49.7295L47.8116 13.1846L48.9176 12.1945Z" fill="black"/>
<path d="M55.6681 12.4668C55.6681 12.112 55.57 11.8356 55.3739 11.6376C55.1856 11.4396 54.9346 11.3406 54.6208 11.3406C54.3306 11.3406 54.0757 11.419 53.856 11.5757C53.6364 11.7325 53.4756 11.9924 53.3736 12.3554L51.9969 11.9099C52.1303 11.3653 52.4205 10.9281 52.8677 10.598C53.3226 10.268 53.9305 10.103 54.6914 10.103C55.2092 10.103 55.6602 10.1896 56.0446 10.3629C56.429 10.5279 56.727 10.7796 56.9388 11.1178C57.1585 11.4561 57.2683 11.881 57.2683 12.3925V14.9048C57.2683 15.2183 57.4095 15.3751 57.6919 15.3751C57.8252 15.3751 57.9507 15.3545 58.0684 15.3132L57.9743 16.3651C57.7703 16.4724 57.5154 16.526 57.2095 16.526C56.9349 16.526 56.6878 16.4765 56.4682 16.3775C56.2485 16.2785 56.076 16.13 55.9504 15.932C55.8249 15.7257 55.7622 15.47 55.7622 15.1647V15.1152L56.0446 15.0657C55.9975 15.3792 55.8681 15.6474 55.6563 15.8701C55.4445 16.0846 55.1856 16.2496 54.8797 16.3651C54.5816 16.4807 54.2718 16.5384 53.9502 16.5384C53.5501 16.5384 53.205 16.4765 52.9147 16.3528C52.6245 16.2208 52.4009 16.031 52.244 15.7835C52.0871 15.536 52.0087 15.2307 52.0087 14.8677C52.0087 14.4057 52.1499 14.0303 52.4323 13.7415C52.7147 13.4445 53.1187 13.2423 53.6442 13.1351L55.8563 12.6648L55.8446 13.7167L54.4326 14.0138C54.1659 14.0715 53.9619 14.1499 53.8207 14.2489C53.6874 14.3396 53.6207 14.4923 53.6207 14.7068C53.6207 14.9131 53.6913 15.0698 53.8325 15.1771C53.9815 15.2843 54.158 15.338 54.362 15.338C54.5267 15.338 54.6875 15.3173 54.8444 15.2761C55.0013 15.2348 55.1425 15.1688 55.268 15.0781C55.3935 14.9873 55.4916 14.8636 55.5622 14.7068C55.6328 14.55 55.6681 14.3603 55.6681 14.1375V12.4668Z" fill="black"/>
<path d="M61.1543 16.5384C60.668 16.5384 60.2326 16.4105 59.8483 16.1548C59.4717 15.899 59.1736 15.5318 58.954 15.0533C58.7422 14.5748 58.6363 14.0014 58.6363 13.3331C58.6363 12.6483 58.7501 12.0666 58.9775 11.5881C59.205 11.1013 59.511 10.7342 59.8953 10.4867C60.2875 10.2309 60.7268 10.103 61.2132 10.103C61.7309 10.103 62.1584 10.2598 62.4957 10.5733C62.833 10.8868 63.0526 11.2911 63.1546 11.7861L63.0016 11.9841V7.51648H64.6136V16.4147H63.1664L63.0605 14.5335L63.2487 14.6325C63.2017 15.0203 63.0801 15.3586 62.884 15.6474C62.6879 15.9279 62.4408 16.1465 62.1427 16.3033C61.8446 16.46 61.5152 16.5384 61.1543 16.5384ZM61.625 15.239C61.9074 15.239 62.1505 15.1647 62.3545 15.0162C62.5584 14.8594 62.7153 14.6325 62.8251 14.3355C62.9428 14.0385 63.0016 13.6837 63.0016 13.2712C63.0016 12.8752 62.9467 12.541 62.8369 12.2688C62.7271 11.9883 62.5702 11.7737 62.3663 11.6252C62.1623 11.4767 61.9231 11.4025 61.6485 11.4025C61.2092 11.4025 60.8641 11.5675 60.6131 11.8975C60.3699 12.2193 60.2483 12.6937 60.2483 13.3207C60.2483 13.9478 60.3699 14.4263 60.6131 14.7563C60.8562 15.0781 61.1935 15.239 61.625 15.239Z" fill="black"/>
<path d="M68.8725 10.103C69.4687 10.103 69.9903 10.2309 70.4375 10.4867C70.8924 10.7424 71.2454 11.1096 71.4964 11.5881C71.7553 12.0666 71.8847 12.6442 71.8847 13.3207C71.8847 13.989 71.7553 14.5665 71.4964 15.0533C71.2454 15.5318 70.8924 15.899 70.4375 16.1548C69.9903 16.4105 69.4687 16.5384 68.8725 16.5384C68.2842 16.5384 67.7626 16.4105 67.3076 16.1548C66.8526 15.899 66.4957 15.5318 66.2369 15.0533C65.9858 14.5665 65.8603 13.989 65.8603 13.3207C65.8603 12.6442 65.9858 12.0666 66.2369 11.5881C66.4957 11.1096 66.8526 10.7424 67.3076 10.4867C67.7626 10.2309 68.2842 10.103 68.8725 10.103ZM68.8725 11.3653C68.5744 11.3653 68.3195 11.4396 68.1077 11.5881C67.9038 11.7284 67.7469 11.9429 67.6371 12.2316C67.5272 12.5204 67.4723 12.8834 67.4723 13.3207C67.4723 13.758 67.5272 14.121 67.6371 14.4098C67.7469 14.6985 67.9038 14.9172 68.1077 15.0657C68.3195 15.206 68.5744 15.2761 68.8725 15.2761C69.1628 15.2761 69.4099 15.206 69.6138 15.0657C69.8256 14.9172 69.9864 14.6985 70.0962 14.4098C70.2061 14.121 70.261 13.758 70.261 13.3207C70.261 12.8834 70.2061 12.5204 70.0962 12.2316C69.9864 11.9429 69.8256 11.7284 69.6138 11.5881C69.4099 11.4396 69.1628 11.3653 68.8725 11.3653Z" fill="black"/>
<path d="M75.1296 8.33328V14.3974C75.1296 14.6944 75.2002 14.9131 75.3414 15.0533C75.4904 15.1853 75.6905 15.2513 75.9415 15.2513C76.1454 15.2513 76.318 15.2225 76.4592 15.1647C76.6082 15.0987 76.7416 15.0121 76.8592 14.9048L77.1181 16.031C76.9298 16.1878 76.6945 16.3115 76.4121 16.4023C76.1297 16.493 75.8316 16.5384 75.5179 16.5384C75.1257 16.5384 74.7766 16.4765 74.4707 16.3528C74.1726 16.229 73.9373 16.031 73.7647 15.7587C73.6 15.4865 73.5176 15.1234 73.5176 14.6697V8.80356L75.1296 8.33328ZM77.0122 10.2268V11.4891H72.4351V10.2268H77.0122Z" fill="black"/>
<path d="M12 6.48654C13.9061 6.48654 15.4514 5.59412 15.4514 4.49327C15.4514 3.39242 13.9061 2.5 12 2.5C10.0938 2.5 8.54849 3.39242 8.54849 4.49327C8.54849 5.59412 10.0938 6.48654 12 6.48654Z" fill="#E6007A"/>
<path d="M12 21.5C13.9061 21.5 15.4514 20.6076 15.4514 19.5067C15.4514 18.4059 13.9061 17.5135 12 17.5135C10.0938 17.5135 8.54849 18.4059 8.54849 19.5067C8.54849 20.6076 10.0938 21.5 12 21.5Z" fill="#E6007A"/>
<path d="M7.18933 9.24335C8.14243 7.60487 8.13639 5.83041 7.17585 5.27999C6.21531 4.72956 4.66399 5.6116 3.7109 7.25007C2.7578 8.88855 2.76384 10.663 3.72438 11.2134C4.68493 11.7639 6.23624 10.8818 7.18933 9.24335Z" fill="#E6007A"/>
<path d="M20.2891 16.7501C21.2422 15.1116 21.2362 13.3371 20.2756 12.7867C19.3151 12.2363 17.7638 13.1183 16.8107 14.7568C15.8576 16.3953 15.8636 18.1697 16.8242 18.7201C17.7847 19.2706 19.336 18.3885 20.2891 16.7501Z" fill="#E6007A"/>
<path d="M7.17584 18.72C8.13639 18.1696 8.14242 16.3952 7.18933 14.7567C6.23623 13.1182 4.68492 12.2362 3.72438 12.7866C2.76383 13.337 2.7578 15.1115 3.71089 16.75C4.66399 18.3884 6.2153 19.2705 7.17584 18.72Z" fill="#E6007A"/>
<path d="M20.2755 11.2135C21.2361 10.6631 21.2421 8.88861 20.289 7.25013C19.3359 5.61166 17.7846 4.72962 16.8241 5.28005C15.8635 5.83047 15.8575 7.60493 16.8106 9.24341C17.7637 10.8819 19.315 11.7639 20.2755 11.2135Z" fill="#E6007A"/>
</svg>
