<svg width="20" height="20" viewBox="0 0 20 20" fill="none" xmlns="http://www.w3.org/2000/svg">
<g clip-path="url(#clip0_5352_38135)">
<path d="M16.769 16.1814C15.8031 17.2392 14.6027 18.0559 13.2642 18.566C11.9256 19.076 10.4861 19.2653 9.06123 19.1186C7.63632 18.9719 6.26562 18.4933 5.05907 17.7212C3.85252 16.9491 2.84371 15.905 2.11356 14.6726C1.3834 13.4403 0.952229 12.0539 0.85462 10.6248C0.75701 9.19568 0.995682 7.76358 1.55149 6.44337C2.1073 5.12315 2.96477 3.95156 4.05514 3.02258C5.1455 2.0936 6.4384 1.43308 7.83014 1.09401L8.12123 2.28882C6.91621 2.58241 5.79676 3.15431 4.85267 3.95867C3.90859 4.76302 3.16615 5.77743 2.6849 6.92053C2.20366 8.06363 1.99701 9.30361 2.08152 10.541C2.16604 11.7784 2.53937 12.9788 3.17157 14.0458C3.80377 15.1129 4.67724 16.0169 5.72192 16.6854C6.7666 17.3539 7.95342 17.7683 9.18717 17.8953C10.4209 18.0224 11.6673 17.8585 12.8262 17.4168C13.9852 16.9752 15.0246 16.268 15.8609 15.3522L16.769 16.1814Z" fill="#FF4DA0"/>
<path d="M16.769 16.1814C15.2882 17.803 13.2744 18.8392 11.0941 19.1013C8.91382 19.3634 6.71186 18.8341 4.88889 17.6097C3.06593 16.3852 1.7431 14.5471 1.1611 12.4296C0.579102 10.3121 0.776608 8.05603 1.71768 6.07189L2.8288 6.59889C2.01398 8.31685 1.84297 10.2702 2.34689 12.1037C2.85081 13.9371 3.99617 15.5286 5.57458 16.5888C7.15298 17.649 9.05954 18.1073 10.9473 17.8803C12.8352 17.6534 14.5788 16.7562 15.8609 15.3522L16.769 16.1814Z" fill="#E5007A"/>
<path d="M10.0001 17.3337C8.76742 17.3337 7.5546 17.0229 6.47376 16.4301C5.39292 15.8374 4.47896 14.9817 3.81634 13.9422C3.15372 12.9027 2.76383 11.713 2.68271 10.4829C2.60158 9.25287 2.83184 8.02223 3.35221 6.90472C3.87257 5.78722 4.66625 4.81892 5.65987 4.08933C6.6535 3.35974 7.81501 2.8924 9.03705 2.73051C10.2591 2.56862 11.5022 2.71739 12.6515 3.16309C13.8009 3.60878 14.8193 4.33701 15.6127 5.28047L14.5931 6.13793C13.9438 5.36587 13.1104 4.76994 12.1699 4.40521C11.2293 4.04049 10.212 3.91874 9.21201 4.05122C8.21198 4.18371 7.26149 4.56615 6.44837 5.16319C5.63526 5.76023 4.98577 6.55262 4.55995 7.4671C4.13412 8.38159 3.94569 9.38866 4.01207 10.3952C4.07846 11.4018 4.39752 12.3754 4.93976 13.2261C5.482 14.0767 6.22992 14.7769 7.1144 15.262C7.99888 15.7471 8.99137 16.0014 10.0001 16.0014L10.0001 17.3337Z" fill="#FF88C9"/>
<path d="M10.0001 17.3337C8.45716 17.3337 6.95349 16.847 5.70315 15.9429C4.4528 15.0387 3.51949 13.7633 3.03605 12.298C2.55261 10.8327 2.54367 9.25224 3.01051 7.78157C3.47735 6.31091 4.39618 5.02497 5.63622 4.10677L6.42902 5.17746C5.41426 5.92885 4.66235 6.98117 4.28033 8.18466C3.8983 9.38814 3.90561 10.6815 4.30122 11.8806C4.69684 13.0796 5.46059 14.1234 6.48379 14.8633C7.50698 15.6031 8.73748 16.0014 10.0001 16.0014L10.0001 17.3337Z" fill="#E5007A"/>
<path d="M10.0001 17.3337C8.44257 17.3337 6.92544 16.8377 5.66861 15.9177C4.41177 14.9977 3.48051 13.7014 3.00976 12.2167L4.27971 11.814C4.66494 13.029 5.42702 14.0898 6.45552 14.8427C7.48403 15.5956 8.72553 16.0014 10.0001 16.0014L10.0001 17.3337Z" fill="#E5007A"/>
<path d="M16.769 16.1814C15.6858 17.3677 14.3098 18.2484 12.779 18.7354C11.2482 19.2224 9.61629 19.2986 8.04677 18.9563C6.47724 18.614 5.02523 17.8653 3.8362 16.7851C2.64717 15.7049 1.76288 14.3313 1.27192 12.8017L2.44284 12.4259C2.86793 13.7502 3.63359 14.9396 4.66311 15.8749C5.69262 16.8101 6.94984 17.4584 8.3088 17.7548C9.66776 18.0512 11.0807 17.9852 12.4062 17.5635C13.7316 17.1419 14.923 16.3793 15.8609 15.3522L16.769 16.1814Z" fill="#FF88C9"/>
<path d="M13.445 14.2874C12.6987 14.887 11.8087 15.2815 10.8632 15.4318C9.91771 15.5821 8.94934 15.483 8.05389 15.1442C7.15843 14.8055 6.3669 14.2389 5.75758 13.5004C5.14827 12.762 4.74226 11.8772 4.57972 10.9338C4.41718 9.99027 4.50374 9.0207 4.83083 8.12092C5.15792 7.22114 5.71422 6.42233 6.44471 5.80348C7.1752 5.18463 8.05457 4.76718 8.99587 4.59242C9.93717 4.41765 10.9078 4.49162 11.8117 4.80701L11.3589 6.10487C10.6809 5.86831 9.95284 5.81283 9.2468 5.94391C8.54076 6.075 7.88116 6.38812 7.33324 6.8523C6.78532 7.31648 6.36806 7.91565 6.12271 8.59055C5.87737 9.26545 5.81245 9.9927 5.93436 10.7004C6.05628 11.4081 6.36081 12.0717 6.81785 12.6256C7.27488 13.1795 7.86858 13.6045 8.54024 13.8586C9.2119 14.1126 9.93825 14.187 10.6475 14.0743C11.3567 13.9615 12.0242 13.6656 12.5839 13.2158L13.445 14.2874Z" fill="#FF88C9"/>
<path d="M8.73616 4.64715C9.75453 4.40673 10.8204 4.4618 11.8085 4.80589L11.3565 6.10403C10.6153 5.84594 9.81585 5.80464 9.052 5.98497L8.73616 4.64715Z" fill="#E5007A"/>
<path d="M13.445 14.2874C12.5936 14.9714 11.5579 15.3866 10.4697 15.4799C9.38161 15.5732 8.29032 15.3404 7.33495 14.8113L8.00099 13.6088C8.71758 14.0057 9.53613 14.1803 10.3523 14.1103C11.1685 14.0403 11.9454 13.7289 12.5839 13.2158L13.445 14.2874Z" fill="#E5007A"/>
</g>
<defs>
<clipPath id="clip0_5352_38135">
<rect width="20" height="20" fill="white"/>
</clipPath>
</defs>
</svg>
