<svg width="20" height="20" viewBox="0 0 20 20" fill="none" xmlns="http://www.w3.org/2000/svg">
<g clip-path="url(#clip0_414_60)">
<path d="M16.7691 16.1814C15.8031 17.2392 14.6028 18.0559 13.2642 18.566C11.9257 19.076 10.4862 19.2653 9.06129 19.1186C7.63638 18.9719 6.26568 18.4933 5.05913 17.7212C3.85258 16.9491 2.84377 15.905 2.11362 14.6726C1.38346 13.4403 0.95229 12.0539 0.854681 10.6248C0.757071 9.19568 0.995743 7.76358 1.55155 6.44337C2.10736 5.12315 2.96484 3.95156 4.0552 3.02258C5.14556 2.0936 6.43846 1.43308 7.8302 1.09401L8.12129 2.28882C6.91627 2.58241 5.79682 3.15431 4.85273 3.95867C3.90865 4.76302 3.16621 5.77743 2.68497 6.92053C2.20372 8.06363 1.99707 9.30361 2.08158 10.541C2.1661 11.7784 2.53943 12.9788 3.17163 14.0458C3.80383 15.1129 4.6773 16.0169 5.72198 16.6854C6.76666 17.3539 7.95348 17.7683 9.18723 17.8953C10.421 18.0224 11.6673 17.8585 12.8263 17.4168C13.9853 16.9752 15.0246 16.268 15.861 15.3522L16.7691 16.1814Z" fill="#D9D9D9"/>
<path d="M16.7691 16.1814C15.2883 17.803 13.2745 18.8392 11.0942 19.1013C8.91388 19.3634 6.71192 18.8341 4.88896 17.6097C3.06599 16.3852 1.74316 14.5471 1.16116 12.4296C0.579163 10.3121 0.776669 8.05603 1.71774 6.07189L2.82886 6.59889C2.01404 8.31685 1.84303 10.2702 2.34695 12.1037C2.85087 13.9371 3.99623 15.5286 5.57464 16.5888C7.15304 17.649 9.0596 18.1073 10.9474 17.8803C12.8352 17.6534 14.5788 16.7562 15.861 15.3522L16.7691 16.1814Z" fill="#CACACA"/>
<path d="M10.0002 17.3337C8.76749 17.3337 7.55466 17.0229 6.47382 16.4301C5.39299 15.8374 4.47902 14.9817 3.8164 13.9422C3.15378 12.9027 2.76389 11.713 2.68277 10.4829C2.60164 9.25287 2.83191 8.02223 3.35227 6.90472C3.87263 5.78722 4.66631 4.81892 5.65993 4.08933C6.65356 3.35974 7.81507 2.8924 9.03711 2.73051C10.2591 2.56862 11.5023 2.71739 12.6516 3.16309C13.8009 3.60878 14.8194 4.33701 15.6128 5.28047L14.5931 6.13793C13.9439 5.36587 13.1104 4.76994 12.1699 4.40521C11.2294 4.04049 10.2121 3.91874 9.21208 4.05122C8.21204 4.18371 7.26155 4.56615 6.44843 5.16319C5.63532 5.76023 4.98584 6.55262 4.56001 7.4671C4.13418 8.38159 3.94575 9.38866 4.01213 10.3952C4.07852 11.4018 4.39758 12.3754 4.93982 13.2261C5.48206 14.0767 6.22998 14.7769 7.11446 15.262C7.99894 15.7471 8.99144 16.0014 10.0002 16.0014L10.0002 17.3337Z" fill="#F0F0F0"/>
<path d="M10.0002 17.3337C8.45722 17.3337 6.95355 16.847 5.70321 15.9429C4.45286 15.0387 3.51955 13.7633 3.03611 12.298C2.55267 10.8327 2.54373 9.25224 3.01057 7.78157C3.47741 6.31091 4.39624 5.02497 5.63628 4.10677L6.42908 5.17746C5.41432 5.92885 4.66242 6.98117 4.28039 8.18466C3.89836 9.38814 3.90567 10.6815 4.30128 11.8806C4.6969 13.0796 5.46065 14.1234 6.48385 14.8633C7.50704 15.6031 8.73754 16.0014 10.0002 16.0014L10.0002 17.3337Z" fill="#CACACA"/>
<path d="M10.0002 17.3337C8.44263 17.3337 6.92551 16.8377 5.66867 15.9177C4.41183 14.9977 3.48057 13.7014 3.00982 12.2167L4.27977 11.814C4.665 13.029 5.42708 14.0898 6.45558 14.8427C7.48409 15.5956 8.72559 16.0014 10.0002 16.0014L10.0002 17.3337Z" fill="#C3C3C3"/>
<path d="M16.7691 16.1814C15.6858 17.3677 14.3099 18.2484 12.7791 18.7354C11.2483 19.2224 9.61635 19.2986 8.04683 18.9563C6.4773 18.614 5.02529 17.8653 3.83626 16.7851C2.64723 15.7049 1.76294 14.3313 1.27198 12.8017L2.4429 12.4259C2.868 13.7502 3.63365 14.9396 4.66317 15.8749C5.69268 16.8101 6.9499 17.4584 8.30886 17.7548C9.66782 18.0512 11.0808 17.9852 12.4063 17.5635C13.7317 17.1419 14.9231 16.3793 15.861 15.3522L16.7691 16.1814Z" fill="#F0F0F0"/>
<path d="M13.4451 14.2874C12.6988 14.887 11.8089 15.2815 10.8634 15.4318C9.91784 15.5821 8.94947 15.483 8.05401 15.1442C7.15855 14.8055 6.36703 14.2389 5.75771 13.5004C5.14839 12.762 4.74238 11.8772 4.57984 10.9338C4.4173 9.99027 4.50386 9.0207 4.83095 8.12092C5.15804 7.22114 5.71434 6.42233 6.44483 5.80348C7.17532 5.18463 8.0547 4.76718 8.996 4.59242C9.9373 4.41765 10.9079 4.49162 11.8119 4.80701L11.359 6.10487C10.681 5.86831 9.95297 5.81283 9.24692 5.94391C8.54088 6.075 7.88128 6.38812 7.33336 6.8523C6.78544 7.31648 6.36818 7.91565 6.12284 8.59055C5.87749 9.26545 5.81257 9.9927 5.93449 10.7004C6.0564 11.4081 6.36093 12.0717 6.81797 12.6256C7.275 13.1795 7.86871 13.6045 8.54036 13.8586C9.21202 14.1126 9.93837 14.187 10.6476 14.0743C11.3568 13.9615 12.0243 13.6656 12.5841 13.2158L13.4451 14.2874Z" fill="#F0F0F0"/>
<path d="M8.73628 4.64715C9.75465 4.40673 10.8205 4.4618 11.8086 4.80589L11.3566 6.10403C10.6154 5.84594 9.81597 5.80464 9.05212 5.98497L8.73628 4.64715Z" fill="#CACACA"/>
<path d="M13.4451 14.2874C12.5937 14.9714 11.558 15.3866 10.4699 15.4799C9.38173 15.5732 8.29044 15.3404 7.33507 14.8113L8.00111 13.6088C8.71771 14.0057 9.53625 14.1803 10.3524 14.1103C11.1686 14.0403 11.9455 13.7289 12.5841 13.2158L13.4451 14.2874Z" fill="#CACACA"/>
</g>
<defs>
<clipPath id="clip0_414_60">
<rect width="20" height="20" fill="white"/>
</clipPath>
</defs>
</svg>
