<svg width="16" height="16" viewBox="0 0 16 16" fill="none" xmlns="http://www.w3.org/2000/svg">
<path d="M14.8223 9.23575L14.24 8.36202V7.63705L14.8218 6.76434C14.9078 6.63547 14.9645 6.48929 14.9878 6.33613C15.0112 6.18297 15.0006 6.02656 14.9569 5.87792C14.8206 5.42919 14.6411 4.99477 14.4207 4.58079C14.3472 4.44464 14.2444 4.32648 14.1197 4.23483C13.9951 4.14318 13.8516 4.08032 13.6997 4.05077L12.669 3.84464L12.1562 3.33188L11.95 2.30128C11.9205 2.1492 11.8575 2.00558 11.7657 1.88081C11.6738 1.75604 11.5554 1.65325 11.4189 1.57986C11.0053 1.36001 10.5713 1.18064 10.1232 1.04426C9.97464 0.999831 9.8181 0.988854 9.66482 1.01212C9.51154 1.03538 9.36531 1.0923 9.23665 1.17879L8.36333 1.76111H7.63827L6.76444 1.17879C6.63605 1.09215 6.48999 1.03513 6.33684 1.01186C6.18369 0.98859 6.02728 0.999656 5.87894 1.04426C5.43016 1.18051 4.99569 1.36006 4.58165 1.58037C4.4453 1.65363 4.32698 1.75634 4.23528 1.88104C4.14359 2.00574 4.08083 2.1493 4.05157 2.30128L3.84543 3.33188L3.3326 3.84464L2.30087 4.05077C2.14893 4.08021 2.00546 4.1431 1.88084 4.23486C1.75622 4.32662 1.65359 4.44496 1.58038 4.5813C1.3603 4.99505 1.18074 5.42911 1.0442 5.87741C0.999665 6.02583 0.988633 6.18229 1.0119 6.33549C1.03517 6.48869 1.09216 6.63482 1.17875 6.76332L1.76164 7.63705V8.36202L1.17825 9.23626C1.09182 9.36475 1.03498 9.51081 1.0118 9.66391C0.988618 9.81701 0.999686 9.97335 1.0442 10.1217C1.18056 10.5697 1.36013 11.0034 1.58038 11.4168C1.65343 11.5534 1.75607 11.6721 1.8808 11.764C2.00553 11.856 2.14921 11.9189 2.30138 11.9483L3.3326 12.1544L3.84543 12.6672L4.05157 13.6973C4.08051 13.8495 4.14314 13.9934 4.23485 14.1183C4.32657 14.2432 4.44506 14.346 4.58165 14.4192C4.99531 14.6393 5.42946 14.8185 5.87792 14.9543C6.02629 14.9998 6.18299 15.0114 6.33644 14.9882C6.48989 14.965 6.63616 14.9076 6.76444 14.8203L7.63827 14.238H8.36333L9.23665 14.8203C9.40993 14.9367 9.61381 14.9992 9.82259 15C9.92446 14.9999 10.0258 14.9846 10.1232 14.9548C10.5712 14.8186 11.005 14.6392 11.4184 14.4192C11.5551 14.3463 11.6738 14.2437 11.7657 14.1189C11.8576 13.9942 11.9204 13.8505 11.9495 13.6983L12.1557 12.6672L12.669 12.1544L13.7002 11.9483C13.8522 11.9186 13.9957 11.8556 14.1204 11.7637C14.245 11.6719 14.3478 11.5536 14.4212 11.4173C14.6413 11.0037 14.8207 10.5698 14.9569 10.1217C15.0006 9.97314 15.0112 9.81683 14.988 9.66376C14.9648 9.5107 14.9082 9.36459 14.8223 9.23575ZM8.00061 11.1188C7.38362 11.1188 6.78048 10.9359 6.26747 10.5931C5.75446 10.2504 5.35461 9.76324 5.1185 9.19327C4.88238 8.62331 4.82061 7.99614 4.94098 7.39107C5.06135 6.786 5.35846 6.23021 5.79474 5.79398C6.23102 5.35775 6.78687 5.06068 7.39201 4.94032C7.99715 4.81997 8.6244 4.88174 9.19442 5.11782C9.76445 5.35391 10.2517 5.75371 10.5944 6.26666C10.9372 6.77961 11.1202 7.38268 11.1202 7.9996C11.1202 8.82687 10.7915 9.62025 10.2065 10.2052C9.62145 10.7902 8.82797 11.1188 8.00061 11.1188Z" fill="#DF405D"/>
</svg>
