<svg width="20" height="20" viewBox="0 0 20 20" fill="none" xmlns="http://www.w3.org/2000/svg">
<g clip-path="url(#clip0_2705_37170)">
<path d="M13.6316 1.66602C14.3116 1.66602 14.9399 2.03499 15.2799 2.63394L18.9116 9.03142C19.2516 9.63038 19.2516 10.3683 18.9116 10.9673L15.2799 17.3648C14.9399 17.9637 14.3116 18.3327 13.6316 18.3327H6.36828C5.68826 18.3327 5.0599 17.9637 4.7199 17.3648L1.08826 10.9673C0.74825 10.3683 0.748251 9.63038 1.08826 9.03142L4.7199 2.63394C5.05991 2.03499 5.68826 1.66602 6.36828 1.66602L13.6316 1.66602Z" fill="#FFF0F3"/>
<path d="M10.2327 6.12695C10.8645 6.12695 11.4115 6.24126 11.8734 6.46988C12.3422 6.69849 12.7023 7.02298 12.9537 7.44333C13.2051 7.86369 13.3308 8.36148 13.3308 8.9367C13.3308 9.50455 13.2051 10.0023 12.9537 10.4301C12.7023 10.8504 12.3422 11.1749 11.8734 11.4035C11.4115 11.6248 10.8645 11.7354 10.2327 11.7354H8.79573V13.8704H7.14478V6.12695H10.2327ZM10.141 10.2752C10.6369 10.2752 11.014 10.1609 11.2722 9.93229C11.5303 9.6963 11.6594 9.36444 11.6594 8.9367C11.6594 8.5016 11.5303 8.16974 11.2722 7.94112C11.014 7.70513 10.6369 7.58714 10.141 7.58714H8.79573V10.2752H10.141Z" fill="#F23252"/>
</g>
<defs>
<clipPath id="clip0_2705_37170">
<rect width="20" height="20" fill="white"/>
</clipPath>
</defs>
</svg>

