<svg width="20" height="20" viewBox="0 0 20 20" fill="none" xmlns="http://www.w3.org/2000/svg">
<g clip-path="url(#clip0_2705_37173)">
<path d="M13.6316 1.66602C14.3116 1.66602 14.9399 2.03499 15.2799 2.63394L18.9116 9.03142C19.2516 9.63038 19.2516 10.3683 18.9116 10.9673L15.2799 17.3648C14.9399 17.9637 14.3116 18.3327 13.6316 18.3327H6.36828C5.68826 18.3327 5.0599 17.9637 4.7199 17.3648L1.08826 10.9673C0.74825 10.3683 0.748251 9.63038 1.08826 9.03142L4.7199 2.63394C5.05991 2.03499 5.68826 1.66602 6.36828 1.66602L13.6316 1.66602Z" fill="#FFF0F3"/>
<path d="M12.193 9.84379C12.6081 9.98391 12.9332 10.2199 13.1684 10.5518C13.4036 10.8762 13.5212 11.2782 13.5212 11.7575C13.5212 12.436 13.2722 12.9596 12.7741 13.3283C12.2829 13.6897 11.5635 13.8704 10.6157 13.8704H6.85938V6.12695H10.4082C11.2937 6.12695 11.9716 6.30763 12.442 6.66899C12.9194 7.03035 13.158 7.52077 13.158 8.14024C13.158 8.51635 13.0716 8.8519 12.8986 9.14688C12.7326 9.44187 12.4974 9.67417 12.193 9.84379ZM8.53003 7.47652V9.30175H10.2007C10.6157 9.30175 10.9305 9.22432 11.145 9.06945C11.3594 8.91458 11.4666 8.68597 11.4666 8.3836C11.4666 8.08124 11.3594 7.85631 11.145 7.70882C10.9305 7.55395 10.6157 7.47652 10.2007 7.47652H8.53003ZM10.4912 12.5208C10.934 12.5208 11.266 12.4434 11.4874 12.2885C11.7157 12.1336 11.8298 11.8939 11.8298 11.5695C11.8298 10.9279 11.3836 10.6071 10.4912 10.6071H8.53003V12.5208H10.4912Z" fill="#F23252"/>
</g>
<defs>
<clipPath id="clip0_2705_37173">
<rect width="20" height="20" fill="white"/>
</clipPath>
</defs>
</svg>

