<svg width="20" height="20" viewBox="0 0 20 20" fill="none" xmlns="http://www.w3.org/2000/svg">
<path fill-rule="evenodd" clip-rule="evenodd" d="M9.99989 3.29169C10.1693 3.29169 10.3318 3.22438 10.4516 3.10456C10.5715 2.98475 10.6388 2.82224 10.6388 2.6528V1.05558C10.6388 0.886132 10.5715 0.723628 10.4516 0.603813C10.3318 0.483998 10.1693 0.416687 9.99989 0.416687C9.83044 0.416687 9.66794 0.483998 9.54812 0.603813C9.42831 0.723628 9.361 0.886132 9.361 1.05558V2.6528C9.361 2.82224 9.42831 2.98475 9.54812 3.10456C9.66794 3.22438 9.83044 3.29169 9.99989 3.29169ZM9.99989 15.4305C12.9991 15.4305 15.4304 12.9992 15.4304 9.99996C15.4304 7.00075 12.9991 4.56941 9.99989 4.56941C7.00067 4.56941 4.56933 7.00075 4.56933 9.99996C4.56933 12.9992 7.00067 15.4305 9.99989 15.4305ZM4.80487 5.43983C4.63632 5.43983 4.47442 5.37404 4.35365 5.25648L3.21962 4.13044C3.14983 4.07315 3.09279 4.00189 3.0522 3.92124C3.0116 3.84058 2.98834 3.75232 2.98391 3.66214C2.97948 3.57195 2.99398 3.48184 3.02648 3.39759C3.05898 3.31335 3.10875 3.23684 3.1726 3.173C3.23645 3.10915 3.31295 3.05937 3.3972 3.02688C3.48144 2.99438 3.57156 2.97988 3.66174 2.98431C3.75193 2.98874 3.84019 3.012 3.92084 3.05259C4.00149 3.09319 4.07276 3.15022 4.13004 3.22002L5.25608 4.35405C5.37556 4.47382 5.44266 4.63609 5.44266 4.80526C5.44266 4.97444 5.37556 5.13671 5.25608 5.25648C5.13531 5.37404 4.97341 5.43983 4.80487 5.43983ZM3.2915 9.99996C3.2915 9.83052 3.22419 9.66802 3.10438 9.5482C2.98456 9.42839 2.82206 9.36107 2.65261 9.36107H1.05539C0.885949 9.36107 0.723445 9.42839 0.60363 9.5482C0.483815 9.66802 0.416504 9.83052 0.416504 9.99996C0.416504 10.1694 0.483815 10.3319 0.60363 10.4517C0.723445 10.5715 0.885949 10.6389 1.05539 10.6389H2.65261C2.82206 10.6389 2.98456 10.5715 3.10438 10.4517C3.22419 10.3319 3.2915 10.1694 3.2915 9.99996ZM3.21965 15.8696L4.35368 14.7436C4.47521 14.6335 4.63443 14.5743 4.79838 14.5783C4.96233 14.5824 5.11846 14.6493 5.23442 14.7653C5.35039 14.8812 5.41732 15.0374 5.42135 15.2013C5.42539 15.3653 5.36622 15.5245 5.25611 15.646L4.13006 16.78C4.00743 16.8973 3.84451 16.963 3.67486 16.9637C3.50552 16.9614 3.34316 16.8959 3.21965 16.78C3.09968 16.6589 3.03237 16.4953 3.03237 16.3248C3.03237 16.1543 3.09968 15.9908 3.21965 15.8696ZM9.99989 16.7085C9.83044 16.7085 9.66794 16.7758 9.54812 16.8957C9.42831 17.0155 9.361 17.178 9.361 17.3474V18.9446C9.361 19.1141 9.42831 19.2766 9.54812 19.3964C9.66794 19.5162 9.83044 19.5835 9.99989 19.5835C10.1693 19.5835 10.3318 19.5162 10.4516 19.3964C10.5715 19.2766 10.6388 19.1141 10.6388 18.9446V17.3474C10.6388 17.178 10.5715 17.0155 10.4516 16.8957C10.3318 16.7758 10.1693 16.7085 9.99989 16.7085ZM15.2013 14.5783C15.3653 14.5743 15.5245 14.6335 15.646 14.7436L16.7801 15.8696C16.9 15.9908 16.9673 16.1543 16.9673 16.3248C16.9673 16.4953 16.9 16.6589 16.7801 16.78C16.6566 16.8959 16.4942 16.9614 16.3249 16.9637C16.1552 16.963 15.9923 16.8973 15.8697 16.78L14.7436 15.646C14.6335 15.5245 14.5743 15.3653 14.5784 15.2013C14.5824 15.0374 14.6493 14.8812 14.7653 14.7653C14.8813 14.6493 15.0374 14.5824 15.2013 14.5783ZM18.9442 9.36107H17.347C17.1776 9.36107 17.0151 9.42839 16.8953 9.5482C16.7754 9.66802 16.7081 9.83052 16.7081 9.99996C16.7081 10.1694 16.7754 10.3319 16.8953 10.4517C17.0151 10.5715 17.1776 10.6389 17.347 10.6389H18.9442C19.1137 10.6389 19.2762 10.5715 19.396 10.4517C19.5158 10.3319 19.5831 10.1694 19.5831 9.99996C19.5831 9.83052 19.5158 9.66802 19.396 9.5482C19.2762 9.42839 19.1137 9.36107 18.9442 9.36107ZM15.4411 5.39359C15.3643 5.42513 15.2819 5.44101 15.1989 5.44027C15.1145 5.44208 15.0307 5.42674 14.9524 5.39516C14.8742 5.36359 14.8032 5.31644 14.7437 5.25659C14.6242 5.13682 14.5571 4.97455 14.5571 4.80538C14.5571 4.6362 14.6242 4.47393 14.7437 4.35416L15.8697 3.22013C15.9939 3.11825 16.1515 3.06619 16.3118 3.07407C16.4722 3.08195 16.624 3.1492 16.7375 3.26275C16.8511 3.37631 16.9183 3.52804 16.9262 3.68843C16.9341 3.84883 16.882 4.00642 16.7801 4.13055L15.6461 5.25659C15.5876 5.31547 15.5179 5.36205 15.4411 5.39359Z" fill="black" fill-opacity="1"/>
</svg>
