<svg width="16" height="16" viewBox="0 0 16 16" fill="none" xmlns="http://www.w3.org/2000/svg">
<path d="M1.63636 6.13708H3.54545V14H1.63636C1.46759 14 1.30573 13.931 1.18639 13.8081C1.06705 13.6852 1 13.5185 1 13.3448V6.79232C1 6.61854 1.06705 6.45188 1.18639 6.329C1.30573 6.20611 1.46759 6.13708 1.63636 6.13708ZM5.00464 5.28985L9.07736 1.09629C9.13149 1.0404 9.2034 1.0065 9.27987 1.00084C9.35633 0.995185 9.43221 1.01814 9.49354 1.06549L10.0364 1.48485C10.1871 1.60138 10.301 1.76127 10.3636 1.94434C10.4262 2.12742 10.4348 2.32549 10.3883 2.51358L9.65454 5.48184H13.7273C14.0648 5.48184 14.3885 5.6199 14.6272 5.86567C14.8659 6.11143 15 6.44476 15 6.79232V8.17096C15.0002 8.34221 14.9677 8.51184 14.9045 8.67025L12.935 13.5944C12.887 13.7145 12.8054 13.8171 12.7005 13.8893C12.5957 13.9615 12.4725 14.0001 12.3464 14H5.45455C5.28577 14 5.12391 13.931 5.00457 13.8081C4.88523 13.6852 4.81818 13.5185 4.81818 13.3448V5.75311C4.81822 5.57934 4.88529 5.4127 5.00464 5.28985Z" fill="#1D253C"/>
</svg>
