<svg width="16" height="16" viewBox="0 0 16 16" fill="none" xmlns="http://www.w3.org/2000/svg">
<path d="M14.3636 9.86292H12.4545V2H14.3636C14.5324 2 14.6943 2.06903 14.8136 2.19192C14.933 2.3148 15 2.48146 15 2.65524V9.20768C15 9.38146 14.933 9.54812 14.8136 9.671C14.6943 9.79389 14.5324 9.86292 14.3636 9.86292ZM10.9954 10.7101L6.92264 14.9037C6.86851 14.9596 6.7966 14.9935 6.72013 14.9992C6.64367 15.0048 6.56779 14.9819 6.50645 14.9345L5.96364 14.5151C5.81288 14.3986 5.69901 14.2387 5.63638 14.0557C5.57376 13.8726 5.56518 13.6745 5.61173 13.4864L6.34545 10.5182H2.27273C1.93518 10.5182 1.61146 10.3801 1.37277 10.1343C1.13409 9.88857 1 9.55524 1 9.20768V7.82905C0.999829 7.65779 1.03226 7.48816 1.09546 7.32975L3.06564 2.40625C3.11354 2.28618 3.19501 2.18346 3.29969 2.11114C3.40438 2.03881 3.52757 2.00013 3.65364 2H10.5455C10.7142 2 10.8761 2.06903 10.9954 2.19192C11.1148 2.3148 11.1818 2.48146 11.1818 2.65524V10.2469C11.1818 10.4207 11.1147 10.5873 10.9954 10.7101Z" fill="#1D253C"/>
</svg>
