<svg width="20" height="20" viewBox="0 0 20 20" fill="none" xmlns="http://www.w3.org/2000/svg">
<path d="M18.3334 9.99935C18.3334 14.6027 14.6021 18.3327 10.0001 18.3327C5.39803 18.3327 1.66675 14.6027 1.66675 9.99935C1.66675 5.39864 5.39803 1.66602 10.0001 1.66602C14.6021 1.66602 18.3334 5.39864 18.3334 9.99935ZM10.0001 11.6795C9.14642 11.6795 8.45438 12.3715 8.45438 13.2252C8.45438 14.0788 9.14642 14.7709 10.0001 14.7709C10.8537 14.7709 11.5458 14.0788 11.5458 13.2252C11.5458 12.3715 10.8537 11.6795 10.0001 11.6795ZM8.53257 6.12348L8.78184 10.6934C8.7935 10.9072 8.97031 11.0746 9.18446 11.0746H10.8157C11.0299 11.0746 11.2067 10.9072 11.2183 10.6934L11.4676 6.12348C11.4802 5.89249 11.2963 5.69827 11.065 5.69827H8.93516C8.70385 5.69827 8.51997 5.89249 8.53257 6.12348Z" fill="#EC4730"/>
</svg>
