<svg width="24" height="24" viewBox="0 0 24 24" fill="none" xmlns="http://www.w3.org/2000/svg">
<path fill-rule="evenodd" clip-rule="evenodd" d="M13.4625 5.53117L19.643 16.2187C19.7931 16.4744 19.8729 16.7653 19.8742 17.0619C19.8756 17.3584 19.7984 17.6501 19.6506 17.9071C19.5028 18.1642 19.2895 18.3776 19.0326 18.5256C18.7756 18.6737 18.484 18.751 18.1875 18.7499H5.81249C5.51594 18.751 5.22437 18.6737 4.96741 18.5256C4.71044 18.3776 4.49722 18.1642 4.34939 17.9071C4.20157 17.6501 4.12441 17.3584 4.12575 17.0619C4.12709 16.7653 4.20688 16.4744 4.35702 16.2187L10.5375 5.53117C10.6855 5.27413 10.8985 5.06063 11.1553 4.91217C11.4121 4.76371 11.7034 4.68555 12 4.68555C12.2966 4.68555 12.5879 4.76371 12.8447 4.91217C13.1014 5.06063 13.3145 5.27413 13.4625 5.53117ZM11.5645 9.28929C11.449 9.40479 11.3841 9.56146 11.3841 9.72481V12.8044C11.3841 12.9678 11.449 13.1244 11.5645 13.2399C11.68 13.3554 11.8366 13.4203 12 13.4203C12.1633 13.4203 12.32 13.3554 12.4355 13.2399C12.551 13.1244 12.6159 12.9678 12.6159 12.8044V9.72481C12.6159 9.56146 12.551 9.40479 12.4355 9.28929C12.32 9.17378 12.1633 9.10889 12 9.10889C11.8366 9.10889 11.68 9.17378 11.5645 9.28929ZM11.4867 16.3442C11.6386 16.4458 11.8173 16.4999 12 16.4999C12.245 16.4999 12.48 16.4026 12.6533 16.2293C12.8265 16.0561 12.9239 15.8211 12.9239 15.5761C12.9239 15.3933 12.8697 15.2147 12.7682 15.0628C12.6667 14.9108 12.5224 14.7924 12.3535 14.7225C12.1847 14.6526 11.999 14.6343 11.8197 14.6699C11.6405 14.7056 11.4759 14.7936 11.3467 14.9228C11.2175 15.052 11.1295 15.2166 11.0939 15.3958C11.0582 15.575 11.0765 15.7608 11.1464 15.9296C11.2164 16.0984 11.3348 16.2427 11.4867 16.3442Z" fill="#F2B12F"/>
</svg>
