<svg width="20" height="20" viewBox="0 0 20 20" fill="none" xmlns="http://www.w3.org/2000/svg">
<path d="M18.3334 9.99935C18.3334 14.6017 14.6025 18.3327 10.0001 18.3327C5.3977 18.3327 1.66675 14.6017 1.66675 9.99935C1.66675 5.39696 5.3977 1.66602 10.0001 1.66602C14.6025 1.66602 18.3334 5.39696 18.3334 9.99935ZM9.03617 14.4118L15.219 8.22899C15.4289 8.01904 15.4289 7.67862 15.219 7.46867L14.4587 6.70835C14.2487 6.49837 13.9083 6.49837 13.6983 6.70835L8.656 11.7506L6.30186 9.39649C6.09192 9.18655 5.75149 9.18655 5.54151 9.39649L4.7812 10.1568C4.57125 10.3668 4.57125 10.7072 4.7812 10.9171L8.27582 14.4117C8.4858 14.6217 8.82619 14.6217 9.03617 14.4118Z" fill="#3ABC3F"/>
</svg>
