<svg width="20" height="20" viewBox="0 0 20 20" fill="none" xmlns="http://www.w3.org/2000/svg">
<path d="M10.0001 1.66602C5.39803 1.66602 1.66675 5.39864 1.66675 9.99935C1.66675 14.6027 5.39803 18.3327 10.0001 18.3327C14.6021 18.3327 18.3334 14.6027 18.3334 9.99935C18.3334 5.39864 14.6021 1.66602 10.0001 1.66602ZM10.0001 5.36225C10.7795 5.36225 11.4114 5.99411 11.4114 6.77354C11.4114 7.55298 10.7795 8.18483 10.0001 8.18483C9.22065 8.18483 8.58879 7.55298 8.58879 6.77354C8.58879 5.99411 9.22065 5.36225 10.0001 5.36225ZM11.8818 13.8972C11.8818 14.1199 11.7013 14.3004 11.4786 14.3004H8.52159C8.29891 14.3004 8.11836 14.1199 8.11836 13.8972V13.0907C8.11836 12.8681 8.29891 12.6875 8.52159 12.6875H8.92481V10.537H8.52159C8.29891 10.537 8.11836 10.3564 8.11836 10.1338V9.32731C8.11836 9.10462 8.29891 8.92408 8.52159 8.92408H10.6721C10.8948 8.92408 11.0754 9.10462 11.0754 9.32731V12.6875H11.4786C11.7013 12.6875 11.8818 12.8681 11.8818 13.0907V13.8972Z" fill="#DF405D"/>
</svg>
