<svg width="20" height="20" viewBox="0 0 20 20" fill="none" xmlns="http://www.w3.org/2000/svg">
<g clip-path="url(#clip0_125_9183)">
<path d="M18.3333 4.92337C17.73 5.22406 17.0512 5.37441 16.3725 5.44959C17.0512 4.99854 17.5791 4.32197 17.8808 3.57022C17.2021 3.9461 16.4479 4.2468 15.6938 4.39715C14.4117 3.044 12.2247 2.96883 10.8672 4.2468C9.96226 5.07372 9.58517 6.27652 9.88683 7.47931C7.1719 7.32896 4.60781 6.05098 2.87327 3.9461C1.96829 5.52476 2.42077 7.4793 3.92907 8.45657C3.40117 8.45657 2.87326 8.30623 2.34535 8.00553C2.34535 8.00553 2.34535 8.00552 2.34535 8.0807C2.34535 9.73454 3.47658 11.0877 5.06029 11.3884C4.53239 11.5387 4.00448 11.5387 3.55199 11.4636C4.00448 12.8167 5.28654 13.794 6.71942 13.794C5.51279 14.7712 4.00449 15.2223 2.49619 15.2223C2.19453 15.2223 1.96829 15.2223 1.66663 15.1471C6.19151 18.0037 12.1493 16.7258 15.015 12.2153C15.9954 10.6366 16.5233 8.83245 16.5233 7.02826C16.5233 6.87791 16.5233 6.72755 16.5233 6.5772C17.2775 6.20133 17.8808 5.59994 18.3333 4.92337Z" fill="#00A2F5"/>
</g>
<defs>
<clipPath id="clip0_125_9183">
<rect width="20" height="20" fill="white"/>
</clipPath>
</defs>
</svg>
