<svg width="20" height="20" viewBox="0 0 20 20" fill="none" xmlns="http://www.w3.org/2000/svg">
<g clip-path="url(#clip0_5352_38099)">
<path d="M18.3334 4.92337C17.73 5.22406 17.0513 5.37441 16.3726 5.44959C17.0513 4.99854 17.5792 4.32197 17.8809 3.57022C17.2021 3.9461 16.448 4.2468 15.6938 4.39715C14.4118 3.044 12.2248 2.96883 10.8673 4.2468C9.96232 5.07372 9.58523 6.27652 9.88689 7.47931C7.17196 7.32896 4.60787 6.05098 2.87333 3.9461C1.96835 5.52476 2.42083 7.4793 3.92913 8.45657C3.40123 8.45657 2.87332 8.30623 2.34542 8.00553C2.34542 8.00553 2.34542 8.00552 2.34542 8.0807C2.34542 9.73454 3.47664 11.0877 5.06035 11.3884C4.53245 11.5387 4.00454 11.5387 3.55206 11.4636C4.00454 12.8167 5.2866 13.794 6.71949 13.794C5.51285 14.7712 4.00455 15.2223 2.49625 15.2223C2.19459 15.2223 1.96835 15.2223 1.66669 15.1471C6.19157 18.0037 12.1493 16.7258 15.0151 12.2153C15.9955 10.6366 16.5234 8.83245 16.5234 7.02826C16.5234 6.87791 16.5234 6.72755 16.5234 6.5772C17.2776 6.20133 17.8809 5.59994 18.3334 4.92337Z" fill="#00A2F5"/>
</g>
<defs>
<clipPath id="clip0_5352_38099">
<rect width="20" height="20" fill="white"/>
</clipPath>
</defs>
</svg>
