<svg width="24" height="24" viewBox="0 0 24 24" fill="none" xmlns="http://www.w3.org/2000/svg">
<path d="M22 5.90784C21.276 6.26868 20.4615 6.4491 19.6471 6.53931C20.4615 5.99805 21.095 5.18617 21.457 4.28407C20.6425 4.73512 19.7376 5.09596 18.8326 5.27638C17.2941 3.65261 14.6697 3.5624 13.0407 5.09596C11.9548 6.08827 11.5023 7.53162 11.8642 8.97497C8.60633 8.79456 5.52942 7.26098 3.44797 4.73512C2.362 6.62952 2.90498 8.97496 4.71493 10.1477C4.08145 10.1477 3.44796 9.96728 2.81447 9.60644C2.81447 9.60644 2.81447 9.60643 2.81447 9.69664C2.81447 11.6812 4.17195 13.305 6.0724 13.6659C5.43891 13.8463 4.80543 13.8463 4.26244 13.7561C4.80543 15.3798 6.3439 16.5526 8.06336 16.5526C6.61539 17.7253 4.80543 18.2665 2.99548 18.2665C2.63349 18.2665 2.36199 18.2665 2 18.1763C7.42986 21.6043 14.5792 20.0707 18.0181 14.6582C19.1946 12.7638 19.8281 10.5987 19.8281 8.43371C19.8281 8.25329 19.8281 8.07287 19.8281 7.89245C20.733 7.4414 21.457 6.71973 22 5.90784Z" fill="#00A2F5"/>
</svg>
