<svg width="16" height="16" viewBox="0 0 16 16" fill="none" xmlns="http://www.w3.org/2000/svg">
<path d="M14.6666 7.99967C14.6666 11.6824 11.6816 14.6663 7.99992 14.6663C4.31828 14.6663 1.33325 11.6824 1.33325 7.99967C1.33325 4.31911 4.31828 1.33301 7.99992 1.33301C11.6816 1.33301 14.6666 4.31911 14.6666 7.99967ZM7.99992 9.34376C7.31699 9.34376 6.76336 9.89739 6.76336 10.5803C6.76336 11.2633 7.31699 11.8169 7.99992 11.8169C8.68285 11.8169 9.23648 11.2633 9.23648 10.5803C9.23648 9.89739 8.68285 9.34376 7.99992 9.34376ZM6.82591 4.89898L7.02532 8.55489C7.03465 8.72596 7.1761 8.85989 7.34742 8.85989H8.65242C8.82374 8.85989 8.96519 8.72596 8.97452 8.55489L9.17392 4.89898C9.184 4.71419 9.03688 4.55881 8.85183 4.55881H7.14798C6.96293 4.55881 6.81583 4.71419 6.82591 4.89898Z" fill="#EE7735"/>
</svg>
