<svg width="24" height="24" viewBox="0 0 24 24" fill="none" xmlns="http://www.w3.org/2000/svg">
<path d="M21.8439 7.19059C21.6073 6.33412 20.9144 5.65882 20.0357 5.42824C18.4302 5 12.0082 5 12.0082 5C12.0082 5 5.58627 5 3.98078 5.41176C3.11889 5.64235 2.40909 6.33412 2.1725 7.19059C1.75 8.75529 1.75 12 1.75 12C1.75 12 1.75 15.2612 2.1725 16.8094C2.40909 17.6659 3.10199 18.3412 3.98078 18.5718C5.60317 19 12.0082 19 12.0082 19C12.0082 19 18.4302 19 20.0357 18.5882C20.9144 18.3576 21.6073 17.6824 21.8439 16.8259C22.2664 15.2612 22.2664 12.0165 22.2664 12.0165C22.2664 12.0165 22.2833 8.75529 21.8439 7.19059Z" fill="#FF0000"/>
<path d="M9.96332 14.9977L15.3037 12.0001L9.96332 9.00244V14.9977Z" fill="white"/>
</svg>
