<svg width="32" height="32" viewBox="0 0 32 32" fill="none" xmlns="http://www.w3.org/2000/svg">
<g clip-path="url(#clip0_5354_38006)">
<path d="M2.66666 10.0228C2.66666 5.96004 5.96019 2.6665 10.023 2.6665H21.977C26.0397 2.6665 29.3333 5.96004 29.3333 10.0228V21.9768C29.3333 26.0396 26.0397 29.3332 21.977 29.3332H10.023C5.96019 29.3332 2.66666 26.0396 2.66666 21.9768V10.0228Z" fill="url(#paint0_linear_5354_38006)"/>
<path d="M15.8007 6.31437C15.8398 6.09117 16.1602 6.09117 16.1993 6.31437L17.3685 12.988C17.5156 13.8273 18.1728 14.4845 19.012 14.6315L25.6857 15.8008C25.9088 15.8399 25.9088 16.1602 25.6857 16.1993L19.012 17.3686C18.1728 17.5156 17.5156 18.1728 17.3685 19.0121L16.1993 25.6857C16.1602 25.9089 15.8398 25.9089 15.8007 25.6857L14.6315 19.0121C14.4844 18.1728 13.8272 17.5156 12.9879 17.3686L6.31431 16.1993C6.09111 16.1602 6.09111 15.8399 6.31431 15.8008L12.9879 14.6315C13.8272 14.4845 14.4844 13.8273 14.6315 12.988L15.8007 6.31437Z" fill="white"/>
</g>
<defs>
<linearGradient id="paint0_linear_5354_38006" x1="28.1015" y1="-9.09263" x2="2.66665" y2="40.4096" gradientUnits="userSpaceOnUse">
<stop offset="0.205836"/>
<stop offset="0.369792" stop-color="#541E7E"/>
<stop offset="0.47142" stop-color="#3F51D1"/>
<stop offset="0.609119" stop-color="#73AFE3"/>
<stop offset="0.801091" stop-color="#90D7FF"/>
</linearGradient>
<clipPath id="clip0_5354_38006">
<rect width="32" height="32" fill="white"/>
</clipPath>
</defs>
</svg>
