<svg width="32" height="32" viewBox="0 0 32 32" fill="none" xmlns="http://www.w3.org/2000/svg">
<g clip-path="url(#clip0_2673_19364)">
<circle cx="16" cy="16.0002" r="14.6667" fill="#FF8C00"/>
<path d="M8.57172 13.4114C8.57172 9.29954 11.9163 5.97461 16.0086 5.97461C20.1008 5.97461 23.4454 9.29954 23.4454 13.4114C23.4454 17.3266 20.4156 20.5335 16.5791 20.8286C16.5791 20.8286 15.6544 20.8876 15.4183 20.927C14.3559 21.0647 13.4509 21.8713 13.2148 22.9731C13.2148 22.9731 12.9 24.4093 12.8804 24.5274C12.7623 25.0782 12.2114 25.4324 11.6606 25.3143C11.1097 25.1963 10.7555 24.6454 10.8736 24.0945C10.8933 23.9765 13.2148 13.1557 13.2148 13.1557C13.3329 12.6048 13.8837 12.2507 14.4346 12.3687C14.9855 12.4868 15.3396 13.0376 15.2216 13.5885L14.2576 18.0349L14.0805 18.9005C14.0608 18.9596 14.1198 19.0186 14.1789 18.9989C14.2442 18.9896 14.3229 18.9758 14.4149 18.9597C14.5167 18.9419 14.6348 18.9212 14.7691 18.9005C15.2806 18.8218 16.3233 18.7628 16.3233 18.7628C19.1367 18.6054 21.3796 16.2642 21.3796 13.4114C21.3796 10.3619 18.822 7.90268 15.7331 8.06007C12.9591 8.19779 10.7162 10.48 10.6375 13.2541C10.6178 13.9033 10.7162 14.5525 10.9326 15.1624C11.1097 15.7133 10.8146 16.3035 10.2834 16.4806C9.73249 16.6577 9.14227 16.3626 8.9652 15.8314C8.70944 15.0444 8.57172 14.2378 8.57172 13.4114Z" fill="white"/>
<path d="M15.0642 24.0551C15.202 23.3665 15.8709 22.9534 16.5398 23.0911C17.2284 23.2288 17.6416 23.878 17.5038 24.5666C17.3661 25.2552 16.6972 25.6684 16.0283 25.5307C15.3397 25.3929 14.9265 24.724 15.0642 24.0551Z" fill="white"/>
</g>
<defs>
<clipPath id="clip0_2673_19364">
<rect width="32" height="32" fill="white"/>
</clipPath>
</defs>
</svg>
