<svg width="24" height="24" viewBox="0 0 24 24" fill="none" xmlns="http://www.w3.org/2000/svg">
<path d="M12 23C18.0751 23 23 18.0751 23 12C23 5.92487 18.0751 1 12 1C5.92487 1 1 5.92487 1 12C1 18.0751 5.92487 23 12 23Z" fill="white"/>
<path d="M9.84124 18.6579C9.94202 18.6579 10.0237 18.5762 10.0237 18.4755C10.0237 18.3747 9.94202 18.293 9.84124 18.293C9.74045 18.293 9.65875 18.3747 9.65875 18.4755C9.65875 18.5762 9.74045 18.6579 9.84124 18.6579Z" fill="black"/>
<path d="M9.66823 18.2495C9.76902 18.2495 9.85072 18.1678 9.85072 18.067C9.85072 17.9662 9.76902 17.8845 9.66823 17.8845C9.56745 17.8845 9.48575 17.9662 9.48575 18.067C9.48575 18.1678 9.56745 18.2495 9.66823 18.2495Z" fill="black"/>
<path d="M9.52883 17.8315C9.62961 17.8315 9.71131 17.7498 9.71131 17.649C9.71131 17.5483 9.62961 17.4666 9.52883 17.4666C9.42804 17.4666 9.34634 17.5483 9.34634 17.649C9.34634 17.7498 9.42804 17.8315 9.52883 17.8315Z" fill="black"/>
<path d="M9.37505 17.4184C9.47583 17.4184 9.55753 17.3367 9.55753 17.236C9.55753 17.1352 9.47583 17.0535 9.37505 17.0535C9.27427 17.0535 9.19257 17.1352 9.19257 17.236C9.19257 17.3367 9.27427 17.4184 9.37505 17.4184Z" fill="black"/>
<path d="M9.2741 16.9956C9.37488 16.9956 9.45658 16.9139 9.45658 16.8131C9.45658 16.7123 9.37488 16.6306 9.2741 16.6306C9.17331 16.6306 9.09161 16.7123 9.09161 16.8131C9.09161 16.9139 9.17331 16.9956 9.2741 16.9956Z" fill="black"/>
<path d="M9.13976 16.5727C9.24054 16.5727 9.32224 16.491 9.32224 16.3902C9.32224 16.2895 9.24054 16.2078 9.13976 16.2078C9.03898 16.2078 8.95728 16.2895 8.95728 16.3902C8.95728 16.491 9.03898 16.5727 9.13976 16.5727Z" fill="black"/>
<path d="M9.02907 16.1643C9.12986 16.1643 9.21156 16.0826 9.21156 15.9818C9.21156 15.881 9.12986 15.7993 9.02907 15.7993C8.92829 15.7993 8.84659 15.881 8.84659 15.9818C8.84659 16.0826 8.92829 16.1643 9.02907 16.1643Z" fill="black"/>
<path d="M8.92833 15.7366C9.02912 15.7366 9.11082 15.6548 9.11082 15.5541C9.11082 15.4533 9.02912 15.3716 8.92833 15.3716C8.82755 15.3716 8.74585 15.4533 8.74585 15.5541C8.74585 15.6548 8.82755 15.7366 8.92833 15.7366Z" fill="black"/>
<path d="M8.82735 15.3428C8.92813 15.3428 9.00984 15.2611 9.00984 15.1603C9.00984 15.0595 8.92813 14.9778 8.82735 14.9778C8.72657 14.9778 8.64487 15.0595 8.64487 15.1603C8.64487 15.2611 8.72657 15.3428 8.82735 15.3428Z" fill="black"/>
<path d="M8.70256 14.9533C8.80335 14.9533 8.88505 14.8716 8.88505 14.7709C8.88505 14.6701 8.80335 14.5884 8.70256 14.5884C8.60178 14.5884 8.52008 14.6701 8.52008 14.7709C8.52008 14.8716 8.60178 14.9533 8.70256 14.9533Z" fill="black"/>
<path d="M8.5006 14.5979C8.60138 14.5979 8.68308 14.5162 8.68308 14.4154C8.68308 14.3146 8.60138 14.2329 8.5006 14.2329C8.39982 14.2329 8.31812 14.3146 8.31812 14.4154C8.31812 14.5162 8.39982 14.5979 8.5006 14.5979Z" fill="black"/>
<path d="M8.34221 14.2041C8.443 14.2041 8.5247 14.1224 8.5247 14.0216C8.5247 13.9208 8.443 13.8391 8.34221 13.8391C8.24143 13.8391 8.15973 13.9208 8.15973 14.0216C8.15973 14.1224 8.24143 14.2041 8.34221 14.2041Z" fill="black"/>
<path d="M8.15001 13.8196C8.2508 13.8196 8.3325 13.7379 8.3325 13.6371C8.3325 13.5363 8.2508 13.4546 8.15001 13.4546C8.04923 13.4546 7.96753 13.5363 7.96753 13.6371C7.96753 13.7379 8.04923 13.8196 8.15001 13.8196Z" fill="black"/>
<path d="M10.1921 18.4038C10.3328 18.4038 10.4468 18.2897 10.4468 18.149C10.4468 18.0083 10.3328 17.8943 10.1921 17.8943C10.0514 17.8943 9.93735 18.0083 9.93735 18.149C9.93735 18.2897 10.0514 18.4038 10.1921 18.4038Z" fill="black"/>
<path d="M9.99497 17.8896C10.1357 17.8896 10.2497 17.7756 10.2497 17.6349C10.2497 17.4942 10.1357 17.3801 9.99497 17.3801C9.85428 17.3801 9.74023 17.4942 9.74023 17.6349C9.74023 17.7756 9.85428 17.8896 9.99497 17.8896Z" fill="black"/>
<path d="M9.82685 17.3608C9.96754 17.3608 10.0816 17.2467 10.0816 17.1061C10.0816 16.9654 9.96754 16.8513 9.82685 16.8513C9.68616 16.8513 9.57211 16.9654 9.57211 17.1061C9.57211 17.2467 9.68616 17.3608 9.82685 17.3608Z" fill="black"/>
<path d="M9.6731 16.823C9.81379 16.823 9.92784 16.7089 9.92784 16.5682C9.92784 16.4275 9.81379 16.3135 9.6731 16.3135C9.53242 16.3135 9.41837 16.4275 9.41837 16.5682C9.41837 16.7089 9.53242 16.823 9.6731 16.823Z" fill="black"/>
<path d="M9.49061 16.3039C9.63129 16.3039 9.74534 16.1899 9.74534 16.0492C9.74534 15.9085 9.63129 15.7944 9.49061 15.7944C9.34992 15.7944 9.23587 15.9085 9.23587 16.0492C9.23587 16.1899 9.34992 16.3039 9.49061 16.3039Z" fill="black"/>
<path d="M9.38477 15.7756C9.52546 15.7756 9.63951 15.6615 9.63951 15.5209C9.63951 15.3802 9.52546 15.2661 9.38477 15.2661C9.24408 15.2661 9.13004 15.3802 9.13004 15.5209C9.13004 15.6615 9.24408 15.7756 9.38477 15.7756Z" fill="black"/>
<path d="M9.25996 15.2517C9.40064 15.2517 9.51469 15.1376 9.51469 14.9969C9.51469 14.8562 9.40064 14.7422 9.25996 14.7422C9.11927 14.7422 9.00522 14.8562 9.00522 14.9969C9.00522 15.1376 9.11927 15.2517 9.25996 15.2517Z" fill="black"/>
<path d="M9.07749 14.7329C9.21818 14.7329 9.33223 14.6188 9.33223 14.4781C9.33223 14.3374 9.21818 14.2234 9.07749 14.2234C8.9368 14.2234 8.82275 14.3374 8.82275 14.4781C8.82275 14.6188 8.9368 14.7329 9.07749 14.7329Z" fill="black"/>
<path d="M8.87553 14.2282C9.01621 14.2282 9.13026 14.1142 9.13026 13.9735C9.13026 13.8328 9.01621 13.7188 8.87553 13.7188C8.73484 13.7188 8.62079 13.8328 8.62079 13.9735C8.62079 14.1142 8.73484 14.2282 8.87553 14.2282Z" fill="black"/>
<path d="M8.69791 13.7192C8.8386 13.7192 8.95265 13.6051 8.95265 13.4645C8.95265 13.3238 8.8386 13.2097 8.69791 13.2097C8.55723 13.2097 8.44318 13.3238 8.44318 13.4645C8.44318 13.6051 8.55723 13.7192 8.69791 13.7192Z" fill="black"/>
<path d="M8.41447 13.2482C8.55515 13.2482 8.6692 13.1342 8.6692 12.9935C8.6692 12.8528 8.55515 12.7388 8.41447 12.7388C8.27378 12.7388 8.15973 12.8528 8.15973 12.9935C8.15973 13.1342 8.27378 13.2482 8.41447 13.2482Z" fill="black"/>
<path d="M8.11643 12.7968C8.25712 12.7968 8.37117 12.6828 8.37117 12.5421C8.37117 12.4014 8.25712 12.2874 8.11643 12.2874C7.97574 12.2874 7.86169 12.4014 7.86169 12.5421C7.86169 12.6828 7.97574 12.7968 8.11643 12.7968Z" fill="black"/>
<path d="M7.86655 12.3112C8.00724 12.3112 8.12129 12.1972 8.12129 12.0565C8.12129 11.9158 8.00724 11.8018 7.86655 11.8018C7.72587 11.8018 7.61182 11.9158 7.61182 12.0565C7.61182 12.1972 7.72587 12.3112 7.86655 12.3112Z" fill="black"/>
<path d="M7.6551 11.8115C7.79578 11.8115 7.90983 11.6974 7.90983 11.5567C7.90983 11.4161 7.79578 11.302 7.6551 11.302C7.51441 11.302 7.40036 11.4161 7.40036 11.5567C7.40036 11.6974 7.51441 11.8115 7.6551 11.8115Z" fill="black"/>
<path d="M7.44392 11.312C7.5846 11.312 7.69865 11.1979 7.69865 11.0572C7.69865 10.9165 7.5846 10.8025 7.44392 10.8025C7.30323 10.8025 7.18918 10.9165 7.18918 11.0572C7.18918 11.1979 7.30323 11.312 7.44392 11.312Z" fill="black"/>
<path d="M7.34782 10.769C7.4885 10.769 7.60255 10.6549 7.60255 10.5143C7.60255 10.3736 7.4885 10.2595 7.34782 10.2595C7.20713 10.2595 7.09308 10.3736 7.09308 10.5143C7.09308 10.6549 7.20713 10.769 7.34782 10.769Z" fill="black"/>
<path d="M7.20841 10.2309C7.3491 10.2309 7.46315 10.1169 7.46315 9.97617C7.46315 9.83549 7.3491 9.72144 7.20841 9.72144C7.06772 9.72144 6.95367 9.83549 6.95367 9.97617C6.95367 10.1169 7.06772 10.2309 7.20841 10.2309Z" fill="black"/>
<path d="M7.12665 8.01607C7.26734 8.01607 7.38139 7.90202 7.38139 7.76133C7.38139 7.62064 7.26734 7.50659 7.12665 7.50659C6.98597 7.50659 6.87192 7.62064 6.87192 7.76133C6.87192 7.90202 6.98597 8.01607 7.12665 8.01607Z" fill="black"/>
<path d="M7.141 7.45405C7.28169 7.45405 7.39573 7.34 7.39573 7.19932C7.39573 7.05863 7.28169 6.94458 7.141 6.94458C7.00031 6.94458 6.88626 7.05863 6.88626 7.19932C6.88626 7.34 7.00031 7.45405 7.141 7.45405Z" fill="black"/>
<path d="M11.4747 13.5987C11.5331 13.5987 11.5803 13.5514 11.5803 13.4931C11.5803 13.4347 11.5331 13.3875 11.4747 13.3875C11.4164 13.3875 11.3691 13.4347 11.3691 13.4931C11.3691 13.5514 11.4164 13.5987 11.4747 13.5987Z" fill="black"/>
<path d="M11.5852 13.0171C11.6435 13.0171 11.6908 12.9698 11.6908 12.9115C11.6908 12.8532 11.6435 12.8059 11.5852 12.8059C11.5269 12.8059 11.4796 12.8532 11.4796 12.9115C11.4796 12.9698 11.5269 13.0171 11.5852 13.0171Z" fill="black"/>
<path d="M11.4507 11.2154C11.509 11.2154 11.5563 11.1681 11.5563 11.1098C11.5563 11.0514 11.509 11.0042 11.4507 11.0042C11.3923 11.0042 11.3451 11.0514 11.3451 11.1098C11.3451 11.1681 11.3923 11.2154 11.4507 11.2154Z" fill="black"/>
<path d="M12.2293 11.177C12.2876 11.177 12.3349 11.1297 12.3349 11.0714C12.3349 11.0131 12.2876 10.9658 12.2293 10.9658C12.1709 10.9658 12.1237 11.0131 12.1237 11.0714C12.1237 11.1297 12.1709 11.177 12.2293 11.177Z" fill="black"/>
<path d="M12.5174 11.1485C12.5757 11.1485 12.623 11.1012 12.623 11.0429C12.623 10.9845 12.5757 10.9373 12.5174 10.9373C12.4591 10.9373 12.4118 10.9845 12.4118 11.0429C12.4118 11.1012 12.4591 11.1485 12.5174 11.1485Z" fill="black"/>
<path d="M12.7528 11.2827C12.8112 11.2827 12.8584 11.2355 12.8584 11.1771C12.8584 11.1188 12.8112 11.0715 12.7528 11.0715C12.6945 11.0715 12.6472 11.1188 12.6472 11.1771C12.6472 11.2355 12.6945 11.2827 12.7528 11.2827Z" fill="black"/>
<path d="M13.0366 9.83181C13.0949 9.83181 13.1422 9.78453 13.1422 9.72621C13.1422 9.66788 13.0949 9.62061 13.0366 9.62061C12.9782 9.62061 12.931 9.66788 12.931 9.72621C12.931 9.78453 12.9782 9.83181 13.0366 9.83181Z" fill="black"/>
<path d="M13.5697 9.46657C13.628 9.46657 13.6753 9.41929 13.6753 9.36097C13.6753 9.30265 13.628 9.25537 13.5697 9.25537C13.5113 9.25537 13.4641 9.30265 13.4641 9.36097C13.4641 9.41929 13.5113 9.46657 13.5697 9.46657Z" fill="black"/>
<path d="M11.6455 7.40554C11.7038 7.40554 11.7511 7.35826 11.7511 7.29994C11.7511 7.24161 11.7038 7.19434 11.6455 7.19434C11.5871 7.19434 11.5399 7.24161 11.5399 7.29994C11.5399 7.35826 11.5871 7.40554 11.6455 7.40554Z" fill="black"/>
<path d="M11.0086 10.7349C11.0669 10.7349 11.1142 10.6876 11.1142 10.6293C11.1142 10.571 11.0669 10.5237 11.0086 10.5237C10.9503 10.5237 10.903 10.571 10.903 10.6293C10.903 10.6876 10.9503 10.7349 11.0086 10.7349Z" fill="black"/>
<path d="M11.5852 13.8533C11.6435 13.8533 11.6908 13.806 11.6908 13.7477C11.6908 13.6894 11.6435 13.6421 11.5852 13.6421C11.5269 13.6421 11.4796 13.6894 11.4796 13.7477C11.4796 13.806 11.5269 13.8533 11.5852 13.8533Z" fill="black"/>
<path d="M11.5804 14.1416C11.6387 14.1416 11.686 14.0943 11.686 14.036C11.686 13.9777 11.6387 13.9304 11.5804 13.9304C11.522 13.9304 11.4748 13.9777 11.4748 14.036C11.4748 14.0943 11.522 14.1416 11.5804 14.1416Z" fill="black"/>
<path d="M11.8636 14.8814C11.9219 14.8814 11.9692 14.8341 11.9692 14.7758C11.9692 14.7174 11.9219 14.6702 11.8636 14.6702C11.8053 14.6702 11.758 14.7174 11.758 14.7758C11.758 14.8341 11.8053 14.8814 11.8636 14.8814Z" fill="black"/>
<path d="M11.941 15.1458C11.9993 15.1458 12.0466 15.0985 12.0466 15.0402C12.0466 14.9818 11.9993 14.9346 11.941 14.9346C11.8826 14.9346 11.8354 14.9818 11.8354 15.0402C11.8354 15.0985 11.8826 15.1458 11.941 15.1458Z" fill="black"/>
<path d="M11.758 14.6275C11.8163 14.6275 11.8636 14.5802 11.8636 14.5219C11.8636 14.4635 11.8163 14.4163 11.758 14.4163C11.6997 14.4163 11.6524 14.4635 11.6524 14.5219C11.6524 14.5802 11.6997 14.6275 11.758 14.6275Z" fill="black"/>
<path d="M11.751 14.3623C11.8094 14.3623 11.8566 14.315 11.8566 14.2567C11.8566 14.1984 11.8094 14.1511 11.751 14.1511C11.6927 14.1511 11.6454 14.1984 11.6454 14.2567C11.6454 14.315 11.6927 14.3623 11.751 14.3623Z" fill="black"/>
<path d="M11.3836 14.0166C11.4419 14.0166 11.4892 13.9693 11.4892 13.911C11.4892 13.8527 11.4419 13.8054 11.3836 13.8054C11.3252 13.8054 11.278 13.8527 11.278 13.911C11.278 13.9693 11.3252 14.0166 11.3836 14.0166Z" fill="black"/>
<path d="M7.08335 9.68306C7.22404 9.68306 7.33809 9.56901 7.33809 9.42832C7.33809 9.28763 7.22404 9.17358 7.08335 9.17358C6.94266 9.17358 6.82861 9.28763 6.82861 9.42832C6.82861 9.56901 6.94266 9.68306 7.08335 9.68306Z" fill="black"/>
<path d="M7.04514 8.56856C7.18583 8.56856 7.29988 8.45451 7.29988 8.31382C7.29988 8.17313 7.18583 8.05908 7.04514 8.05908C6.90445 8.05908 6.79041 8.17313 6.79041 8.31382C6.79041 8.45451 6.90445 8.56856 7.04514 8.56856Z" fill="black"/>
<path d="M8.30863 9.22676C8.44932 9.22676 8.56337 9.11271 8.56337 8.97202C8.56337 8.83133 8.44932 8.71729 8.30863 8.71729C8.16794 8.71729 8.05389 8.83133 8.05389 8.97202C8.05389 9.11271 8.16794 9.22676 8.30863 9.22676Z" fill="black"/>
<path d="M8.33756 8.67891C8.47825 8.67891 8.5923 8.56486 8.5923 8.42417C8.5923 8.28348 8.47825 8.16943 8.33756 8.16943C8.19687 8.16943 8.08282 8.28348 8.08282 8.42417C8.08282 8.56486 8.19687 8.67891 8.33756 8.67891Z" fill="black"/>
<path d="M8.42881 8.12642C8.5695 8.12642 8.68355 8.01237 8.68355 7.87168C8.68355 7.73099 8.5695 7.61694 8.42881 7.61694C8.28812 7.61694 8.17407 7.73099 8.17407 7.87168C8.17407 8.01237 8.28812 8.12642 8.42881 8.12642Z" fill="black"/>
<path d="M8.43833 7.58369C8.57902 7.58369 8.69307 7.46964 8.69307 7.32896C8.69307 7.18827 8.57902 7.07422 8.43833 7.07422C8.29764 7.07422 8.18359 7.18827 8.18359 7.32896C8.18359 7.46964 8.29764 7.58369 8.43833 7.58369Z" fill="black"/>
<path d="M8.46726 7.02632C8.60795 7.02632 8.722 6.91227 8.722 6.77158C8.722 6.6309 8.60795 6.51685 8.46726 6.51685C8.32657 6.51685 8.21252 6.6309 8.21252 6.77158C8.21252 6.91227 8.32657 7.02632 8.46726 7.02632Z" fill="black"/>
<path d="M8.41447 9.76973C8.55515 9.76973 8.6692 9.65568 8.6692 9.51499C8.6692 9.3743 8.55515 9.26025 8.41447 9.26025C8.27378 9.26025 8.15973 9.3743 8.15973 9.51499C8.15973 9.65568 8.27378 9.76973 8.41447 9.76973Z" fill="black"/>
<path d="M8.68818 10.8266C8.82887 10.8266 8.94291 10.7126 8.94291 10.5719C8.94291 10.4312 8.82887 10.3171 8.68818 10.3171C8.54749 10.3171 8.43344 10.4312 8.43344 10.5719C8.43344 10.7126 8.54749 10.8266 8.68818 10.8266Z" fill="black"/>
<path d="M8.60181 10.2839C8.7425 10.2839 8.85655 10.1698 8.85655 10.0292C8.85655 9.88846 8.7425 9.77441 8.60181 9.77441C8.46113 9.77441 8.34708 9.88846 8.34708 10.0292C8.34708 10.1698 8.46113 10.2839 8.60181 10.2839Z" fill="black"/>
<path d="M8.87067 11.3408C9.01136 11.3408 9.12541 11.2267 9.12541 11.086C9.12541 10.9453 9.01136 10.8313 8.87067 10.8313C8.72999 10.8313 8.61594 10.9453 8.61594 11.086C8.61594 11.2267 8.72999 11.3408 8.87067 11.3408Z" fill="black"/>
<path d="M9.11594 11.8261C9.25663 11.8261 9.37068 11.7121 9.37068 11.5714C9.37068 11.4307 9.25663 11.3167 9.11594 11.3167C8.97526 11.3167 8.86121 11.4307 8.86121 11.5714C8.86121 11.7121 8.97526 11.8261 9.11594 11.8261Z" fill="black"/>
<path d="M9.40885 12.2827C9.54954 12.2827 9.66359 12.1686 9.66359 12.0279C9.66359 11.8872 9.54954 11.7732 9.40885 11.7732C9.26816 11.7732 9.15411 11.8872 9.15411 12.0279C9.15411 12.1686 9.26816 12.2827 9.40885 12.2827Z" fill="black"/>
<path d="M9.68769 12.7436C9.82838 12.7436 9.94243 12.6296 9.94243 12.4889C9.94243 12.3482 9.82838 12.2341 9.68769 12.2341C9.547 12.2341 9.43295 12.3482 9.43295 12.4889C9.43295 12.6296 9.547 12.7436 9.68769 12.7436Z" fill="black"/>
<path d="M9.97575 13.2243C10.1164 13.2243 10.2305 13.1103 10.2305 12.9696C10.2305 12.8289 10.1164 12.7148 9.97575 12.7148C9.83506 12.7148 9.72101 12.8289 9.72101 12.9696C9.72101 13.1103 9.83506 13.2243 9.97575 13.2243Z" fill="black"/>
<path d="M10.2162 13.7287C10.3568 13.7287 10.4709 13.6147 10.4709 13.474C10.4709 13.3333 10.3568 13.2192 10.2162 13.2192C10.0755 13.2192 9.96143 13.3333 9.96143 13.474C9.96143 13.6147 10.0755 13.7287 10.2162 13.7287Z" fill="black"/>
<path d="M10.4035 14.2475C10.5442 14.2475 10.6582 14.1335 10.6582 13.9928C10.6582 13.8521 10.5442 13.738 10.4035 13.738C10.2628 13.738 10.1488 13.8521 10.1488 13.9928C10.1488 14.1335 10.2628 14.2475 10.4035 14.2475Z" fill="black"/>
<path d="M10.5573 14.781C10.6979 14.781 10.812 14.6669 10.812 14.5262C10.812 14.3855 10.6979 14.2715 10.5573 14.2715C10.4166 14.2715 10.3025 14.3855 10.3025 14.5262C10.3025 14.6669 10.4166 14.781 10.5573 14.781Z" fill="black"/>
<path d="M9.74534 9.48628C9.88602 9.48628 10.0001 9.37223 10.0001 9.23154C10.0001 9.09086 9.88602 8.97681 9.74534 8.97681C9.60465 8.97681 9.4906 9.09086 9.4906 9.23154C9.4906 9.37223 9.60465 9.48628 9.74534 9.48628Z" fill="black"/>
<path d="M9.64924 8.93379C9.78992 8.93379 9.90397 8.81974 9.90397 8.67905C9.90397 8.53837 9.78992 8.42432 9.64924 8.42432C9.50855 8.42432 9.3945 8.53837 9.3945 8.67905C9.3945 8.81974 9.50855 8.93379 9.64924 8.93379Z" fill="black"/>
<path d="M9.88453 10.0434C10.0252 10.0434 10.1393 9.92936 10.1393 9.78867C10.1393 9.64799 10.0252 9.53394 9.88453 9.53394C9.74384 9.53394 9.62979 9.64799 9.62979 9.78867C9.62979 9.92936 9.74384 10.0434 9.88453 10.0434Z" fill="black"/>
<path d="M9.95191 10.5866C10.0926 10.5866 10.2066 10.4726 10.2066 10.3319C10.2066 10.1912 10.0926 10.0771 9.95191 10.0771C9.81122 10.0771 9.69717 10.1912 9.69717 10.3319C9.69717 10.4726 9.81122 10.5866 9.95191 10.5866Z" fill="black"/>
<path d="M10.2113 11.1342C10.352 11.1342 10.466 11.0202 10.466 10.8795C10.466 10.7388 10.352 10.6248 10.2113 10.6248C10.0706 10.6248 9.95654 10.7388 9.95654 10.8795C9.95654 11.0202 10.0706 11.1342 10.2113 11.1342Z" fill="black"/>
<path d="M10.5573 11.6049C10.6979 11.6049 10.812 11.4909 10.812 11.3502C10.812 11.2095 10.6979 11.0955 10.5573 11.0955C10.4166 11.0955 10.3025 11.2095 10.3025 11.3502C10.3025 11.4909 10.4166 11.6049 10.5573 11.6049Z" fill="black"/>
<path d="M10.8887 12.0422C11.0294 12.0422 11.1434 11.9281 11.1434 11.7875C11.1434 11.6468 11.0294 11.5327 10.8887 11.5327C10.748 11.5327 10.6339 11.6468 10.6339 11.7875C10.6339 11.9281 10.748 12.0422 10.8887 12.0422Z" fill="black"/>
<path d="M11.1001 12.5756C11.2408 12.5756 11.3548 12.4616 11.3548 12.3209C11.3548 12.1802 11.2408 12.0662 11.1001 12.0662C10.9594 12.0662 10.8453 12.1802 10.8453 12.3209C10.8453 12.4616 10.9594 12.5756 11.1001 12.5756Z" fill="black"/>
<path d="M10.6772 15.3334C10.8179 15.3334 10.932 15.2194 10.932 15.0787C10.932 14.938 10.8179 14.824 10.6772 14.824C10.5365 14.824 10.4225 14.938 10.4225 15.0787C10.4225 15.2194 10.5365 15.3334 10.6772 15.3334Z" fill="black"/>
<path d="M10.8359 15.8574C10.9765 15.8574 11.0906 15.7433 11.0906 15.6026C11.0906 15.4619 10.9765 15.3479 10.8359 15.3479C10.6952 15.3479 10.5811 15.4619 10.5811 15.6026C10.5811 15.7433 10.6952 15.8574 10.8359 15.8574Z" fill="black"/>
<path d="M10.9512 16.3952C11.0919 16.3952 11.2059 16.2812 11.2059 16.1405C11.2059 15.9998 11.0919 15.8857 10.9512 15.8857C10.8105 15.8857 10.6965 15.9998 10.6965 16.1405C10.6965 16.2812 10.8105 16.3952 10.9512 16.3952Z" fill="black"/>
<path d="M11.0665 16.9333C11.2072 16.9333 11.3212 16.8193 11.3212 16.6786C11.3212 16.5379 11.2072 16.4238 11.0665 16.4238C10.9258 16.4238 10.8117 16.5379 10.8117 16.6786C10.8117 16.8193 10.9258 16.9333 11.0665 16.9333Z" fill="black"/>
<path d="M11.2636 17.4475C11.4043 17.4475 11.5183 17.3334 11.5183 17.1927C11.5183 17.052 11.4043 16.938 11.2636 16.938C11.1229 16.938 11.0089 17.052 11.0089 17.1927C11.0089 17.3334 11.1229 17.4475 11.2636 17.4475Z" fill="black"/>
<path d="M11.4894 17.9472C11.6301 17.9472 11.7441 17.8332 11.7441 17.6925C11.7441 17.5518 11.6301 17.4377 11.4894 17.4377C11.3487 17.4377 11.2346 17.5518 11.2346 17.6925C11.2346 17.8332 11.3487 17.9472 11.4894 17.9472Z" fill="black"/>
<path d="M7.03541 9.13057C7.17609 9.13057 7.29014 9.01652 7.29014 8.87583C7.29014 8.73514 7.17609 8.62109 7.03541 8.62109C6.89472 8.62109 6.78067 8.73514 6.78067 8.87583C6.78067 9.01652 6.89472 9.13057 7.03541 9.13057Z" fill="black"/>
<path d="M7.98165 13.4353C8.08243 13.4353 8.16413 13.3536 8.16413 13.2528C8.16413 13.152 8.08243 13.0703 7.98165 13.0703C7.88086 13.0703 7.79916 13.152 7.79916 13.2528C7.79916 13.3536 7.88086 13.4353 7.98165 13.4353Z" fill="black"/>
<path d="M7.79915 13.0605C7.89994 13.0605 7.98164 12.9788 7.98164 12.878C7.98164 12.7773 7.89994 12.6956 7.79915 12.6956C7.69837 12.6956 7.61667 12.7773 7.61667 12.878C7.61667 12.9788 7.69837 13.0605 7.79915 13.0605Z" fill="black"/>
<path d="M7.57824 12.7002C7.67902 12.7002 7.76072 12.6185 7.76072 12.5177C7.76072 12.4169 7.67902 12.3352 7.57824 12.3352C7.47745 12.3352 7.39575 12.4169 7.39575 12.5177C7.39575 12.6185 7.47745 12.7002 7.57824 12.7002Z" fill="black"/>
<path d="M7.41472 12.3205C7.51551 12.3205 7.59721 12.2388 7.59721 12.1381C7.59721 12.0373 7.51551 11.9556 7.41472 11.9556C7.31394 11.9556 7.23224 12.0373 7.23224 12.1381C7.23224 12.2388 7.31394 12.3205 7.41472 12.3205Z" fill="black"/>
<path d="M7.25634 11.9746C7.35712 11.9746 7.43882 11.8929 7.43882 11.7921C7.43882 11.6913 7.35712 11.6096 7.25634 11.6096C7.15555 11.6096 7.07385 11.6913 7.07385 11.7921C7.07385 11.8929 7.15555 11.9746 7.25634 11.9746Z" fill="black"/>
<path d="M11.0568 11.3308C11.1575 11.3308 11.2392 11.2491 11.2392 11.1483C11.2392 11.0475 11.1575 10.9658 11.0568 10.9658C10.956 10.9658 10.8743 11.0475 10.8743 11.1483C10.8743 11.2491 10.956 11.3308 11.0568 11.3308Z" fill="black"/>
<path d="M11.3452 10.9372C11.446 10.9372 11.5277 10.8555 11.5277 10.7547C11.5277 10.654 11.446 10.5723 11.3452 10.5723C11.2444 10.5723 11.1627 10.654 11.1627 10.7547C11.1627 10.8555 11.2444 10.9372 11.3452 10.9372Z" fill="black"/>
<path d="M10.9269 8.17893C11.0277 8.17893 11.1094 8.09723 11.1094 7.99645C11.1094 7.89567 11.0277 7.81396 10.9269 7.81396C10.8261 7.81396 10.7444 7.89567 10.7444 7.99645C10.7444 8.09723 10.8261 8.17893 10.9269 8.17893Z" fill="black"/>
<path d="M10.7349 11.0041C10.8357 11.0041 10.9174 10.9224 10.9174 10.8216C10.9174 10.7209 10.8357 10.6392 10.7349 10.6392C10.6341 10.6392 10.5524 10.7209 10.5524 10.8216C10.5524 10.9224 10.6341 11.0041 10.7349 11.0041Z" fill="black"/>
<path d="M10.605 10.6101C10.7058 10.6101 10.7875 10.5284 10.7875 10.4276C10.7875 10.3268 10.7058 10.2451 10.605 10.2451C10.5042 10.2451 10.4225 10.3268 10.4225 10.4276C10.4225 10.5284 10.5042 10.6101 10.605 10.6101Z" fill="black"/>
<path d="M10.4322 10.2402C10.533 10.2402 10.6147 10.1585 10.6147 10.0577C10.6147 9.95695 10.533 9.87524 10.4322 9.87524C10.3314 9.87524 10.2497 9.95695 10.2497 10.0577C10.2497 10.1585 10.3314 10.2402 10.4322 10.2402Z" fill="black"/>
<path d="M10.3361 9.82688C10.4369 9.82688 10.5186 9.74518 10.5186 9.6444C10.5186 9.54362 10.4369 9.46191 10.3361 9.46191C10.2354 9.46191 10.1537 9.54362 10.1537 9.6444C10.1537 9.74518 10.2354 9.82688 10.3361 9.82688Z" fill="black"/>
<path d="M10.2254 9.41868C10.3262 9.41868 10.4079 9.33698 10.4079 9.2362C10.4079 9.13541 10.3262 9.05371 10.2254 9.05371C10.1246 9.05371 10.0429 9.13541 10.0429 9.2362C10.0429 9.33698 10.1246 9.41868 10.2254 9.41868Z" fill="black"/>
<path d="M7.1072 11.5808C7.20798 11.5808 7.28968 11.4991 7.28968 11.3983C7.28968 11.2975 7.20798 11.2158 7.1072 11.2158C7.00641 11.2158 6.92471 11.2975 6.92471 11.3983C6.92471 11.4991 7.00641 11.5808 7.1072 11.5808Z" fill="black"/>
<path d="M6.97753 11.1914C7.07831 11.1914 7.16001 11.1097 7.16001 11.0089C7.16001 10.9081 7.07831 10.8264 6.97753 10.8264C6.87674 10.8264 6.79504 10.9081 6.79504 11.0089C6.79504 11.1097 6.87674 11.1914 6.97753 11.1914Z" fill="black"/>
<path d="M6.88628 10.7881C6.98706 10.7881 7.06876 10.7064 7.06876 10.6056C7.06876 10.5048 6.98706 10.4231 6.88628 10.4231C6.7855 10.4231 6.7038 10.5048 6.7038 10.6056C6.7038 10.7064 6.7855 10.7881 6.88628 10.7881Z" fill="black"/>
<path d="M6.79015 10.3891C6.89093 10.3891 6.97263 10.3074 6.97263 10.2067C6.97263 10.1059 6.89093 10.0242 6.79015 10.0242C6.68937 10.0242 6.60767 10.1059 6.60767 10.2067C6.60767 10.3074 6.68937 10.3891 6.79015 10.3891Z" fill="black"/>
<path d="M6.68459 9.97117C6.78537 9.97117 6.86707 9.88947 6.86707 9.78869C6.86707 9.6879 6.78537 9.6062 6.68459 9.6062C6.58381 9.6062 6.50211 9.6879 6.50211 9.78869C6.50211 9.88947 6.58381 9.97117 6.68459 9.97117Z" fill="black"/>
<path d="M6.60769 9.56272C6.70847 9.56272 6.79017 9.48102 6.79017 9.38024C6.79017 9.27945 6.70847 9.19775 6.60769 9.19775C6.5069 9.19775 6.4252 9.27945 6.4252 9.38024C6.4252 9.48102 6.5069 9.56272 6.60769 9.56272Z" fill="black"/>
<path d="M6.57872 9.14475C6.67951 9.14475 6.76121 9.06305 6.76121 8.96227C6.76121 8.86149 6.67951 8.77979 6.57872 8.77979C6.47794 8.77979 6.39624 8.86149 6.39624 8.96227C6.39624 9.06305 6.47794 9.14475 6.57872 9.14475Z" fill="black"/>
<path d="M6.56438 8.73167C6.66516 8.73167 6.74687 8.64997 6.74687 8.54918C6.74687 8.4484 6.66516 8.3667 6.56438 8.3667C6.4636 8.3667 6.3819 8.4484 6.3819 8.54918C6.3819 8.64997 6.4636 8.73167 6.56438 8.73167Z" fill="black"/>
<path d="M6.5931 8.3137C6.69388 8.3137 6.77558 8.232 6.77558 8.13121C6.77558 8.03043 6.69388 7.94873 6.5931 7.94873C6.49231 7.94873 6.41061 8.03043 6.41061 8.13121C6.41061 8.232 6.49231 8.3137 6.5931 8.3137Z" fill="black"/>
<path d="M6.65078 7.92918C6.75156 7.92918 6.83326 7.84748 6.83326 7.74669C6.83326 7.64591 6.75156 7.56421 6.65078 7.56421C6.54999 7.56421 6.46829 7.64591 6.46829 7.74669C6.46829 7.84748 6.54999 7.92918 6.65078 7.92918Z" fill="black"/>
<path d="M6.68459 7.51121C6.78537 7.51121 6.86707 7.42951 6.86707 7.32872C6.86707 7.22794 6.78537 7.14624 6.68459 7.14624C6.58381 7.14624 6.50211 7.22794 6.50211 7.32872C6.50211 7.42951 6.58381 7.51121 6.68459 7.51121Z" fill="black"/>
<path d="M11.2682 12.9692C11.369 12.9692 11.4507 12.8875 11.4507 12.7867C11.4507 12.6859 11.369 12.6042 11.2682 12.6042C11.1674 12.6042 11.0857 12.6859 11.0857 12.7867C11.0857 12.8875 11.1674 12.9692 11.2682 12.9692Z" fill="black"/>
<path d="M11.3498 13.3537C11.4505 13.3537 11.5322 13.272 11.5322 13.1713C11.5322 13.0705 11.4505 12.9888 11.3498 12.9888C11.249 12.9888 11.1673 13.0705 11.1673 13.1713C11.1673 13.272 11.249 13.3537 11.3498 13.3537Z" fill="black"/>
<path d="M9.46166 8.32786C9.56244 8.32786 9.64414 8.24616 9.64414 8.14537C9.64414 8.04459 9.56244 7.96289 9.46166 7.96289C9.36088 7.96289 9.27917 8.04459 9.27917 8.14537C9.27917 8.24616 9.36088 8.32786 9.46166 8.32786Z" fill="black"/>
<path d="M10.8118 18.2399C11.0187 18.2399 11.1865 18.0721 11.1865 17.8652C11.1865 17.6582 11.0187 17.4905 10.8118 17.4905C10.6048 17.4905 10.4371 17.6582 10.4371 17.8652C10.4371 18.0721 10.6048 18.2399 10.8118 18.2399Z" fill="black"/>
<path d="M10.4994 17.4808C10.7063 17.4808 10.8741 17.3131 10.8741 17.1061C10.8741 16.8992 10.7063 16.7314 10.4994 16.7314C10.2925 16.7314 10.1247 16.8992 10.1247 17.1061C10.1247 17.3131 10.2925 17.4808 10.4994 17.4808Z" fill="black"/>
<path d="M10.2977 16.6737C10.5046 16.6737 10.6724 16.5059 10.6724 16.299C10.6724 16.0921 10.5046 15.9243 10.2977 15.9243C10.0907 15.9243 9.92297 16.0921 9.92297 16.299C9.92297 16.5059 10.0907 16.6737 10.2977 16.6737Z" fill="black"/>
<path d="M10.0478 15.9C10.2547 15.9 10.4225 15.7323 10.4225 15.5253C10.4225 15.3184 10.2547 15.1506 10.0478 15.1506C9.84085 15.1506 9.6731 15.3184 9.6731 15.5253C9.6731 15.7323 9.84085 15.9 10.0478 15.9Z" fill="black"/>
<path d="M9.86993 15.1119C10.0769 15.1119 10.2446 14.9442 10.2446 14.7372C10.2446 14.5303 10.0769 14.3625 9.86993 14.3625C9.663 14.3625 9.49524 14.5303 9.49524 14.7372C9.49524 14.9442 9.663 15.1119 9.86993 15.1119Z" fill="black"/>
<path d="M9.56726 14.3627C9.7742 14.3627 9.94196 14.1949 9.94196 13.988C9.94196 13.781 9.7742 13.6133 9.56726 13.6133C9.36032 13.6133 9.19257 13.781 9.19257 13.988C9.19257 14.1949 9.36032 14.3627 9.56726 14.3627Z" fill="black"/>
<path d="M9.32224 13.5988C9.52917 13.5988 9.69693 13.431 9.69693 13.2241C9.69693 13.0171 9.52917 12.8494 9.32224 12.8494C9.1153 12.8494 8.94754 13.0171 8.94754 13.2241C8.94754 13.431 9.1153 13.5988 9.32224 13.5988Z" fill="black"/>
<path d="M8.90912 12.9066C9.11606 12.9066 9.28381 12.7389 9.28381 12.5319C9.28381 12.325 9.11606 12.1572 8.90912 12.1572C8.70218 12.1572 8.53442 12.325 8.53442 12.5319C8.53442 12.7389 8.70218 12.9066 8.90912 12.9066Z" fill="black"/>
<path d="M11.8062 17.1637C12.0131 17.1637 12.1808 16.9959 12.1808 16.789C12.1808 16.5821 12.0131 16.4143 11.8062 16.4143C11.5992 16.4143 11.4315 16.5821 11.4315 16.789C11.4315 16.9959 11.5992 17.1637 11.8062 17.1637Z" fill="black"/>
<path d="M11.595 16.3422C11.8019 16.3422 11.9697 16.1744 11.9697 15.9675C11.9697 15.7605 11.8019 15.5928 11.595 15.5928C11.388 15.5928 11.2203 15.7605 11.2203 15.9675C11.2203 16.1744 11.388 16.3422 11.595 16.3422Z" fill="black"/>
<path d="M11.4266 15.5446C11.6335 15.5446 11.8013 15.3768 11.8013 15.1699C11.8013 14.9629 11.6335 14.7952 11.4266 14.7952C11.2197 14.7952 11.0519 14.9629 11.0519 15.1699C11.0519 15.3768 11.2197 15.5446 11.4266 15.5446Z" fill="black"/>
<path d="M11.2344 14.7758C11.4413 14.7758 11.6091 14.608 11.6091 14.4011C11.6091 14.1941 11.4413 14.0264 11.2344 14.0264C11.0274 14.0264 10.8597 14.1941 10.8597 14.4011C10.8597 14.608 11.0274 14.7758 11.2344 14.7758Z" fill="black"/>
<path d="M10.9655 14.0167C11.1725 14.0167 11.3402 13.849 11.3402 13.642C11.3402 13.4351 11.1725 13.2673 10.9655 13.2673C10.7586 13.2673 10.5909 13.4351 10.5909 13.642C10.5909 13.849 10.7586 14.0167 10.9655 14.0167Z" fill="black"/>
<path d="M10.6723 13.2767C10.8793 13.2767 11.047 13.109 11.047 12.902C11.047 12.6951 10.8793 12.5273 10.6723 12.5273C10.4654 12.5273 10.2976 12.6951 10.2976 12.902C10.2976 13.109 10.4654 13.2767 10.6723 13.2767Z" fill="black"/>
<path d="M10.3169 12.5753C10.5238 12.5753 10.6916 12.4076 10.6916 12.2006C10.6916 11.9937 10.5238 11.8259 10.3169 11.8259C10.11 11.8259 9.9422 11.9937 9.9422 12.2006C9.9422 12.4076 10.11 12.5753 10.3169 12.5753Z" fill="black"/>
<path d="M9.88916 11.8932C10.0961 11.8932 10.2639 11.7254 10.2639 11.5185C10.2639 11.3116 10.0961 11.1438 9.88916 11.1438C9.68222 11.1438 9.51447 11.3116 9.51447 11.5185C9.51447 11.7254 9.68222 11.8932 9.88916 11.8932Z" fill="black"/>
<path d="M9.50012 11.1915C9.70706 11.1915 9.87482 11.0238 9.87482 10.8168C9.87482 10.6099 9.70706 10.4421 9.50012 10.4421C9.29318 10.4421 9.12543 10.6099 9.12543 10.8168C9.12543 11.0238 9.29318 11.1915 9.50012 11.1915Z" fill="black"/>
<path d="M9.26459 10.413C9.47153 10.413 9.63928 10.2452 9.63928 10.0383C9.63928 9.83133 9.47153 9.66357 9.26459 9.66357C9.05765 9.66357 8.88989 9.83133 8.88989 10.0383C8.88989 10.2452 9.05765 10.413 9.26459 10.413Z" fill="black"/>
<path d="M9.03879 9.65393C9.24573 9.65393 9.41348 9.48617 9.41348 9.27924C9.41348 9.0723 9.24573 8.90454 9.03879 8.90454C8.83185 8.90454 8.66409 9.0723 8.66409 9.27924C8.66409 9.48617 8.83185 9.65393 9.03879 9.65393Z" fill="black"/>
<path d="M8.98599 8.86121C9.19293 8.86121 9.36069 8.69345 9.36069 8.48651C9.36069 8.27957 9.19293 8.11182 8.98599 8.11182C8.77905 8.11182 8.6113 8.27957 8.6113 8.48651C8.6113 8.69345 8.77905 8.86121 8.98599 8.86121Z" fill="black"/>
<path d="M9.0388 8.04458C9.22451 8.04458 9.37505 7.89403 9.37505 7.70832C9.37505 7.52262 9.22451 7.37207 9.0388 7.37207C8.85309 7.37207 8.70255 7.52262 8.70255 7.70832C8.70255 7.89403 8.85309 8.04458 9.0388 8.04458Z" fill="black"/>
<path d="M8.48624 12.2294C8.69317 12.2294 8.86093 12.0616 8.86093 11.8547C8.86093 11.6477 8.69317 11.48 8.48624 11.48C8.2793 11.48 8.11154 11.6477 8.11154 11.8547C8.11154 12.0616 8.2793 12.2294 8.48624 12.2294Z" fill="black"/>
<path d="M8.15948 11.4894C8.36642 11.4894 8.53418 11.3216 8.53418 11.1147C8.53418 10.9077 8.36642 10.74 8.15948 10.74C7.95255 10.74 7.78479 10.9077 7.78479 11.1147C7.78479 11.3216 7.95255 11.4894 8.15948 11.4894Z" fill="black"/>
<path d="M7.99625 10.692C8.20318 10.692 8.37094 10.5243 8.37094 10.3173C8.37094 10.1104 8.20318 9.94263 7.99625 9.94263C7.78931 9.94263 7.62155 10.1104 7.62155 10.3173C7.62155 10.5243 7.78931 10.692 7.99625 10.692Z" fill="black"/>
<path d="M7.76074 9.89929C7.96768 9.89929 8.13544 9.73154 8.13544 9.5246C8.13544 9.31766 7.96768 9.1499 7.76074 9.1499C7.5538 9.1499 7.38605 9.31766 7.38605 9.5246C7.38605 9.73154 7.5538 9.89929 7.76074 9.89929Z" fill="black"/>
<path d="M7.67899 9.11121C7.88592 9.11121 8.05368 8.94345 8.05368 8.73651C8.05368 8.52957 7.88592 8.36182 7.67899 8.36182C7.47205 8.36182 7.30429 8.52957 7.30429 8.73651C7.30429 8.94345 7.47205 9.11121 7.67899 9.11121Z" fill="black"/>
<path d="M7.77505 8.32312C7.98199 8.32312 8.14975 8.15536 8.14975 7.94843C8.14975 7.74149 7.98199 7.57373 7.77505 7.57373C7.56812 7.57373 7.40036 7.74149 7.40036 7.94843C7.40036 8.15536 7.56812 8.32312 7.77505 8.32312Z" fill="black"/>
<path d="M7.79428 7.51599C8.00122 7.51599 8.16898 7.34823 8.16898 7.1413C8.16898 6.93436 8.00122 6.7666 7.79428 6.7666C7.58734 6.7666 7.41959 6.93436 7.41959 7.1413C7.41959 7.34823 7.58734 7.51599 7.79428 7.51599Z" fill="black"/>
<path d="M14.0261 18.3552C14.1269 18.3552 14.2086 18.2735 14.2086 18.1727C14.2086 18.0719 14.1269 17.9902 14.0261 17.9902C13.9253 17.9902 13.8436 18.0719 13.8436 18.1727C13.8436 18.2735 13.9253 18.3552 14.0261 18.3552Z" fill="black"/>
<path d="M14.1988 17.9468C14.2996 17.9468 14.3813 17.8651 14.3813 17.7643C14.3813 17.6635 14.2996 17.5818 14.1988 17.5818C14.0981 17.5818 14.0164 17.6635 14.0164 17.7643C14.0164 17.8651 14.0981 17.9468 14.1988 17.9468Z" fill="black"/>
<path d="M14.3383 17.5288C14.4391 17.5288 14.5208 17.4471 14.5208 17.3463C14.5208 17.2455 14.4391 17.1638 14.3383 17.1638C14.2375 17.1638 14.1558 17.2455 14.1558 17.3463C14.1558 17.4471 14.2375 17.5288 14.3383 17.5288Z" fill="black"/>
<path d="M14.492 17.1157C14.5928 17.1157 14.6745 17.034 14.6745 16.9332C14.6745 16.8324 14.5928 16.7507 14.492 16.7507C14.3912 16.7507 14.3095 16.8324 14.3095 16.9332C14.3095 17.034 14.3912 17.1157 14.492 17.1157Z" fill="black"/>
<path d="M14.593 16.6928C14.6938 16.6928 14.7755 16.6111 14.7755 16.5104C14.7755 16.4096 14.6938 16.3279 14.593 16.3279C14.4922 16.3279 14.4105 16.4096 14.4105 16.5104C14.4105 16.6111 14.4922 16.6928 14.593 16.6928Z" fill="black"/>
<path d="M14.7275 16.27C14.8283 16.27 14.91 16.1883 14.91 16.0875C14.91 15.9867 14.8283 15.905 14.7275 15.905C14.6267 15.905 14.545 15.9867 14.545 16.0875C14.545 16.1883 14.6267 16.27 14.7275 16.27Z" fill="black"/>
<path d="M14.8429 15.8569C14.9437 15.8569 15.0254 15.7752 15.0254 15.6744C15.0254 15.5736 14.9437 15.4919 14.8429 15.4919C14.7421 15.4919 14.6604 15.5736 14.6604 15.6744C14.6604 15.7752 14.7421 15.8569 14.8429 15.8569Z" fill="black"/>
<path d="M14.939 15.4292C15.0398 15.4292 15.1215 15.3475 15.1215 15.2467C15.1215 15.1459 15.0398 15.0642 14.939 15.0642C14.8382 15.0642 14.7565 15.1459 14.7565 15.2467C14.7565 15.3475 14.8382 15.4292 14.939 15.4292Z" fill="black"/>
<path d="M15.0398 15.0351C15.1405 15.0351 15.2222 14.9534 15.2222 14.8527C15.2222 14.7519 15.1405 14.6702 15.0398 14.6702C14.939 14.6702 14.8573 14.7519 14.8573 14.8527C14.8573 14.9534 14.939 15.0351 15.0398 15.0351Z" fill="black"/>
<path d="M15.1648 14.646C15.2655 14.646 15.3472 14.5643 15.3472 14.4635C15.3472 14.3627 15.2655 14.281 15.1648 14.281C15.064 14.281 14.9823 14.3627 14.9823 14.4635C14.9823 14.5643 15.064 14.646 15.1648 14.646Z" fill="black"/>
<path d="M15.3665 14.2905C15.4673 14.2905 15.549 14.2088 15.549 14.108C15.549 14.0072 15.4673 13.9255 15.3665 13.9255C15.2657 13.9255 15.184 14.0072 15.184 14.108C15.184 14.2088 15.2657 14.2905 15.3665 14.2905Z" fill="black"/>
<path d="M15.5297 13.8965C15.6305 13.8965 15.7122 13.8148 15.7122 13.714C15.7122 13.6132 15.6305 13.5315 15.5297 13.5315C15.429 13.5315 15.3473 13.6132 15.3473 13.714C15.3473 13.8148 15.429 13.8965 15.5297 13.8965Z" fill="black"/>
<path d="M15.7219 13.5122C15.8227 13.5122 15.9044 13.4305 15.9044 13.3297C15.9044 13.2289 15.8227 13.1472 15.7219 13.1472C15.6211 13.1472 15.5394 13.2289 15.5394 13.3297C15.5394 13.4305 15.6211 13.5122 15.7219 13.5122Z" fill="black"/>
<path d="M13.6803 18.0961C13.821 18.0961 13.9351 17.9821 13.9351 17.8414C13.9351 17.7007 13.821 17.5867 13.6803 17.5867C13.5396 17.5867 13.4256 17.7007 13.4256 17.8414C13.4256 17.9821 13.5396 18.0961 13.6803 18.0961Z" fill="black"/>
<path d="M13.8724 17.582C14.013 17.582 14.1271 17.4679 14.1271 17.3272C14.1271 17.1866 14.013 17.0725 13.8724 17.0725C13.7317 17.0725 13.6176 17.1866 13.6176 17.3272C13.6176 17.4679 13.7317 17.582 13.8724 17.582Z" fill="black"/>
<path d="M14.0407 17.0583C14.1813 17.0583 14.2954 16.9443 14.2954 16.8036C14.2954 16.6629 14.1813 16.5488 14.0407 16.5488C13.9 16.5488 13.7859 16.6629 13.7859 16.8036C13.7859 16.9443 13.9 17.0583 14.0407 17.0583Z" fill="black"/>
<path d="M14.1942 16.52C14.3349 16.52 14.449 16.4059 14.449 16.2652C14.449 16.1245 14.3349 16.0105 14.1942 16.0105C14.0535 16.0105 13.9395 16.1245 13.9395 16.2652C13.9395 16.4059 14.0535 16.52 14.1942 16.52Z" fill="black"/>
<path d="M14.3769 16.0014C14.5176 16.0014 14.6317 15.8874 14.6317 15.7467C14.6317 15.606 14.5176 15.4919 14.3769 15.4919C14.2362 15.4919 14.1222 15.606 14.1222 15.7467C14.1222 15.8874 14.2362 16.0014 14.3769 16.0014Z" fill="black"/>
<path d="M14.4874 15.468C14.6281 15.468 14.7421 15.3539 14.7421 15.2132C14.7421 15.0725 14.6281 14.9585 14.4874 14.9585C14.3467 14.9585 14.2327 15.0725 14.2327 15.2132C14.2327 15.3539 14.3467 15.468 14.4874 15.468Z" fill="black"/>
<path d="M14.6122 14.944C14.7529 14.944 14.8669 14.83 14.8669 14.6893C14.8669 14.5486 14.7529 14.4346 14.6122 14.4346C14.4715 14.4346 14.3575 14.5486 14.3575 14.6893C14.3575 14.83 14.4715 14.944 14.6122 14.944Z" fill="black"/>
<path d="M14.7901 14.4255C14.9308 14.4255 15.0448 14.3114 15.0448 14.1708C15.0448 14.0301 14.9308 13.916 14.7901 13.916C14.6494 13.916 14.5353 14.0301 14.5353 14.1708C14.5353 14.3114 14.6494 14.4255 14.7901 14.4255Z" fill="black"/>
<path d="M14.992 13.9209C15.1327 13.9209 15.2467 13.8068 15.2467 13.6661C15.2467 13.5254 15.1327 13.4114 14.992 13.4114C14.8513 13.4114 14.7373 13.5254 14.7373 13.6661C14.7373 13.8068 14.8513 13.9209 14.992 13.9209Z" fill="black"/>
<path d="M15.1745 13.4116C15.3152 13.4116 15.4292 13.2975 15.4292 13.1568C15.4292 13.0161 15.3152 12.9021 15.1745 12.9021C15.0338 12.9021 14.9197 13.0161 14.9197 13.1568C14.9197 13.2975 15.0338 13.4116 15.1745 13.4116Z" fill="black"/>
<path d="M15.4531 12.9455C15.5938 12.9455 15.7078 12.8315 15.7078 12.6908C15.7078 12.5501 15.5938 12.436 15.4531 12.436C15.3124 12.436 15.1983 12.5501 15.1983 12.6908C15.1983 12.8315 15.3124 12.9455 15.4531 12.9455Z" fill="black"/>
<path d="M15.7511 12.4938C15.8918 12.4938 16.0058 12.3798 16.0058 12.2391C16.0058 12.0984 15.8918 11.9844 15.7511 11.9844C15.6104 11.9844 15.4964 12.0984 15.4964 12.2391C15.4964 12.3798 15.6104 12.4938 15.7511 12.4938Z" fill="black"/>
<path d="M16.0056 12.0039C16.1463 12.0039 16.2604 11.8898 16.2604 11.7491C16.2604 11.6084 16.1463 11.4944 16.0056 11.4944C15.8649 11.4944 15.7509 11.6084 15.7509 11.7491C15.7509 11.8898 15.8649 12.0039 16.0056 12.0039Z" fill="black"/>
<path d="M16.2122 11.509C16.3529 11.509 16.467 11.3949 16.467 11.2542C16.467 11.1136 16.3529 10.9995 16.2122 10.9995C16.0715 10.9995 15.9575 11.1136 15.9575 11.2542C15.9575 11.3949 16.0715 11.509 16.2122 11.509Z" fill="black"/>
<path d="M16.4236 11.0046C16.5643 11.0046 16.6784 10.8905 16.6784 10.7499C16.6784 10.6092 16.5643 10.4951 16.4236 10.4951C16.2829 10.4951 16.1689 10.6092 16.1689 10.7499C16.1689 10.8905 16.2829 11.0046 16.4236 11.0046Z" fill="black"/>
<path d="M16.5197 10.4614C16.6604 10.4614 16.7745 10.3473 16.7745 10.2066C16.7745 10.066 16.6604 9.9519 16.5197 9.9519C16.379 9.9519 16.265 10.066 16.265 10.2066C16.265 10.3473 16.379 10.4614 16.5197 10.4614Z" fill="black"/>
<path d="M16.664 9.92329C16.8047 9.92329 16.9187 9.80924 16.9187 9.66856C16.9187 9.52787 16.8047 9.41382 16.664 9.41382C16.5233 9.41382 16.4093 9.52787 16.4093 9.66856C16.4093 9.80924 16.5233 9.92329 16.664 9.92329Z" fill="black"/>
<path d="M16.7409 7.71333C16.8816 7.71333 16.9956 7.59928 16.9956 7.45859C16.9956 7.31791 16.8816 7.20386 16.7409 7.20386C16.6002 7.20386 16.4862 7.31791 16.4862 7.45859C16.4862 7.59928 16.6002 7.71333 16.7409 7.71333Z" fill="black"/>
<path d="M16.7312 7.15108C16.8719 7.15108 16.9859 7.03703 16.9859 6.89634C16.9859 6.75565 16.8719 6.6416 16.7312 6.6416C16.5905 6.6416 16.4764 6.75565 16.4764 6.89634C16.4764 7.03703 16.5905 7.15108 16.7312 7.15108Z" fill="black"/>
<path d="M12.3923 13.2957C12.4506 13.2957 12.4979 13.2484 12.4979 13.1901C12.4979 13.1318 12.4506 13.0845 12.3923 13.0845C12.334 13.0845 12.2867 13.1318 12.2867 13.1901C12.2867 13.2484 12.334 13.2957 12.3923 13.2957Z" fill="black"/>
<path d="M12.2867 13.5506C12.345 13.5506 12.3923 13.5033 12.3923 13.445C12.3923 13.3866 12.345 13.3394 12.2867 13.3394C12.2284 13.3394 12.1811 13.3866 12.1811 13.445C12.1811 13.5033 12.2284 13.5506 12.2867 13.5506Z" fill="black"/>
<path d="M12.2867 13.8389C12.345 13.8389 12.3923 13.7916 12.3923 13.7333C12.3923 13.675 12.345 13.6277 12.2867 13.6277C12.2284 13.6277 12.1811 13.675 12.1811 13.7333C12.1811 13.7916 12.2284 13.8389 12.2867 13.8389Z" fill="black"/>
<path d="M12.4838 13.7139C12.5421 13.7139 12.5894 13.6666 12.5894 13.6083C12.5894 13.55 12.5421 13.5027 12.4838 13.5027C12.4255 13.5027 12.3782 13.55 12.3782 13.6083C12.3782 13.6666 12.4255 13.7139 12.4838 13.7139Z" fill="black"/>
<path d="M16.7889 9.37568C16.9295 9.37568 17.0436 9.26164 17.0436 9.12095C17.0436 8.98026 16.9295 8.86621 16.7889 8.86621C16.6482 8.86621 16.5341 8.98026 16.5341 9.12095C16.5341 9.26164 16.6482 9.37568 16.7889 9.37568Z" fill="black"/>
<path d="M16.8224 8.26094C16.9631 8.26094 17.0772 8.14689 17.0772 8.0062C17.0772 7.86551 16.9631 7.75146 16.8224 7.75146C16.6817 7.75146 16.5677 7.86551 16.5677 8.0062C16.5677 8.14689 16.6817 8.26094 16.8224 8.26094Z" fill="black"/>
<path d="M15.5589 8.92402C15.6996 8.92402 15.8137 8.80997 15.8137 8.66929C15.8137 8.5286 15.6996 8.41455 15.5589 8.41455C15.4182 8.41455 15.3042 8.5286 15.3042 8.66929C15.3042 8.80997 15.4182 8.92402 15.5589 8.92402Z" fill="black"/>
<path d="M15.5348 8.37642C15.6755 8.37642 15.7896 8.26237 15.7896 8.12168C15.7896 7.98099 15.6755 7.86694 15.5348 7.86694C15.3941 7.86694 15.2801 7.98099 15.2801 8.12168C15.2801 8.26237 15.3941 8.37642 15.5348 8.37642Z" fill="black"/>
<path d="M15.4387 7.81904C15.5794 7.81904 15.6935 7.70499 15.6935 7.56431C15.6935 7.42362 15.5794 7.30957 15.4387 7.30957C15.298 7.30957 15.184 7.42362 15.184 7.56431C15.184 7.70499 15.298 7.81904 15.4387 7.81904Z" fill="black"/>
<path d="M15.4292 7.27608C15.5699 7.27608 15.684 7.16203 15.684 7.02134C15.684 6.88065 15.5699 6.7666 15.4292 6.7666C15.2885 6.7666 15.1745 6.88065 15.1745 7.02134C15.1745 7.16203 15.2885 7.27608 15.4292 7.27608Z" fill="black"/>
<path d="M15.4051 6.7187C15.5458 6.7187 15.6599 6.60465 15.6599 6.46397C15.6599 6.32328 15.5458 6.20923 15.4051 6.20923C15.2644 6.20923 15.1504 6.32328 15.1504 6.46397C15.1504 6.60465 15.2644 6.7187 15.4051 6.7187Z" fill="black"/>
<path d="M15.4531 9.46675C15.5938 9.46675 15.7078 9.3527 15.7078 9.21201C15.7078 9.07132 15.5938 8.95728 15.4531 8.95728C15.3124 8.95728 15.1983 9.07132 15.1983 9.21201C15.1983 9.3527 15.3124 9.46675 15.4531 9.46675Z" fill="black"/>
<path d="M15.1793 10.5241C15.32 10.5241 15.4341 10.4101 15.4341 10.2694C15.4341 10.1287 15.32 10.0146 15.1793 10.0146C15.0386 10.0146 14.9246 10.1287 14.9246 10.2694C14.9246 10.4101 15.0386 10.5241 15.1793 10.5241Z" fill="black"/>
<path d="M15.2657 9.97627C15.4064 9.97627 15.5205 9.86222 15.5205 9.72153C15.5205 9.58085 15.4064 9.4668 15.2657 9.4668C15.125 9.4668 15.011 9.58085 15.011 9.72153C15.011 9.86222 15.125 9.97627 15.2657 9.97627Z" fill="black"/>
<path d="M14.9966 11.038C15.1373 11.038 15.2514 10.924 15.2514 10.7833C15.2514 10.6426 15.1373 10.5286 14.9966 10.5286C14.856 10.5286 14.7419 10.6426 14.7419 10.7833C14.7419 10.924 14.856 11.038 14.9966 11.038Z" fill="black"/>
<path d="M14.7516 11.5234C14.8923 11.5234 15.0064 11.4093 15.0064 11.2687C15.0064 11.128 14.8923 11.0139 14.7516 11.0139C14.6109 11.0139 14.4969 11.128 14.4969 11.2687C14.4969 11.4093 14.6109 11.5234 14.7516 11.5234Z" fill="black"/>
<path d="M14.4633 11.975C14.604 11.975 14.7181 11.861 14.7181 11.7203C14.7181 11.5796 14.604 11.4656 14.4633 11.4656C14.3226 11.4656 14.2086 11.5796 14.2086 11.7203C14.2086 11.861 14.3226 11.975 14.4633 11.975Z" fill="black"/>
<path d="M14.1798 12.4411C14.3205 12.4411 14.4346 12.3271 14.4346 12.1864C14.4346 12.0457 14.3205 11.9316 14.1798 11.9316C14.0392 11.9316 13.9251 12.0457 13.9251 12.1864C13.9251 12.3271 14.0392 12.4411 14.1798 12.4411Z" fill="black"/>
<path d="M13.8964 12.9167C14.0371 12.9167 14.1512 12.8027 14.1512 12.662C14.1512 12.5213 14.0371 12.4072 13.8964 12.4072C13.7557 12.4072 13.6417 12.5213 13.6417 12.662C13.6417 12.8027 13.7557 12.9167 13.8964 12.9167Z" fill="black"/>
<path d="M13.6563 13.4211C13.7969 13.4211 13.911 13.307 13.911 13.1664C13.911 13.0257 13.7969 12.9116 13.6563 12.9116C13.5156 12.9116 13.4015 13.0257 13.4015 13.1664C13.4015 13.307 13.5156 13.4211 13.6563 13.4211Z" fill="black"/>
<path d="M13.464 13.9448C13.6047 13.9448 13.7188 13.8307 13.7188 13.69C13.7188 13.5494 13.6047 13.4353 13.464 13.4353C13.3233 13.4353 13.2093 13.5494 13.2093 13.69C13.2093 13.8307 13.3233 13.9448 13.464 13.9448Z" fill="black"/>
<path d="M13.3103 14.4782C13.451 14.4782 13.565 14.3642 13.565 14.2235C13.565 14.0828 13.451 13.9688 13.3103 13.9688C13.1696 13.9688 13.0556 14.0828 13.0556 14.2235C13.0556 14.3642 13.1696 14.4782 13.3103 14.4782Z" fill="black"/>
<path d="M14.1271 9.17866C14.2677 9.17866 14.3818 9.06461 14.3818 8.92393C14.3818 8.78324 14.2677 8.66919 14.1271 8.66919C13.9864 8.66919 13.8723 8.78324 13.8723 8.92393C13.8723 9.06461 13.9864 9.17866 14.1271 9.17866Z" fill="black"/>
<path d="M14.2183 8.62617C14.359 8.62617 14.473 8.51212 14.473 8.37144C14.473 8.23075 14.359 8.1167 14.2183 8.1167C14.0776 8.1167 13.9636 8.23075 13.9636 8.37144C13.9636 8.51212 14.0776 8.62617 14.2183 8.62617Z" fill="black"/>
<path d="M13.9876 9.74092C14.1283 9.74092 14.2424 9.62687 14.2424 9.48618C14.2424 9.34549 14.1283 9.23145 13.9876 9.23145C13.8469 9.23145 13.7329 9.34549 13.7329 9.48618C13.7329 9.62687 13.8469 9.74092 13.9876 9.74092Z" fill="black"/>
<path d="M13.9205 10.2836C14.0612 10.2836 14.1752 10.1696 14.1752 10.0289C14.1752 9.88822 14.0612 9.77417 13.9205 9.77417C13.7798 9.77417 13.6658 9.88822 13.6658 10.0289C13.6658 10.1696 13.7798 10.2836 13.9205 10.2836Z" fill="black"/>
<path d="M13.6563 10.8315C13.7969 10.8315 13.911 10.7174 13.911 10.5768C13.911 10.4361 13.7969 10.322 13.6563 10.322C13.5156 10.322 13.4015 10.4361 13.4015 10.5768C13.4015 10.7174 13.5156 10.8315 13.6563 10.8315Z" fill="black"/>
<path d="M13.3103 11.2976C13.451 11.2976 13.565 11.1835 13.565 11.0428C13.565 10.9021 13.451 10.7881 13.3103 10.7881C13.1696 10.7881 13.0556 10.9021 13.0556 11.0428C13.0556 11.1835 13.1696 11.2976 13.3103 11.2976Z" fill="black"/>
<path d="M12.9786 11.7395C13.1193 11.7395 13.2334 11.6254 13.2334 11.4847C13.2334 11.344 13.1193 11.23 12.9786 11.23C12.838 11.23 12.7239 11.344 12.7239 11.4847C12.7239 11.6254 12.838 11.7395 12.9786 11.7395Z" fill="black"/>
<path d="M12.7721 12.2729C12.9128 12.2729 13.0269 12.1589 13.0269 12.0182C13.0269 11.8775 12.9128 11.7634 12.7721 11.7634C12.6314 11.7634 12.5174 11.8775 12.5174 12.0182C12.5174 12.1589 12.6314 12.2729 12.7721 12.2729Z" fill="black"/>
<path d="M13.1901 15.0307C13.3308 15.0307 13.4448 14.9167 13.4448 14.776C13.4448 14.6353 13.3308 14.5212 13.1901 14.5212C13.0494 14.5212 12.9354 14.6353 12.9354 14.776C12.9354 14.9167 13.0494 15.0307 13.1901 15.0307Z" fill="black"/>
<path d="M13.0317 15.5498C13.1724 15.5498 13.2864 15.4357 13.2864 15.295C13.2864 15.1543 13.1724 15.0403 13.0317 15.0403C12.891 15.0403 12.7769 15.1543 12.7769 15.295C12.7769 15.4357 12.891 15.5498 13.0317 15.5498Z" fill="black"/>
<path d="M12.921 16.0925C13.0617 16.0925 13.1757 15.9784 13.1757 15.8377C13.1757 15.6971 13.0617 15.583 12.921 15.583C12.7803 15.583 12.6662 15.6971 12.6662 15.8377C12.6662 15.9784 12.7803 16.0925 12.921 16.0925Z" fill="black"/>
<path d="M12.8011 16.6308C12.9417 16.6308 13.0558 16.5168 13.0558 16.3761C13.0558 16.2354 12.9417 16.1213 12.8011 16.1213C12.6604 16.1213 12.5463 16.2354 12.5463 16.3761C12.5463 16.5168 12.6604 16.6308 12.8011 16.6308Z" fill="black"/>
<path d="M12.604 17.1401C12.7447 17.1401 12.8587 17.026 12.8587 16.8854C12.8587 16.7447 12.7447 16.6306 12.604 16.6306C12.4633 16.6306 12.3492 16.7447 12.3492 16.8854C12.3492 17.026 12.4633 17.1401 12.604 17.1401Z" fill="black"/>
<path d="M12.3781 17.6398C12.5188 17.6398 12.6329 17.5258 12.6329 17.3851C12.6329 17.2444 12.5188 17.1304 12.3781 17.1304C12.2375 17.1304 12.1234 17.2444 12.1234 17.3851C12.1234 17.5258 12.2375 17.6398 12.3781 17.6398Z" fill="black"/>
<path d="M16.8322 8.82783C16.9728 8.82783 17.0869 8.71378 17.0869 8.5731C17.0869 8.43241 16.9728 8.31836 16.8322 8.31836C16.6915 8.31836 16.5774 8.43241 16.5774 8.5731C16.5774 8.71378 16.6915 8.82783 16.8322 8.82783Z" fill="black"/>
<path d="M15.8901 13.1325C15.9908 13.1325 16.0725 13.0508 16.0725 12.9501C16.0725 12.8493 15.9908 12.7676 15.8901 12.7676C15.7893 12.7676 15.7076 12.8493 15.7076 12.9501C15.7076 13.0508 15.7893 13.1325 15.8901 13.1325Z" fill="black"/>
<path d="M16.0679 12.7529C16.1687 12.7529 16.2504 12.6712 16.2504 12.5704C16.2504 12.4696 16.1687 12.3879 16.0679 12.3879C15.9671 12.3879 15.8854 12.4696 15.8854 12.5704C15.8854 12.6712 15.9671 12.7529 16.0679 12.7529Z" fill="black"/>
<path d="M16.2891 12.3926C16.3898 12.3926 16.4715 12.3109 16.4715 12.2101C16.4715 12.1093 16.3898 12.0276 16.2891 12.0276C16.1883 12.0276 16.1066 12.1093 16.1066 12.2101C16.1066 12.3109 16.1883 12.3926 16.2891 12.3926Z" fill="black"/>
<path d="M16.4572 12.0178C16.558 12.0178 16.6397 11.9361 16.6397 11.8353C16.6397 11.7345 16.558 11.6528 16.4572 11.6528C16.3564 11.6528 16.2747 11.7345 16.2747 11.8353C16.2747 11.9361 16.3564 12.0178 16.4572 12.0178Z" fill="black"/>
<path d="M16.611 11.667C16.7118 11.667 16.7935 11.5853 16.7935 11.4845C16.7935 11.3837 16.7118 11.302 16.611 11.302C16.5102 11.302 16.4285 11.3837 16.4285 11.4845C16.4285 11.5853 16.5102 11.667 16.611 11.667Z" fill="black"/>
<path d="M12.8103 11.0281C12.9111 11.0281 12.9928 10.9464 12.9928 10.8456C12.9928 10.7448 12.9111 10.6631 12.8103 10.6631C12.7095 10.6631 12.6278 10.7448 12.6278 10.8456C12.6278 10.9464 12.7095 11.0281 12.8103 11.0281Z" fill="black"/>
<path d="M13.1324 10.6965C13.2332 10.6965 13.3149 10.6148 13.3149 10.514C13.3149 10.4132 13.2332 10.3315 13.1324 10.3315C13.0317 10.3315 12.95 10.4132 12.95 10.514C12.95 10.6148 13.0317 10.6965 13.1324 10.6965Z" fill="black"/>
<path d="M13.2621 10.3027C13.3629 10.3027 13.4446 10.221 13.4446 10.1202C13.4446 10.0194 13.3629 9.93774 13.2621 9.93774C13.1614 9.93774 13.0797 10.0194 13.0797 10.1202C13.0797 10.221 13.1614 10.3027 13.2621 10.3027Z" fill="black"/>
<path d="M13.4351 9.93748C13.5359 9.93748 13.6176 9.85578 13.6176 9.75499C13.6176 9.65421 13.5359 9.57251 13.4351 9.57251C13.3343 9.57251 13.2526 9.65421 13.2526 9.75499C13.2526 9.85578 13.3343 9.93748 13.4351 9.93748Z" fill="black"/>
<path d="M13.6465 9.11106C13.7473 9.11106 13.829 9.02936 13.829 8.92858C13.829 8.82779 13.7473 8.74609 13.6465 8.74609C13.5458 8.74609 13.4641 8.82779 13.4641 8.92858C13.4641 9.02936 13.5458 9.11106 13.6465 9.11106Z" fill="black"/>
<path d="M16.7599 11.2781C16.8607 11.2781 16.9424 11.1964 16.9424 11.0956C16.9424 10.9948 16.8607 10.9131 16.7599 10.9131C16.6591 10.9131 16.5774 10.9948 16.5774 11.0956C16.5774 11.1964 16.6591 11.2781 16.7599 11.2781Z" fill="black"/>
<path d="M16.8944 10.8887C16.9952 10.8887 17.0769 10.8069 17.0769 10.7062C17.0769 10.6054 16.9952 10.5237 16.8944 10.5237C16.7936 10.5237 16.7119 10.6054 16.7119 10.7062C16.7119 10.8069 16.7936 10.8887 16.8944 10.8887Z" fill="black"/>
<path d="M16.9808 10.4804C17.0816 10.4804 17.1633 10.3987 17.1633 10.298C17.1633 10.1972 17.0816 10.1155 16.9808 10.1155C16.88 10.1155 16.7983 10.1972 16.7983 10.298C16.7983 10.3987 16.88 10.4804 16.9808 10.4804Z" fill="black"/>
<path d="M17.0769 10.0818C17.1777 10.0818 17.2594 10.0001 17.2594 9.89928C17.2594 9.7985 17.1777 9.7168 17.0769 9.7168C16.9761 9.7168 16.8944 9.7985 16.8944 9.89928C16.8944 10.0001 16.9761 10.0818 17.0769 10.0818Z" fill="black"/>
<path d="M17.1874 9.66844C17.2882 9.66844 17.3699 9.58673 17.3699 9.48595C17.3699 9.38517 17.2882 9.30347 17.1874 9.30347C17.0866 9.30347 17.0049 9.38517 17.0049 9.48595C17.0049 9.58673 17.0866 9.66844 17.1874 9.66844Z" fill="black"/>
<path d="M17.2594 9.25999C17.3602 9.25999 17.4419 9.17829 17.4419 9.0775C17.4419 8.97672 17.3602 8.89502 17.2594 8.89502C17.1586 8.89502 17.0769 8.97672 17.0769 9.0775C17.0769 9.17829 17.1586 9.25999 17.2594 9.25999Z" fill="black"/>
<path d="M17.2932 8.83714C17.394 8.83714 17.4757 8.75544 17.4757 8.65465C17.4757 8.55387 17.394 8.47217 17.2932 8.47217C17.1924 8.47217 17.1107 8.55387 17.1107 8.65465C17.1107 8.75544 17.1924 8.83714 17.2932 8.83714Z" fill="black"/>
<path d="M17.3027 8.42405C17.4035 8.42405 17.4852 8.34235 17.4852 8.24157C17.4852 8.14078 17.4035 8.05908 17.3027 8.05908C17.2019 8.05908 17.1202 8.14078 17.1202 8.24157C17.1202 8.34235 17.2019 8.42405 17.3027 8.42405Z" fill="black"/>
<path d="M17.274 8.01072C17.3748 8.01072 17.4565 7.92902 17.4565 7.82824C17.4565 7.72745 17.3748 7.64575 17.274 7.64575C17.1732 7.64575 17.0915 7.72745 17.0915 7.82824C17.0915 7.92902 17.1732 8.01072 17.274 8.01072Z" fill="black"/>
<path d="M17.2163 7.62644C17.3171 7.62644 17.3988 7.54474 17.3988 7.44396C17.3988 7.34318 17.3171 7.26147 17.2163 7.26147C17.1155 7.26147 17.0338 7.34318 17.0338 7.44396C17.0338 7.54474 17.1155 7.62644 17.2163 7.62644Z" fill="black"/>
<path d="M17.1828 7.20847C17.2835 7.20847 17.3652 7.12677 17.3652 7.02599C17.3652 6.92521 17.2835 6.84351 17.1828 6.84351C17.082 6.84351 17.0003 6.92521 17.0003 7.02599C17.0003 7.12677 17.082 7.20847 17.1828 7.20847Z" fill="black"/>
<path d="M12.6037 12.6616C12.7045 12.6616 12.7862 12.5799 12.7862 12.4791C12.7862 12.3783 12.7045 12.2966 12.6037 12.2966C12.503 12.2966 12.4213 12.3783 12.4213 12.4791C12.4213 12.5799 12.503 12.6616 12.6037 12.6616Z" fill="black"/>
<path d="M12.3592 10.8887C12.46 10.8887 12.5417 10.8069 12.5417 10.7062C12.5417 10.6054 12.46 10.5237 12.3592 10.5237C12.2584 10.5237 12.1767 10.6054 12.1767 10.7062C12.1767 10.8069 12.2584 10.8887 12.3592 10.8887Z" fill="black"/>
<path d="M12.1524 12.6233C12.2532 12.6233 12.3349 12.5416 12.3349 12.4408C12.3349 12.34 12.2532 12.2583 12.1524 12.2583C12.0516 12.2583 11.9699 12.34 11.9699 12.4408C11.9699 12.5416 12.0516 12.6233 12.1524 12.6233Z" fill="black"/>
<path d="M12.3108 12.2007C12.4116 12.2007 12.4933 12.119 12.4933 12.0182C12.4933 11.9174 12.4116 11.8357 12.3108 11.8357C12.21 11.8357 12.1283 11.9174 12.1283 12.0182C12.1283 12.119 12.21 12.2007 12.3108 12.2007Z" fill="black"/>
<path d="M11.3548 12.0805C11.4556 12.0805 11.5373 11.9988 11.5373 11.8981C11.5373 11.7973 11.4556 11.7156 11.3548 11.7156C11.254 11.7156 11.1723 11.7973 11.1723 11.8981C11.1723 11.9988 11.254 12.0805 11.3548 12.0805Z" fill="black"/>
<path d="M11.3548 11.6438C11.4556 11.6438 11.5373 11.5621 11.5373 11.4613C11.5373 11.3605 11.4556 11.2788 11.3548 11.2788C11.254 11.2788 11.1723 11.3605 11.1723 11.4613C11.1723 11.5621 11.254 11.6438 11.3548 11.6438Z" fill="black"/>
<path d="M12.5174 13.0508C12.6181 13.0508 12.6998 12.9691 12.6998 12.8683C12.6998 12.7675 12.6181 12.6858 12.5174 12.6858C12.4166 12.6858 12.3349 12.7675 12.3349 12.8683C12.3349 12.9691 12.4166 13.0508 12.5174 13.0508Z" fill="black"/>
<path d="M11.9505 14.1274C12.0512 14.1274 12.1329 14.0457 12.1329 13.9449C12.1329 13.8442 12.0512 13.7625 11.9505 13.7625C11.8497 13.7625 11.768 13.8442 11.768 13.9449C11.768 14.0457 11.8497 14.1274 11.9505 14.1274Z" fill="black"/>
<path d="M12.0755 14.5066C12.1763 14.5066 12.258 14.4249 12.258 14.3241C12.258 14.2233 12.1763 14.1416 12.0755 14.1416C11.9747 14.1416 11.893 14.2233 11.893 14.3241C11.893 14.4249 11.9747 14.5066 12.0755 14.5066Z" fill="black"/>
<path d="M14.4103 8.02049C14.5111 8.02049 14.5928 7.93879 14.5928 7.838C14.5928 7.73722 14.5111 7.65552 14.4103 7.65552C14.3095 7.65552 14.2278 7.73722 14.2278 7.838C14.2278 7.93879 14.3095 8.02049 14.4103 8.02049Z" fill="black"/>
<path d="M13.0555 17.9325C13.2624 17.9325 13.4302 17.7647 13.4302 17.5578C13.4302 17.3509 13.2624 17.1831 13.0555 17.1831C12.8486 17.1831 12.6808 17.3509 12.6808 17.5578C12.6808 17.7647 12.8486 17.9325 13.0555 17.9325Z" fill="black"/>
<path d="M13.3677 17.1781C13.5747 17.1781 13.7424 17.0103 13.7424 16.8034C13.7424 16.5965 13.5747 16.4287 13.3677 16.4287C13.1608 16.4287 12.993 16.5965 12.993 16.8034C12.993 17.0103 13.1608 17.1781 13.3677 17.1781Z" fill="black"/>
<path d="M13.5696 16.371C13.7765 16.371 13.9443 16.2032 13.9443 15.9963C13.9443 15.7893 13.7765 15.6216 13.5696 15.6216C13.3627 15.6216 13.1949 15.7893 13.1949 15.9963C13.1949 16.2032 13.3627 16.371 13.5696 16.371Z" fill="black"/>
<path d="M13.8195 15.5975C14.0265 15.5975 14.1942 15.4298 14.1942 15.2228C14.1942 15.0159 14.0265 14.8481 13.8195 14.8481C13.6126 14.8481 13.4448 15.0159 13.4448 15.2228C13.4448 15.4298 13.6126 15.5975 13.8195 15.5975Z" fill="black"/>
<path d="M13.9972 14.8094C14.2041 14.8094 14.3719 14.6417 14.3719 14.4348C14.3719 14.2278 14.2041 14.0601 13.9972 14.0601C13.7902 14.0601 13.6225 14.2278 13.6225 14.4348C13.6225 14.6417 13.7902 14.8094 13.9972 14.8094Z" fill="black"/>
<path d="M14.2998 14.0551C14.5067 14.0551 14.6745 13.8873 14.6745 13.6804C14.6745 13.4734 14.5067 13.3057 14.2998 13.3057C14.0929 13.3057 13.9251 13.4734 13.9251 13.6804C13.9251 13.8873 14.0929 14.0551 14.2998 14.0551Z" fill="black"/>
<path d="M14.5497 13.296C14.7567 13.296 14.9244 13.1283 14.9244 12.9213C14.9244 12.7144 14.7567 12.5466 14.5497 12.5466C14.3428 12.5466 14.175 12.7144 14.175 12.9213C14.175 13.1283 14.3428 13.296 14.5497 13.296Z" fill="black"/>
<path d="M14.9582 12.6041C15.1651 12.6041 15.3329 12.4364 15.3329 12.2294C15.3329 12.0225 15.1651 11.8547 14.9582 11.8547C14.7513 11.8547 14.5835 12.0225 14.5835 12.2294C14.5835 12.4364 14.7513 12.6041 14.9582 12.6041Z" fill="black"/>
<path d="M12.0609 16.8561C12.2679 16.8561 12.4356 16.6883 12.4356 16.4814C12.4356 16.2744 12.2679 16.1067 12.0609 16.1067C11.854 16.1067 11.6862 16.2744 11.6862 16.4814C11.6862 16.6883 11.854 16.8561 12.0609 16.8561Z" fill="black"/>
<path d="M12.2724 16.0345C12.4793 16.0345 12.6471 15.8668 12.6471 15.6599C12.6471 15.4529 12.4793 15.2852 12.2724 15.2852C12.0654 15.2852 11.8977 15.4529 11.8977 15.6599C11.8977 15.8668 12.0654 16.0345 12.2724 16.0345Z" fill="black"/>
<path d="M12.4405 15.2418C12.6474 15.2418 12.8152 15.0741 12.8152 14.8671C12.8152 14.6602 12.6474 14.4924 12.4405 14.4924C12.2335 14.4924 12.0658 14.6602 12.0658 14.8671C12.0658 15.0741 12.2335 15.2418 12.4405 15.2418Z" fill="black"/>
<path d="M12.6327 14.473C12.8396 14.473 13.0074 14.3053 13.0074 14.0983C13.0074 13.8914 12.8396 13.7236 12.6327 13.7236C12.4258 13.7236 12.258 13.8914 12.258 14.0983C12.258 14.3053 12.4258 14.473 12.6327 14.473Z" fill="black"/>
<path d="M12.9018 13.7091C13.1087 13.7091 13.2765 13.5413 13.2765 13.3344C13.2765 13.1275 13.1087 12.9597 12.9018 12.9597C12.6949 12.9597 12.5271 13.1275 12.5271 13.3344C12.5271 13.5413 12.6949 13.7091 12.9018 13.7091Z" fill="black"/>
<path d="M13.1947 12.9694C13.4017 12.9694 13.5694 12.8016 13.5694 12.5947C13.5694 12.3877 13.4017 12.22 13.1947 12.22C12.9878 12.22 12.82 12.3877 12.82 12.5947C12.82 12.8016 12.9878 12.9694 13.1947 12.9694Z" fill="black"/>
<path d="M13.5504 12.2726C13.7574 12.2726 13.9251 12.1048 13.9251 11.8979C13.9251 11.6909 13.7574 11.5232 13.5504 11.5232C13.3435 11.5232 13.1757 11.6909 13.1757 11.8979C13.1757 12.1048 13.3435 12.2726 13.5504 12.2726Z" fill="black"/>
<path d="M13.9779 11.5856C14.1849 11.5856 14.3526 11.4178 14.3526 11.2109C14.3526 11.0039 14.1849 10.8362 13.9779 10.8362C13.771 10.8362 13.6032 11.0039 13.6032 11.2109C13.6032 11.4178 13.771 11.5856 13.9779 11.5856Z" fill="black"/>
<path d="M14.3672 10.8888C14.5742 10.8888 14.7419 10.721 14.7419 10.5141C14.7419 10.3072 14.5742 10.1394 14.3672 10.1394C14.1603 10.1394 13.9925 10.3072 13.9925 10.5141C13.9925 10.721 14.1603 10.8888 14.3672 10.8888Z" fill="black"/>
<path d="M14.6025 10.1105C14.8094 10.1105 14.9772 9.94272 14.9772 9.73578C14.9772 9.52884 14.8094 9.36108 14.6025 9.36108C14.3956 9.36108 14.2278 9.52884 14.2278 9.73578C14.2278 9.94272 14.3956 10.1105 14.6025 10.1105Z" fill="black"/>
<path d="M14.8283 9.34631C15.0352 9.34631 15.203 9.17856 15.203 8.97162C15.203 8.76468 15.0352 8.59692 14.8283 8.59692C14.6213 8.59692 14.4536 8.76468 14.4536 8.97162C14.4536 9.17856 14.6213 9.34631 14.8283 9.34631Z" fill="black"/>
<path d="M14.8813 8.55383C15.0882 8.55383 15.256 8.38608 15.256 8.17914C15.256 7.9722 15.0882 7.80444 14.8813 7.80444C14.6743 7.80444 14.5066 7.9722 14.5066 8.17914C14.5066 8.38608 14.6743 8.55383 14.8813 8.55383Z" fill="black"/>
<path d="M14.8283 7.74184C15.014 7.74184 15.1645 7.5913 15.1645 7.40559C15.1645 7.21988 15.014 7.06934 14.8283 7.06934C14.6426 7.06934 14.492 7.21988 14.492 7.40559C14.492 7.5913 14.6426 7.74184 14.8283 7.74184Z" fill="black"/>
<path d="M15.3808 11.9218C15.5877 11.9218 15.7555 11.754 15.7555 11.5471C15.7555 11.3401 15.5877 11.1724 15.3808 11.1724C15.1739 11.1724 15.0061 11.3401 15.0061 11.5471C15.0061 11.754 15.1739 11.9218 15.3808 11.9218Z" fill="black"/>
<path d="M15.7076 11.1869C15.9145 11.1869 16.0823 11.0191 16.0823 10.8122C16.0823 10.6053 15.9145 10.4375 15.7076 10.4375C15.5007 10.4375 15.3329 10.6053 15.3329 10.8122C15.3329 11.0191 15.5007 11.1869 15.7076 11.1869Z" fill="black"/>
<path d="M15.8711 10.3893C16.078 10.3893 16.2458 10.2215 16.2458 10.0146C16.2458 9.80765 16.078 9.63989 15.8711 9.63989C15.6641 9.63989 15.4964 9.80765 15.4964 10.0146C15.4964 10.2215 15.6641 10.3893 15.8711 10.3893Z" fill="black"/>
<path d="M16.1064 9.59631C16.3133 9.59631 16.481 9.42856 16.481 9.22162C16.481 9.01468 16.3133 8.84692 16.1064 8.84692C15.8994 8.84692 15.7317 9.01468 15.7317 9.22162C15.7317 9.42856 15.8994 9.59631 16.1064 9.59631Z" fill="black"/>
<path d="M16.1881 8.80359C16.395 8.80359 16.5628 8.63583 16.5628 8.42889C16.5628 8.22196 16.395 8.0542 16.1881 8.0542C15.9812 8.0542 15.8134 8.22196 15.8134 8.42889C15.8134 8.63583 15.9812 8.80359 16.1881 8.80359Z" fill="black"/>
<path d="M16.0969 8.02039C16.3038 8.02039 16.4716 7.85263 16.4716 7.64569C16.4716 7.43875 16.3038 7.271 16.0969 7.271C15.8899 7.271 15.7222 7.43875 15.7222 7.64569C15.7222 7.85263 15.8899 8.02039 16.0969 8.02039Z" fill="black"/>
<path d="M16.0728 7.20837C16.2797 7.20837 16.4475 7.04062 16.4475 6.83368C16.4475 6.62674 16.2797 6.45898 16.0728 6.45898C15.8658 6.45898 15.6981 6.62674 15.6981 6.83368C15.6981 7.04062 15.8658 7.20837 16.0728 7.20837Z" fill="black"/>
<path d="M12.575 19.4748C12.6758 19.4748 12.7575 19.3931 12.7575 19.2923C12.7575 19.1916 12.6758 19.1099 12.575 19.1099C12.4742 19.1099 12.3925 19.1916 12.3925 19.2923C12.3925 19.3931 12.4742 19.4748 12.575 19.4748Z" fill="black"/>
<path d="M12.8011 8.49653C12.9417 8.49653 13.0558 8.38248 13.0558 8.2418C13.0558 8.10111 12.9417 7.98706 12.8011 7.98706C12.6604 7.98706 12.5463 8.10111 12.5463 8.2418C12.5463 8.38248 12.6604 8.49653 12.8011 8.49653Z" fill="black"/>
<path d="M12.6616 7.94893C12.8023 7.94893 12.9164 7.83488 12.9164 7.69419C12.9164 7.5535 12.8023 7.43945 12.6616 7.43945C12.5209 7.43945 12.4069 7.5535 12.4069 7.69419C12.4069 7.83488 12.5209 7.94893 12.6616 7.94893Z" fill="black"/>
<path d="M13.0027 9.01558C13.1434 9.01558 13.2575 8.90153 13.2575 8.76084C13.2575 8.62015 13.1434 8.5061 13.0027 8.5061C12.862 8.5061 12.748 8.62015 12.748 8.76084C12.748 8.90153 12.862 9.01558 13.0027 9.01558Z" fill="black"/>
<path d="M11.9217 9.94282C12.0624 9.94282 12.1765 9.82877 12.1765 9.68809C12.1765 9.5474 12.0624 9.43335 11.9217 9.43335C11.781 9.43335 11.667 9.5474 11.667 9.68809C11.667 9.82877 11.781 9.94282 11.9217 9.94282Z" fill="black"/>
<path d="M11.7728 9.41426C11.9135 9.41426 12.0275 9.30021 12.0275 9.15952C12.0275 9.01883 11.9135 8.90479 11.7728 8.90479C11.6321 8.90479 11.5181 9.01883 11.5181 9.15952C11.5181 9.30021 11.6321 9.41426 11.7728 9.41426Z" fill="black"/>
<path d="M11.5566 8.89522C11.6972 8.89522 11.8113 8.78117 11.8113 8.64048C11.8113 8.49979 11.6972 8.38574 11.5566 8.38574C11.4159 8.38574 11.3018 8.49979 11.3018 8.64048C11.3018 8.78117 11.4159 8.89522 11.5566 8.89522Z" fill="black"/>
<path d="M11.4269 8.3669C11.5675 8.3669 11.6816 8.25285 11.6816 8.11216C11.6816 7.97147 11.5675 7.85742 11.4269 7.85742C11.2862 7.85742 11.1721 7.97147 11.1721 8.11216C11.1721 8.25285 11.2862 8.3669 11.4269 8.3669Z" fill="black"/>
<path d="M11.2731 7.82857C11.4138 7.82857 11.5278 7.71452 11.5278 7.57383C11.5278 7.43314 11.4138 7.31909 11.2731 7.31909C11.1324 7.31909 11.0183 7.43314 11.0183 7.57383C11.0183 7.71452 11.1324 7.82857 11.2731 7.82857Z" fill="black"/>
<path d="M11.941 10.4953C12.0816 10.4953 12.1957 10.3813 12.1957 10.2406C12.1957 10.0999 12.0816 9.98584 11.941 9.98584C11.8003 9.98584 11.6862 10.0999 11.6862 10.2406C11.6862 10.3813 11.8003 10.4953 11.941 10.4953Z" fill="black"/>
<path d="M11.8736 11.5834C12.0143 11.5834 12.1283 11.4694 12.1283 11.3287C12.1283 11.188 12.0143 11.074 11.8736 11.074C11.7329 11.074 11.6188 11.188 11.6188 11.3287C11.6188 11.4694 11.7329 11.5834 11.8736 11.5834Z" fill="black"/>
<path d="M11.8736 11.038C12.0143 11.038 12.1283 10.924 12.1283 10.7833C12.1283 10.6426 12.0143 10.5286 11.8736 10.5286C11.7329 10.5286 11.6188 10.6426 11.6188 10.7833C11.6188 10.924 11.7329 11.038 11.8736 11.038Z" fill="black"/>
<path d="M12.4212 11.7395C12.5619 11.7395 12.676 11.6254 12.676 11.4847C12.676 11.344 12.5619 11.23 12.4212 11.23C12.2806 11.23 12.1665 11.344 12.1665 11.4847C12.1665 11.6254 12.2806 11.7395 12.4212 11.7395Z" fill="black"/>
<path d="M12.0058 13.1569C12.1465 13.1569 12.2605 13.0429 12.2605 12.9022C12.2605 12.7615 12.1465 12.6475 12.0058 12.6475C11.8651 12.6475 11.7511 12.7615 11.7511 12.9022C11.7511 13.0429 11.8651 13.1569 12.0058 13.1569Z" fill="black"/>
<path d="M11.9071 13.6997C12.0478 13.6997 12.1619 13.5856 12.1619 13.4449C12.1619 13.3042 12.0478 13.1902 11.9071 13.1902C11.7665 13.1902 11.6524 13.3042 11.6524 13.4449C11.6524 13.5856 11.7665 13.6997 11.9071 13.6997Z" fill="black"/>
<path d="M11.8543 12.1289C11.995 12.1289 12.1091 12.0148 12.1091 11.8741C12.1091 11.7334 11.995 11.6194 11.8543 11.6194C11.7137 11.6194 11.5996 11.7334 11.5996 11.8741C11.5996 12.0148 11.7137 12.1289 11.8543 12.1289Z" fill="black"/>
<path d="M11.6524 12.6618C11.7931 12.6618 11.9071 12.5478 11.9071 12.4071C11.9071 12.2664 11.7931 12.1523 11.6524 12.1523C11.5117 12.1523 11.3976 12.2664 11.3976 12.4071C11.3976 12.5478 11.5117 12.6618 11.6524 12.6618Z" fill="black"/>
<path d="M13.1422 9.5583C13.2828 9.5583 13.3969 9.44425 13.3969 9.30356C13.3969 9.16288 13.2828 9.04883 13.1422 9.04883C13.0015 9.04883 12.8874 9.16288 12.8874 9.30356C12.8874 9.44425 13.0015 9.5583 13.1422 9.5583Z" fill="black"/>
<path d="M13.4061 8.66428C13.5069 8.66428 13.5886 8.58258 13.5886 8.4818C13.5886 8.38102 13.5069 8.29932 13.4061 8.29932C13.3054 8.29932 13.2237 8.38102 13.2237 8.4818C13.2237 8.58258 13.3054 8.66428 13.4061 8.66428Z" fill="black"/>
<path d="M13.2621 8.30393C13.3629 8.30393 13.4446 8.22223 13.4446 8.12145C13.4446 8.02067 13.3629 7.93896 13.2621 7.93896C13.1614 7.93896 13.0797 8.02067 13.0797 8.12145C13.0797 8.22223 13.1614 8.30393 13.2621 8.30393Z" fill="black"/>
<path d="M13.1322 7.90501C13.233 7.90501 13.3147 7.82331 13.3147 7.72252C13.3147 7.62174 13.233 7.54004 13.1322 7.54004C13.0314 7.54004 12.9497 7.62174 12.9497 7.72252C12.9497 7.82331 13.0314 7.90501 13.1322 7.90501Z" fill="black"/>
<path d="M10.6147 9.32249C10.7155 9.32249 10.7972 9.24079 10.7972 9.14C10.7972 9.03922 10.7155 8.95752 10.6147 8.95752C10.5139 8.95752 10.4322 9.03922 10.4322 9.14C10.4322 9.24079 10.5139 9.32249 10.6147 9.32249Z" fill="black"/>
<path d="M10.7444 9.98582C10.8452 9.98582 10.9269 9.90412 10.9269 9.80333C10.9269 9.70255 10.8452 9.62085 10.7444 9.62085C10.6436 9.62085 10.5619 9.70255 10.5619 9.80333C10.5619 9.90412 10.6436 9.98582 10.7444 9.98582Z" fill="black"/>
<path d="M11.2777 10.5238C11.4846 10.5238 11.6524 10.356 11.6524 10.1491C11.6524 9.94217 11.4846 9.77441 11.2777 9.77441C11.0707 9.77441 10.903 9.94217 10.903 10.1491C10.903 10.356 11.0707 10.5238 11.2777 10.5238Z" fill="black"/>
<path d="M11.1529 9.7406C11.3599 9.7406 11.5276 9.57284 11.5276 9.36591C11.5276 9.15897 11.3599 8.99121 11.1529 8.99121C10.946 8.99121 10.7782 9.15897 10.7782 9.36591C10.7782 9.57284 10.946 9.7406 11.1529 9.7406Z" fill="black"/>
<path d="M10.9269 8.95742C11.1126 8.95742 11.2631 8.80687 11.2631 8.62116C11.2631 8.43546 11.1126 8.28491 10.9269 8.28491C10.7412 8.28491 10.5906 8.43546 10.5906 8.62116C10.5906 8.80687 10.7412 8.95742 10.9269 8.95742Z" fill="black"/>
<path d="M12.5799 10.4757C12.7868 10.4757 12.9546 10.308 12.9546 10.101C12.9546 9.89407 12.7868 9.72632 12.5799 9.72632C12.3729 9.72632 12.2052 9.89407 12.2052 10.101C12.2052 10.308 12.3729 10.4757 12.5799 10.4757Z" fill="black"/>
<path d="M12.4838 9.68787C12.6907 9.68787 12.8585 9.52011 12.8585 9.31317C12.8585 9.10623 12.6907 8.93848 12.4838 8.93848C12.2768 8.93848 12.1091 9.10623 12.1091 9.31317C12.1091 9.52011 12.2768 9.68787 12.4838 9.68787Z" fill="black"/>
<path d="M12.2147 8.94299C12.4216 8.94299 12.5894 8.77524 12.5894 8.5683C12.5894 8.36136 12.4216 8.1936 12.2147 8.1936C12.0078 8.1936 11.84 8.36136 11.84 8.5683C11.84 8.77524 12.0078 8.94299 12.2147 8.94299Z" fill="black"/>
<path d="M12.0081 8.15979C12.2151 8.15979 12.3828 7.99203 12.3828 7.7851C12.3828 7.57816 12.2151 7.4104 12.0081 7.4104C11.8012 7.4104 11.6334 7.57816 11.6334 7.7851C11.6334 7.99203 11.8012 8.15979 12.0081 8.15979Z" fill="black"/>
<path d="M7.7417 21.2333C9.06937 21.8435 10.5133 22.1595 11.9745 22.1596C13.436 22.1624 14.8805 21.8463 16.2073 21.2333L11.9745 17.0005L7.7417 21.2333Z" fill="black"/>
<path d="M16.1545 2.68759C14.8411 2.09368 13.416 1.78733 11.9745 1.78907C10.5331 1.78784 9.10808 2.09416 7.79453 2.68759L11.9745 6.86759L16.1545 2.68759Z" fill="black"/>
<path d="M21.2812 16.1838C21.8751 14.8704 22.1815 13.4452 22.1797 12.0038C22.1825 10.5423 21.8664 9.09775 21.2534 7.771L17.0579 11.9651L21.2763 16.1836L21.2812 16.1838Z" fill="black"/>
<path d="M1.81745 12.0084C1.81623 13.4498 2.12256 14.8749 2.71598 16.1884L6.93442 11.97L2.73891 7.77563C2.12865 9.10331 1.81266 10.5472 1.81259 12.0084H1.81745Z" fill="black"/>
</svg>
