<svg width="24" height="24" viewBox="0 0 24 24" fill="none" xmlns="http://www.w3.org/2000/svg">
<path d="M1.40913 9.35555C0.942188 8.54676 1.21929 7.51257 2.02805 7.04562L9.35001 2.81817C10.1588 2.35122 11.1929 2.62833 11.6599 3.43711L17.5781 13.6881C18.0451 14.4969 17.768 15.5311 16.9592 15.9981L9.63726 20.2255C8.8285 20.6925 7.79434 20.4154 7.3274 19.6066L1.40913 9.35555Z" fill="white"/>
<path fill-rule="evenodd" clip-rule="evenodd" d="M9.56138 3.18428L2.23942 7.41173C1.63285 7.76194 1.42502 8.53759 1.77522 9.14417L7.6935 19.3952C8.0437 20.0018 8.81932 20.2096 9.42589 19.8594L16.7479 15.632C17.3544 15.2817 17.5623 14.5061 17.212 13.8995L11.2938 3.64849C10.9436 3.0419 10.168 2.83406 9.56138 3.18428ZM2.02805 7.04562C1.21929 7.51257 0.942188 8.54676 1.40913 9.35555L7.3274 19.6066C7.79434 20.4154 8.8285 20.6925 9.63726 20.2255L16.9592 15.9981C17.768 15.5311 18.0451 14.4969 17.5781 13.6881L11.6599 3.43711C11.1929 2.62833 10.1588 2.35122 9.35001 2.81817L2.02805 7.04562Z" fill="#000072"/>
<path fill-rule="evenodd" clip-rule="evenodd" d="M4.52231 11.7888C4.46394 11.6877 4.49858 11.5584 4.59968 11.5L11.9216 7.27257C12.0227 7.21421 12.152 7.24884 12.2104 7.34994C12.2687 7.45104 12.2341 7.58031 12.133 7.63868L4.81104 11.8661C4.70995 11.9245 4.58068 11.8899 4.52231 11.7888Z" fill="#000072"/>
<path fill-rule="evenodd" clip-rule="evenodd" d="M5.64957 13.7414C5.5912 13.6403 5.62584 13.511 5.72693 13.4527L13.0489 9.22521C13.15 9.16684 13.2793 9.20148 13.3376 9.30258C13.396 9.40368 13.3614 9.53295 13.2603 9.59132L5.9383 13.8188C5.8372 13.8771 5.70794 13.8425 5.64957 13.7414Z" fill="#000072"/>
<path fill-rule="evenodd" clip-rule="evenodd" d="M6.77689 15.6938C6.71852 15.5927 6.75316 15.4634 6.85425 15.4051L14.1762 11.1776C14.2773 11.1192 14.4066 11.1539 14.4649 11.255C14.5233 11.3561 14.4887 11.4853 14.3876 11.5437L7.06562 15.7712C6.96452 15.8295 6.83525 15.7949 6.77689 15.6938Z" fill="#000072"/>
<path d="M4.45112 9.55183C3.98418 8.74305 4.26128 7.70886 5.07004 7.24191L13.6123 2.30988C14.4211 1.84293 15.4553 2.12004 15.9222 2.92883L22.6859 14.6443C23.1529 15.4531 22.8758 16.4873 22.067 16.9542L13.5247 21.8862C12.716 22.3532 11.6818 22.0761 11.2149 21.2673L4.45112 9.55183Z" fill="#007BD3"/>
<path d="M7.32111 5.94214C8.10783 6.79221 9.40426 7.0174 10.4496 6.41383C11.495 5.81027 11.9482 4.5749 11.6054 3.46852L7.32111 5.94214Z" fill="white"/>
<path fill-rule="evenodd" clip-rule="evenodd" d="M13.8237 2.67599L5.28141 7.60802C4.67484 7.95823 4.46701 8.73387 4.81722 9.34046L11.581 21.0559C11.9312 21.6625 12.7068 21.8703 13.3134 21.5201L21.8556 16.5881C22.4622 16.2379 22.67 15.4622 22.3198 14.8557L15.5561 3.1402C15.2059 2.53361 14.4303 2.32578 13.8237 2.67599ZM5.07004 7.24191C4.26128 7.70886 3.98418 8.74305 4.45112 9.55183L11.2149 21.2673C11.6818 22.0761 12.716 22.3532 13.5247 21.8862L22.067 16.9542C22.8758 16.4873 23.1529 15.4531 22.6859 14.6443L15.9222 2.92883C15.4553 2.12004 14.4211 1.84293 13.6123 2.30988L5.07004 7.24191Z" fill="#000072"/>
<path fill-rule="evenodd" clip-rule="evenodd" d="M10.457 10.281L15.4323 13.917L14.4045 14.5104L13.9097 14.1001L11.9757 15.2167L12.0579 15.8652L11.0391 16.4535L10.457 10.281ZM11.8507 14.0641L12.9869 13.4081L11.7092 12.4884L11.8507 14.0641ZM13.2752 9.38257C13.4242 8.96945 13.7201 8.64098 14.1455 8.39535C14.7381 8.05319 15.3709 8.05183 16.0163 8.37696L16.2084 8.47372L15.6324 9.44009L15.4601 9.35312C15.2615 9.25292 15.1336 9.22256 15.0615 9.22513L15.0574 9.22528L15.0534 9.22526C14.9661 9.225 14.8564 9.25419 14.7206 9.3326C14.5605 9.42502 14.4669 9.53423 14.4205 9.65691L14.4198 9.65856C14.3739 9.77654 14.3847 9.87106 14.4413 9.96194C14.4969 10.0513 14.6419 10.135 15.0336 10.0701L15.5952 9.9763L15.5956 9.97623C16.0704 9.89508 16.4843 9.90106 16.8243 10.0142C17.1695 10.1277 17.4426 10.3525 17.6428 10.6743C17.9098 11.1034 17.9755 11.5584 17.8333 12.0254C17.6912 12.4919 17.3834 12.8581 16.9255 13.1225C16.4944 13.3714 16.0516 13.4684 15.604 13.3951L15.6025 13.3948C15.1576 13.3186 14.7702 13.0793 14.4404 12.699L14.3139 12.5529L15.2306 11.7387L15.3676 11.9074C15.5474 12.1288 15.6772 12.2258 15.756 12.2532L15.7591 12.2542L15.7621 12.2554C15.9468 12.3262 16.1447 12.3114 16.3745 12.1787C16.5508 12.0769 16.6532 11.9468 16.6987 11.7869C16.7438 11.6288 16.7222 11.4777 16.6245 11.3208C16.5853 11.2577 16.5425 11.2107 16.4973 11.1759L16.4946 11.1738L16.4919 11.1716C16.4493 11.1365 16.3986 11.1098 16.3368 11.0923L16.3334 11.0914L16.3301 11.0903C16.2674 11.0703 16.1892 11.0582 16.0923 11.0577L16.0891 11.0577C15.9894 11.0557 15.8733 11.0638 15.7399 11.0837L15.1951 11.1716L15.194 11.1718C14.7858 11.2355 14.423 11.2256 14.1153 11.1267C13.8025 11.0262 13.557 10.8367 13.3869 10.5633C13.1583 10.196 13.1242 9.7962 13.2752 9.38257Z" fill="white"/>
<ellipse rx="0.845473" ry="0.845484" transform="matrix(0.86602 -0.50001 0.49999 0.866031 20.4516 15.2833)" fill="#FF1E97"/>
</svg>
