<svg width="24" height="24" viewBox="0 0 24 24" fill="none" xmlns="http://www.w3.org/2000/svg">
<path d="M1.40911 9.35567C0.942173 8.54688 1.21928 7.5127 2.02804 7.04574L9.35 2.81829C10.1588 2.35134 11.1929 2.62845 11.6599 3.43723L17.5781 13.6883C18.0451 14.497 17.768 15.5312 16.9592 15.9982L9.63724 20.2256C8.82848 20.6926 7.79432 20.4155 7.32738 19.6067L1.40911 9.35567Z" fill="white"/>
<path fill-rule="evenodd" clip-rule="evenodd" d="M9.56137 3.1844L2.2394 7.41185C1.63283 7.76207 1.42501 8.53771 1.77521 9.14429L7.69348 19.3953C8.04369 20.0019 8.8193 20.2097 9.42588 19.8595L16.7478 15.6321C17.3544 15.2819 17.5622 14.5062 17.212 13.8996L11.2938 3.64861C10.9436 3.04202 10.1679 2.83419 9.56137 3.1844ZM2.02804 7.04574C1.21928 7.5127 0.942173 8.54688 1.40911 9.35567L7.32738 19.6067C7.79432 20.4155 8.82848 20.6926 9.63724 20.2256L16.9592 15.9982C17.768 15.5312 18.0451 14.497 17.5781 13.6883L11.6599 3.43723C11.1929 2.62845 10.1588 2.35134 9.35 2.81829L2.02804 7.04574Z" fill="#000072"/>
<path fill-rule="evenodd" clip-rule="evenodd" d="M4.52229 11.7888C4.46393 11.6877 4.49856 11.5585 4.59966 11.5001L11.9216 7.27264C12.0227 7.21427 12.152 7.24891 12.2104 7.35C12.2687 7.4511 12.2341 7.58037 12.133 7.63874L4.81103 11.8662C4.70993 11.9246 4.58066 11.8899 4.52229 11.7888Z" fill="#000072"/>
<path fill-rule="evenodd" clip-rule="evenodd" d="M5.64958 13.7414C5.59122 13.6403 5.62585 13.511 5.72695 13.4526L13.0489 9.22518C13.15 9.16681 13.2793 9.20145 13.3376 9.30255C13.396 9.40365 13.3614 9.53292 13.2603 9.59129L5.93832 13.8187C5.83722 13.8771 5.70795 13.8425 5.64958 13.7414Z" fill="#000072"/>
<path fill-rule="evenodd" clip-rule="evenodd" d="M6.77687 15.6939C6.7185 15.5929 6.75314 15.4636 6.85424 15.4052L14.1762 11.1778C14.2773 11.1194 14.4066 11.154 14.4649 11.2551C14.5233 11.3562 14.4887 11.4855 14.3876 11.5439L7.0656 15.7713C6.96451 15.8297 6.83524 15.795 6.77687 15.6939Z" fill="#000072"/>
<path d="M4.45115 9.55193C3.98421 8.74314 4.26131 7.70895 5.07007 7.242L13.6124 2.30998C14.4211 1.84302 15.4553 2.12013 15.9222 2.92892L22.686 14.6444C23.1529 15.4532 22.8758 16.4873 22.067 16.9543L13.5247 21.8863C12.716 22.3533 11.6818 22.0762 11.2149 21.2674L4.45115 9.55193Z" fill="#007BD3"/>
<path d="M7.32109 5.94223C8.10781 6.7923 9.40424 7.01749 10.4496 6.41393C11.495 5.81036 11.9482 4.57499 11.6054 3.46861L7.32109 5.94223Z" fill="white"/>
<path fill-rule="evenodd" clip-rule="evenodd" d="M13.8237 2.67608L5.28144 7.60811C4.67487 7.95833 4.46704 8.73397 4.81725 9.34055L11.581 21.056C11.9312 21.6626 12.7068 21.8704 13.3134 21.5202L21.8557 16.5882C22.4622 16.238 22.6701 15.4623 22.3199 14.8557L15.5561 3.14029C15.2059 2.5337 14.4303 2.32587 13.8237 2.67608ZM5.07007 7.242C4.26131 7.70895 3.98421 8.74314 4.45115 9.55193L11.2149 21.2674C11.6818 22.0762 12.716 22.3533 13.5247 21.8863L22.067 16.9543C22.8758 16.4873 23.1529 15.4532 22.686 14.6444L15.9222 2.92892C15.4553 2.12013 14.4211 1.84302 13.6124 2.30998L5.07007 7.242Z" fill="#000072"/>
<path fill-rule="evenodd" clip-rule="evenodd" d="M10.457 10.2811L15.4323 13.9171L14.4045 14.5105L13.9097 14.1002L11.9757 15.2168L12.0579 15.8653L11.0391 16.4535L10.457 10.2811ZM11.8507 14.0642L12.9869 13.4082L11.7092 12.4885L11.8507 14.0642ZM13.2752 9.38266C13.4242 8.96954 13.7201 8.64107 14.1455 8.39545C14.7381 8.05328 15.3709 8.05192 16.0163 8.37705L16.2084 8.47381L15.6324 9.44018L15.4601 9.35321C15.2615 9.25302 15.1336 9.22265 15.0615 9.22522L15.0574 9.22537L15.0534 9.22536C14.9661 9.2251 14.8564 9.25428 14.7206 9.33269C14.5605 9.42511 14.4669 9.53432 14.4205 9.657L14.4198 9.65865C14.3739 9.77663 14.3847 9.87115 14.4413 9.96203C14.4969 10.0514 14.6419 10.1351 15.0336 10.0702L15.5952 9.97639L15.5956 9.97633C16.0704 9.89517 16.4843 9.90116 16.8243 10.0143C17.1695 10.1278 17.4426 10.3526 17.6428 10.6744C17.9098 11.1035 17.9755 11.5585 17.8333 12.0255C17.6912 12.492 17.3834 12.8582 16.9255 13.1226C16.4944 13.3715 16.0516 13.4685 15.604 13.3952L15.6025 13.3949C15.1576 13.3187 14.7702 13.0794 14.4404 12.699L14.3139 12.553L15.2306 11.7388L15.3676 11.9075C15.5474 12.1289 15.6772 12.2259 15.756 12.2533L15.7591 12.2543L15.7621 12.2555C15.9468 12.3263 16.1447 12.3114 16.3745 12.1787C16.5508 12.077 16.6532 11.9469 16.6987 11.787C16.7438 11.6289 16.7222 11.4778 16.6245 11.3209C16.5853 11.2578 16.5425 11.2107 16.4973 11.176L16.4946 11.1739L16.4919 11.1717C16.4493 11.1366 16.3986 11.1099 16.3368 11.0924L16.3334 11.0915L16.3301 11.0904C16.2674 11.0704 16.1892 11.0583 16.0923 11.0578L16.0891 11.0578C15.9894 11.0557 15.8733 11.0639 15.7399 11.0838L15.1951 11.1717L15.194 11.1719C14.7858 11.2356 14.423 11.2257 14.1153 11.1268C13.8025 11.0263 13.557 10.8368 13.3869 10.5634C13.1583 10.1961 13.1242 9.79629 13.2752 9.38266Z" fill="white"/>
<ellipse rx="0.845473" ry="0.845484" transform="matrix(0.86602 -0.50001 0.49999 0.866031 20.4516 15.2835)" fill="#FF1E97"/>
</svg>
