<svg width="24" height="24" viewBox="0 0 24 24" fill="none" xmlns="http://www.w3.org/2000/svg">
<path d="M1.4091 9.35555C0.942158 8.54676 1.21926 7.51257 2.02802 7.04562L9.34998 2.81817C10.1587 2.35122 11.1929 2.62833 11.6598 3.43711L17.5781 13.6881C18.0451 14.4969 17.768 15.5311 16.9592 15.9981L9.63723 20.2255C8.82847 20.6925 7.79431 20.4154 7.32737 19.6066L1.4091 9.35555Z" fill="white"/>
<path fill-rule="evenodd" clip-rule="evenodd" d="M9.56135 3.18428L2.23939 7.41173C1.63282 7.76194 1.42499 8.53759 1.77519 9.14417L7.69347 19.3952C8.04367 20.0018 8.81929 20.2096 9.42586 19.8594L16.7478 15.632C17.3544 15.2817 17.5622 14.5061 17.212 13.8995L11.2937 3.64848C10.9435 3.0419 10.1679 2.83406 9.56135 3.18428ZM2.02802 7.04562C1.21926 7.51257 0.942158 8.54676 1.4091 9.35555L7.32737 19.6066C7.79431 20.4154 8.82847 20.6925 9.63723 20.2255L16.9592 15.9981C17.768 15.5311 18.0451 14.4969 17.5781 13.6881L11.6598 3.43711C11.1929 2.62833 10.1587 2.35122 9.34998 2.81817L2.02802 7.04562Z" fill="#000072"/>
<path fill-rule="evenodd" clip-rule="evenodd" d="M4.52231 11.7885C4.46394 11.6874 4.49858 11.5582 4.59968 11.4998L11.9216 7.27233C12.0227 7.21396 12.152 7.2486 12.2104 7.3497C12.2687 7.4508 12.2341 7.58007 12.133 7.63844L4.81104 11.8659C4.70995 11.9243 4.58068 11.8896 4.52231 11.7885Z" fill="#000072"/>
<path fill-rule="evenodd" clip-rule="evenodd" d="M5.6496 13.7412C5.59123 13.6401 5.62587 13.5108 5.72696 13.4524L13.0489 9.22497C13.15 9.1666 13.2793 9.20124 13.3377 9.30233C13.396 9.40343 13.3614 9.53271 13.2603 9.59107L5.93833 13.8185C5.83724 13.8769 5.70797 13.8423 5.6496 13.7412Z" fill="#000072"/>
<path fill-rule="evenodd" clip-rule="evenodd" d="M6.77689 15.6938C6.71852 15.5927 6.75316 15.4634 6.85425 15.4051L14.1762 11.1776C14.2773 11.1192 14.4066 11.1539 14.4649 11.255C14.5233 11.3561 14.4887 11.4853 14.3876 11.5437L7.06562 15.7712C6.96452 15.8295 6.83525 15.7949 6.77689 15.6938Z" fill="#000072"/>
<path d="M4.45115 9.55183C3.98421 8.74305 4.26131 7.70886 5.07007 7.24191L13.6124 2.30988C14.4211 1.84293 15.4553 2.12004 15.9222 2.92883L22.686 14.6443C23.1529 15.4531 22.8758 16.4873 22.067 16.9542L13.5247 21.8862C12.716 22.3532 11.6818 22.0761 11.2149 21.2673L4.45115 9.55183Z" fill="#007BD3"/>
<path d="M7.32108 5.94189C8.1078 6.79197 9.40423 7.01716 10.4496 6.41359C11.495 5.81002 11.9482 4.57465 11.6054 3.46828L7.32108 5.94189Z" fill="white"/>
<path fill-rule="evenodd" clip-rule="evenodd" d="M13.8237 2.67599L5.28144 7.60802C4.67487 7.95823 4.46704 8.73387 4.81725 9.34046L11.581 21.0559C11.9312 21.6625 12.7068 21.8703 13.3134 21.5201L21.8557 16.5881C22.4622 16.2379 22.6701 15.4622 22.3199 14.8557L15.5561 3.1402C15.2059 2.53361 14.4303 2.32578 13.8237 2.67599ZM5.07007 7.24191C4.26131 7.70886 3.98421 8.74305 4.45115 9.55183L11.2149 21.2673C11.6818 22.0761 12.716 22.3532 13.5247 21.8862L22.067 16.9542C22.8758 16.4873 23.1529 15.4531 22.686 14.6443L15.9222 2.92883C15.4553 2.12004 14.4211 1.84293 13.6124 2.30988L5.07007 7.24191Z" fill="#000072"/>
<path fill-rule="evenodd" clip-rule="evenodd" d="M10.457 10.2812L15.4323 13.9172L14.4045 14.5106L13.9097 14.1003L11.9757 15.2169L12.0579 15.8655L11.0391 16.4537L10.457 10.2812ZM11.8507 14.0643L12.9869 13.4083L11.7092 12.4886L11.8507 14.0643ZM13.2752 9.38282C13.4242 8.96969 13.7201 8.64122 14.1455 8.3956C14.7381 8.05344 15.3709 8.05208 16.0163 8.3772L16.2084 8.47397L15.6324 9.44033L15.4601 9.35336C15.2615 9.25317 15.1336 9.2228 15.0615 9.22538L15.0574 9.22552L15.0534 9.22551C14.9661 9.22525 14.8564 9.25443 14.7206 9.33284C14.5605 9.42526 14.4669 9.53447 14.4205 9.65715L14.4198 9.6588C14.3739 9.77678 14.3847 9.87131 14.4413 9.96218C14.4969 10.0516 14.6419 10.1353 15.0336 10.0704L15.5952 9.97654L15.5956 9.97648C16.0704 9.89532 16.4843 9.90131 16.8243 10.0145C17.1695 10.1279 17.4426 10.3528 17.6428 10.6745C17.9098 11.1037 17.9755 11.5586 17.8333 12.0256C17.6912 12.4921 17.3834 12.8583 16.9255 13.1227C16.4944 13.3716 16.0516 13.4686 15.604 13.3953L15.6025 13.3951C15.1576 13.3188 14.7702 13.0796 14.4404 12.6992L14.3139 12.5532L15.2306 11.739L15.3676 11.9077C15.5474 12.129 15.6772 12.226 15.756 12.2534L15.7591 12.2545L15.7621 12.2557C15.9468 12.3265 16.1447 12.3116 16.3745 12.1789C16.5508 12.0771 16.6532 11.947 16.6987 11.7871C16.7438 11.6291 16.7222 11.4779 16.6245 11.321C16.5853 11.258 16.5425 11.2109 16.4973 11.1762L16.4946 11.1741L16.4919 11.1719C16.4493 11.1368 16.3986 11.11 16.3368 11.0926L16.3334 11.0916L16.3301 11.0905C16.2674 11.0706 16.1892 11.0584 16.0923 11.058L16.0891 11.0579C15.9894 11.0559 15.8733 11.0641 15.7399 11.0839L15.1951 11.1719L15.194 11.172C14.7858 11.2357 14.423 11.2259 14.1153 11.127C13.8025 11.0264 13.557 10.8369 13.3869 10.5636C13.1583 10.1962 13.1242 9.79645 13.2752 9.38282Z" fill="white"/>
<ellipse cx="0.845473" cy="0.845484" rx="0.845473" ry="0.845484" transform="matrix(0.86602 -0.50001 0.49999 0.866031 19.2967 14.9741)" fill="#FF1E97"/>
</svg>
