<svg width="24" height="24" viewBox="0 0 24 24" fill="none" xmlns="http://www.w3.org/2000/svg">
<path d="M9.32579 21.3186L12.0072 24L14.6886 21.3186L12.0072 18.6372L9.32579 21.3186Z" fill="white"/>
<path d="M13.0587 17.5797L15.7401 20.2611L18.4215 17.5797L15.7401 14.8983L13.0587 17.5797Z" fill="white"/>
<path d="M16.8044 13.8355L19.4858 16.5169L22.1672 13.8355L19.4858 11.154L16.8044 13.8355Z" fill="white"/>
<path d="M5.57932 17.5737L8.26073 20.2551L10.9421 17.5737L8.26073 14.8923L5.57932 17.5737Z" fill="white"/>
<path d="M9.31747 13.8294L11.9989 16.5108L14.6803 13.8294L11.9989 11.148L9.31747 13.8294Z" fill="white"/>
<path d="M9.31734 2.68141L11.9987 5.36281L14.6802 2.68141L11.9987 0L9.31734 2.68141Z" fill="white"/>
<path d="M13.058 10.0905L15.7394 12.7719L18.4208 10.0905L15.7394 7.40913L13.058 10.0905Z" fill="white"/>
<path d="M1.83273 13.8288L4.51414 16.5102L7.19555 13.8288L4.51414 11.1474L1.83273 13.8288Z" fill="white"/>
<path d="M5.5787 10.0845L8.26011 12.7659L10.9415 10.0845L8.26011 7.40311L5.5787 10.0845Z" fill="white"/>
</svg>
