<svg width="24" height="24" viewBox="0 0 24 24" fill="none" xmlns="http://www.w3.org/2000/svg">
    <path d="M9.32582 21.3186L12.0072 24L14.6886 21.3186L12.0072 18.6372L9.32582 21.3186Z" fill="#231F20"/>
    <path d="M13.0587 17.5797L15.7402 20.2611L18.4216 17.5797L15.7402 14.8983L13.0587 17.5797Z" fill="#231F20"/>
    <path d="M16.8045 13.8355L19.4859 16.5169L22.1673 13.8355L19.4859 11.154L16.8045 13.8355Z" fill="#231F20"/>
    <path d="M5.57935 17.5737L8.26076 20.2551L10.9422 17.5737L8.26076 14.8923L5.57935 17.5737Z" fill="#231F20"/>
    <path d="M9.3175 13.8294L11.9989 16.5108L14.6803 13.8294L11.9989 11.148L9.3175 13.8294Z" fill="#231F20"/>
    <path d="M9.31737 2.68141L11.9988 5.36281L14.6802 2.68141L11.9988 0L9.31737 2.68141Z" fill="#231F20"/>
    <path d="M13.058 10.0905L15.7394 12.7719L18.4208 10.0905L15.7394 7.40913L13.058 10.0905Z" fill="#231F20"/>
    <path d="M1.83276 13.8288L4.51417 16.5102L7.19558 13.8288L4.51417 11.1474L1.83276 13.8288Z" fill="#231F20"/>
    <path d="M5.57873 10.0845L8.26014 12.7659L10.9415 10.0845L8.26014 7.40311L5.57873 10.0845Z" fill="#231F20"/>
</svg>
