<svg width="24" height="24" viewBox="0 0 24 24" fill="none" xmlns="http://www.w3.org/2000/svg">
    <circle cx="12" cy="12" r="11" fill="black"/>
    <g clip-path="url(#clip0_3139_22673)">
        <path d="M6.29154 11.6511C6.92575 11.6511 7.43989 11.1696 7.43989 10.5756C7.43989 9.98154 6.92575 9.5 6.29154 9.5C5.65732 9.5 5.14319 9.98154 5.14319 10.5756C5.14319 11.1696 5.65732 11.6511 6.29154 11.6511Z"
              fill="#E6007A"/>
        <path d="M4.08876 9.55513C4.25303 9.5509 4.41642 9.57909 4.56829 9.63787C4.69265 9.68687 4.79807 9.77025 4.87046 9.87688C4.94316 9.99317 4.97936 10.1263 4.97492 10.261C4.97936 10.3957 4.94316 10.5288 4.87046 10.6451C4.79807 10.7518 4.69265 10.8351 4.56829 10.8841C4.41642 10.9429 4.25303 10.9711 4.08876 10.9669H3.67723V11.6071H3V9.55513H4.08876ZM3.9815 10.5066C4.06387 10.5111 4.14551 10.4899 4.21355 10.4462C4.242 10.4236 4.26432 10.3951 4.2787 10.3629C4.29309 10.3307 4.29911 10.2958 4.29628 10.261C4.29911 10.2262 4.29309 10.1913 4.2787 10.1591C4.26432 10.1269 4.242 10.0984 4.21355 10.0758C4.14551 10.0321 4.06387 10.0109 3.9815 10.0154H3.67723V10.5066H3.9815Z"
              fill="white"/>
        <path d="M8.39333 11.1317H9.43582V11.6071H7.7168V9.55515H8.39333V11.1317Z" fill="white"/>
        <path d="M10.3984 9.55515V11.6071H9.72119V9.55515H10.3984ZM11.8006 9.55515L10.749 10.7896L10.7153 10.6681L10.2162 11.2729L10.0696 10.8034L11.0687 9.5558L11.8006 9.55515ZM10.9922 10.2052L11.8553 11.6071H11.089L10.4917 10.5565L10.9922 10.2052Z"
              fill="white"/>
        <path d="M11.8524 11.6071L12.5892 9.55515H13.4025L14.1421 11.6071H13.446L13.0877 10.3635L12.9938 10.0253H12.9875L12.8977 10.3575L12.5296 11.6051L11.8524 11.6071ZM12.3796 11.181V10.7706H13.6177V11.181H12.3796Z"
              fill="white"/>
        <path d="M15.3389 9.55515C15.6815 9.55515 15.9425 9.64423 16.122 9.82239C16.3014 10.0006 16.3909 10.2536 16.3905 10.5815C16.3905 10.9067 16.3017 11.1591 16.1241 11.3386C15.9465 11.518 15.6848 11.6075 15.3389 11.6071H14.335V9.55515H15.3389ZM15.2576 11.1416C15.4216 11.1416 15.538 11.0956 15.5997 11.0037C15.6614 10.9117 15.6958 10.7699 15.6958 10.5795C15.6958 10.3891 15.6635 10.2472 15.5997 10.1546C15.5359 10.0621 15.4216 10.0168 15.2576 10.0168H15.0122V11.1416H15.2576Z"
              fill="white"/>
        <path d="M20.9999 9.55515V10.0312H20.3031V11.6071H19.6258V10.0312H18.9248V9.55515H20.9999Z" fill="white"/>
        <path d="M4.00604 12.3366C4.34863 12.3366 4.60965 12.4257 4.78914 12.6039C4.96861 12.7821 5.05811 13.0351 5.05764 13.363C5.05764 13.6878 4.96813 13.9399 4.78914 14.1194C4.61013 14.2989 4.34909 14.3886 4.00604 14.3886H3V12.3366H4.00604ZM3.92261 13.925C4.08666 13.925 4.20304 13.8791 4.26473 13.7871C4.32643 13.6952 4.36078 13.5534 4.36078 13.363C4.36078 13.1725 4.33204 13.0307 4.26192 12.9381C4.19182 12.8455 4.08386 12.8002 3.9198 12.8002H3.67723V13.925H3.92261Z"
              fill="white"/>
        <path d="M5.38367 14.3886V12.3366H7.14546V12.8127H6.0567V13.145H6.92602V13.5862H6.0567V13.9145H7.18893V14.3899L5.38367 14.3886Z"
              fill="white"/>
        <path d="M9.45613 13.7792C9.42371 13.9165 9.35446 14.0437 9.25492 14.1489C9.16218 14.2455 9.04431 14.3179 8.9128 14.359C8.76998 14.4036 8.62027 14.4258 8.46973 14.4247C8.26588 14.428 8.06447 14.3828 7.88433 14.2934C7.72143 14.2116 7.58892 14.0855 7.50435 13.9316C7.41085 13.7551 7.36512 13.5598 7.37114 13.3629C7.36506 13.1658 7.4108 12.9703 7.50435 12.7936C7.58892 12.6397 7.72143 12.5136 7.88433 12.4318C8.06449 12.3442 8.26541 12.3009 8.46832 12.3058C8.61743 12.3042 8.76582 12.3251 8.90789 12.3675C9.03593 12.4058 9.15246 12.4719 9.24792 12.5605C9.34463 12.654 9.41037 12.7717 9.4372 12.8994L8.8497 13.12C8.82516 12.9887 8.7796 12.8994 8.72211 12.8573C8.65403 12.8117 8.57163 12.7886 8.48795 12.7917C8.40671 12.7904 8.32714 12.8134 8.26081 12.8573C8.19373 12.905 8.14383 12.9708 8.11779 13.0458C8.08275 13.1489 8.06664 13.2568 8.07012 13.3649C8.0673 13.4719 8.0822 13.5787 8.11429 13.6814C8.13784 13.7578 8.18701 13.825 8.2545 13.8731C8.32764 13.9187 8.41419 13.9416 8.50197 13.9388C8.58562 13.9411 8.66722 13.9144 8.73122 13.8639C8.79961 13.8018 8.84294 13.7195 8.85391 13.6308L9.45613 13.7792Z"
              fill="white"/>
        <path d="M13.1466 12.3366C13.4896 12.3366 13.7507 12.4257 13.9297 12.6039C14.1087 12.7821 14.1984 13.0351 14.1989 13.363C14.1989 13.6878 14.1091 13.9399 13.9297 14.1194C13.7502 14.2989 13.4892 14.3886 13.1466 14.3886H12.1412V12.3366H13.1466ZM13.0638 13.925C13.2272 13.925 13.3443 13.8791 13.4053 13.7871C13.4663 13.6952 13.502 13.5534 13.502 13.363C13.502 13.1725 13.4698 13.0307 13.4053 12.9381C13.3408 12.8455 13.2272 12.8002 13.0638 12.8002H12.815V13.925H13.0638Z"
              fill="white"/>
        <path d="M14.5208 14.3886V12.3366H16.2867V12.8127H15.1987V13.145H16.0681V13.5862H15.1987V13.9145H16.3302V14.3899L14.5208 14.3886Z"
              fill="white"/>
        <path d="M17.611 12.3366C17.9541 12.3366 18.2152 12.4257 18.3942 12.6039C18.5732 12.7821 18.6629 13.0351 18.6633 13.363C18.6633 13.6878 18.5736 13.9399 18.3942 14.1194C18.2147 14.2989 17.9536 14.3886 17.611 14.3886H16.605V12.3366H17.611ZM17.5276 13.925C17.6917 13.925 17.8057 13.8791 17.8698 13.7871C17.9343 13.6945 17.9658 13.5534 17.9658 13.363C17.9658 13.1725 17.9343 13.0307 17.8698 12.9381C17.8052 12.8455 17.6917 12.8002 17.5276 12.8002H17.2822V13.925H17.5276Z"
              fill="white"/>
        <path d="M10.7553 14.3919C11.3895 14.3919 11.9036 13.9103 11.9036 13.3163C11.9036 12.7223 11.3895 12.2408 10.7553 12.2408C10.1211 12.2408 9.60693 12.7223 9.60693 13.3163C9.60693 13.9103 10.1211 14.3919 10.7553 14.3919Z"
              fill="#E6007A"/>
        <path d="M17.728 11.657C18.3623 11.657 18.8765 11.1755 18.8765 10.5814C18.8765 9.98743 18.3623 9.50589 17.728 9.50589C17.0939 9.50589 16.5797 9.98743 16.5797 10.5814C16.5797 11.1755 17.0939 11.657 17.728 11.657Z"
              fill="#E6007A"/>
    </g>
    <defs>
        <clipPath id="clip0_3139_22673">
            <rect width="18" height="5" fill="white" transform="translate(3 9.5)"/>
        </clipPath>
    </defs>
</svg>
