<svg width="24" height="24" viewBox="0 0 24 24" fill="none" xmlns="http://www.w3.org/2000/svg">
<circle cx="12" cy="12" r="11" fill="white"/>
<g clip-path="url(#clip0_5353_42832)">
<path d="M6.29154 11.6511C6.92575 11.6511 7.43989 11.1696 7.43989 10.5756C7.43989 9.98154 6.92575 9.5 6.29154 9.5C5.65732 9.5 5.14319 9.98154 5.14319 10.5756C5.14319 11.1696 5.65732 11.6511 6.29154 11.6511Z" fill="#E6007A"/>
<path d="M4.08876 9.5551C4.25303 9.55087 4.41642 9.57906 4.56829 9.63784C4.69265 9.68683 4.79807 9.77022 4.87046 9.87685C4.94316 9.99314 4.97936 10.1263 4.97492 10.261C4.97936 10.3957 4.94316 10.5288 4.87046 10.6451C4.79807 10.7517 4.69265 10.8351 4.56829 10.8841C4.41642 10.9429 4.25303 10.9711 4.08876 10.9669H3.67723V11.6071H3V9.5551H4.08876ZM3.9815 10.5066C4.06387 10.5111 4.14551 10.4899 4.21355 10.4461C4.242 10.4236 4.26432 10.3951 4.2787 10.3629C4.29309 10.3307 4.29911 10.2958 4.29628 10.261C4.29911 10.2262 4.29309 10.1913 4.2787 10.1591C4.26432 10.1269 4.242 10.0983 4.21355 10.0758C4.14551 10.0321 4.06387 10.0108 3.9815 10.0154H3.67723V10.5066H3.9815Z" fill="black"/>
<path d="M8.39333 11.1317H9.43582V11.6071H7.7168V9.55518H8.39333V11.1317Z" fill="black"/>
<path d="M10.3984 9.55518V11.6071H9.72116V9.55518H10.3984ZM11.8005 9.55518L10.7489 10.7896L10.7153 10.6682L10.2161 11.2729L10.0696 10.8034L11.0686 9.55583L11.8005 9.55518ZM10.9922 10.2052L11.8552 11.6071H11.089L10.4916 10.5565L10.9922 10.2052Z" fill="black"/>
<path d="M11.8524 11.6071L12.5892 9.55518H13.4025L14.1421 11.6071H13.446L13.0877 10.3635L12.9938 10.0253H12.9875L12.8977 10.3576L12.5296 11.6052L11.8524 11.6071ZM12.3796 11.181V10.7706H13.6177V11.181H12.3796Z" fill="black"/>
<path d="M15.3388 9.55518C15.6814 9.55518 15.9425 9.64426 16.122 9.82242C16.3014 10.0006 16.3909 10.2536 16.3904 10.5815C16.3904 10.9067 16.3016 11.1591 16.1241 11.3386C15.9464 11.5181 15.6847 11.6076 15.3388 11.6071H14.3349V9.55518H15.3388ZM15.2575 11.1416C15.4216 11.1416 15.5379 11.0956 15.5996 11.0037C15.6614 10.9118 15.6958 10.7699 15.6958 10.5795C15.6958 10.3891 15.6634 10.2473 15.5996 10.1547C15.5358 10.0621 15.4216 10.0168 15.2575 10.0168H15.0122V11.1416H15.2575Z" fill="black"/>
<path d="M21 9.55518V10.0312H20.3032V11.6071H19.6259V10.0312H18.9249V9.55518H21Z" fill="black"/>
<path d="M4.00604 12.3364C4.34863 12.3364 4.60965 12.4255 4.78914 12.6037C4.96861 12.7818 5.05811 13.0349 5.05764 13.3627C5.05764 13.6876 4.96813 13.9397 4.78914 14.1192C4.61013 14.2987 4.34909 14.3884 4.00604 14.3884H3V12.3364H4.00604ZM3.92261 13.9248C4.08666 13.9248 4.20304 13.8789 4.26473 13.7869C4.32643 13.695 4.36078 13.5532 4.36078 13.3627C4.36078 13.1723 4.33204 13.0305 4.26192 12.9379C4.19182 12.8453 4.08386 12.8 3.9198 12.8H3.67723V13.9248H3.92261Z" fill="black"/>
<path d="M5.38364 14.3884V12.3364H7.14543V12.8125H6.05666V13.1447H6.92599V13.586H6.05666V13.9143H7.1889V14.3897L5.38364 14.3884Z" fill="black"/>
<path d="M9.45616 13.779C9.42374 13.9163 9.35449 14.0435 9.25495 14.1487C9.16221 14.2452 9.04434 14.3176 8.91283 14.3588C8.77001 14.4034 8.6203 14.4256 8.46976 14.4245C8.26591 14.4278 8.0645 14.3826 7.88436 14.2932C7.72146 14.2114 7.58895 14.0853 7.50439 13.9314C7.41088 13.7549 7.36515 13.5596 7.37117 13.3627C7.36509 13.1656 7.41083 12.9701 7.50439 12.7934C7.58895 12.6395 7.72146 12.5134 7.88436 12.4316C8.06452 12.344 8.26544 12.3006 8.46835 12.3056C8.61746 12.304 8.76585 12.3249 8.90792 12.3673C9.03596 12.4056 9.15249 12.4717 9.24795 12.5603C9.34466 12.6538 9.4104 12.7714 9.43723 12.8991L8.84973 13.1198C8.82519 12.9884 8.77963 12.8991 8.72214 12.8571C8.65406 12.8114 8.57166 12.7883 8.48798 12.7915C8.40674 12.7902 8.32717 12.8132 8.26084 12.8571C8.19376 12.9048 8.14386 12.9706 8.11782 13.0456C8.08279 13.1487 8.06667 13.2566 8.07015 13.3647C8.06733 13.4717 8.08223 13.5785 8.11432 13.6812C8.13787 13.7575 8.18704 13.8248 8.25453 13.8729C8.32767 13.9185 8.41422 13.9414 8.502 13.9386C8.58565 13.9408 8.66725 13.9142 8.73125 13.8637C8.79964 13.8016 8.84297 13.7193 8.85394 13.6306L9.45616 13.779Z" fill="black"/>
<path d="M13.1466 12.3364C13.4897 12.3364 13.7507 12.4255 13.9297 12.6037C14.1087 12.7818 14.1984 13.0349 14.1989 13.3627C14.1989 13.6876 14.1092 13.9397 13.9297 14.1192C13.7502 14.2987 13.4892 14.3884 13.1466 14.3884H12.1413V12.3364H13.1466ZM13.0639 13.9248C13.2272 13.9248 13.3443 13.8789 13.4053 13.7869C13.4663 13.695 13.502 13.5532 13.502 13.3627C13.502 13.1723 13.4698 13.0305 13.4053 12.9379C13.3408 12.8453 13.2272 12.8 13.0639 12.8H12.815V13.9248H13.0639Z" fill="black"/>
<path d="M14.5207 14.3884V12.3364H16.2867V12.8125H15.1986V13.1447H16.068V13.586H15.1986V13.9143H16.3302V14.3897L14.5207 14.3884Z" fill="black"/>
<path d="M17.611 12.3364C17.9541 12.3364 18.2152 12.4255 18.3942 12.6037C18.5732 12.7818 18.6628 13.0349 18.6633 13.3627C18.6633 13.6876 18.5736 13.9397 18.3942 14.1192C18.2147 14.2987 17.9536 14.3884 17.611 14.3884H16.6049V12.3364H17.611ZM17.5276 13.9248C17.6917 13.9248 17.8057 13.8789 17.8697 13.7869C17.9343 13.6943 17.9657 13.5532 17.9657 13.3627C17.9657 13.1723 17.9343 13.0305 17.8697 12.9379C17.8052 12.8453 17.6917 12.8 17.5276 12.8H17.2822V13.9248H17.5276Z" fill="black"/>
<path d="M10.7553 14.3918C11.3895 14.3918 11.9036 13.9103 11.9036 13.3163C11.9036 12.7223 11.3895 12.2407 10.7553 12.2407C10.121 12.2407 9.6069 12.7223 9.6069 13.3163C9.6069 13.9103 10.121 14.3918 10.7553 14.3918Z" fill="#E6007A"/>
<path d="M17.728 11.657C18.3623 11.657 18.8765 11.1754 18.8765 10.5814C18.8765 9.9874 18.3623 9.50586 17.728 9.50586C17.0939 9.50586 16.5797 9.9874 16.5797 10.5814C16.5797 11.1754 17.0939 11.657 17.728 11.657Z" fill="#E6007A"/>
</g>
<defs>
<clipPath id="clip0_5353_42832">
<rect width="18" height="5" fill="white" transform="translate(3 9.5)"/>
</clipPath>
</defs>
</svg>
