<svg width="24" height="24" viewBox="0 0 24 24" fill="none" xmlns="http://www.w3.org/2000/svg">
<g clip-path="url(#clip0_5353_42697)">
<path d="M23 12C23 18.0751 18.0751 23 12 23C5.92487 23 1 18.0751 1 12C1 5.92487 5.92487 1 12 1C18.0751 1 23 5.92487 23 12Z" fill="#0F0F0F"/>
<path fill-rule="evenodd" clip-rule="evenodd" d="M12 21C16.9706 21 21 16.9706 21 12C21 7.02944 16.9706 3 12 3C7.02944 3 3 7.02944 3 12C3 16.9706 7.02944 21 12 21ZM12 23C18.0751 23 23 18.0751 23 12C23 5.92487 18.0751 1 12 1C5.92487 1 1 5.92487 1 12C1 18.0751 5.92487 23 12 23Z" fill="#1F1F1F"/>
<path d="M17.0001 9.27275C17.0001 8.01754 15.9826 7 14.7274 7C13.4722 7 12.4546 8.01754 12.4546 9.27275C12.4546 10.528 13.4722 11.5455 14.7274 11.5455C15.9826 11.5455 17.0001 10.528 17.0001 9.27275Z" fill="#333333"/>
<path d="M10.4416 7H8.10388C7.49421 7 6.99997 7.49424 6.99997 8.10391V10.4416C6.99997 11.0513 7.49421 11.5455 8.10388 11.5455H10.4416C11.0512 11.5455 11.5455 11.0513 11.5455 10.4416V8.10391C11.5455 7.49424 11.0512 7 10.4416 7Z" fill="#333333"/>
<path d="M10.4416 12.4546H8.10388C7.49421 12.4546 6.99997 12.9488 6.99997 13.5585V15.8962C6.99997 16.5058 7.49421 17.0001 8.10388 17.0001H10.4416C11.0512 17.0001 11.5455 16.5058 11.5455 15.8962V13.5585C11.5455 12.9488 11.0512 12.4546 10.4416 12.4546Z" fill="#333333"/>
<path d="M15.8962 12.4546H13.5585C12.9489 12.4546 12.4546 12.9488 12.4546 13.5585V15.8962C12.4546 16.5058 12.9489 17.0001 13.5585 17.0001H15.8962C16.5059 17.0001 17.0001 16.5058 17.0001 15.8962V13.5585C17.0001 12.9488 16.5059 12.4546 15.8962 12.4546Z" fill="#333333"/>
</g>
<defs>
<clipPath id="clip0_5353_42697">
<rect width="24" height="24" fill="white"/>
</clipPath>
</defs>
</svg>
