<svg width="24" height="24" viewBox="0 0 24 24" fill="none" xmlns="http://www.w3.org/2000/svg">
<path d="M8.29412 5.64706C8.29412 4.18513 7.10899 3 5.64706 3C4.18513 3 3 4.18513 3 5.64706C3 7.10899 4.18513 8.29412 5.64706 8.29412C7.10899 8.29412 8.29412 7.10899 8.29412 5.64706Z" fill="#DF405D"/>
<path d="M19.7143 3H16.9916C16.2815 3 15.7059 3.57563 15.7059 4.28572V7.00841C15.7059 7.71849 16.2815 8.29412 16.9916 8.29412H19.7143C20.4244 8.29412 21 7.71849 21 7.00841V4.28572C21 3.57563 20.4244 3 19.7143 3Z" fill="#F1AC26"/>
<path d="M14.6471 11.9999C14.6471 10.538 13.462 9.35287 12.0001 9.35287C10.5381 9.35287 9.353 10.538 9.353 11.9999C9.353 13.4619 10.5381 14.647 12.0001 14.647C13.462 14.647 14.6471 13.4619 14.6471 11.9999Z" fill="#DF405D"/>
<path d="M7.00841 9.35287H4.28572C3.57563 9.35287 3 9.92851 3 10.6386V13.3613C3 14.0714 3.57563 14.647 4.28572 14.647H7.00841C7.71849 14.647 8.29412 14.0714 8.29412 13.3613V10.6386C8.29412 9.92851 7.71849 9.35287 7.00841 9.35287Z" fill="#F1AC26"/>
<path d="M7.00841 15.7057H4.28572C3.57563 15.7057 3 16.2814 3 16.9915V19.7142C3 20.4242 3.57563 20.9999 4.28572 20.9999H7.00841C7.71849 20.9999 8.29412 20.4242 8.29412 19.7142V16.9915C8.29412 16.2814 7.71849 15.7057 7.00841 15.7057Z" fill="#F1AC26"/>
<path d="M13.3614 15.7057H10.6387C9.92863 15.7057 9.353 16.2814 9.353 16.9915V19.7142C9.353 20.4242 9.92863 20.9999 10.6387 20.9999H13.3614C14.0715 20.9999 14.6471 20.4242 14.6471 19.7142V16.9915C14.6471 16.2814 14.0715 15.7057 13.3614 15.7057Z" fill="#F1AC26"/>
<path d="M21 18.3528C21 16.8909 19.8149 15.7057 18.3529 15.7057C16.891 15.7057 15.7059 16.8909 15.7059 18.3528C15.7059 19.8147 16.891 20.9999 18.3529 20.9999C19.8149 20.9999 21 19.8147 21 18.3528Z" fill="#DF405D"/>
</svg>
