<svg width="24" height="24" viewBox="0 0 24 24" fill="none" xmlns="http://www.w3.org/2000/svg">
<path d="M8.29412 5.64706C8.29412 4.18513 7.10899 3 5.64706 3C4.18513 3 3 4.18513 3 5.64706C3 7.10899 4.18513 8.29412 5.64706 8.29412C7.10899 8.29412 8.29412 7.10899 8.29412 5.64706Z" fill="#DF405D"/>
<path d="M19.7142 3H16.9915C16.2814 3 15.7058 3.57563 15.7058 4.28572V7.00841C15.7058 7.71849 16.2814 8.29412 16.9915 8.29412H19.7142C20.4243 8.29412 20.9999 7.71849 20.9999 7.00841V4.28572C20.9999 3.57563 20.4243 3 19.7142 3Z" fill="#F1AC26"/>
<path d="M14.6472 11.9996C14.6472 10.5377 13.462 9.35254 12.0001 9.35254C10.5382 9.35254 9.35303 10.5377 9.35303 11.9996C9.35303 13.4615 10.5382 14.6467 12.0001 14.6467C13.462 14.6467 14.6472 13.4615 14.6472 11.9996Z" fill="#DF405D"/>
<path d="M7.00841 9.35254H4.28572C3.57563 9.35254 3 9.92817 3 10.6383V13.3609C3 14.071 3.57563 14.6467 4.28572 14.6467H7.00841C7.71849 14.6467 8.29412 14.071 8.29412 13.3609V10.6383C8.29412 9.92817 7.71849 9.35254 7.00841 9.35254Z" fill="#F1AC26"/>
<path d="M7.00841 15.7061H4.28572C3.57563 15.7061 3 16.2817 3 16.9918V19.7145C3 20.4245 3.57563 21.0002 4.28572 21.0002H7.00841C7.71849 21.0002 8.29412 20.4245 8.29412 19.7145V16.9918C8.29412 16.2817 7.71849 15.7061 7.00841 15.7061Z" fill="#F1AC26"/>
<path d="M13.3614 15.7061H10.6387C9.92866 15.7061 9.35303 16.2817 9.35303 16.9918V19.7145C9.35303 20.4245 9.92866 21.0002 10.6387 21.0002H13.3614C14.0715 21.0002 14.6472 20.4245 14.6472 19.7145V16.9918C14.6472 16.2817 14.0715 15.7061 13.3614 15.7061Z" fill="#F1AC26"/>
<path d="M20.9999 18.3531C20.9999 16.8912 19.8148 15.7061 18.3529 15.7061C16.8909 15.7061 15.7058 16.8912 15.7058 18.3531C15.7058 19.815 16.8909 21.0002 18.3529 21.0002C19.8148 21.0002 20.9999 19.815 20.9999 18.3531Z" fill="#DF405D"/>
</svg>
