<svg width="24" height="24" viewBox="0 0 24 24" fill="none" xmlns="http://www.w3.org/2000/svg">
<path d="M19.5614 13.2766C19.5356 11.8371 19.5559 10.3969 19.5559 8.95697H19.5486C19.5486 7.33973 19.549 5.72229 19.5482 4.10506C19.5478 3.53182 19.5172 3.47561 18.9703 3.34595C17.0854 2.89933 15.2001 2.45373 13.3102 2.02903C12.7065 1.89328 12.0929 1.80075 11.4641 1.90464C9.23281 2.27233 7.04802 2.84333 4.85897 3.39668C4.60532 3.4606 4.46978 3.60446 4.45537 3.86379C4.4507 3.94557 4.44238 4.02714 4.44238 4.10891C4.44076 7.20702 4.4438 10.3051 4.43751 13.4035C4.43528 14.5491 4.71754 15.6183 5.26663 16.6176C6.10507 18.1438 7.31526 19.333 8.70117 20.3568C9.62586 21.04 10.6078 21.6266 11.6743 22.0675C11.9123 22.1659 12.1225 22.1647 12.3599 22.0659C13.2018 21.7159 13.9902 21.2697 14.7436 20.7606C16.1463 19.8125 17.3935 18.7008 18.3405 17.282C19.1491 16.071 19.5878 14.7508 19.5614 13.2766Z" fill="#29594B"/>
<path d="M5.30239 4.17151C5.30112 7.24933 5.30368 10.3272 5.29773 13.405C5.2957 14.3993 5.53209 15.3146 6.02031 16.2034C6.71651 17.4708 7.73068 18.5706 9.21217 19.6649C10.1515 20.3591 11.0644 20.885 12.0029 21.2726C12.0075 21.2746 12.0116 21.2761 12.015 21.2773C12.0191 21.2759 12.0238 21.2742 12.0294 21.2718C12.7664 20.9654 13.4967 20.5652 14.2619 20.048C15.731 19.0552 16.8308 17.9945 17.6252 16.8046C18.3716 15.6866 18.7236 14.5372 18.7013 13.292C18.6469 10.25 18.6897 7.20544 18.6881 4.16299C16.7105 3.69446 14.9222 3.2728 13.1217 2.86819C12.6349 2.75861 12.1139 2.66893 11.6039 2.75314C9.47782 3.10331 7.38942 3.64299 5.30239 4.17151ZM12.0148 23C11.7912 23 11.5676 22.954 11.3456 22.8625C10.2763 22.4203 9.24382 21.827 8.18988 21.0484C6.52435 19.8181 5.32167 18.5042 4.51265 17.0317C3.88949 15.8974 3.57477 14.676 3.57741 13.4017C3.58167 11.3058 3.58187 9.17459 3.58187 7.11338C3.58187 6.11179 3.58187 5.11 3.58228 4.10841C3.58228 4.02237 3.58755 3.94668 3.59222 3.87992C3.59385 3.85862 3.59527 3.83731 3.59648 3.81601C3.63179 3.18859 4.02484 2.72026 4.64799 2.5628L5.17719 2.42888C7.17287 1.92281 9.23672 1.39989 11.3241 1.05595C12.1268 0.923651 12.874 1.04946 13.499 1.18987C15.3339 1.6022 17.152 2.03136 19.1684 2.50923C19.4685 2.58025 19.8794 2.67765 20.1534 3.04472C20.4076 3.38542 20.4078 3.76751 20.408 4.10455C20.4102 7.15581 20.3664 10.2104 20.4214 13.2611C20.4494 14.8465 19.9902 16.36 19.0558 17.7595C18.1354 19.1383 16.8824 20.3532 15.225 21.4731C14.3634 22.0555 13.5341 22.5092 12.6899 22.8602C12.4659 22.9534 12.2403 23 12.0148 23Z" fill="#52B196"/>
<path d="M10.7338 11.4885C10.3846 11.4116 10.1253 11.5068 9.91304 11.7129C9.47921 12.134 9.047 12.5575 8.63163 12.9964C8.29053 13.357 8.29378 13.8945 8.60951 14.225C8.9423 14.5732 9.49423 14.5854 9.87368 14.2265C10.325 13.7993 10.7616 13.3566 11.1959 12.912C11.4144 12.6884 11.5262 12.4227 11.4152 12.0417C11.1987 12.2375 11.0234 12.4102 10.8329 12.5644C10.6669 12.6989 10.4842 12.6867 10.3302 12.5396C10.1732 12.3897 10.1754 12.2095 10.2976 12.04C10.423 11.8655 10.5636 11.7022 10.7338 11.4885ZM13.1029 10.4043C13.4182 10.5062 13.6743 10.4161 13.8894 10.2075C14.3478 9.76273 14.8094 9.32017 15.2475 8.8557C15.6164 8.46488 15.5931 7.93974 15.2278 7.59498C14.8859 7.27174 14.3796 7.27499 14.0034 7.62948C13.5509 8.05601 13.1106 8.49613 12.6751 8.94052C12.4568 9.16352 12.3517 9.42873 12.4714 9.76293C12.695 9.66432 12.8099 9.49833 12.9391 9.34919C13.112 9.14932 13.323 9.1485 13.5132 9.28689C13.7323 9.44659 13.7047 9.65884 13.5511 9.86094C13.4121 10.0436 13.1877 10.1572 13.1029 10.4043V10.4043ZM10.5959 10.631C10.8237 10.62 11.0425 10.6418 11.2385 10.753C11.4 10.8449 11.5159 10.8006 11.6364 10.6769C11.76 10.5502 11.8517 10.4435 11.772 10.2402C11.4552 9.43096 11.6963 8.76885 12.3182 8.19744C12.7395 7.81048 13.1157 7.37421 13.5412 6.99233C14.1528 6.44385 15.0492 6.43877 15.6764 6.94545C16.2876 7.43915 16.4589 8.30519 16.1046 9.00342C15.9512 9.30597 15.648 9.44253 15.4384 9.68055C15.1199 10.0428 14.8019 10.407 14.4581 10.7444C13.9716 11.2219 13.3837 11.3652 12.737 11.1336C12.5246 11.0577 12.3801 11.0275 12.1991 11.2065C12.026 11.3777 12.0792 11.5123 12.1443 11.6989C12.3768 12.3651 12.2374 12.9605 11.7437 13.4651C11.3081 13.9103 10.8724 14.3557 10.4228 14.7865C9.73914 15.4417 8.75947 15.4513 8.1002 14.8243C7.44904 14.2052 7.40481 13.1875 8.03303 12.5011C8.49832 11.9924 8.99607 11.5123 9.49585 11.0368C9.799 10.7487 10.1724 10.6002 10.5959 10.631" fill="#52B196"/>
</svg>
