<svg width="24" height="24" viewBox="0 0 24 24" fill="none" xmlns="http://www.w3.org/2000/svg">
<path d="M1.40919 9.35567C0.942249 8.54688 1.21935 7.5127 2.02811 7.04574L9.35008 2.81829C10.1588 2.35134 11.193 2.62845 11.6599 3.43723L17.5782 13.6883C18.0451 14.497 17.768 15.5312 16.9593 15.9982L9.63732 20.2256C8.82856 20.6926 7.7944 20.4155 7.32746 19.6067L1.40919 9.35567Z" fill="#00D595"/>
<path fill-rule="evenodd" clip-rule="evenodd" d="M9.56144 3.1844L2.23948 7.41185C1.63291 7.76207 1.42508 8.53771 1.77529 9.14429L7.69356 19.3953C8.04376 20.0019 8.81938 20.2097 9.42595 19.8595L16.7479 15.6321C17.3545 15.2819 17.5623 14.5062 17.2121 13.8996L11.2938 3.64861C10.9436 3.04202 10.168 2.83419 9.56144 3.1844ZM2.02811 7.04574C1.21935 7.5127 0.942249 8.54688 1.40919 9.35567L7.32746 19.6067C7.7944 20.4155 8.82856 20.6926 9.63732 20.2256L16.9593 15.9982C17.768 15.5312 18.0451 14.497 17.5782 13.6883L11.6599 3.43723C11.193 2.62845 10.1588 2.35134 9.35008 2.81829L2.02811 7.04574Z" fill="#000072"/>
<path fill-rule="evenodd" clip-rule="evenodd" d="M4.52231 11.7888C4.46394 11.6877 4.49858 11.5585 4.59968 11.5001L11.9216 7.27264C12.0227 7.21427 12.152 7.24891 12.2104 7.35C12.2687 7.4511 12.2341 7.58037 12.133 7.63874L4.81104 11.8662C4.70995 11.9246 4.58068 11.8899 4.52231 11.7888Z" fill="#000072"/>
<path fill-rule="evenodd" clip-rule="evenodd" d="M5.64963 13.7414C5.59126 13.6403 5.6259 13.511 5.72699 13.4526L13.049 9.22518C13.15 9.16681 13.2793 9.20145 13.3377 9.30255C13.3961 9.40365 13.3614 9.53292 13.2603 9.59129L5.93836 13.8187C5.83727 13.8771 5.708 13.8425 5.64963 13.7414Z" fill="#000072"/>
<path fill-rule="evenodd" clip-rule="evenodd" d="M6.77695 15.6939C6.71858 15.5929 6.75322 15.4636 6.85431 15.4052L14.1763 11.1778C14.2774 11.1194 14.4066 11.154 14.465 11.2551C14.5234 11.3562 14.4887 11.4855 14.3876 11.5439L7.06568 15.7713C6.96459 15.8297 6.83532 15.795 6.77695 15.6939Z" fill="#000072"/>
<path d="M4.45118 9.55193C3.98424 8.74314 4.26134 7.70895 5.07011 7.242L13.6124 2.30998C14.4212 1.84302 15.4553 2.12013 15.9223 2.92892L22.686 14.6444C23.1529 15.4532 22.8758 16.4873 22.0671 16.9543L13.5248 21.8863C12.716 22.3533 11.6819 22.0762 11.2149 21.2674L4.45118 9.55193Z" fill="white"/>
<path fill-rule="evenodd" clip-rule="evenodd" d="M13.8238 2.67608L5.28147 7.60811C4.6749 7.95833 4.46707 8.73397 4.81728 9.34055L11.581 21.056C11.9312 21.6626 12.7068 21.8704 13.3134 21.5202L21.8557 16.5882C22.4623 16.238 22.6701 15.4623 22.3199 14.8557L15.5562 3.14029C15.206 2.5337 14.4303 2.32587 13.8238 2.67608ZM5.07011 7.242C4.26134 7.70895 3.98424 8.74314 4.45118 9.55193L11.2149 21.2674C11.6819 22.0762 12.716 22.3533 13.5248 21.8863L22.0671 16.9543C22.8758 16.4873 23.1529 15.4532 22.686 14.6444L15.9223 2.92892C15.4553 2.12013 14.4212 1.84302 13.6124 2.30998L5.07011 7.242Z" fill="#000072"/>
<ellipse rx="0.845473" ry="0.845484" transform="matrix(0.86602 -0.50001 0.49999 0.866031 20.4517 15.2835)" fill="#FF1E97"/>
<path d="M16.939 10.0216C16.3824 8.66632 15.061 7.78269 13.5959 7.78611H13.5556C12.0897 7.80299 10.7782 8.70114 10.2326 10.0619C8.98012 10.453 8.20031 11.6994 8.39642 12.9968C8.59254 14.2942 9.70592 15.2544 11.018 15.2578H16.2946C17.6353 15.2553 18.7643 14.2548 18.9281 12.9242C19.0918 11.5935 18.2391 10.3491 16.939 10.0216ZM17.8252 14.1099C17.4559 14.4931 16.9476 14.711 16.4154 14.7141H10.8972C9.87086 14.7079 9.01684 13.9236 8.92355 12.9015C8.8 11.8997 9.43717 10.9612 10.4139 10.7063C10.5741 10.6893 10.7088 10.5784 10.7562 10.4244C11.1495 9.20232 12.2722 8.3623 13.5556 8.32989H13.5959C14.8748 8.33281 16.0093 9.15127 16.4154 10.364C16.4135 10.386 16.4208 10.4079 16.4355 10.4244C16.4851 10.5537 16.6006 10.6461 16.7376 10.6661C17.7145 10.8345 18.4236 11.6888 18.4092 12.68C18.4145 13.2157 18.204 13.7311 17.8252 14.1099Z" fill="#000072"/>
<path d="M15.6309 11.673C15.6309 11.2948 15.3243 10.9883 14.9462 10.9883H14.5434V10.7265C14.5325 10.3562 14.2291 10.0617 13.8586 10.0619H12.3683C11.9869 10.0728 11.6834 10.3852 11.6836 10.7667V12.2369C11.6836 12.6151 11.9902 12.9216 12.3683 12.9216H12.7711V13.1835C12.7711 13.5616 13.0777 13.8682 13.4559 13.8682H14.9462C15.3243 13.8682 15.6309 13.5616 15.6309 13.1835V11.673ZM13.476 13.4856C13.3092 13.4856 13.1739 13.3503 13.1739 13.1835V12.9216H13.8788C14.0639 12.9217 14.2412 12.8468 14.3702 12.714C14.4992 12.5812 14.569 12.4018 14.5635 12.2168V11.7938C14.5652 11.7402 14.5431 11.6886 14.5031 11.6529L14.3621 11.6126C14.262 11.6126 14.1809 11.6937 14.1809 11.7938V12.2168C14.1812 12.3872 14.0488 12.5284 13.8788 12.539H12.3885C12.2216 12.539 12.0864 12.4038 12.0864 12.2369V10.7466C12.086 10.5873 12.2094 10.4551 12.3683 10.4445H13.8586C14.0255 10.4445 14.1607 10.5798 14.1607 10.7466V11.0084H13.4559C13.0777 11.0084 12.7711 11.315 12.7711 11.6931V12.1161C12.7711 12.2162 12.8523 12.2973 12.9524 12.2973C13.0525 12.2973 13.1336 12.2162 13.1336 12.1161V11.6931C13.1336 11.5263 13.2689 11.3911 13.4357 11.3911H14.926C15.0964 11.3907 15.2376 11.5231 15.2483 11.6931V13.1835C15.2483 13.3503 15.113 13.4856 14.9462 13.4856H13.476Z" fill="#000072"/>
</svg>
