<svg width="24" height="24" viewBox="0 0 24 24" fill="none" xmlns="http://www.w3.org/2000/svg">
<path d="M1.40911 9.35555C0.942172 8.54676 1.21927 7.51257 2.02804 7.04562L9.35 2.81817C10.1588 2.35122 11.1929 2.62833 11.6599 3.43711L17.5781 13.6881C18.0451 14.4969 17.768 15.5311 16.9592 15.9981L9.63724 20.2255C8.82848 20.6925 7.79432 20.4154 7.32738 19.6066L1.40911 9.35555Z" fill="#00D595"/>
<path fill-rule="evenodd" clip-rule="evenodd" d="M9.56136 3.18428L2.2394 7.41173C1.63283 7.76194 1.425 8.53759 1.77521 9.14417L7.69348 19.3952C8.04368 20.0018 8.8193 20.2096 9.42587 19.8594L16.7478 15.632C17.3544 15.2817 17.5622 14.5061 17.212 13.8995L11.2938 3.64848C10.9436 3.0419 10.1679 2.83406 9.56136 3.18428ZM2.02804 7.04562C1.21927 7.51257 0.942172 8.54676 1.40911 9.35555L7.32738 19.6066C7.79432 20.4154 8.82848 20.6925 9.63724 20.2255L16.9592 15.9981C17.768 15.5311 18.0451 14.4969 17.5781 13.6881L11.6599 3.43711C11.1929 2.62833 10.1588 2.35122 9.35 2.81817L2.02804 7.04562Z" fill="#000072"/>
<path fill-rule="evenodd" clip-rule="evenodd" d="M4.5223 11.7885C4.46394 11.6874 4.49857 11.5582 4.59967 11.4998L11.9216 7.27233C12.0227 7.21396 12.152 7.2486 12.2104 7.3497C12.2687 7.4508 12.2341 7.58007 12.133 7.63844L4.81104 11.8659C4.70994 11.9243 4.58067 11.8896 4.5223 11.7885Z" fill="#000072"/>
<path fill-rule="evenodd" clip-rule="evenodd" d="M5.64959 13.7412C5.59122 13.6401 5.62586 13.5108 5.72696 13.4524L13.0489 9.22497C13.15 9.1666 13.2793 9.20124 13.3377 9.30233C13.396 9.40343 13.3614 9.53271 13.2603 9.59107L5.93832 13.8185C5.83723 13.8769 5.70796 13.8423 5.64959 13.7412Z" fill="#000072"/>
<path fill-rule="evenodd" clip-rule="evenodd" d="M6.77688 15.6938C6.71851 15.5927 6.75315 15.4634 6.85425 15.4051L14.1762 11.1776C14.2773 11.1192 14.4066 11.1539 14.4649 11.255C14.5233 11.3561 14.4887 11.4853 14.3876 11.5437L7.06561 15.7712C6.96452 15.8295 6.83525 15.7949 6.77688 15.6938Z" fill="#000072"/>
<path d="M4.45115 9.55183C3.98421 8.74305 4.26132 7.70886 5.07008 7.24191L13.6124 2.30988C14.4211 1.84293 15.4553 2.12004 15.9222 2.92883L22.686 14.6443C23.1529 15.4531 22.8758 16.4873 22.067 16.9542L13.5247 21.8862C12.716 22.3532 11.6818 22.0761 11.2149 21.2673L4.45115 9.55183Z" fill="white"/>
<path fill-rule="evenodd" clip-rule="evenodd" d="M13.8237 2.67599L5.28144 7.60802C4.67487 7.95823 4.46705 8.73387 4.81725 9.34046L11.581 21.0559C11.9312 21.6625 12.7068 21.8703 13.3134 21.5201L21.8557 16.5881C22.4622 16.2379 22.6701 15.4622 22.3199 14.8557L15.5561 3.1402C15.2059 2.53361 14.4303 2.32578 13.8237 2.67599ZM5.07008 7.24191C4.26132 7.70886 3.98421 8.74305 4.45115 9.55183L11.2149 21.2673C11.6818 22.0761 12.716 22.3532 13.5247 21.8862L22.067 16.9542C22.8758 16.4873 23.1529 15.4531 22.686 14.6443L15.9222 2.92883C15.4553 2.12004 14.4211 1.84293 13.6124 2.30988L5.07008 7.24191Z" fill="#000072"/>
<ellipse cx="0.845473" cy="0.845484" rx="0.845473" ry="0.845484" transform="matrix(0.86602 -0.50001 0.49999 0.866031 19.2967 14.9741)" fill="#FF1E97"/>
<path d="M16.939 10.0216C16.3824 8.66635 15.061 7.78272 13.5959 7.78614H13.5556C12.0897 7.80302 10.7782 8.70117 10.2326 10.0619C8.98012 10.453 8.20031 11.6994 8.39642 12.9968C8.59254 14.2942 9.70592 15.2544 11.018 15.2579H16.2946C17.6353 15.2553 18.7643 14.2549 18.9281 12.9242C19.0918 11.5935 18.2391 10.3492 16.939 10.0216ZM17.8252 14.1099C17.4559 14.4931 16.9476 14.711 16.4154 14.7141H10.8972C9.87086 14.708 9.01684 13.9237 8.92355 12.9016C8.8 11.8997 9.43717 10.9612 10.4139 10.7064C10.5741 10.6893 10.7088 10.5784 10.7562 10.4244C11.1495 9.20235 12.2722 8.36234 13.5556 8.32992H13.5959C14.8748 8.33285 16.0093 9.1513 16.4154 10.364C16.4135 10.386 16.4208 10.4079 16.4355 10.4244C16.4851 10.5537 16.6006 10.6461 16.7376 10.6661C17.7145 10.8345 18.4236 11.6888 18.4092 12.68C18.4145 13.2158 18.204 13.7311 17.8252 14.1099Z" fill="#000072"/>
<path d="M15.6309 11.6732C15.6309 11.295 15.3243 10.9884 14.9462 10.9884H14.5434V10.7266C14.5325 10.3563 14.2291 10.0619 13.8586 10.062H12.3683C11.9869 10.0729 11.6834 10.3853 11.6836 10.7669V12.2371C11.6836 12.6152 11.9902 12.9218 12.3683 12.9218H12.7711V13.1836C12.7711 13.5618 13.0777 13.8684 13.4558 13.8684H14.9462C15.3243 13.8684 15.6309 13.5618 15.6309 13.1836V11.6732ZM13.476 13.4857C13.3091 13.4857 13.1739 13.3505 13.1739 13.1836V12.9218H13.8788C14.0639 12.9219 14.2412 12.847 14.3702 12.7142C14.4992 12.5814 14.569 12.402 14.5635 12.2169V11.794C14.5652 11.7404 14.5431 11.6888 14.5031 11.653L14.3621 11.6127C14.262 11.6127 14.1809 11.6939 14.1809 11.794V12.2169C14.1812 12.3873 14.0488 12.5285 13.8788 12.5392H12.3885C12.2216 12.5392 12.0864 12.4039 12.0864 12.2371V10.7468C12.086 10.5875 12.2094 10.4553 12.3683 10.4447H13.8586C14.0255 10.4447 14.1607 10.5799 14.1607 10.7468V11.0086H13.4558C13.0777 11.0086 12.7711 11.3151 12.7711 11.6933V12.1162C12.7711 12.2163 12.8523 12.2975 12.9524 12.2975C13.0525 12.2975 13.1336 12.2163 13.1336 12.1162V11.6933C13.1336 11.5265 13.2689 11.3912 13.4357 11.3912H14.926C15.0964 11.3909 15.2376 11.5232 15.2483 11.6933V13.1836C15.2483 13.3505 15.113 13.4857 14.9462 13.4857H13.476Z" fill="#000072"/>
</svg>
