<svg width="24" height="24" viewBox="0 0 24 24" fill="none" xmlns="http://www.w3.org/2000/svg">
<path d="M1.40913 9.35567C0.942188 8.54688 1.21929 7.5127 2.02805 7.04574L9.35001 2.81829C10.1588 2.35134 11.1929 2.62845 11.6599 3.43723L17.5781 13.6883C18.0451 14.497 17.768 15.5312 16.9592 15.9982L9.63726 20.2256C8.8285 20.6926 7.79434 20.4155 7.3274 19.6067L1.40913 9.35567Z" fill="#FF8C00"/>
<path fill-rule="evenodd" clip-rule="evenodd" d="M9.56138 3.1844L2.23942 7.41185C1.63285 7.76207 1.42502 8.53771 1.77522 9.14429L7.6935 19.3953C8.0437 20.0019 8.81932 20.2097 9.42589 19.8595L16.7479 15.6321C17.3544 15.2819 17.5623 14.5062 17.212 13.8996L11.2938 3.64861C10.9436 3.04202 10.168 2.83419 9.56138 3.1844ZM2.02805 7.04574C1.21929 7.5127 0.942188 8.54688 1.40913 9.35567L7.3274 19.6067C7.79434 20.4155 8.8285 20.6926 9.63726 20.2256L16.9592 15.9982C17.768 15.5312 18.0451 14.497 17.5781 13.6883L11.6599 3.43723C11.1929 2.62845 10.1588 2.35134 9.35001 2.81829L2.02805 7.04574Z" fill="#000072"/>
<path fill-rule="evenodd" clip-rule="evenodd" d="M4.52231 11.7888C4.46394 11.6877 4.49858 11.5585 4.59968 11.5001L11.9216 7.27264C12.0227 7.21427 12.152 7.24891 12.2104 7.35C12.2687 7.4511 12.2341 7.58037 12.133 7.63874L4.81104 11.8662C4.70995 11.9246 4.58068 11.8899 4.52231 11.7888Z" fill="#000072"/>
<path fill-rule="evenodd" clip-rule="evenodd" d="M5.64957 13.7414C5.5912 13.6403 5.62584 13.511 5.72693 13.4527L13.0489 9.22521C13.15 9.16684 13.2793 9.20148 13.3376 9.30258C13.396 9.40368 13.3614 9.53295 13.2603 9.59132L5.9383 13.8188C5.8372 13.8771 5.70794 13.8425 5.64957 13.7414Z" fill="#000072"/>
<path fill-rule="evenodd" clip-rule="evenodd" d="M6.77689 15.6939C6.71852 15.5929 6.75316 15.4636 6.85425 15.4052L14.1762 11.1778C14.2773 11.1194 14.4066 11.154 14.4649 11.2551C14.5233 11.3562 14.4887 11.4855 14.3876 11.5439L7.06562 15.7713C6.96452 15.8297 6.83525 15.795 6.77689 15.6939Z" fill="#000072"/>
<path d="M4.45118 9.55196C3.98424 8.74317 4.26134 7.70899 5.07011 7.24203L13.6124 2.31001C14.4212 1.84306 15.4553 2.12017 15.9223 2.92895L22.686 14.6444C23.1529 15.4532 22.8758 16.4874 22.0671 16.9543L13.5248 21.8864C12.716 22.3533 11.6819 22.0762 11.2149 21.2674L4.45118 9.55196Z" fill="white"/>
<path fill-rule="evenodd" clip-rule="evenodd" d="M13.8238 2.67611L5.28147 7.60814C4.6749 7.95836 4.46707 8.734 4.81728 9.34058L11.581 21.056C11.9312 21.6626 12.7068 21.8705 13.3134 21.5202L21.8557 16.5882C22.4623 16.238 22.6701 15.4624 22.3199 14.8558L15.5562 3.14032C15.206 2.53373 14.4303 2.3259 13.8238 2.67611ZM5.07011 7.24203C4.26134 7.70899 3.98424 8.74317 4.45118 9.55196L11.2149 21.2674C11.6819 22.0762 12.716 22.3533 13.5248 21.8864L22.0671 16.9543C22.8758 16.4874 23.1529 15.4532 22.686 14.6444L15.9223 2.92895C15.4553 2.12017 14.4212 1.84306 13.6124 2.31001L5.07011 7.24203Z" fill="#000072"/>
<ellipse rx="0.845473" ry="0.845484" transform="matrix(0.86602 -0.50001 0.49999 0.866031 20.4516 15.2835)" fill="#FF1E97"/>
<path d="M17.0949 10.7036L17.8517 10.3155C17.9743 10.2418 18.0493 10.1092 18.0493 9.96619C18.0493 9.82315 17.9743 9.69057 17.8517 9.61689L14.7857 8.02565C14.6698 7.96687 14.5328 7.96687 14.417 8.02565L13.2138 8.64662L12.0689 8.00624C11.953 7.94746 11.8161 7.94746 11.7002 8.00624L8.65353 9.6557C8.52134 9.72419 8.43997 9.86226 8.44411 10.0111C8.44824 10.1599 8.53714 10.2933 8.67294 10.3543L9.33272 10.7036L8.59532 11.0917C8.45952 11.1527 8.37062 11.2861 8.36648 11.4349C8.36235 11.5837 8.44372 11.7218 8.57591 11.7903L9.66262 12.3531V14.3518L13.1944 16.2341L16.7456 14.3518V12.3725L17.8711 11.7709C18.0015 11.6964 18.0803 11.5562 18.0763 11.4061C18.0722 11.256 17.9859 11.1203 17.8517 11.0529L17.0949 10.7036ZM13.4855 15.4773V12.8964L14.4752 13.4204C14.591 13.4791 14.728 13.4791 14.8439 13.4204L16.2023 12.6635V14.0219L13.4855 15.4773ZM13.1944 12.1396L10.5165 10.7036L13.1944 9.287L15.8918 10.7036L13.4855 12.0038L13.1944 12.1396ZM13.796 12.4501L16.4933 11.0141L17.3472 11.4216L14.6498 12.8964L13.796 12.4501ZM17.3278 9.96619L16.4933 10.3931L13.796 8.97651L14.5916 8.54959L17.3278 9.96619ZM12.9227 12.9158V15.4773L10.206 14.0219V12.6635L11.642 13.4398C11.7595 13.4997 11.9001 13.4923 12.0107 13.4204L12.9227 12.9158ZM12.6316 12.4695L11.8166 12.9158L9.09986 11.441L9.93429 11.0141L12.6316 12.4695ZM11.8748 8.53019L12.6316 8.95711L9.91489 10.3931L9.17748 10.005L11.8748 8.53019Z" fill="#000072"/>
</svg>
