<svg width="24" height="24" viewBox="0 0 24 24" fill="none" xmlns="http://www.w3.org/2000/svg">
<path d="M1.40911 9.35541C0.942173 8.54665 1.21928 7.51249 2.02804 7.04555L9.35 2.81822C10.1588 2.35128 11.1929 2.62838 11.6599 3.43714L17.5781 13.6879C18.0451 14.4967 17.768 15.5308 16.9592 15.9977L9.63724 20.2251C8.82848 20.692 7.79432 20.4149 7.32738 19.6062L1.40911 9.35541Z" fill="#00E899"/>
<path fill-rule="evenodd" clip-rule="evenodd" d="M9.56137 3.18432L2.2394 7.41165C1.63283 7.76186 1.42501 8.53748 1.77521 9.14405L7.69348 19.3948C8.04369 20.0014 8.81931 20.2092 9.42588 19.859L16.7478 15.6317C17.3544 15.2814 17.5622 14.5058 17.212 13.8993L11.2938 3.64851C10.9436 3.04194 10.1679 2.83411 9.56137 3.18432ZM2.02804 7.04555C1.21928 7.51249 0.942173 8.54665 1.40911 9.35541L7.32738 19.6062C7.79432 20.4149 8.82848 20.692 9.63724 20.2251L16.9592 15.9977C17.768 15.5308 18.0451 14.4967 17.5781 13.6879L11.6599 3.43714C11.1929 2.62838 10.1588 2.35128 9.35 2.81822L2.02804 7.04555Z" fill="#000072"/>
<path fill-rule="evenodd" clip-rule="evenodd" d="M4.52231 11.7885C4.46394 11.6874 4.49858 11.5581 4.59968 11.4998L11.9216 7.27242C12.0227 7.21405 12.152 7.24869 12.2104 7.34978C12.2687 7.45088 12.2341 7.58015 12.133 7.63852L4.81104 11.8659C4.70995 11.9242 4.58068 11.8896 4.52231 11.7885Z" fill="#000072"/>
<path fill-rule="evenodd" clip-rule="evenodd" d="M5.6496 13.741C5.59123 13.6399 5.62587 13.5106 5.72696 13.4523L13.0489 9.22493C13.15 9.16657 13.2793 9.2012 13.3377 9.3023C13.396 9.40339 13.3614 9.53266 13.2603 9.59103L5.93833 13.8184C5.83724 13.8767 5.70797 13.8421 5.6496 13.741Z" fill="#000072"/>
<path fill-rule="evenodd" clip-rule="evenodd" d="M6.77689 15.6935C6.71852 15.5924 6.75316 15.4632 6.85425 15.4048L14.1762 11.1774C14.2773 11.1191 14.4066 11.1537 14.4649 11.2548C14.5233 11.3559 14.4887 11.4852 14.3876 11.5435L7.06562 15.7709C6.96452 15.8292 6.83525 15.7946 6.77689 15.6935Z" fill="#000072"/>
<path d="M4.4512 9.55158C3.98426 8.74282 4.26136 7.70866 5.07012 7.24172L13.6124 2.30983C14.4212 1.84289 15.4553 2.11999 15.9223 2.92875L22.686 14.6439C23.1529 15.4527 22.8758 16.4868 22.0671 16.9538L13.5248 21.8856C12.716 22.3526 11.6819 22.0755 11.2149 21.2667L4.4512 9.55158Z" fill="white"/>
<path fill-rule="evenodd" clip-rule="evenodd" d="M13.8238 2.67593L5.28149 7.60782C4.67492 7.95802 4.46709 8.73364 4.81729 9.34021L11.581 21.0554C11.9312 21.6619 12.7069 21.8697 13.3134 21.5195L21.8557 16.5877C22.4623 16.2374 22.6701 15.4618 22.3199 14.8553L15.5562 3.14012C15.206 2.53355 14.4303 2.32572 13.8238 2.67593ZM5.07012 7.24172C4.26136 7.70866 3.98426 8.74282 4.4512 9.55158L11.2149 21.2667C11.6819 22.0755 12.716 22.3526 13.5248 21.8856L22.0671 16.9538C22.8758 16.4868 23.1529 15.4527 22.686 14.6439L15.9223 2.92875C15.4553 2.11999 14.4212 1.84289 13.6124 2.30983L5.07012 7.24172Z" fill="#000072"/>
<ellipse rx="0.845467" ry="0.845466" transform="matrix(0.866026 -0.499999 0.500001 0.866025 20.4516 15.2831)" fill="#FF1E97"/>
<path d="M13.3878 7.72946L12.916 7.84181C12.8322 7.76081 12.7398 7.68913 12.6404 7.62804L12.6247 7.14577C12.6241 7.12759 12.6176 7.11011 12.6062 7.09591C12.5949 7.08172 12.5792 7.07157 12.5616 7.06698L12.1081 6.94469C12.0906 6.93988 12.0719 6.94086 12.055 6.94748C12.038 6.9541 12.0236 6.96601 12.014 6.98143L11.7605 7.38866C11.6416 7.39017 11.5233 7.40482 11.4076 7.43234L11.0581 7.1044C11.0446 7.09269 11.0276 7.08558 11.0098 7.08409C10.992 7.0826 10.9741 7.08681 10.9588 7.09611L10.5527 7.33058C10.5371 7.33966 10.5249 7.35347 10.5177 7.36999C10.5105 7.38651 10.5088 7.40488 10.5128 7.42243L10.6213 7.88791C10.5388 7.97463 10.4661 8.07027 10.4047 8.17304L9.93195 8.1867C9.91376 8.18735 9.89626 8.19384 9.88205 8.20522C9.86784 8.2166 9.85767 8.23225 9.85306 8.24985L9.72534 8.70289C9.72051 8.72044 9.72148 8.73906 9.72809 8.756C9.73469 8.77295 9.74659 8.78731 9.76202 8.79695L10.1646 9.04467C10.1661 9.16389 10.1809 9.28257 10.2087 9.39852L9.88026 9.74816C9.86801 9.76137 9.86029 9.77813 9.85822 9.79602C9.85616 9.81391 9.85986 9.83198 9.86879 9.84761L10.103 10.2533C10.1121 10.2689 10.1259 10.2811 10.1424 10.2883C10.1589 10.2954 10.1773 10.2971 10.1949 10.2931L10.6643 10.1821C10.7502 10.2623 10.8446 10.3328 10.9459 10.3925L10.9665 10.8831C10.9671 10.9013 10.9736 10.9188 10.985 10.933C10.9963 10.9472 11.012 10.9573 11.0296 10.9619L11.4824 11.083C11.4999 11.0878 11.5186 11.0868 11.5355 11.0802C11.5525 11.0736 11.5668 11.0617 11.5765 11.0463L11.8334 10.6339C11.9486 10.6305 12.0631 10.6148 12.1749 10.5871L12.5286 10.9223C12.5418 10.9345 12.5586 10.9422 12.5765 10.9443C12.5944 10.9463 12.6125 10.9426 12.6281 10.9337L13.0342 10.6992C13.0498 10.6901 13.062 10.6763 13.0692 10.6598C13.0764 10.6433 13.0781 10.6249 13.0741 10.6073L12.96 10.1323C13.039 10.0496 13.109 9.95873 13.1688 9.86127L13.6575 9.84478C13.6757 9.84413 13.6932 9.83764 13.7074 9.82626C13.7216 9.81488 13.7318 9.79923 13.7364 9.78163L13.8579 9.32896C13.8628 9.31142 13.8618 9.29279 13.8552 9.27585C13.8486 9.25891 13.8367 9.24455 13.8213 9.23491L13.407 8.97796C13.4043 8.86309 13.3894 8.74885 13.3624 8.63718L13.698 8.28337C13.7103 8.27017 13.718 8.2534 13.7201 8.23551C13.7221 8.21763 13.7184 8.19955 13.7095 8.18392L13.4732 7.77461C13.4653 7.75928 13.4529 7.74673 13.4376 7.73866C13.4223 7.73059 13.405 7.72738 13.3878 7.72946ZM12.1764 9.67403C12.0457 9.74949 11.8956 9.78453 11.745 9.77473C11.5945 9.76494 11.4502 9.71073 11.3306 9.61898C11.2109 9.52722 11.1212 9.40204 11.0728 9.25925C11.0243 9.11647 11.0193 8.9625 11.0584 8.81681C11.0976 8.67112 11.179 8.54027 11.2925 8.44078C11.406 8.3413 11.5464 8.27766 11.696 8.25791C11.8456 8.23816 11.9977 8.26319 12.1329 8.32984C12.2682 8.39648 12.3807 8.50174 12.4561 8.63231C12.5572 8.80741 12.5845 9.01552 12.532 9.21088C12.4796 9.40624 12.3517 9.57284 12.1764 9.67403Z" fill="white"/>
<path fill-rule="evenodd" clip-rule="evenodd" d="M10.8517 6.91389C10.9046 6.8825 10.966 6.86834 11.0274 6.87346C11.0898 6.87867 11.149 6.90354 11.1964 6.94454L11.1996 6.94733L11.4726 7.20343C11.528 7.19393 11.5838 7.18699 11.6398 7.18264L11.8346 6.86973L11.8349 6.86926C11.8686 6.81533 11.9189 6.77372 11.9781 6.75059C12.0372 6.72751 12.1022 6.72404 12.1635 6.7407L12.164 6.74083L12.6161 6.86275C12.6773 6.87897 12.7316 6.91436 12.7712 6.96378C12.811 7.01349 12.8337 7.07473 12.836 7.13837L12.836 7.13889L12.8481 7.51198C12.8919 7.54292 12.9343 7.57578 12.9752 7.61045L13.3389 7.52385L13.3624 7.51964C13.4223 7.51236 13.4831 7.52358 13.5365 7.55183C13.588 7.57907 13.6302 7.62087 13.658 7.67196L13.8931 8.0791C13.9243 8.13384 13.9373 8.19713 13.9301 8.25974C13.9228 8.32234 13.8958 8.38097 13.853 8.42713L13.8514 8.42885L13.5918 8.70255C13.6006 8.75349 13.6073 8.80478 13.6119 8.8563L13.9333 9.05567C13.9873 9.08943 14.029 9.13971 14.0521 9.19906C14.0752 9.25815 14.0786 9.32305 14.062 9.38421L14.0618 9.38499L13.9409 9.83522L13.9407 9.83604C13.9244 9.89728 13.889 9.95169 13.8395 9.99127C13.7899 10.031 13.7287 10.0537 13.6651 10.056L13.2851 10.0688C13.2556 10.1107 13.2243 10.1513 13.1914 10.1906L13.2802 10.5604C13.2942 10.6219 13.2882 10.6862 13.2631 10.744C13.238 10.8018 13.1951 10.85 13.1408 10.8818L13.1399 10.8822L12.733 11.1172C12.6783 11.1484 12.6151 11.1614 12.5525 11.1543C12.4899 11.1471 12.4312 11.1202 12.385 11.0773L12.3832 11.0757L12.1102 10.817C12.0589 10.8262 12.0072 10.8333 11.9552 10.8381L11.7557 11.1584C11.7219 11.2124 11.6717 11.254 11.6124 11.2771C11.5534 11.3001 11.4885 11.3037 11.4274 11.2871L11.4266 11.2869L10.9762 11.1664L10.9754 11.1662C10.9142 11.1501 10.8597 11.1146 10.82 11.0651C10.7804 11.0156 10.7577 10.9548 10.7553 10.8914L10.7394 10.5117C10.6938 10.4808 10.6497 10.4478 10.6071 10.4129L10.2419 10.4992C10.1805 10.5132 10.1163 10.5073 10.0584 10.4822C10.0006 10.4572 9.95227 10.4143 9.92049 10.3599L9.92 10.359L9.68527 9.95244C9.654 9.8977 9.64105 9.83441 9.64827 9.77181C9.65549 9.70921 9.6825 9.65057 9.72533 9.60441L9.72621 9.60346L9.97965 9.33363C9.97007 9.27815 9.96307 9.22226 9.95866 9.16613L9.65001 8.97619C9.596 8.94244 9.55433 8.89215 9.53119 8.83281C9.50804 8.77346 9.50468 8.70825 9.52155 8.64687L9.52192 8.64554L9.64928 8.1938C9.66571 8.13323 9.70098 8.07944 9.74998 8.04022C9.79964 8.00046 9.8608 7.97775 9.92439 7.97547L9.92586 7.97542L10.2873 7.96498C10.3196 7.91811 10.3541 7.87278 10.3906 7.82913L10.3067 7.46934C10.2927 7.40788 10.2987 7.34358 10.3238 7.28579C10.3489 7.22802 10.3918 7.17976 10.4462 7.14803L10.447 7.14753L10.8517 6.91389ZM13.3357 7.95916L12.8525 8.07424L12.7692 7.99385C12.6963 7.92346 12.616 7.86117 12.5297 7.80808L12.4329 7.74853L12.4165 7.24677L12.1436 7.17318L11.8788 7.59855L11.7632 7.60002C11.6599 7.60133 11.5571 7.61406 11.4566 7.63797L11.3459 7.66429L10.9846 7.32528L10.7401 7.46645L10.8531 7.95103L10.7744 8.03367C10.7027 8.10904 10.6395 8.19215 10.5861 8.28147L10.5267 8.38098L10.0317 8.39527L9.95495 8.66748L10.3744 8.92561L10.3759 9.04191C10.3773 9.14549 10.3901 9.2486 10.4142 9.34933L10.4408 9.46016L10.0992 9.82386L10.2387 10.0656L10.7258 9.95042L10.8085 10.0276C10.8831 10.0973 10.9652 10.1585 11.0532 10.2103L11.1523 10.2687L11.1738 10.7817L11.4468 10.8547L11.714 10.4259L11.8273 10.4226C11.9274 10.4197 12.0269 10.406 12.1241 10.382L12.2364 10.3542L12.6047 10.7031L12.8463 10.5637L12.7276 10.0696L12.8072 9.98625C12.8759 9.91438 12.9367 9.83543 12.9887 9.75073L13.0481 9.65386L13.5565 9.63671L13.6295 9.36469L13.1983 9.09727L13.1957 8.98286C13.1934 8.88306 13.1804 8.7838 13.157 8.68679L13.13 8.57509L13.4789 8.20726L13.3357 7.95916ZM11.7237 8.46746C11.6155 8.48175 11.5139 8.52777 11.4318 8.59973C11.3498 8.67168 11.2909 8.76631 11.2626 8.87162C11.2343 8.97693 11.2379 9.08819 11.2729 9.19135C11.3079 9.29451 11.3728 9.38495 11.4592 9.45125C11.5457 9.51754 11.6499 9.55673 11.7588 9.56382C11.8676 9.5709 11.9762 9.54556 12.0707 9.49098C12.1975 9.41779 12.29 9.2973 12.3279 9.15608C12.3658 9.01487 12.3461 8.86449 12.273 8.738C12.2186 8.64367 12.1373 8.56761 12.0396 8.51945C11.9418 8.47129 11.8319 8.45318 11.7237 8.46746ZM11.1532 8.28185C11.2981 8.15483 11.4773 8.07358 11.6684 8.04837C11.8594 8.02315 12.0536 8.05511 12.2264 8.14023C12.3992 8.22535 12.5428 8.35982 12.6391 8.52663C12.7683 8.75033 12.8032 9.01619 12.7362 9.26569C12.6692 9.51519 12.5059 9.7279 12.2821 9.85708C12.1152 9.95342 11.9236 9.99817 11.7313 9.98566C11.5391 9.97315 11.3548 9.90393 11.202 9.78671C11.0491 9.6695 10.9345 9.50957 10.8726 9.32716C10.8107 9.14475 10.8044 8.94807 10.8543 8.76201C10.9043 8.57595 11.0083 8.40886 11.1532 8.28185Z" fill="#000072"/>
<path d="M17.5518 12.261L16.7421 12.1202C16.6658 11.938 16.5699 11.7646 16.4561 11.603L16.7544 10.8418C16.7655 10.813 16.7671 10.7815 16.7589 10.7518C16.7507 10.7221 16.7332 10.6958 16.7088 10.6769L16.0847 10.1831C16.0606 10.1638 16.031 10.1529 16.0001 10.1519C15.9693 10.1508 15.939 10.1597 15.9136 10.1773L15.2465 10.6416C15.0605 10.5644 14.8664 10.508 14.668 10.4735L14.3433 9.72909C14.33 9.7018 14.3085 9.67942 14.2817 9.66516C14.2549 9.65091 14.2243 9.64551 14.1942 9.64974L13.4052 9.743C13.3749 9.74672 13.3465 9.76001 13.3243 9.78092C13.3021 9.80184 13.2871 9.82929 13.2816 9.85929L13.1391 10.6565C12.9525 10.7363 12.7754 10.8365 12.611 10.9554L11.866 10.6604C11.8373 10.6492 11.8057 10.6476 11.7759 10.6558C11.7462 10.664 11.7199 10.6816 11.701 10.7059L11.199 11.3257C11.1797 11.3498 11.1688 11.3794 11.1677 11.4102C11.1667 11.441 11.1756 11.4713 11.1931 11.4966L11.654 12.1516C11.5767 12.3383 11.5203 12.5329 11.4859 12.732L10.7407 13.0565C10.7128 13.0689 10.6896 13.0898 10.6744 13.1163C10.6592 13.1427 10.6529 13.1734 10.6563 13.2037L10.7495 13.992C10.7532 14.0222 10.7665 14.0505 10.7874 14.0727C10.8084 14.0949 10.8358 14.1099 10.8659 14.1154L11.6708 14.2567C11.7509 14.439 11.8508 14.612 11.9685 14.7726L11.6722 15.5501C11.661 15.5789 11.6594 15.6104 11.6676 15.6401C11.6758 15.6698 11.6934 15.6961 11.7177 15.715L12.3416 16.2065C12.3657 16.2257 12.3953 16.2367 12.4262 16.2377C12.457 16.2388 12.4873 16.2298 12.5127 16.2123L13.1886 15.7422C13.3701 15.814 13.5588 15.8663 13.7515 15.898L14.0778 16.6564C14.0902 16.6843 14.1111 16.7075 14.1376 16.7226C14.1641 16.7378 14.1947 16.7441 14.2251 16.7407L15.0141 16.6474C15.0444 16.6437 15.0728 16.6304 15.095 16.6095C15.1172 16.5886 15.1322 16.5611 15.1377 16.5311L15.278 15.7152C15.4563 15.6394 15.6261 15.5448 15.7844 15.4331L16.5562 15.7344C16.5849 15.7456 16.6165 15.7472 16.6462 15.739C16.676 15.7308 16.7023 15.7132 16.7212 15.6889L17.2133 15.0655C17.2326 15.0415 17.2435 15.0118 17.2446 14.981C17.2456 14.9502 17.2367 14.9199 17.2191 14.8946L16.7462 14.2174C16.8189 14.0368 16.8721 13.849 16.9048 13.6571L17.664 13.3309C17.6919 13.3185 17.7152 13.2976 17.7303 13.2711C17.7455 13.2446 17.7518 13.214 17.7484 13.1837L17.6544 12.3884C17.6524 12.3593 17.6414 12.3314 17.6231 12.3087C17.6047 12.2859 17.5799 12.2693 17.5518 12.261ZM14.3647 14.4775C14.1108 14.5076 13.8537 14.4617 13.6258 14.3457C13.398 14.2297 13.2098 14.0488 13.0849 13.8259C12.96 13.603 12.9041 13.3481 12.9242 13.0934C12.9444 12.8387 13.0396 12.5957 13.198 12.395C13.3564 12.1944 13.5707 12.0452 13.814 11.9663C14.0572 11.8874 14.3184 11.8822 14.5645 11.9516C14.8106 12.021 15.0305 12.1617 15.1965 12.356C15.3626 12.5502 15.4672 12.7893 15.4972 13.043C15.5374 13.3832 15.4407 13.7255 15.2283 13.9945C15.0159 14.2635 14.7053 14.4373 14.3647 14.4775Z" fill="white"/>
<path fill-rule="evenodd" clip-rule="evenodd" d="M14.1588 9.37017C14.2466 9.35864 14.3358 9.37478 14.4141 9.41643C14.4935 9.45871 14.5575 9.5251 14.5968 9.6061L14.5993 9.61122L14.8675 10.2262C14.9829 10.2524 15.0966 10.2854 15.208 10.325L15.7526 9.946L15.7532 9.94558C15.8283 9.89355 15.9183 9.86714 16.0096 9.87023C16.1007 9.87331 16.1885 9.90559 16.2598 9.96233L16.2604 9.96277L16.883 10.4554C16.9546 10.5115 17.0063 10.5891 17.0306 10.6768C17.0549 10.765 17.0501 10.8587 17.017 10.944L17.0167 10.9446L16.772 11.5691C16.8328 11.6656 16.8881 11.7655 16.9376 11.8682L17.6157 11.9861L17.631 11.9906C17.7142 12.015 17.788 12.0643 17.8425 12.1319C17.8952 12.1973 17.9273 12.2767 17.9348 12.3603L18.0282 13.1507L18.0284 13.152C18.0386 13.242 18.0198 13.3328 17.9747 13.4114C17.9297 13.4899 17.8608 13.552 17.7781 13.5886L17.7752 13.5898L17.1524 13.8575C17.1281 13.9656 17.0978 14.0724 17.0618 14.1772L17.4507 14.734C17.5028 14.8092 17.5293 14.8992 17.5262 14.9907C17.5231 15.0817 17.4908 15.1694 17.4341 15.2406L17.4334 15.2415L16.9434 15.8622L16.9428 15.8631C16.8866 15.9347 16.8089 15.9865 16.7211 16.0107C16.633 16.035 16.5394 16.0303 16.4542 15.9972L15.8186 15.749C15.7255 15.8078 15.6294 15.8614 15.5305 15.9097L15.4148 16.5822C15.3984 16.6713 15.354 16.7527 15.2881 16.8147C15.2222 16.8767 15.1383 16.9161 15.0485 16.9271L15.0472 16.9273L14.2581 17.0206L14.2568 17.0207C14.1669 17.0309 14.0761 17.0122 13.9976 16.9672C13.919 16.9223 13.8568 16.8534 13.8201 16.7707L13.8189 16.7678L13.5516 16.1466C13.4426 16.1228 13.3349 16.0929 13.2292 16.0572L12.6736 16.4437L12.673 16.4441C12.5979 16.4961 12.5079 16.5225 12.4166 16.5194C12.3256 16.5163 12.238 16.4841 12.1666 16.4275L12.1658 16.4269L11.5446 15.9375L11.5437 15.9368C11.472 15.8807 11.4202 15.803 11.3959 15.7152C11.3717 15.6274 11.3763 15.5341 11.409 15.4492L11.4095 15.448L11.6522 14.8111C11.5884 14.7138 11.5303 14.613 11.4781 14.5091L10.8149 14.3926C10.7259 14.3763 10.6445 14.332 10.5824 14.2661C10.5202 14.2002 10.4808 14.1163 10.4697 14.0264L10.4696 14.0251L10.3762 13.2355C10.366 13.1455 10.3848 13.0546 10.4299 12.9761C10.4749 12.8976 10.5438 12.8355 10.6266 12.7989L10.6281 12.7982L11.2384 12.5324C11.2645 12.4168 11.2975 12.3028 11.3371 12.191L10.9615 11.6572C10.9094 11.5821 10.8829 11.4921 10.886 11.4006C10.8891 11.3092 10.9217 11.2212 10.9788 11.1498L10.9799 11.1483L11.5355 10.8309L11.7091 10.5679L12.1456 10.4786L12.5559 10.8024C12.6563 10.7374 12.8671 10.6132 12.9745 10.5607L13.0041 9.80974L13.6096 9.68726L13.7654 9.41666L14.1588 9.37017ZM14.1283 9.94134L13.5408 10.0108L13.3897 10.8559L13.2498 10.9157C13.0825 10.9872 12.9236 11.0772 12.7762 11.1838L12.6509 11.2744L11.8576 10.9602L11.4844 11.421L11.9737 12.1163L11.9143 12.2596C11.845 12.4269 11.7944 12.6015 11.7636 12.78L11.7377 12.9297L10.9483 13.2735L11.0171 13.8558L11.8681 14.0053L11.9288 14.1434C12.0006 14.3068 12.0901 14.4619 12.1957 14.6059L12.2864 14.7296L11.9714 15.5562L12.4361 15.9223L13.1517 15.4246L13.2922 15.4802C13.4551 15.5446 13.6244 15.5915 13.7972 15.6199L13.9493 15.645L14.2951 16.4486L14.8777 16.3798L15.0262 15.5161L15.1676 15.4559C15.3276 15.3879 15.4798 15.303 15.6218 15.2028L15.7456 15.1155L16.5629 15.4346L16.9288 14.9711L16.4277 14.2537L16.4847 14.1121C16.5499 13.9502 16.5976 13.7817 16.627 13.6097L16.6527 13.4587L17.4563 13.1134L17.3859 12.5183L16.5418 12.3715L16.4822 12.2292C16.4137 12.0658 16.3277 11.9102 16.2256 11.7653L16.1384 11.6414L16.4543 10.8349L15.9899 10.4675L15.2809 10.961L15.1384 10.9019C14.9716 10.8327 14.7976 10.7821 14.6196 10.7512L14.4702 10.7252L14.1283 9.94134ZM14.488 12.2229C14.2955 12.1686 14.0912 12.1726 13.9009 12.2344C13.7106 12.2961 13.543 12.4128 13.4192 12.5697C13.2953 12.7266 13.2209 12.9165 13.2051 13.1156C13.1894 13.3147 13.2331 13.5139 13.3307 13.6882C13.4283 13.8624 13.5755 14.0038 13.7537 14.0946C13.9318 14.1853 14.133 14.2212 14.3316 14.1977C14.598 14.1662 14.841 14.0303 15.007 13.8199C15.1731 13.6096 15.2487 13.342 15.2172 13.0761C15.1938 12.8779 15.112 12.691 14.9822 12.5391C14.8525 12.3872 14.6804 12.2771 14.488 12.2229ZM13.7269 11.6983C14.0231 11.6021 14.3412 11.5959 14.6409 11.6804C14.9406 11.7649 15.2085 11.9362 15.4107 12.1729C15.613 12.4096 15.7405 12.7009 15.777 13.01C15.826 13.4245 15.7081 13.8415 15.4494 14.1692C15.1908 14.4969 14.8125 14.7084 14.3978 14.7574C14.0885 14.794 13.7754 14.7381 13.4979 14.5968C13.2205 14.4556 12.9911 14.2352 12.839 13.9637C12.6868 13.6921 12.6187 13.3815 12.6432 13.0712C12.6678 12.7609 12.7839 12.4648 12.9768 12.2205C13.1697 11.9761 13.4307 11.7944 13.7269 11.6983Z" fill="#000072"/>
</svg>
