<svg width="24" height="24" viewBox="0 0 24 24" fill="none" xmlns="http://www.w3.org/2000/svg">
<path d="M1.40913 9.35551C0.942188 8.54674 1.21929 7.51258 2.02805 7.04565L9.35001 2.81831C10.1588 2.35137 11.1929 2.62847 11.6599 3.43723L17.5781 13.688C18.0451 14.4967 17.768 15.5309 16.9592 15.9978L9.63726 20.2252C8.8285 20.6921 7.79434 20.415 7.3274 19.6063L1.40913 9.35551Z" fill="#00E899"/>
<path fill-rule="evenodd" clip-rule="evenodd" d="M9.56138 3.18441L2.23942 7.41174C1.63285 7.76195 1.42502 8.53757 1.77523 9.14414L7.6935 19.3949C8.0437 20.0015 8.81932 20.2093 9.42589 19.8591L16.7479 15.6317C17.3544 15.2815 17.5623 14.5059 17.212 13.8993L11.2938 3.6486C10.9436 3.04203 10.168 2.8342 9.56138 3.18441ZM2.02805 7.04565C1.21929 7.51258 0.942188 8.54674 1.40913 9.35551L7.3274 19.6063C7.79434 20.415 8.8285 20.6921 9.63726 20.2252L16.9592 15.9978C17.768 15.5309 18.0451 14.4967 17.5781 13.688L11.6599 3.43723C11.1929 2.62847 10.1588 2.35137 9.35001 2.81831L2.02805 7.04565Z" fill="#000072"/>
<path fill-rule="evenodd" clip-rule="evenodd" d="M4.52231 11.7885C4.46394 11.6874 4.49858 11.5582 4.59968 11.4998L11.9216 7.27245C12.0227 7.21408 12.152 7.24872 12.2104 7.34981C12.2687 7.45091 12.2341 7.58018 12.133 7.63855L4.81104 11.8659C4.70995 11.9243 4.58068 11.8896 4.52231 11.7885Z" fill="#000072"/>
<path fill-rule="evenodd" clip-rule="evenodd" d="M5.6496 13.7412C5.59123 13.6401 5.62587 13.5108 5.72696 13.4524L13.0489 9.22509C13.15 9.16672 13.2793 9.20136 13.3377 9.30245C13.396 9.40355 13.3614 9.53282 13.2603 9.59118L5.93833 13.8185C5.83724 13.8769 5.70797 13.8422 5.6496 13.7412Z" fill="#000072"/>
<path fill-rule="evenodd" clip-rule="evenodd" d="M6.77689 15.6938C6.71852 15.5927 6.75316 15.4634 6.85425 15.4051L14.1762 11.1777C14.2773 11.1194 14.4066 11.154 14.4649 11.2551C14.5233 11.3562 14.4887 11.4855 14.3876 11.5438L7.06562 15.7712C6.96452 15.8295 6.83525 15.7949 6.77689 15.6938Z" fill="#000072"/>
<path d="M4.45121 9.55179C3.98427 8.74303 4.26137 7.70887 5.07014 7.24194L13.6124 2.31004C14.4212 1.8431 15.4553 2.12021 15.9223 2.92897L22.686 14.6441C23.153 15.4529 22.8759 16.487 22.0671 16.954L13.5248 21.8859C12.716 22.3528 11.6819 22.0757 11.2149 21.2669L4.45121 9.55179Z" fill="white"/>
<path fill-rule="evenodd" clip-rule="evenodd" d="M13.8238 2.67614L5.2815 7.60803C4.67493 7.95824 4.4671 8.73386 4.81731 9.34043L11.581 21.0556C11.9313 21.6621 12.7069 21.87 13.3134 21.5198L21.8557 16.5879C22.4623 16.2377 22.6701 15.462 22.3199 14.8555L15.5562 3.14033C15.206 2.53376 14.4304 2.32594 13.8238 2.67614ZM5.07014 7.24194C4.26137 7.70887 3.98427 8.74303 4.45121 9.55179L11.2149 21.2669C11.6819 22.0757 12.716 22.3528 13.5248 21.8859L22.0671 16.954C22.8759 16.487 23.153 15.4529 22.686 14.6441L15.9223 2.92897C15.4553 2.12021 14.4212 1.8431 13.6124 2.31004L5.07014 7.24194Z" fill="#000072"/>
<ellipse cx="0.845467" cy="0.845466" rx="0.845467" ry="0.845466" transform="matrix(0.866026 -0.499999 0.500001 0.866025 19.2967 14.9736)" fill="#FF1E97"/>
<path d="M13.3879 7.72937L12.916 7.84172C12.8322 7.76072 12.7398 7.68904 12.6404 7.62795L12.6247 7.14568C12.6241 7.1275 12.6176 7.11002 12.6062 7.09582C12.5949 7.08163 12.5792 7.07148 12.5616 7.06688L12.1081 6.9446C12.0906 6.93979 12.0719 6.94077 12.055 6.94739C12.038 6.95401 12.0237 6.96591 12.014 6.98134L11.7605 7.38857C11.6416 7.39008 11.5233 7.40473 11.4076 7.43225L11.0581 7.10431C11.0446 7.0926 11.0277 7.08549 11.0098 7.084C10.992 7.08251 10.9741 7.08672 10.9588 7.09602L10.5527 7.33049C10.5371 7.33957 10.5249 7.35338 10.5177 7.3699C10.5105 7.38642 10.5088 7.40479 10.5128 7.42234L10.6213 7.88782C10.5388 7.97454 10.4661 8.07017 10.4047 8.17295L9.93196 8.1866C9.91377 8.18726 9.89628 8.19375 9.88207 8.20513C9.86785 8.2165 9.85769 8.23215 9.85308 8.24975L9.72535 8.7028C9.72053 8.72034 9.72149 8.73897 9.7281 8.75591C9.73471 8.77286 9.74661 8.78721 9.76203 8.79685L10.1646 9.04458C10.1661 9.1638 10.1809 9.28248 10.2087 9.39842L9.88027 9.74807C9.86802 9.76128 9.8603 9.77804 9.85824 9.79593C9.85618 9.81382 9.85988 9.83189 9.8688 9.84752L10.103 10.2532C10.1121 10.2688 10.1259 10.281 10.1424 10.2882C10.159 10.2953 10.1773 10.297 10.1949 10.293L10.6643 10.1821C10.7502 10.2622 10.8447 10.3327 10.9459 10.3924L10.9665 10.883C10.9671 10.9012 10.9736 10.9187 10.985 10.9329C10.9963 10.9471 11.012 10.9572 11.0296 10.9618L11.4824 11.0829C11.4999 11.0877 11.5186 11.0867 11.5355 11.0801C11.5525 11.0735 11.5669 11.0616 11.5765 11.0462L11.8334 10.6338C11.9486 10.6304 12.0631 10.6147 12.1749 10.587L12.5286 10.9222C12.5418 10.9344 12.5586 10.9421 12.5765 10.9442C12.5944 10.9462 12.6125 10.9425 12.6281 10.9336L13.0342 10.6991C13.0498 10.69 13.062 10.6762 13.0692 10.6597C13.0764 10.6432 13.0781 10.6248 13.0741 10.6073L12.96 10.1322C13.039 10.0495 13.109 9.95864 13.1688 9.86118L13.6575 9.84469C13.6757 9.84404 13.6932 9.83754 13.7074 9.82617C13.7216 9.81479 13.7318 9.79914 13.7364 9.78154L13.858 9.32887C13.8628 9.31133 13.8618 9.2927 13.8552 9.27576C13.8486 9.25881 13.8367 9.24446 13.8213 9.23482L13.407 8.97787C13.4043 8.863 13.3894 8.74876 13.3624 8.63709L13.698 8.28328C13.7103 8.27007 13.718 8.25331 13.7201 8.23542C13.7221 8.21754 13.7184 8.19946 13.7095 8.18383L13.4732 7.77452C13.4653 7.75919 13.4529 7.74664 13.4376 7.73857C13.4224 7.7305 13.405 7.72729 13.3879 7.72937V7.72937ZM12.1764 9.67394C12.0457 9.7494 11.8956 9.78444 11.745 9.77464C11.5945 9.76484 11.4503 9.71064 11.3306 9.61888C11.2109 9.52713 11.1212 9.40194 11.0728 9.25916C11.0243 9.11638 11.0194 8.9624 11.0585 8.81672C11.0976 8.67103 11.179 8.54017 11.2925 8.44069C11.406 8.34121 11.5464 8.27757 11.696 8.25782C11.8456 8.23807 11.9977 8.2631 12.133 8.32974C12.2683 8.39639 12.3807 8.50165 12.4561 8.63222C12.5572 8.80731 12.5845 9.01543 12.5321 9.21079C12.4796 9.40615 12.3517 9.57275 12.1764 9.67394V9.67394Z" fill="white"/>
<path fill-rule="evenodd" clip-rule="evenodd" d="M10.8517 6.91401C10.9046 6.88262 10.966 6.86846 11.0274 6.87358C11.0898 6.87879 11.149 6.90366 11.1964 6.94466L11.1996 6.94746L11.4726 7.20355C11.528 7.19405 11.5838 7.18712 11.6398 7.18277L11.8346 6.86986L11.8349 6.86938C11.8686 6.81545 11.9189 6.77384 11.9781 6.75071C12.0372 6.72764 12.1022 6.72416 12.1635 6.74082L12.164 6.74095L12.6161 6.86288C12.6773 6.87909 12.7316 6.91448 12.7712 6.9639C12.811 7.01361 12.8337 7.07485 12.836 7.13849L12.836 7.13901L12.8481 7.5121C12.8919 7.54304 12.9343 7.5759 12.9752 7.61057L13.3389 7.52397L13.3624 7.51976C13.4223 7.51248 13.4831 7.5237 13.5365 7.55196C13.588 7.57919 13.6302 7.62099 13.658 7.67208L13.8931 8.07922C13.9243 8.13396 13.9373 8.19725 13.9301 8.25986C13.9228 8.32246 13.8958 8.38109 13.853 8.42726L13.8514 8.42897L13.5918 8.70267C13.6006 8.75361 13.6073 8.80491 13.6119 8.85642L13.9333 9.0558C13.9873 9.08955 14.029 9.13983 14.0521 9.19918C14.0752 9.25827 14.0786 9.32318 14.062 9.38433L14.0618 9.38511L13.9409 9.83534L13.9407 9.83616C13.9244 9.89741 13.889 9.95181 13.8395 9.99139C13.7899 10.0312 13.7287 10.0539 13.6651 10.0561L13.2851 10.069C13.2556 10.1108 13.2243 10.1514 13.1914 10.1907L13.2802 10.5606C13.2942 10.622 13.2882 10.6863 13.2631 10.7441C13.238 10.8019 13.1951 10.8501 13.1408 10.8819L13.1399 10.8824L12.733 11.1173C12.6783 11.1486 12.6151 11.1615 12.5525 11.1544C12.4899 11.1472 12.4312 11.1203 12.385 11.0774L12.3832 11.0758L12.1102 10.8171C12.0589 10.8263 12.0072 10.8334 11.9552 10.8382L11.7557 11.1586C11.7219 11.2125 11.6717 11.2541 11.6124 11.2772C11.5534 11.3003 11.4885 11.3038 11.4274 11.2872L11.4266 11.287L10.9762 11.1666L10.9754 11.1664C10.9142 11.1502 10.8597 11.1148 10.82 11.0652C10.7804 11.0158 10.7577 10.9549 10.7553 10.8916L10.7394 10.5119C10.6938 10.4809 10.6497 10.4479 10.6071 10.413L10.2419 10.4993C10.1805 10.5133 10.1163 10.5074 10.0584 10.4823C10.0006 10.4573 9.95227 10.4144 9.92049 10.36L9.92 10.3591L9.68527 9.95257C9.654 9.89782 9.64105 9.83453 9.64827 9.77193C9.65549 9.70933 9.6825 9.65069 9.72533 9.60453L9.72621 9.60358L9.97965 9.33375C9.97007 9.27828 9.96307 9.22238 9.95866 9.16626L9.65001 8.97631C9.596 8.94256 9.55433 8.89227 9.53119 8.83293C9.50804 8.77358 9.50468 8.70838 9.52155 8.64699L9.52192 8.64566L9.64928 8.19393C9.66571 8.13335 9.70098 8.07957 9.74998 8.04034C9.79964 8.00058 9.8608 7.97787 9.92439 7.97559L9.92586 7.97554L10.2873 7.9651C10.3196 7.91823 10.3541 7.8729 10.3906 7.82925L10.3067 7.46947C10.2927 7.408 10.2987 7.3437 10.3238 7.28592C10.3489 7.22814 10.3918 7.17989 10.4462 7.14815L10.447 7.14766L10.8517 6.91401ZM13.3357 7.95929L12.8525 8.07436L12.7692 7.99398C12.6963 7.92359 12.616 7.8613 12.5297 7.8082L12.4329 7.74865L12.4165 7.2469L12.1436 7.1733L11.8788 7.59867L11.7632 7.60014C11.6599 7.60145 11.5571 7.61418 11.4566 7.63809L11.3459 7.66441L10.9846 7.3254L10.7401 7.46657L10.8531 7.95116L10.7744 8.03379C10.7027 8.10916 10.6395 8.19227 10.5861 8.28159L10.5267 8.3811L10.0317 8.3954L9.95495 8.6676L10.3744 8.92573L10.3759 9.04203C10.3773 9.14562 10.3901 9.24872 10.4142 9.34945L10.4408 9.46028L10.0992 9.82398L10.2387 10.0657L10.7258 9.95054L10.8085 10.0277C10.8831 10.0974 10.9652 10.1586 11.0532 10.2104L11.1523 10.2688L11.1738 10.7818L11.4468 10.8548L11.714 10.426L11.8273 10.4227C11.9274 10.4198 12.0269 10.4062 12.1241 10.3821L12.2364 10.3543L12.6047 10.7033L12.8463 10.5638L12.7276 10.0697L12.8072 9.98637C12.8759 9.9145 12.9367 9.83555 12.9887 9.75085L13.0481 9.65398L13.5565 9.63683L13.6295 9.36482L13.1983 9.09739L13.1957 8.98298C13.1934 8.88318 13.1804 8.78393 13.157 8.68691L13.13 8.57521L13.4789 8.20738L13.3357 7.95929ZM11.7237 8.46759C11.6155 8.48187 11.5139 8.52789 11.4318 8.59985C11.3498 8.6718 11.2909 8.76643 11.2626 8.87174C11.2343 8.97705 11.2379 9.08832 11.2729 9.19147C11.3079 9.29463 11.3728 9.38507 11.4592 9.45137C11.5457 9.51767 11.6499 9.55686 11.7588 9.56394C11.8676 9.57103 11.9762 9.54569 12.0707 9.49111C12.1975 9.41791 12.29 9.29743 12.3279 9.1562C12.3658 9.01499 12.3461 8.86461 12.273 8.73812C12.2186 8.6438 12.1373 8.56774 12.0396 8.51957C11.9418 8.47141 11.8319 8.4533 11.7237 8.46759ZM11.1532 8.28197C11.2981 8.15496 11.4773 8.0737 11.6684 8.04849C11.8594 8.02327 12.0536 8.05523 12.2264 8.14035C12.3992 8.22547 12.5428 8.35994 12.6391 8.52676C12.7683 8.75045 12.8032 9.01631 12.7362 9.26581C12.6692 9.51531 12.5059 9.72802 12.2821 9.8572C12.1152 9.95354 11.9236 9.99829 11.7313 9.98578C11.5391 9.97327 11.3548 9.90405 11.202 9.78684C11.0491 9.66962 10.9345 9.50969 10.8726 9.32728C10.8107 9.14487 10.8044 8.94819 10.8543 8.76213C10.9043 8.57607 11.0083 8.40898 11.1532 8.28197Z" fill="#000072"/>
<path d="M17.5518 12.2613L16.7421 12.1205C16.6658 11.9383 16.5699 11.7649 16.4561 11.6033L16.7544 10.8421C16.7655 10.8133 16.7671 10.7818 16.7589 10.7521C16.7507 10.7224 16.7332 10.6961 16.7088 10.6772L16.0847 10.1834C16.0606 10.1642 16.031 10.1532 16.0001 10.1522C15.9693 10.1511 15.939 10.16 15.9136 10.1776L15.2465 10.6419C15.0605 10.5647 14.8664 10.5083 14.668 10.4738L14.3433 9.72939C14.33 9.70211 14.3085 9.67973 14.2817 9.66547C14.2549 9.65121 14.2243 9.64581 14.1942 9.65005L13.4052 9.7433C13.3749 9.74703 13.3465 9.76031 13.3243 9.78123C13.3021 9.80215 13.2871 9.8296 13.2816 9.85959L13.1391 10.6568C12.9525 10.7366 12.7754 10.8368 12.611 10.9557L11.866 10.6607C11.8373 10.6495 11.8057 10.6479 11.7759 10.6561C11.7462 10.6643 11.7199 10.6819 11.701 10.7062L11.199 11.326C11.1797 11.3501 11.1688 11.3797 11.1677 11.4105C11.1667 11.4413 11.1756 11.4716 11.1931 11.4969L11.654 12.1519C11.5767 12.3386 11.5203 12.5332 11.4859 12.7323L10.7407 13.0568C10.7128 13.0692 10.6896 13.0901 10.6744 13.1166C10.6592 13.143 10.6529 13.1737 10.6563 13.204L10.7495 13.9923C10.7532 14.0225 10.7665 14.0508 10.7874 14.073C10.8084 14.0952 10.8358 14.1102 10.8659 14.1157L11.6708 14.257C11.7509 14.4393 11.8508 14.6123 11.9685 14.7729L11.6722 15.5504C11.661 15.5792 11.6594 15.6107 11.6676 15.6404C11.6758 15.6701 11.6934 15.6964 11.7177 15.7153L12.3416 16.2068C12.3657 16.226 12.3953 16.237 12.4262 16.238C12.457 16.2391 12.4873 16.2301 12.5127 16.2126L13.1886 15.7425C13.3701 15.8143 13.5588 15.8666 13.7515 15.8983L14.0778 16.6567C14.0902 16.6846 14.1111 16.7078 14.1376 16.7229C14.1641 16.7381 14.1947 16.7444 14.2251 16.741L15.0141 16.6477C15.0444 16.644 15.0728 16.6307 15.095 16.6098C15.1172 16.5889 15.1322 16.5614 15.1377 16.5314L15.278 15.7155C15.4563 15.6397 15.6261 15.5451 15.7844 15.4334L16.5562 15.7347C16.5849 15.7459 16.6165 15.7475 16.6462 15.7393C16.676 15.7311 16.7023 15.7135 16.7212 15.6892L17.2133 15.0658C17.2326 15.0418 17.2435 15.0121 17.2446 14.9813C17.2456 14.9505 17.2367 14.9202 17.2191 14.8949L16.7462 14.2177C16.8189 14.0371 16.8721 13.8493 16.9048 13.6574L17.664 13.3312C17.6919 13.3188 17.7152 13.2979 17.7303 13.2714C17.7455 13.245 17.7518 13.2143 17.7484 13.184L17.6544 12.3887C17.6524 12.3596 17.6414 12.3317 17.6231 12.309C17.6047 12.2862 17.5799 12.2696 17.5518 12.2613ZM14.3647 14.4778C14.1108 14.5079 13.8537 14.462 13.6258 14.346C13.398 14.23 13.2098 14.0491 13.0849 13.8262C12.96 13.6033 12.9041 13.3484 12.9242 13.0937C12.9444 12.839 13.0396 12.596 13.198 12.3954C13.3564 12.1947 13.5707 12.0455 13.814 11.9666C14.0572 11.8877 14.3184 11.8826 14.5645 11.9519C14.8106 12.0213 15.0305 12.162 15.1965 12.3563C15.3626 12.5505 15.4672 12.7896 15.4972 13.0433C15.5374 13.3835 15.4407 13.7258 15.2283 13.9948C15.0159 14.2639 14.7053 14.4376 14.3647 14.4778Z" fill="white"/>
<path fill-rule="evenodd" clip-rule="evenodd" d="M14.1588 9.37017C14.2466 9.35864 14.3359 9.37478 14.4141 9.41643C14.4935 9.45871 14.5575 9.5251 14.5968 9.6061L14.5993 9.61122L14.8675 10.2262C14.9829 10.2524 15.0966 10.2854 15.208 10.325L15.7526 9.946L15.7532 9.94558C15.8284 9.89355 15.9183 9.86714 16.0096 9.87023C16.1007 9.87331 16.1885 9.90559 16.2599 9.96233L16.2604 9.96277L16.883 10.4554C16.9546 10.5115 17.0063 10.5891 17.0306 10.6768C17.0549 10.765 17.0502 10.8587 17.017 10.944L17.0167 10.9446L16.772 11.5691C16.8328 11.6656 16.8881 11.7655 16.9376 11.8682L17.6157 11.9861L17.631 11.9906C17.7142 12.015 17.7881 12.0643 17.8425 12.1319C17.8952 12.1973 17.9273 12.2767 17.9348 12.3603L18.0282 13.1507L18.0284 13.152C18.0386 13.242 18.0198 13.3328 17.9748 13.4114C17.9297 13.4899 17.8608 13.552 17.7781 13.5886L17.7752 13.5898L17.1524 13.8575C17.1281 13.9656 17.0979 14.0724 17.0618 14.1772L17.4507 14.734C17.5028 14.8092 17.5293 14.8992 17.5262 14.9907C17.5231 15.0817 17.4908 15.1694 17.4341 15.2406L17.4334 15.2415L16.9434 15.8622L16.9428 15.8631C16.8866 15.9347 16.8089 15.9865 16.7211 16.0107C16.633 16.035 16.5394 16.0303 16.4542 15.9972L15.8186 15.749C15.7256 15.8078 15.6294 15.8614 15.5305 15.9097L15.4148 16.5822C15.3984 16.6713 15.354 16.7527 15.2881 16.8147C15.2222 16.8767 15.1383 16.9161 15.0485 16.9271L15.0472 16.9273L14.2581 17.0206L14.2568 17.0207C14.1669 17.0309 14.0761 17.0122 13.9976 16.9672C13.919 16.9223 13.8569 16.8534 13.8201 16.7707L13.8189 16.7678L13.5516 16.1466C13.4426 16.1228 13.335 16.0929 13.2293 16.0572L12.6736 16.4437L12.673 16.4441C12.5979 16.4961 12.5079 16.5225 12.4166 16.5194C12.3256 16.5163 12.238 16.4841 12.1666 16.4275L12.1658 16.4269L11.5446 15.9375L11.5437 15.9368C11.472 15.8807 11.4202 15.803 11.3959 15.7152C11.3717 15.6274 11.3763 15.5341 11.4091 15.4492L11.4095 15.448L11.6522 14.8111C11.5884 14.7138 11.5303 14.613 11.4781 14.5091L10.8149 14.3926C10.726 14.3763 10.6445 14.332 10.5824 14.2661C10.5203 14.2002 10.4808 14.1163 10.4697 14.0264L10.4696 14.0251L10.3763 13.2355C10.3661 13.1455 10.3849 13.0546 10.4299 12.9761C10.4749 12.8976 10.5439 12.8355 10.6266 12.7989L10.6282 12.7982L11.2384 12.5324C11.2645 12.4168 11.2975 12.3028 11.3371 12.191L10.9615 11.6572C10.9094 11.5821 10.8829 11.4921 10.886 11.4006C10.8891 11.3092 10.9217 11.2212 10.9788 11.1498L10.9799 11.1483L11.5355 10.8309L11.7091 10.5679L12.1456 10.4786L12.5559 10.8024C12.6563 10.7374 12.8672 10.6132 12.9746 10.5607L13.0041 9.80974L13.6096 9.68726L13.7654 9.41666L14.1588 9.37017ZM14.1283 9.94134L13.5408 10.0108L13.3897 10.8559L13.2498 10.9157C13.0825 10.9872 12.9236 11.0772 12.7762 11.1838L12.6509 11.2744L11.8576 10.9602L11.4845 11.421L11.9737 12.1163L11.9144 12.2596C11.845 12.4269 11.7944 12.6015 11.7636 12.78L11.7377 12.9297L10.9483 13.2735L11.0172 13.8558L11.8681 14.0053L11.9288 14.1434C12.0006 14.3068 12.0901 14.4619 12.1957 14.6059L12.2865 14.7296L11.9715 15.5562L12.4361 15.9223L13.1517 15.4246L13.2922 15.4802C13.4551 15.5446 13.6244 15.5915 13.7972 15.6199L13.9493 15.645L14.2952 16.4486L14.8777 16.3798L15.0262 15.5161L15.1676 15.4559C15.3276 15.3879 15.4798 15.303 15.6218 15.2028L15.7457 15.1155L16.5629 15.4346L16.9288 14.9711L16.4277 14.2537L16.4847 14.1121C16.5499 13.9502 16.5976 13.7817 16.627 13.6097L16.6528 13.4587L17.4563 13.1134L17.3859 12.5183L16.5418 12.3715L16.4822 12.2292C16.4137 12.0658 16.3277 11.9102 16.2256 11.7653L16.1384 11.6414L16.4543 10.8349L15.99 10.4675L15.2809 10.961L15.1385 10.9019C14.9716 10.8327 14.7976 10.7821 14.6196 10.7512L14.4702 10.7252L14.1283 9.94134ZM14.488 12.2229C14.2955 12.1686 14.0912 12.1726 13.9009 12.2344C13.7107 12.2961 13.543 12.4128 13.4192 12.5697C13.2954 12.7266 13.2209 12.9165 13.2051 13.1156C13.1894 13.3147 13.2331 13.5139 13.3307 13.6882C13.4283 13.8624 13.5755 14.0038 13.7537 14.0946C13.9318 14.1853 14.133 14.2212 14.3316 14.1977C14.598 14.1662 14.841 14.0303 15.007 13.8199C15.1731 13.6096 15.2487 13.342 15.2173 13.0761C15.1938 12.8779 15.1121 12.691 14.9823 12.5391C14.8525 12.3872 14.6805 12.2771 14.488 12.2229ZM13.7269 11.6983C14.0231 11.6021 14.3412 11.5959 14.6409 11.6804C14.9406 11.7649 15.2085 11.9362 15.4108 12.1729C15.613 12.4096 15.7405 12.7009 15.777 13.01C15.826 13.4245 15.7081 13.8415 15.4495 14.1692C15.1908 14.4969 14.8125 14.7084 14.3978 14.7574C14.0885 14.794 13.7754 14.7381 13.4979 14.5968C13.2205 14.4556 12.9911 14.2352 12.839 13.9637C12.6868 13.6921 12.6187 13.3815 12.6433 13.0712C12.6678 12.7609 12.7839 12.4648 12.9768 12.2205C13.1697 11.9761 13.4307 11.7944 13.7269 11.6983Z" fill="#000072"/>
</svg>
