<svg width="24" height="24" viewBox="0 0 24 24" fill="none" xmlns="http://www.w3.org/2000/svg">
<path d="M1.40913 9.35567C0.942188 8.54688 1.21929 7.5127 2.02805 7.04574L9.35001 2.81829C10.1588 2.35134 11.1929 2.62845 11.6599 3.43723L17.5781 13.6883C18.0451 14.497 17.768 15.5312 16.9592 15.9982L9.63726 20.2256C8.8285 20.6926 7.79434 20.4155 7.3274 19.6067L1.40913 9.35567Z" fill="#FF0000"/>
<path fill-rule="evenodd" clip-rule="evenodd" d="M9.56138 3.1844L2.23942 7.41185C1.63285 7.76207 1.42502 8.53771 1.77523 9.14429L7.6935 19.3953C8.0437 20.0019 8.81932 20.2097 9.42589 19.8595L16.7479 15.6321C17.3544 15.2819 17.5623 14.5062 17.212 13.8996L11.2938 3.64861C10.9436 3.04202 10.168 2.83419 9.56138 3.1844ZM2.02805 7.04574C1.21929 7.5127 0.942188 8.54688 1.40913 9.35567L7.3274 19.6067C7.79434 20.4155 8.8285 20.6926 9.63726 20.2256L16.9592 15.9982C17.768 15.5312 18.0451 14.497 17.5781 13.6883L11.6599 3.43723C11.1929 2.62845 10.1588 2.35134 9.35001 2.81829L2.02805 7.04574Z" fill="#000072"/>
<path fill-rule="evenodd" clip-rule="evenodd" d="M4.52231 11.7888C4.46394 11.6877 4.49858 11.5585 4.59968 11.5001L11.9216 7.27264C12.0227 7.21427 12.152 7.24891 12.2104 7.35C12.2687 7.4511 12.2341 7.58037 12.133 7.63874L4.81104 11.8662C4.70995 11.9246 4.58068 11.8899 4.52231 11.7888Z" fill="#000072"/>
<path fill-rule="evenodd" clip-rule="evenodd" d="M5.64957 13.7414C5.5912 13.6403 5.62584 13.511 5.72693 13.4526L13.0489 9.22518C13.15 9.16681 13.2793 9.20145 13.3376 9.30255C13.396 9.40365 13.3614 9.53292 13.2603 9.59129L5.9383 13.8187C5.8372 13.8771 5.70793 13.8425 5.64957 13.7414Z" fill="#000072"/>
<path fill-rule="evenodd" clip-rule="evenodd" d="M6.77689 15.6939C6.71852 15.5929 6.75316 15.4636 6.85425 15.4052L14.1762 11.1778C14.2773 11.1194 14.4066 11.154 14.4649 11.2551C14.5233 11.3562 14.4887 11.4855 14.3876 11.5439L7.06562 15.7713C6.96452 15.8297 6.83525 15.795 6.77689 15.6939Z" fill="#000072"/>
<path d="M4.45112 9.55193C3.98418 8.74314 4.26128 7.70895 5.07004 7.242L13.6123 2.30998C14.4211 1.84302 15.4553 2.12013 15.9222 2.92892L22.6859 14.6444C23.1529 15.4532 22.8758 16.4873 22.067 16.9543L13.5247 21.8863C12.716 22.3533 11.6818 22.0762 11.2149 21.2674L4.45112 9.55193Z" fill="white"/>
<path fill-rule="evenodd" clip-rule="evenodd" d="M13.8237 2.67608L5.28141 7.60811C4.67484 7.95833 4.46701 8.73397 4.81722 9.34055L11.581 21.056C11.9312 21.6626 12.7068 21.8704 13.3134 21.5202L21.8556 16.5882C22.4622 16.238 22.67 15.4623 22.3198 14.8557L15.5561 3.14029C15.2059 2.5337 14.4303 2.32587 13.8237 2.67608ZM5.07004 7.242C4.26128 7.70895 3.98418 8.74314 4.45112 9.55193L11.2149 21.2674C11.6818 22.0762 12.716 22.3533 13.5247 21.8863L22.067 16.9543C22.8758 16.4873 23.1529 15.4532 22.6859 14.6444L15.9222 2.92892C15.4553 2.12013 14.4211 1.84302 13.6123 2.30998L5.07004 7.242Z" fill="#000072"/>
<ellipse rx="0.845473" ry="0.845484" transform="matrix(0.86602 -0.50001 0.49999 0.866031 20.4516 15.2835)" fill="#FF1E97"/>
<path d="M19.5035 11.394C19.3679 10.5607 17.9727 10.3282 16.7713 10.3088H16.7519C16.2138 9.63208 15.4504 9.1713 14.601 9.01051C12.8182 8.65103 11.04 9.64714 10.4154 11.3552V11.394C9.34963 11.8009 8.10946 12.4597 8.26448 13.293C8.34199 13.7968 8.88457 14.1262 9.7178 14.2812C10.0442 14.3425 10.3744 14.3813 10.7061 14.3975H10.7642C11.298 15.3155 12.2021 15.9583 13.2445 16.1609C15.2598 16.5484 17.2169 15.2501 17.5851 13.293V13.2542C18.554 12.7892 19.6198 12.1691 19.5035 11.394ZM13.3608 15.502C12.654 15.37 12.0199 14.9841 11.5781 14.4169C12.4487 14.3984 13.3167 14.3141 14.1747 14.165C15.056 14.0312 15.9246 13.8238 16.7713 13.5449C16.2857 14.9599 14.8275 15.7967 13.3608 15.502ZM17.6045 12.4597L17.1394 12.6729L16.9263 12.7504C16.9069 12.7504 16.9069 12.7698 16.8875 12.7504C15.9678 13.0735 15.021 13.3135 14.0584 13.4674C13.0864 13.6415 12.1004 13.7258 11.113 13.7193L10.3766 13.6611C9.4659 13.5836 8.9427 13.3705 8.92332 13.1961C8.90394 13.0217 9.21399 12.6729 10.2216 12.2272C10.1784 12.7031 10.2244 13.1828 10.3573 13.6418L11.0936 13.6805C10.6662 12.5446 10.9643 11.2631 11.8493 10.4325C12.7343 9.602 14.0322 9.38569 15.1387 9.88432C16.2452 10.3829 16.9429 11.4985 16.9069 12.7116L17.1201 12.6341L17.6045 12.4404C17.5648 11.9426 17.4334 11.4564 17.2169 11.0064C17.1575 10.8773 17.0861 10.7541 17.0038 10.6382L17.2363 11.0258C18.3602 11.1033 18.8059 11.3746 18.8253 11.5296C18.8447 11.6846 18.554 12.014 17.6045 12.4597Z" fill="#000072"/>
<path d="M14.6248 15.037C15.065 14.9459 15.3848 14.6936 15.3393 14.4735C15.2937 14.2534 14.8999 14.1489 14.4598 14.24C14.0196 14.3312 13.6998 14.5835 13.7454 14.8036C13.7909 15.0236 14.1847 15.1281 14.6248 15.037Z" fill="#FF0000"/>
<path d="M8.96193 10.6964C9.70037 10.6964 10.299 10.0978 10.299 9.35936C10.299 8.62093 9.70037 8.02231 8.96193 8.02231C8.2235 8.02231 7.62488 8.62093 7.62488 9.35936C7.62488 10.0978 8.2235 10.6964 8.96193 10.6964Z" fill="#000072"/>
<path d="M8.28367 9.01052C8.45491 9.01052 8.59372 8.87171 8.59372 8.70048C8.59372 8.52925 8.45491 8.39044 8.28367 8.39044C8.11244 8.39044 7.97363 8.52925 7.97363 8.70048C7.97363 8.87171 8.11244 9.01052 8.28367 9.01052Z" fill="white"/>
<path d="M9.73696 9.13114C9.86776 9.13114 9.9738 9.02511 9.9738 8.89431C9.9738 8.76351 9.86776 8.65747 9.73696 8.65747C9.60616 8.65747 9.50012 8.76351 9.50012 8.89431C9.50012 9.02511 9.60616 9.13114 9.73696 9.13114Z" fill="white"/>
<path d="M9.00075 9.61552C9.13156 9.61552 9.23759 9.50949 9.23759 9.37868C9.23759 9.24788 9.13156 9.14185 9.00075 9.14185C8.86995 9.14185 8.76392 9.24788 8.76392 9.37868C8.76392 9.50949 8.86995 9.61552 9.00075 9.61552Z" fill="white"/>
<path d="M8.63247 10.7201C8.76327 10.7201 8.8693 10.6141 8.8693 10.4833C8.8693 10.3525 8.76327 10.2464 8.63247 10.2464C8.50167 10.2464 8.39563 10.3525 8.39563 10.4833C8.39563 10.6141 8.50167 10.7201 8.63247 10.7201Z" fill="white"/>
<path d="M7.8962 9.61552C8.027 9.61552 8.13304 9.50949 8.13304 9.37868C8.13304 9.24788 8.027 9.14185 7.8962 9.14185C7.7654 9.14185 7.65936 9.24788 7.65936 9.37868C7.65936 9.50949 7.7654 9.61552 7.8962 9.61552Z" fill="white"/>
<path d="M9.3688 10.2356C9.4996 10.2356 9.60564 10.1296 9.60564 9.9988C9.60564 9.868 9.4996 9.76196 9.3688 9.76196C9.23799 9.76196 9.13196 9.868 9.13196 9.9988C9.13196 10.1296 9.23799 10.2356 9.3688 10.2356Z" fill="white"/>
</svg>
