<svg width="24" height="24" viewBox="0 0 24 24" fill="none" xmlns="http://www.w3.org/2000/svg">
<path d="M1.4091 9.35555C0.942158 8.54676 1.21926 7.51257 2.02802 7.04562L9.34998 2.81817C10.1587 2.35122 11.1929 2.62833 11.6598 3.43711L17.5781 13.6881C18.0451 14.4969 17.768 15.5311 16.9592 15.9981L9.63723 20.2255C8.82847 20.6925 7.79431 20.4154 7.32737 19.6066L1.4091 9.35555Z" fill="#FF0000"/>
<path fill-rule="evenodd" clip-rule="evenodd" d="M9.56135 3.18428L2.23939 7.41173C1.63282 7.76194 1.42499 8.53759 1.77519 9.14417L7.69347 19.3952C8.04367 20.0018 8.81929 20.2096 9.42586 19.8594L16.7478 15.632C17.3544 15.2817 17.5622 14.5061 17.212 13.8995L11.2937 3.64848C10.9435 3.0419 10.1679 2.83406 9.56135 3.18428ZM2.02802 7.04562C1.21926 7.51257 0.942158 8.54676 1.4091 9.35555L7.32737 19.6066C7.79431 20.4154 8.82847 20.6925 9.63723 20.2255L16.9592 15.9981C17.768 15.5311 18.0451 14.4969 17.5781 13.6881L11.6598 3.43711C11.1929 2.62833 10.1587 2.35122 9.34998 2.81817L2.02802 7.04562Z" fill="#000072"/>
<path fill-rule="evenodd" clip-rule="evenodd" d="M4.52231 11.7885C4.46394 11.6874 4.49858 11.5582 4.59968 11.4998L11.9216 7.27233C12.0227 7.21396 12.152 7.2486 12.2104 7.3497C12.2687 7.4508 12.2341 7.58007 12.133 7.63844L4.81104 11.8659C4.70995 11.9243 4.58068 11.8896 4.52231 11.7885Z" fill="#000072"/>
<path fill-rule="evenodd" clip-rule="evenodd" d="M5.6496 13.7412C5.59123 13.6401 5.62587 13.5108 5.72696 13.4524L13.0489 9.22497C13.15 9.1666 13.2793 9.20124 13.3377 9.30233C13.396 9.40343 13.3614 9.53271 13.2603 9.59107L5.93833 13.8185C5.83724 13.8769 5.70797 13.8423 5.6496 13.7412Z" fill="#000072"/>
<path fill-rule="evenodd" clip-rule="evenodd" d="M6.77689 15.6938C6.71852 15.5927 6.75316 15.4634 6.85425 15.4051L14.1762 11.1776C14.2773 11.1192 14.4066 11.1539 14.4649 11.255C14.5233 11.3561 14.4887 11.4853 14.3876 11.5437L7.06562 15.7712C6.96452 15.8295 6.83525 15.7949 6.77689 15.6938Z" fill="#000072"/>
<path d="M4.45115 9.55183C3.98421 8.74305 4.26131 7.70886 5.07007 7.24191L13.6124 2.30988C14.4211 1.84293 15.4553 2.12004 15.9222 2.92883L22.686 14.6443C23.1529 15.4531 22.8758 16.4873 22.067 16.9542L13.5247 21.8862C12.716 22.3532 11.6818 22.0761 11.2149 21.2673L4.45115 9.55183Z" fill="white"/>
<path fill-rule="evenodd" clip-rule="evenodd" d="M13.8237 2.67599L5.28144 7.60802C4.67487 7.95823 4.46704 8.73387 4.81725 9.34046L11.581 21.0559C11.9312 21.6625 12.7068 21.8703 13.3134 21.5201L21.8557 16.5881C22.4622 16.2379 22.6701 15.4622 22.3199 14.8557L15.5561 3.1402C15.2059 2.53361 14.4303 2.32578 13.8237 2.67599ZM5.07007 7.24191C4.26131 7.70886 3.98421 8.74305 4.45115 9.55183L11.2149 21.2673C11.6818 22.0761 12.716 22.3532 13.5247 21.8862L22.067 16.9542C22.8758 16.4873 23.1529 15.4531 22.686 14.6443L15.9222 2.92883C15.4553 2.12004 14.4211 1.84293 13.6124 2.30988L5.07007 7.24191Z" fill="#000072"/>
<ellipse cx="0.845473" cy="0.845484" rx="0.845473" ry="0.845484" transform="matrix(0.86602 -0.50001 0.49999 0.866031 19.2967 14.9741)" fill="#FF1E97"/>
<path d="M19.5036 11.394C19.3679 10.5608 17.9727 10.3283 16.7713 10.3089H16.7519C16.2139 9.63214 15.4505 9.17136 14.601 9.01057C12.8182 8.65109 11.04 9.6472 10.4155 11.3553V11.394C9.34969 11.801 8.10952 12.4598 8.26454 13.293C8.34205 13.7968 8.88463 14.1263 9.71787 14.2813C10.0443 14.3425 10.3744 14.3814 10.7061 14.3976H10.7643C11.2981 15.3155 12.2022 15.9583 13.2446 16.1609C15.2599 16.5485 17.217 15.2502 17.5852 13.293V13.2543C18.5541 12.7892 19.6198 12.1691 19.5036 11.394ZM13.3609 15.5021C12.6541 15.3701 12.02 14.9841 11.5781 14.4169C12.4488 14.3984 13.3168 14.3142 14.1747 14.165C15.0561 14.0313 15.9246 13.8238 16.7713 13.5449C16.2858 14.96 14.8275 15.7968 13.3609 15.5021ZM17.6046 12.4598L17.1395 12.6729L16.9263 12.7505C16.907 12.7505 16.907 12.7698 16.8876 12.7505C15.9679 13.0736 15.021 13.3135 14.0585 13.4674C13.0865 13.6415 12.1005 13.7259 11.1131 13.7193L10.3767 13.6612C9.46596 13.5837 8.94276 13.3705 8.92338 13.1961C8.90401 13.0217 9.21405 12.6729 10.2217 12.2273C10.1784 12.7031 10.2244 13.1829 10.3573 13.6418L11.0937 13.6806C10.6662 12.5447 10.9644 11.2631 11.8494 10.4326C12.7344 9.60207 14.0322 9.38576 15.1387 9.88438C16.2452 10.383 16.9429 11.4986 16.907 12.7117L17.1201 12.6342L17.6046 12.4404C17.5649 11.9426 17.4335 11.4565 17.217 11.0065C17.1576 10.8774 17.0862 10.7541 17.0039 10.6383L17.2364 11.0258C18.3603 11.1034 18.806 11.3746 18.8253 11.5297C18.8447 11.6847 18.5541 12.0141 17.6046 12.4598Z" fill="#000072"/>
<path d="M14.6249 15.0372C15.065 14.946 15.3849 14.6937 15.3393 14.4737C15.2937 14.2536 14.9 14.1491 14.4599 14.2402C14.0197 14.3314 13.6998 14.5837 13.7454 14.8037C13.791 15.0238 14.1848 15.1283 14.6249 15.0372Z" fill="#FF0000"/>
<path d="M8.96196 10.6966C9.7004 10.6966 10.299 10.098 10.299 9.35952C10.299 8.62108 9.7004 8.02246 8.96196 8.02246C8.22353 8.02246 7.62491 8.62108 7.62491 9.35952C7.62491 10.098 8.22353 10.6966 8.96196 10.6966Z" fill="#000072"/>
<path d="M8.2837 9.01071C8.45494 9.01071 8.59375 8.8719 8.59375 8.70067C8.59375 8.52943 8.45494 8.39062 8.2837 8.39062C8.11247 8.39062 7.97366 8.52943 7.97366 8.70067C7.97366 8.8719 8.11247 9.01071 8.2837 9.01071Z" fill="white"/>
<path d="M9.73699 9.13139C9.86779 9.13139 9.97383 9.02535 9.97383 8.89455C9.97383 8.76375 9.86779 8.65771 9.73699 8.65771C9.60619 8.65771 9.50015 8.76375 9.50015 8.89455C9.50015 9.02535 9.60619 9.13139 9.73699 9.13139Z" fill="white"/>
<path d="M9.00078 9.61577C9.13159 9.61577 9.23762 9.50973 9.23762 9.37893C9.23762 9.24813 9.13159 9.14209 9.00078 9.14209C8.86998 9.14209 8.76395 9.24813 8.76395 9.37893C8.76395 9.50973 8.86998 9.61577 9.00078 9.61577Z" fill="white"/>
<path d="M8.63247 10.7203C8.76327 10.7203 8.8693 10.6142 8.8693 10.4834C8.8693 10.3526 8.76327 10.2466 8.63247 10.2466C8.50167 10.2466 8.39563 10.3526 8.39563 10.4834C8.39563 10.6142 8.50167 10.7203 8.63247 10.7203Z" fill="white"/>
<path d="M7.89626 9.61577C8.02706 9.61577 8.1331 9.50973 8.1331 9.37893C8.1331 9.24813 8.02706 9.14209 7.89626 9.14209C7.76546 9.14209 7.65942 9.24813 7.65942 9.37893C7.65942 9.50973 7.76546 9.61577 7.89626 9.61577Z" fill="white"/>
<path d="M9.36883 10.2359C9.49963 10.2359 9.60567 10.1298 9.60567 9.99904C9.60567 9.86824 9.49963 9.76221 9.36883 9.76221C9.23802 9.76221 9.13199 9.86824 9.13199 9.99904C9.13199 10.1298 9.23802 10.2359 9.36883 10.2359Z" fill="white"/>
</svg>
