<svg width="24" height="24" viewBox="0 0 24 24" fill="none" xmlns="http://www.w3.org/2000/svg">
<path d="M1.40911 9.35555C0.942172 8.54676 1.21927 7.51257 2.02804 7.04562L9.35 2.81817C10.1588 2.35122 11.1929 2.62833 11.6599 3.43711L17.5781 13.6881C18.0451 14.4969 17.768 15.5311 16.9592 15.9981L9.63724 20.2255C8.82848 20.6925 7.79432 20.4154 7.32738 19.6066L1.40911 9.35555Z" fill="#A21DF7"/>
<path fill-rule="evenodd" clip-rule="evenodd" d="M9.56136 3.18428L2.2394 7.41173C1.63283 7.76194 1.425 8.53759 1.77521 9.14417L7.69348 19.3952C8.04368 20.0018 8.8193 20.2096 9.42587 19.8594L16.7478 15.632C17.3544 15.2817 17.5622 14.5061 17.212 13.8995L11.2938 3.64848C10.9436 3.0419 10.1679 2.83406 9.56136 3.18428ZM2.02804 7.04562C1.21927 7.51257 0.942172 8.54676 1.40911 9.35555L7.32738 19.6066C7.79432 20.4154 8.82848 20.6925 9.63724 20.2255L16.9592 15.9981C17.768 15.5311 18.0451 14.4969 17.5781 13.6881L11.6599 3.43711C11.1929 2.62833 10.1588 2.35122 9.35 2.81817L2.02804 7.04562Z" fill="#000072"/>
<path fill-rule="evenodd" clip-rule="evenodd" d="M4.5223 11.7885C4.46394 11.6874 4.49857 11.5582 4.59967 11.4998L11.9216 7.27233C12.0227 7.21396 12.152 7.2486 12.2104 7.3497C12.2687 7.4508 12.2341 7.58007 12.133 7.63844L4.81104 11.8659C4.70994 11.9243 4.58067 11.8896 4.5223 11.7885Z" fill="#000072"/>
<path fill-rule="evenodd" clip-rule="evenodd" d="M5.64959 13.7412C5.59122 13.6401 5.62586 13.5108 5.72696 13.4524L13.0489 9.22497C13.15 9.1666 13.2793 9.20124 13.3377 9.30233C13.396 9.40343 13.3614 9.53271 13.2603 9.59107L5.93832 13.8185C5.83723 13.8769 5.70796 13.8423 5.64959 13.7412Z" fill="#000072"/>
<path fill-rule="evenodd" clip-rule="evenodd" d="M6.77688 15.6938C6.71851 15.5927 6.75315 15.4634 6.85425 15.4051L14.1762 11.1776C14.2773 11.1192 14.4066 11.1539 14.4649 11.255C14.5233 11.3561 14.4887 11.4853 14.3876 11.5437L7.06561 15.7712C6.96452 15.8295 6.83525 15.7949 6.77688 15.6938Z" fill="#000072"/>
<path d="M4.45115 9.55183C3.98421 8.74305 4.26132 7.70886 5.07008 7.24191L13.6124 2.30988C14.4211 1.84293 15.4553 2.12004 15.9222 2.92883L22.686 14.6443C23.1529 15.4531 22.8758 16.4873 22.067 16.9542L13.5247 21.8862C12.716 22.3532 11.6818 22.0761 11.2149 21.2673L4.45115 9.55183Z" fill="white"/>
<path fill-rule="evenodd" clip-rule="evenodd" d="M13.8237 2.67599L5.28144 7.60802C4.67487 7.95823 4.46705 8.73387 4.81725 9.34046L11.581 21.0559C11.9312 21.6625 12.7068 21.8703 13.3134 21.5201L21.8557 16.5881C22.4622 16.2379 22.6701 15.4622 22.3199 14.8557L15.5561 3.1402C15.2059 2.53361 14.4303 2.32578 13.8237 2.67599ZM5.07008 7.24191C4.26132 7.70886 3.98421 8.74305 4.45115 9.55183L11.2149 21.2673C11.6818 22.0761 12.716 22.3532 13.5247 21.8862L22.067 16.9542C22.8758 16.4873 23.1529 15.4531 22.686 14.6443L15.9222 2.92883C15.4553 2.12004 14.4211 1.84293 13.6124 2.30988L5.07008 7.24191Z" fill="#000072"/>
<ellipse cx="0.845473" cy="0.845484" rx="0.845473" ry="0.845484" transform="matrix(0.86602 -0.50001 0.49999 0.866031 19.2967 14.9741)" fill="#FF1E97"/>
<path d="M13.9841 8.02711H12.8804C12.6548 8.03762 12.4744 8.21808 12.4639 8.44361V15.399C12.4639 15.629 12.6503 15.8155 12.8804 15.8155H13.9841C14.1011 15.8196 14.2145 15.7743 14.2964 15.6905C14.3673 15.6103 14.4046 15.5059 14.4006 15.399V8.44361C14.4046 8.33666 14.3673 8.23225 14.2964 8.15206C14.2145 8.06834 14.1011 8.02299 13.9841 8.02711ZM13.7966 8.63103V9.31824H13.0678V8.63103H13.7966ZM13.047 15.2116V9.94297H13.7758V15.2116H13.047Z" fill="#000072"/>
<path d="M16.2748 8.02711H15.1711C14.9456 8.03762 14.7651 8.21808 14.7546 8.44361V15.399C14.7546 15.629 14.9411 15.8155 15.1711 15.8155H16.2748C16.3919 15.8196 16.5052 15.7743 16.5872 15.6905C16.658 15.6103 16.6953 15.5059 16.6913 15.399V8.44361C16.6953 8.33666 16.658 8.23225 16.5872 8.15206C16.5052 8.06834 16.3919 8.02299 16.2748 8.02711ZM16.0874 8.63103V9.31824H15.3585V8.63103H16.0874ZM15.3377 15.2116V9.94297H16.0665V15.2116H15.3377Z" fill="#000072"/>
<path d="M11.6517 7.98561H10.5272C10.4101 7.98148 10.2967 8.02684 10.2148 8.11056C10.1472 8.20067 10.1107 8.31028 10.1107 8.42293V15.3783C10.1122 15.4882 10.1572 15.593 10.2356 15.6699C10.3125 15.7483 10.4173 15.7932 10.5272 15.7948H11.6517C11.8817 15.7948 12.0682 15.6083 12.0682 15.3783V8.42293C12.0723 8.30587 12.027 8.19248 11.9432 8.11056C11.8663 8.03209 11.7616 7.98718 11.6517 7.98561ZM11.4643 8.58952V9.3392H10.7146V8.58952H11.4643ZM10.7146 15.1909V9.94312H11.4643V15.1909H10.7146Z" fill="#000072"/>
</svg>
