<svg width="24" height="24" viewBox="0 0 24 24" fill="none" xmlns="http://www.w3.org/2000/svg">
<circle cx="12" cy="12" r="11" fill="white"/>
<path d="M12 1C9.82441 1 7.69767 1.64514 5.88873 2.85383C4.07979 4.06253 2.66989 5.78049 1.83733 7.79048C1.00476 9.80046 0.78693 12.0122 1.21137 14.146C1.6358 16.2798 2.68345 18.2398 4.22183 19.7782C5.76021 21.3165 7.72022 22.3642 9.85401 22.7886C11.9878 23.2131 14.1995 22.9952 16.2095 22.1627C18.2195 21.3301 19.9375 19.9202 21.1462 18.1113C22.3549 16.3023 23 14.1756 23 12C23 10.5554 22.7155 9.12504 22.1627 7.79044C21.61 6.45584 20.7997 5.2432 19.7782 4.22175C18.7568 3.2003 17.5441 2.39005 16.2096 1.83726C14.875 1.28447 13.4446 0.999968 12 1V1ZM8.56513 18.0036C8.19952 18.0036 7.84211 17.8952 7.53811 17.692C7.23411 17.4889 6.99717 17.2002 6.85725 16.8624C6.71734 16.5246 6.68073 16.1529 6.75206 15.7944C6.82339 15.4358 6.99945 15.1064 7.25798 14.8478C7.51651 14.5893 7.8459 14.4133 8.20449 14.3419C8.56308 14.2706 8.93477 14.3072 9.27256 14.4471C9.61035 14.587 9.89905 14.824 10.1022 15.128C10.3053 15.432 10.4137 15.7894 10.4137 16.155C10.4137 16.6453 10.2189 17.1154 9.87222 17.4621C9.52555 17.8087 9.05539 18.0035 8.56513 18.0036V18.0036ZM12.8562 13.8486C11.8367 13.8486 7.57526 12 7.57526 12C7.57526 12 11.8342 10.1514 12.8562 10.1514C13.3465 10.1514 13.8167 10.3462 14.1634 10.6928C14.5101 11.0395 14.7048 11.5097 14.7048 12C14.7048 12.4903 14.5101 12.9605 14.1634 13.3071C13.8167 13.6538 13.3465 13.8486 12.8562 13.8486V13.8486ZM15.4299 9.69111C14.4103 9.69111 8.43398 7.84252 8.43398 7.84252C8.43398 7.84252 14.4103 5.99392 15.4299 5.99392C15.9202 5.99392 16.3904 6.18868 16.7371 6.53536C17.0838 6.88204 17.2785 7.35224 17.2785 7.84252C17.2785 8.33279 17.0838 8.80299 16.7371 9.14967C16.3904 9.49635 15.9202 9.69111 15.4299 9.69111V9.69111Z" fill="#ED1C24"/>
</svg>
