<svg width="24" height="24" viewBox="0 0 24 24" fill="none" xmlns="http://www.w3.org/2000/svg">
<rect x="2" y="2" width="20" height="20" rx="6" fill="url(#paint0_linear_1888_19593)"/>
<path d="M11.8111 5.15262C11.8548 4.94913 12.1452 4.94913 12.1889 5.15262L13.1693 9.71837C13.289 10.2757 13.7243 10.711 14.2816 10.8307L18.8474 11.8111C19.0509 11.8548 19.0509 12.1452 18.8474 12.1889L14.2816 13.1693C13.7243 13.289 13.289 13.7243 13.1693 14.2816L12.1889 18.8474C12.1452 19.0509 11.8548 19.0509 11.8111 18.8474L10.8307 14.2816C10.711 13.7243 10.2757 13.289 9.71837 13.1693L5.15262 12.1889C4.94913 12.1452 4.94913 11.8548 5.15262 11.8111L9.71837 10.8307C10.2757 10.711 10.711 10.2757 10.8307 9.71837L11.8111 5.15262Z" fill="white"/>
<defs>
<linearGradient id="paint0_linear_1888_19593" x1="4" y1="21.5" x2="19.5" y2="2" gradientUnits="userSpaceOnUse">
<stop stop-color="#83C3ED"/>
<stop offset="0.270833" stop-color="#5186D4"/>
<stop offset="0.512935" stop-color="#4149BD"/>
<stop offset="0.751142" stop-color="#4D1A70"/>
<stop offset="1" stop-color="#13161E"/>
</linearGradient>
</defs>
</svg>
