<svg width="24" height="24" viewBox="0 0 24 24" fill="none" xmlns="http://www.w3.org/2000/svg">
<path fill-rule="evenodd" clip-rule="evenodd" d="M11.3456 3.23796C11.3456 3.11866 11.4423 3.02194 11.5616 3.02194H14.4535C14.5728 3.02194 14.6695 3.11866 14.6695 3.23796V6.12982C14.6695 6.24913 14.5728 6.34584 14.4535 6.34584H11.5616C11.4423 6.34584 11.3456 6.24913 11.3456 6.12982V3.23796ZM12.6417 4.10203C12.5224 4.10203 12.4257 4.19874 12.4257 4.31804V5.04974C12.4257 5.16904 12.5224 5.26576 12.6417 5.26576H13.3734C13.4927 5.26576 13.5894 5.16904 13.5894 5.04974V4.31804C13.5894 4.19874 13.4927 4.10203 13.3734 4.10203H12.6417Z" fill="#CBC7C5"/>
<path fill-rule="evenodd" clip-rule="evenodd" d="M11.3455 3.23796C11.3455 3.11866 11.4422 3.02194 11.5615 3.02194H14.4533C14.5726 3.02194 14.6694 3.11866 14.6694 3.23796V6.12982C14.6694 6.24913 14.5726 6.34584 14.4533 6.34584H11.5615C11.4422 6.34584 11.3455 6.24913 11.3455 6.12982V3.23796ZM12.6416 4.10203C12.5223 4.10203 12.4255 4.19874 12.4255 4.31804V5.04974C12.4255 5.16904 12.5223 5.26576 12.6416 5.26576H13.3733C13.4926 5.26576 13.5893 5.16904 13.5893 5.04974V4.31804C13.5893 4.19874 13.4926 4.10203 13.3733 4.10203H12.6416Z" fill="#CBC7C5"/>
<path fill-rule="evenodd" clip-rule="evenodd" d="M1.24094 12.2524C1.13053 12.2072 1.07764 12.0811 1.12282 11.9707L2.218 9.2942C2.26318 9.18378 2.38931 9.1309 2.49973 9.17608L5.1762 10.2713C5.28661 10.3164 5.3395 10.4426 5.29432 10.553L4.19914 13.2295C4.15396 13.3399 4.02783 13.3928 3.91741 13.3476L1.24094 12.2524ZM2.53149 11.3801C2.48631 11.4905 2.5392 11.6166 2.64961 11.6618L3.32681 11.9389C3.43723 11.9841 3.56336 11.9312 3.60855 11.8208L3.88564 11.1436C3.93083 11.0332 3.87794 10.907 3.76752 10.8619L3.09033 10.5848C2.97991 10.5396 2.85377 10.5925 2.80859 10.7029L2.53149 11.3801Z" fill="#CBC7C5"/>
<path fill-rule="evenodd" clip-rule="evenodd" d="M4.76437 6.34853C4.69616 6.25065 4.72022 6.116 4.8181 6.0478L7.19077 4.39452C7.28865 4.32632 7.42329 4.35037 7.4915 4.44826L9.14478 6.82092C9.21298 6.91881 9.18892 7.05345 9.09104 7.12166L6.71837 8.77493C6.62049 8.84314 6.48585 8.81908 6.41764 8.7212L4.76437 6.34853ZM6.32176 6.31648C6.22387 6.38469 6.19981 6.51933 6.26802 6.61721L6.68633 7.21754C6.75453 7.31543 6.88918 7.33949 6.98706 7.27128L7.58739 6.85297C7.68527 6.78476 7.70933 6.65012 7.64113 6.55224L7.22282 5.95191C7.15461 5.85403 7.01997 5.82997 6.92208 5.89817L6.32176 6.31648Z" fill="#CBC7C5"/>
<path fill-rule="evenodd" clip-rule="evenodd" d="M20.9588 15.2332C20.9588 19.6247 17.3988 23.1847 13.0074 23.1847C8.61589 23.1847 5.05591 19.6247 5.05591 15.2332C5.05591 10.8417 8.61589 7.28176 13.0074 7.28176C17.3988 7.28176 20.9588 10.8417 20.9588 15.2332ZM17.7185 15.2332C17.7185 17.8351 15.6093 19.9444 13.0074 19.9444C10.4054 19.9444 8.29616 17.8351 8.29616 15.2332C8.29616 12.6313 10.4054 10.522 13.0074 10.522C15.6093 10.522 17.7185 12.6313 17.7185 15.2332ZM12.6417 8.40638C12.5224 8.40638 12.4256 8.50309 12.4256 8.62239V9.35409C12.4256 9.47339 12.5224 9.57011 12.6417 9.57011H13.3734C13.4927 9.57011 13.5894 9.47339 13.5894 9.35409V8.62239C13.5894 8.50309 13.4927 8.40638 13.3734 8.40638H12.6417ZM12.6417 20.8823C12.5224 20.8823 12.4256 20.979 12.4256 21.0983V21.83C12.4256 21.9493 12.5224 22.046 12.6417 22.046H13.3734C13.4927 22.046 13.5894 21.9493 13.5894 21.83V21.0983C13.5894 20.979 13.4927 20.8823 13.3734 20.8823H12.6417ZM17.2657 10.1452C17.35 10.0608 17.4868 10.0608 17.5712 10.1452L18.0885 10.6626C18.1729 10.7469 18.1729 10.8837 18.0885 10.968L17.5712 11.4854C17.4868 11.5698 17.35 11.5698 17.2657 11.4854L16.7483 10.968C16.6639 10.8837 16.6639 10.7469 16.7483 10.6626L17.2657 10.1452ZM8.74936 18.967C8.665 18.8826 8.52822 18.8826 8.44386 18.967L7.92648 19.4844C7.84212 19.5687 7.84212 19.7055 7.92648 19.7898L8.44386 20.3072C8.52822 20.3916 8.665 20.3916 8.74936 20.3072L9.26674 19.7898C9.3511 19.7055 9.3511 19.5687 9.26674 19.4844L8.74936 18.967ZM19.6113 14.6443C19.7306 14.6443 19.8273 14.7411 19.8273 14.8604V15.5921C19.8273 15.7114 19.7306 15.8081 19.6113 15.8081H18.8796C18.7603 15.8081 18.6636 15.7114 18.6636 15.5921V14.8604C18.6636 14.7411 18.7603 14.6443 18.8796 14.6443H19.6113ZM7.35141 14.8604C7.35141 14.7411 7.25469 14.6443 7.13539 14.6443H6.40369C6.28439 14.6443 6.18768 14.7411 6.18768 14.8604V15.5921C6.18768 15.7114 6.28439 15.8081 6.40369 15.8081H7.13539C7.25469 15.8081 7.35141 15.7114 7.35141 15.5921V14.8604ZM18.0886 19.4844C18.1729 19.5687 18.1729 19.7055 18.0886 19.7899L17.5712 20.3072C17.4868 20.3916 17.3501 20.3916 17.2657 20.3072L16.7483 19.7899C16.6639 19.7055 16.6639 19.5687 16.7483 19.4844L17.2657 18.967C17.3501 18.8826 17.4868 18.8826 17.5712 18.967L18.0886 19.4844ZM9.26677 10.9681C9.35113 10.8837 9.35113 10.7469 9.26677 10.6626L8.74938 10.1452C8.66502 10.0608 8.52825 10.0608 8.44389 10.1452L7.9265 10.6626C7.84214 10.7469 7.84214 10.8837 7.9265 10.9681L8.44389 11.4854C8.52825 11.5698 8.66502 11.5698 8.74938 11.4854L9.26677 10.9681Z" fill="#E7368A"/>
<path d="M13.6425 1.45042C13.6425 1.80117 13.3581 2.0855 13.0074 2.0855C12.6567 2.0855 12.3723 1.80117 12.3723 1.45042C12.3723 1.09967 12.6567 0.815338 13.0074 0.815338C13.3581 0.815338 13.6425 1.09967 13.6425 1.45042Z" fill="#E7368A"/>
<path d="M11.5124 1.83014C11.5124 2.18088 11.228 2.46522 10.8773 2.46522C10.5265 2.46522 10.2422 2.18088 10.2422 1.83014C10.2422 1.47939 10.5265 1.19506 10.8773 1.19506C11.228 1.19506 11.5124 1.47939 11.5124 1.83014Z" fill="#E7368A"/>
<path d="M15.7725 1.83015C15.7725 2.18089 15.4881 2.46523 15.1374 2.46523C14.7866 2.46523 14.5023 2.18089 14.5023 1.83015C14.5023 1.4794 14.7866 1.19506 15.1374 1.19506C15.4881 1.19506 15.7725 1.4794 15.7725 1.83015Z" fill="#E7368A"/>
</svg>
