<svg width="24" height="24" viewBox="0 0 24 24" fill="none" xmlns="http://www.w3.org/2000/svg">
<path d="M4.78546 3.54544C9.16407 1.77637 13.6414 2.5418 14.7746 5.3467C15.4612 7.04618 14.7532 9.11238 12.9789 10.9L12.9248 10.9541L12.866 11.012C11.7415 12.1322 10.2651 13.0897 8.5895 13.7667C7.8256 14.0754 7.03927 14.3056 6.24555 14.4616L5.92454 16.5162L5.8784 16.8134L5.79943 17.3415L5.75139 17.6835L5.72452 17.8869L5.68664 18.2017L5.67013 18.3584L5.65434 18.534L5.64741 18.6284L5.64228 18.7154L5.63889 18.7954L5.63715 18.8683L5.6373 18.9584L5.63778 18.9796C5.64286 19.1694 5.71533 19.3223 5.85541 19.4033C5.95237 19.4593 6.15352 19.461 6.44904 19.3951L6.47794 19.3885L6.50502 19.3818L6.5366 19.3726L6.54858 19.3688L6.5996 19.3506L6.63603 19.336L6.67436 19.3193L6.73532 19.2906L7.03061 19.1107L7.4057 18.8806L7.70778 18.6937L7.98545 18.5203L8.20403 18.3825L8.40467 18.2545L8.55816 18.1555L8.67198 18.0813L8.80302 17.9947L8.89888 17.9304L9.00713 17.8565L10.8064 16.6078L11.4077 16.1934L11.5876 16.072L11.6472 16.0322L11.7605 15.9573L11.8661 15.8886L11.9404 15.841L12.0332 15.7827L12.1192 15.7302L12.1794 15.6945L12.2361 15.6619L12.272 15.6419L12.323 15.6144L12.3552 15.5977L12.3861 15.5823L12.4228 15.5649L12.4575 15.5494L12.4838 15.5384L12.509 15.5287L12.533 15.5201L12.5445 15.5163L12.5668 15.5096L12.588 15.504L12.5983 15.5016L12.618 15.4978L12.6275 15.4963L12.6457 15.4941L12.6631 15.493L12.6714 15.4929C13.2495 15.4929 13.5511 15.7992 13.5511 16.2858L13.551 16.296L13.5506 16.3067L13.5492 16.3294L13.5482 16.3415L13.5454 16.3669L13.5407 16.4014L13.5344 16.4387L13.5284 16.4706L13.5177 16.5221L13.5093 16.5587L13.495 16.6171L13.4787 16.6798L13.4602 16.7467L13.4467 16.7937L13.4248 16.8677L13.4007 16.946L13.3835 17.0006L13.3559 17.0861L13.3261 17.1759L13.2832 17.3024L13.2486 17.4024L13.199 17.5425L13.1729 17.6155L13.1177 17.7673L13.0587 17.9271L12.977 18.1444L13.0668 18.0828C13.2705 17.945 13.4574 17.8254 13.6368 17.7185L13.6856 17.6896L13.7341 17.6614C13.8743 17.5802 14.0102 17.5068 14.142 17.4413L14.1983 17.4137L14.2726 17.3784C15.0723 17.0051 15.722 16.9336 16.304 17.1825C16.777 17.3849 17.0057 17.6581 17.2248 18.2476L17.2367 18.2801L17.2774 18.3954L17.3387 18.5768L17.3545 18.6223L17.3863 18.7093C17.4925 18.9878 17.6038 19.1597 17.7206 19.2349C17.9169 19.3613 18.1857 19.4083 18.6071 19.3861L18.6841 19.3815L18.7678 19.3754L18.8109 19.372L18.8997 19.3642L18.9917 19.3554L19.0389 19.3505L19.16 19.3372L19.2855 19.3223L19.3368 19.3159L19.4413 19.3023L19.5481 19.2877L19.657 19.2721L19.768 19.2556L19.8241 19.247L19.9377 19.2291L19.9951 19.2198L20.111 19.2005L20.2282 19.1805L20.3466 19.1595L20.466 19.1378L20.5862 19.1153L20.707 19.092L20.8284 19.068L20.95 19.0432L21.0719 19.0178L21.1937 18.9917L21.3154 18.9649L21.4669 18.9305L21.6177 18.8952L21.7375 18.8663C21.7905 18.8534 21.8433 18.8402 21.8957 18.827L21.9741 18.8069L22.1181 18.7698L22.0627 19.2766L22.0006 19.3017L21.8168 19.3754L21.6368 19.4465L21.5189 19.4925L21.4026 19.5375L21.2314 19.6029L21.1192 19.6451L21.0087 19.6862L20.8998 19.7263L20.7925 19.7653L20.6346 19.8218L20.4802 19.876L20.3793 19.9108L20.2799 19.9445L20.1338 19.9932L20.0383 20.0244L19.9212 20.0619L19.8063 20.0979L19.7162 20.1255L19.6276 20.1521L19.5405 20.1777L19.4548 20.2024L19.3707 20.226L19.288 20.2487L19.1667 20.2808L19.0877 20.3011L19.0101 20.3203L18.934 20.3386L18.8408 20.3602L18.7498 20.3803L18.661 20.3989L18.5745 20.416L18.5404 20.4225L18.4569 20.4376L18.3754 20.4513L18.3118 20.4612L18.2421 20.4713L18.1664 20.4812C17.5827 20.5536 17.2227 20.4979 16.947 20.3447C16.592 20.1475 16.3849 19.8856 16.1893 19.4251L16.1757 19.3927L16.1497 19.3288L16.1367 19.2959L16.1107 19.2283L16.0977 19.1935L16.0319 19.0116L15.9392 18.7395L15.9124 18.6648L15.8875 18.5991L15.8633 18.5399L15.8554 18.5215L15.8476 18.5042L15.8328 18.4725C15.7871 18.3782 15.752 18.3402 15.7097 18.3221C15.6411 18.2928 15.5338 18.2937 15.394 18.3253L15.369 18.3311L15.3285 18.3416C15.2696 18.3578 15.2057 18.3787 15.1373 18.4044L15.1027 18.4176L15.0531 18.4375L15.002 18.459L14.976 18.4703L14.9496 18.4821L14.8957 18.5067L14.8405 18.5329L14.784 18.5607L14.7263 18.5901L14.6673 18.6211L14.6373 18.6372L14.5765 18.6705L14.5301 18.6966L14.483 18.7236L14.4509 18.7426L14.4128 18.7661L14.337 18.8144L14.2849 18.8483L14.1881 18.9124L14.0582 18.9999L13.9163 19.0971L13.7401 19.2195L13.5837 19.3296L13.4407 19.4316L13.3525 19.4952L13.2667 19.5576L13.1835 19.6185L13.1033 19.6779L13.0265 19.7353L12.9181 19.8175L12.5272 20.1211L12.4824 20.155C12.3562 20.2494 12.2578 20.3142 12.1597 20.3652C11.9871 20.455 11.8183 20.4979 11.6218 20.4979C11.1397 20.4979 10.7422 20.1471 10.7422 19.705C10.7422 19.6484 10.7487 19.5926 10.7625 19.5353L10.77 19.5064L10.7831 19.465C10.8297 19.322 10.8954 19.1769 10.9903 19.013L11.0081 18.9826L11.692 17.5712L11.4446 17.7849L11.1666 18.0222L10.8951 18.2512L10.7174 18.3995L10.4566 18.6149L10.2861 18.754L10.1185 18.8895L9.9536 19.0214L9.71188 19.2122L9.554 19.3351L9.3229 19.5122L9.17224 19.6259L9.0242 19.736L8.80791 19.8941L8.6671 19.995L8.52909 20.0924L8.39439 20.1857L8.32704 20.2317L8.13182 20.3625L8.00497 20.4454L7.88089 20.5246L7.76029 20.5997L7.69995 20.6366L7.58276 20.7068L7.46917 20.7728L7.41211 20.8052L7.30174 20.8664L7.19512 20.9233L7.14125 20.9513L7.03878 21.0028L6.98678 21.0281L6.88844 21.0742L6.83825 21.0967L6.74401 21.1374C6.68099 21.1637 6.61981 21.1876 6.56046 21.209C5.52056 21.5839 4.44262 21.4029 3.92254 20.7713C3.7315 20.5393 3.61736 20.3361 3.58222 20.0702L3.5773 20.0276L3.57191 19.9686L3.56848 19.9206L3.56583 19.8716L3.56396 19.8216L3.56332 19.7962L3.56256 19.7447V19.6919L3.56355 19.6379L3.56519 19.5826L3.5676 19.5258L3.57269 19.4378L3.57704 19.3771L3.58359 19.2989L3.59135 19.2179L3.59843 19.151L3.60628 19.082L3.61492 19.0111L3.62433 18.938L3.63451 18.8626L3.64547 18.785L3.65721 18.705L3.67627 18.5804L3.68994 18.4941L3.71191 18.3597L3.73568 18.2189L3.754 18.1171L3.7795 17.9862L3.82271 17.779L3.93053 17.2852L4.44666 14.9761L4.51127 14.6852C3.76591 14.7322 3.02366 14.7167 2.29684 14.642L2.19312 14.6309L1.88208 14.5964L2.09896 13.5756L2.3979 13.5756L2.60151 13.5746L2.66786 13.574L2.79836 13.5724L2.92604 13.5703L3.05101 13.5675L3.1734 13.5642L3.23366 13.5623L3.3524 13.558L3.46886 13.553L3.58315 13.5473L3.69539 13.541L3.75079 13.5375L3.86019 13.53L3.96785 13.5218C4.0272 13.517 4.0858 13.5118 4.14374 13.5063L4.23016 13.4977L4.33266 13.4866L4.38345 13.4808L4.48419 13.4684L4.53416 13.4619L4.63341 13.4482C4.68564 13.4407 4.73751 13.4328 4.78912 13.4245L4.81146 13.3216L4.90099 12.8986L4.96081 12.608L5.01516 12.3469L5.07107 12.0828L5.12852 11.8159L5.18748 11.5461L5.21752 11.4102L5.27871 11.1364L5.34135 10.8599L5.3732 10.7207L5.43797 10.4405L5.47088 10.2995L5.53772 10.0156L5.57165 9.8728L5.64051 9.5855L5.71068 9.29598L5.78214 9.00433L5.81834 8.85772L5.89169 8.56301L5.96626 8.26635L6.06431 7.88045L7.31055 7.64369L6.47463 12.9948L6.49517 12.9879L6.60029 12.9517L6.7339 12.9045L6.87016 12.8552L6.98125 12.8141L7.09431 12.7716L7.20946 12.7277L7.26786 12.7052L7.38637 12.6591L7.50728 12.6114L7.6307 12.5623L7.75675 12.5116C11.3821 11.0469 13.5699 8.09775 12.7161 5.98443C11.905 3.97695 8.4515 3.59611 4.72743 5.06544L4.6145 5.11053L4.34628 5.21698L3.82964 5.4365L4.17529 3.80629L4.30954 3.74815L4.507 3.66294L4.70426 3.579L4.78546 3.54544Z" fill="#FF3043"/>
</svg>
