<svg width="24" height="24" viewBox="0 0 24 24" fill="none" xmlns="http://www.w3.org/2000/svg">
<path d="M8.71875 3L12 4.93102L15.2812 3L22.5 7.24832V12.2048L19.2188 14.1358V16.7986L12 21.0469L4.78125 16.7986V14.1358L1.5 12.2048V7.24832L8.71875 3Z" fill="white"/>
<path d="M8.71875 3L15.9375 7.24835V12.2048L8.71875 16.4531L1.5 12.2048V7.24835L8.71875 3Z" fill="#72BDFF" fill-opacity="0.8"/>
<path d="M15.2813 3L22.5 7.24835V12.2048L15.2813 16.4531L8.0625 12.2048V7.24835L15.2813 3Z" fill="#FFE341" fill-opacity="0.8"/>
<path d="M12 7.59375L19.2188 11.8421V16.7985L12 21.0469L4.78125 16.7985V11.8421L12 7.59375Z" fill="#EB8514" fill-opacity="0.8"/>
</svg>
