<svg width="24" height="24" viewBox="0 0 24 24" fill="none" xmlns="http://www.w3.org/2000/svg">
<rect x="2" y="2" width="20" height="20" fill="#0F0F0F"/>
<path fill-rule="evenodd" clip-rule="evenodd" d="M11.6288 5.13037H14.2391C15.9631 5.13037 17.3608 6.52798 17.3608 8.25203C17.3608 9.97607 15.9631 11.3737 14.2391 11.3737H13.1516V19.4962L6.63916 9.85092H11.6288V5.13037ZM13.1516 9.85092H14.2391C15.1221 9.85092 15.838 9.13507 15.838 8.25203C15.838 7.36898 15.1221 6.65313 14.2391 6.65313H13.1516V9.85092ZM11.6288 11.3737H9.50468L11.6288 14.5196V11.3737Z" fill="white"/>
<path d="M11.0643 7.47016C11.0643 8.49055 10.2371 9.31774 9.2167 9.31774C8.19631 9.31774 7.36913 8.49055 7.36913 7.47016C7.36913 6.44977 8.19631 5.62258 9.2167 5.62258C10.2371 5.62258 11.0643 6.44977 11.0643 7.47016Z" fill="white"/>
</svg>
