<svg width="24" height="24" viewBox="0 0 24 24" fill="none" xmlns="http://www.w3.org/2000/svg">
<mask id="mask0" mask-type="alpha" maskUnits="userSpaceOnUse" x="2" y="2" width="20" height="20">
<path d="M2 7C2 4.23858 4.23858 2 7 2H17C19.7614 2 22 4.23858 22 7V17C22 19.7614 19.7614 22 17 22H7C4.23858 22 2 19.7614 2 17V7Z" fill="#C4C4C4"/>
</mask>
<g mask="url(#mask0)">
<rect x="2" y="2" width="20" height="20" fill="url(#paint0_linear)"/>
</g>
<path fill-rule="evenodd" clip-rule="evenodd" d="M12 15.1642C11.0659 16.3435 9.6213 17.1 8.00002 17.1C5.18337 17.1 2.90002 14.8166 2.90002 12C2.90002 9.18334 5.18337 6.89999 8.00002 6.89999C9.6213 6.89999 11.0659 7.65652 12 8.83581C12.9342 7.65652 14.3787 6.89999 16 6.89999C18.8167 6.89999 21.1 9.18334 21.1 12C21.1 14.8166 18.8167 17.1 16 17.1C14.3787 17.1 12.9342 16.3435 12 15.1642ZM12.0632 15.0828C12.7138 14.2265 13.1 13.1584 13.1 12C13.1 10.8416 12.7138 9.77346 12.0632 8.91722C12.9785 7.74997 14.4017 6.99999 16 6.99999C18.7614 6.99999 21 9.23857 21 12C21 14.7614 18.7614 17 16 17C14.4017 17 12.9785 16.25 12.0632 15.0828ZM11.9369 15.0828C11.0216 16.25 9.59837 17 8.00002 17C5.2386 17 3.00002 14.7614 3.00002 12C3.00002 9.23857 5.2386 6.99999 8.00002 6.99999C9.59837 6.99999 11.0216 7.74997 11.9369 8.91722C11.2862 9.77346 10.9 10.8416 10.9 12C10.9 13.1584 11.2862 14.2265 11.9369 15.0828ZM12 15.0005C11.3721 14.1647 11 13.1258 11 12C11 10.8742 11.3721 9.83525 12 8.99951C12.6279 9.83525 13 10.8742 13 12C13 13.1258 12.6279 14.1647 12 15.0005Z" fill="white"/>
<path d="M6.57312 11.5425C6.57312 10.7436 7.21483 10.0975 7.99997 10.0975C8.78512 10.0975 9.42683 10.7436 9.42683 11.5425C9.42683 12.3032 8.84552 12.9264 8.10944 12.9837C8.10944 12.9837 7.93203 12.9952 7.88673 13.0028C7.68289 13.0296 7.50926 13.1863 7.46396 13.4004C7.46396 13.4004 7.40356 13.6794 7.39979 13.7024C7.37714 13.8094 7.27145 13.8782 7.16575 13.8553C7.06006 13.8324 6.99212 13.7253 7.01477 13.6183C7.01854 13.5953 7.46396 11.4928 7.46396 11.4928C7.48661 11.3858 7.5923 11.317 7.69799 11.3399C7.80369 11.3628 7.87163 11.4699 7.84898 11.5769L7.66402 12.4409L7.63005 12.6091C7.62627 12.6205 7.6376 12.632 7.64892 12.6282C7.66147 12.6264 7.67657 12.6237 7.69422 12.6206C7.71374 12.6171 7.73639 12.6131 7.76216 12.6091C7.86031 12.5938 8.06037 12.5823 8.06037 12.5823C8.60016 12.5517 9.03048 12.0968 9.03048 11.5425C9.03048 10.95 8.53976 10.4721 7.94713 10.5027C7.41489 10.5295 6.98457 10.9729 6.96947 11.5119C6.96569 11.6381 6.98457 11.7642 7.02609 11.8827C7.06006 11.9898 7.00344 12.1045 6.90152 12.1389C6.79583 12.1733 6.68259 12.1159 6.64861 12.0127C6.59954 11.8598 6.57312 11.7031 6.57312 11.5425Z" fill="white"/>
<path d="M7.81878 13.6106C7.84521 13.4768 7.97355 13.3965 8.10189 13.4233C8.23401 13.4501 8.31328 13.5762 8.28685 13.71C8.26043 13.8438 8.13209 13.9241 8.00375 13.8973C7.87163 13.8706 7.79236 13.7406 7.81878 13.6106Z" fill="white"/>
<path d="M17.3744 11.6018C17.4367 11.175 17.1188 10.9456 16.684 10.7925L16.8252 10.2144L16.4808 10.1267L16.3433 10.6896C16.2528 10.6666 16.1599 10.6447 16.0675 10.6233L16.2056 10.0567L15.8615 9.96896L15.7207 10.5469L15.0263 10.371L14.9346 10.747C14.9346 10.747 15.1901 10.8068 15.1847 10.8105C15.3242 10.8461 15.3495 10.9404 15.3452 11.0152L14.9588 12.599C14.9417 12.6423 14.8985 12.7072 14.801 12.6824C14.8045 12.6875 14.5508 12.6183 14.5508 12.6183L14.3798 13.0217L15.0733 13.2007L14.9308 13.7855L15.2747 13.8732L15.4159 13.2947C15.51 13.3207 15.601 13.3448 15.6902 13.3674L15.5495 13.9433L15.8939 14.031L16.0364 13.4472C16.6236 13.5608 17.0651 13.515 17.2507 12.9725C17.4005 12.5355 17.2434 12.2835 16.9344 12.119C17.1594 12.0657 17.3289 11.9145 17.3741 11.602L17.3744 11.6018ZM16.5874 12.7295C16.4807 13.1665 15.7611 12.9303 15.5275 12.871L15.7166 12.0963C15.95 12.1558 16.6984 12.2737 16.5875 12.7294L16.5874 12.7295ZM16.6942 11.5956C16.5971 11.9933 15.9979 11.7913 15.8034 11.7417L15.9746 11.0388C16.1692 11.0885 16.7952 11.1809 16.694 11.5956" fill="white"/>
<defs>
<linearGradient id="paint0_linear" x1="2" y1="2" x2="22" y2="22" gradientUnits="userSpaceOnUse">
<stop stop-color="#E41F69"/>
<stop offset="1" stop-color="#F4773D"/>
</linearGradient>
</defs>
</svg>
