<svg width="24" height="24" viewBox="0 0 24 24" fill="none" xmlns="http://www.w3.org/2000/svg">
<path d="M20.1228 19.4175C18.9637 20.6868 17.5233 21.6669 15.917 22.279C14.3108 22.8911 12.5834 23.1182 10.8735 22.9422C9.16361 22.7661 7.51876 22.1918 6.07091 21.2653C4.62305 20.3388 3.41248 19.0858 2.53629 17.607C1.66011 16.1281 1.1427 14.4645 1.02557 12.7496C0.908436 11.0346 1.19484 9.3161 1.86181 7.73184C2.52878 6.14758 3.55775 4.74168 4.86619 3.6269C6.17463 2.51213 7.72611 1.71951 9.39619 1.31262L9.7455 2.74639C8.29947 3.09869 6.95613 3.78498 5.82323 4.7502C4.69033 5.71543 3.7994 6.93272 3.22191 8.30444C2.64442 9.67616 2.39643 11.1641 2.49785 12.649C2.59927 14.1339 3.04726 15.5743 3.8059 16.8548C4.56454 18.1352 5.61271 19.2201 6.86633 20.0223C8.11995 20.8245 9.54413 21.3218 11.0246 21.4742C12.5051 21.6266 14.0008 21.43 15.3915 20.9C16.7823 20.37 18.0295 19.5215 19.0331 18.4224L20.1228 19.4175Z" fill="#FF4DA0"/>
<path d="M20.1228 19.4175C18.3459 21.3635 15.9293 22.6068 13.313 22.9214C10.6966 23.2359 8.05426 22.6007 5.8667 21.1314C3.67914 19.6621 2.09175 17.4563 1.39335 14.9153C0.694947 12.3743 0.931954 9.66704 2.06124 7.28607L3.39459 7.91847C2.4168 9.98002 2.21159 12.3241 2.81629 14.5242C3.421 16.7243 4.79543 18.6342 6.68952 19.9064C8.5836 21.1786 10.8715 21.7285 13.1368 21.4562C15.4022 21.1838 17.4945 20.1073 19.0331 18.4224L20.1228 19.4175Z" fill="#E5007A"/>
<path d="M12.0002 20.8002C10.5209 20.8002 9.06554 20.4273 7.76854 19.716C6.47153 19.0046 5.37477 17.9778 4.57963 16.7304C3.78449 15.4831 3.31662 14.0554 3.21927 12.5793C3.12192 11.1033 3.39824 9.62648 4.02267 8.28547C4.64711 6.94447 5.59952 5.78251 6.79187 4.90701C7.98422 4.0315 9.37803 3.47069 10.8445 3.27642C12.3109 3.08214 13.8027 3.26067 15.1819 3.79551C16.5611 4.33034 17.7832 5.20422 18.7353 6.33637L17.5117 7.36532C16.7326 6.43885 15.7325 5.72373 14.6039 5.28606C13.4752 4.84839 12.2545 4.7023 11.0544 4.86127C9.8544 5.02025 8.71381 5.47918 7.73807 6.19563C6.76234 6.91209 5.98295 7.86295 5.47196 8.96033C4.96097 10.0577 4.73485 11.2662 4.81451 12.4741C4.89417 13.682 5.27704 14.8503 5.92773 15.8711C6.57842 16.8919 7.47593 17.7321 8.53731 18.3142C9.59868 18.8963 10.7897 19.2015 12.0002 19.2015L12.0002 20.8002Z" fill="#FF88C9"/>
<path d="M12.0002 20.8002C10.1486 20.8002 8.34422 20.2162 6.8438 19.1312C5.34338 18.0463 4.22341 16.5157 3.64328 14.7574C3.06316 12.999 3.05243 11.1025 3.61264 9.33769C4.17285 7.5729 5.27544 6.02977 6.76349 4.92793L7.71485 6.21276C6.49713 7.11442 5.59485 8.37721 5.13642 9.82139C4.67798 11.2656 4.68676 12.8176 5.16149 14.2565C5.63623 15.6954 6.55274 16.9479 7.78057 17.8357C9.0084 18.7236 10.485 19.2015 12.0002 19.2015L12.0002 20.8002Z" fill="#E5007A"/>
<path d="M12.0002 20.8002C10.1311 20.8002 8.31056 20.2051 6.80235 19.1011C5.29415 17.9971 4.17663 16.4415 3.61173 14.6598L5.13568 14.1767C5.59795 15.6347 6.51245 16.9076 7.74665 17.811C8.98086 18.7145 10.4707 19.2015 12.0002 19.2015L12.0002 20.8002Z" fill="#E5007A"/>
<path d="M20.1228 19.4175C18.823 20.841 17.1718 21.8979 15.3348 22.4823C13.4979 23.0667 11.5396 23.1581 9.65614 22.7474C7.77272 22.3366 6.0303 21.4382 4.60347 20.1419C3.17663 18.8457 2.11548 17.1973 1.52633 15.3619L2.93143 14.9109C3.44155 16.5001 4.36034 17.9273 5.59575 19.0497C6.83117 20.172 8.33983 20.9499 9.97058 21.3056C11.6013 21.6612 13.2969 21.5821 14.8875 21.076C16.478 20.57 17.9076 19.6549 19.0331 18.4224L20.1228 19.4175Z" fill="#FF88C9"/>
<path d="M16.134 17.1447C15.2384 17.8644 14.1705 18.3377 13.0359 18.5181C11.9013 18.6984 10.7393 18.5795 9.66471 18.173C8.59016 17.7665 7.64033 17.0866 6.90915 16.2004C6.17797 15.3143 5.69076 14.2526 5.49571 13.1204C5.30067 11.9882 5.40453 10.8247 5.79705 9.745C6.18956 8.66527 6.85711 7.7067 7.7337 6.96408C8.61029 6.22146 9.66554 5.72052 10.7951 5.5108C11.9247 5.30108 13.0894 5.38984 14.1741 5.76831L13.6307 7.32575C12.8171 7.04187 11.9435 6.97529 11.0962 7.1326C10.249 7.28991 9.45744 7.66565 8.79994 8.22267C8.14243 8.77968 7.64172 9.49868 7.3473 10.3086C7.05289 11.1184 6.97498 11.9911 7.12128 12.8404C7.26758 13.6896 7.63302 14.4859 8.18146 15.1506C8.72991 15.8153 9.44235 16.3253 10.2483 16.6302C11.0543 16.9351 11.9259 17.0243 12.777 16.889C13.628 16.7537 14.429 16.3987 15.1008 15.8589L16.134 17.1447Z" fill="#FF88C9"/>
<path d="M10.4834 5.57648C11.7055 5.28798 12.9845 5.35406 14.1703 5.76697L13.6278 7.32474C12.7384 7.01503 11.7791 6.96547 10.8624 7.18187L10.4834 5.57648Z" fill="#E5007A"/>
<path d="M16.134 17.1447C15.1124 17.9656 13.8695 18.4638 12.5637 18.5758C11.258 18.6877 9.94843 18.4084 8.80199 17.7734L9.60123 16.3305C10.4612 16.8068 11.4434 17.0163 12.4228 16.9323C13.4023 16.8483 14.3345 16.4746 15.1008 15.8589L16.134 17.1447Z" fill="#E5007A"/>
</svg>
