<svg width="24" height="24" viewBox="0 0 24 24" fill="none" xmlns="http://www.w3.org/2000/svg">
<path d="M16.2024 13.3059L13.4075 16.1111C13.1707 16.3487 13.171 16.735 13.408 16.9724L15.5438 19.1112C15.9078 19.4705 16.5028 19.4705 16.8668 19.1112L23.413 12.6501C23.777 12.2909 23.777 11.7035 23.413 11.3442L16.8668 4.8888C16.5028 4.52954 15.9078 4.52954 15.5438 4.8888L13.408 7.02766C13.171 7.26502 13.1707 7.65134 13.4075 7.88897L16.2024 10.6942C16.9304 11.4127 16.9304 12.5874 16.2024 13.3059Z" fill="#0A6E5C"/>
<path d="M7.79759 13.3059L10.5925 16.1111C10.8292 16.3487 10.829 16.735 10.592 16.9724L8.45622 19.1112C8.09222 19.4705 7.49715 19.4705 7.13315 19.1112L0.586963 12.6501C0.222965 12.2909 0.222965 11.7035 0.586963 11.3442L7.13315 4.8888C7.49715 4.52954 8.09222 4.52954 8.45622 4.8888L10.592 7.02766C10.829 7.26502 10.8292 7.65134 10.5925 7.88897L7.79759 10.6942C7.06958 11.4127 7.06958 12.5874 7.79759 13.3059Z" fill="#21BF73"/>
<path d="M8.53089 12.5337C8.23608 12.239 8.23608 11.7611 8.53089 11.4663L11.4664 8.53077C11.7612 8.236 12.2391 8.236 12.5338 8.53077L15.4694 11.4663C15.7641 11.7611 15.7641 12.239 15.4694 12.5337L12.5338 15.4693C12.2391 15.7641 11.7612 15.7641 11.4664 15.4693L8.53089 12.5337Z" fill="#21BF73"/>
</svg>
