<svg width="24" height="24" viewBox="0 0 24 24" fill="none" xmlns="http://www.w3.org/2000/svg">
<path d="M1.40913 9.35567C0.942188 8.54688 1.21929 7.5127 2.02805 7.04574L9.35001 2.81829C10.1588 2.35134 11.1929 2.62845 11.6599 3.43723L17.5781 13.6883C18.0451 14.497 17.768 15.5312 16.9592 15.9982L9.63726 20.2256C8.8285 20.6926 7.79434 20.4155 7.3274 19.6067L1.40913 9.35567Z" fill="#FF007D"/>
<path fill-rule="evenodd" clip-rule="evenodd" d="M9.56138 3.1844L2.23942 7.41185C1.63285 7.76207 1.42502 8.53771 1.77523 9.14429L7.6935 19.3953C8.0437 20.0019 8.81932 20.2097 9.42589 19.8595L16.7479 15.6321C17.3544 15.2819 17.5623 14.5062 17.212 13.8996L11.2938 3.64861C10.9436 3.04202 10.168 2.83419 9.56138 3.1844ZM2.02805 7.04574C1.21929 7.5127 0.942188 8.54688 1.40913 9.35567L7.3274 19.6067C7.79434 20.4155 8.8285 20.6926 9.63726 20.2256L16.9592 15.9982C17.768 15.5312 18.0451 14.497 17.5781 13.6883L11.6599 3.43723C11.1929 2.62845 10.1588 2.35134 9.35001 2.81829L2.02805 7.04574Z" fill="#000072"/>
<path fill-rule="evenodd" clip-rule="evenodd" d="M4.52231 11.7888C4.46394 11.6877 4.49858 11.5585 4.59968 11.5001L11.9216 7.27264C12.0227 7.21427 12.152 7.24891 12.2104 7.35C12.2687 7.4511 12.2341 7.58037 12.133 7.63874L4.81104 11.8662C4.70995 11.9246 4.58068 11.8899 4.52231 11.7888Z" fill="#000072"/>
<path fill-rule="evenodd" clip-rule="evenodd" d="M5.64957 13.7414C5.5912 13.6403 5.62584 13.511 5.72693 13.4526L13.0489 9.22518C13.15 9.16681 13.2793 9.20145 13.3376 9.30255C13.396 9.40365 13.3614 9.53292 13.2603 9.59129L5.9383 13.8187C5.8372 13.8771 5.70793 13.8425 5.64957 13.7414Z" fill="#000072"/>
<path fill-rule="evenodd" clip-rule="evenodd" d="M6.77689 15.6939C6.71852 15.5929 6.75316 15.4636 6.85425 15.4052L14.1762 11.1778C14.2773 11.1194 14.4066 11.154 14.4649 11.2551C14.5233 11.3562 14.4887 11.4855 14.3876 11.5439L7.06562 15.7713C6.96452 15.8297 6.83525 15.795 6.77689 15.6939Z" fill="#000072"/>
<path d="M4.45112 9.55193C3.98418 8.74314 4.26128 7.70895 5.07004 7.242L13.6123 2.30998C14.4211 1.84302 15.4553 2.12013 15.9222 2.92892L22.6859 14.6444C23.1529 15.4532 22.8758 16.4873 22.067 16.9543L13.5247 21.8863C12.716 22.3533 11.6818 22.0762 11.2149 21.2674L4.45112 9.55193Z" fill="white"/>
<path fill-rule="evenodd" clip-rule="evenodd" d="M13.8237 2.67608L5.28141 7.60811C4.67484 7.95833 4.46701 8.73397 4.81722 9.34055L11.581 21.056C11.9312 21.6626 12.7068 21.8704 13.3134 21.5202L21.8556 16.5882C22.4622 16.238 22.67 15.4623 22.3198 14.8557L15.5561 3.14029C15.2059 2.5337 14.4303 2.32587 13.8237 2.67608ZM5.07004 7.242C4.26128 7.70895 3.98418 8.74314 4.45112 9.55193L11.2149 21.2674C11.6818 22.0762 12.716 22.3533 13.5247 21.8863L22.067 16.9543C22.8758 16.4873 23.1529 15.4532 22.6859 14.6444L15.9222 2.92892C15.4553 2.12013 14.4211 1.84302 13.6123 2.30998L5.07004 7.242Z" fill="#000072"/>
<ellipse rx="0.845473" ry="0.845484" transform="matrix(0.86602 -0.50001 0.49999 0.866031 20.4516 15.2835)" fill="#FF1E97"/>
<path d="M17.2718 9.92936H9.61493C9.41015 9.92936 9.24414 9.76335 9.24414 9.55857C9.24414 9.35378 9.41015 9.18777 9.61493 9.18777H17.2718C17.4766 9.18777 17.6426 9.35378 17.6426 9.55857C17.6426 9.76335 17.4766 9.92936 17.2718 9.92936Z" fill="#000072"/>
<path d="M17.2718 14.5828H9.61493C9.41015 14.5828 9.24414 14.4168 9.24414 14.212C9.24414 14.0072 9.41015 13.8412 9.61493 13.8412H17.2718C17.4766 13.8412 17.6426 14.0072 17.6426 14.212C17.6426 14.4168 17.4766 14.5828 17.2718 14.5828Z" fill="#000072"/>
<path d="M10.9869 16.6036C10.7821 16.6036 10.6161 16.4376 10.6161 16.2328V7.53775C10.6161 7.33297 10.7821 7.16696 10.9869 7.16696C11.1917 7.16696 11.3577 7.33297 11.3577 7.53775V16.2328C11.3577 16.4376 11.1917 16.6036 10.9869 16.6036Z" fill="#000072"/>
<path d="M16.011 16.6036C15.8063 16.6036 15.6403 16.4376 15.6403 16.2328V7.53775C15.6403 7.33297 15.8063 7.16696 16.011 7.16696C16.2158 7.16696 16.3818 7.33297 16.3818 7.53775V16.2328C16.3818 16.4376 16.2158 16.6036 16.011 16.6036Z" fill="#000072"/>
<path d="M10.9683 14.6755C10.8649 14.675 10.7655 14.6353 10.6902 14.5643C10.622 14.4925 10.5872 14.3953 10.5942 14.2965C10.6013 14.1977 10.6496 14.1065 10.7273 14.0451L15.733 9.41025C15.8023 9.33986 15.8979 9.30178 15.9966 9.30531C16.0953 9.30883 16.188 9.35364 16.2521 9.42879C16.3884 9.57797 16.3801 9.80882 16.2335 9.9479L11.2279 14.5828C11.1533 14.6404 11.0625 14.6728 10.9683 14.6755Z" fill="#000072"/>
<path d="M16.2885 8.9653H15.6781C15.4934 8.9653 15.3437 9.11502 15.3437 9.29971V9.89529C15.3437 10.08 15.4934 10.2297 15.6781 10.2297H16.2885C16.4732 10.2297 16.6229 10.08 16.6229 9.89529V9.29971C16.6229 9.11502 16.4732 8.9653 16.2885 8.9653Z" fill="#FF8C00"/>
<path d="M11.2828 13.6002H10.6724C10.4877 13.6002 10.338 13.7499 10.338 13.9346V14.5302C10.338 14.7149 10.4877 14.8646 10.6724 14.8646H11.2828C11.4675 14.8646 11.6172 14.7149 11.6172 14.5302V13.9346C11.6172 13.7499 11.4675 13.6002 11.2828 13.6002Z" fill="#FF8C00"/>
<path d="M10.5419 9.57711C10.5252 9.47481 10.5599 9.37083 10.6346 9.29902C10.7684 9.1469 10.9996 9.13039 11.1537 9.26194L16.1779 13.8783C16.2557 13.9396 16.304 14.0309 16.311 14.1297C16.3181 14.2284 16.2832 14.3256 16.215 14.3974C16.0747 14.5518 15.8376 14.5682 15.6774 14.4345L10.6531 9.81812C10.5843 9.75662 10.5441 9.66937 10.5419 9.57711Z" fill="#000072"/>
<path d="M16.2885 13.6002H15.6781C15.4934 13.6002 15.3437 13.7499 15.3437 13.9346V14.5302C15.3437 14.7149 15.4934 14.8646 15.6781 14.8646H16.2885C16.4732 14.8646 16.6229 14.7149 16.6229 14.5302V13.9346C16.6229 13.7499 16.4732 13.6002 16.2885 13.6002Z" fill="#FF8C00"/>
<path d="M11.2828 8.9653H10.6724C10.4877 8.9653 10.338 9.11502 10.338 9.29971V9.89529C10.338 10.08 10.4877 10.2297 10.6724 10.2297H11.2828C11.4675 10.2297 11.6172 10.08 11.6172 9.89529V9.29971C11.6172 9.11502 11.4675 8.9653 11.2828 8.9653Z" fill="#FF8C00"/>
</svg>
