<svg width="24" height="24" viewBox="0 0 24 24" fill="none" xmlns="http://www.w3.org/2000/svg">
<circle cx="12" cy="12" r="11" fill="#46BDEA"/>
<path fill-rule="evenodd" clip-rule="evenodd" d="M14.8281 12.6624C14.8434 13.7053 14.7663 15.1713 14.2593 16.1069C13.7526 17.0429 13.1498 17.7228 12.0944 18.3415C11.0389 18.9596 9.73754 19.1396 8.81587 19.1314C7.8942 19.1236 7.08969 18.9395 6.58402 18.5096C6.07836 18.0797 6.00059 17.4497 6.13032 16.8103C6.26005 16.1704 6.63632 15.5317 7.38921 14.7958C8.1421 14.0595 8.88888 13.5549 9.93621 13.0275C10.9842 12.5004 12.1691 12.1248 13.0378 11.975C12.8422 11.8524 12.4917 11.7387 12.2407 11.6708C11.9901 11.6028 11.1982 11.3984 10.5634 11.1845C9.9284 10.9705 9.45194 10.6954 9.14053 10.4187C8.82945 10.1422 8.66543 9.7218 8.61686 9.17233C8.5683 8.62218 8.65558 7.69643 9.14087 6.87596C9.62581 6.05549 10.123 5.43165 10.9295 4.89678C11.7364 4.36191 12.4435 4.05118 13.2561 4.05118C14.0688 4.05118 14.5255 4.25086 14.7796 4.52492C15.0336 4.79897 15.1718 5.24928 15.1633 5.7451C15.1552 6.24125 15.0489 6.65013 14.552 7.40132C14.0555 8.15252 13.4568 8.6395 12.8041 9.06875C12.1514 9.49801 11.964 8.85039 12.3236 8.59264C12.6836 8.33454 13.048 7.98407 13.3193 7.50796C13.5906 7.03184 13.7119 6.63009 13.6827 6.30238C13.6538 5.97467 13.4653 5.82592 13.1172 5.85615C12.6218 5.89894 12.0825 6.25687 11.4994 6.93064C10.9159 7.60406 10.6483 8.21025 10.6959 8.74953C10.7288 9.11935 10.8494 9.40156 11.0579 9.59683C11.2664 9.79176 11.5299 9.95273 12.3236 10.2214C13.1172 10.4896 13.3349 10.6041 13.6827 10.8136C14.0308 11.0231 14.3517 11.3274 14.552 11.6708C14.552 11.6708 17.1119 11.415 18.8099 11.8918C17.2817 12.0942 15.9233 12.4338 14.8281 12.6624ZM9.67132 17.3417C8.90926 17.4117 8.50004 17.2636 8.45725 16.7508C8.39748 16.0353 8.88345 15.2858 9.91583 14.5027C10.9479 13.7192 12.217 13.2047 13.5434 12.9432C13.5512 13.0356 13.5455 13.5144 13.4585 14.0001C13.3876 14.394 13.2554 14.7737 13.0989 15.1061C12.7491 15.8488 12.1915 16.3532 11.5503 16.7508C10.9092 17.1485 10.0914 17.3034 9.67132 17.3417Z" fill="white"/>
</svg>
