<svg width="24" height="24" viewBox="0 0 24 24" fill="none" xmlns="http://www.w3.org/2000/svg">
<g clip-path="url(#clip0)">
<path d="M2 6.375C2 3.95875 3.95875 2 6.375 2H17.625C20.0412 2 22 3.95875 22 6.375V17.625C22 20.0412 20.0412 22 17.625 22H6.375C3.95875 22 2 20.0412 2 17.625V6.375Z" fill="url(#paint0_linear)"/>
<path d="M16.0038 9.38078C15.6828 7.16814 13.7563 5.7999 10.4779 5.7999C7.15725 5.7999 4.96884 7.22287 4.97729 9.53715C4.96884 11.3354 6.19401 12.5004 8.72885 12.9695L10.9764 13.3839C12.1086 13.595 12.6241 13.9781 12.641 14.5801C12.6241 15.2916 11.7876 15.7998 10.5286 15.7998C9.24427 15.7998 8.39087 15.2916 8.17119 14.3143L4.63086 14.4863C4.96884 16.7849 7.08121 18.2001 10.5201 18.2001C13.883 18.2001 16.2911 16.6129 16.2996 14.2439C16.2911 12.5082 15.066 11.4683 12.548 10.9914L10.1991 10.5536C8.99079 10.3112 8.54296 9.92808 8.55141 9.34951C8.54296 8.63021 9.42171 8.16109 10.537 8.16109C11.7876 8.16109 12.5311 8.79439 12.7086 9.56843L16.0038 9.38078Z" fill="#111111"/>
<path d="M20.3601 16.572C20.3601 17.4712 19.6312 18.2001 18.732 18.2001C17.8329 18.2001 17.104 17.4712 17.104 16.572C17.104 15.6729 17.8329 14.944 18.732 14.944C19.6312 14.944 20.3601 15.6729 20.3601 16.572Z" fill="#F22279"/>
</g>
<defs>
<linearGradient id="paint0_linear" x1="12" y1="2" x2="12" y2="22" gradientUnits="userSpaceOnUse">
<stop stop-color="#EEEEEE"/>
<stop offset="1" stop-color="white"/>
</linearGradient>
<clipPath id="clip0">
<rect width="20" height="20" fill="white" transform="translate(2 2)"/>
</clipPath>
</defs>
</svg>
