<svg width="24" height="24" viewBox="0 0 24 24" fill="none" xmlns="http://www.w3.org/2000/svg">
<path d="M2 6.375C2 3.95875 3.95875 2 6.375 2H17.625C20.0412 2 22 3.95875 22 6.375V17.625C22 20.0412 20.0412 22 17.625 22H6.375C3.95875 22 2 20.0412 2 17.625V6.375Z" fill="url(#paint0_linear_5353_42823)"/>
<path fill-rule="evenodd" clip-rule="evenodd" d="M17.625 2.5H6.375C4.2349 2.5 2.5 4.2349 2.5 6.375V17.625C2.5 19.7651 4.2349 21.5 6.375 21.5H17.625C19.7651 21.5 21.5 19.7651 21.5 17.625V6.375C21.5 4.2349 19.7651 2.5 17.625 2.5ZM6.375 2C3.95875 2 2 3.95875 2 6.375V17.625C2 20.0412 3.95875 22 6.375 22H17.625C20.0412 22 22 20.0412 22 17.625V6.375C22 3.95875 20.0412 2 17.625 2H6.375Z" fill="#F4F4F4"/>
<path d="M16.0038 9.38069C15.6828 7.16805 13.7563 5.7998 10.4779 5.7998C7.15725 5.7998 4.96884 7.22278 4.97729 9.53706C4.96884 11.3353 6.19401 12.5003 8.72885 12.9694L10.9764 13.3838C12.1086 13.5949 12.6241 13.978 12.641 14.58C12.6241 15.2915 11.7876 15.7997 10.5286 15.7997C9.24427 15.7997 8.39087 15.2915 8.17119 14.3142L4.63086 14.4862C4.96884 16.7848 7.08121 18.2 10.5201 18.2C13.883 18.2 16.2911 16.6128 16.2996 14.2438C16.2911 12.5081 15.066 11.4682 12.548 10.9913L10.1991 10.5535C8.99079 10.3111 8.54296 9.92799 8.55141 9.34942C8.54296 8.63011 9.42171 8.161 10.537 8.161C11.7876 8.161 12.5311 8.7943 12.7086 9.56834L16.0038 9.38069Z" fill="#111111"/>
<path d="M20.3601 16.5719C20.3601 17.471 19.6312 18.1999 18.732 18.1999C17.8329 18.1999 17.104 17.471 17.104 16.5719C17.104 15.6727 17.8329 14.9438 18.732 14.9438C19.6312 14.9438 20.3601 15.6727 20.3601 16.5719Z" fill="#F22279"/>
<defs>
<linearGradient id="paint0_linear_5353_42823" x1="12" y1="2" x2="12" y2="22" gradientUnits="userSpaceOnUse">
<stop stop-color="#EEEEEE"/>
<stop offset="1" stop-color="white"/>
</linearGradient>
</defs>
</svg>
