<svg width="24" height="24" viewBox="0 0 24 24" fill="none" xmlns="http://www.w3.org/2000/svg">
<path d="M7.23725 4.44147H4.63934V7.03937H7.23725V4.44147Z" fill="#5E5E5E"/>
<path fill-rule="evenodd" clip-rule="evenodd" d="M8.96913 8.77128V2.7095H2.90735V8.77128H8.96913ZM3.77332 7.90531V3.57547H8.10316V7.90531H3.77332Z" fill="#5E5E5E"/>
<path d="M19.3608 4.44147H16.7629V7.03937H19.3608V4.44147Z" fill="#5E5E5E"/>
<path fill-rule="evenodd" clip-rule="evenodd" d="M21.0927 8.77128V2.7095H15.0309V8.77128H21.0927ZM15.8969 7.90531V3.57547H20.2268V7.90531H15.8969Z" fill="#5E5E5E"/>
<path d="M9.83514 2.7095H10.7011V3.57547H9.83514V2.7095Z" fill="#5E5E5E"/>
<path d="M10.7011 4.44144V3.57547H11.5671V2.7095H12.433V3.57547H13.299V2.7095H14.165V6.17337H13.299V4.44144H12.433V5.30741H10.7011V8.77128H9.83514V4.44144H10.7011Z" fill="#5E5E5E"/>
<path fill-rule="evenodd" clip-rule="evenodd" d="M13.299 7.90528V6.17334H11.5671V9.63721H10.7011V10.5032H11.5671V11.3691H12.433V13.1011H11.5671V13.967H13.299V14.833H14.165V13.1011H13.299V12.2351H14.165V11.3691H15.031V13.1011H15.8969V13.967H16.7629V12.2351H17.6289V11.3691H18.4948V10.5032H19.3608V9.63721H18.4948V10.5032H17.6289V9.63721H15.8969V10.5032H15.031V9.63721H14.165V7.90528H13.299ZM13.299 7.90528V8.77124H12.433V7.90528H13.299ZM15.8969 10.5032H16.7629V12.2351H15.8969V10.5032ZM12.433 11.3691V9.63721H13.299V11.3691H12.433Z" fill="#5E5E5E"/>
<path d="M8.10321 9.63724H9.83515V10.5032H8.96918V11.3692H8.10321V9.63724Z" fill="#5E5E5E"/>
<path fill-rule="evenodd" clip-rule="evenodd" d="M5.50525 11.3692V12.2351H8.10316V11.3692H7.23719V9.63724H4.63929V10.5032H3.77332V9.63724H2.90735V10.5032H3.77332V11.3692H5.50525ZM5.50525 11.3692H6.37122V10.5032H5.50525V11.3692Z" fill="#5E5E5E"/>
<path d="M15.4737 15.6474C15.8615 15.6527 16.2931 15.8213 16.338 16.2496C16.3738 16.591 16.1452 16.9184 15.9475 17.2092C15.199 18.3101 14.2484 19.263 13.315 20.225C12.5467 21.017 11.7622 21.7939 10.9619 22.5584L10.8999 22.6174L10.7958 22.6839C10.6712 22.7073 10.5358 22.6983 10.4499 22.6149C10.3898 22.5564 10.3546 22.477 10.3517 22.3931C10.3478 22.2799 10.3795 22.257 10.4344 22.1652L12.8647 19.4544L12.9661 19.3784L13.0888 19.3469L13.2315 19.3751C14.0329 18.5339 14.8666 17.6972 15.4832 16.7338C15.566 16.6044 15.6537 16.4684 15.6878 16.3304C15.6878 16.3304 15.4327 16.2859 15.1975 16.3137C13.8162 16.4769 12.4883 17.1685 11.1957 17.4674C11.1526 17.4773 11.1093 17.4866 11.0657 17.4948C11.0367 17.5003 11.0075 17.5053 10.9783 17.5096C10.7448 17.5438 10.4651 17.4966 10.3384 17.259C10.179 16.9602 10.2496 16.5751 10.3285 16.2147C10.3852 15.9555 10.459 15.7 10.5464 15.4498L10.6128 15.3364L10.7143 15.2606C10.8363 15.2296 10.838 15.2295 10.9625 15.2475L11.0714 15.3123L11.1472 15.4138L11.1784 15.5367C11.16 15.6638 11.14 15.7205 11.1202 15.7811C11.005 16.1389 10.8858 16.5177 10.8993 16.8641L10.8993 16.8646C11.52 16.7651 12.1149 16.5117 12.7269 16.3082C13.4405 16.0717 14.1561 15.8276 14.8943 15.7018C15.0856 15.6692 15.2781 15.6459 15.4737 15.6474ZM5.59877 13.5113L5.67925 13.6091L5.71611 13.7304C5.70388 13.8556 5.70339 13.8572 5.64413 13.9682L5.54627 14.0487C5.35874 14.1057 5.15827 14.1122 4.96001 14.1334C3.85927 14.252 2.74596 14.3681 1.6937 14.677C1.43867 14.7518 1.15734 14.8148 0.974731 14.999C1.16508 15.2526 1.5355 15.3734 1.83161 15.4921C2.65953 15.8238 3.55039 15.9967 4.37765 16.3393C5.85542 15.2939 7.3562 14.2799 8.82624 13.227C8.82624 13.227 8.88739 13.1587 8.94542 13.0861C9.28872 12.6591 9.65654 12.2375 10.1116 11.9513C10.3994 11.7703 10.8469 11.6407 10.9809 12.0063C11.0812 12.2801 10.78 12.5518 10.4889 12.7908C10.1061 13.1051 9.70471 13.3948 9.30355 13.6838L9.3023 13.6847C8.61997 14.5829 8.03945 15.6028 7.86106 16.6776C7.86106 16.6776 8.40191 16.7683 8.65223 16.5856L8.76719 16.5322L8.89378 16.527L9.01274 16.5706L9.106 16.6564L9.15926 16.7714L9.16456 16.898L9.12094 17.0169L9.03515 17.1102C8.99824 17.1371 8.99548 17.1382 8.97783 17.1494C8.94812 17.1682 8.91738 17.1855 8.88593 17.2013C8.56461 17.3626 8.18477 17.3629 7.82875 17.328C7.82994 17.3409 7.83118 17.3539 7.83254 17.3669C7.87437 17.7478 8.02419 18.169 8.34589 18.2564C8.35439 18.2588 8.36305 18.2608 8.37171 18.2623C8.37642 18.2632 8.38086 18.2639 8.38595 18.2645C8.39006 18.2648 8.38259 18.2643 8.38259 18.2643L8.50626 18.2918L8.61001 18.3646L8.67799 18.4715C8.69975 18.5955 8.6997 18.5971 8.67242 18.72L8.59962 18.8238L8.49273 18.8917L8.36792 18.9137C7.75871 18.8999 7.30549 18.205 7.20336 17.5616C7.18506 17.4462 7.17532 17.3297 7.17229 17.2129C6.90276 17.1477 6.63712 17.0684 6.37988 16.9685L6.26963 16.8985L6.19743 16.7944C6.17074 16.6714 6.17069 16.6697 6.1931 16.5459L6.26167 16.4393L6.36575 16.3671L6.48958 16.3402C6.64026 16.3675 6.67301 16.3852 6.72091 16.4023C6.87651 16.4572 7.03433 16.5059 7.19378 16.5485L7.22284 16.5561C7.22609 16.5371 7.22945 16.5181 7.23285 16.4991C7.35122 15.8565 7.60365 15.2446 7.90474 14.6716C6.93794 15.346 5.97114 16.0121 5.01002 16.688C5.01782 16.6942 5.0255 16.7006 5.03313 16.707C5.27306 16.9098 5.42109 17.2288 5.28886 17.5462C5.11838 17.9557 4.68891 18.1755 4.31849 18.3641C3.61128 18.7244 2.86698 19.0326 2.0941 19.2093C2.07397 19.2139 2.05378 19.2182 2.03348 19.2219C1.84151 19.2581 1.60196 19.2335 1.49507 19.0439C1.33183 18.7544 1.66372 18.414 1.94202 18.1697C2.48384 17.6939 3.07579 17.273 3.66394 16.8485L3.7408 16.7932C2.7589 16.4545 1.70999 16.2801 0.839531 15.7233C0.482969 15.4952 0.132577 15.1075 0.408712 14.6719C0.645663 14.2982 1.10961 14.1715 1.51082 14.0538C2.71457 13.7005 3.97914 13.5791 5.24097 13.4512L5.30083 13.4452C5.39381 13.436 5.39397 13.4425 5.48701 13.4516C5.52425 13.4715 5.56154 13.4913 5.59877 13.5113ZM4.4275 17.1004C3.89168 17.4825 3.35723 17.8677 2.83797 18.2739L2.81859 18.2891C3.38651 18.0837 3.96832 17.878 4.44898 17.5346C4.54451 17.4664 4.65909 17.3958 4.69183 17.2895C4.69476 17.2794 4.56789 17.1599 4.44503 17.0901C4.44503 17.0901 4.43394 17.0958 4.4275 17.1004ZM19.6196 16.5223C19.7082 16.6116 19.7091 16.613 19.7568 16.7295L19.7562 16.8562L19.7072 16.9731L19.6172 17.0623C18.9258 17.5198 18.2344 18.026 17.4224 18.1792C17.1164 18.2369 16.7363 18.1738 16.5791 17.8625C16.4305 17.5679 16.515 17.2025 16.6218 16.883C16.9339 15.9498 17.4874 15.1082 18.0324 14.2655L18.0501 14.2382L17.96 14.1308C17.9269 14.0094 17.9268 14.0077 17.9427 13.8829L18.0056 13.7729L19.8973 11.598C20.1299 11.2838 20.365 10.9715 20.6047 10.6626L20.7004 10.5796C20.7963 10.5476 20.7961 10.5378 20.8969 10.5449L20.9525 10.5298C21.0773 10.5457 21.0789 10.5462 21.1881 10.6087L21.2657 10.7089C21.2988 10.8303 21.2989 10.8321 21.283 10.9569L21.2201 11.0668L20.4041 12.005C19.4513 13.2916 18.5348 14.5724 17.779 15.9345C17.5276 16.3875 17.2615 16.8528 17.167 17.3501C17.1517 17.4308 17.1544 17.5517 17.1544 17.5517C17.4572 17.5889 17.786 17.3867 18.1275 17.2061C18.5172 17.0001 18.8909 16.7641 19.2588 16.5207L19.3761 16.4727L19.5028 16.4732C19.5417 16.4896 19.5806 16.5059 19.6196 16.5223ZM23.534 14.4713L23.6289 14.5564L23.6838 14.6714L23.6901 14.7987L23.647 14.9187C23.1324 15.7717 22.5619 16.613 21.8328 17.2762C21.4648 17.6108 20.9982 17.9346 20.5305 17.751C20.05 17.5623 19.8534 16.899 20.0371 16.3973C20.3107 15.6501 21.085 15.1633 21.797 14.7729C21.9908 14.6666 22.1879 14.5658 22.3906 14.4774L22.5144 14.4504C22.6539 14.4755 22.6739 14.4379 22.7783 14.588C22.9322 14.5359 23.0881 14.4899 23.2448 14.4479L23.2864 14.4369L23.4137 14.4293C23.4538 14.4433 23.4939 14.4573 23.534 14.4713ZM22.5759 15.3569C21.9396 15.6175 21.2646 15.9564 20.9471 16.4794L20.9435 16.4854C20.859 16.5786 20.8576 16.5797 20.7439 16.6335L20.6406 16.6385C20.5854 16.8018 20.611 17.0034 20.7328 17.122C20.8322 17.2188 21.0399 17.0817 21.2131 16.9492C21.7587 16.5318 22.1711 15.952 22.5738 15.3748C22.5738 15.3748 22.6122 15.3421 22.5759 15.3569Z" fill="#0068F3"/>
</svg>
