<svg width="24" height="24" viewBox="0 0 24 24" fill="none" xmlns="http://www.w3.org/2000/svg">
<path fill-rule="evenodd" clip-rule="evenodd" d="M9.35086 2.68634L3.47107 12.7408C2.71645 14.0312 3.14882 15.6898 4.44128 16.4403L5.61948 17.1245C5.38783 17.7563 5.14454 18.3963 4.8889 19.0473C3.91812 21.5193 6.62922 23.9483 8.90358 22.6277L12 20.8296L15.0964 22.6277C17.3708 23.9483 20.0819 21.5193 19.1111 19.0473C18.8555 18.3963 18.6122 17.7563 18.3805 17.1245L19.5587 16.4403C20.8512 15.6898 21.2836 14.0312 20.5289 12.7408L14.6492 2.68634C13.6369 0.437889 10.3631 0.437886 9.35086 2.68634ZM13.7859 3.61235C14.4768 8.19409 15.483 12.2466 17.0369 16.6352L12 19.5601L6.96309 16.6352C8.51699 12.2466 9.52325 8.19409 10.2141 3.61235C10.5087 1.65857 13.5091 1.77697 13.7859 3.61235ZM15.2936 5.96349C15.9342 9.41644 16.7982 12.6415 18.0034 16.074L19.0071 15.4911C19.771 15.0475 20.0306 14.0639 19.5809 13.2948L15.2936 5.96349ZM17.4164 17.6844L13.0931 20.1949L15.648 21.6785C16.9622 22.4415 18.7052 21.0178 18.0889 19.4484C17.8547 18.8522 17.6308 18.2649 17.4164 17.6844ZM10.9069 20.1949L6.58358 17.6844C6.36925 18.2649 6.14527 18.8522 5.91113 19.4484C5.29483 21.0178 7.03779 22.4415 8.35199 21.6785L10.9069 20.1949ZM5.99659 16.074C7.20184 12.6415 8.06585 9.41644 8.70644 5.96349L4.41914 13.2948C3.96938 14.0639 4.22898 15.0475 4.99292 15.4911L5.99659 16.074Z" fill="white"/>
</svg>
