<svg width="24" height="24" viewBox="0 0 24 24" fill="none" xmlns="http://www.w3.org/2000/svg">
    <path fill-rule="evenodd" clip-rule="evenodd"
          d="M9.35095 2.68634L3.47116 12.7408C2.71654 14.0312 3.14891 15.6898 4.44137 16.4403L5.61957 17.1245C5.38793 17.7563 5.14463 18.3963 4.88899 19.0473C3.91821 21.5193 6.62931 23.9483 8.90367 22.6277L12.0001 20.8296L15.0965 22.6277C17.3709 23.9483 20.082 21.5193 19.1112 19.0473C18.8556 18.3963 18.6123 17.7563 18.3806 17.1245L19.5588 16.4403C20.8513 15.6898 21.2837 14.0312 20.529 12.7408L14.6492 2.68634C13.637 0.437889 10.3632 0.437886 9.35095 2.68634ZM13.786 3.61235C14.4769 8.19409 15.4831 12.2466 17.037 16.6352L12.0001 19.5601L6.96318 16.6352C8.51708 12.2466 9.52334 8.19409 10.2142 3.61235C10.5088 1.65857 13.5092 1.77697 13.786 3.61235ZM15.2937 5.96349C15.9343 9.41644 16.7983 12.6415 18.0035 16.074L19.0072 15.4911C19.7711 15.0475 20.0307 14.0639 19.581 13.2948L15.2937 5.96349ZM17.4165 17.6844L13.0932 20.1949L15.6481 21.6785C16.9623 22.4415 18.7053 21.0178 18.089 19.4484C17.8548 18.8522 17.6309 18.2649 17.4165 17.6844ZM10.907 20.1949L6.58368 17.6844C6.36934 18.2649 6.14536 18.8522 5.91122 19.4484C5.29492 21.0178 7.03788 22.4415 8.35208 21.6785L10.907 20.1949ZM5.99668 16.074C7.20193 12.6415 8.06594 9.41644 8.70653 5.96349L4.41924 13.2948C3.96947 14.0639 4.22908 15.0475 4.99301 15.4911L5.99668 16.074Z"
          fill="#1D1D1F"/>
</svg>
