<svg width="24" height="24" viewBox="0 0 24 24" fill="none" xmlns="http://www.w3.org/2000/svg">
<path d="M1.40913 9.35567C0.942188 8.54688 1.21929 7.5127 2.02805 7.04574L9.35001 2.81829C10.1588 2.35134 11.1929 2.62845 11.6599 3.43723L17.5781 13.6883C18.0451 14.497 17.768 15.5312 16.9592 15.9982L9.63726 20.2256C8.8285 20.6926 7.79434 20.4155 7.3274 19.6067L1.40913 9.35567Z" fill="#FFED00"/>
<path fill-rule="evenodd" clip-rule="evenodd" d="M9.56138 3.1844L2.23942 7.41185C1.63285 7.76207 1.42502 8.53771 1.77523 9.14429L7.6935 19.3953C8.0437 20.0019 8.81932 20.2097 9.42589 19.8595L16.7479 15.6321C17.3544 15.2819 17.5623 14.5062 17.212 13.8996L11.2938 3.64861C10.9436 3.04202 10.168 2.83419 9.56138 3.1844ZM2.02805 7.04574C1.21929 7.5127 0.942188 8.54688 1.40913 9.35567L7.3274 19.6067C7.79434 20.4155 8.8285 20.6926 9.63726 20.2256L16.9592 15.9982C17.768 15.5312 18.0451 14.497 17.5781 13.6883L11.6599 3.43723C11.1929 2.62845 10.1588 2.35134 9.35001 2.81829L2.02805 7.04574Z" fill="#000072"/>
<path fill-rule="evenodd" clip-rule="evenodd" d="M4.52231 11.7888C4.46394 11.6877 4.49858 11.5585 4.59968 11.5001L11.9216 7.27264C12.0227 7.21427 12.152 7.24891 12.2104 7.35C12.2687 7.4511 12.2341 7.58037 12.133 7.63874L4.81104 11.8662C4.70995 11.9246 4.58068 11.8899 4.52231 11.7888Z" fill="#000072"/>
<path fill-rule="evenodd" clip-rule="evenodd" d="M5.64963 13.7414C5.59126 13.6403 5.6259 13.511 5.72699 13.4526L13.049 9.22518C13.15 9.16681 13.2793 9.20145 13.3377 9.30255C13.3961 9.40365 13.3614 9.53292 13.2603 9.59129L5.93836 13.8187C5.83727 13.8771 5.708 13.8425 5.64963 13.7414Z" fill="#000072"/>
<path fill-rule="evenodd" clip-rule="evenodd" d="M6.77683 15.6939C6.71846 15.5929 6.7531 15.4636 6.85419 15.4052L14.1762 11.1778C14.2773 11.1194 14.4065 11.154 14.4649 11.2551C14.5233 11.3562 14.4886 11.4855 14.3875 11.5439L7.06556 15.7713C6.96446 15.8297 6.83519 15.795 6.77683 15.6939Z" fill="#000072"/>
<path d="M4.45118 9.55193C3.98424 8.74314 4.26134 7.70895 5.07011 7.242L13.6124 2.30998C14.4212 1.84302 15.4553 2.12013 15.9223 2.92892L22.686 14.6444C23.1529 15.4532 22.8758 16.4873 22.0671 16.9543L13.5248 21.8863C12.716 22.3533 11.6819 22.0762 11.2149 21.2674L4.45118 9.55193Z" fill="white"/>
<path fill-rule="evenodd" clip-rule="evenodd" d="M13.8238 2.67608L5.28147 7.60811C4.6749 7.95833 4.46707 8.73397 4.81728 9.34055L11.581 21.056C11.9312 21.6626 12.7068 21.8704 13.3134 21.5202L21.8557 16.5882C22.4623 16.238 22.6701 15.4623 22.3199 14.8557L15.5562 3.14029C15.206 2.5337 14.4303 2.32587 13.8238 2.67608ZM5.07011 7.242C4.26134 7.70895 3.98424 8.74314 4.45118 9.55193L11.2149 21.2674C11.6819 22.0762 12.716 22.3533 13.5248 21.8863L22.0671 16.9543C22.8758 16.4873 23.1529 15.4532 22.686 14.6444L15.9223 2.92892C15.4553 2.12013 14.4212 1.84302 13.6124 2.30998L5.07011 7.242Z" fill="#000072"/>
<ellipse rx="0.845473" ry="0.845484" transform="matrix(0.86602 -0.50001 0.49999 0.866031 20.4517 15.2835)" fill="#FF1E97"/>
<path d="M15.8589 10.2502H15.5575V9.5669C15.5575 8.81305 15.1553 8.11646 14.5024 7.73954C13.8496 7.36262 13.0452 7.36262 12.3924 7.73954C11.7395 8.11646 11.3374 8.81305 11.3374 9.5669V10.2502H11.0359C10.4255 10.2502 9.93066 10.745 9.93066 11.3554V14.7717C9.93066 15.3821 10.4255 15.8769 11.0359 15.8769H15.8589C16.4693 15.8769 16.9642 15.3821 16.9642 14.7717V11.3554C16.9642 10.745 16.4693 10.2502 15.8589 10.2502ZM13.4474 8.18029C14.2132 8.18029 14.834 8.8011 14.834 9.5669V10.2502H12.0608V9.5669C12.0608 9.19915 12.2069 8.84646 12.4669 8.58642C12.727 8.32638 13.0797 8.18029 13.4474 8.18029ZM10.6541 11.3554C10.6648 11.1524 10.8327 10.9934 11.0359 10.9937H15.8589C15.9548 10.9937 16.0468 11.0318 16.1147 11.0996C16.1825 11.1675 16.2206 11.2595 16.2206 11.3554V14.7717C16.2206 14.9715 16.0587 15.1334 15.8589 15.1334H11.0359C10.8327 15.1337 10.6648 14.9747 10.6541 14.7717V11.3554Z" fill="#000072"/>
<path d="M13.0657 13.0435V13.9478C13.0758 14.1543 13.241 14.3195 13.4476 14.3296C13.5476 14.3273 13.6421 14.2836 13.7088 14.209C13.7742 14.1378 13.8101 14.0444 13.8093 13.9478V13.0435C13.9611 12.9296 14.0504 12.7509 14.0504 12.5612C14.0513 12.3956 13.9862 12.2365 13.8696 12.1191C13.7596 12.0036 13.607 11.9382 13.4476 11.9382C13.2823 11.9382 13.1239 12.0038 13.007 12.1207C12.8902 12.2375 12.8246 12.3959 12.8246 12.5612C12.833 12.7488 12.9207 12.9241 13.0657 13.0435Z" fill="#000072"/>
</svg>
