<svg width="32" height="32" viewBox="0 0 32 32" fill="none" xmlns="http://www.w3.org/2000/svg">
<g clip-path="url(#clip0_2673_19363)">
<path d="M2.66669 10.0228C2.66669 5.96004 5.96022 2.6665 10.023 2.6665H21.977C26.0397 2.6665 29.3334 5.96004 29.3334 10.0228V21.9768C29.3334 26.0396 26.0397 29.3332 21.977 29.3332H10.023C5.96022 29.3332 2.66669 26.0396 2.66669 21.9768V10.0228Z" fill="#D5FF5D"/>
<path fill-rule="evenodd" clip-rule="evenodd" d="M21.8403 17.1792C22.0362 17.6056 22.6129 17.7562 22.9449 17.4244L23.5536 16.816C24.1825 16.1873 25.2023 16.1873 25.8313 16.816C26.4603 17.4447 26.4603 18.464 25.8313 19.0927L20.9119 24.0098C19.7301 25.412 17.9604 26.3028 15.9826 26.3028C13.9201 26.3028 12.084 25.3341 10.9048 23.827L6.16869 19.093C5.53972 18.4643 5.53972 17.445 6.16869 16.8163C6.79767 16.1876 7.81744 16.1876 8.44641 16.8163L9.04588 17.4155C9.37054 17.74 9.93418 17.594 10.1259 17.1771C10.1638 17.0947 10.1844 17.0062 10.1844 16.9156L10.1844 9.56037C10.1844 8.67129 10.9055 7.95054 11.795 7.95054C12.6845 7.95054 13.4056 8.67129 13.4056 9.56037V13.2812C13.4056 13.6014 13.7337 13.8187 14.0392 13.7223C14.2325 13.6612 14.3721 13.4853 14.3721 13.2826V7.30662C14.3721 6.41753 15.0932 5.69678 15.9827 5.69678C16.8722 5.69678 17.5933 6.41753 17.5933 7.30662V13.2828C17.5933 13.4853 17.7329 13.6612 17.9261 13.7223C18.2315 13.8187 18.5595 13.6015 18.5595 13.2814V9.56037C18.5595 8.67129 19.2806 7.95054 20.1701 7.95054C21.0596 7.95054 21.7807 8.67129 21.7807 9.56037V16.9126C21.7807 17.0051 21.8017 17.0952 21.8403 17.1792V17.1792Z" fill="#FD4848"/>
<path fill-rule="evenodd" clip-rule="evenodd" d="M13.5506 18.3967C13.2909 18.559 13.0443 18.7371 12.8137 18.9214C12.5743 19.3985 12.4395 19.9372 12.4395 20.5074C12.4395 21.0774 12.5742 21.616 12.8136 22.0931C13.0441 22.2774 13.2906 22.4554 13.5503 22.6177C13.0591 22.0526 12.7618 21.3147 12.7618 20.5074C12.7618 19.6999 13.0593 18.9618 13.5506 18.3967ZM18.4153 22.6177C18.6749 22.4554 18.9214 22.2774 19.152 22.0931C19.3913 21.616 19.5261 21.0774 19.5261 20.5074C19.5261 19.9372 19.3913 19.3985 19.1518 18.9214C18.9212 18.7371 18.6747 18.559 18.415 18.3967C18.9063 18.9618 19.2037 19.6999 19.2037 20.5074C19.2037 21.3147 18.9064 22.0526 18.4153 22.6177ZM18.6261 18.1488C17.8533 17.6587 16.9491 17.2876 15.9828 17.2876C14.5596 17.2876 13.2711 18.0925 12.3384 18.8975C12.0635 19.1348 11.8024 19.3865 11.5545 19.6506C11.5545 19.6503 11.5546 19.6499 11.5547 19.6495C11.2232 20.0011 10.9932 20.2909 10.8902 20.4258C10.869 20.4528 10.8479 20.4799 10.827 20.5072C10.8451 20.5308 10.8633 20.5543 10.8816 20.5777C10.98 20.7073 11.2136 21.0036 11.5547 21.3653C11.5546 21.365 11.5546 21.3647 11.5545 21.3644C11.8025 21.6284 12.0636 21.88 12.3384 22.1172C13.2711 22.9221 14.5596 23.727 15.9828 23.727C16.9492 23.727 17.8535 23.3558 18.6265 22.8656C18.6262 22.8658 18.626 22.8661 18.6257 22.8664C19.1343 22.5439 19.5861 22.1698 19.9613 21.8159C19.9614 21.8156 19.9615 21.8154 19.9616 21.8152C20.1267 21.6594 20.277 21.5076 20.4108 21.3657C20.4107 21.3659 20.4107 21.3661 20.4106 21.3664C20.7814 20.9733 21.0254 20.6572 21.1069 20.5483C21.1175 20.5346 21.1281 20.5209 21.1386 20.5072C21.125 20.4895 21.1114 20.4719 21.0977 20.4542C21.008 20.3352 20.7683 20.0277 20.4107 19.6485C20.4107 19.6486 20.4107 19.6487 20.4107 19.6489C20.2769 19.507 20.1266 19.3552 19.9615 19.1994C19.9615 19.1992 19.9614 19.1991 19.9614 19.199C19.5862 18.8451 19.1344 18.471 18.6258 18.1485C18.6259 18.1486 18.626 18.1487 18.6261 18.1488ZM20.1107 19.8011C20.1497 20.0307 20.1701 20.2666 20.1701 20.5074C20.1701 20.748 20.1497 20.9839 20.1107 21.2135C20.2527 21.0656 20.3773 20.9273 20.4827 20.8055C20.4891 20.707 20.4924 20.6075 20.4924 20.5074C20.4924 20.4071 20.4891 20.3077 20.4827 20.2091C20.3773 20.0873 20.2527 19.949 20.1107 19.8011ZM11.4828 20.8054C11.588 20.927 11.7127 21.0653 11.8548 21.2133C11.8158 20.9838 11.7955 20.748 11.7955 20.5074C11.7955 20.2667 11.8158 20.0308 11.8548 19.8013C11.7127 19.9493 11.588 20.0876 11.4828 20.2092C11.4764 20.3078 11.4731 20.4072 11.4731 20.5074C11.4731 20.6075 11.4764 20.7069 11.4828 20.8054ZM13.4059 20.5074C13.4059 19.0848 14.5596 17.9316 15.9828 17.9316C17.4061 17.9316 18.5598 19.0848 18.5598 20.5074C18.5598 21.9299 17.4061 23.0831 15.9828 23.0831C14.5596 23.0831 13.4059 21.9299 13.4059 20.5074ZM15.9828 18.2539C14.7377 18.2539 13.7283 19.2628 13.7283 20.5074C13.7283 21.752 14.7377 22.7609 15.9828 22.7609C17.228 22.7609 18.2374 21.752 18.2374 20.5074C18.2374 19.2628 17.228 18.2539 15.9828 18.2539ZM15.9828 18.8976C15.0932 18.8976 14.3722 19.6184 14.3722 20.5075C14.3722 21.3966 15.0933 22.1173 15.9828 22.1173C16.8723 22.1173 17.5934 21.3966 17.5934 20.5075C17.5934 19.6184 16.8723 18.8976 15.9828 18.8976ZM14.6946 20.5075C14.6946 19.7963 15.2713 19.2198 15.9828 19.2198C16.6942 19.2198 17.271 19.7963 17.271 20.5075C17.271 21.2186 16.6942 21.7951 15.9828 21.7951C15.2713 21.7951 14.6946 21.2186 14.6946 20.5075ZM15.9829 21.1513C16.3387 21.1513 16.6271 20.863 16.6271 20.5073C16.6271 20.1517 16.3387 19.8634 15.9829 19.8634C15.6271 19.8634 15.3386 20.1517 15.3386 20.5073C15.3386 20.863 15.6271 21.1513 15.9829 21.1513Z" fill="#D5FF5C"/>
</g>
<defs>
<clipPath id="clip0_2673_19363">
<rect width="32" height="32" fill="white"/>
</clipPath>
</defs>
</svg>
