<svg width="20" height="20" viewBox="0 0 20 20" fill="none" xmlns="http://www.w3.org/2000/svg">
<g clip-path="url(#clip0_7731_46265)">
<path d="M10 20C15.5228 20 20 15.5228 20 10C20 4.47715 15.5228 0 10 0C4.47715 0 0 4.47715 0 10C0 15.5228 4.47715 20 10 20Z" fill="#009393"/>
<path fill-rule="evenodd" clip-rule="evenodd" d="M15.0516 5.00065V6.88616H11.2592V8.19345C13.9227 8.33315 15.9211 8.90694 15.9359 9.59468L15.9358 11.0284C15.921 11.7161 13.9227 12.2899 11.2592 12.4296V15.6378H8.74092V12.4296C6.07738 12.2899 4.079 11.7161 4.06418 11.0284L4.06428 9.59468C4.07909 8.90694 6.07738 8.33315 8.74092 8.19345V6.88616H4.94849V5.00065H15.0516ZM10 11.4446C12.8425 11.4446 15.2184 10.9594 15.7998 10.3115C15.3067 9.76208 13.5233 9.32968 11.2592 9.21092V10.5796C10.8533 10.6009 10.4321 10.6121 10 10.6121C9.56799 10.6121 9.14673 10.6009 8.74092 10.5796V9.21092C6.47677 9.32968 4.69335 9.76208 4.20029 10.3115C4.78173 10.9594 7.15755 11.4446 10 11.4446Z" fill="white"/>
</g>
<defs>
<clipPath id="clip0_7731_46265">
<rect width="20" height="20" fill="white"/>
</clipPath>
</defs>
</svg>
