<svg width="20" height="20" viewBox="0 0 20 20" fill="none" xmlns="http://www.w3.org/2000/svg">
<g clip-path="url(#clip0_7731_46268)">
<path d="M10 20C15.5228 20 20 15.5228 20 10C20 4.47715 15.5228 0 10 0C4.47715 0 0 4.47715 0 10C0 15.5228 4.47715 20 10 20Z" fill="#2B75C6"/>
<path d="M7.79234 3.49181C8.05916 3.40257 8.32409 3.60806 8.32409 3.88766V4.3163C8.32409 4.50478 8.19974 4.66975 8.02194 4.73567C5.87354 5.5322 4.34366 7.58867 4.34366 10C4.34366 12.4113 5.87354 14.4678 8.02194 15.2643C8.19974 15.3303 8.32409 15.4952 8.32409 15.6837V16.1123C8.32409 16.3919 8.05916 16.5974 7.79234 16.5082C5.05679 15.5933 3.08669 13.0252 3.08669 10C3.08669 6.97485 5.05679 4.40666 7.79234 3.49181Z" fill="white"/>
<path d="M11.9782 15.2643C11.8004 15.3303 11.676 15.4952 11.676 15.6837V16.1123C11.676 16.3919 11.941 16.5974 12.2078 16.5082C14.9433 15.5933 16.9134 13.0252 16.9134 10C16.9134 6.97485 14.9433 4.40666 12.2078 3.49181C11.941 3.40257 11.676 3.60806 11.676 3.88766V4.3163C11.676 4.50478 11.8004 4.66975 11.9782 4.73567C14.1266 5.5322 15.6565 7.58867 15.6565 10C15.6565 12.4113 14.1266 14.4678 11.9782 15.2643Z" fill="white"/>
<path d="M9.51868 5.87511C9.51868 5.76021 9.61248 5.66706 9.72818 5.66706H10.3148C10.4305 5.66706 10.5243 5.76021 10.5243 5.87511V6.67626C10.825 6.71265 11.1015 6.78937 11.3538 6.90643C11.7199 7.07331 12.0035 7.31021 12.2045 7.61714C12.3716 7.86855 12.4703 8.14795 12.5005 8.45534C12.5118 8.5697 12.4168 8.66309 12.3011 8.66309H11.3698C11.2541 8.66309 11.163 8.56917 11.1432 8.45596C11.1082 8.25587 11.0194 8.09397 10.8767 7.97026C10.6877 7.80339 10.4221 7.71995 10.0801 7.71995C9.75 7.71995 9.49345 7.78998 9.31041 7.93003C9.12738 8.06711 9.03586 8.24888 9.03586 8.47536C9.03586 8.68693 9.14238 8.86423 9.35542 9.00727C9.57147 9.15031 9.88803 9.2844 10.3051 9.40956C10.3601 9.42598 10.414 9.44199 10.4669 9.4577L10.4697 9.45851C11.1546 9.66181 11.6654 9.81342 11.9909 10.1284C12.342 10.4681 12.5106 11.0262 12.5106 11.5327C12.5106 12.0959 12.296 12.5385 11.8669 12.8603C11.5178 13.1198 11.0702 13.2736 10.5244 13.322L10.5243 14.1072C10.5242 14.2221 10.4304 14.3152 10.3148 14.3152H9.72814C9.61244 14.3152 9.51864 14.2221 9.51864 14.1071V13.2898C9.24971 13.2454 8.99576 13.1708 8.7568 13.0659C8.34272 12.8812 8.02616 12.6294 7.80711 12.3105C7.62743 12.0453 7.52247 11.7451 7.49223 11.4098C7.48191 11.2953 7.57685 11.202 7.69255 11.202H8.62832C8.74402 11.202 8.8357 11.2958 8.85118 11.4096C8.93002 11.9893 9.35765 12.2792 10.1341 12.2792C10.4551 12.2792 10.7057 12.2151 10.8857 12.087C11.0658 11.9559 11.1558 11.7741 11.1558 11.5417C11.1558 11.2884 11.0727 10.9598 10.8927 10.8257C10.7854 10.744 10.6245 10.7081 10.4129 10.6609C10.2695 10.6289 10.1027 10.5917 9.91353 10.5315C9.44544 10.3795 9.07487 10.2305 8.80181 10.0845C8.05766 9.6852 7.68559 9.14733 7.68559 8.47089C7.68559 8.11926 7.78461 7.80637 7.98265 7.53221C8.18369 7.25508 8.47025 7.03904 8.84232 6.88408C9.05351 6.79684 9.27896 6.73415 9.51868 6.69603V5.87511Z" fill="white"/>
</g>
<defs>
<clipPath id="clip0_7731_46268">
<rect width="20" height="20" fill="white"/>
</clipPath>
</defs>
</svg>
