<svg width="20" height="20" viewBox="0 0 20 20" fill="none" xmlns="http://www.w3.org/2000/svg">
<g clip-path="url(#clip0_7731_46262)">
<path d="M12.5566 4.40278C12.5566 5.22359 11.412 5.88899 9.99998 5.88899C8.58799 5.88899 7.44334 5.22359 7.44334 4.40278C7.44334 3.58196 8.58799 2.91656 9.99998 2.91656C11.412 2.91656 12.5566 3.58196 12.5566 4.40278Z" fill="white"/>
<path d="M16.14 6.45833C16.846 7.68 16.8416 9.00306 16.13 9.41347C15.4185 9.82387 14.2694 9.16621 13.5634 7.94454C12.8574 6.72287 12.8619 5.39981 13.5734 4.98941C14.2849 4.579 15.434 5.23666 16.14 6.45833Z" fill="white"/>
<path d="M16.1301 10.5865C16.8416 10.9969 16.8461 12.3199 16.1401 13.5416C15.4341 14.7633 14.285 15.4209 13.5735 15.0105C12.8619 14.6001 12.8575 13.2771 13.5635 12.0554C14.2695 10.8337 15.4186 10.1761 16.1301 10.5865Z" fill="white"/>
<path fill-rule="evenodd" clip-rule="evenodd" d="M10 20C15.5228 20 20 15.5228 20 10C20 4.47715 15.5228 0 10 0C4.47715 0 0 4.47715 0 10C0 15.5228 4.47715 20 10 20ZM12.5566 4.40278C12.5566 5.22359 11.412 5.88899 9.99998 5.88899C8.58799 5.88899 7.44334 5.22359 7.44334 4.40278C7.44334 3.58196 8.58799 2.91656 9.99998 2.91656C11.412 2.91656 12.5566 3.58196 12.5566 4.40278ZM16.13 9.41347C16.8416 9.00306 16.846 7.68 16.14 6.45833C15.434 5.23666 14.2849 4.579 13.5734 4.98941C12.8619 5.39981 12.8574 6.72287 13.5634 7.94454C14.2694 9.16621 15.4185 9.82387 16.13 9.41347ZM16.1301 10.5865C16.8416 10.9969 16.8461 12.3199 16.1401 13.5416C15.4341 14.7633 14.285 15.4209 13.5735 15.0105C12.8619 14.6001 12.8575 13.2771 13.5635 12.0554C14.2695 10.8337 15.4186 10.1761 16.1301 10.5865ZM9.99998 17.0832C11.412 17.0832 12.5566 16.4178 12.5566 15.597C12.5566 14.7762 11.412 14.1108 9.99998 14.1108C8.58799 14.1108 7.44334 14.7762 7.44334 15.597C7.44334 16.4178 8.58799 17.0832 9.99998 17.0832ZM6.43655 12.0553C7.14255 13.277 7.13808 14.6001 6.42656 15.0105C5.71505 15.4209 4.56593 14.7632 3.85993 13.5415C3.15394 12.3199 3.15841 10.9968 3.86992 10.5864C4.58143 10.176 5.73056 10.8337 6.43655 12.0553ZM6.43656 7.9445C7.14255 6.72283 7.13808 5.39977 6.42657 4.98936C5.71505 4.57896 4.56593 5.23662 3.85994 6.45829C3.15394 7.67996 3.15841 9.00302 3.86993 9.41342C4.58144 9.82383 5.73056 9.16617 6.43656 7.9445Z" fill="#E6007A"/>
<path d="M12.5566 15.597C12.5566 16.4178 11.412 17.0832 9.99998 17.0832C8.58799 17.0832 7.44334 16.4178 7.44334 15.597C7.44334 14.7762 8.58799 14.1108 9.99998 14.1108C11.412 14.1108 12.5566 14.7762 12.5566 15.597Z" fill="white"/>
<path d="M6.43655 12.0553C7.14255 13.277 7.13808 14.6001 6.42656 15.0105C5.71505 15.4209 4.56593 14.7632 3.85993 13.5415C3.15394 12.3199 3.15841 10.9968 3.86992 10.5864C4.58143 10.176 5.73056 10.8337 6.43655 12.0553Z" fill="white"/>
<path d="M6.42657 4.98936C7.13808 5.39977 7.14255 6.72283 6.43656 7.9445C5.73056 9.16617 4.58144 9.82383 3.86993 9.41342C3.15841 9.00302 3.15394 7.67996 3.85994 6.45829C4.56593 5.23662 5.71505 4.57896 6.42657 4.98936Z" fill="white"/>
</g>
<defs>
<clipPath id="clip0_7731_46262">
<rect width="20" height="20" fill="white"/>
</clipPath>
</defs>
</svg>
