<svg width="20" height="20" viewBox="0 0 20 20" fill="none" xmlns="http://www.w3.org/2000/svg">
<g clip-path="url(#clip0_7731_46271)">
<path d="M10 20C15.5228 20 20 15.5228 20 10C20 4.47715 15.5228 0 10 0C4.47715 0 0 4.47715 0 10C0 15.5228 4.47715 20 10 20Z" fill="#F1305A"/>
<path d="M3.97069 7.99986C3.97069 4.52598 6.6701 1.70984 10 1.70984C13.3299 1.70984 16.0293 4.52598 16.0293 7.99986V12.0004C16.0293 13.8749 15.2433 15.5579 13.9964 16.7103V7.99986C13.9964 5.69725 12.2072 3.83061 10 3.83061C7.79282 3.83061 6.00356 5.69725 6.00356 7.99986V16.7103C4.75666 15.5579 3.97069 13.8749 3.97069 12.0004V7.99986Z" fill="white"/>
<path d="M6.00356 16.7103C7.06745 17.6935 8.4669 18.2904 10 18.2904C11.5331 18.2904 12.9325 17.6935 13.9964 16.7103H6.00356Z" fill="white"/>
<path d="M12.4949 7.99986C11.117 7.99986 10 6.83456 10 5.39709C10 6.83456 8.883 7.99986 7.50511 7.99986C8.883 7.99986 10 9.16516 10 10.6026C10 9.16516 11.117 7.99986 12.4949 7.99986Z" fill="white"/>
</g>
<defs>
<clipPath id="clip0_7731_46271">
<rect width="20" height="20" fill="white"/>
</clipPath>
</defs>
</svg>
