<svg width="24" height="24" viewBox="0 0 24 24" fill="none" xmlns="http://www.w3.org/2000/svg">
<g clip-path="url(#clip0_8428_75306)">
<path d="M4.0083 15.615V15.7761C4.0083 15.7761 10.4604 13.3882 11.7147 14.0049L10.9581 14.2136C11.0244 14.2136 12.2506 14.2888 12.2506 14.2888C12.2793 14.5261 12.3639 14.7544 12.4982 14.9572C12.6325 15.1601 12.8132 15.3326 13.0272 15.4621C13.7658 15.919 13.7798 16.1672 13.7798 16.1672C13.7798 16.1672 13.3965 16.3139 13.3965 16.5C13.7529 16.4044 14.1215 16.3544 14.4923 16.3515C14.8267 16.3626 15.1583 16.4125 15.4796 16.5C15.4796 16.5 15.4415 16.312 14.9257 16.1672C14.41 16.0224 13.9123 15.511 13.6614 15.2271C13.511 15.0456 13.4134 14.8306 13.3782 14.6032C13.343 14.3758 13.3715 14.1437 13.4607 13.9297C13.6128 13.5648 14.0876 13.3375 15.0065 12.8976C15.1671 12.8207 15.3414 12.7373 15.5298 12.6455C17.033 11.9179 17.3761 11.3726 17.5869 10.9533C17.719 10.6903 17.893 10.2617 18.0475 9.8812C18.1393 9.65504 18.2242 9.4459 18.2893 9.29869C18.4344 8.92963 18.6842 8.60461 19.0118 8.35857C19.2345 8.19875 20.25 7.83963 20.25 7.83963C20.25 7.83963 19.4753 7.22103 19.2225 7.03489C18.9064 6.75445 18.5067 6.57081 18.0765 6.50842C17.544 6.44325 17.0035 6.77079 16.6344 6.99445L16.6236 7.00104C16.4172 7.12606 16.1032 7.3855 15.8157 7.62291C15.5887 7.81041 15.3784 7.98417 15.2509 8.06714C15.1423 8.13777 14.97 8.20841 14.7347 8.30488C14.3437 8.46517 13.7787 8.69678 13.0433 9.11819C11.8653 9.79319 7.18921 12.5891 7.18921 12.5891L8.39334 12.6004L2.98882 15.2271H3.52867L2.75 15.7912C3.17825 15.883 3.62761 15.82 4.0083 15.615Z" fill="white"/>
<path fill-rule="evenodd" clip-rule="evenodd" d="M12 24C18.6274 24 24 18.6274 24 12C24 5.37258 18.6274 0 12 0C5.37258 0 0 5.37258 0 12C0 18.6274 5.37258 24 12 24ZM4.0083 15.7761V15.615C3.62761 15.82 3.17825 15.883 2.75 15.7912L3.52867 15.2271H2.98882L8.39334 12.6004L7.18921 12.5891C7.18921 12.5891 11.8653 9.79319 13.0433 9.11819C13.7787 8.69678 14.3437 8.46517 14.7347 8.30488C14.97 8.20841 15.1423 8.13777 15.2509 8.06714C15.3784 7.98417 15.5887 7.81041 15.8157 7.62291C16.1032 7.3855 16.4172 7.12606 16.6236 7.00104L16.6344 6.99445C17.0035 6.77079 17.544 6.44325 18.0765 6.50842C18.5067 6.57081 18.9064 6.75445 19.2225 7.03489C19.4753 7.22103 20.25 7.83963 20.25 7.83963C20.25 7.83963 19.2345 8.19875 19.0118 8.35857C18.6842 8.60461 18.4344 8.92963 18.2893 9.29869C18.2242 9.4459 18.1393 9.65504 18.0475 9.8812C17.893 10.2617 17.719 10.6903 17.5869 10.9533C17.3761 11.3726 17.033 11.9179 15.5298 12.6455C15.3414 12.7373 15.1671 12.8207 15.0065 12.8976C14.0876 13.3375 13.6128 13.5648 13.4607 13.9297C13.3715 14.1437 13.343 14.3758 13.3782 14.6032C13.4134 14.8306 13.511 15.0456 13.6614 15.2271C13.9123 15.511 14.41 16.0224 14.9257 16.1672C15.4415 16.312 15.4796 16.5 15.4796 16.5C15.1583 16.4125 14.8267 16.3626 14.4923 16.3515C14.1215 16.3544 13.7529 16.4044 13.3965 16.5C13.3965 16.3139 13.7798 16.1672 13.7798 16.1672C13.7798 16.1672 13.7658 15.919 13.0272 15.4621C12.8132 15.3326 12.6325 15.1601 12.4982 14.9572C12.3639 14.7544 12.2793 14.5261 12.2506 14.2888C12.2506 14.2888 11.0244 14.2136 10.9581 14.2136L11.7147 14.0049C10.4604 13.3882 4.0083 15.7761 4.0083 15.7761Z" fill="black"/>
</g>
<defs>
<clipPath id="clip0_8428_75306">
<rect width="24" height="24" fill="white"/>
</clipPath>
</defs>
</svg>
