
<svg width="14" height="13" viewBox="0 0 14 13" fill="none" xmlns="http://www.w3.org/2000/svg">
<path d="M0.636364 5.13708H2.54545V13H0.636364C0.467589 13 0.305728 12.931 0.186387 12.8081C0.0670452 12.6852 0 12.5185 0 12.3448V5.79232C0 5.61854 0.0670452 5.45188 0.186387 5.329C0.305728 5.20611 0.467589 5.13708 0.636364 5.13708ZM4.00464 4.28985L8.07736 0.0962915C8.13149 0.0403953 8.2034 0.00650138 8.27987 0.000843203C8.35633 -0.00481497 8.43221 0.018143 8.49354 0.065495L9.03636 0.484851C9.18712 0.601382 9.30099 0.761267 9.36362 0.944344C9.42624 1.12742 9.43482 1.32549 9.38827 1.51358L8.65454 4.48184H12.7273C13.0648 4.48184 13.3885 4.6199 13.6272 4.86567C13.8659 5.11143 14 5.44476 14 5.79232V7.17096C14.0002 7.34221 13.9677 7.51184 13.9045 7.67025L11.935 12.5944C11.887 12.7145 11.8054 12.8171 11.7005 12.8893C11.5957 12.9615 11.4725 13.0001 11.3464 13H4.45455C4.28577 13 4.12391 12.931 4.00457 12.8081C3.88523 12.6852 3.81818 12.5185 3.81818 12.3448V4.75311C3.81822 4.57934 3.88529 4.4127 4.00464 4.28985Z" fill="#3ABC3F"/>
</svg>
