<svg width="16" height="16" viewBox="0 0 16 16" fill="none" xmlns="http://www.w3.org/2000/svg">
<path d="M13.8623 11.2261C13.4875 10.5386 13.0405 9.23407 13.0405 6.92307V6.44547C13.0405 3.46475 10.7966 1.02196 8.03839 1.00013C8.02547 1.00007 8.01274 1 7.99988 1C6.66317 1.00009 5.38124 1.56744 4.43608 2.57724C3.49092 3.58704 2.95995 4.95658 2.95996 6.38461V6.92307C2.95996 9.2338 2.51285 10.5384 2.13778 11.2258C2.04826 11.3894 2.00073 11.5754 2.00001 11.7649C1.99929 11.9544 2.04539 12.1408 2.13366 12.3051C2.22194 12.4695 2.34925 12.6061 2.50276 12.7011C2.65626 12.7961 2.8305 12.8461 3.0079 12.8461H12.9921C13.1695 12.8461 13.3437 12.7961 13.4972 12.7011C13.6507 12.6062 13.778 12.4696 13.8663 12.3053C13.9546 12.1409 14.0007 11.9546 14 11.7651C13.9993 11.5756 13.9518 11.3897 13.8623 11.2261Z" fill="#1D253C"/>
<path d="M10.0117 13.9231H5.97945C5.84577 13.9231 5.71757 13.9798 5.62304 14.0808C5.52852 14.1818 5.47542 14.3187 5.47542 14.4615C5.47542 14.6043 5.52852 14.7413 5.62304 14.8423C5.71757 14.9433 5.84577 15 5.97945 15H10.0117C10.1454 15 10.2736 14.9433 10.3681 14.8423C10.4626 14.7413 10.5157 14.6043 10.5157 14.4615C10.5157 14.3187 10.4626 14.1818 10.3681 14.0808C10.2736 13.9798 10.1454 13.9231 10.0117 13.9231Z" fill="#1D253C"/>
</svg>
