<svg width="24" height="24" viewBox="0 0 24 24" fill="none" xmlns="http://www.w3.org/2000/svg">
<path d="M12 22.998C18.074 22.998 22.998 18.074 22.998 12C22.998 5.92593 18.074 1.00195 12 1.00195C5.92593 1.00195 1.00195 5.92593 1.00195 12C1.00195 18.074 5.92593 22.998 12 22.998Z" fill="#321D47"/>
<path d="M16.872 14.8923H14.2184L13.7199 13.6755H10.352L9.85347 14.8923H7.19995L10.3755 7.65796H13.6924L16.872 14.8923ZM12.0399 9.53819L11.1606 11.6971H12.9152L12.0399 9.53819Z" fill="white"/>
<path d="M13.701 4.4405C13.701 5.37994 12.9395 6.1415 12 6.1415C11.0606 6.1415 10.299 5.37994 10.299 4.4405C10.299 3.50107 11.0606 2.7395 12 2.7395C12.9395 2.7395 13.701 3.50107 13.701 4.4405Z" fill="#E40B7B"/>
<path d="M13.701 19.5605C13.701 20.4999 12.9395 21.2615 12 21.2615C11.0606 21.2615 10.299 20.4999 10.299 19.5605C10.299 18.6211 11.0606 17.8595 12 17.8595C12.9395 17.8595 13.701 18.6211 13.701 19.5605Z" fill="#E40B7B"/>
<path d="M19.3976 9.6941C18.584 10.1638 17.5437 9.88507 17.0739 9.07149C16.6042 8.25792 16.883 7.2176 17.6966 6.74788C18.5101 6.27817 19.5504 6.55692 20.0202 7.37049C20.4899 8.18407 20.2111 9.22439 19.3976 9.6941Z" fill="#E40B7B"/>
<path d="M6.30325 17.2541C5.48968 17.7238 4.44936 17.4451 3.97964 16.6315C3.50993 15.8179 3.78868 14.7776 4.60225 14.3079C5.41583 13.8382 6.45614 14.1169 6.92586 14.9305C7.39558 15.7441 7.11683 16.7844 6.30325 17.2541Z" fill="#E40B7B"/>
<path d="M4.60225 9.6941C5.41582 10.1638 6.45614 9.88506 6.92586 9.07149C7.39558 8.25791 7.11682 7.21759 6.30325 6.74788C5.48967 6.27816 4.44936 6.55691 3.97964 7.37049C3.50992 8.18406 3.78867 9.22438 4.60225 9.6941Z" fill="#E40B7B"/>
<path d="M17.6966 17.2541C18.5101 17.7238 19.5504 17.4451 20.0202 16.6315C20.4899 15.8179 20.2111 14.7776 19.3976 14.3079C18.584 13.8382 17.5437 14.1169 17.0739 14.9305C16.6042 15.7441 16.883 16.7844 17.6966 17.2541Z" fill="#E40B7B"/>
</svg>
