<svg width="24" height="24" viewBox="0 0 24 24" fill="none" xmlns="http://www.w3.org/2000/svg">
<path d="M12 22.998C18.074 22.998 22.998 18.074 22.998 12C22.998 5.92593 18.074 1.00195 12 1.00195C5.92593 1.00195 1.00195 5.92593 1.00195 12C1.00195 18.074 5.92593 22.998 12 22.998Z" fill="#E6007A"/>
<path d="M12 7.43448C13.5784 7.43448 14.858 6.69551 14.858 5.78395C14.858 4.87239 13.5784 4.13342 12 4.13342C10.4215 4.13342 9.14197 4.87239 9.14197 5.78395C9.14197 6.69551 10.4215 7.43448 12 7.43448Z" fill="white"/>
<path d="M12 19.8664C13.5784 19.8664 14.858 19.1274 14.858 18.2159C14.858 17.3043 13.5784 16.5653 12 16.5653C10.4215 16.5653 9.14197 17.3043 9.14197 18.2159C9.14197 19.1274 10.4215 19.8664 12 19.8664Z" fill="white"/>
<path d="M8.01653 9.71725C8.80574 8.36051 8.80074 6.89117 8.00536 6.43539C7.20998 5.97961 5.92542 6.70998 5.13621 8.06672C4.34699 9.42347 4.35199 10.8928 5.14737 11.3486C5.94275 11.8044 7.22731 11.074 8.01653 9.71725Z" fill="white"/>
<path d="M18.8638 15.9332C19.653 14.5764 19.648 13.1071 18.8526 12.6513C18.0573 12.1955 16.7727 12.9259 15.9835 14.2827C15.1943 15.6394 15.1993 17.1087 15.9946 17.5645C16.79 18.0203 18.0746 17.2899 18.8638 15.9332Z" fill="white"/>
<path d="M8.00535 17.5644C8.80073 17.1087 8.80573 15.6393 8.01652 14.2826C7.22731 12.9258 5.94274 12.1955 5.14737 12.6512C4.35199 13.107 4.34699 14.5764 5.1362 15.9331C5.92541 17.2898 7.20998 18.0202 8.00535 17.5644Z" fill="white"/>
<path d="M18.8526 11.3486C19.6479 10.8929 19.6529 9.42351 18.8637 8.06677C18.0745 6.71003 16.79 5.97966 15.9946 6.43544C15.1992 6.89122 15.1942 8.36056 15.9834 9.7173C16.7726 11.074 18.0572 11.8044 18.8526 11.3486Z" fill="white"/>
</svg>
