<svg width="16" height="16" viewBox="0 0 16 16" fill="none" xmlns="http://www.w3.org/2000/svg">
<path fill-rule="evenodd" clip-rule="evenodd" d="M7.99984 15.3332C12.0499 15.3332 15.3332 12.0499 15.3332 7.99984C15.3332 3.94975 12.0499 0.666504 7.99984 0.666504C3.94975 0.666504 0.666504 3.94975 0.666504 7.99984C0.666504 12.0499 3.94975 15.3332 7.99984 15.3332ZM12.0278 6.17011C12.2882 5.90976 12.2882 5.48765 12.0278 5.2273C11.7675 4.96695 11.3454 4.96695 11.085 5.2273L7.07174 9.24057L5.18708 7.35592C4.92673 7.09557 4.50462 7.09557 4.24428 7.35592C3.98393 7.61627 3.98393 8.03838 4.24428 8.29873L6.36463 10.4191C6.75516 10.8096 7.38832 10.8096 7.77884 10.4191L12.0278 6.17011Z" fill="#3ABC3F"/>
</svg>
