<svg width="20" height="20" viewBox="0 0 20 20" fill="none" xmlns="http://www.w3.org/2000/svg">
<g clip-path="url(#clip0_1772_19579)">
<path fill-rule="evenodd" clip-rule="evenodd" d="M7.76673 4.17598C7.33352 3.74277 6.63115 3.74277 6.19794 4.17598L1.15816 9.21576C0.72495 9.64896 0.72495 10.3513 1.15816 10.7845L6.19794 15.8243C6.63115 16.2575 7.33352 16.2575 7.76673 15.8243L9.0752 14.5159C10.1464 15.4738 11.5605 16.0562 13.1106 16.0562C16.4552 16.0562 19.1666 13.3448 19.1666 10.0002C19.1666 6.65552 16.4552 3.94415 13.1106 3.94415C11.5605 3.94415 10.1464 4.52654 9.0752 5.48444L7.76673 4.17598ZM9.0752 5.48444C7.83511 6.5934 7.05458 8.20563 7.05458 10.0002C7.05458 11.7947 7.83511 13.4069 9.0752 14.5159L12.8065 10.7845C13.2397 10.3513 13.2397 9.64896 12.8065 9.21576L9.0752 5.48444Z" fill="black"/>
</g>
<defs>
<clipPath id="clip0_1772_19579">
<rect width="20" height="20" fill="white"/>
</clipPath>
</defs>
</svg>
