<svg width="60" height="60" viewBox="0 0 60 60" fill="none" xmlns="http://www.w3.org/2000/svg">
<g clip-path="url(#clip0_5429_39237)">
<path d="M37.3161 24.8904C38.0306 24.8904 38.6909 25.2716 39.0482 25.8904L42.8641 32.4999C43.2214 33.1187 43.2214 33.8811 42.8641 34.4999L39.0482 41.1093C38.6909 41.7281 38.0306 42.1093 37.3161 42.1093H29.6841C28.9696 42.1093 28.3094 41.7281 27.9521 41.1093L24.1361 34.4999C23.7788 33.8811 23.7788 33.1187 24.1361 32.4999L27.9521 25.8904C28.3094 25.2716 28.9696 24.8904 29.6841 24.8904L37.3161 24.8904Z" fill="#FFF0F3"/>
<path d="M35.8046 33.34C36.2407 33.4848 36.5823 33.7286 36.8295 34.0714C37.0766 34.4067 37.2002 34.8219 37.2002 35.3171C37.2002 36.0181 36.9385 36.559 36.4151 36.94C35.8991 37.3133 35.1431 37.5 34.1472 37.5H30.2002V29.5H33.9292C34.8596 29.5 35.572 29.6867 36.0662 30.06C36.5678 30.4333 36.8186 30.94 36.8186 31.58C36.8186 31.9686 36.7277 32.3152 36.546 32.62C36.3715 32.9248 36.1244 33.1648 35.8046 33.34ZM31.9556 30.8943V32.78H33.7111C34.1472 32.78 34.478 32.7 34.7033 32.54C34.9286 32.38 35.0413 32.1438 35.0413 31.8314C35.0413 31.519 34.9286 31.2867 34.7033 31.1343C34.478 30.9743 34.1472 30.8943 33.7111 30.8943H31.9556ZM34.0164 36.1057C34.4816 36.1057 34.8305 36.0257 35.0631 35.8657C35.303 35.7057 35.4229 35.4581 35.4229 35.1229C35.4229 34.46 34.9541 34.1286 34.0164 34.1286H31.9556V36.1057H34.0164Z" fill="#F23252"/>
<path d="M-78 19C-78 18.4477 -77.5523 18 -77 18H-63.5C-62.9477 18 -62.5 18.4477 -62.5 19V21.5C-62.5 22.0523 -62.9477 22.5 -63.5 22.5H-77C-77.5523 22.5 -78 22.0523 -78 21.5V19Z" fill="#FC7C91"/>
<path d="M18 19C18 18.4477 18.4477 18 19 18H32.5C33.0523 18 33.5 18.4477 33.5 19V21.5C33.5 22.0523 33.0523 22.5 32.5 22.5H19C18.4477 22.5 18 22.0523 18 21.5V19Z" fill="#FC7C91"/>
<path d="M24.4247 28C24.246 28.3094 23.9159 28.5 23.5586 28.5H19C18.4477 28.5 18 28.0523 18 27.5V25C18 24.4477 18.4477 24 19 24H25.783C26.194 24 26.4254 24.5346 26.2199 24.8905V24.8905L24.4247 28Z" fill="#FC7C91"/>
<path d="M21.5379 30C22.3077 30 22.7888 30.8333 22.4039 31.5V31.5C22.0832 32.0555 21.9064 32.669 21.8736 33.2883C21.8385 33.9519 21.3606 34.6 20.6961 34.6H19C18.4477 34.6 18 34.1523 18 33.6V31C18 30.4477 18.4477 30 19 30H21.5379Z" fill="#FC7C91"/>
</g>
<rect x="1" y="1" width="58" height="58" rx="29" stroke="#FFF0F3" stroke-width="2"/>
<defs>
<clipPath id="clip0_5429_39237">
<rect width="28" height="28" fill="white" transform="translate(16 16)"/>
</clipPath>
</defs>
</svg>
