<svg width="60" height="60" viewBox="0 0 60 60" fill="none" xmlns="http://www.w3.org/2000/svg">
<path fill-rule="evenodd" clip-rule="evenodd" d="M30 58C45.464 58 58 45.464 58 30C58 14.536 45.464 2 30 2C14.536 2 2 14.536 2 30C2 45.464 14.536 58 30 58ZM30 60C46.5685 60 60 46.5685 60 30C60 13.4315 46.5685 0 30 0C13.4315 0 0 13.4315 0 30C0 46.5685 13.4315 60 30 60Z" fill="#FFF0F3"/>
<path fill-rule="evenodd" clip-rule="evenodd" d="M16 29.9987C16 22.2814 22.2794 16 30 16C37.718 16 44 22.2841 44 30.0013C44 37.7186 37.7206 44 30 44C22.2794 44 16 37.7159 16 29.9987ZM18 29.9989C18 23.3841 23.3823 18 30 18C36.6154 18 42 23.3863 42 30.0011C42 36.6159 36.6177 42 30 42C23.3823 42 18 36.6137 18 29.9989Z" fill="#FC7C91"/>
<path d="M30 20.3571C24.6823 20.3571 20.3572 24.6836 20.3572 29.9991C20.3572 35.3145 24.6823 39.6428 30 39.6428C35.3178 39.6428 39.6429 35.3163 39.6429 30.0009C39.6429 24.6854 35.316 20.3571 30 20.3571Z" fill="#FFF0F3"/>
<path d="M27.504 22.6421C27.8057 22.5412 28.1052 22.7735 28.1052 23.0896V23.5742C28.1052 23.7873 27.9646 23.9738 27.7636 24.0483C25.3347 24.9489 23.6051 27.2739 23.6051 30C23.6051 32.7262 25.3347 35.0512 27.7636 35.9517C27.9646 36.0263 28.1052 36.2128 28.1052 36.4259V36.9105C28.1052 37.2266 27.8057 37.4589 27.504 37.358C24.4113 36.3237 22.184 33.4202 22.184 30C22.184 26.5799 24.4113 23.6764 27.504 22.6421Z" fill="#F23252"/>
<path d="M32.2364 35.9517C32.0354 36.0263 31.8948 36.2128 31.8948 36.4259V36.9105C31.8948 37.2266 32.1944 37.4589 32.496 37.358C35.5888 36.3237 37.8161 33.4202 37.8161 30C37.8161 26.5799 35.5888 23.6764 32.496 22.6421C32.1944 22.5412 31.8948 22.7735 31.8948 23.0896V23.5742C31.8948 23.7873 32.0354 23.9738 32.2364 24.0483C34.6654 24.9489 36.395 27.2739 36.395 30C36.395 32.7262 34.6654 35.0512 32.2364 35.9517Z" fill="#F23252"/>
<path d="M29.4558 25.3366C29.4558 25.2066 29.5618 25.1013 29.6927 25.1013H30.3558C30.4866 25.1013 30.5927 25.2066 30.5927 25.3366V26.2423C30.9327 26.2835 31.2453 26.3702 31.5306 26.5025C31.9444 26.6912 32.265 26.959 32.4923 27.306C32.6813 27.5903 32.7928 27.9062 32.827 28.2537C32.8397 28.383 32.7323 28.4886 32.6015 28.4886H31.5486C31.4178 28.4886 31.3149 28.3824 31.2925 28.2544C31.2529 28.0282 31.1525 27.8451 30.9912 27.7053C30.7774 27.5166 30.4772 27.4223 30.0905 27.4223C29.7173 27.4223 29.4273 27.5014 29.2203 27.6598C29.0134 27.8148 28.9099 28.0203 28.9099 28.2763C28.9099 28.5155 29.0304 28.716 29.2712 28.8777C29.5155 29.0394 29.8734 29.191 30.3449 29.3325C30.4071 29.3511 30.4681 29.3692 30.5279 29.3869L30.531 29.3879C31.3054 29.6177 31.8828 29.7891 32.2508 30.1452C32.6477 30.5293 32.8383 31.1602 32.8383 31.7329C32.8383 32.3697 32.5958 32.87 32.1107 33.2338C31.7159 33.5271 31.21 33.7011 30.5928 33.7558L30.5927 34.6435C30.5927 34.7734 30.4866 34.8787 30.3558 34.8787H29.6926C29.5618 34.8787 29.4558 34.7734 29.4558 34.6435V33.7194C29.1517 33.6692 28.8646 33.5849 28.5944 33.4663C28.1263 33.2574 27.7684 32.9727 27.5207 32.6122C27.3176 32.3124 27.1989 31.973 27.1647 31.5939C27.1531 31.4645 27.2604 31.359 27.3912 31.359H28.4492C28.58 31.359 28.6836 31.465 28.7011 31.5937C28.7903 32.2491 29.2737 32.5769 30.1515 32.5769C30.5145 32.5769 30.7978 32.5044 31.0013 32.3596C31.2049 32.2113 31.3067 32.0058 31.3067 31.743C31.3067 31.4567 31.2128 31.0852 31.0092 30.9335C30.8879 30.8412 30.706 30.8006 30.4668 30.7473C30.3046 30.7111 30.1161 30.669 29.9022 30.6009C29.373 30.4291 28.954 30.2607 28.6453 30.0956C27.804 29.6441 27.3834 29.036 27.3834 28.2713C27.3834 27.8737 27.4953 27.52 27.7192 27.21C27.9465 26.8967 28.2705 26.6525 28.6911 26.4773C28.9299 26.3786 29.1848 26.3078 29.4558 26.2647V25.3366Z" fill="#F23252"/>
</svg>
