<svg width="48" height="48" viewBox="0 0 48 48" fill="none" xmlns="http://www.w3.org/2000/svg">
<path d="M31.316 18.8905C32.0305 18.8905 32.6908 19.2717 33.048 19.8905L36.864 26.4999C37.2213 27.1187 37.2213 27.8811 36.864 28.4999L33.048 35.1094C32.6908 35.7282 32.0305 36.1094 31.316 36.1094H23.684C22.9695 36.1094 22.3092 35.7282 21.952 35.1094L18.136 28.4999C17.7787 27.8811 17.7787 27.1187 18.136 26.4999L21.952 19.8905C22.3092 19.2717 22.9695 18.8905 23.684 18.8905H31.316Z" fill="#FFF0F3"/>
<path d="M31.9941 28.232C32.1174 28.1089 32.276 27.9505 32.4335 27.7934C32.7848 27.4427 32.7849 26.8739 32.4337 26.523L32.0615 26.1513C30.7291 27.4821 28.7353 27.7495 27.1368 26.9536C28.2172 27.1531 29.3368 26.9977 30.3289 26.465C30.9925 26.1085 31.1186 25.2095 30.5857 24.6773L28.3888 22.483C27.8979 21.9927 27.102 21.9927 26.6113 22.483L24.2433 24.8482C25.8028 24.1864 27.6762 24.4932 28.9445 25.7688C27.0095 24.8307 24.6124 25.1636 23.0058 26.7681C22.8826 26.8912 22.7238 27.0498 22.5663 27.2071C22.2152 27.558 22.2153 28.1264 22.5663 28.4771L22.9382 28.8486C24.2706 27.5178 26.2645 27.2504 27.8629 28.0463C26.7825 27.8467 25.663 28.0022 24.6709 28.5349C24.0072 28.8914 23.8812 29.7904 24.414 30.3226L26.6109 32.5169C27.1018 33.0072 27.8977 33.0072 28.3884 32.5169L30.7565 30.1517C29.1969 30.8134 27.3236 30.5067 26.055 29.2311C27.99 30.1692 30.3875 29.8365 31.9941 28.232Z" fill="#F23252"/>
<path d="M22 13C22 14.1046 21.1046 15 20 15C18.8955 15 18 14.1046 18 13C18 11.8954 18.8955 11 20 11C21.1046 11 22 11.8954 22 13Z" fill="#FC7C91"/>
<path d="M26.364 16.4645C25.583 17.2455 24.3166 17.2455 23.5356 16.4645C22.7545 15.6834 22.7545 14.4171 23.5356 13.636C24.3166 12.855 25.583 12.855 26.364 13.636C27.1451 14.4171 27.1451 15.6834 26.364 16.4645Z" fill="#FC7C91"/>
<path d="M16.4645 26.364C15.6835 27.145 14.4171 27.145 13.6361 26.364C12.855 25.5829 12.855 24.3166 13.6361 23.5355C14.4171 22.7545 15.6835 22.7545 16.4645 23.5355C17.2456 24.3166 17.2456 25.5829 16.4645 26.364Z" fill="#FC7C91"/>
<path d="M13 22C11.8954 22 11 21.1046 11 20C11 18.8954 11.8954 18 13 18C14.1046 18 15 18.8954 15 20C15 21.1046 14.1046 22 13 22Z" fill="#FC7C91"/>
<path d="M13.6361 16.4645C12.855 15.6834 12.855 14.4171 13.6361 13.636C14.4171 12.855 15.6835 12.855 16.4645 13.636C17.2456 14.4171 17.2456 15.6834 16.4645 16.4645C15.6835 17.2455 14.4171 17.2455 13.6361 16.4645Z" fill="#FC7C91"/>
<path fill-rule="evenodd" clip-rule="evenodd" d="M24 46C36.1503 46 46 36.1503 46 24C46 11.8497 36.1503 2 24 2C11.8497 2 2 11.8497 2 24C2 36.1503 11.8497 46 24 46ZM24 48C37.2548 48 48 37.2548 48 24C48 10.7452 37.2548 0 24 0C10.7452 0 0 10.7452 0 24C0 37.2548 10.7452 48 24 48Z" fill="#FFF0F3"/>
</svg>
