<svg width="60" height="60" viewBox="0 0 60 60" fill="none" xmlns="http://www.w3.org/2000/svg">
<path fill-rule="evenodd" clip-rule="evenodd" d="M30 58C45.464 58 58 45.464 58 30C58 14.536 45.464 2 30 2C14.536 2 2 14.536 2 30C2 45.464 14.536 58 30 58ZM30 60C46.5685 60 60 46.5685 60 30C60 13.4315 46.5685 0 30 0C13.4315 0 0 13.4315 0 30C0 46.5685 13.4315 60 30 60Z" fill="#FFF0F3"/>
<path d="M34.0022 25.9995C29.5907 25.9995 26.0027 29.589 26.0027 33.999C26.0027 38.409 29.5907 42 34.0022 42C38.4137 42 42.0017 38.4105 42.0017 34.0005C42.0017 29.5905 38.4122 25.9995 34.0022 25.9995Z" fill="#F23252"/>
<path d="M34 28C30.6912 28 28 30.692 28 33.9994C28 37.3068 30.6912 40 34 40C37.3088 40 40 37.308 40 34.0006C40 30.6932 37.3077 28 34 28Z" fill="#FFF0F3"/>
<path d="M36.6756 35.2162C36.6756 35.7322 36.4706 36.2272 36.1057 36.5921C35.7408 36.957 35.2458 37.162 34.7298 37.162V37.4053C34.7298 37.5988 34.6529 37.7844 34.516 37.9213C34.3792 38.0581 34.1936 38.135 34.0001 38.135C33.8065 38.135 33.6209 38.0581 33.4841 37.9213C33.3472 37.7844 33.2703 37.5988 33.2703 37.4053V37.162H32.5406C32.3471 37.162 32.1615 37.0852 32.0247 36.9483C31.8878 36.8115 31.8109 36.6259 31.8109 36.4323C31.8109 36.2388 31.8878 36.0532 32.0247 35.9164C32.1615 35.7795 32.3471 35.7026 32.5406 35.7026H34.7298C34.8588 35.7026 34.9825 35.6514 35.0737 35.5602C35.165 35.4689 35.2162 35.3452 35.2162 35.2162C35.2162 35.0871 35.165 34.9634 35.0737 34.8722C34.9825 34.7809 34.8588 34.7297 34.7298 34.7297H33.2703C32.7543 34.7297 32.2593 34.5247 31.8944 34.1598C31.5295 33.7948 31.3245 33.2999 31.3245 32.7838C31.3245 32.2677 31.5295 31.7728 31.8944 31.4079C32.2593 31.0429 32.7543 30.8379 33.2703 30.8379V30.5947C33.2703 30.4012 33.3472 30.2156 33.4841 30.0787C33.6209 29.9419 33.8065 29.865 34.0001 29.865C34.1936 29.865 34.3792 29.9419 34.516 30.0787C34.6529 30.2156 34.7298 30.4012 34.7298 30.5947V30.8379H35.4595C35.653 30.8379 35.8386 30.9148 35.9754 31.0517C36.1123 31.1885 36.1892 31.3741 36.1892 31.5676C36.1892 31.7612 36.1123 31.9468 35.9754 32.0836C35.8386 32.2205 35.653 32.2973 35.4595 32.2973H33.2703C33.1413 32.2973 33.0176 32.3486 32.9264 32.4398C32.8351 32.5311 32.7839 32.6548 32.7839 32.7838C32.7839 32.9128 32.8351 33.0366 32.9264 33.1278C33.0176 33.219 33.1413 33.2703 33.2703 33.2703H34.7298C35.2458 33.2703 35.7408 33.4753 36.1057 33.8402C36.4706 34.2051 36.6756 34.7001 36.6756 35.2162Z" fill="#F23252"/>
<path d="M26.5022 24.999C31.1969 24.999 35.0027 23.4322 35.0027 21.4995C35.0027 19.5668 31.1969 18 26.5022 18C21.8075 18 18.0017 19.5668 18.0017 21.4995C18.0017 23.4322 21.8075 24.999 26.5022 24.999Z" fill="#FC7C91"/>
<path d="M25.4117 29.9685C26.0762 28.56 27.0737 27.3435 28.3052 26.415C27.7082 26.466 27.1052 26.5005 26.5007 26.5005C23.1902 26.5005 19.8602 25.734 18.0002 24.2535V26.5005C18.0017 28.281 21.2342 29.748 25.4117 29.9685V29.9685Z" fill="#FC7C91"/>
<path d="M24.5012 34.0005C24.5012 33.1095 24.6332 32.2485 24.8642 31.4295C22.1297 31.2195 19.5527 30.489 18.0017 29.253V31.5C18.0017 33.156 20.7962 34.539 24.5477 34.9035C24.5192 34.605 24.5012 34.305 24.5012 34.0005V34.0005Z" fill="#FC7C91"/>
</svg>
