<svg width="60" height="60" viewBox="0 0 60 60" fill="none" xmlns="http://www.w3.org/2000/svg">
<path fill-rule="evenodd" clip-rule="evenodd" d="M30 58C45.464 58 58 45.464 58 30C58 14.536 45.464 2 30 2C14.536 2 2 14.536 2 30C2 45.464 14.536 58 30 58ZM30 60C46.5685 60 60 46.5685 60 30C60 13.4315 46.5685 0 30 0C13.4315 0 0 13.4315 0 30C0 46.5685 13.4315 60 30 60Z" fill="#31080F"/>
<path d="M34.0022 25.9995C29.5907 25.9995 26.0027 29.589 26.0027 33.999C26.0027 38.409 29.5907 42 34.0022 42C38.4137 42 42.0017 38.4105 42.0017 34.0005C42.0017 29.5905 38.4122 25.9995 34.0022 25.9995Z" fill="#DA1F3E"/>
<path d="M34 28C30.6912 28 28 30.692 28 33.9994C28 37.3068 30.6912 40 34 40C37.3088 40 40 37.308 40 34.0006C40 30.6932 37.3077 28 34 28Z" fill="#31080F"/>
<path d="M16.999 25.9994C16.999 21.0376 21.036 16.9989 25.9995 16.9989C30.4639 16.9989 34.181 20.2698 34.8814 24.5398C34.5918 24.5132 34.2985 24.4995 34.0021 24.4995C33.6131 24.4995 33.2295 24.523 32.8527 24.5686C32.1897 21.3939 29.3684 19 26 19C22.1397 19 19 22.1407 19 25.9993C19 29.3687 21.394 32.1917 24.5713 32.8534C24.526 33.229 24.5026 33.6113 24.5026 33.999C24.5026 34.2973 24.5165 34.5925 24.5435 34.8838C20.2701 34.1855 16.999 30.4658 16.999 25.9994Z" fill="#940B22"/>
<path d="M30.903 25.0182C28.1517 25.9699 25.9706 28.1522 25.0201 30.9036C22.7304 30.4467 21 28.4206 21 25.9995C21 23.2434 23.2426 21 26 21C28.4203 21 30.4452 22.7303 30.903 25.0182Z" fill="#940B22"/>
<path fill-rule="evenodd" clip-rule="evenodd" d="M34.8115 31.5065C35.1044 31.2136 35.5793 31.2136 35.8722 31.5065L37.8351 33.4694C38.1279 33.7623 38.1279 34.2372 37.8351 34.5301L35.8722 36.493C35.5793 36.7859 35.1044 36.7859 34.8115 36.493C34.5186 36.2001 34.5186 35.7252 34.8115 35.4323L36.2441 33.9998L34.8115 32.5672C34.5186 32.2743 34.5186 31.7994 34.8115 31.5065Z" fill="#DA1F3E"/>
<path fill-rule="evenodd" clip-rule="evenodd" d="M30.9838 31.5065C31.2767 31.2136 31.7516 31.2136 32.0445 31.5065L34.0074 33.4694C34.3003 33.7623 34.3003 34.2372 34.0074 34.5301L32.0445 36.493C31.7516 36.7859 31.2767 36.7859 30.9838 36.493C30.6909 36.2001 30.6909 35.7252 30.9838 35.4323L32.4164 33.9998L30.9838 32.5672C30.6909 32.2743 30.6909 31.7994 30.9838 31.5065Z" fill="#DA1F3E"/>
</svg>
