<svg width="60" height="60" viewBox="0 0 60 60" fill="none" xmlns="http://www.w3.org/2000/svg">
<path fill-rule="evenodd" clip-rule="evenodd" d="M30 58C45.464 58 58 45.464 58 30C58 14.536 45.464 2 30 2C14.536 2 2 14.536 2 30C2 45.464 14.536 58 30 58ZM30 60C46.5685 60 60 46.5685 60 30C60 13.4315 46.5685 0 30 0C13.4315 0 0 13.4315 0 30C0 46.5685 13.4315 60 30 60Z" fill="#FFF0F3"/>
<path fill-rule="evenodd" clip-rule="evenodd" d="M16 29.9987C16 22.2814 22.2794 16 30 16C37.718 16 44 22.284 44 30.0013C44 37.7186 37.7206 44 30 44C22.2794 44 16 37.7159 16 29.9987ZM18 29.9989C18 23.3841 23.3823 18 30 18C36.6154 18 42 23.3863 42 30.0011C42 36.6159 36.6177 42 30 42C23.3823 42 18 36.6137 18 29.9989Z" fill="#FC7C91"/>
<path d="M30.0002 20.3571C24.6824 20.3571 20.3573 24.6836 20.3573 29.9991C20.3573 35.3145 24.6824 39.6428 30.0002 39.6428C35.3179 39.6428 39.643 35.3163 39.643 30.0009C39.643 24.6854 35.3161 20.3571 30.0002 20.3571Z" fill="#FFF0F3"/>
<path fill-rule="evenodd" clip-rule="evenodd" d="M35.585 24.5305V26.615H31.3922V28.0603C34.3369 28.2148 36.5462 28.8491 36.5626 29.6095L36.5625 31.1946C36.5461 31.9549 34.3369 32.5892 31.3922 32.7437V36.2906H28.6081V32.7437C25.6634 32.5892 23.454 31.9549 23.4376 31.1946L23.4377 29.6095C23.4541 28.8491 25.6634 28.2148 28.6081 28.0603V26.615H24.4153V24.5305H35.585ZM30.0001 31.6547C33.1427 31.6547 35.7693 31.1183 36.4121 30.402C35.867 29.7946 33.8953 29.3165 31.3922 29.1852V30.6984C30.9435 30.722 30.4778 30.7344 30.0001 30.7344C29.5225 30.7344 29.0567 30.722 28.6081 30.6984V29.1852C26.1049 29.3165 24.1332 29.7946 23.5881 30.402C24.2309 31.1183 26.8576 31.6547 30.0001 31.6547Z" fill="#F23252"/>
</svg>
