<svg width="60" height="60" viewBox="0 0 60 60" fill="none" xmlns="http://www.w3.org/2000/svg">
<path fill-rule="evenodd" clip-rule="evenodd" d="M30 58C45.464 58 58 45.464 58 30C58 14.536 45.464 2 30 2C14.536 2 2 14.536 2 30C2 45.464 14.536 58 30 58ZM30 60C46.5685 60 60 46.5685 60 30C60 13.4315 46.5685 0 30 0C13.4315 0 0 13.4315 0 30C0 46.5685 13.4315 60 30 60Z" fill="#FFF0F3"/>
<path fill-rule="evenodd" clip-rule="evenodd" d="M16 29.9987C16 22.2814 22.2794 16 30 16C37.718 16 44 22.2841 44 30.0013C44 37.7186 37.7206 44 30 44C22.2794 44 16 37.7159 16 29.9987ZM18 29.9989C18 23.3841 23.3823 18 30 18C36.6154 18 42 23.3863 42 30.0011C42 36.6159 36.6177 42 30 42C23.3823 42 18 36.6137 18 29.9989Z" fill="#FC7C91"/>
<path d="M29.9999 20.3571C24.6821 20.3571 20.3571 24.6836 20.3571 29.9991C20.3571 35.3145 24.6821 39.6428 29.9999 39.6428C35.3177 39.6428 39.6428 35.3163 39.6428 30.0009C39.6428 24.6854 35.3159 20.3571 29.9999 20.3571Z" fill="#FFF0F3"/>
<path d="M29.9998 25.9581C31.3614 25.9581 32.4652 25.3039 32.4652 24.4969C32.4652 23.6899 31.3614 23.0357 29.9998 23.0357C28.6383 23.0357 27.5345 23.6899 27.5345 24.4969C27.5345 25.3039 28.6383 25.9581 29.9998 25.9581Z" fill="#F23252"/>
<path d="M29.9998 36.9642C31.3614 36.9642 32.4652 36.31 32.4652 35.503C32.4652 34.696 31.3614 34.0418 29.9998 34.0418C28.6383 34.0418 27.5345 34.696 27.5345 35.503C27.5345 36.31 28.6383 36.9642 29.9998 36.9642Z" fill="#F23252"/>
<path d="M26.5637 27.9791C27.2445 26.778 27.2401 25.4771 26.554 25.0736C25.8679 24.6701 24.7599 25.3167 24.0791 26.5179C23.3983 27.719 23.4026 29.0198 24.0887 29.4233C24.7748 29.8268 25.8829 29.1802 26.5637 27.9791Z" fill="#F23252"/>
<path d="M35.9207 33.4821C36.6014 32.281 36.5971 30.9802 35.911 30.5767C35.2249 30.1732 34.1168 30.8198 33.4361 32.0209C32.7553 33.222 32.7596 34.5229 33.4457 34.9264C34.1318 35.3299 35.2399 34.6833 35.9207 33.4821Z" fill="#F23252"/>
<path d="M26.554 34.9263C27.2401 34.5228 27.2444 33.222 26.5637 32.0208C25.8829 30.8197 24.7748 30.1731 24.0887 30.5766C23.4026 30.9801 23.3983 32.2809 24.0791 33.4821C24.7599 34.6832 25.8679 35.3298 26.554 34.9263Z" fill="#F23252"/>
<path d="M35.911 29.4234C36.5971 29.0199 36.6014 27.7191 35.9206 26.5179C35.2398 25.3168 34.1317 24.6702 33.4456 25.0737C32.7595 25.4772 32.7552 26.778 33.436 27.9791C34.1168 29.1803 35.2249 29.8269 35.911 29.4234Z" fill="#F23252"/>
</svg>
