<svg width="48" height="48" viewBox="0 0 48 48" fill="none" xmlns="http://www.w3.org/2000/svg">
<path d="M31.316 18.8905C32.0305 18.8905 32.6908 19.2717 33.048 19.8905L36.864 26.4999C37.2213 27.1187 37.2213 27.8811 36.864 28.4999L33.048 35.1094C32.6908 35.7282 32.0305 36.1094 31.316 36.1094H23.684C22.9695 36.1094 22.3092 35.7282 21.952 35.1094L18.136 28.4999C17.7787 27.8811 17.7787 27.1187 18.136 26.4999L21.952 19.8905C22.3092 19.2717 22.9695 18.8905 23.684 18.8905H31.316Z" fill="#FFF0F3"/>
<path d="M29.8044 27.34C30.2405 27.4848 30.5821 27.7286 30.8293 28.0714C31.0764 28.4067 31.2 28.8219 31.2 29.3171C31.2 30.0181 30.9383 30.559 30.415 30.94C29.8989 31.3133 29.1429 31.5 28.147 31.5H24.2V23.5H27.929C28.8594 23.5 29.5718 23.6867 30.066 24.06C30.5676 24.4333 30.8184 24.94 30.8184 25.58C30.8184 25.9686 30.7275 26.3152 30.5458 26.62C30.3713 26.9248 30.1242 27.1648 29.8044 27.34ZM25.9555 24.8943V26.78H27.7109C28.147 26.78 28.4778 26.7 28.7031 26.54C28.9285 26.38 29.0411 26.1438 29.0411 25.8314C29.0411 25.519 28.9285 25.2867 28.7031 25.1343C28.4778 24.9743 28.147 24.8943 27.7109 24.8943H25.9555ZM28.0162 30.1057C28.4814 30.1057 28.8303 30.0257 29.0629 29.8657C29.3028 29.7057 29.4227 29.4581 29.4227 29.1229C29.4227 28.46 28.9539 28.1286 28.0162 28.1286H25.9555V30.1057H28.0162Z" fill="#F23252"/>
<path d="M12 13C12 12.4477 12.4477 12 13 12H26.5C27.0523 12 27.5 12.4477 27.5 13V15.5C27.5 16.0523 27.0523 16.5 26.5 16.5H13C12.4477 16.5 12 16.0523 12 15.5V13Z" fill="#FC7C91"/>
<path d="M18.4247 22C18.246 22.3094 17.9159 22.5 17.5586 22.5H13C12.4477 22.5 12 22.0523 12 21.5V19C12 18.4477 12.4477 18 13 18H19.783C20.194 18 20.4254 18.5346 20.2199 18.8905L18.4247 22Z" fill="#FC7C91"/>
<path d="M15.5379 24C16.3077 24 16.7888 24.8333 16.4039 25.5C16.0832 26.0555 15.9064 26.669 15.8736 27.2883C15.8385 27.9519 15.3606 28.6 14.6961 28.6H13C12.4477 28.6 12 28.1523 12 27.6V25C12 24.4477 12.4477 24 13 24H15.5379Z" fill="#FC7C91"/>
<path fill-rule="evenodd" clip-rule="evenodd" d="M24 46C36.1503 46 46 36.1503 46 24C46 11.8497 36.1503 2 24 2C11.8497 2 2 11.8497 2 24C2 36.1503 11.8497 46 24 46ZM24 48C37.2548 48 48 37.2548 48 24C48 10.7452 37.2548 0 24 0C10.7452 0 0 10.7452 0 24C0 37.2548 10.7452 48 24 48Z" fill="#FFF0F3"/>
</svg>
