<svg width="48" height="48" viewBox="0 0 48 48" fill="none" xmlns="http://www.w3.org/2000/svg">
<path fill-rule="evenodd" clip-rule="evenodd" d="M10 23.9987C10 16.2814 16.2794 10 24 10C31.718 10 38 16.2841 38 24.0013C38 31.7186 31.7206 38 24 38C16.2794 38 10 31.7159 10 23.9987ZM12 23.9989C12 17.3841 17.3823 12 24 12C30.6154 12 36 17.3863 36 24.0011C36 30.6159 30.6177 36 24 36C17.3823 36 12 30.6137 12 23.9989Z" fill="#940B22"/>
<path fill-rule="evenodd" clip-rule="evenodd" d="M14.3574 23.9991C14.3574 18.6837 18.6825 14.3572 24.0003 14.3572C29.3162 14.3572 33.6431 18.6855 33.6431 24.0009C33.6431 29.3164 29.318 33.6429 24.0003 33.6429C18.6825 33.6429 14.3574 29.3146 14.3574 23.9991ZM18.4512 22.1584C18.4512 18.9612 20.9356 16.3694 24.0003 16.3694C27.0649 16.3694 29.5494 18.9612 29.5494 22.1584V25.8403C29.5494 27.5655 28.826 29.1145 27.6784 30.1751V22.1584C27.6784 20.0392 26.0316 18.3212 24.0003 18.3212C21.9689 18.3212 20.3221 20.0392 20.3221 22.1584V30.1751C19.1745 29.1145 18.4512 27.5655 18.4512 25.8403V22.1584ZM20.3221 30.1751C21.3013 31.08 22.5893 31.6294 24.0003 31.6294C25.4113 31.6294 26.6992 31.08 27.6784 30.1751H20.3221ZM24.0003 19.763C24.0003 21.0859 25.0283 22.1584 26.2964 22.1584C25.0283 22.1584 24.0003 23.2309 24.0003 24.5539C24.0003 23.2309 22.9722 22.1584 21.7041 22.1584C22.9722 22.1584 24.0003 21.0859 24.0003 19.763Z" fill="#31080F"/>
<path d="M24.0003 16.3694C20.9356 16.3694 18.4512 18.9612 18.4512 22.1584V25.8403C18.4512 27.5655 19.1745 29.1145 20.3221 30.1751V22.1584C20.3221 20.0392 21.9689 18.3212 24.0003 18.3212C26.0316 18.3212 27.6784 20.0392 27.6784 22.1584V30.1751C28.826 29.1145 29.5494 27.5655 29.5494 25.8403V22.1584C29.5494 18.9612 27.0649 16.3694 24.0003 16.3694Z" fill="#DA1F3E"/>
<path d="M26.2964 22.1584C25.0283 22.1584 24.0003 21.0859 24.0003 19.763C24.0003 21.0859 22.9722 22.1584 21.7041 22.1584C22.9722 22.1584 24.0003 23.2309 24.0003 24.5539C24.0003 23.2309 25.0283 22.1584 26.2964 22.1584Z" fill="#DA1F3E"/>
<path d="M20.3221 30.1751C21.3013 31.08 22.5893 31.6294 24.0003 31.6294C25.4113 31.6294 26.6992 31.08 27.6784 30.1751H20.3221Z" fill="#DA1F3E"/>
<path fill-rule="evenodd" clip-rule="evenodd" d="M24 46C36.1503 46 46 36.1503 46 24C46 11.8497 36.1503 2 24 2C11.8497 2 2 11.8497 2 24C2 36.1503 11.8497 46 24 46ZM24 48C37.2548 48 48 37.2548 48 24C48 10.7452 37.2548 0 24 0C10.7452 0 0 10.7452 0 24C0 37.2548 10.7452 48 24 48Z" fill="#31080F"/>
</svg>
