<svg width="48" height="48" viewBox="0 0 48 48" fill="none" xmlns="http://www.w3.org/2000/svg">
<path d="M28.0022 19.9995C23.5907 19.9995 20.0027 23.589 20.0027 27.999C20.0027 32.409 23.5907 36 28.0022 36C32.4137 36 36.0017 32.4105 36.0017 28.0005C36.0017 23.5905 32.4122 19.9995 28.0022 19.9995Z" fill="#DA1F3E"/>
<path d="M28 22C24.6912 22 22 24.692 22 27.9994C22 31.3068 24.6912 34 28 34C31.3088 34 34 31.308 34 28.0006C34 24.6932 31.3077 22 28 22Z" fill="#31080F"/>
<path d="M20.5021 18.999C25.1968 18.999 29.0026 17.4322 29.0026 15.4995C29.0026 13.5668 25.1968 12 20.5021 12C15.8074 12 12.0016 13.5668 12.0016 15.4995C12.0016 17.4322 15.8074 18.999 20.5021 18.999Z" fill="#940B22"/>
<path d="M19.4116 23.9685C20.0761 22.56 21.0736 21.3435 22.3051 20.415C21.7081 20.466 21.1051 20.5005 20.5006 20.5005C17.1901 20.5005 13.8601 19.734 12.0001 18.2535V20.5005C12.0016 22.281 15.2341 23.748 19.4116 23.9685Z" fill="#940B22"/>
<path d="M18.5011 28.0005C18.5011 27.1095 18.6331 26.2485 18.8641 25.4295C16.1296 25.2195 13.5526 24.489 12.0016 23.253V25.5C12.0016 27.156 14.7961 28.539 18.5476 28.9035C18.5191 28.605 18.5011 28.305 18.5011 28.0005Z" fill="#940B22"/>
<path fill-rule="evenodd" clip-rule="evenodd" d="M24 46C36.1503 46 46 36.1503 46 24C46 11.8497 36.1503 2 24 2C11.8497 2 2 11.8497 2 24C2 36.1503 11.8497 46 24 46ZM24 48C37.2548 48 48 37.2548 48 24C48 10.7452 37.2548 0 24 0C10.7452 0 0 10.7452 0 24C0 37.2548 10.7452 48 24 48Z" fill="#31080F"/>
</svg>
