<svg width="60" height="60" viewBox="0 0 60 60" fill="none" xmlns="http://www.w3.org/2000/svg">
<path d="M34.0019 25.9995C29.5904 25.9995 26.0024 29.589 26.0024 33.999C26.0024 38.409 29.5904 42 34.0019 42C38.4134 42 42.0014 38.4105 42.0014 34.0005C42.0014 29.5905 38.4119 25.9995 34.0019 25.9995Z" fill="#DA1F3E"/>
<path d="M34 28C30.6912 28 28 30.692 28 33.9994C28 37.3068 30.6912 40 34 40C37.3088 40 40 37.308 40 34.0006C40 30.6932 37.3077 28 34 28Z" fill="#31080F"/>
<path d="M26.502 24.999C31.1967 24.999 35.0025 23.4322 35.0025 21.4995C35.0025 19.5668 31.1967 18 26.502 18C21.8073 18 18.0015 19.5668 18.0015 21.4995C18.0015 23.4322 21.8073 24.999 26.502 24.999Z" fill="#940B22"/>
<path d="M25.4115 29.9684C26.076 28.5599 27.0735 27.3434 28.305 26.4149C27.708 26.4659 27.105 26.5004 26.5005 26.5004C23.19 26.5004 19.86 25.7339 18 24.2534V26.5004C18.0015 28.2809 21.234 29.7479 25.4115 29.9684V29.9684Z" fill="#940B22"/>
<path d="M24.501 34.0004C24.501 33.1094 24.633 32.2484 24.864 31.4294C22.1295 31.2194 19.5525 30.4889 18.0015 29.2529V31.4999C18.0015 33.1559 20.796 34.5389 24.5475 34.9034C24.519 34.6049 24.501 34.3049 24.501 34.0004V34.0004Z" fill="#940B22"/>
<rect x="1" y="1" width="58" height="58" rx="29" stroke="#31080F" stroke-width="2"/>
</svg>
