<svg width="48" height="48" viewBox="0 0 48 48" fill="none" xmlns="http://www.w3.org/2000/svg">
<path d="M28.502 20.5C24.0905 20.5 20.5025 24.0895 20.5025 28.4995C20.5025 32.9095 24.0905 36.5005 28.502 36.5005C32.9135 36.5005 36.5015 32.911 36.5015 28.501C36.5015 24.091 32.912 20.5 28.502 20.5Z" fill="#F23252"/>
<path d="M28.4995 22.5005C25.1907 22.5005 22.4995 25.1925 22.4995 28.4999C22.4995 31.8073 25.1907 34.5005 28.4995 34.5005C31.8084 34.5005 34.4995 31.8084 34.4995 28.501C34.4995 25.1936 31.8072 22.5005 28.4995 22.5005Z" fill="#FFF0F3"/>
<path fill-rule="evenodd" clip-rule="evenodd" d="M31.94 25.9709C32.2914 26.3223 32.2914 26.8922 31.94 27.2437L28.1534 31.0302C27.8019 31.3817 27.2321 31.3817 26.8806 31.0302L25.0639 29.2135C24.7124 28.8621 24.7124 28.2922 25.0639 27.9408C25.4154 27.5893 25.9852 27.5893 26.3367 27.9407L27.517 29.121L30.6672 25.9709C31.0187 25.6194 31.5885 25.6194 31.94 25.9709Z" fill="#F23252"/>
<path d="M11.4985 20.5C11.4985 15.5382 15.5355 11.4995 20.499 11.4995C24.9635 11.4995 28.6805 14.7704 29.3809 19.0404C29.0913 19.0137 28.7981 19.0001 28.5017 19.0001C28.1127 19.0001 27.729 19.0236 27.3522 19.0692C26.6892 15.8944 23.8679 13.5006 20.4995 13.5006C16.6392 13.5006 13.4995 16.6413 13.4995 20.4999C13.4995 23.8693 15.8935 26.6923 19.0708 27.354C19.0255 27.7296 19.0022 28.1119 19.0022 28.4996C19.0022 28.7979 19.016 29.093 19.043 29.3844C14.7696 28.6861 11.4985 24.9664 11.4985 20.5Z" fill="#FC7C91"/>
<path d="M25.4026 19.5188C22.6512 20.4705 20.4701 22.6528 19.5197 25.4041C17.2299 24.9472 15.4995 22.9211 15.4995 20.5001C15.4995 17.7439 17.7421 15.5006 20.4995 15.5006C22.9198 15.5006 24.9447 17.2309 25.4026 19.5188Z" fill="#FC7C91"/>
<path fill-rule="evenodd" clip-rule="evenodd" d="M24 46C36.1503 46 46 36.1503 46 24C46 11.8497 36.1503 2 24 2C11.8497 2 2 11.8497 2 24C2 36.1503 11.8497 46 24 46ZM24 48C37.2548 48 48 37.2548 48 24C48 10.7452 37.2548 0 24 0C10.7452 0 0 10.7452 0 24C0 37.2548 10.7452 48 24 48Z" fill="#FFF0F3"/>
</svg>
