<svg width="48" height="48" viewBox="0 0 48 48" fill="none" xmlns="http://www.w3.org/2000/svg">
<path d="M31.316 18.8905C32.0305 18.8905 32.6908 19.2717 33.048 19.8905L36.864 26.4999C37.2213 27.1187 37.2213 27.8811 36.864 28.4999L33.048 35.1094C32.6908 35.7282 32.0305 36.1094 31.316 36.1094H23.684C22.9695 36.1094 22.3092 35.7282 21.952 35.1094L18.136 28.4999C17.7787 27.8811 17.7787 27.1187 18.136 26.4999L21.952 19.8905C22.3092 19.2717 22.9695 18.8905 23.684 18.8905H31.316Z" fill="#31080F"/>
<path d="M24.7342 24.0836C24.7342 24.7119 24.2238 25.2223 23.5955 25.2223C22.9671 25.2223 22.4567 24.7119 22.4567 24.0836C22.4567 23.4552 22.9671 22.9448 23.5955 22.9448C24.2238 22.9448 24.7342 23.4552 24.7342 24.0836Z" fill="#DA1F3E"/>
<path fill-rule="evenodd" clip-rule="evenodd" d="M25.2304 26.2879C24.6264 26.8227 24.2462 27.6056 24.2462 28.4759C24.2462 29.1734 24.4902 29.8139 24.8969 30.3162V30.7534C24.8969 31.1133 24.6061 31.4041 24.2462 31.4041H22.9447C22.5848 31.4041 22.294 31.1133 22.294 30.7534V30.2084C21.5254 29.8424 20.9926 29.0595 20.9926 28.1505C20.9926 26.8918 22.0114 25.873 23.2701 25.873H23.9208C24.4089 25.873 24.8603 26.0255 25.2304 26.2858V26.2879ZM22.294 27.2904C22.0907 27.5181 21.9687 27.8211 21.9687 28.1505C21.9687 28.48 22.0907 28.783 22.294 29.0107V27.2904Z" fill="#DA1F3E"/>
<path fill-rule="evenodd" clip-rule="evenodd" d="M24.8969 28.4759C24.8969 27.2172 25.9157 26.1984 27.1744 26.1984H27.8251C29.0838 26.1984 30.1026 27.2172 30.1026 28.4759C30.1026 29.3849 29.5698 30.1678 28.8012 30.5338V31.4041C28.8012 31.764 28.5104 32.0548 28.1505 32.0548H26.849C26.4891 32.0548 26.1983 31.764 26.1983 31.4041V30.5338C25.4297 30.1678 24.8969 29.3849 24.8969 28.4759ZM26.1983 29.3361C25.995 29.1063 25.873 28.8053 25.873 28.4759C25.873 28.1465 25.995 27.8455 26.1983 27.6157V29.3361ZM28.8012 29.3361C29.0045 29.1063 29.1265 28.8053 29.1265 28.4759C29.1265 28.1465 29.0045 27.8455 28.8012 27.6157V29.3361Z" fill="#DA1F3E"/>
<path d="M26.1983 24.2463C26.1983 24.9641 26.7819 25.5477 27.4998 25.5477C28.2176 25.5477 28.8012 24.9641 28.8012 24.2463C28.8012 23.5284 28.2176 22.9448 27.4998 22.9448C26.7819 22.9448 26.1983 23.5284 26.1983 24.2463Z" fill="#DA1F3E"/>
<path d="M30.2653 24.0836C30.2653 24.7119 30.7757 25.2223 31.404 25.2223C32.0324 25.2223 32.5428 24.7119 32.5428 24.0836C32.5428 23.4552 32.0324 22.9448 31.404 22.9448C30.7757 22.9448 30.2653 23.4552 30.2653 24.0836Z" fill="#DA1F3E"/>
<path fill-rule="evenodd" clip-rule="evenodd" d="M29.7691 26.2879C30.3731 26.8227 30.7533 27.6056 30.7533 28.4759C30.7533 29.1734 30.5093 29.8139 30.1026 30.3162V30.7534C30.1026 31.1133 30.3934 31.4041 30.7533 31.4041H32.0547C32.4147 31.4041 32.7055 31.1133 32.7055 30.7534V30.2084C33.4741 29.8424 34.0069 29.0595 34.0069 28.1505C34.0069 26.8918 32.9881 25.873 31.7294 25.873H31.0787C30.5906 25.873 30.1392 26.0255 29.7691 26.2858V26.2879ZM32.7055 27.2904C32.9088 27.5181 33.0308 27.8211 33.0308 28.1505C33.0308 28.48 32.9088 28.783 32.7055 29.0107V27.2904Z" fill="#DA1F3E"/>
<path d="M22 13C22 14.1046 21.1046 15 20 15C18.8955 15 18 14.1046 18 13C18 11.8954 18.8955 11 20 11C21.1046 11 22 11.8954 22 13Z" fill="#940B22"/>
<path d="M26.364 16.4645C25.583 17.2455 24.3166 17.2455 23.5356 16.4645C22.7545 15.6834 22.7545 14.4171 23.5356 13.636C24.3166 12.855 25.583 12.855 26.364 13.636C27.1451 14.4171 27.1451 15.6834 26.364 16.4645Z" fill="#940B22"/>
<path d="M16.4645 26.364C15.6835 27.145 14.4171 27.145 13.6361 26.364C12.855 25.5829 12.855 24.3166 13.6361 23.5355C14.4171 22.7545 15.6835 22.7545 16.4645 23.5355C17.2456 24.3166 17.2456 25.5829 16.4645 26.364Z" fill="#940B22"/>
<path d="M13 22C11.8954 22 11 21.1046 11 20C11 18.8954 11.8954 18 13 18C14.1046 18 15 18.8954 15 20C15 21.1046 14.1046 22 13 22Z" fill="#940B22"/>
<path d="M13.6361 16.4645C12.855 15.6834 12.855 14.4171 13.6361 13.636C14.4171 12.855 15.6835 12.855 16.4645 13.636C17.2456 14.4171 17.2456 15.6834 16.4645 16.4645C15.6835 17.2455 14.4171 17.2455 13.6361 16.4645Z" fill="#940B22"/>
<path fill-rule="evenodd" clip-rule="evenodd" d="M24 46C36.1503 46 46 36.1503 46 24C46 11.8497 36.1503 2 24 2C11.8497 2 2 11.8497 2 24C2 36.1503 11.8497 46 24 46ZM24 48C37.2548 48 48 37.2548 48 24C48 10.7452 37.2548 0 24 0C10.7452 0 0 10.7452 0 24C0 37.2548 10.7452 48 24 48Z" fill="#31080F"/>
</svg>
