<svg width="60" height="60" viewBox="0 0 60 60" fill="none" xmlns="http://www.w3.org/2000/svg">
<path fill-rule="evenodd" clip-rule="evenodd" d="M30 58C45.464 58 58 45.464 58 30C58 14.536 45.464 2 30 2C14.536 2 2 14.536 2 30C2 45.464 14.536 58 30 58ZM30 60C46.5685 60 60 46.5685 60 30C60 13.4315 46.5685 0 30 0C13.4315 0 0 13.4315 0 30C0 46.5685 13.4315 60 30 60Z" fill="#31080F"/>
<path fill-rule="evenodd" clip-rule="evenodd" d="M16 29.9987C16 22.2814 22.2794 16 30 16C37.718 16 44 22.2841 44 30.0013C44 37.7186 37.7206 44 30 44C22.2794 44 16 37.7159 16 29.9987ZM18 29.9989C18 23.3841 23.3823 18 30 18C36.6154 18 42 23.3863 42 30.0011C42 36.6159 36.6177 42 30 42C23.3823 42 18 36.6137 18 29.9989Z" fill="#940B22"/>
<path d="M30 20.3571C24.6823 20.3571 20.3572 24.6836 20.3572 29.9991C20.3572 35.3145 24.6823 39.6428 30 39.6428C35.3178 39.6428 39.6429 35.3163 39.6429 30.0009C39.6429 24.6854 35.316 20.3571 30 20.3571Z" fill="#31080F"/>
<path d="M30 25.9581C31.3615 25.9581 32.4653 25.3039 32.4653 24.4969C32.4653 23.6899 31.3615 23.0357 30 23.0357C28.6384 23.0357 27.5346 23.6899 27.5346 24.4969C27.5346 25.3039 28.6384 25.9581 30 25.9581Z" fill="#DA1F3E"/>
<path d="M30 36.9642C31.3615 36.9642 32.4653 36.31 32.4653 35.503C32.4653 34.696 31.3615 34.0418 30 34.0418C28.6384 34.0418 27.5346 34.696 27.5346 35.503C27.5346 36.31 28.6384 36.9642 30 36.9642Z" fill="#DA1F3E"/>
<path d="M26.5638 27.9791C27.2446 26.778 27.2403 25.4771 26.5542 25.0736C25.8681 24.6701 24.76 25.3167 24.0792 26.5179C23.3984 27.719 23.4027 29.0198 24.0888 29.4233C24.7749 29.8268 25.883 29.1802 26.5638 27.9791Z" fill="#DA1F3E"/>
<path d="M35.9208 33.4821C36.6016 32.281 36.5972 30.9802 35.9111 30.5767C35.225 30.1732 34.117 30.8198 33.4362 32.0209C32.7554 33.222 32.7597 34.5229 33.4458 34.9264C34.1319 35.3299 35.24 34.6833 35.9208 33.4821Z" fill="#DA1F3E"/>
<path d="M26.5542 34.9263C27.2403 34.5228 27.2446 33.222 26.5638 32.0208C25.883 30.8197 24.7749 30.1731 24.0888 30.5766C23.4027 30.9801 23.3984 32.2809 24.0792 33.4821C24.76 34.6832 25.8681 35.3298 26.5542 34.9263Z" fill="#DA1F3E"/>
<path d="M35.9111 29.4234C36.5972 29.0199 36.6015 27.7191 35.9207 26.5179C35.2399 25.3168 34.1319 24.6702 33.4458 25.0737C32.7596 25.4772 32.7553 26.778 33.4361 27.9791C34.1169 29.1803 35.225 29.8269 35.9111 29.4234Z" fill="#DA1F3E"/>
</svg>
