<svg width="60" height="60" viewBox="0 0 60 60" fill="none" xmlns="http://www.w3.org/2000/svg">
<path d="M34.0019 25.9995C29.5904 25.9995 26.0024 29.589 26.0024 33.999C26.0024 38.409 29.5904 42 34.0019 42C38.4134 42 42.0014 38.4105 42.0014 34.0005C42.0014 29.5905 38.4119 25.9995 34.0019 25.9995Z" fill="#F23252"/>
<path d="M34 28C30.6912 28 28 30.692 28 33.9994C28 37.3068 30.6912 40 34 40C37.3088 40 40 37.308 40 34.0006C40 30.6932 37.3077 28 34 28Z" fill="#FFF0F3"/>
<path fill-rule="evenodd" clip-rule="evenodd" d="M16.999 25.9995C16.999 21.0377 21.036 16.999 25.9995 16.999C30.4639 16.999 34.181 20.2699 34.8814 24.5399C34.5918 24.5132 34.2985 24.4996 34.0021 24.4996C33.6131 24.4996 33.2295 24.5231 32.8527 24.5687C32.1897 21.3939 29.3684 19.0001 26 19.0001C22.1397 19.0001 19 22.1408 19 25.9994C19 29.3688 21.394 32.1918 24.5713 32.8535C24.526 33.2291 24.5026 33.6114 24.5026 33.9991C24.5026 34.2974 24.5165 34.5925 24.5435 34.8839C20.2701 34.1856 16.999 30.4659 16.999 25.9995ZM30.903 25.0183C28.1517 25.97 25.9706 28.1523 25.0201 30.9037C22.7304 30.4468 21 28.4207 21 25.9996C21 23.2435 23.2426 21.0001 26 21.0001C28.4203 21.0001 30.4452 22.7304 30.903 25.0183Z" fill="#FC7C91"/>
<path fill-rule="evenodd" clip-rule="evenodd" d="M37.9805 32.2594C38.2467 31.9931 38.2467 31.5614 37.9805 31.2952C37.7142 31.0289 37.2825 31.0289 37.0162 31.2952L32.9117 35.3996L30.9842 33.4722C30.718 33.2059 30.2863 33.2059 30.02 33.4722C29.7537 33.7384 29.7537 34.1701 30.02 34.4364L32.1886 36.6049C32.588 37.0043 33.2355 37.0043 33.6349 36.6049L37.9805 32.2594Z" fill="#F23252"/>
<rect x="1" y="1" width="58" height="58" rx="29" stroke="#FFF0F3" stroke-width="2"/>
</svg>
