<svg width="20" height="20" viewBox="0 0 20 20" fill="none" xmlns="http://www.w3.org/2000/svg">
<g clip-path="url(#clip0_125_9198)">
<path d="M6.91177 4.70588C6.91177 3.48761 5.92416 2.5 4.70588 2.5C3.48761 2.5 2.5 3.48761 2.5 4.70588C2.5 5.92416 3.48761 6.91177 4.70588 6.91177C5.92416 6.91177 6.91177 5.92416 6.91177 4.70588Z" fill="#DF405D"/>
<path d="M16.4286 2.5H14.1597C13.568 2.5 13.0883 2.9797 13.0883 3.57143V5.84034C13.0883 6.43207 13.568 6.91177 14.1597 6.91177H16.4286C17.0203 6.91177 17.5 6.43207 17.5 5.84034V3.57143C17.5 2.9797 17.0203 2.5 16.4286 2.5Z" fill="#F1AC26"/>
<path d="M12.206 9.99983C12.206 8.78155 11.2184 7.79395 10.0001 7.79395C8.7818 7.79395 7.79419 8.78155 7.79419 9.99983C7.79419 11.2181 8.7818 12.2057 10.0001 12.2057C11.2184 12.2057 12.206 11.2181 12.206 9.99983Z" fill="#DF405D"/>
<path d="M5.84034 7.79395H3.57143C2.9797 7.79395 2.5 8.27364 2.5 8.86538V11.1343C2.5 11.726 2.9797 12.2057 3.57143 12.2057H5.84034C6.43207 12.2057 6.91177 11.726 6.91177 11.1343V8.86538C6.91177 8.27364 6.43207 7.79395 5.84034 7.79395Z" fill="#F1AC26"/>
<path d="M5.84034 13.0884H3.57143C2.9797 13.0884 2.5 13.5681 2.5 14.1598V16.4287C2.5 17.0205 2.9797 17.5001 3.57143 17.5001H5.84034C6.43207 17.5001 6.91177 17.0205 6.91177 16.4287V14.1598C6.91177 13.5681 6.43207 13.0884 5.84034 13.0884Z" fill="#F1AC26"/>
<path d="M11.1345 13.0884H8.86562C8.27389 13.0884 7.79419 13.5681 7.79419 14.1598V16.4287C7.79419 17.0205 8.27389 17.5001 8.86562 17.5001H11.1345C11.7263 17.5001 12.206 17.0205 12.206 16.4287V14.1598C12.206 13.5681 11.7263 13.0884 11.1345 13.0884Z" fill="#F1AC26"/>
<path d="M17.5 15.2943C17.5 14.076 16.5124 13.0884 15.2941 13.0884C14.0759 13.0884 13.0883 14.076 13.0883 15.2943C13.0883 16.5125 14.0759 17.5001 15.2941 17.5001C16.5124 17.5001 17.5 16.5125 17.5 15.2943Z" fill="#DF405D"/>
</g>
<defs>
<clipPath id="clip0_125_9198">
<rect width="20" height="20" fill="white"/>
</clipPath>
</defs>
</svg>
