<svg width="16" height="16" viewBox="0 0 16 16" fill="none" xmlns="http://www.w3.org/2000/svg">
<path d="M15.4569 7.79743C15.435 7.74805 14.9057 6.57398 13.7286 5.39673C12.1608 3.8288 10.1799 3.00001 8.00002 3.00001C7.53949 2.99949 7.07969 3.03697 6.62532 3.11207C6.53671 3.12686 6.45372 3.16526 6.38508 3.22321C6.31643 3.28117 6.26467 3.35656 6.23524 3.44144C6.20581 3.52632 6.19978 3.61756 6.21781 3.70557C6.23583 3.79359 6.27724 3.87512 6.33767 3.9416L12.6684 10.9053C12.7571 11.003 12.8809 11.0616 13.0127 11.0683C13.1445 11.0751 13.2737 11.0295 13.372 10.9414C14.7977 9.66431 15.4307 8.26264 15.4569 8.20356C15.4853 8.13963 15.5 8.07045 15.5 8.00049C15.5 7.93054 15.4853 7.86136 15.4569 7.79743Z" fill="#1D253C"/>
<path d="M3.36998 2.16367C3.28077 2.06554 3.15623 2.00687 3.02376 2.00057C2.8913 1.99426 2.76175 2.04083 2.66362 2.13004C2.56549 2.21925 2.50682 2.34379 2.50051 2.47626C2.49421 2.60873 2.54078 2.73827 2.62999 2.8364L3.83257 4.15922C1.5625 5.5524 0.586548 7.69972 0.543075 7.79746C0.514674 7.86139 0.5 7.93057 0.5 8.00052C0.5 8.07048 0.514674 8.13966 0.543075 8.20359C0.565048 8.25303 1.09435 9.42685 2.27147 10.6039C3.83922 12.1714 5.82011 13 7.99998 13C9.12032 13.0066 10.2293 12.7758 11.2541 12.3229L12.63 13.8364C12.7192 13.9345 12.8437 13.9932 12.9762 13.9995C13.1087 14.0058 13.2382 13.9592 13.3363 13.87C13.4345 13.7808 13.4931 13.6563 13.4995 13.5238C13.5058 13.3913 13.4592 13.2618 13.37 13.1637L3.36998 2.16367ZM7.99998 10.2501C7.58874 10.2502 7.18533 10.1376 6.83361 9.92453C6.4819 9.71143 6.19534 9.40597 6.0051 9.04137C5.81487 8.67678 5.72823 8.26701 5.75462 7.85661C5.78101 7.44622 5.91942 7.05092 6.15479 6.71369L9.10507 9.95899C8.76814 10.1501 8.38734 10.2504 7.99998 10.2501Z" fill="#1D253C"/>
</svg>
