<svg width="16" height="16" viewBox="0 0 16 16" fill="none" xmlns="http://www.w3.org/2000/svg">
<path d="M15.4569 7.79694C15.4349 7.74756 14.9057 6.57343 13.7286 5.39624C12.1608 3.82831 10.1799 2.99951 7.99998 2.99951C5.82011 2.99951 3.83916 3.82831 2.27141 5.39624C1.09428 6.57343 0.565048 7.74756 0.543075 7.79694C0.514674 7.86087 0.5 7.93004 0.5 8C0.5 8.06996 0.514674 8.13913 0.543075 8.20306C0.565048 8.2525 1.09435 9.42633 2.27147 10.6033C3.83922 12.1709 5.82011 12.9995 7.99998 12.9995C10.1799 12.9995 12.1608 12.1709 13.7285 10.6033C14.9056 9.42634 15.4349 8.2525 15.4569 8.20307C15.4853 8.13914 15.5 8.06996 15.5 8C15.5 7.93005 15.4853 7.86087 15.4569 7.79694ZM7.99998 5.75006C8.44499 5.75006 8.88001 5.88202 9.25002 6.12925C9.62003 6.37649 9.90842 6.72789 10.0787 7.13902C10.249 7.55016 10.2936 8.00256 10.2068 8.43901C10.1199 8.87547 9.90564 9.27638 9.59097 9.59105C9.27631 9.90572 8.8754 10.12 8.43894 10.2068C8.00248 10.2936 7.55008 10.2491 7.13895 10.0788C6.72781 9.90849 6.37641 9.6201 6.12918 9.25009C5.88194 8.88008 5.74998 8.44507 5.74998 8.00006C5.75066 7.40353 5.98793 6.83162 6.40974 6.40981C6.83155 5.988 7.40345 5.75073 7.99998 5.75006Z" fill="#1D253C"/>
</svg>
