<svg width="20" height="20" viewBox="0 0 20 20" fill="none" xmlns="http://www.w3.org/2000/svg">
<g clip-path="url(#clip0_5352_38102)">
<path d="M7.24128 14.9597C7.24128 15.0269 7.164 15.0806 7.06655 15.0806C6.95567 15.0907 6.87838 15.037 6.87838 14.9597C6.87838 14.8925 6.95567 14.8387 7.05311 14.8387C7.15392 14.8286 7.24128 14.8824 7.24128 14.9597ZM6.19626 14.8085C6.17274 14.8757 6.23994 14.953 6.34075 14.9731C6.42811 15.0067 6.52892 14.9731 6.54908 14.9059C6.56924 14.8387 6.5054 14.7614 6.40459 14.7312C6.31722 14.7077 6.21978 14.7413 6.19626 14.8085ZM7.68147 14.7513C7.58403 14.7749 7.51682 14.8387 7.5269 14.916C7.53698 14.9832 7.62435 15.0269 7.72515 15.0034C7.8226 14.9798 7.8898 14.916 7.87972 14.8488C7.86964 14.7849 7.77892 14.7413 7.68147 14.7513ZM9.89249 1.875C5.23188 1.875 1.66669 5.41331 1.66669 10.0739C1.66669 13.8004 4.01212 16.9892 7.36225 18.1116C7.79236 18.1888 7.94357 17.9234 7.94357 17.705C7.94357 17.4966 7.93349 16.3474 7.93349 15.6418C7.93349 15.6418 5.58134 16.1458 5.08739 14.6405C5.08739 14.6405 4.70432 13.6626 4.15325 13.4106C4.15325 13.4106 3.38376 12.8831 4.20701 12.8931C4.20701 12.8931 5.0437 12.9604 5.50405 13.7601C6.23994 15.0571 7.47314 14.6841 7.95365 14.4624C8.03093 13.9247 8.24935 13.5517 8.49128 13.33C6.61292 13.1216 4.71776 12.8495 4.71776 9.61694C4.71776 8.69288 4.97314 8.22917 5.51077 7.63777C5.42341 7.41936 5.13779 6.51882 5.59814 5.35618C6.30042 5.13777 7.91669 6.26344 7.91669 6.26344C8.58873 6.07527 9.31118 5.97782 10.0269 5.97782C10.7426 5.97782 11.4651 6.07527 12.1371 6.26344C12.1371 6.26344 13.7534 5.13441 14.4557 5.35618C14.916 6.52218 14.6304 7.41936 14.543 7.63777C15.0807 8.23253 15.41 8.69624 15.41 9.61694C15.41 12.8595 13.4308 13.1183 11.5524 13.33C11.8616 13.5954 12.1237 14.0995 12.1237 14.8891C12.1237 16.0215 12.1136 17.4227 12.1136 17.6983C12.1136 17.9167 12.2682 18.1821 12.6949 18.1048C16.0551 16.9892 18.3334 13.8004 18.3334 10.0739C18.3334 5.41331 14.5531 1.875 9.89249 1.875ZM4.93282 13.4644C4.88913 13.498 4.89921 13.5753 4.95634 13.6391C5.0101 13.6929 5.08739 13.7164 5.13107 13.6727C5.17475 13.6391 5.16467 13.5618 5.10755 13.498C5.05378 13.4442 4.9765 13.4207 4.93282 13.4644ZM4.56991 13.1922C4.54639 13.2359 4.57999 13.2897 4.6472 13.3233C4.70096 13.3569 4.76817 13.3468 4.79169 13.2997C4.81521 13.256 4.78161 13.2023 4.7144 13.1687C4.6472 13.1485 4.59343 13.1586 4.56991 13.1922ZM5.65862 14.3884C5.60486 14.4321 5.62502 14.5329 5.7023 14.5968C5.77959 14.6741 5.87704 14.6841 5.92072 14.6304C5.9644 14.5867 5.94424 14.4859 5.87704 14.422C5.80311 14.3448 5.70231 14.3347 5.65862 14.3884ZM5.27556 13.8945C5.22179 13.9281 5.22179 14.0155 5.27556 14.0927C5.32932 14.17 5.42005 14.2036 5.46373 14.17C5.51749 14.1263 5.51749 14.039 5.46373 13.9617C5.41669 13.8844 5.32932 13.8508 5.27556 13.8945Z" fill="white"/>
</g>
<defs>
<clipPath id="clip0_5352_38102">
<rect width="20" height="20" fill="white"/>
</clipPath>
</defs>
</svg>
