<svg width="20" height="20" viewBox="0 0 20 20" fill="none" xmlns="http://www.w3.org/2000/svg">
<g clip-path="url(#clip0_5352_38111)">
<path d="M2.92671 15.3558L3.66172 16.6347C3.81445 16.9039 4.034 17.1155 4.29173 17.2693L6.91678 12.6924H1.66669C1.66669 12.9905 1.74305 13.2885 1.89578 13.5578L2.92671 15.3558Z" fill="#0066DA"/>
<path d="M10 7.30739L7.37497 2.73047C7.11724 2.88431 6.89769 3.09585 6.74496 3.36508L1.89578 11.8266C1.74586 12.09 1.66689 12.3884 1.66669 12.692H6.91678L10 7.30739Z" fill="#00AC47"/>
<path d="M15.7083 17.2693C15.966 17.1155 16.1856 16.9039 16.3383 16.6347L16.6438 16.1058L18.1043 13.5578C18.257 13.2885 18.3334 12.9905 18.3334 12.6924H13.0829L14.2001 14.9039L15.7083 17.2693Z" fill="#EA4335"/>
<path d="M9.99993 7.30769L12.625 2.73077C12.3672 2.57692 12.0713 2.5 11.7659 2.5H8.23399C7.92852 2.5 7.63261 2.58654 7.37488 2.73077L9.99993 7.30769Z" fill="#00832D"/>
<path d="M13.0832 12.6924H6.91673L4.29169 17.2693C4.54942 17.4232 4.84533 17.5001 5.15079 17.5001H14.8492C15.1546 17.5001 15.4505 17.4135 15.7083 17.2693L13.0832 12.6924Z" fill="#2684FC"/>
<path d="M15.6796 7.59585L13.2551 3.36508C13.1023 3.09585 12.8828 2.88431 12.625 2.73047L10 7.30739L13.0832 12.692H18.3238C18.3238 12.3939 18.2474 12.0959 18.0947 11.8266L15.6796 7.59585Z" fill="#FFBA00"/>
</g>
<defs>
<clipPath id="clip0_5352_38111">
<rect width="20" height="20" fill="white"/>
</clipPath>
</defs>
</svg>
