<svg width="20" height="20" viewBox="0 0 20 20" fill="none" xmlns="http://www.w3.org/2000/svg">
<g clip-path="url(#clip0_125_9192)">
<path d="M11.5344 1.6665H5.09437C4.48904 1.6665 3.95837 2.1965 3.95837 2.80317V17.1972C3.95837 17.8032 4.48837 18.3338 5.09504 18.3338H14.9437C15.5497 18.3338 16.0804 17.8038 16.0804 17.1972V6.21184L13.429 4.31784L11.5344 1.6665Z" fill="#4285F4"/>
<path d="M6.9884 13.788H13.0491V13.0307H6.98907L6.9884 13.788ZM6.9884 15.3033H11.5337V14.546H6.9884V15.3033ZM6.9884 10V10.7573H13.0491V10H6.9884ZM6.9884 12.2727H13.0491V11.5153H6.98907L6.9884 12.2727Z" fill="#F1F1F1"/>
<path d="M11.5344 1.6665V5.07581C11.5344 5.6818 12.0644 6.2118 12.6704 6.2118H16.0798L11.5344 1.6665Z" fill="#A1C2FA"/>
</g>
<defs>
<clipPath id="clip0_125_9192">
<rect width="20" height="20" fill="white"/>
</clipPath>
</defs>
</svg>
