<svg width="130" height="24" viewBox="0 0 130 24" fill="none" xmlns="http://www.w3.org/2000/svg">
<path d="M22.5891 5.86165C22.937 6.11778 24 6.96931 24 6.96931C24 6.96931 22.6059 7.46135 22.3011 7.68154C21.85 8.0208 21.5093 8.46791 21.3101 8.97568C21.0726 9.5194 20.6359 10.6765 20.3479 11.2517C20.06 11.8268 19.5897 12.5773 17.5285 13.5771C15.7888 14.4241 14.9322 14.7544 14.6899 15.3408C14.4403 15.9407 14.5459 16.6192 14.9658 17.1248C15.3113 17.5179 15.9928 18.2189 16.7007 18.4189C17.4085 18.6166 17.4613 18.875 17.4613 18.875C17.0222 18.7559 16.5663 18.6863 16.1056 18.6705C15.5969 18.6728 15.0906 18.7424 14.6035 18.875C14.6035 18.6189 15.129 18.4189 15.129 18.4189C15.129 18.4189 15.1098 18.0774 14.0972 17.4483C13.5045 17.0888 13.111 16.4957 13.0318 15.8351C13.0318 15.8351 11.3473 15.7317 11.2585 15.7317L12.2951 15.4442C10.5747 14.5949 1.73725 17.8797 1.73725 17.8797V17.6505C1.21176 17.9358 0.592681 18.0257 0 17.8976L1.06779 17.1203H0.321536L7.73365 13.5097L6.08278 13.494C6.08278 13.494 12.4991 9.65421 14.1116 8.72629C15.7265 7.79837 16.7414 7.53999 17.1398 7.28161C17.5357 7.02099 18.5147 6.12227 19.021 5.81447C19.5273 5.50666 20.2783 5.04831 21.015 5.13594C21.6077 5.22356 22.1524 5.4752 22.5891 5.86165Z" fill="black"/>
<path d="M32.0052 8.3356H33.9077V11.496H33.9699L36.8574 8.3356H39.045L35.6599 12.0001L39.1798 16.1782H36.8263L33.9647 12.6724H33.9025V16.1782H32L32.0052 8.3356ZM40.4395 15.7394C40.0507 15.3753 39.8537 14.8851 39.8537 14.2736V10.5763H41.5955V13.9468C41.5955 14.2689 41.6888 14.5163 41.8702 14.6844C42.0517 14.8524 42.3109 14.9411 42.6426 14.9411C42.9433 14.9411 43.2129 14.8664 43.4617 14.7124C43.7105 14.5583 43.9127 14.3576 44.0734 14.1008V10.5763H45.8152V16.1782H44.0734V15.4826C43.5187 16.0195 42.8396 16.2902 42.0465 16.2902C41.3622 16.2902 40.8283 16.1082 40.4395 15.7394ZM47.8681 15.8608C47.4015 15.5713 47.0905 15.1699 46.935 14.647L46.9868 14.5023L48.3191 14.1429C48.4694 14.7684 48.9152 15.0858 49.6617 15.0858C49.9209 15.0858 50.1283 15.0391 50.2942 14.9411C50.4601 14.8431 50.543 14.7077 50.543 14.5396C50.543 14.3623 50.4497 14.2222 50.2631 14.1195C50.0764 14.0168 49.7136 13.9048 49.1744 13.7787C48.5212 13.6387 48.0236 13.4286 47.6918 13.1579C47.36 12.8871 47.1942 12.523 47.1942 12.0748C47.1942 11.7761 47.2875 11.5053 47.4741 11.2626C47.6607 11.0198 47.9251 10.8284 48.2621 10.6837C48.6042 10.5437 48.993 10.469 49.4336 10.469C50.0868 10.469 50.6259 10.5997 51.0458 10.8564C51.4657 11.1132 51.7353 11.4773 51.8597 11.9488L51.7871 12.0702L50.4704 12.3596C50.4134 12.0982 50.289 11.8974 50.0972 11.7621C49.9054 11.622 49.6721 11.5567 49.4025 11.5567C49.1952 11.5567 49.0189 11.594 48.879 11.6734C48.739 11.7527 48.6664 11.8601 48.6664 11.9908C48.6664 12.1542 48.7805 12.2896 49.0137 12.3923C49.247 12.495 49.6669 12.6257 50.2838 12.7751C50.9214 12.9338 51.3932 13.1392 51.6938 13.3913C51.9945 13.6434 52.15 13.9981 52.15 14.4463C52.15 14.7917 52.0463 15.1045 51.8442 15.3893C51.642 15.674 51.3517 15.8934 50.9733 16.0568C50.5948 16.2155 50.1594 16.2996 49.6617 16.2996C48.9308 16.2902 48.3294 16.1455 47.8681 15.8608ZM54.0318 16.0848C53.7311 15.9448 53.4875 15.7487 53.3112 15.492C53.135 15.2352 53.0417 14.9318 53.0417 14.591C53.0417 14.0822 53.2386 13.676 53.6274 13.3633C54.0162 13.0552 54.5502 12.8684 55.2345 12.8077L56.9141 12.649V12.4016C56.9141 12.1495 56.8259 11.9488 56.6445 11.8087C56.4683 11.6687 56.2142 11.594 55.8928 11.594C55.6025 11.594 55.3693 11.664 55.1982 11.7994C55.0219 11.9395 54.9182 12.1262 54.8768 12.3643L53.4097 12.2522L53.3475 12.1869C53.4719 11.6267 53.7674 11.1972 54.2288 10.9031C54.6953 10.609 55.2552 10.4596 55.9187 10.4596C56.7067 10.4596 57.3443 10.637 57.8368 10.9918C58.3241 11.3466 58.5729 11.8461 58.5729 12.4856V14.4976C58.5729 14.6704 58.6144 14.8011 58.6922 14.8898C58.7699 14.9785 58.8788 15.0251 59.0239 15.0251C59.1172 15.0251 59.195 15.0158 59.2624 14.9925L59.3246 15.0578V16.1315C59.0758 16.2062 58.7907 16.2435 58.4641 16.2435C57.7902 16.2435 57.3288 15.9915 57.0696 15.4826H56.9815C56.6912 15.7534 56.3905 15.9541 56.0846 16.0895C55.7788 16.2249 55.4263 16.2902 55.0271 16.2902C54.6642 16.2902 54.3376 16.2202 54.0318 16.0848ZM56.209 14.8991C56.4371 14.7637 56.6704 14.5583 56.9141 14.2829V13.634L55.5455 13.7927C55.2552 13.8207 55.0323 13.9001 54.882 14.0261C54.7264 14.1522 54.6539 14.3109 54.6539 14.4976C54.6539 14.6844 54.7264 14.8337 54.8716 14.9411C55.0167 15.0485 55.2034 15.1045 55.4263 15.1045C55.7166 15.1045 55.981 15.0345 56.209 14.8991ZM60.434 10.5763H62.1758V11.2392C62.6631 10.7257 63.28 10.4643 64.0161 10.4643C64.7522 10.4643 65.2706 10.7257 65.5713 11.2486C66.1259 10.7257 66.7895 10.4643 67.5619 10.4643C68.1995 10.4643 68.692 10.623 69.0445 10.9451C69.3918 11.2672 69.5681 11.706 69.5681 12.2662V16.1782H67.8263V12.6163C67.8263 12.0795 67.5619 11.8087 67.028 11.8087C66.5458 11.8087 66.1571 12.0422 65.8564 12.5136V16.1782H64.1146V12.6257C64.1146 12.0795 63.8554 11.8087 63.3422 11.8087C63.1037 11.8087 62.8756 11.8788 62.6682 12.0235C62.4609 12.1635 62.295 12.3503 62.1706 12.5743V16.1829H60.434V10.5763ZM71.7505 16.0848C71.4499 15.9448 71.2062 15.7487 71.03 15.492C70.8537 15.2352 70.7604 14.9318 70.7604 14.591C70.7604 14.0822 70.9574 13.676 71.3462 13.3633C71.735 13.0552 72.2689 12.8684 72.9532 12.8077L74.6328 12.649V12.4016C74.6328 12.1495 74.5447 11.9488 74.3632 11.8087C74.187 11.6687 73.933 11.594 73.6116 11.594C73.3213 11.594 73.088 11.664 72.9169 11.7994C72.7407 11.9395 72.637 12.1262 72.5955 12.3643L71.1285 12.2522L71.0662 12.1869C71.1907 11.6267 71.4862 11.1972 71.9475 10.9031C72.4141 10.609 72.9739 10.4596 73.6375 10.4596C74.4254 10.4596 75.0631 10.637 75.5556 10.9918C76.0428 11.3466 76.2917 11.8461 76.2917 12.4856V14.4976C76.2917 14.6704 76.3332 14.8011 76.4109 14.8898C76.4887 14.9785 76.5975 15.0251 76.7427 15.0251C76.836 15.0251 76.9138 15.0158 76.9811 14.9925L77.0433 15.0578V16.1315C76.7945 16.2062 76.5094 16.2435 76.1828 16.2435C75.5089 16.2435 75.0475 15.9915 74.7883 15.4826H74.7002C74.4099 15.7534 74.1092 15.9541 73.8034 16.0895C73.4975 16.2249 73.145 16.2902 72.7459 16.2902C72.383 16.2902 72.0512 16.2202 71.7505 16.0848ZM73.9278 14.8991C74.1559 14.7637 74.3892 14.5583 74.6328 14.2829V13.634L73.2642 13.7927C72.9739 13.8207 72.751 13.9001 72.6007 14.0261C72.4452 14.1522 72.3726 14.3109 72.3726 14.4976C72.3726 14.6844 72.4452 14.8337 72.5903 14.9411C72.7355 15.0485 72.9221 15.1045 73.145 15.1045C73.4353 15.1045 73.6997 15.0345 73.9278 14.8991ZM79.3891 9.78986V8.33337H85.672V9.78986H83.4844V16.176H81.5819V9.78986H79.3891ZM85.9675 10.5741H87.7093V11.2463C87.9322 11.0083 88.1914 10.8169 88.4817 10.6768C88.772 10.5368 89.0934 10.4621 89.4408 10.4621C89.6896 10.4621 89.8866 10.4901 90.0369 10.5508L89.814 11.7832L89.7259 11.8625C89.56 11.8252 89.42 11.8065 89.3008 11.8065C88.9587 11.8065 88.6528 11.8906 88.3781 12.0633C88.1033 12.236 87.8804 12.4834 87.7041 12.8149V16.176H85.9623L85.9675 10.5741ZM92.0846 15.9239C91.5973 15.6811 91.2189 15.3404 90.9441 14.8969C90.6694 14.4581 90.5346 13.9492 90.5346 13.375C90.5346 12.8055 90.6797 12.3014 90.9752 11.8625C91.2707 11.4237 91.6595 11.0783 92.152 10.8309C92.6393 10.5835 93.168 10.4621 93.7331 10.4621C94.3448 10.4621 94.8891 10.5788 95.3608 10.8075C95.8326 11.0409 96.2006 11.3724 96.4598 11.8065C96.719 12.2407 96.8538 12.7495 96.8538 13.3424V13.7578H92.1779C92.2194 14.1453 92.3853 14.4534 92.6704 14.6821C92.9555 14.9109 93.3235 15.0229 93.7694 15.0229C94.4848 15.0229 94.9565 14.7335 95.1898 14.1593L96.6465 14.2947L96.7346 14.4301C96.5013 15.0509 96.1333 15.5131 95.62 15.8259C95.1068 16.1386 94.4796 16.2927 93.7331 16.2927C93.1214 16.288 92.5719 16.1666 92.0846 15.9239ZM95.2157 12.7495C95.1742 12.4134 95.0187 12.1426 94.7439 11.9419C94.4692 11.7412 94.1322 11.6385 93.7227 11.6385C93.3598 11.6385 93.0384 11.7412 92.7585 11.9419C92.4786 12.1426 92.3023 12.4134 92.2297 12.7495H95.2157ZM98.7148 16.0826C98.4142 15.9426 98.1705 15.7465 97.9943 15.4897C97.818 15.233 97.7247 14.9296 97.7247 14.5888C97.7247 14.0799 97.9217 13.6738 98.3105 13.361C98.6993 13.0529 99.2332 12.8662 99.9175 12.8055L101.597 12.6468V12.3994C101.597 12.1473 101.509 11.9466 101.328 11.8065C101.151 11.6665 100.897 11.5918 100.576 11.5918C100.286 11.5918 100.052 11.6618 99.8812 11.7972C99.705 11.9372 99.6013 12.124 99.5598 12.362L98.0928 12.25L98.0306 12.1846C98.155 11.6245 98.4505 11.195 98.9118 10.9009C99.3732 10.6068 99.9383 10.4574 100.602 10.4574C101.39 10.4574 102.027 10.6348 102.52 10.9896C103.007 11.3444 103.256 11.8439 103.256 12.4834V14.4907C103.256 14.6635 103.297 14.7942 103.375 14.8829C103.453 14.9716 103.562 15.0183 103.707 15.0183C103.8 15.0183 103.878 15.0089 103.945 14.9856L104.008 15.0509V16.1246C103.759 16.1993 103.474 16.2367 103.147 16.2367C102.473 16.2367 102.012 15.9846 101.753 15.4757H101.665C101.374 15.7465 101.074 15.9472 100.768 16.0826C100.462 16.218 100.109 16.2833 99.7102 16.2833C99.3473 16.288 99.0207 16.218 98.7148 16.0826ZM100.892 14.8969C101.12 14.7615 101.353 14.5561 101.597 14.2807V13.6318L100.229 13.7905C99.9383 13.8185 99.7154 13.8979 99.565 14.0239C99.4095 14.15 99.3369 14.3087 99.3369 14.4954C99.3369 14.6821 99.4095 14.8315 99.5547 14.9389C99.6998 15.0463 99.8864 15.1023 100.109 15.1023C100.4 15.1023 100.664 15.0323 100.892 14.8969ZM105.589 15.8585C105.122 15.5691 104.811 15.1676 104.656 14.6448L104.707 14.5001L106.04 14.1406C106.19 14.7662 106.636 15.0836 107.382 15.0836C107.642 15.0836 107.849 15.0369 108.015 14.9389C108.181 14.8409 108.264 14.7055 108.264 14.5374C108.264 14.36 108.17 14.22 107.984 14.1173C107.797 14.0146 107.434 13.9026 106.895 13.7765C106.242 13.6365 105.744 13.4264 105.413 13.1556C105.081 12.8849 104.915 12.5208 104.915 12.0726C104.915 11.7738 105.008 11.5031 105.195 11.2603C105.381 11.0176 105.646 10.8262 105.983 10.6815C106.325 10.5414 106.714 10.4667 107.154 10.4667C107.808 10.4667 108.347 10.5975 108.767 10.8542C109.186 11.111 109.456 11.4751 109.58 11.9466L109.508 12.0679L108.191 12.3574C108.134 12.096 108.01 11.8952 107.818 11.7598C107.626 11.6245 107.393 11.5544 107.123 11.5544C106.916 11.5544 106.74 11.5918 106.6 11.6711C106.46 11.7505 106.387 11.8579 106.387 11.9886C106.387 12.152 106.501 12.2873 106.734 12.3901C106.968 12.4928 107.388 12.6235 108.004 12.7728C108.642 12.9316 109.114 13.137 109.415 13.389C109.715 13.6411 109.871 13.9959 109.871 14.4441C109.871 14.7895 109.767 15.1023 109.565 15.387C109.363 15.6718 109.072 15.8912 108.694 16.0546C108.316 16.2133 107.88 16.2973 107.382 16.2973C106.651 16.288 106.055 16.1433 105.589 15.8585ZM111.597 15.7372C111.208 15.373 111.011 14.8829 111.011 14.2713V10.5741H112.753V13.9446C112.753 14.2667 112.846 14.5141 113.028 14.6821C113.209 14.8549 113.468 14.9389 113.8 14.9389C114.101 14.9389 114.37 14.8642 114.619 14.7101C114.868 14.5561 115.07 14.3554 115.231 14.0986V10.5694H116.973V16.1713H115.231V15.4757C114.676 16.0126 113.997 16.2833 113.204 16.2833C112.525 16.288 111.991 16.1059 111.597 15.7372ZM118.518 10.5741H120.259V11.2463C120.482 11.0083 120.741 10.8169 121.032 10.6768C121.322 10.5368 121.643 10.4621 121.991 10.4621C122.24 10.4621 122.437 10.4901 122.587 10.5508L122.364 11.7832L122.276 11.8625C122.11 11.8252 121.97 11.8065 121.851 11.8065C121.509 11.8065 121.203 11.8906 120.928 12.0633C120.653 12.236 120.43 12.4834 120.254 12.8149V16.176H118.512L118.518 10.5741ZM125.718 16.0313L123.157 10.5741H125.148L126.418 13.3657L126.48 14.1826H126.579L128.16 10.5741H130L126.465 18.4167H124.65L125.718 16.0313Z" fill="black"/>
</svg>
