<svg width="16" height="16" viewBox="0 0 16 16" fill="none" xmlns="http://www.w3.org/2000/svg">
<path d="M11.182 8.00013C11.1355 8.04655 11.0986 8.10167 11.0735 8.16235C11.0483 8.22302 11.0354 8.28806 11.0353 8.35375C11.0353 8.41944 11.0483 8.48448 11.0734 8.54517C11.0985 8.60586 11.1354 8.661 11.1818 8.70744C11.2283 8.75388 11.2834 8.79072 11.3441 8.81584C11.4048 8.84096 11.4698 8.85388 11.5355 8.85385C11.6012 8.85383 11.6663 8.84086 11.7269 8.81569C11.7876 8.79052 11.8427 8.75364 11.8891 8.70716L13.1265 7.46973C13.4284 7.16797 13.6679 6.8097 13.8313 6.41537C13.9948 6.02104 14.0789 5.59837 14.079 5.17152C14.079 4.74467 13.995 4.32198 13.8317 3.92761C13.6683 3.53324 13.4289 3.1749 13.1271 2.87306C12.8253 2.57123 12.4669 2.33181 12.0726 2.16847C11.6782 2.00514 11.2555 1.9211 10.8287 1.92114C10.4018 1.92119 9.97914 2.00532 9.58481 2.16873C9.19047 2.33215 8.83219 2.57164 8.53042 2.87354L7.29293 4.11096C7.19925 4.20474 7.14665 4.33188 7.14668 4.46443C7.1467 4.59699 7.19937 4.7241 7.29309 4.81784C7.38681 4.91157 7.51391 4.96426 7.64647 4.96431C7.77902 4.96436 7.90617 4.91178 7.99996 4.81812L9.23751 3.58063C9.44641 3.37153 9.69446 3.20563 9.96748 3.09243C10.2405 2.97922 10.5332 2.92091 10.8287 2.92084C11.1243 2.92077 11.417 2.97894 11.6901 3.09202C11.9632 3.2051 12.2113 3.37087 12.4203 3.57988C12.6293 3.78888 12.795 4.03701 12.9081 4.3101C13.0212 4.58318 13.0793 4.87587 13.0792 5.17144C13.0792 5.46701 13.0209 5.75966 12.9076 6.03269C12.7944 6.30571 12.6285 6.55375 12.4194 6.76264L11.182 8.00013Z" fill="#1D253C"/>
<path d="M8.00006 11.1819L6.76252 12.4194C6.5536 12.6284 6.30556 12.7942 6.03255 12.9074C5.75955 13.0205 5.46693 13.0788 5.17141 13.0788C4.87589 13.0788 4.58326 13.0206 4.31023 12.9076C4.0372 12.7945 3.78912 12.6287 3.58016 12.4198C3.3712 12.2108 3.20545 11.9627 3.09238 11.6897C2.97932 11.4166 2.92114 11.124 2.92119 10.8285C2.92123 10.533 2.97949 10.2403 3.09264 9.96734C3.20579 9.69434 3.37161 9.4463 3.58063 9.2374L4.81806 7.99991C4.91182 7.90613 4.96448 7.77895 4.96447 7.64635C4.96446 7.51374 4.91177 7.38657 4.818 7.29281C4.72422 7.19906 4.59704 7.14639 4.46444 7.1464C4.33183 7.14641 4.20466 7.1991 4.1109 7.29288L2.87354 8.5303C2.57163 8.83206 2.33213 9.19034 2.1687 9.58467C2.00528 9.979 1.92114 10.4017 1.92108 10.8285C1.92103 11.2554 2.00506 11.6781 2.16838 12.0724C2.3317 12.4668 2.57111 12.8251 2.87294 13.127C3.17477 13.4288 3.5331 13.6682 3.92747 13.8316C4.32184 13.9949 4.74452 14.0789 5.17137 14.0789C5.59823 14.0788 6.02089 13.9947 6.41523 13.8313C6.80956 13.6679 7.16784 13.4284 7.46961 13.1265L8.7071 11.8891C8.80077 11.7953 8.85338 11.6682 8.85335 11.5356C8.85332 11.403 8.80066 11.2759 8.70694 11.1822C8.61322 11.0885 8.48611 11.0358 8.35356 11.0357C8.22101 11.0357 8.09386 11.0883 8.00006 11.1819Z" fill="#1D253C"/>
<path d="M5.87865 4.96457C6.01126 4.96457 6.13843 4.91189 6.2322 4.81812C6.32596 4.72435 6.37865 4.59718 6.37865 4.46457V3.05033C6.37865 2.91772 6.32597 2.79054 6.23221 2.69677C6.13844 2.60301 6.01126 2.55033 5.87865 2.55033C5.74604 2.55033 5.61887 2.60301 5.5251 2.69677C5.43133 2.79054 5.37865 2.91772 5.37865 3.05033V4.46457C5.37866 4.59718 5.43134 4.72435 5.52511 4.81812C5.61887 4.91189 5.74605 4.96457 5.87865 4.96457Z" fill="#1D253C"/>
<path d="M3.05021 6.37876H4.46446C4.59706 6.37876 4.72424 6.32608 4.81801 6.23231C4.91178 6.13854 4.96445 6.01137 4.96445 5.87876C4.96445 5.74615 4.91178 5.61897 4.81801 5.5252C4.72424 5.43144 4.59706 5.37876 4.46446 5.37876H3.05021C2.9176 5.37876 2.79043 5.43144 2.69666 5.5252C2.60289 5.61897 2.55021 5.74615 2.55021 5.87876C2.55021 6.01137 2.60289 6.13854 2.69666 6.23231C2.79043 6.32608 2.9176 6.37876 3.05021 6.37876Z" fill="#1D253C"/>
<path d="M12.9497 9.62143H11.5355C11.4029 9.62143 11.2757 9.67411 11.182 9.76788C11.0882 9.86164 11.0355 9.98882 11.0355 10.1214C11.0355 10.254 11.0882 10.3812 11.182 10.475C11.2757 10.5688 11.4029 10.6214 11.5355 10.6214H12.9497C13.0824 10.6214 13.2095 10.5688 13.3033 10.475C13.3971 10.3812 13.4497 10.254 13.4497 10.1214C13.4497 9.98882 13.3971 9.86164 13.3033 9.76788C13.2095 9.67411 13.0824 9.62143 12.9497 9.62143Z" fill="#1D253C"/>
<path d="M10.1213 11.0356C9.98871 11.0356 9.86154 11.0883 9.76777 11.1821C9.67401 11.2758 9.62133 11.403 9.62132 11.5356V12.9499C9.62132 13.0825 9.674 13.2096 9.76777 13.3034C9.86154 13.3972 9.98871 13.4499 10.1213 13.4499C10.2539 13.4499 10.3811 13.3972 10.4749 13.3034C10.5686 13.2096 10.6213 13.0825 10.6213 12.9499V11.5356C10.6213 11.403 10.5686 11.2758 10.4749 11.1821C10.3811 11.0883 10.2539 11.0356 10.1213 11.0356Z" fill="#1D253C"/>
</svg>
