<svg width="20" height="20" viewBox="0 0 20 20" fill="none" xmlns="http://www.w3.org/2000/svg">
<path d="M9.57816 5.78069L11.0548 4.30404C11.3595 3.99908 11.7213 3.75714 12.1195 3.59203C12.5177 3.42693 12.9445 3.3419 13.3756 3.3418C13.8067 3.3417 14.2335 3.42653 14.6318 3.59145C15.0301 3.75637 15.392 3.99814 15.6968 4.30296C16.0016 4.60778 16.2434 4.96966 16.4083 5.36795C16.5732 5.76623 16.6581 6.1931 16.658 6.62418C16.6579 7.05525 16.5728 7.48208 16.4077 7.88029C16.2426 8.27849 16.0007 8.64027 15.6957 8.94494L13.5862 11.0544C13.2815 11.3592 12.9197 11.6009 12.5216 11.7658C12.1234 11.9307 11.6967 12.0156 11.2658 12.0156C10.8348 12.0156 10.4081 11.9307 10.0099 11.7658C9.6118 11.6009 9.25004 11.3592 8.94531 11.0544" stroke="white" stroke-opacity="0.9" stroke-width="1.2" stroke-linecap="round" stroke-linejoin="round"/>
<path d="M10.4221 14.2193L8.94543 15.6959C8.64075 16.0009 8.27898 16.2428 7.88077 16.4079C7.48257 16.5731 7.05574 16.6581 6.62466 16.6582C6.19359 16.6583 5.76671 16.5735 5.36843 16.4085C4.97015 16.2436 4.60826 16.0018 4.30345 15.697C3.99863 15.3922 3.75686 15.0303 3.59194 14.632C3.42702 14.2338 3.34218 13.8069 3.34229 13.3758C3.34239 12.9447 3.42742 12.5179 3.59252 12.1197C3.75763 11.7215 3.99957 11.3597 4.30453 11.055L6.41403 8.94554C6.71875 8.64081 7.08052 8.39909 7.47866 8.23417C7.8768 8.06926 8.30353 7.98438 8.73448 7.98438C9.16543 7.98438 9.59215 8.06926 9.9903 8.23417C10.3884 8.39909 10.7502 8.64081 11.0549 8.94554" stroke="white" stroke-opacity="0.9" stroke-width="1.2" stroke-linecap="round" stroke-linejoin="round"/>
</svg>
