<svg width="24" height="24" viewBox="0 0 24 24" fill="none" xmlns="http://www.w3.org/2000/svg">
<path fill-rule="evenodd" clip-rule="evenodd" d="M3.64953 15.8521C3.1001 14.6759 2.7932 13.3636 2.7932 11.9797C2.7932 6.92046 6.89454 2.81915 11.9538 2.81915C14.7709 2.81915 17.2908 4.09083 18.9712 6.09135L19.9738 5.25017C18.0533 2.96383 15.1734 1.51048 11.9538 1.51048C6.1718 1.51048 1.48456 6.19772 1.48456 11.9797C1.48456 13.5613 1.83528 15.061 2.4632 16.4052L3.64953 15.8521Z" fill="white"/>
<path fill-rule="evenodd" clip-rule="evenodd" d="M11.9535 18.1959C8.52048 18.1959 5.73744 15.4127 5.73744 11.9797C5.73744 8.54667 8.52048 5.7636 11.9535 5.7636C13.8652 5.7636 15.5748 6.62676 16.7151 7.98426L17.7179 7.14285C16.3376 5.49957 14.2675 4.45496 11.9535 4.45496C7.79772 4.45496 4.42877 7.8239 4.42877 11.9797C4.42877 16.1356 7.79772 19.5045 11.9535 19.5045V18.1959Z" fill="white"/>
<path fill-rule="evenodd" clip-rule="evenodd" d="M14.2093 13.8723C13.6693 14.5152 12.8593 14.9241 11.9538 14.9241C10.3276 14.9241 9.00935 13.6059 9.00935 11.9796C9.00935 10.3534 10.3276 9.03515 11.9538 9.03515C12.8593 9.03515 13.6693 9.44402 14.2093 10.087L15.337 9.14075C14.5269 8.17621 13.3121 7.56291 11.9538 7.56291C9.51454 7.56291 7.53711 9.54034 7.53711 11.9796C7.53711 14.4189 9.51454 16.3964 11.9538 16.3964C13.1986 16.3964 14.3226 15.881 15.1254 15.0525L14.2093 13.8723Z" fill="white"/>
</svg>
