<svg width="163" height="36" viewBox="0 0 163 36" fill="none" xmlns="http://www.w3.org/2000/svg">
<path d="M57.8105 9.72449V24.75H54.7956V23.4945C54.0132 24.4395 52.8801 24.912 51.3962 24.912C50.371 24.912 49.4402 24.6825 48.6038 24.2235C47.781 23.7645 47.1335 23.1097 46.6613 22.2592C46.1892 21.4087 45.9531 20.4232 45.9531 19.3027C45.9531 18.1822 46.1892 17.1967 46.6613 16.3462C47.1335 15.4957 47.781 14.841 48.6038 14.382C49.4402 13.923 50.371 13.6935 51.3962 13.6935C52.7856 13.6935 53.8716 14.1322 54.654 15.0097V9.72449H57.8105ZM51.9425 22.32C52.7384 22.32 53.3994 22.05 53.9255 21.51C54.4516 20.9565 54.7147 20.2207 54.7147 19.3027C54.7147 18.3847 54.4516 17.6557 53.9255 17.1157C53.3994 16.5622 52.7384 16.2855 51.9425 16.2855C51.1332 16.2855 50.4654 16.5622 49.9393 17.1157C49.4132 17.6557 49.1502 18.3847 49.1502 19.3027C49.1502 20.2207 49.4132 20.9565 49.9393 21.51C50.4654 22.05 51.1332 22.32 51.9425 22.32Z" fill="black" fill-opacity="0.9"/>
<path d="M65.9121 24.912C64.7654 24.912 63.7335 24.6757 62.8162 24.2032C61.9124 23.7172 61.2042 23.049 60.6916 22.1985C60.179 21.348 59.9227 20.3827 59.9227 19.3027C59.9227 18.2227 60.179 17.2575 60.6916 16.407C61.2042 15.5565 61.9124 14.895 62.8162 14.4225C63.7335 13.9365 64.7654 13.6935 65.9121 13.6935C67.0587 13.6935 68.0839 13.9365 68.9877 14.4225C69.8915 14.895 70.5997 15.5565 71.1123 16.407C71.6249 17.2575 71.8812 18.2227 71.8812 19.3027C71.8812 20.3827 71.6249 21.348 71.1123 22.1985C70.5997 23.049 69.8915 23.7172 68.9877 24.2032C68.0839 24.6757 67.0587 24.912 65.9121 24.912ZM65.9121 22.32C66.7214 22.32 67.3824 22.05 67.895 21.51C68.4211 20.9565 68.6842 20.2207 68.6842 19.3027C68.6842 18.3847 68.4211 17.6557 67.895 17.1157C67.3824 16.5622 66.7214 16.2855 65.9121 16.2855C65.1027 16.2855 64.4349 16.5622 63.9089 17.1157C63.3828 17.6557 63.1197 18.3847 63.1197 19.3027C63.1197 20.2207 63.3828 20.9565 63.9089 21.51C64.4349 22.05 65.1027 22.32 65.9121 22.32Z" fill="black" fill-opacity="0.9"/>
<path d="M75.804 13.248H71.2715V10.575H83.6146V13.248H79.082V24.75H75.804V13.248Z" fill="black" fill-opacity="0.9"/>
<path d="M87.9335 15.2932C88.3112 14.7667 88.8171 14.3685 89.4511 14.0985C90.0986 13.8285 90.8405 13.6935 91.6769 13.6935V16.6095C91.3262 16.5825 91.0901 16.569 90.9687 16.569C90.0649 16.569 89.3567 16.8255 88.8441 17.3385C88.3314 17.838 88.0751 18.594 88.0751 19.6065V24.75H84.9186V13.8555H87.9335V15.2932Z" fill="black" fill-opacity="0.9"/>
<path d="M104.119 19.3432C104.119 19.3837 104.098 19.6672 104.058 20.1937H95.8224C95.9708 20.8687 96.3215 21.402 96.8746 21.7935C97.4277 22.185 98.1157 22.3807 98.9385 22.3807C99.5051 22.3807 100.004 22.2997 100.436 22.1377C100.881 21.9622 101.292 21.6922 101.67 21.3277L103.35 23.1502C102.324 24.3247 100.827 24.912 98.8576 24.912C97.63 24.912 96.5441 24.6757 95.5998 24.2032C94.6556 23.7172 93.9271 23.049 93.4145 22.1985C92.9019 21.348 92.6456 20.3827 92.6456 19.3027C92.6456 18.2362 92.8952 17.2777 93.3943 16.4272C93.9069 15.5632 94.6016 14.895 95.4784 14.4225C96.3688 13.9365 97.3602 13.6935 98.4529 13.6935C99.5186 13.6935 100.483 13.923 101.346 14.382C102.21 14.841 102.884 15.5025 103.37 16.3665C103.869 17.217 104.119 18.2092 104.119 19.3432ZM98.4731 16.083C97.7582 16.083 97.1579 16.2855 96.6723 16.6905C96.1866 17.0955 95.8899 17.649 95.782 18.351H101.144C101.036 17.6625 100.739 17.1157 100.254 16.7107C99.7682 16.2922 99.1746 16.083 98.4731 16.083Z" fill="black" fill-opacity="0.9"/>
<path d="M110.315 13.6935C112.001 13.6935 113.296 14.0985 114.2 14.9085C115.103 15.705 115.555 16.9132 115.555 18.5332V24.75H112.601V23.3932C112.008 24.4057 110.901 24.912 109.283 24.912C108.446 24.912 107.718 24.7702 107.097 24.4867C106.49 24.2032 106.025 23.8117 105.701 23.3122C105.377 22.8127 105.215 22.2457 105.215 21.6112C105.215 20.5987 105.593 19.8022 106.349 19.2217C107.118 18.6412 108.298 18.351 109.89 18.351H112.399C112.399 17.6625 112.19 17.136 111.771 16.7715C111.353 16.3935 110.726 16.2045 109.89 16.2045C109.31 16.2045 108.736 16.299 108.17 16.488C107.617 16.6635 107.145 16.9065 106.753 17.217L105.62 15.0097C106.214 14.5912 106.922 14.2672 107.745 14.0377C108.581 13.8082 109.438 13.6935 110.315 13.6935ZM110.072 22.7857C110.611 22.7857 111.09 22.6642 111.508 22.4212C111.927 22.1647 112.223 21.7935 112.399 21.3075V20.1937H110.234C108.939 20.1937 108.291 20.619 108.291 21.4695C108.291 21.8745 108.446 22.1985 108.757 22.4415C109.08 22.671 109.519 22.7857 110.072 22.7857Z" fill="black" fill-opacity="0.9"/>
<path d="M122.075 24.912C121.171 24.912 120.287 24.804 119.424 24.588C118.561 24.3585 117.873 24.075 117.36 23.7375L118.412 21.4695C118.898 21.78 119.485 22.0365 120.173 22.239C120.861 22.428 121.535 22.5225 122.196 22.5225C123.531 22.5225 124.199 22.1917 124.199 21.5302C124.199 21.2197 124.017 20.997 123.653 20.862C123.289 20.727 122.729 20.6122 121.973 20.5177C121.083 20.3827 120.348 20.2275 119.768 20.052C119.188 19.8765 118.682 19.566 118.25 19.1205C117.832 18.675 117.623 18.0405 117.623 17.217C117.623 16.5285 117.819 15.921 118.21 15.3945C118.615 14.8545 119.195 14.436 119.95 14.139C120.719 13.842 121.623 13.6935 122.661 13.6935C123.43 13.6935 124.192 13.7812 124.948 13.9567C125.717 14.1187 126.351 14.3482 126.85 14.6452L125.798 16.893C124.84 16.353 123.795 16.083 122.661 16.083C121.987 16.083 121.481 16.1775 121.144 16.3665C120.807 16.5555 120.638 16.7985 120.638 17.0955C120.638 17.433 120.82 17.6692 121.184 17.8042C121.549 17.9392 122.129 18.0675 122.924 18.189C123.815 18.3375 124.543 18.4995 125.11 18.675C125.676 18.837 126.169 19.1407 126.587 19.5862C127.005 20.0317 127.214 20.6527 127.214 21.4492C127.214 22.1242 127.012 22.725 126.607 23.2515C126.202 23.778 125.609 24.1897 124.826 24.4867C124.058 24.7702 123.14 24.912 122.075 24.912Z" fill="black" fill-opacity="0.9"/>
<path d="M140.129 13.8555V24.75H137.134V23.454C136.716 23.9265 136.217 24.291 135.637 24.5475C135.057 24.7905 134.429 24.912 133.755 24.912C132.325 24.912 131.192 24.5002 130.356 23.6767C129.519 22.8532 129.101 21.6315 129.101 20.0115V13.8555H132.258V19.5457C132.258 21.3007 132.993 22.1782 134.463 22.1782C135.219 22.1782 135.826 21.9352 136.284 21.4492C136.743 20.9497 136.972 20.214 136.972 19.242V13.8555H140.129Z" fill="black" fill-opacity="0.9"/>
<path d="M146.068 15.2932C146.446 14.7667 146.952 14.3685 147.586 14.0985C148.233 13.8285 148.975 13.6935 149.811 13.6935V16.6095C149.461 16.5825 149.225 16.569 149.103 16.569C148.199 16.569 147.491 16.8255 146.979 17.3385C146.466 17.838 146.21 18.594 146.21 19.6065V24.75H143.053V13.8555H146.068V15.2932Z" fill="black" fill-opacity="0.9"/>
<path d="M162.869 13.8555L157.952 25.4182C157.453 26.6737 156.832 27.558 156.09 28.071C155.362 28.584 154.478 28.8405 153.44 28.8405C152.873 28.8405 152.313 28.7527 151.76 28.5772C151.207 28.4017 150.755 28.1587 150.405 27.8482L151.558 25.6005C151.801 25.8165 152.077 25.9852 152.388 26.1067C152.711 26.2282 153.028 26.289 153.339 26.289C153.77 26.289 154.121 26.181 154.391 25.965C154.661 25.7625 154.903 25.4182 155.119 24.9322L155.16 24.831L150.445 13.8555H153.703L156.758 21.2467L159.834 13.8555H162.869Z" fill="black" fill-opacity="0.9"/>
<g clip-path="url(#clip0)">
<path d="M9.2576 6.88235C9.2576 4.32397 7.18522 2.25 4.6288 2.25C2.07238 2.25 0 4.32397 0 6.88235C0 9.44073 2.07238 11.5147 4.6288 11.5147C7.18522 11.5147 9.2576 9.44073 9.2576 6.88235Z" fill="#F23252"/>
<path d="M29.2276 2.25H24.4665C23.2248 2.25 22.2183 3.25736 22.2183 4.5V9.2647C22.2183 10.5073 23.2248 11.5147 24.4665 11.5147H29.2276C30.4693 11.5147 31.4759 10.5073 31.4759 9.2647V4.5C31.4759 3.25736 30.4693 2.25 29.2276 2.25Z" fill="#F2B12F"/>
<path d="M20.3668 18C20.3668 15.4416 18.2944 13.3676 15.738 13.3676C13.1816 13.3676 11.1092 15.4416 11.1092 18C11.1092 20.5583 13.1816 22.6323 15.738 22.6323C18.2944 22.6323 20.3668 20.5583 20.3668 18Z" fill="#F23252"/>
<path d="M7.00933 13.3676H2.24828C1.00659 13.3676 0 14.375 0 15.6176V20.3823C0 21.625 1.00659 22.6323 2.24828 22.6323H7.00933C8.25101 22.6323 9.2576 21.625 9.2576 20.3823V15.6176C9.2576 14.375 8.25101 13.3676 7.00933 13.3676Z" fill="#F2B12F"/>
<path d="M7.00933 24.4852H2.24828C1.00659 24.4852 0 25.4925 0 26.7352V31.4999C0 32.7425 1.00659 33.7499 2.24828 33.7499H7.00933C8.25101 33.7499 9.2576 32.7425 9.2576 31.4999V26.7352C9.2576 25.4925 8.25101 24.4852 7.00933 24.4852Z" fill="#F2B12F"/>
<path d="M18.1185 24.4852H13.3575C12.1158 24.4852 11.1092 25.4925 11.1092 26.7352V31.4999C11.1092 32.7425 12.1158 33.7499 13.3575 33.7499H18.1185C19.3602 33.7499 20.3668 32.7425 20.3668 31.4999V26.7352C20.3668 25.4925 19.3602 24.4852 18.1185 24.4852Z" fill="#F2B12F"/>
<path d="M31.4759 29.1175C31.4759 26.5591 29.4035 24.4852 26.8471 24.4852C24.2906 24.4852 22.2183 26.5591 22.2183 29.1175C22.2183 31.6759 24.2906 33.7499 26.8471 33.7499C29.4035 33.7499 31.4759 31.6759 31.4759 29.1175Z" fill="#F23252"/>
</g>
<defs>
<clipPath id="clip0">
<rect width="31.4759" height="31.5" fill="white" transform="translate(0 2.25)"/>
</clipPath>
</defs>
</svg>
