<svg width="24" height="24" viewBox="0 0 24 24" fill="none" xmlns="http://www.w3.org/2000/svg">
<path fill-rule="evenodd" clip-rule="evenodd" d="M18.2104 5.3339L16.0254 9.29289H14.0701L17.2327 3.56018L18.2104 5.3339ZM14.6627 3.2417H16.618L13.4554 8.9744L12.4777 7.20069L14.6627 3.2417ZM12.7962 9.48044L11.7914 11.2038L8.33741 5.28353L9.34216 3.56018L12.7962 9.48044ZM5.47106 5.29955L6.6964 3.2417H8.72779L7.50606 5.29955L11.2038 11.5223H9.17238L5.47106 5.29955ZM2.95282 9.92985H7.35234L8.33741 11.5223H1.96774L2.95282 9.92985ZM2.95282 14.0701L1.96774 12.4777H8.33741L7.35234 14.0701H2.95282ZM9.21241 12.1592H11.2038L7.7809 18.2104H5.78955L9.21241 12.1592ZM9.17791 20.7583H6.78342L5.78955 19.0418H8.18404L11.8023 12.7962L12.7962 14.5127L9.17791 20.7583ZM14.6627 20.7583L12.4777 16.7993L13.4554 15.0256L16.618 20.7583H14.6627ZM18.2104 18.6661L17.2327 20.4398L14.0701 14.7071H16.0254L18.2104 18.6661ZM13.4887 14.0701L12.4777 12.4777H19.4288L20.4398 14.0701H13.4887ZM19.813 11.6644H19.7807H12.4777L13.4851 9.92985H20.8204L22.0322 12.0171L21.0248 13.7517L19.813 11.6644Z" fill="#FF3B80"/>
</svg>
