<svg width="20" height="20" viewBox="0 0 20 20" fill="none" xmlns="http://www.w3.org/2000/svg">
<g clip-path="url(#clip0_125_9180)">
<path d="M11.1178 10C11.1178 12.7614 8.90882 15 6.18389 15C3.45897 15 1.25 12.7614 1.25 10C1.25 7.23857 3.45897 5 6.18389 5C8.90882 5 11.1178 7.23857 11.1178 10Z" fill="black"/>
<path d="M16.5029 10C16.5029 12.597 15.3984 14.7024 14.0359 14.7024C12.6735 14.7024 11.569 12.597 11.569 10C11.569 7.40295 12.6735 5.29765 14.0359 5.29765C15.3984 5.29765 16.5029 7.40295 16.5029 10Z" fill="black"/>
<path d="M17.852 14.2285C18.3479 14.2285 18.75 12.3354 18.75 10C18.75 7.66459 18.3479 5.77128 17.852 5.77128C17.356 5.77128 16.954 7.66459 16.954 10C16.954 12.3354 17.356 14.2285 17.852 14.2285Z" fill="black"/>
</g>
<defs>
<clipPath id="clip0_125_9180">
<rect width="20" height="20" fill="white"/>
</clipPath>
</defs>
</svg>
