<svg width="14" height="13" viewBox="0 0 14 13" fill="none" xmlns="http://www.w3.org/2000/svg">
<path d="M13.3636 7.86292H11.4545V0H13.3636C13.5324 0 13.6943 0.0690343 13.8136 0.191916C13.933 0.314798 14 0.481462 14 0.655243V7.20768C14 7.38146 13.933 7.54812 13.8136 7.671C13.6943 7.79389 13.5324 7.86292 13.3636 7.86292ZM9.99536 8.71015L5.92264 12.9037C5.86851 12.9596 5.7966 12.9935 5.72013 12.9992C5.64367 13.0048 5.56779 12.9819 5.50645 12.9345L4.96364 12.5151C4.81288 12.3986 4.69901 12.2387 4.63638 12.0557C4.57376 11.8726 4.56518 11.6745 4.61173 11.4864L5.34545 8.51816H1.27273C0.93518 8.51816 0.611456 8.3801 0.372774 8.13433C0.134091 7.88857 6.77279e-07 7.55524 6.77279e-07 7.20768V5.82905C-0.000170899 5.65779 0.0322586 5.48816 0.0954552 5.32975L2.06564 0.406251C2.11354 0.286179 2.19501 0.183465 2.29969 0.111137C2.40438 0.0388095 2.52757 0.000128081 2.65364 0H9.54545C9.71423 0 9.87609 0.0690343 9.99543 0.191916C10.1148 0.314798 10.1818 0.481462 10.1818 0.655243V8.24689C10.1818 8.42066 10.1147 8.5873 9.99536 8.71015Z" fill="#EC4730"/>
</svg>
