<svg width="24" height="24" viewBox="0 0 24 24" fill="none" xmlns="http://www.w3.org/2000/svg">
<g clip-path="url(#clip0_5569_40327)">
<path d="M4.5 14.5C4.5 13.9477 4.94772 13.5 5.5 13.5H6.5C7.05228 13.5 7.5 13.9477 7.5 14.5V18.5C7.5 19.0523 7.05228 19.5 6.5 19.5H5.5C4.94772 19.5 4.5 19.0523 4.5 18.5V14.5Z" fill="#CCCCCC"/>
<path d="M10.5 10C10.5 9.44772 10.9477 9 11.5 9H12.5C13.0523 9 13.5 9.44772 13.5 10V18.5C13.5 19.0523 13.0523 19.5 12.5 19.5H11.5C10.9477 19.5 10.5 19.0523 10.5 18.5V10Z" fill="#CCCCCC"/>
<path d="M16.5 5.5C16.5 4.94772 16.9477 4.5 17.5 4.5H18.5C19.0523 4.5 19.5 4.94772 19.5 5.5V18.5C19.5 19.0523 19.0523 19.5 18.5 19.5H17.5C16.9477 19.5 16.5 19.0523 16.5 18.5V5.5Z" fill="#CCCCCC"/>
</g>
<defs>
<clipPath id="clip0_5569_40327">
<rect width="24" height="24" fill="white"/>
</clipPath>
</defs>
</svg>
