<svg width="114" height="24" viewBox="0 0 114 24" fill="none" xmlns="http://www.w3.org/2000/svg">
<path d="M17.1829 12L13.7896 10.114L17.8615 7.85072L23.4604 10.9627V13.0373L17.8615 16.1493L13.7896 13.886L17.1829 12Z" fill="white" fill-opacity="0.45"/>
<path d="M9.71769 13.886L6.32442 12L9.71769 10.114L5.64577 7.85072L0.046875 10.9627V13.0373L5.64577 16.1493L9.71769 13.886Z" fill="white" fill-opacity="0.45"/>
<path d="M11.7537 15.772L15.1469 17.6581L11.7537 19.5441L8.36039 17.6581L11.7537 15.772Z" fill="white" fill-opacity="0.45"/>
<path d="M15.1469 6.3419L11.7537 4.45587L8.36039 6.3419L11.7537 8.22793L15.1469 6.3419Z" fill="white" fill-opacity="0.45"/>
<path d="M35.723 16.4228C34.7885 16.4228 33.9441 16.2221 33.1897 15.8207C32.4439 15.4192 31.8566 14.8683 31.428 14.1679C31.0079 13.459 30.7979 12.6647 30.7979 11.785C30.7979 10.9052 31.0079 10.1152 31.428 9.41478C31.8566 8.70586 32.4439 8.15068 33.1897 7.74925C33.9441 7.34781 34.7885 7.14709 35.723 7.14709C36.6574 7.14709 37.4976 7.34781 38.2434 7.74925C38.9893 8.15068 39.5765 8.70586 40.0052 9.41478C40.4338 10.1152 40.6481 10.9052 40.6481 11.785C40.6481 12.6647 40.4338 13.459 40.0052 14.1679C39.5765 14.8683 38.9893 15.4192 38.2434 15.8207C37.4976 16.2221 36.6574 16.4228 35.723 16.4228ZM35.723 14.6548C36.2545 14.6548 36.7346 14.5352 37.1632 14.2961C37.5919 14.0484 37.9262 13.7067 38.1663 13.2711C38.4149 12.8355 38.5392 12.3401 38.5392 11.785C38.5392 11.2298 38.4149 10.7344 38.1663 10.2988C37.9262 9.86319 37.5919 9.52581 37.1632 9.28666C36.7346 9.03897 36.2545 8.91512 35.723 8.91512C35.1915 8.91512 34.7114 9.03897 34.2827 9.28666C33.8541 9.52581 33.5155 9.86319 33.2669 10.2988C33.0268 10.7344 32.9068 11.2298 32.9068 11.785C32.9068 12.3401 33.0268 12.8355 33.2669 13.2711C33.5155 13.7067 33.8541 14.0484 34.2827 14.2961C34.7114 14.5352 35.1915 14.6548 35.723 14.6548Z" fill="white" fill-opacity="0.45"/>
<path d="M46.1616 9.27385C46.8045 9.27385 47.3875 9.42332 47.9105 9.72226C48.442 10.0127 48.8578 10.4269 49.1578 10.965C49.4579 11.4946 49.6079 12.1138 49.6079 12.8227C49.6079 13.5316 49.4579 14.1551 49.1578 14.6932C48.8578 15.2228 48.442 15.637 47.9105 15.936C47.3875 16.2264 46.8045 16.3716 46.1616 16.3716C45.2786 16.3716 44.5842 16.094 44.0784 15.5388V18.7546H42.0723V9.37634H43.9883V10.1707C44.4856 9.57279 45.21 9.27385 46.1616 9.27385ZM45.8144 14.7317C46.3288 14.7317 46.7488 14.5608 47.0746 14.2192C47.4089 13.869 47.5761 13.4035 47.5761 12.8227C47.5761 12.2419 47.4089 11.7807 47.0746 11.439C46.7488 11.0888 46.3288 10.9138 45.8144 10.9138C45.3 10.9138 44.8756 11.0888 44.5413 11.439C44.2155 11.7807 44.0526 12.2419 44.0526 12.8227C44.0526 13.4035 44.2155 13.869 44.5413 14.2192C44.8756 14.5608 45.3 14.7317 45.8144 14.7317Z" fill="white" fill-opacity="0.45"/>
<path d="M57.7277 12.8483C57.7277 12.874 57.7148 13.0533 57.6891 13.3864H52.4553C52.5496 13.8135 52.7725 14.1509 53.124 14.3986C53.4755 14.6462 53.9127 14.7701 54.4357 14.7701C54.7957 14.7701 55.1129 14.7188 55.3873 14.6164C55.6702 14.5053 55.9317 14.3345 56.1717 14.1039L57.239 15.2569C56.5875 16 55.6359 16.3716 54.3842 16.3716C53.6041 16.3716 52.914 16.2221 52.3139 15.9232C51.7138 15.6157 51.2508 15.1929 50.9251 14.6548C50.5993 14.1167 50.4364 13.506 50.4364 12.8227C50.4364 12.148 50.595 11.5415 50.9122 11.0034C51.238 10.4568 51.6795 10.034 52.2367 9.73507C52.8025 9.42759 53.4326 9.27385 54.1271 9.27385C54.8043 9.27385 55.4173 9.41905 55.9659 9.70945C56.5146 9.99985 56.9433 10.4184 57.2519 10.965C57.5691 11.5031 57.7277 12.1309 57.7277 12.8483ZM54.1399 10.7856C53.6855 10.7856 53.3041 10.9138 52.9954 11.17C52.6868 11.4262 52.4982 11.7764 52.4296 12.2206H55.8373C55.7688 11.785 55.5802 11.439 55.2715 11.1828C54.9629 10.918 54.5857 10.7856 54.1399 10.7856Z" fill="white" fill-opacity="0.45"/>
<path d="M63.2683 9.27385C64.1255 9.27385 64.8157 9.53008 65.3386 10.0426C65.8701 10.555 66.1359 11.3152 66.1359 12.323V16.2691H64.1298V12.6305C64.1298 12.0839 64.0098 11.6782 63.7698 11.4134C63.5297 11.1401 63.1825 11.0034 62.7282 11.0034C62.2224 11.0034 61.8194 11.1614 61.5194 11.4775C61.2193 11.785 61.0693 12.2462 61.0693 12.8611V16.2691H59.0632V9.37634H60.9793V10.1835C61.245 9.89308 61.5751 9.67101 61.9695 9.51727C62.3638 9.35499 62.7967 9.27385 63.2683 9.27385Z" fill="white" fill-opacity="0.45"/>
<path d="M71.0534 16.4228C70.3418 16.4228 69.6517 16.3289 68.983 16.141C68.3229 15.9445 67.7914 15.6925 67.3885 15.3851L68.0957 13.822C68.4815 14.1039 68.9402 14.3302 69.4717 14.501C70.0032 14.6719 70.5347 14.7573 71.0663 14.7573C71.6578 14.7573 72.095 14.6719 72.3779 14.501C72.6608 14.3217 72.8023 14.0868 72.8023 13.7964C72.8023 13.5829 72.7165 13.4078 72.5451 13.2711C72.3822 13.1259 72.1679 13.0106 71.9021 12.9252C71.6449 12.8398 71.2934 12.7458 70.8476 12.6433C70.1618 12.4811 69.6003 12.3188 69.1631 12.1565C68.7259 11.9942 68.3486 11.7337 68.0314 11.375C67.7228 11.0162 67.5685 10.5379 67.5685 9.94006C67.5685 9.41905 67.71 8.94928 67.9929 8.53077C68.2758 8.10371 68.7001 7.76633 69.2659 7.51864C69.8403 7.27094 70.539 7.14709 71.362 7.14709C71.9364 7.14709 72.4979 7.21542 73.0466 7.35208C73.5953 7.48874 74.0753 7.68519 74.4868 7.94142L73.8439 9.51727C73.0123 9.04751 72.1807 8.81262 71.3492 8.81262C70.7662 8.81262 70.3333 8.90658 70.0504 9.09448C69.776 9.28239 69.6389 9.53008 69.6389 9.83757C69.6389 10.145 69.7975 10.3757 70.1147 10.5294C70.4404 10.6746 70.9334 10.8198 71.5935 10.965C72.2793 11.1273 72.8409 11.2896 73.2781 11.4518C73.7153 11.6141 74.0882 11.8704 74.3968 12.2206C74.714 12.5707 74.8726 13.0448 74.8726 13.6427C74.8726 14.1551 74.7269 14.6249 74.4354 15.052C74.1525 15.4705 73.7239 15.8036 73.1495 16.0513C72.5751 16.299 71.8764 16.4228 71.0534 16.4228Z" fill="white" fill-opacity="0.45"/>
<path d="M83.1759 9.37634V18.7546H81.1698V15.5388C80.6726 16.094 79.9825 16.3716 79.0994 16.3716C78.4479 16.3716 77.8564 16.2264 77.3249 15.936C76.8019 15.6456 76.3904 15.2313 76.0904 14.6932C75.7903 14.1551 75.6403 13.5316 75.6403 12.8227C75.6403 12.1138 75.7903 11.4903 76.0904 10.9522C76.3904 10.4141 76.8019 9.99985 77.3249 9.70945C77.8564 9.41905 78.4479 9.27385 79.0994 9.27385C80.0425 9.27385 80.7626 9.57279 81.2598 10.1707V9.37634H83.1759ZM79.4466 14.7317C79.9524 14.7317 80.3725 14.5608 80.7069 14.2192C81.0412 13.869 81.2084 13.4035 81.2084 12.8227C81.2084 12.2419 81.0412 11.7807 80.7069 11.439C80.3725 11.0888 79.9524 10.9138 79.4466 10.9138C78.9323 10.9138 78.5079 11.0888 78.1736 11.439C77.8392 11.7807 77.6721 12.2419 77.6721 12.8227C77.6721 13.4035 77.8392 13.869 78.1736 14.2192C78.5079 14.5608 78.9323 14.7317 79.4466 14.7317Z" fill="white" fill-opacity="0.45"/>
<path d="M92.0029 9.37634V16.2691H90.0997V15.4491C89.834 15.7481 89.5168 15.9787 89.1481 16.141C88.7795 16.2947 88.3809 16.3716 87.9522 16.3716C87.0435 16.3716 86.3234 16.1111 85.7918 15.59C85.2603 15.069 84.9946 14.2961 84.9946 13.2711V9.37634H87.0006V12.9764C87.0006 14.0868 87.4678 14.642 88.4023 14.642C88.8824 14.642 89.2682 14.4882 89.5596 14.1808C89.8511 13.8647 89.9969 13.3992 89.9969 12.7843V9.37634H92.0029Z" fill="white" fill-opacity="0.45"/>
<path d="M96.6519 9.27385C97.7235 9.27385 98.5465 9.53008 99.1209 10.0426C99.6953 10.5465 99.9825 11.3109 99.9825 12.3359V16.2691H98.105V15.4107C97.7278 16.0513 97.0248 16.3716 95.996 16.3716C95.4645 16.3716 95.0016 16.2819 94.6072 16.1025C94.2215 15.9232 93.9257 15.6755 93.7199 15.3594C93.5142 15.0434 93.4113 14.6847 93.4113 14.2832C93.4113 13.6427 93.6514 13.1387 94.1314 12.7715C94.6201 12.4042 95.3702 12.2206 96.3818 12.2206H97.9764C97.9764 11.785 97.8435 11.4518 97.5778 11.2212C97.312 10.9821 96.9134 10.8625 96.3818 10.8625C96.0132 10.8625 95.6488 10.9223 95.2888 11.0419C94.9373 11.1529 94.6372 11.3066 94.3886 11.5031L93.6685 10.1066C94.0457 9.84184 94.4958 9.63685 95.0187 9.49165C95.5503 9.34645 96.0946 9.27385 96.6519 9.27385ZM96.4976 15.0263C96.8405 15.0263 97.1448 14.9495 97.4106 14.7957C97.6763 14.6334 97.8649 14.3986 97.9764 14.0911V13.3864H96.6004C95.7774 13.3864 95.3659 13.6555 95.3659 14.1936C95.3659 14.4498 95.4645 14.6548 95.6617 14.8085C95.8675 14.9537 96.1461 15.0263 96.4976 15.0263Z" fill="white" fill-opacity="0.45"/>
<path d="M103.714 10.286C103.954 9.95287 104.276 9.70091 104.679 9.53008C105.09 9.35926 105.562 9.27385 106.093 9.27385V11.1187C105.87 11.1017 105.72 11.0931 105.643 11.0931C105.069 11.0931 104.619 11.2554 104.293 11.58C103.967 11.896 103.804 12.3743 103.804 13.0149V16.2691H101.798V9.37634H103.714V10.286Z" fill="white" fill-opacity="0.45"/>
<path d="M114 12.8483C114 12.874 113.987 13.0533 113.961 13.3864H108.728C108.822 13.8135 109.045 14.1509 109.396 14.3986C109.748 14.6462 110.185 14.7701 110.708 14.7701C111.068 14.7701 111.385 14.7188 111.66 14.6164C111.942 14.5053 112.204 14.3345 112.444 14.1039L113.511 15.2569C112.86 16 111.908 16.3716 110.657 16.3716C109.876 16.3716 109.186 16.2221 108.586 15.9232C107.986 15.6157 107.523 15.1929 107.197 14.6548C106.872 14.1167 106.709 13.506 106.709 12.8227C106.709 12.148 106.867 11.5415 107.185 11.0034C107.51 10.4568 107.952 10.034 108.509 9.73507C109.075 9.42759 109.705 9.27385 110.399 9.27385C111.077 9.27385 111.69 9.41905 112.238 9.70945C112.787 9.99985 113.216 10.4184 113.524 10.965C113.841 11.5031 114 12.1309 114 12.8483ZM110.412 10.7856C109.958 10.7856 109.576 10.9138 109.268 11.17C108.959 11.4262 108.77 11.7764 108.702 12.2206H112.11C112.041 11.785 111.852 11.439 111.544 11.1828C111.235 10.918 110.858 10.7856 110.412 10.7856Z" fill="white" fill-opacity="0.45"/>
</svg>
