<svg width="132" height="24" viewBox="0 0 132 24" fill="none" xmlns="http://www.w3.org/2000/svg">
<path d="M81.418 9.7895V8.33302H87.6974V9.7895H85.511V16.1756H83.6096V9.7895H81.418ZM87.9927 10.5738H89.7335V11.246C89.9563 11.0079 90.2154 10.8165 90.5055 10.6765C90.7956 10.5364 91.1168 10.4617 91.464 10.4617C91.7127 10.4617 91.9095 10.4897 92.0598 10.5504L91.837 11.7828L91.7489 11.8622C91.5831 11.8248 91.4432 11.8062 91.3241 11.8062C90.9821 11.8062 90.6764 11.8902 90.4019 12.0629C90.1273 12.2356 89.9045 12.4831 89.7283 12.8145V16.1756H87.9875L87.9927 10.5738ZM94.1063 15.9235C93.6192 15.6808 93.241 15.34 92.9664 14.8965C92.6919 14.4577 92.5572 13.9489 92.5572 13.3747C92.5572 12.8052 92.7022 12.301 92.9976 11.8622C93.2929 11.4234 93.6814 11.0779 94.1736 10.8305C94.6606 10.5831 95.1891 10.4617 95.7538 10.4617C96.3652 10.4617 96.9092 10.5784 97.3807 10.8072C97.8521 11.0406 98.22 11.372 98.479 11.8062C98.7381 12.2403 98.8728 12.7491 98.8728 13.342V13.7575H94.1995C94.241 14.1449 94.4068 14.453 94.6917 14.6818C94.9767 14.9105 95.3445 15.0226 95.7901 15.0226C96.5051 15.0226 96.9766 14.7331 97.2097 14.1589L98.6656 14.2943L98.7536 14.4297C98.5205 15.0506 98.1526 15.5127 97.6397 15.8255C97.1268 16.1383 96.4999 16.2923 95.7538 16.2923C95.1425 16.2876 94.5933 16.1663 94.1063 15.9235ZM97.2356 12.7491C97.1942 12.413 97.0387 12.1423 96.7641 11.9415C96.4895 11.7408 96.1528 11.6381 95.7435 11.6381C95.3808 11.6381 95.0596 11.7408 94.7798 11.9415C94.5 12.1423 94.3239 12.413 94.2513 12.7491H97.2356ZM100.733 16.0822C100.432 15.9422 100.189 15.7461 100.013 15.4894C99.8365 15.2326 99.7432 14.9292 99.7432 14.5884C99.7432 14.0796 99.9401 13.6734 100.329 13.3607C100.717 13.0526 101.251 12.8659 101.935 12.8052L103.613 12.6464V12.399C103.613 12.1469 103.525 11.9462 103.344 11.8062C103.168 11.6661 102.914 11.5914 102.593 11.5914C102.303 11.5914 102.069 11.6615 101.898 11.7968C101.722 11.9369 101.619 12.1236 101.577 12.3617L100.111 12.2496L100.049 12.1843C100.173 11.6241 100.469 11.1946 100.93 10.9005C101.391 10.6064 101.955 10.4571 102.619 10.4571C103.406 10.4571 104.043 10.6344 104.536 10.9892C105.023 11.344 105.271 11.8435 105.271 12.4831V14.4904C105.271 14.6631 105.313 14.7938 105.39 14.8825C105.468 14.9712 105.577 15.0179 105.722 15.0179C105.815 15.0179 105.893 15.0086 105.96 14.9852L106.023 15.0506V16.1243C105.774 16.199 105.489 16.2363 105.163 16.2363C104.489 16.2363 104.028 15.9842 103.769 15.4754H103.681C103.391 15.7461 103.09 15.9469 102.784 16.0822C102.479 16.2176 102.126 16.283 101.728 16.283C101.365 16.2876 101.038 16.2176 100.733 16.0822ZM102.909 14.8965C103.137 14.7611 103.37 14.5557 103.613 14.2803V13.6314L102.246 13.7902C101.955 13.8182 101.733 13.8975 101.582 14.0236C101.427 14.1496 101.354 14.3083 101.354 14.4951C101.354 14.6818 101.427 14.8312 101.572 14.9385C101.717 15.0459 101.904 15.1019 102.126 15.1019C102.417 15.1019 102.681 15.0319 102.909 14.8965ZM107.603 15.8582C107.136 15.5687 106.826 15.1673 106.67 14.6444L106.722 14.4997L108.054 14.1403C108.204 14.7658 108.649 15.0832 109.395 15.0832C109.654 15.0832 109.862 15.0366 110.027 14.9385C110.193 14.8405 110.276 14.7051 110.276 14.5371C110.276 14.3597 110.183 14.2196 109.996 14.1169C109.81 14.0142 109.447 13.9022 108.908 13.7761C108.256 13.6361 107.758 13.426 107.427 13.1553C107.095 12.8845 106.929 12.5204 106.929 12.0723C106.929 11.7735 107.023 11.5027 107.209 11.26C107.396 11.0172 107.66 10.8258 107.997 10.6811C108.338 10.5411 108.727 10.4664 109.167 10.4664C109.82 10.4664 110.359 10.5971 110.779 10.8539C111.198 11.1106 111.468 11.4747 111.592 11.9462L111.52 12.0676L110.204 12.357C110.147 12.0956 110.022 11.8949 109.831 11.7595C109.639 11.6241 109.406 11.5541 109.136 11.5541C108.929 11.5541 108.753 11.5914 108.613 11.6708C108.473 11.7501 108.401 11.8575 108.401 11.9882C108.401 12.1516 108.515 12.287 108.748 12.3897C108.981 12.4924 109.401 12.6231 110.017 12.7725C110.654 12.9312 111.126 13.1366 111.426 13.3887C111.727 13.6408 111.882 13.9956 111.882 14.4437C111.882 14.7891 111.779 15.1019 111.577 15.3867C111.375 15.6714 111.084 15.8908 110.706 16.0542C110.328 16.213 109.893 16.297 109.395 16.297C108.665 16.2876 108.069 16.1429 107.603 15.8582ZM113.608 15.7368C113.219 15.3727 113.022 14.8825 113.022 14.271V10.5738H114.763V13.9442C114.763 14.2663 114.856 14.5137 115.038 14.6818C115.219 14.8545 115.478 14.9385 115.809 14.9385C116.11 14.9385 116.379 14.8638 116.628 14.7098C116.877 14.5557 117.079 14.355 117.239 14.0983V10.5691H118.98V16.1709H117.239V15.4754C116.685 16.0122 116.006 16.283 115.214 16.283C114.535 16.2876 114.001 16.1056 113.608 15.7368ZM120.524 10.5738H122.265V11.246C122.488 11.0079 122.747 10.8165 123.037 10.6765C123.327 10.5364 123.648 10.4617 123.995 10.4617C124.244 10.4617 124.441 10.4897 124.591 10.5504L124.368 11.7828L124.28 11.8622C124.115 11.8248 123.975 11.8062 123.856 11.8062C123.514 11.8062 123.208 11.8902 122.933 12.0629C122.659 12.2356 122.436 12.4831 122.26 12.8145V16.1756H120.519L120.524 10.5738ZM127.721 16.0309L125.161 10.5738H127.151L128.42 13.3653L128.482 14.1823H128.581L130.161 10.5738H132L128.467 18.4163H126.653L127.721 16.0309Z" fill="white"/>
<path d="M30.9239 8.55946C31.5198 8.55946 32.0294 8.65778 32.4527 8.85442C32.8761 9.04349 33.2014 9.31954 33.4288 9.68256C33.664 10.038 33.7816 10.4691 33.7816 10.9758C33.7816 11.4825 33.664 11.9174 33.4288 12.2804C33.2014 12.6359 32.8761 12.9119 32.4527 13.1086C32.0294 13.2977 31.5198 13.3922 30.9239 13.3922H29.2893V16.0468H27.6665V8.55946H30.9239ZM30.677 12.1556C31.1631 12.1556 31.5276 12.0573 31.7706 11.8607C32.0137 11.6565 32.1352 11.3615 32.1352 10.9758C32.1352 10.5826 32.0137 10.2876 31.7706 10.091C31.5276 9.89432 31.1631 9.796 30.677 9.796H29.2893V12.1556H30.677Z" fill="white"/>
<path d="M37.5187 10.2611C38.1145 10.2611 38.6358 10.3784 39.0827 10.6128C39.5374 10.8473 39.8902 11.1838 40.1411 11.6225C40.3998 12.0611 40.5291 12.5905 40.5291 13.2107C40.5291 13.8233 40.3998 14.3527 40.1411 14.7989C39.8902 15.2376 39.5374 15.5741 39.0827 15.8086C38.6358 16.043 38.1145 16.1602 37.5187 16.1602C36.9307 16.1602 36.4093 16.043 35.9546 15.8086C35.4999 15.5741 35.1432 15.2376 34.8845 14.7989C34.6336 14.3527 34.5082 13.8233 34.5082 13.2107C34.5082 12.5905 34.6336 12.0611 34.8845 11.6225C35.1432 11.1838 35.4999 10.8473 35.9546 10.6128C36.4093 10.3784 36.9307 10.2611 37.5187 10.2611ZM37.5187 11.4183C37.2207 11.4183 36.966 11.4863 36.7543 11.6225C36.5504 11.751 36.3936 11.9477 36.2839 12.2124C36.1741 12.4771 36.1193 12.8098 36.1193 13.2107C36.1193 13.6115 36.1741 13.9443 36.2839 14.209C36.3936 14.4737 36.5504 14.6741 36.7543 14.8103C36.966 14.9388 37.2207 15.0031 37.5187 15.0031C37.8087 15.0031 38.0557 14.9388 38.2595 14.8103C38.4712 14.6741 38.6319 14.4737 38.7417 14.209C38.8514 13.9443 38.9063 13.6115 38.9063 13.2107C38.9063 12.8098 38.8514 12.4771 38.7417 12.2124C38.6319 11.9477 38.4712 11.751 38.2595 11.6225C38.0557 11.4863 37.8087 11.4183 37.5187 11.4183Z" fill="white"/>
<path d="M43.3472 7.89014V14.2998C43.3472 14.5645 43.3942 14.7497 43.4883 14.8556C43.5823 14.9615 43.7391 15.0145 43.9587 15.0145C44.0919 15.0145 44.2017 15.0069 44.2879 14.9918C44.3742 14.9691 44.4839 14.9388 44.6172 14.901L44.4761 15.922C44.3428 15.9976 44.1743 16.0544 43.9704 16.0922C43.7744 16.1376 43.5784 16.1602 43.3824 16.1602C42.8101 16.1602 42.3907 16.0279 42.1241 15.7632C41.8654 15.4909 41.7361 15.0598 41.7361 14.4699V7.89014H43.3472Z" fill="white"/>
<path d="M51.383 10.3746L48.6665 13.1086L48.349 13.2561L46.585 15.0825L46.5615 13.4262L49.5485 10.3746H51.383ZM47.0084 7.89014V16.0468H45.3973V7.89014H47.0084ZM48.8899 12.1783L51.5241 16.0468H49.7013L47.7845 13.0859L48.8899 12.1783Z" fill="white"/>
<path d="M55.6365 12.4279C55.6365 12.1027 55.5385 11.8493 55.3425 11.6678C55.1544 11.4863 54.9035 11.3956 54.5899 11.3956C54.2998 11.3956 54.045 11.4674 53.8255 11.6111C53.606 11.7548 53.4453 11.993 53.3434 12.3258L51.9675 11.9174C52.1008 11.4183 52.3908 11.0174 52.8377 10.7149C53.2924 10.4124 53.9 10.2611 54.6604 10.2611C55.1779 10.2611 55.6287 10.3405 56.0128 10.4994C56.397 10.6506 56.6949 10.8813 56.9066 11.1914C57.1261 11.5015 57.2358 11.8909 57.2358 12.3598V14.6628C57.2358 14.9502 57.3769 15.0939 57.6592 15.0939C57.7924 15.0939 57.9179 15.075 58.0355 15.0371L57.9414 16.0014C57.7376 16.0997 57.4828 16.1489 57.177 16.1489C56.9026 16.1489 56.6557 16.1035 56.4362 16.0128C56.2167 15.922 56.0442 15.7859 55.9187 15.6044C55.7933 15.4153 55.7306 15.1808 55.7306 14.901V14.8556L56.0128 14.8103C55.9658 15.0976 55.8364 15.3434 55.6247 15.5476C55.4131 15.7443 55.1544 15.8955 54.8486 16.0014C54.5507 16.1073 54.241 16.1602 53.9196 16.1602C53.5198 16.1602 53.1748 16.1035 52.8847 15.9901C52.5947 15.8691 52.3712 15.6951 52.2144 15.4682C52.0576 15.2413 51.9792 14.9615 51.9792 14.6287C51.9792 14.2052 52.1204 13.8611 52.4026 13.5964C52.6848 13.3241 53.0886 13.1388 53.6138 13.0405L55.8247 12.6094L55.8129 13.5737L54.4017 13.846C54.1352 13.8989 53.9313 13.9708 53.7902 14.0615C53.657 14.1447 53.5903 14.2846 53.5903 14.4813C53.5903 14.6703 53.6609 14.814 53.802 14.9124C53.9509 15.0107 54.1273 15.0598 54.3312 15.0598C54.4958 15.0598 54.6565 15.0409 54.8133 15.0031C54.9701 14.9653 55.1112 14.9048 55.2367 14.8216C55.3621 14.7384 55.4601 14.625 55.5307 14.4813C55.6012 14.3376 55.6365 14.1636 55.6365 13.9594V12.4279Z" fill="white"/>
<path d="M61.1196 16.1602C60.6336 16.1602 60.1985 16.043 59.8143 15.8086C59.438 15.5741 59.1401 15.2376 58.9206 14.7989C58.7089 14.3603 58.6031 13.8346 58.6031 13.222C58.6031 12.5943 58.7167 12.0611 58.9441 11.6225C59.1715 11.1762 59.4772 10.8397 59.8614 10.6128C60.2533 10.3784 60.6924 10.2611 61.1784 10.2611C61.6959 10.2611 62.1231 10.4048 62.4603 10.6922C62.7974 10.9796 63.0169 11.3502 63.1188 11.804L62.9659 11.9855V7.89014H64.577V16.0468H63.1306L63.0247 14.3224L63.2129 14.4132C63.1658 14.7687 63.0443 15.0787 62.8483 15.3434C62.6523 15.6006 62.4054 15.801 62.1075 15.9447C61.8096 16.0884 61.4803 16.1602 61.1196 16.1602ZM61.59 14.9691C61.8723 14.9691 62.1153 14.901 62.3191 14.7649C62.523 14.6212 62.6798 14.4132 62.7895 14.1409C62.9071 13.8687 62.9659 13.5435 62.9659 13.1653C62.9659 12.8023 62.911 12.496 62.8013 12.2464C62.6915 11.9893 62.5347 11.7926 62.3309 11.6565C62.1271 11.5204 61.888 11.4523 61.6136 11.4523C61.1745 11.4523 60.8296 11.6036 60.5787 11.9061C60.3357 12.201 60.2142 12.6359 60.2142 13.2107C60.2142 13.7855 60.3357 14.2241 60.5787 14.5266C60.8217 14.8216 61.1588 14.9691 61.59 14.9691Z" fill="white"/>
<path d="M68.8335 10.2611C69.4293 10.2611 69.9506 10.3784 70.3975 10.6128C70.8522 10.8473 71.205 11.1838 71.4559 11.6225C71.7146 12.0611 71.8439 12.5905 71.8439 13.2107C71.8439 13.8233 71.7146 14.3527 71.4559 14.7989C71.205 15.2376 70.8522 15.5741 70.3975 15.8086C69.9506 16.043 69.4293 16.1602 68.8335 16.1602C68.2455 16.1602 67.7241 16.043 67.2694 15.8086C66.8147 15.5741 66.458 15.2376 66.1993 14.7989C65.9484 14.3527 65.823 13.8233 65.823 13.2107C65.823 12.5905 65.9484 12.0611 66.1993 11.6225C66.458 11.1838 66.8147 10.8473 67.2694 10.6128C67.7241 10.3784 68.2455 10.2611 68.8335 10.2611ZM68.8335 11.4183C68.5355 11.4183 68.2808 11.4863 68.0691 11.6225C67.8652 11.751 67.7084 11.9477 67.5987 12.2124C67.4889 12.4771 67.4341 12.8098 67.4341 13.2107C67.4341 13.6115 67.4889 13.9443 67.5987 14.209C67.7084 14.4737 67.8652 14.6741 68.0691 14.8103C68.2808 14.9388 68.5355 15.0031 68.8335 15.0031C69.1235 15.0031 69.3705 14.9388 69.5743 14.8103C69.786 14.6741 69.9467 14.4737 70.0565 14.209C70.1662 13.9443 70.2211 13.6115 70.2211 13.2107C70.2211 12.8098 70.1662 12.4771 70.0565 12.2124C69.9467 11.9477 69.786 11.751 69.5743 11.6225C69.3705 11.4863 69.1235 11.4183 68.8335 11.4183Z" fill="white"/>
<path d="M75.087 8.63887V14.1977C75.087 14.4699 75.1575 14.6703 75.2986 14.7989C75.4476 14.9199 75.6475 14.9804 75.8984 14.9804C76.1022 14.9804 76.2747 14.9539 76.4158 14.901C76.5648 14.8405 76.698 14.7611 76.8156 14.6628L77.0743 15.6951C76.8862 15.8388 76.651 15.9523 76.3688 16.0355C76.0865 16.1186 75.7886 16.1602 75.475 16.1602C75.083 16.1602 74.7342 16.1035 74.4284 15.9901C74.1305 15.8766 73.8953 15.6951 73.7228 15.4455C73.5582 15.196 73.4759 14.8632 73.4759 14.4472V9.06996L75.087 8.63887ZM76.9685 10.3746V11.5317H72.394V10.3746H76.9685Z" fill="white"/>
<g clip-path="url(#clip0_5425_38806)">
<path d="M10.9938 6.94602C12.7401 6.94602 14.1558 6.12797 14.1558 5.11885C14.1558 4.10974 12.7401 3.29169 10.9938 3.29169C9.24745 3.29169 7.83176 4.10974 7.83176 5.11885C7.83176 6.12797 9.24745 6.94602 10.9938 6.94602Z" fill="#E6007A"/>
<path d="M10.9938 20.7084C12.7401 20.7084 14.1558 19.8903 14.1558 18.8812C14.1558 17.8721 12.7401 17.054 10.9938 17.054C9.24745 17.054 7.83176 17.8721 7.83176 18.8812C7.83176 19.8903 9.24745 20.7084 10.9938 20.7084Z" fill="#E6007A"/>
<path d="M6.58657 9.47309C7.45975 7.97115 7.45422 6.34457 6.57422 5.84001C5.69422 5.33545 4.27299 6.14399 3.39982 7.64592C2.52665 9.14786 2.53218 10.7744 3.41217 11.279C4.29217 11.7836 5.7134 10.975 6.58657 9.47309Z" fill="#E6007A"/>
<path d="M18.5879 16.3542C19.461 14.8523 19.4555 13.2257 18.5755 12.7212C17.6955 12.2166 16.2743 13.0251 15.4011 14.5271C14.5279 16.029 14.5335 17.6556 15.4135 18.1602C16.2935 18.6647 17.7147 17.8562 18.5879 16.3542Z" fill="#E6007A"/>
<path d="M6.57421 18.1601C7.45421 17.6555 7.45974 16.0289 6.58657 14.527C5.71339 13.025 4.29217 12.2165 3.41217 12.7211C2.53217 13.2256 2.52664 14.8522 3.39981 16.3541C4.27299 17.8561 5.69421 18.6646 6.57421 18.1601Z" fill="#E6007A"/>
<path d="M18.5754 11.2791C19.4554 10.7745 19.461 9.14791 18.5878 7.64598C17.7146 6.14404 16.2934 5.33551 15.4134 5.84006C14.5334 6.34462 14.5279 7.97121 15.401 9.47314C16.2742 10.9751 17.6954 11.7836 18.5754 11.2791Z" fill="#E6007A"/>
</g>
<defs>
<clipPath id="clip0_5425_38806">
<rect width="21.9875" height="22" fill="white" transform="translate(0 1)"/>
</clipPath>
</defs>
</svg>
