<svg width="20" height="20" viewBox="0 0 20 20" fill="none" xmlns="http://www.w3.org/2000/svg">
<g clip-path="url(#clip0_5352_38123)">
<path d="M13.8949 10.9379L14.8716 11.4264L17.4632 9.74225L15.2553 7.60039C14.7808 7.93666 14.0888 7.74874 13.852 7.21191L12.675 7.48228L13.0533 9.64662C13.6978 9.66706 14.1322 10.3502 13.8949 10.9379Z" fill="#5693D8"/>
<path d="M17.6883 6.06014L14.3266 4.35547H12.3519L14.1382 6.08836C14.297 5.9657 14.4962 5.89272 14.7123 5.89272C15.1288 5.89272 15.4819 6.1635 15.6054 6.53859L17.6883 6.06014Z" fill="#66B6EB"/>
<path d="M15.306 11.458L17.3107 11.6404L18.5322 10.7792L17.657 9.93021L15.306 11.458Z" fill="#1E5794"/>
<path d="M19.3046 8.5453L17.9173 6.27783L15.6516 6.79826C15.6594 7.01382 15.5923 7.22042 15.4737 7.38395L17.7274 9.57022L19.3046 8.5453Z" fill="#1E5794"/>
<path d="M13.5784 12.6523L14.6893 11.63L13.7623 11.1663C13.6605 11.2959 13.5255 11.3981 13.37 11.4599L13.5784 12.6523Z" fill="#77D8F3"/>
<path d="M18.7235 10.5367L19.2479 8.89665L17.9214 9.75863L18.7235 10.5367Z" fill="#77D8F3"/>
<path d="M13.9286 6.31359L12.1729 4.61035L12.6294 7.22237L13.7805 6.95795C13.7504 6.73179 13.808 6.49523 13.9286 6.31359Z" fill="#77D8F3"/>
<path d="M9.43178 8.22733L12.375 7.55127L12.7482 9.68698C12.525 9.75507 12.3371 9.90398 12.2185 10.0996L9.36157 8.67081C9.41249 8.53334 9.43772 8.38105 9.43178 8.22733Z" fill="#58C197"/>
<path d="M11.7986 4.25332L10.1471 3.66406L8.81549 7.25481C9.09437 7.40031 9.30596 7.65709 9.39137 7.96625L12.3296 7.29134L11.7986 4.25332Z" fill="#9ED677"/>
<path d="M5.38983 16.4702L6.30856 16.7115L7.72136 15.0802L7.08784 12.9151C6.96718 12.9312 6.83917 12.9267 6.72122 12.9026L5.38983 16.4702Z" fill="#643AA8"/>
<path d="M7.47353 10.874L8.02403 9.38965C8.17065 9.42388 8.33262 9.42873 8.4823 9.4029L9.73971 12.3507L8.02981 11.9446C8.07446 11.5138 7.85271 11.0855 7.47353 10.874Z" fill="#643AA8"/>
<path d="M5.15156 14.7727L5.50746 15.1486L6.39238 12.7775C6.0173 12.5598 5.80292 12.1281 5.85442 11.6987L4.77539 11.4424L5.15156 14.7727Z" fill="#8659B9"/>
<path d="M7.99447 14.7641L9.83124 12.6433L7.9707 12.2013C7.87424 12.469 7.67639 12.6883 7.42349 12.8127L7.99447 14.7641Z" fill="#8659B9"/>
<path d="M13.2818 12.742L13.0692 11.5252C12.4448 11.5556 11.9551 10.9377 12.1145 10.3425L9.24182 8.90576C9.13481 9.06707 8.98808 9.19975 8.81559 9.28984L10.1642 12.4515L10.4413 12.5174L13.2818 12.742Z" fill="#8659B9"/>
<path d="M5.04352 7.51904L7.14477 8.15176C7.09875 8.59157 7.31745 9.0304 7.69788 9.25779L7.14278 10.7546C6.63072 10.6592 6.10297 10.9529 5.91738 11.4428L4.74415 11.1641L4.38922 8.02184C4.67478 7.96001 4.91332 7.77197 5.04352 7.51904Z" fill="#FF3767"/>
<path d="M3.84251 7.98193C3.90451 8.00534 3.96955 8.02256 4.03687 8.03283L4.38084 11.078L2.42841 10.6143L3.84251 7.98193Z" fill="#FF6A44"/>
<path d="M2.29779 12.2237L3.23696 13.9403L4.76769 14.5007L4.41253 11.3564L2.29964 10.8545L2.29779 12.2237Z" fill="#FF4041"/>
<path d="M1.83182 6.55212L0.634766 8.31289L1.13503 10.5607H2.05823L3.54151 7.79963C3.30922 7.59291 3.18933 7.27963 3.22314 6.97107L1.83182 6.55212Z" fill="#FFA256"/>
<path d="M6.06413 3.84619L7.57358 7.37318C7.40493 7.50683 7.27474 7.6869 7.20233 7.89409L5.13079 7.27032C5.20514 6.90309 5.05391 6.51412 4.74923 6.29386L6.06413 3.84619Z" fill="#FFA256"/>
<path d="M5.62936 3.91368L2.01093 6.33054L3.28793 6.71507C3.46837 6.26912 3.96992 6.02089 4.43176 6.14299L5.62936 3.91368Z" fill="#F2D670"/>
<path d="M9.79561 3.60207L8.48271 7.14226C8.28314 7.10773 8.06659 7.12899 7.88154 7.19869L6.34228 3.60205L9.79561 3.60207Z" fill="#F2D670"/>
</g>
<defs>
<clipPath id="clip0_5352_38123">
<rect width="20" height="20" rx="10" fill="white"/>
</clipPath>
</defs>
</svg>
