<svg width="16" height="16" viewBox="0 0 16 16" fill="none" xmlns="http://www.w3.org/2000/svg">
<g clip-path="url(#clip0_5393_34971)">
<path fill-rule="evenodd" clip-rule="evenodd" d="M8.99998 0.577336C8.38118 0.220071 7.61878 0.220071 6.99998 0.577336L2.07178 3.42264C1.45298 3.7799 1.07178 4.44016 1.07178 5.15469V10.8453C1.07178 11.5598 1.45298 12.2201 2.07178 12.5773L6.99998 15.4226C7.61878 15.7799 8.38118 15.7799 8.99998 15.4226L13.9282 12.5773C14.547 12.2201 14.9282 11.5598 14.9282 10.8453V5.15469C14.9282 4.44016 14.547 3.7799 13.9282 3.42264L8.99998 0.577336ZM8.49997 3.99999C8.49997 3.72384 8.27611 3.49999 7.99997 3.49999C7.72383 3.49999 7.49997 3.72384 7.49997 3.99999V7.71131L4.28587 9.56697C4.04672 9.70504 3.96479 10.0108 4.10286 10.25C4.24093 10.4891 4.54672 10.5711 4.78587 10.433L7.99997 8.57734L11.2141 10.433C11.4532 10.5711 11.759 10.4891 11.8971 10.25C12.0352 10.0108 11.9532 9.70504 11.7141 9.56697L8.49997 7.71131V3.99999Z" fill="white"/>
</g>
<defs>
<clipPath id="clip0_5393_34971">
<rect width="16" height="16" fill="white"/>
</clipPath>
</defs>
</svg>
