<svg width="16" height="16" viewBox="0 0 16 16" fill="none" xmlns="http://www.w3.org/2000/svg">
<path d="M13.9231 2H2.07692C1.79141 2.00033 1.51768 2.1143 1.31578 2.31692C1.11389 2.51954 1.00033 2.79425 1 3.0808V11.7271C1.00033 12.0137 1.11389 12.2884 1.31578 12.491C1.51768 12.6936 1.79141 12.8076 2.07692 12.8079L6.07969 12.808L7.07656 14.4753C7.17224 14.6353 7.30759 14.7678 7.46941 14.8597C7.63124 14.9517 7.81404 15 8 15C8.18596 15 8.36876 14.9517 8.53059 14.8597C8.69241 14.7678 8.82776 14.6353 8.92344 14.4753L9.92024 12.808H13.923C14.2085 12.8077 14.4823 12.6937 14.6842 12.4911C14.8861 12.2885 14.9997 12.0137 15 11.7272V3.0808C14.9997 2.79425 14.8861 2.51954 14.6842 2.31692C14.4823 2.1143 14.2086 2.00033 13.9231 2ZM4.7692 8.21463C4.60945 8.21463 4.45329 8.16709 4.32047 8.07802C4.18764 7.98895 4.08412 7.86235 4.02299 7.71423C3.96185 7.56611 3.94586 7.40313 3.97702 7.24589C4.00819 7.08865 4.08511 6.94421 4.19807 6.83085C4.31103 6.71748 4.45495 6.64028 4.61162 6.609C4.7683 6.57773 4.9307 6.59378 5.07829 6.65513C5.22587 6.71648 5.35202 6.82038 5.44077 6.95368C5.52952 7.08699 5.57689 7.24371 5.57689 7.40403C5.57689 7.61901 5.49179 7.82519 5.34032 7.97721C5.18885 8.12923 4.98341 8.21463 4.7692 8.21463ZM7.99997 8.21463C7.84022 8.21463 7.68406 8.16709 7.55124 8.07802C7.41841 7.98895 7.31489 7.86235 7.25376 7.71423C7.19262 7.56611 7.17663 7.40313 7.20779 7.24589C7.23896 7.08865 7.31588 6.94421 7.42884 6.83085C7.5418 6.71748 7.68572 6.64028 7.84239 6.609C7.99907 6.57773 8.16147 6.59378 8.30906 6.65513C8.45664 6.71648 8.58279 6.82038 8.67154 6.95368C8.76029 7.08699 8.80766 7.24371 8.80766 7.40403C8.80766 7.61901 8.72256 7.82519 8.57109 7.97721C8.41962 8.12923 8.21418 8.21463 7.99997 8.21463ZM11.2307 8.21463C11.071 8.21463 10.9148 8.16709 10.782 8.07802C10.6492 7.98895 10.5457 7.86235 10.4845 7.71423C10.4234 7.56611 10.4074 7.40313 10.4386 7.24589C10.4697 7.08865 10.5467 6.94421 10.6596 6.83085C10.7726 6.71748 10.9165 6.64028 11.0732 6.609C11.2298 6.57773 11.3922 6.59378 11.5398 6.65513C11.6874 6.71648 11.8136 6.82038 11.9023 6.95368C11.9911 7.08699 12.0384 7.24371 12.0384 7.40403C12.0384 7.61901 11.9533 7.82519 11.8019 7.97721C11.6504 8.12923 11.4449 8.21463 11.2307 8.21463Z" fill="black"/>
</svg>
