<svg width="16" height="16" viewBox="0 0 16 16" fill="none" xmlns="http://www.w3.org/2000/svg">
<path d="M15.4604 5.88501C15.4132 5.74618 15.3264 5.62419 15.2108 5.5341C15.0951 5.44402 14.9555 5.38978 14.8094 5.37808L10.5336 5.03837L8.68332 0.943167C8.62439 0.811269 8.52855 0.69924 8.40735 0.620603C8.28615 0.541965 8.14479 0.500079 8.00031 0.5C7.85583 0.499921 7.71441 0.541652 7.59313 0.620156C7.47185 0.698661 7.37588 0.810584 7.31681 0.942417L5.46655 5.03837L1.19077 5.37808C1.04711 5.38946 0.909776 5.44198 0.795188 5.52936C0.6806 5.61674 0.593615 5.73527 0.54464 5.87079C0.495665 6.0063 0.486773 6.15305 0.519029 6.29349C0.551284 6.43392 0.623321 6.56209 0.726521 6.66266L3.88629 9.7425L2.76878 14.5809C2.73485 14.7273 2.74573 14.8806 2.8 15.0208C2.85427 15.161 2.94943 15.2816 3.07314 15.3671C3.19684 15.4525 3.34338 15.4988 3.49373 15.5C3.64407 15.5011 3.7913 15.4571 3.91629 15.3735L8.00006 12.6514L12.0838 15.3735C12.2116 15.4583 12.3623 15.502 12.5156 15.4986C12.6689 15.4953 12.8175 15.445 12.9414 15.3547C13.0653 15.2644 13.1586 15.1383 13.2087 14.9934C13.2588 14.8484 13.2633 14.6917 13.2216 14.5441L11.8498 9.74475L15.2519 6.68366C15.4746 6.48268 15.5564 6.16922 15.4604 5.88501Z" fill="#FFF2D9"/>
</svg>
