<svg width="20" height="20" viewBox="0 0 20 20" fill="none" xmlns="http://www.w3.org/2000/svg">
<g clip-path="url(#clip0_6782_25269)">
<path d="M14.252 7.08705C13.8949 4.62621 11.7523 3.10449 8.10616 3.10449C4.41305 3.10449 1.97916 4.68708 1.98856 7.26096C1.97916 9.26093 3.34176 10.5566 6.16094 11.0783L8.6606 11.5392C9.91983 11.7739 10.4931 12.2 10.5119 12.8696C10.4931 13.6609 9.56274 14.2261 8.16255 14.2261C6.73417 14.2261 5.78505 13.6609 5.54072 12.5739L1.60327 12.7652C1.97916 15.3217 4.32847 16.8956 8.15315 16.8956C11.8933 16.8956 14.5715 15.1304 14.5809 12.4957C14.5715 10.5653 13.2089 9.40875 10.4085 8.87833L7.79606 8.39138C6.45225 8.12182 5.9542 7.69573 5.96359 7.05226C5.9542 6.25228 6.93151 5.73054 8.17194 5.73054C9.56274 5.73054 10.3897 6.43488 10.587 7.29574L14.252 7.08705Z" fill="#4F4F4F"/>
<path d="M19.0968 15.0851C19.0968 16.0851 18.2861 16.8957 17.2861 16.8957C16.2861 16.8957 15.4755 16.0851 15.4755 15.0851C15.4755 14.0851 16.2861 13.2744 17.2861 13.2744C18.2861 13.2744 19.0968 14.0851 19.0968 15.0851Z" fill="#303030"/>
</g>
<defs>
<clipPath id="clip0_6782_25269">
<rect width="20" height="20" fill="white"/>
</clipPath>
</defs>
</svg>
