<svg width="20" height="20" viewBox="0 0 20 20" fill="none" xmlns="http://www.w3.org/2000/svg">
<g clip-path="url(#clip0_414_35)">
<path d="M9.08337 1.75C9.58964 1.24374 10.4104 1.24374 10.9167 1.75C11.423 2.25626 11.423 3.07707 10.9167 3.58333L4.8056 9.69444C4.63684 9.8632 4.63684 10.1368 4.8056 10.3056L6.02782 11.5278C6.19657 11.6965 6.47018 11.6965 6.63893 11.5278L12.75 5.41667C13.2563 4.91041 14.0771 4.91041 14.5834 5.41667L18.3334 9.16667C18.7936 9.6269 18.7936 10.3731 18.3334 10.8333L10.9167 18.25C10.4104 18.7563 9.58964 18.7563 9.08337 18.25C8.57711 17.7437 8.57711 16.9229 9.08337 16.4167L15.1945 10.3056C15.3632 10.1368 15.3632 9.8632 15.1945 9.69444L13.9723 8.47222C13.8035 8.30347 13.5299 8.30347 13.3612 8.47222L7.25004 14.5833C6.74378 15.0896 5.92297 15.0896 5.41671 14.5833L1.66671 10.8333C1.20647 10.3731 1.20647 9.6269 1.66671 9.16667L9.08337 1.75Z" fill="#F0F0F0"/>
<path d="M3.58337 9.08333C4.08964 9.58959 4.08964 10.4104 3.58337 10.9167C3.07711 11.4229 2.2563 11.4229 1.75004 10.9167C1.24378 10.4104 1.24378 9.58959 1.75004 9.08333C2.2563 8.57707 3.07711 8.57707 3.58337 9.08333Z" fill="#CACACA"/>
<path d="M10.9167 1.75C11.423 2.25626 11.423 3.07707 10.9167 3.58333C10.4104 4.08959 9.58964 4.08959 9.08337 3.58333C8.57711 3.07707 8.57711 2.25626 9.08337 1.75C9.58964 1.24374 10.4104 1.24374 10.9167 1.75Z" fill="#CACACA"/>
<path d="M14.5834 5.41667C15.0896 5.92293 15.0896 6.74374 14.5834 7.25C14.0771 7.75626 13.2563 7.75626 12.75 7.25C12.2438 6.74374 12.2438 5.92293 12.75 5.41667C13.2563 4.91041 14.0771 4.91041 14.5834 5.41667Z" fill="#CACACA"/>
<path d="M10.9167 9.08333C11.423 9.58959 11.423 10.4104 10.9167 10.9167C10.4104 11.4229 9.58964 11.4229 9.08337 10.9167C8.57711 10.4104 8.57711 9.58959 9.08337 9.08333C9.58964 8.57707 10.4104 8.57707 10.9167 9.08333Z" fill="#CACACA"/>
<path d="M7.25004 5.41667C7.7563 5.92293 7.7563 6.74374 7.25004 7.25C6.74378 7.75626 5.92297 7.75626 5.41671 7.25C4.91045 6.74374 4.91045 5.92293 5.41671 5.41667C5.92297 4.91041 6.74378 4.91041 7.25004 5.41667Z" fill="#CACACA"/>
<path d="M7.25004 12.75C7.7563 13.2563 7.7563 14.0771 7.25004 14.5833C6.74378 15.0896 5.92297 15.0896 5.41671 14.5833C4.91045 14.0771 4.91045 13.2563 5.41671 12.75C5.92297 12.2437 6.74378 12.2437 7.25004 12.75Z" fill="#CACACA"/>
<path d="M10.9167 16.4167C11.423 16.9229 11.423 17.7437 10.9167 18.25C10.4104 18.7563 9.58964 18.7563 9.08337 18.25C8.57711 17.7437 8.57711 16.9229 9.08337 16.4167C9.58964 15.9104 10.4104 15.9104 10.9167 16.4167Z" fill="#CACACA"/>
<path d="M14.5834 12.75C15.0896 13.2563 15.0896 14.0771 14.5834 14.5833C14.0771 15.0896 13.2563 15.0896 12.75 14.5833C12.2438 14.0771 12.2438 13.2563 12.75 12.75C13.2563 12.2437 14.0771 12.2437 14.5834 12.75Z" fill="#CACACA"/>
<path d="M18.25 9.08333C18.7563 9.58959 18.7563 10.4104 18.25 10.9167C17.7438 11.4229 16.923 11.4229 16.4167 10.9167C15.9104 10.4104 15.9104 9.58959 16.4167 9.08333C16.923 8.57707 17.7438 8.57707 18.25 9.08333Z" fill="#CACACA"/>
</g>
<defs>
<clipPath id="clip0_414_35">
<rect width="20" height="20" fill="white"/>
</clipPath>
</defs>
</svg>
