<svg width="20" height="20" viewBox="0 0 20 20" fill="none" xmlns="http://www.w3.org/2000/svg">
<g clip-path="url(#clip0_5352_38132)">
<path opacity="0.2" d="M9.08331 1.75C9.58957 1.24374 10.4104 1.24374 10.9166 1.75C11.4229 2.25626 11.4229 3.07707 10.9166 3.58333L4.80554 9.69444C4.63678 9.8632 4.63678 10.1368 4.80554 10.3056L6.02776 11.5278C6.19651 11.6965 6.47012 11.6965 6.63887 11.5278L12.75 5.41667C13.2562 4.91041 14.0771 4.91041 14.5833 5.41667L18.3333 9.16667C18.7936 9.6269 18.7936 10.3731 18.3333 10.8333L10.9166 18.25C10.4104 18.7563 9.58957 18.7563 9.08331 18.25C8.57705 17.7437 8.57705 16.9229 9.08331 16.4167L15.1944 10.3056C15.3632 10.1368 15.3632 9.8632 15.1944 9.69444L13.9722 8.47222C13.8034 8.30347 13.5298 8.30347 13.3611 8.47222L7.24998 14.5833C6.74372 15.0896 5.92291 15.0896 5.41665 14.5833L1.66665 10.8333C1.20641 10.3731 1.20641 9.6269 1.66665 9.16667L9.08331 1.75Z" fill="#F0F0F0"/>
<g opacity="0.2">
<path d="M3.58331 9.08333C4.08957 9.58959 4.08957 10.4104 3.58331 10.9167C3.07705 11.4229 2.25624 11.4229 1.74998 10.9167C1.24372 10.4104 1.24372 9.58959 1.74998 9.08333C2.25624 8.57707 3.07705 8.57707 3.58331 9.08333Z" fill="#CACACA"/>
<path d="M10.9166 1.75C11.4229 2.25626 11.4229 3.07707 10.9166 3.58333C10.4104 4.08959 9.58957 4.08959 9.08331 3.58333C8.57705 3.07707 8.57705 2.25626 9.08331 1.75C9.58957 1.24374 10.4104 1.24374 10.9166 1.75Z" fill="#CACACA"/>
<path d="M14.5833 5.41667C15.0896 5.92293 15.0896 6.74374 14.5833 7.25C14.0771 7.75626 13.2562 7.75626 12.75 7.25C12.2437 6.74374 12.2437 5.92293 12.75 5.41667C13.2562 4.91041 14.0771 4.91041 14.5833 5.41667Z" fill="#CACACA"/>
<path d="M10.9166 9.08333C11.4229 9.58959 11.4229 10.4104 10.9166 10.9167C10.4104 11.4229 9.58957 11.4229 9.08331 10.9167C8.57705 10.4104 8.57705 9.58959 9.08331 9.08333C9.58957 8.57707 10.4104 8.57707 10.9166 9.08333Z" fill="#CACACA"/>
<path d="M7.24998 5.41667C7.75624 5.92293 7.75624 6.74374 7.24998 7.25C6.74372 7.75626 5.92291 7.75626 5.41665 7.25C4.91039 6.74374 4.91039 5.92293 5.41665 5.41667C5.92291 4.91041 6.74372 4.91041 7.24998 5.41667Z" fill="#CACACA"/>
<path d="M7.24998 12.75C7.75624 13.2563 7.75624 14.0771 7.24998 14.5833C6.74372 15.0896 5.92291 15.0896 5.41665 14.5833C4.91039 14.0771 4.91039 13.2563 5.41665 12.75C5.92291 12.2437 6.74372 12.2437 7.24998 12.75Z" fill="#CACACA"/>
<path d="M10.9166 16.4167C11.4229 16.9229 11.4229 17.7437 10.9166 18.25C10.4104 18.7563 9.58957 18.7563 9.08331 18.25C8.57705 17.7437 8.57705 16.9229 9.08331 16.4167C9.58957 15.9104 10.4104 15.9104 10.9166 16.4167Z" fill="#CACACA"/>
<path d="M14.5833 12.75C15.0896 13.2563 15.0896 14.0771 14.5833 14.5833C14.0771 15.0896 13.2562 15.0896 12.75 14.5833C12.2437 14.0771 12.2437 13.2563 12.75 12.75C13.2562 12.2437 14.0771 12.2437 14.5833 12.75Z" fill="#CACACA"/>
<path d="M18.25 9.08333C18.7562 9.58959 18.7562 10.4104 18.25 10.9167C17.7437 11.4229 16.9229 11.4229 16.4166 10.9167C15.9104 10.4104 15.9104 9.58959 16.4166 9.08333C16.9229 8.57707 17.7437 8.57707 18.25 9.08333Z" fill="#CACACA"/>
</g>
</g>
<defs>
<clipPath id="clip0_5352_38132">
<rect width="20" height="20" fill="white"/>
</clipPath>
</defs>
</svg>
