<svg width="20" height="20" viewBox="0 0 20 20" fill="none" xmlns="http://www.w3.org/2000/svg">
<g clip-path="url(#clip0_3583_22003)">
<path d="M13.6317 1.66602C14.3117 1.66602 14.9401 2.03499 15.2801 2.63394L18.9117 9.03142C19.2517 9.63038 19.2517 10.3683 18.9117 10.9673L15.2801 17.3648C14.9401 17.9637 14.3117 18.3327 13.6317 18.3327H6.3684C5.68838 18.3327 5.06003 17.9637 4.72002 17.3648L1.08838 10.9673C0.748372 10.3683 0.748373 9.63038 1.08838 9.03142L4.72002 2.63394C5.06003 2.03499 5.68839 1.66602 6.3684 1.66602L13.6317 1.66602Z" fill="#FFF0F3"/>
<path d="M6.98682 13.8692V5.94141H8.82584V8.92206H8.88196C8.96254 8.76206 9.0791 8.59948 9.23163 8.43432C9.38704 8.26657 9.5885 8.12722 9.83601 8.01625C10.0864 7.9027 10.3972 7.84593 10.7685 7.84593C11.252 7.84593 11.6981 7.95948 12.1067 8.18657C12.5154 8.41109 12.842 8.75045 13.0867 9.20464C13.3313 9.65625 13.4536 10.2227 13.4536 10.904C13.4536 11.5672 13.3342 12.1272 13.0953 12.584C12.8593 13.0382 12.537 13.3827 12.1283 13.6176C11.7225 13.8498 11.2678 13.9659 10.7642 13.9659C10.4073 13.9659 10.1037 13.913 9.85328 13.8072C9.60577 13.7014 9.40287 13.5685 9.24458 13.4085C9.0863 13.2459 8.96542 13.0821 8.88196 12.9169H8.79994V13.8692H6.98682ZM8.78699 10.8963C8.78699 11.2498 8.84167 11.5582 8.95103 11.8214C9.06039 12.0846 9.21868 12.2898 9.4259 12.4369C9.63311 12.5814 9.88493 12.6537 10.1814 12.6537C10.4807 12.6537 10.7339 12.5801 10.9411 12.433C11.1484 12.2834 11.3052 12.0769 11.4117 11.8137C11.5211 11.5479 11.5757 11.2421 11.5757 10.8963C11.5757 10.553 11.5225 10.2511 11.416 9.99045C11.3095 9.7298 11.1527 9.52593 10.9455 9.37883C10.7383 9.23174 10.4836 9.15819 10.1814 9.15819C9.88206 9.15819 9.62879 9.22916 9.42158 9.37109C9.21724 9.51303 9.06039 9.71432 8.95103 9.97496C8.84167 10.2356 8.78699 10.5427 8.78699 10.8963Z" fill="#F23252"/>
</g>
<defs>
<clipPath id="clip0_3583_22003">
<rect width="20" height="20" fill="white"/>
</clipPath>
</defs>
</svg>

