<svg width="20" height="20" viewBox="0 0 20 20" fill="none" xmlns="http://www.w3.org/2000/svg">
<g clip-path="url(#clip0_2705_37176)">
<path d="M13.6316 1.66602C14.3116 1.66602 14.9399 2.03499 15.2799 2.63394L18.9116 9.03142C19.2516 9.63038 19.2516 10.3683 18.9116 10.9673L15.2799 17.3648C14.9399 17.9637 14.3116 18.3327 13.6316 18.3327H6.36828C5.68826 18.3327 5.0599 17.9637 4.7199 17.3648L1.08826 10.9673C0.74825 10.3683 0.748251 9.63038 1.08826 9.03142L4.7199 2.63394C5.05991 2.03499 5.68826 1.66602 6.36828 1.66602L13.6316 1.66602Z" fill="#31080f"/>
<path d="M9.11526 7.58714H6.66895V6.12695H13.3308V7.58714H10.8845V13.8704H9.11526V7.58714Z" fill="#da1f3e"/>
</g>
</svg>

