<svg width="20" height="20" viewBox="0 0 20 20" fill="none" xmlns="http://www.w3.org/2000/svg">
<path fill-rule="evenodd" clip-rule="evenodd" d="M11.7968 4.0104H12.3958V4.60935C12.3958 4.76821 12.4589 4.92056 12.5712 5.03288C12.6835 5.14521 12.8359 5.20831 12.9947 5.20831C13.1536 5.20831 13.3059 5.14521 13.4182 5.03288C13.5306 4.92056 13.5937 4.76821 13.5937 4.60935V4.0104H14.1926C14.3515 4.0104 14.5038 3.94729 14.6162 3.83497C14.7285 3.72264 14.7916 3.57029 14.7916 3.41144C14.7916 3.25258 14.7285 3.10024 14.6162 2.98791C14.5038 2.87558 14.3515 2.81248 14.1926 2.81248H13.5937V2.21352C13.5937 2.05467 13.5306 1.90232 13.4182 1.78999C13.3059 1.67767 13.1536 1.61456 12.9947 1.61456C12.8359 1.61456 12.6835 1.67767 12.5712 1.78999C12.4589 1.90232 12.3958 2.05467 12.3958 2.21352V2.81248H11.7968C11.6379 2.81248 11.4856 2.87558 11.3733 2.98791C11.2609 3.10024 11.1978 3.25258 11.1978 3.41144C11.1978 3.57029 11.2609 3.72264 11.3733 3.83497C11.4856 3.94729 11.6379 4.0104 11.7968 4.0104ZM18.3853 6.40623H17.1874V5.20831C17.1874 5.04946 17.1243 4.89711 17.012 4.78479C16.8997 4.67246 16.7473 4.60935 16.5885 4.60935C16.4296 4.60935 16.2773 4.67246 16.1649 4.78479C16.0526 4.89711 15.9895 5.04946 15.9895 5.20831V6.40623H14.7916C14.6327 6.40623 14.4804 6.46933 14.3681 6.58166C14.2557 6.69399 14.1926 6.84633 14.1926 7.00519C14.1926 7.16404 14.2557 7.31639 14.3681 7.42872C14.4804 7.54104 14.6327 7.60415 14.7916 7.60415H15.9895V8.80206C15.9895 8.96092 16.0526 9.11326 16.1649 9.22559C16.2773 9.33792 16.4296 9.40102 16.5885 9.40102C16.7473 9.40102 16.8997 9.33792 17.012 9.22559C17.1243 9.11326 17.1874 8.96092 17.1874 8.80206V7.60415H18.3853C18.5442 7.60415 18.6965 7.54104 18.8089 7.42872C18.9212 7.31639 18.9843 7.16404 18.9843 7.00519C18.9843 6.84633 18.9212 6.69399 18.8089 6.58166C18.6965 6.46933 18.5442 6.40623 18.3853 6.40623ZM16.4612 11.2725L16.6259 11.2425C16.754 11.2416 16.8792 11.2808 16.984 11.3547C17.0887 11.4285 17.1677 11.5333 17.2099 11.6543C17.2471 11.7712 17.2471 11.8968 17.2099 12.0137C16.8584 13.2732 16.1831 14.4187 15.2513 15.3362C14.3195 16.2536 13.1636 16.911 11.8988 17.2429C10.6339 17.5748 9.3042 17.5697 8.04197 17.228C6.77974 16.8862 5.62902 16.2199 4.70436 15.2952C3.7797 14.3706 3.11334 13.2198 2.77163 11.9576C2.42991 10.6954 2.42475 9.36567 2.75665 8.10082C3.08856 6.83598 3.74596 5.68012 4.66341 4.74831C5.58086 3.81649 6.72637 3.14122 7.98591 2.78972C8.11357 2.74999 8.251 2.75528 8.37524 2.80469C8.49178 2.85157 8.59062 2.93391 8.6578 3.04005C8.72498 3.14619 8.75709 3.27077 8.74958 3.39616C8.74938 3.442 8.7418 3.4875 8.72712 3.53093C8.43009 4.60303 8.42276 5.73473 8.70588 6.81059C8.98899 7.88644 9.55242 8.86795 10.3387 9.65498C11.125 10.442 12.1059 11.0064 13.1815 11.2905C14.2571 11.5747 15.3888 11.5685 16.4612 11.2725Z" fill="black" fill-opacity="1"/>
</svg>
