<svg width="20" height="20" viewBox="0 0 20 20" fill="none" xmlns="http://www.w3.org/2000/svg">
<path d="M15.7692 3H4.23077C3.77174 3 3.33151 3.18437 3.00693 3.51256C2.68235 3.84075 2.5 4.28587 2.5 4.75V12.9167C2.5 13.3808 2.68235 13.8259 3.00693 14.1541C3.33151 14.4823 3.77174 14.6667 4.23077 14.6667H9.42308V15.8333H7.69231C7.5393 15.8333 7.39256 15.8948 7.28436 16.0042C7.17617 16.1136 7.11538 16.262 7.11538 16.4167C7.11538 16.5714 7.17617 16.7197 7.28436 16.8291C7.39256 16.9385 7.5393 17 7.69231 17H12.3077C12.4607 17 12.6074 16.9385 12.7156 16.8291C12.8238 16.7197 12.8846 16.5714 12.8846 16.4167C12.8846 16.262 12.8238 16.1136 12.7156 16.0042C12.6074 15.8948 12.4607 15.8333 12.3077 15.8333H10.5769V14.6667H15.7692C16.2283 14.6667 16.6685 14.4823 16.9931 14.1541C17.3177 13.8259 17.5 13.3808 17.5 12.9167V4.75C17.5 4.28587 17.3177 3.84075 16.9931 3.51256C16.6685 3.18437 16.2283 3 15.7692 3ZM15.7692 13.5H4.23077C4.07776 13.5 3.93102 13.4385 3.82282 13.3291C3.71463 13.2197 3.65385 13.0714 3.65385 12.9167V11.75H16.3462V12.9167C16.3462 13.0714 16.2854 13.2197 16.1772 13.3291C16.069 13.4385 15.9222 13.5 15.7692 13.5Z" fill="black" fill-opacity="1"/>
</svg>
