<svg width="16" height="16" viewBox="0 0 16 16" fill="none" xmlns="http://www.w3.org/2000/svg">
<g clip-path="url(#clip0_5582_22709)">
<path fill-rule="evenodd" clip-rule="evenodd" d="M15.3333 8.00033C15.3333 12.0504 12.05 15.3337 7.99996 15.3337C3.94987 15.3337 0.666626 12.0504 0.666626 8.00033C0.666626 3.95024 3.94987 0.666992 7.99996 0.666992C12.05 0.666992 15.3333 3.95024 15.3333 8.00033ZM8.50284 4.00029C8.50287 3.72415 8.27903 3.50027 8.00289 3.50024C7.72675 3.50022 7.50287 3.72405 7.50284 4.00019L7.50244 8.00313C7.50243 8.13575 7.55511 8.26295 7.64889 8.35673L10.4754 11.1832C10.6706 11.3785 10.9872 11.3785 11.1825 11.1832C11.3777 10.9879 11.3777 10.6714 11.1825 10.4761L8.50246 7.79609L8.50284 4.00029Z" fill="black"/>
</g>
<defs>
<clipPath id="clip0_5582_22709">
<rect width="16" height="16" fill="white"/>
</clipPath>
</defs>
</svg>
