<svg width="24" height="24" viewBox="0 0 24 24" fill="none" xmlns="http://www.w3.org/2000/svg">
<path fill-rule="evenodd" clip-rule="evenodd" d="M12 19.5C16.1421 19.5 19.5 16.1421 19.5 12C19.5 7.85786 16.1421 4.5 12 4.5C7.85786 4.5 4.5 7.85786 4.5 12C4.5 16.1421 7.85786 19.5 12 19.5ZM16.1195 10.1287C16.3858 9.86242 16.3858 9.43072 16.1195 9.16445C15.8533 8.89818 15.4216 8.89818 15.1553 9.16445L11.0508 13.2689L9.12332 11.3414C8.85705 11.0752 8.42535 11.0752 8.15908 11.3414C7.89282 11.6077 7.89282 12.0394 8.15908 12.3057L10.3276 14.4742C10.727 14.8736 11.3746 14.8736 11.774 14.4742L16.1195 10.1287Z" fill="#179117"/>
</svg>
