<svg width="24" height="24" viewBox="0 0 24 24" fill="none" xmlns="http://www.w3.org/2000/svg">
<path fill-rule="evenodd" clip-rule="evenodd" d="M12 19.5C16.1421 19.5 19.5 16.1421 19.5 12C19.5 7.85786 16.1421 4.5 12 4.5C7.85786 4.5 4.5 7.85786 4.5 12C4.5 16.1421 7.85786 19.5 12 19.5ZM14.942 9.94206C15.186 9.69798 15.186 9.30226 14.942 9.05818C14.6979 8.8141 14.3022 8.8141 14.0581 9.05818L12 11.1163L9.94192 9.05818C9.69784 8.8141 9.30211 8.8141 9.05803 9.05818C8.81396 9.30226 8.81396 9.69798 9.05803 9.94206L11.1161 12.0001L9.05803 14.0582C8.81396 14.3023 8.81396 14.698 9.05803 14.9421C9.30211 15.1862 9.69784 15.1862 9.94192 14.9421L12 12.884L14.0581 14.9421C14.3022 15.1862 14.6979 15.1862 14.942 14.9421C15.186 14.698 15.186 14.3023 14.942 14.0582L12.8839 12.0001L14.942 9.94206Z" fill="#D62222"/>
</svg>
