<svg width="24" height="24" viewBox="0 0 24 24" fill="none" xmlns="http://www.w3.org/2000/svg">
<path fill-rule="evenodd" clip-rule="evenodd" d="M13.4625 5.53124L19.643 16.2187C19.7931 16.4745 19.8729 16.7654 19.8742 17.0619C19.8756 17.3585 19.7984 17.6501 19.6506 17.9072C19.5028 18.1643 19.2895 18.3777 19.0326 18.5257C18.7756 18.6737 18.484 18.7511 18.1875 18.75H5.81249C5.51594 18.7511 5.22437 18.6737 4.96741 18.5257C4.71044 18.3777 4.49722 18.1643 4.34939 17.9072C4.20157 17.6501 4.12441 17.3585 4.12575 17.0619C4.12709 16.7654 4.20688 16.4745 4.35702 16.2187L10.5375 5.53124C10.6855 5.27419 10.8985 5.06069 11.1553 4.91223C11.4121 4.76377 11.7034 4.68561 12 4.68561C12.2966 4.68561 12.5879 4.76377 12.8447 4.91223C13.1014 5.06069 13.3145 5.27419 13.4625 5.53124ZM11.5645 9.28935C11.449 9.40485 11.3841 9.56152 11.3841 9.72487V12.8045C11.3841 12.9678 11.449 13.1245 11.5645 13.24C11.68 13.3555 11.8366 13.4204 12 13.4204C12.1633 13.4204 12.32 13.3555 12.4355 13.24C12.551 13.1245 12.6159 12.9678 12.6159 12.8045V9.72487C12.6159 9.56152 12.551 9.40485 12.4355 9.28935C12.32 9.17384 12.1633 9.10895 12 9.10895C11.8366 9.10895 11.68 9.17384 11.5645 9.28935ZM11.4867 16.3443C11.6386 16.4458 11.8173 16.5 12 16.5C12.245 16.5 12.48 16.4027 12.6533 16.2294C12.8265 16.0561 12.9239 15.8211 12.9239 15.5761C12.9239 15.3934 12.8697 15.2148 12.7682 15.0628C12.6667 14.9109 12.5224 14.7925 12.3535 14.7226C12.1847 14.6526 11.999 14.6343 11.8197 14.67C11.6405 14.7056 11.4759 14.7936 11.3467 14.9228C11.2175 15.052 11.1295 15.2167 11.0939 15.3959C11.0582 15.5751 11.0765 15.7609 11.1464 15.9297C11.2164 16.0985 11.3348 16.2428 11.4867 16.3443Z" fill="#F2B12F"/>
</svg>
