<svg width="20" height="20" viewBox="0 0 20 20" fill="none" xmlns="http://www.w3.org/2000/svg">
<g clip-path="url(#clip0_5352_38093)">
<path d="M18.2033 5.99199C18.0061 5.27827 17.4287 4.71552 16.6964 4.52337C15.3584 4.1665 10.0068 4.1665 10.0068 4.1665C10.0068 4.1665 4.6552 4.1665 3.3173 4.50964C2.59905 4.7018 2.00756 5.27827 1.81039 5.99199C1.45831 7.29592 1.45831 9.99984 1.45831 9.99984C1.45831 9.99984 1.45831 12.7175 1.81039 14.0077C2.00756 14.7214 2.58497 15.2842 3.3173 15.4763C4.66929 15.8332 10.0068 15.8332 10.0068 15.8332C10.0068 15.8332 15.3584 15.8332 16.6964 15.49C17.4287 15.2979 18.0061 14.7351 18.2033 14.0214C18.5553 12.7175 18.5553 10.0136 18.5553 10.0136C18.5553 10.0136 18.5694 7.29592 18.2033 5.99199Z" fill="#FF0000"/>
<path d="M8.30273 12.498L12.753 9.99999L8.30273 7.50195V12.498Z" fill="white"/>
</g>
<defs>
<clipPath id="clip0_5352_38093">
<rect width="20" height="20" fill="white"/>
</clipPath>
</defs>
</svg>
